<?xml version="1.0" encoding="utf-8"?>
<!-- Generator: Adobe Illustrator 20.1.0, SVG Export Plug-In . SVG Version: 6.00 Build 0)  -->
<svg version="1.1" id="IMAGE" xmlns="http://www.w3.org/2000/svg" xmlns:xlink="http://www.w3.org/1999/xlink" x="0px" y="0px"
	 viewBox="0 0 335 185" style="enable-background:new 0 0 335 185;" xml:space="preserve">
<style type="text/css">
	.st0{fill:none;stroke:#3E3935;stroke-width:2.7598;stroke-linecap:round;stroke-linejoin:round;stroke-miterlimit:10;}
	.st1{fill:none;stroke:#3E3935;stroke-width:2.7598;stroke-linejoin:round;stroke-miterlimit:10;}
	.st2{fill:#51B848;}
	.st3{fill:#025071;}
</style>
<g>
	<polyline class="st0" points="294.51,31.064 271.095,31.064 271.095,37.672 294.51,37.672 	"/>
	<polyline class="st0" points="301.586,37.672 325,37.672 325,31.064 301.586,31.064 	"/>
	
		<rect x="294.51" y="21.489" transform="matrix(-1 -4.473545e-11 4.473545e-11 -1 596.095 184.9995)" class="st0" width="7.075" height="142.022"/>
	<path class="st0" d="M130.986,128.18c98.53,0,146.46-92.823,146.46-92.823s20.601,34.946,41.552,0.444"/>
	<rect x="32.327" y="112.28" class="st0" width="87.093" height="51.231"/>
	<polyline class="st0" points="39.546,95.585 16.959,112.28 134.79,112.28 75.874,68.733 69.116,73.728 	"/>
	<polyline class="st1" points="119.421,100.965 119.421,76.416 104.051,76.416 104.051,89.623 	"/>
	<rect x="47.696" y="127.65" class="st1" width="15.369" height="35.861"/>
	<rect x="78.434" y="127.65" class="st1" width="25.615" height="15.369"/>
	<line class="st0" x1="34.179" y1="40.318" x2="34.179" y2="43.005"/>
	<line class="st0" x1="15.374" y1="45.618" x2="18.061" y2="48.304"/>
	<line class="st0" x1="52.986" y1="42.923" x2="50.3" y2="45.609"/>
	<line class="st0" x1="10" y1="64.497" x2="12.687" y2="64.497"/>
	<path class="st0" d="M46.233,53.735c-2.955-3.329-7.254-5.435-12.052-5.435c-8.903,0-16.119,7.219-16.119,16.119
		c0,1.848,0.314,3.611,0.897,5.263"/>
	<rect x="39.553" y="89.044" class="st0" width="8.06" height="13.064"/>
	<line class="st0" x1="38.209" y1="64.497" x2="32.836" y2="88.676"/>
	<line class="st0" x1="48.955" y1="64.497" x2="54.328" y2="88.676"/>
	<line class="st1" x1="24.329" y1="72.557" x2="62.835" y2="72.557"/>
	<line class="st1" x1="19.85" y1="80.616" x2="67.313" y2="80.616"/>
	<polygon class="st0" points="28.806,64.497 58.358,64.497 71.791,88.676 15.373,88.676 	"/>
	<line class="st0" x1="16.959" y1="163.511" x2="316.55" y2="163.511"/>
	<path class="st2" d="M139.101,74.369v0.988l0.251,0.699l0.652,0.29h73.657l-2.262,2.27l-0.293,0.695l0.293,0.695l0.579,0.587
		l0.695,0.286l0.703-0.286l5.026-5.034l0.286-0.695l-0.286-0.703l-5.026-5.018l-0.703-0.293l-0.695,0.293l-0.579,0.571l-0.293,0.702
		l0.293,0.703l2.262,2.262h-73.657l-0.652,0.29L139.101,74.369L139.101,74.369z"/>
	<path class="st3" d="M271.781,139.811v-0.988l-0.251-0.699l-0.652-0.29h-76.66l2.262-2.27l0.293-0.695l-0.293-0.695l-0.579-0.587
		l-0.695-0.286l-0.703,0.286l-5.026,5.034l-0.286,0.695l0.286,0.703l5.026,5.018l0.703,0.293l0.695-0.293l0.579-0.571l0.293-0.702
		l-0.293-0.703l-2.262-2.262h76.66l0.652-0.29L271.781,139.811L271.781,139.811z"/>
	<g>
		<path class="st2" d="M143.534,53.115c2.91,0,5.093,2.183,5.093,5.093c0,2.909-2.183,5.092-5.093,5.092
			c-2.909,0-5.092-2.183-5.092-5.092C138.442,55.298,140.625,53.115,143.534,53.115z M143.534,55.152
			c-1.789,0-3.055,1.266-3.055,3.056c0,1.789,1.266,3.055,3.055,3.055c1.79,0,3.056-1.266,3.056-3.055
			C146.59,56.418,145.324,55.152,143.534,55.152z"/>
		<path class="st2" d="M156.535,56.025V63.3h-1.862v-1.106c-0.509,0.741-1.207,1.28-2.314,1.28c-1.687,0-2.516-1.135-2.516-2.924
			v-4.525h1.964v4.045c0,1.047,0.364,1.556,1.222,1.556c1.091,0,1.571-0.858,1.571-2.124v-3.477H156.535z"/>
		<path class="st2" d="M162.612,63.155c-0.539,0.131-1.091,0.218-1.571,0.218c-1.353,0-2.139-0.626-2.139-2.299V57.64h-1.324v-1.615
			h1.324v-1.949h1.921v1.949h1.847v1.615h-1.847v3.157c0,0.466,0.218,0.654,0.727,0.654c0.291,0,0.539-0.014,1.062-0.116V63.155z"/>
		<path class="st2" d="M166.71,57.64v5.66h-1.92v-5.66h-1.47v-1.615h1.47v-0.363c0-1.892,1.135-2.706,2.633-2.706
			c0.539,0,0.945,0.058,1.426,0.131v1.775c-0.451-0.073-0.772-0.117-1.106-0.117c-0.772,0-1.034,0.363-1.034,1.12v0.16h2.066v1.615
			H166.71z M171.847,53.115V63.3h-1.935V53.115H171.847z"/>
		<path class="st2" d="M176.977,55.851c2.241,0,3.913,1.542,3.913,3.812s-1.673,3.812-3.913,3.812s-3.914-1.542-3.914-3.812
			S174.737,55.851,176.977,55.851z M176.977,57.727c-1.106,0-1.935,0.772-1.935,1.935c0,1.164,0.83,1.935,1.935,1.935
			s1.934-0.771,1.934-1.935C178.911,58.499,178.083,57.727,176.977,57.727z"/>
		<path class="st2" d="M184.311,63.3l-2.954-7.274h2.094l1.63,4.336l1.731-4.336h1.557l1.746,4.336l1.615-4.336h2.096l-2.954,7.274
			h-1.456l-1.819-4.321l-1.833,4.321H184.311z"/>
	</g>
	<g>
		<path class="st3" d="M228.697,118.267v10.184h-2.038v-10.184H228.697z"/>
		<path class="st3" d="M232.477,122.225c0.509-0.713,1.295-1.222,2.357-1.222c1.702,0,2.574,1.091,2.574,2.938v4.511h-1.964v-4.03
			c0-1.106-0.509-1.571-1.324-1.571c-1.121,0-1.586,0.829-1.586,2.124v3.477h-1.92v-7.274h1.862V122.225z"/>
		<path class="st3" d="M242.13,122.784v5.66h-1.92v-5.66h-1.47v-1.615h1.47v-0.363c0-1.892,1.135-2.706,2.633-2.706
			c0.539,0,0.945,0.058,1.426,0.131v1.775c-0.451-0.073-0.771-0.117-1.106-0.117c-0.772,0-1.034,0.363-1.034,1.12v0.16h2.066v1.615
			H242.13z M247.266,118.259v10.184h-1.935v-10.184H247.266z"/>
		<path class="st3" d="M252.396,120.995c2.241,0,3.913,1.542,3.913,3.812s-1.673,3.812-3.913,3.812
			c-2.241,0-3.914-1.542-3.914-3.812S250.156,120.995,252.396,120.995z M252.396,122.871c-1.106,0-1.935,0.772-1.935,1.935
			c0,1.164,0.83,1.935,1.935,1.935c1.106,0,1.934-0.771,1.934-1.935C254.331,123.643,253.502,122.871,252.396,122.871z"/>
		<path class="st3" d="M259.172,128.444l-2.954-7.274h2.095l1.63,4.336l1.731-4.336h1.557l1.746,4.336l1.615-4.336h2.096
			l-2.954,7.274h-1.455l-1.819-4.321l-1.833,4.321H259.172z"/>
	</g>
	<rect x="119.419" y="122.286" class="st0" width="6.784" height="11.786"/>
	<rect x="126.204" y="124.644" class="st0" width="4.783" height="7.072"/>
	<line class="st0" x1="123.689" y1="134.073" x2="123.689" y2="163.511"/>
</g>
</svg>
