<?xml version="1.0" encoding="utf-8"?>
<!-- Generator: Adobe Illustrator 20.1.0, SVG Export Plug-In . SVG Version: 6.00 Build 0)  -->
<svg version="1.1" id="Layer_1" xmlns="http://www.w3.org/2000/svg" xmlns:xlink="http://www.w3.org/1999/xlink" x="0px" y="0px"
	 viewBox="0 0 228 30" style="enable-background:new 0 0 228 30;" xml:space="preserve">
<style type="text/css">
	.st0{clip-path:url(#SVGID_2_);fill:none;stroke:#0BA3C8;stroke-width:1.5;}
	.st1{enable-background:new    ;}
	.st2{fill:#0BA3C8;}
</style>
<g>
	<g>
		<defs>
			<rect id="SVGID_1_" width="228" height="30"/>
		</defs>
		<clipPath id="SVGID_2_">
			<use xlink:href="#SVGID_1_"  style="overflow:visible;"/>
		</clipPath>
		<path class="st0" d="M4.2,0.8c0,0-3.5,0-3.5,3.5v21.5c0,0,0,3.5,3.5,3.5h219.5c0,0,3.5,0,3.5-3.5V4.2c0,0,0-3.5-3.5-3.5H4.2V0.8z"
			/>
	</g>
</g>
<g class="st1">
	<path class="st2" d="M30.1,9.8v2h-4.4v2h4.4v2h-4.4v2h4.4v2h-6.3V9.8H30.1z"/>
</g>
<g class="st1">
	<path class="st2" d="M38.7,9.8v9.8h-1.8v-1c-0.5,0.7-1.3,1.2-2.3,1.2c-1.7,0-3.2-1.3-3.2-3.7s1.4-3.7,3.2-3.7
		c1.1,0,1.9,0.5,2.4,1.2V9.8H38.7z M33.3,16.1c0,1.1,0.8,1.9,1.8,1.9s1.8-0.7,1.8-1.9c0-1.2-0.8-1.9-1.8-1.9S33.3,15,33.3,16.1z"/>
</g>
<g class="st1">
	<path class="st2" d="M41.3,9.4c0.7,0,1.2,0.5,1.2,1.2c0,0.7-0.5,1.2-1.2,1.2c-0.7,0-1.2-0.5-1.2-1.2C40.1,9.9,40.6,9.4,41.3,9.4z
		 M42.2,12.6v7h-1.8v-7H42.2z"/>
</g>
<g class="st1">
	<path class="st2" d="M48,19.5c-0.5,0.1-1.1,0.2-1.5,0.2c-1.3,0-2.1-0.6-2.1-2.2v-3.3h-1.3v-1.6h1.3v-1.9h1.8v1.9h1.8v1.6h-1.8v3
		c0,0.4,0.2,0.6,0.7,0.6c0.3,0,0.5,0,1-0.1V19.5z"/>
</g>
<g class="st1">
	<path class="st2" d="M56.4,12.4c2.1,0,3.5,1.5,3.5,3.7v0.5h-5.2l0,0c0.2,0.9,1.1,1.3,1.9,1.3c0.8,0,1.5-0.3,2-0.7l0.8,1.5
		c-0.6,0.5-1.4,0.9-2.8,0.9c-2.4,0-3.8-1.6-3.8-3.7C52.9,14,54.2,12.4,56.4,12.4z M57.9,15.3c-0.1-0.8-0.6-1.3-1.5-1.3
		s-1.5,0.5-1.7,1.3H57.9z"/>
</g>
<g class="st1">
	<path class="st2" d="M66.1,22.4v-3.8c-0.5,0.7-1.2,1.2-2.4,1.2c-1.7,0-3.2-1.3-3.2-3.7s1.5-3.7,3.2-3.7c1,0,1.8,0.4,2.3,1.2v-1h1.8
		v9.8H66.1z M64.3,18c1.1,0,1.8-0.7,1.8-1.9c0-1.2-0.8-1.9-1.8-1.9c-1.1,0-1.8,0.7-1.8,1.9S63.2,18,64.3,18z"/>
</g>
<g class="st1">
	<path class="st2" d="M75.9,12.6v7h-1.8v-1.1c-0.5,0.7-1.2,1.2-2.2,1.2c-1.6,0-2.4-1.1-2.4-2.8v-4.4h1.9v3.9c0,1,0.4,1.5,1.2,1.5
		c1.1,0,1.5-0.8,1.5-2v-3.3H75.9z"/>
</g>
<g class="st1">
	<path class="st2" d="M77.4,14c0.5-1.1,1.6-1.6,3.1-1.6c2.1,0,3.1,0.9,3.1,2.8v4.3h-1.8v-1c-0.4,0.6-1.1,1.1-2.2,1.1
		c-1.4,0-2.4-0.9-2.4-2.2c0-1.3,1-2.1,2.2-2.2l1.9-0.2c0.2,0,0.4-0.1,0.4-0.3v-0.1c0-0.4-0.4-0.7-1.2-0.7c-0.7,0-1.5,0.2-1.8,0.9
		L77.4,14z M81.7,16.5L80,16.7c-0.6,0.1-0.9,0.4-0.9,0.8c0,0.4,0.3,0.7,1,0.7c1,0,1.6-0.7,1.6-1.4V16.5z"/>
</g>
<g class="st1">
	<path class="st2" d="M87,9.8v9.8h-1.9V9.8H87z"/>
</g>
<g class="st1">
	<path class="st2" d="M92.6,22.4v-9.8h1.8v1c0.5-0.7,1.3-1.2,2.3-1.2c1.7,0,3.2,1.3,3.2,3.7s-1.4,3.7-3.2,3.7
		c-1.1,0-1.9-0.5-2.4-1.2v3.8H92.6z M98.1,16.1c0-1.1-0.8-1.9-1.8-1.9s-1.8,0.7-1.8,1.9c0,1.2,0.8,1.9,1.8,1.9S98.1,17.2,98.1,16.1z
		"/>
</g>
<g class="st1">
	<path class="st2" d="M100.9,14c0.5-1.1,1.6-1.6,3.1-1.6c2.1,0,3.1,0.9,3.1,2.8v4.3h-1.8v-1c-0.4,0.6-1.1,1.1-2.2,1.1
		c-1.4,0-2.4-0.9-2.4-2.2c0-1.3,1-2.1,2.2-2.2l1.9-0.2c0.2,0,0.4-0.1,0.4-0.3v-0.1c0-0.4-0.4-0.7-1.2-0.7c-0.7,0-1.5,0.2-1.8,0.9
		L100.9,14z M105.2,16.5l-1.7,0.2c-0.6,0.1-0.9,0.4-0.9,0.8c0,0.4,0.3,0.7,1,0.7c1,0,1.6-0.7,1.6-1.4V16.5z"/>
</g>
<g class="st1">
	<path class="st2" d="M108.7,22.4l1.7-3.8l-3-6h2.2l1.8,3.8l1.7-3.8h2l-4.4,9.8H108.7z"/>
</g>
<g class="st1">
	<path class="st2" d="M124.3,12.4c1.6,0,2.6,1.1,2.6,2.9v4.3h-1.9v-3.9c0-1-0.4-1.5-1.3-1.5c-1.1,0-1.5,0.9-1.5,2v3.3h-1.8v-3.9
		c0-1-0.4-1.5-1.3-1.5c-1.1,0-1.5,0.9-1.5,2v3.3h-1.8v-7h1.8v1c0.4-0.7,1.1-1.2,2.2-1.2c1.1,0,1.8,0.4,2.2,1.3
		C122.4,13,123.1,12.4,124.3,12.4z"/>
</g>
<g class="st1">
	<path class="st2" d="M131.7,12.4c2.1,0,3.5,1.5,3.5,3.7v0.5H130l0,0c0.2,0.9,1.1,1.3,1.9,1.3c0.8,0,1.5-0.3,2-0.7l0.8,1.5
		c-0.6,0.5-1.4,0.9-2.8,0.9c-2.4,0-3.8-1.6-3.8-3.7C128.2,14,129.5,12.4,131.7,12.4z M133.2,15.3c-0.1-0.8-0.6-1.3-1.5-1.3
		s-1.5,0.5-1.7,1.3H133.2z"/>
</g>
<g class="st1">
	<path class="st2" d="M138.1,13.6c0.5-0.7,1.2-1.2,2.3-1.2c1.6,0,2.5,1.1,2.5,2.8v4.3h-1.9v-3.9c0-1.1-0.5-1.5-1.3-1.5
		c-1.1,0-1.5,0.8-1.5,2v3.3h-1.8v-7h1.8V13.6z"/>
</g>
<g class="st1">
	<path class="st2" d="M148.5,19.5c-0.5,0.1-1.1,0.2-1.5,0.2c-1.3,0-2.1-0.6-2.1-2.2v-3.3h-1.3v-1.6h1.3v-1.9h1.8v1.9h1.8v1.6h-1.8v3
		c0,0.4,0.2,0.6,0.7,0.6c0.3,0,0.5,0,1-0.1V19.5z"/>
</g>
<g class="st1">
	<path class="st2" d="M156.6,12.4c1.3,0,2.2,0.4,2.8,1l-1,1.3c-0.4-0.4-1.1-0.7-1.9-0.7c-0.6,0-0.9,0.2-0.9,0.5
		c0,0.4,0.4,0.4,1.6,0.7c1.2,0.3,2.2,0.7,2.2,2.2c0,1.6-1.2,2.3-3,2.3c-1.3,0-2.5-0.4-3.1-1.2l1.1-1.4c0.5,0.6,1.2,0.9,2.2,0.9
		c0.5,0,0.9-0.1,0.9-0.5c0-0.4-0.4-0.4-1.6-0.7c-1.1-0.2-2.3-0.7-2.3-2.2C153.6,13.2,154.7,12.4,156.6,12.4z"/>
</g>
<g class="st1">
	<path class="st2" d="M163.6,12.4c2.1,0,3.5,1.5,3.5,3.7v0.5H162l0,0c0.2,0.9,1.1,1.3,1.9,1.3c0.8,0,1.5-0.3,2-0.7l0.8,1.5
		c-0.6,0.5-1.4,0.9-2.8,0.9c-2.4,0-3.8-1.6-3.8-3.7C160.1,14,161.4,12.4,163.6,12.4z M165.1,15.3c-0.1-0.8-0.6-1.3-1.5-1.3
		s-1.5,0.5-1.7,1.3H165.1z"/>
</g>
<g class="st1">
	<path class="st2" d="M172.4,19.5c-0.5,0.1-1,0.2-1.5,0.2c-1.3,0-2.1-0.6-2.1-2.2v-3.3h-1.3v-1.6h1.3v-1.9h1.8v1.9h1.8v1.6h-1.8v3
		c0,0.4,0.2,0.6,0.7,0.6c0.3,0,0.5,0,1-0.1V19.5z"/>
</g>
<g class="st1">
	<path class="st2" d="M178,19.5c-0.5,0.1-1.1,0.2-1.5,0.2c-1.3,0-2.1-0.6-2.1-2.2v-3.3h-1.3v-1.6h1.3v-1.9h1.8v1.9h1.8v1.6h-1.8v3
		c0,0.4,0.2,0.6,0.7,0.6c0.3,0,0.5,0,1-0.1V19.5z"/>
</g>
<g class="st1">
	<path class="st2" d="M180.2,9.4c0.7,0,1.2,0.5,1.2,1.2c0,0.7-0.5,1.2-1.2,1.2c-0.7,0-1.2-0.5-1.2-1.2C179,9.9,179.5,9.4,180.2,9.4z
		 M181.1,12.6v7h-1.8v-7H181.1z"/>
</g>
<g class="st1">
	<path class="st2" d="M184.5,13.6c0.5-0.7,1.2-1.2,2.3-1.2c1.6,0,2.5,1.1,2.5,2.8v4.3h-1.9v-3.9c0-1.1-0.5-1.5-1.3-1.5
		c-1.1,0-1.5,0.8-1.5,2v3.3h-1.8v-7h1.8V13.6z"/>
	<path class="st2" d="M193.7,12.4c1.1,0,1.9,0.5,2.3,1.1v-1h1.8v6.5c0,1.8-0.9,3.4-3.8,3.4c-1.4,0-2.4-0.4-3.1-1.1l0.9-1.5
		c0.6,0.6,1.3,0.9,2.1,0.9c1.6,0,2.1-0.8,2.1-1.8v-0.4c-0.5,0.7-1.2,1.1-2.3,1.1c-1.9,0-3.3-1.3-3.3-3.6
		C190.5,13.7,192,12.4,193.7,12.4z M194.2,14.2c-1.1,0-1.8,0.7-1.8,1.9s0.8,1.9,1.8,1.9c1.1,0,1.8-0.7,1.8-1.9
		C196.1,14.9,195.3,14.2,194.2,14.2z"/>
</g>
<g class="st1">
	<path class="st2" d="M202.2,12.4c1.3,0,2.2,0.4,2.8,1l-1,1.3c-0.4-0.4-1.1-0.7-1.9-0.7c-0.6,0-0.9,0.2-0.9,0.5
		c0,0.4,0.4,0.4,1.6,0.7c1.2,0.3,2.2,0.7,2.2,2.2c0,1.6-1.2,2.3-3,2.3c-1.3,0-2.5-0.4-3.1-1.2l1.1-1.4c0.5,0.6,1.2,0.9,2.2,0.9
		c0.5,0,0.9-0.1,0.9-0.5c0-0.4-0.4-0.4-1.6-0.7c-1.1-0.2-2.3-0.7-2.3-2.2C199.2,13.2,200.3,12.4,202.2,12.4z"/>
</g>
</svg>
