<svg xmlns="http://www.w3.org/2000/svg" viewBox="0 0 33.04 31.21"><defs><style>.cls-1{fill:#50b848;}</style></defs><title>Asset 5</title><g id="Layer_2" data-name="Layer 2"><g id="Layer_1-2" data-name="Layer 1"><path class="cls-1" d="M0,14.7a2.68,2.68,0,0,1,.78-1.91l1.6-1.59a2.61,2.61,0,0,1,1.92-.81,2.51,2.51,0,0,1,1.91.81l6.24,6.21V2.48A2.26,2.26,0,0,1,13.24.69,2.83,2.83,0,0,1,15.16,0h2.72a2.8,2.8,0,0,1,1.91.69,2.24,2.24,0,0,1,.8,1.79V17.41l6.23-6.21a2.66,2.66,0,0,1,3.82,0l1.59,1.59A2.59,2.59,0,0,1,33,14.7a2.65,2.65,0,0,1-.81,1.93l-13.8,13.8a2.52,2.52,0,0,1-1.91.78,2.63,2.63,0,0,1-1.93-.78L.78,16.63A2.75,2.75,0,0,1,0,14.7Z"/></g></g></svg>