<svg xmlns="http://www.w3.org/2000/svg" viewBox="0 0 33.04 31.21"><defs><style>.cls-1{fill:#3e3935;}</style></defs><title>Asset 7</title><g id="Layer_2" data-name="Layer 2"><g id="Layer_1-2" data-name="Layer 1"><path class="cls-1" d="M33,16.52a2.67,2.67,0,0,1-.79,1.91L30.66,20a2.6,2.6,0,0,1-1.93.8,2.52,2.52,0,0,1-1.91-.8L20.59,13.8V28.73a2.21,2.21,0,0,1-.8,1.79,2.79,2.79,0,0,1-1.91.69H15.16a2.83,2.83,0,0,1-1.92-.69,2.23,2.23,0,0,1-.79-1.79V13.8L6.21,20a2.5,2.5,0,0,1-1.91.8A2.48,2.48,0,0,1,2.4,20L.81,18.43a2.68,2.68,0,0,1,0-3.84L14.61.78A2.51,2.51,0,0,1,16.52,0a2.63,2.63,0,0,1,1.93.78l13.8,13.81A2.68,2.68,0,0,1,33,16.52Z"/></g></g></svg>