<?xml version="1.0" encoding="utf-8"?>
<!-- Generator: Adobe Illustrator 20.1.0, SVG Export Plug-In . SVG Version: 6.00 Build 0)  -->
<svg version="1.1" baseProfile="tiny" id="Layer_1" xmlns="http://www.w3.org/2000/svg" xmlns:xlink="http://www.w3.org/1999/xlink"
	 x="0px" y="0px" viewBox="0 0 7.2 7.2" xml:space="preserve">
<g>
	<path fill="#10A3C8" d="M6.9,5L6.2,5.7C6.2,5.8,6.1,5.8,6,5.8c-0.1,0-0.1,0-0.2-0.1L3.6,3.5L1.3,5.7C1.3,5.8,1.2,5.8,1.2,5.8
		S1,5.8,1,5.7L0.3,5C0.2,5,0.2,4.9,0.2,4.8c0-0.1,0-0.1,0.1-0.2l3.1-3.1c0.1-0.1,0.1-0.1,0.2-0.1c0.1,0,0.1,0,0.2,0.1l3.1,3.1
		C7,4.7,7,4.7,7,4.8C7,4.9,7,5,6.9,5z"/>
</g>
</svg>
