<?xml version="1.0" encoding="utf-8"?>
<!-- Generator: Adobe Illustrator 20.1.0, SVG Export Plug-In . SVG Version: 6.00 Build 0)  -->
<svg version="1.1" id="Layer_1" xmlns="http://www.w3.org/2000/svg" xmlns:xlink="http://www.w3.org/1999/xlink" x="0px" y="0px"
	 viewBox="0 0 20 20" style="enable-background:new 0 0 20 20;" xml:space="preserve">
<style type="text/css">
	.st0{fill:#3E3935;}
</style>
<g>
	<path class="st0" d="M19.394,10c0,0.459-0.158,0.848-0.473,1.162l-8.309,8.308c-0.332,0.315-0.719,0.473-1.161,0.473
		c-0.434,0-0.817-0.157-1.149-0.473l-0.957-0.957c-0.323-0.323-0.485-0.71-0.485-1.161s0.162-0.838,0.485-1.162l3.74-3.738H2.1
		c-0.442,0-0.802-0.16-1.079-0.479c-0.276-0.32-0.415-0.705-0.415-1.156V9.183c0-0.451,0.138-0.836,0.415-1.155
		C1.298,7.709,1.657,7.55,2.1,7.55h8.985l-3.74-3.752C7.022,3.491,6.86,3.108,6.86,2.649S7.022,1.806,7.345,1.5l0.957-0.957
		c0.323-0.323,0.707-0.485,1.149-0.485c0.451,0,0.838,0.162,1.161,0.485l8.309,8.309C19.235,9.149,19.394,9.532,19.394,10z"/>
</g>
</svg>
