<?xml version="1.0" encoding="utf-8"?>
<!-- Generator: Adobe Illustrator 20.1.0, SVG Export Plug-In . SVG Version: 6.00 Build 0)  -->
<svg version="1.1" id="Layer_1" xmlns="http://www.w3.org/2000/svg" xmlns:xlink="http://www.w3.org/1999/xlink" x="0px" y="0px"
	 viewBox="0 0 10.8 10.8" style="enable-background:new 0 0 10.8 10.8;" xml:space="preserve">
<style type="text/css">
	.st0{fill:#9C948D;}
</style>
<g>
	<path class="st0" d="M10.318,5.393C10.639,5.944,10.8,6.546,10.8,7.2c0,0.652-0.161,1.255-0.482,1.806
		c-0.322,0.553-0.759,0.988-1.311,1.311C8.455,10.639,7.853,10.8,7.2,10.8c-0.653,0-1.256-0.161-1.808-0.483
		s-0.988-0.758-1.31-1.311C3.761,8.455,3.6,7.853,3.6,7.2c0-0.654,0.161-1.256,0.483-1.808c0.321-0.551,0.758-0.988,1.31-1.31
		C5.945,3.761,6.547,3.6,7.2,3.6c0.652,0,1.255,0.161,1.807,0.483C9.559,4.404,9.996,4.841,10.318,5.393z M9,6.3
		C9,6.025,8.914,5.77,8.74,5.536C8.567,5.301,8.35,5.12,8.09,4.992C7.831,4.864,7.565,4.8,7.294,4.8
		c-0.76,0-1.339,0.333-1.739,0.999C5.508,5.873,5.52,5.939,5.593,5.995l0.618,0.468C6.233,6.483,6.263,6.493,6.3,6.493
		c0.051,0,0.089-0.02,0.117-0.057c0.166-0.213,0.3-0.356,0.404-0.432C6.927,5.93,7.061,5.892,7.223,5.892
		c0.15,0,0.283,0.041,0.401,0.122C7.741,6.095,7.8,6.187,7.8,6.291c0,0.118-0.031,0.214-0.093,0.285
		C7.644,6.648,7.538,6.719,7.387,6.787C7.191,6.874,7.011,7.01,6.847,7.193S6.6,7.572,6.6,7.781V7.95
		c0,0.044,0.014,0.08,0.043,0.107C6.671,8.085,6.706,8.099,6.75,8.099h0.9c0.044,0,0.08-0.014,0.108-0.042
		C7.786,8.03,7.8,7.994,7.8,7.95c0-0.06,0.034-0.137,0.1-0.233c0.068-0.095,0.153-0.173,0.256-0.232c0.1-0.057,0.177-0.1,0.23-0.134
		C8.439,7.32,8.511,7.264,8.602,7.189c0.09-0.078,0.16-0.152,0.209-0.225C8.859,6.89,8.903,6.795,8.942,6.679
		C8.98,6.564,9,6.437,9,6.3z M7.8,9.45v-0.9c0-0.044-0.014-0.08-0.042-0.108C7.729,8.414,7.694,8.4,7.65,8.4h-0.9
		c-0.044,0-0.08,0.014-0.107,0.042C6.614,8.47,6.6,8.506,6.6,8.55v0.9c0,0.044,0.014,0.08,0.043,0.107
		C6.671,9.586,6.706,9.6,6.75,9.6h0.9c0.044,0,0.08-0.014,0.108-0.043C7.786,9.529,7.8,9.493,7.8,9.45z"/>
</g>
</svg>
