<svg id="Layer_1" data-name="Layer 1" xmlns="http://www.w3.org/2000/svg" viewBox="0 0 50 15"><defs><style>.cls-1{fill:#10a3c8;}.cls-2{fill:none;stroke:#10a3c8;stroke-linecap:round;stroke-linejoin:round;stroke-width:2px;}</style></defs><title>Artboard 1@3x-100</title><path class="cls-1" d="M10.54,3.54v9.11H8.72V9h-4v3.64H2.9V3.54H4.73V7.19h4V3.54Z"/><path class="cls-1" d="M13.2,3.18a1.09,1.09,0,0,1,1.11,1.11A1.08,1.08,0,0,1,13.2,5.38a1.07,1.07,0,0,1-1.09-1.09A1.08,1.08,0,0,1,13.2,3.18Zm.86,3v6.51H12.34V6.15Z"/><path class="cls-1" d="M22.11,3.54v9.11H20.39v-.91a2.55,2.55,0,0,1-2.16,1.08c-1.61,0-3-1.24-3-3.42S16.6,6,18.2,6a2.6,2.6,0,0,1,2.19,1.11V3.54ZM17,9.4a1.71,1.71,0,1,0,3.41,0,1.63,1.63,0,0,0-1.71-1.74A1.65,1.65,0,0,0,17,9.4Z"/><path class="cls-1" d="M26.55,6c2,0,3.21,1.37,3.21,3.46v.47H25v0a1.68,1.68,0,0,0,1.74,1.25,2.71,2.71,0,0,0,1.85-.66L29.29,12a3.82,3.82,0,0,1-2.59.86A3.26,3.26,0,0,1,23.22,9.4,3.22,3.22,0,0,1,26.55,6Zm1.34,2.68A1.31,1.31,0,0,0,26.5,7.45,1.45,1.45,0,0,0,25,8.67Z"/><polyline class="cls-2" points="37.69 10.8 42.39 6.1 47.1 10.8"/></svg>