<?xml version="1.0" encoding="utf-8"?>
<!-- Generator: Adobe Illustrator 20.1.0, SVG Export Plug-In . SVG Version: 6.00 Build 0)  -->
<svg version="1.1" baseProfile="tiny" id="Layer_1" xmlns="http://www.w3.org/2000/svg" xmlns:xlink="http://www.w3.org/1999/xlink"
	 x="0px" y="0px" viewBox="0 0 7.2 7.2" xml:space="preserve">
<g>
	<path fill="#10A3C8" d="M0.3,2.2L1,1.5C1,1.4,1.1,1.4,1.2,1.4c0.1,0,0.1,0,0.2,0.1l2.3,2.3l2.3-2.3C5.9,1.4,6,1.4,6,1.4
		s0.1,0,0.2,0.1l0.7,0.7C7,2.2,7,2.3,7,2.4c0,0.1,0,0.1-0.1,0.2L3.8,5.7C3.7,5.8,3.7,5.8,3.6,5.8c-0.1,0-0.1,0-0.2-0.1L0.3,2.6
		C0.2,2.5,0.2,2.5,0.2,2.4C0.2,2.3,0.2,2.2,0.3,2.2z"/>
</g>
</svg>
