<?xml version="1.0" encoding="UTF-8" standalone="no"?>
<svg
   xmlns:dc="http://purl.org/dc/elements/1.1/"
   xmlns:cc="http://creativecommons.org/ns#"
   xmlns:rdf="http://www.w3.org/1999/02/22-rdf-syntax-ns#"
   xmlns:svg="http://www.w3.org/2000/svg"
   xmlns="http://www.w3.org/2000/svg"
   xml:space="preserve"
   style="enable-background:new 0 0 10.8 10.8;"
   viewBox="0 0 10.8 10.8"
   y="0px"
   x="0px"
   id="Layer_1"
   version="1.1"><metadata
     id="metadata13"><rdf:RDF><cc:Work
         rdf:about=""><dc:format>image/svg+xml</dc:format><dc:type
           rdf:resource="http://purl.org/dc/dcmitype/StillImage" /><dc:title></dc:title></cc:Work></rdf:RDF></metadata><defs
     id="defs11" /><style
     id="style3"
     type="text/css">
	.st0{fill:#9C948D;}
</style><g
     transform="translate(-0.22881357,-2.8237288)"
     id="g5"><path
       style="fill:#9c948d"
       id="path7"
       d="M 10.318,5.393 C 10.639,5.944 10.8,6.546 10.8,7.2 10.8,7.852 10.639,8.455 10.318,9.006 9.996,9.559 9.559,9.994 9.007,10.317 8.455,10.639 7.853,10.8 7.2,10.8 6.547,10.8 5.944,10.639 5.392,10.317 4.84,9.995 4.404,9.559 4.082,9.006 3.761,8.455 3.6,7.853 3.6,7.2 3.6,6.546 3.761,5.944 4.083,5.392 4.404,4.841 4.841,4.404 5.393,4.082 5.945,3.761 6.547,3.6 7.2,3.6 c 0.652,0 1.255,0.161 1.807,0.483 0.552,0.321 0.989,0.758 1.311,1.31 z M 9,6.3 C 9,6.025 8.914,5.77 8.74,5.536 8.567,5.301 8.35,5.12 8.09,4.992 7.831,4.864 7.565,4.8 7.294,4.8 6.534,4.8 5.955,5.133 5.555,5.799 5.508,5.873 5.52,5.939 5.593,5.995 l 0.618,0.468 c 0.022,0.02 0.052,0.03 0.089,0.03 0.051,0 0.089,-0.02 0.117,-0.057 C 6.583,6.223 6.717,6.08 6.821,6.004 6.927,5.93 7.061,5.892 7.223,5.892 c 0.15,0 0.283,0.041 0.401,0.122 C 7.741,6.095 7.8,6.187 7.8,6.291 7.8,6.409 7.769,6.505 7.707,6.576 7.644,6.648 7.538,6.719 7.387,6.787 7.191,6.874 7.011,7.01 6.847,7.193 6.683,7.376 6.6,7.572 6.6,7.781 l 0,0.169 c 0,0.044 0.014,0.08 0.043,0.107 0.028,0.028 0.063,0.042 0.107,0.042 l 0.9,0 C 7.694,8.099 7.73,8.085 7.758,8.057 7.786,8.03 7.8,7.994 7.8,7.95 7.8,7.89 7.834,7.813 7.9,7.717 7.968,7.622 8.053,7.544 8.156,7.485 8.256,7.428 8.333,7.385 8.386,7.351 8.439,7.32 8.511,7.264 8.602,7.189 8.692,7.111 8.762,7.037 8.811,6.964 8.859,6.89 8.903,6.795 8.942,6.679 8.98,6.564 9,6.437 9,6.3 Z m -1.2,3.15 0,-0.9 C 7.8,8.506 7.786,8.47 7.758,8.442 7.729,8.414 7.694,8.4 7.65,8.4 l -0.9,0 C 6.706,8.4 6.67,8.414 6.643,8.442 6.614,8.47 6.6,8.506 6.6,8.55 l 0,0.9 C 6.6,9.494 6.614,9.53 6.643,9.557 6.671,9.586 6.706,9.6 6.75,9.6 l 0.9,0 C 7.694,9.6 7.73,9.586 7.758,9.557 7.786,9.529 7.8,9.493 7.8,9.45 Z"
       class="st0" /></g></svg>