<?xml version="1.0" encoding="utf-8"?>
<!-- Generator: Adobe Illustrator 20.1.0, SVG Export Plug-In . SVG Version: 6.00 Build 0)  -->
<svg version="1.1" id="Layer_1" xmlns="http://www.w3.org/2000/svg" xmlns:xlink="http://www.w3.org/1999/xlink" x="0px" y="0px"
	 viewBox="0 0 470 295" style="enable-background:new 0 0 470 295;" xml:space="preserve">
<style type="text/css">
	.st0{fill:#004F6C;}
	.st1{fill:#10A2C7;}
	.st2{fill:#231F20;}
	.st3{clip-path:url(#SVGID_2_);fill:none;stroke:#CAC3BB;stroke-width:4;stroke-linecap:round;stroke-linejoin:round;}
	.st4{fill:none;stroke:#CAC3BB;stroke-width:4;stroke-linecap:round;stroke-linejoin:round;}
	.st5{clip-path:url(#SVGID_4_);fill:none;stroke:#CAC3BB;stroke-width:4;stroke-linecap:round;stroke-linejoin:round;}
</style>
<g>
	<g>
		<path class="st0" d="M42.4497,38.0999v15.9004h-5.1001V38.0999h-7.1997v-5.0996h19.4692v5.0996H42.4497z"/>
		<path class="st0" d="M56.4897,33.0002v8.25c0.9297-1.4697,2.3696-2.6094,4.6797-2.6094c3.3301,0,5.0698,2.0391,5.0698,5.7598
			v9.5996h-4.8599V46.05c0-2.0098-0.8398-2.7598-2.2798-2.7598c-1.5898,0-2.6099,1.1396-2.6099,3.4199v7.29h-4.7998v-21H56.4897z"/>
		<path class="st0" d="M69.1797,41.8499c1.1997-2.25,4.0195-3.1797,7.1094-3.1797c4.5298,0,6.8999,1.8604,6.8999,6.4199v8.9395
			h-4.7998V52.05c-0.6299,1.0498-2.0098,2.2803-4.4399,2.2803c-2.8198,0-5.0396-1.8301-5.0396-4.6797
			c0-2.7305,1.98-4.5,4.7695-4.7402L77.729,44.55c0.4502-0.0596,0.6602-0.21,0.6602-0.4795v-0.1211
			c0-0.5693-0.6602-0.9297-2.1899-0.9297c-1.23,0-2.9399,0.2705-3.6597,1.4707L69.1797,41.8499z M78.3892,47.6702l-3.0298,0.3594
			c-0.9902,0.1211-1.5,0.541-1.5,1.2598c0,0.8105,0.6001,1.2607,1.71,1.2607c1.6797,0,2.8198-1.0801,2.8198-2.6104V47.6702z"/>
		<path class="st0" d="M91.4692,41.2502c0.9302-1.3496,2.46-2.6094,4.7998-2.6094c3.3301,0,5.0698,2.0391,5.0698,5.7598v9.5996
			H96.479V46.05c0-2.0098-0.8398-2.7598-2.2798-2.7598c-1.5898,0-2.6099,1.1396-2.6099,3.4199v7.29h-4.7998v-15h4.6797V41.2502z"/>
		<path class="st0" d="M110.8496,48.5999l-1.1406,1.1094v4.291h-4.7993v-21h4.7993v10.8906l4.5898-4.8906h6.2402l-6.4795,6.4199
			l6.4492,8.5801h-6.1191L110.8496,48.5999z"/>
		<path class="st0" d="M132.2686,59.9993l3.6299-8.249l-6.2393-12.75h5.4893l3.2402,7.1396l3.1494-7.1396h5.0703l-9.2998,20.999
			H132.2686z"/>
		<path class="st0" d="M154.8281,38.6409c4.6797,0,8.1895,3.0596,8.1895,7.8594s-3.5098,7.8594-8.1895,7.8594
			s-8.1895-3.0596-8.1895-7.8594S150.1484,38.6409,154.8281,38.6409z M154.8281,43.3499c-1.7402,0-3.2695,1.1406-3.2695,3.1504
			s1.5293,3.1504,3.2695,3.1504s3.2705-1.1406,3.2705-3.1504S156.5684,43.3499,154.8281,43.3499z"/>
		<path class="st0" d="M180.0273,39.0002v15h-4.6494v-2.3398c-0.9297,1.4395-2.4297,2.6992-4.71,2.6992
			c-3.1191,0-4.9795-2.04-4.9795-5.7598v-9.5996h4.9199v8.04c0,2.0098,0.8096,2.6689,1.9795,2.6689
			c1.5303,0,2.6104-1.1387,2.6104-3.4189v-7.29H180.0273z"/>
	</g>
	<g>
		<path class="st1" d="M37.166,73.9163v10.084h-2.5205v-10.084h-4.5557v-2.5205h11.6318v2.5205H37.166z"/>
		<path class="st1" d="M45.2285,71.3958v4.8975c0.5942-0.918,1.4946-1.5117,2.8447-1.5117c2.1069,0,3.187,1.3496,3.187,3.6367v5.582
			h-2.4307V79.012c0-1.2959-0.5762-1.9443-1.6382-1.9443c-1.3687,0-1.9629,1.0264-1.9629,2.6289v4.3037h-2.3765V71.3958H45.2285z"/>
		<path class="st1" d="M54.6245,70.8918c0.8643,0,1.5303,0.666,1.5303,1.5303s-0.666,1.5127-1.5303,1.5127
			s-1.5127-0.6484-1.5127-1.5127S53.7603,70.8918,54.6245,70.8918z M55.8125,74.9973v9.0029H53.436v-9.0029H55.8125z"/>
		<path class="st1" d="M61.3208,74.7815c1.6562,0,2.7905,0.5215,3.583,1.332l-1.3325,1.7285
			c-0.5039-0.5586-1.4766-0.918-2.4307-0.918c-0.7744,0-1.1523,0.2158-1.1523,0.6299c0,0.4502,0.4863,0.5576,2.0889,0.9004
			c1.5664,0.3232,2.8809,0.9365,2.8809,2.8271c0,2.0703-1.4946,2.9346-3.8892,2.9346c-1.7285,0-3.2051-0.4863-3.9976-1.4951
			l1.3867-1.8008c0.5942,0.7207,1.5664,1.1709,2.8447,1.1709c0.666,0,1.2065-0.1797,1.2065-0.6846
			c0-0.5039-0.4863-0.5762-1.9985-0.918c-1.3506-0.2881-2.9893-0.8818-2.9893-2.8447
			C57.5215,75.8254,58.9438,74.7815,61.3208,74.7815z"/>
		<path class="st1" d="M72.5342,70.8918c0.8643,0,1.5303,0.666,1.5303,1.5303s-0.666,1.5127-1.5303,1.5127
			s-1.5127-0.6484-1.5127-1.5127S71.6699,70.8918,72.5342,70.8918z M73.7222,74.9973v9.0029h-2.3765v-9.0029H73.7222z"/>
		<path class="st1" d="M79.231,74.7815c1.6562,0,2.7905,0.5215,3.583,1.332l-1.3325,1.7285
			c-0.5039-0.5586-1.4766-0.918-2.4307-0.918c-0.7744,0-1.1523,0.2158-1.1523,0.6299c0,0.4502,0.4863,0.5576,2.0889,0.9004
			c1.5664,0.3232,2.8809,0.9365,2.8809,2.8271c0,2.0703-1.4946,2.9346-3.8892,2.9346c-1.7285,0-3.2051-0.4863-3.9976-1.4951
			l1.3867-1.8008c0.5942,0.7207,1.5664,1.1709,2.8447,1.1709c0.666,0,1.2065-0.1797,1.2065-0.6846
			c0-0.5039-0.4863-0.5762-1.9985-0.918c-1.3506-0.2881-2.9893-0.8818-2.9893-2.8447C75.4316,75.8254,76.854,74.7815,79.231,74.7815
			z"/>
		<path class="st1" d="M89.6519,87.6008l2.1968-4.8975l-3.8174-7.7061h2.7729l2.3047,4.9326l2.2148-4.9326h2.5205l-5.6714,12.6035
			H89.6519z"/>
		<path class="st1" d="M102.6128,74.7815c2.7729,0,4.8433,1.9082,4.8433,4.7168s-2.0703,4.7178-4.8433,4.7178
			s-4.8433-1.9092-4.8433-4.7178S99.8398,74.7815,102.6128,74.7815z M102.6128,77.1038c-1.3687,0-2.3945,0.9541-2.3945,2.3945
			s1.0259,2.3945,2.3945,2.3945s2.3945-0.9541,2.3945-2.3945S103.9814,77.1038,102.6128,77.1038z"/>
		<path class="st1" d="M117.2656,74.9973v9.0029h-2.3047v-1.3691c-0.6299,0.918-1.4941,1.585-2.8623,1.585
			c-2.0889,0-3.1152-1.4053-3.1152-3.6191v-5.5996h2.4307v5.0049c0,1.2969,0.4502,1.9268,1.5127,1.9268
			c1.3506,0,1.9443-1.0615,1.9443-2.6279v-4.3037H117.2656z"/>
		<path class="st1" d="M121.6738,76.4729c0.4863-1.0615,1.2783-1.6914,2.5566-1.6914c0.3418,0,0.5938,0.0537,0.8828,0.125v2.5566
			c-0.3428-0.125-0.7031-0.1436-1.0811-0.1436c-1.584,0-2.2686,0.8818-2.2686,2.6104v4.0703h-2.377v-9.0029h2.2871V76.4729z"/>
		<path class="st1" d="M134.7598,76.9963v7.0039h-2.377v-7.0039h-1.8184v-1.999h1.8184v-0.4502
			c0-2.3408,1.4043-3.3496,3.2588-3.3496c0.667,0,1.1709,0.0723,1.7646,0.1621v2.1973c-0.5576-0.0898-0.9541-0.1445-1.3682-0.1445
			c-0.9541,0-1.2783,0.4502-1.2783,1.3867v0.1982h2.5566v1.999H134.7598z M140.0352,70.8918c0.8643,0,1.5303,0.666,1.5303,1.5303
			s-0.666,1.5127-1.5303,1.5127s-1.5127-0.6484-1.5127-1.5127S139.1709,70.8918,140.0352,70.8918z M141.2236,74.9973v9.0029h-2.377
			v-9.0029H141.2236z"/>
		<path class="st1" d="M145.7393,76.2932c0.6309-0.8818,1.6025-1.5117,2.917-1.5117c2.1064,0,3.1875,1.3496,3.1875,3.6367v5.582
			h-2.4307V79.012c0-1.3682-0.6309-1.9443-1.6387-1.9443c-1.3867,0-1.9629,1.0264-1.9629,2.6289v4.3037h-2.377v-9.0029h2.3047
			V76.2932z"/>
		<path class="st1" d="M153.6758,76.8342c0.5947-1.3691,2.0527-2.0352,4.0156-2.0352c2.6465,0,3.9434,1.1348,3.9434,3.6553v5.5635
			h-2.377v-1.2246c-0.4863,0.7207-1.3506,1.4043-2.7725,1.4043c-1.7832,0-3.043-1.1523-3.043-2.8086
			c0-1.6211,1.2236-2.6826,2.8809-2.8262l2.4668-0.2168c0.3057-0.0361,0.4678-0.1621,0.4678-0.3594V77.842
			c0-0.5225-0.4863-0.9004-1.5664-0.9004c-0.9365,0-1.9268,0.3066-2.251,1.1523L153.6758,76.8342z M159.2578,80.0022l-2.2324,0.2705
			c-0.7383,0.126-1.1162,0.4863-1.1162,0.9902c0,0.5762,0.4316,0.9541,1.2783,0.9541c1.2598,0,2.0703-0.8643,2.0703-1.8545V80.0022z
			"/>
		<path class="st1" d="M166.043,71.3958v12.6045h-2.3955V71.3958H166.043z"/>
		<path class="st1" d="M175.6006,71.3958v4.8975c0.6299-0.8643,1.6025-1.5303,3.0254-1.5303c2.2139,0,4.0693,1.71,4.0693,4.7354
			s-1.873,4.7354-4.1055,4.7354c-1.3145,0-2.3408-0.5762-2.9893-1.4941v1.2607h-2.377V71.3958H175.6006z M177.8877,77.0862
			c-1.3506,0-2.3594,0.9004-2.3594,2.4121c0,1.4941,1.0088,2.4131,2.3594,2.4131s2.3584-0.9541,2.3584-2.4131
			S179.2383,77.0862,177.8877,77.0862z"/>
		<path class="st1" d="M185.5361,70.8918c0.8643,0,1.5303,0.666,1.5303,1.5303s-0.666,1.5127-1.5303,1.5127
			s-1.5117-0.6484-1.5117-1.5127S184.6719,70.8918,185.5361,70.8918z M186.7246,74.9973v9.0029h-2.377v-9.0029H186.7246z"/>
		<path class="st1" d="M191.333,71.3958v12.6045h-2.3955V71.3958H191.333z"/>
		<path class="st1" d="M195.7969,71.3958v12.6045h-2.3955V71.3958H195.7969z"/>
		<path class="st1" d="M205.5332,84.0002l-3.6543-9.0029h2.5928l2.0166,5.3652l2.1426-5.3652h1.9268l2.1602,5.3652l1.999-5.3652
			h2.5928l-3.6553,9.0029h-1.8008l-2.251-5.3477l-2.2686,5.3477H205.5332z"/>
		<path class="st1" d="M219.6094,70.8918c0.8643,0,1.5312,0.666,1.5312,1.5303s-0.667,1.5127-1.5312,1.5127
			s-1.5117-0.6484-1.5117-1.5127S218.7451,70.8918,219.6094,70.8918z M220.7979,74.9973v9.0029h-2.377v-9.0029H220.7979z"/>
		<path class="st1" d="M228.4131,83.8196c-0.667,0.1621-1.3506,0.2705-1.9453,0.2705c-1.6738,0-2.6465-0.7744-2.6465-2.8457v-4.248
			h-1.6387v-1.999h1.6387v-2.4131h2.377v2.4131h2.2861v1.999h-2.2861v3.9062c0,0.5762,0.2695,0.8105,0.9004,0.8105
			c0.3594,0,0.666-0.0176,1.3145-0.1445V83.8196z"/>
		<path class="st1" d="M232.4795,71.3958v4.8975c0.5947-0.918,1.4941-1.5117,2.8447-1.5117c2.1064,0,3.1875,1.3496,3.1875,3.6367
			v5.582h-2.4307V79.012c0-1.2959-0.5762-1.9443-1.6387-1.9443c-1.3682,0-1.9629,1.0264-1.9629,2.6289v4.3037h-2.377V71.3958
			H232.4795z"/>
		<path class="st1" d="M253.9561,74.9973v9.0029h-2.3047v-1.3691c-0.6309,0.918-1.4951,1.585-2.8633,1.585
			c-2.0889,0-3.1152-1.4053-3.1152-3.6191v-5.5996h2.4307v5.0049c0,1.2969,0.4502,1.9268,1.5127,1.9268
			c1.3506,0,1.9443-1.0615,1.9443-2.6279v-4.3037H253.9561z"/>
		<path class="st1" d="M259.6592,74.7815c1.6572,0,2.791,0.5215,3.583,1.332l-1.332,1.7285
			c-0.5039-0.5586-1.4766-0.918-2.4307-0.918c-0.7744,0-1.1523,0.2158-1.1523,0.6299c0,0.4502,0.4863,0.5576,2.0889,0.9004
			c1.5664,0.3232,2.8809,0.9365,2.8809,2.8271c0,2.0703-1.4941,2.9346-3.8896,2.9346c-1.7285,0-3.2051-0.4863-3.9971-1.4951
			l1.3867-1.8008c0.5938,0.7207,1.5664,1.1709,2.8447,1.1709c0.666,0,1.2061-0.1797,1.2061-0.6846
			c0-0.5039-0.4863-0.5762-1.998-0.918c-1.3506-0.2881-2.9893-0.8818-2.9893-2.8447
			C255.8604,75.8254,257.2832,74.7815,259.6592,74.7815z"/>
		<path class="st1" d="M267.958,82.2893c0,0.9902-0.7383,1.7109-1.7285,1.7109s-1.6924-0.7207-1.6924-1.7109
			s0.7021-1.7109,1.6924-1.7109S267.958,81.2991,267.958,82.2893z"/>
	</g>
	<g>
		<path class="st2" d="M32.6279,107.9993l-2.4692-9.3057h1.2632l1.4155,6.1006c0.1523,0.6387,0.2837,1.2734,0.3936,1.9043
			c0.2368-0.9951,0.3765-1.5684,0.4189-1.7207l1.771-6.2842h1.4854l1.333,4.71c0.3345,1.168,0.5757,2.2656,0.7236,3.2949
			c0.1187-0.5889,0.2729-1.2637,0.4634-2.0254l1.46-5.9795h1.2378l-2.5518,9.3057h-1.187l-1.9614-7.0898
			c-0.165-0.5928-0.2622-0.957-0.292-1.0918c-0.0972,0.4268-0.1885,0.791-0.2729,1.0918l-1.9741,7.0898H32.6279z"/>
		<path class="st2" d="M47.5078,105.8284l1.1807,0.1455c-0.186,0.6904-0.5312,1.2256-1.0347,1.6064s-1.147,0.5713-1.9297,0.5713
			c-0.9858,0-1.7681-0.3037-2.3452-0.9111c-0.5781-0.6074-0.8667-1.459-0.8667-2.5547c0-1.1338,0.292-2.0146,0.876-2.6406
			s1.3413-0.9395,2.2725-0.9395c0.9014,0,1.6377,0.3066,2.209,0.9209c0.5713,0.6133,0.8569,1.4766,0.8569,2.5898
			c0,0.0674-0.002,0.1689-0.0063,0.3047h-5.0273c0.0425,0.7402,0.252,1.3066,0.6284,1.7012
			c0.3765,0.3926,0.8462,0.5898,1.4092,0.5898c0.4189,0,0.7764-0.1104,1.0728-0.3301S47.3345,106.3108,47.5078,105.8284z
			 M43.7563,103.9817h3.7642c-0.0508-0.5674-0.1948-0.9932-0.4316-1.2764c-0.3638-0.4404-0.8359-0.6602-1.4155-0.6602
			c-0.5249,0-0.9658,0.1758-1.3237,0.5264C43.9922,102.9231,43.7944,103.3928,43.7563,103.9817z"/>
		<path class="st2" d="M58.1338,107.1672c-0.4233,0.3604-0.8306,0.6143-1.2217,0.7617c-0.3916,0.1484-0.8115,0.2227-1.2603,0.2227
			c-0.7407,0-1.3096-0.1807-1.7075-0.543c-0.3979-0.3613-0.5967-0.8242-0.5967-1.3867c0-0.3301,0.0752-0.6318,0.2256-0.9043
			c0.1499-0.2734,0.3467-0.4922,0.5898-0.6572c0.2437-0.165,0.5176-0.29,0.8223-0.374c0.2241-0.0596,0.563-0.1172,1.0156-0.1719
			c0.9224-0.1104,1.6016-0.2412,2.0376-0.3936c0.0044-0.1562,0.0063-0.2559,0.0063-0.2979c0-0.4658-0.1079-0.7939-0.3237-0.9844
			c-0.292-0.2578-0.7256-0.3867-1.3013-0.3867c-0.5376,0-0.9341,0.0938-1.1904,0.2822c-0.2559,0.1885-0.4453,0.5215-0.5679,0.999
			l-1.1172-0.1523c0.1016-0.4775,0.2686-0.8643,0.5015-1.1582s0.5693-0.5205,1.0093-0.6787
			c0.4399-0.1592,0.9502-0.2383,1.5298-0.2383c0.5757,0,1.043,0.0674,1.4028,0.2031s0.624,0.3057,0.7935,0.5107
			s0.2876,0.4648,0.3555,0.7773c0.0381,0.1953,0.0571,0.5469,0.0571,1.0547v1.5234c0,1.0615,0.0244,1.7334,0.0728,2.0146
			c0.0488,0.2812,0.145,0.5518,0.2891,0.8096h-1.1934C58.2437,107.762,58.1675,107.4856,58.1338,107.1672z M58.0386,104.6165
			c-0.4146,0.1689-1.0366,0.3125-1.8662,0.4316c-0.4697,0.0674-0.8018,0.1436-0.9966,0.2285
			c-0.1948,0.084-0.3447,0.208-0.4507,0.3711s-0.1587,0.3438-0.1587,0.543c0,0.3047,0.1152,0.5586,0.3457,0.7617
			c0.231,0.2031,0.5684,0.3047,1.0127,0.3047c0.4399,0,0.8315-0.0967,1.1743-0.2891s0.5947-0.4561,0.7554-0.791
			c0.1226-0.2578,0.1841-0.6387,0.1841-1.1426V104.6165z"/>
		<path class="st2" d="M60.9648,110.5833v-9.3252h1.041v0.876c0.2456-0.3428,0.5225-0.5996,0.8315-0.7715
			c0.3091-0.1709,0.6836-0.2568,1.1235-0.2568c0.5757,0,1.0835,0.1484,1.5234,0.4443s0.7725,0.7139,0.9966,1.2539
			c0.2241,0.5391,0.3364,1.1309,0.3364,1.7734c0,0.6904-0.1235,1.3115-0.3716,1.8633c-0.2471,0.5527-0.6069,0.9756-1.0791,1.2695
			c-0.4717,0.2939-0.9678,0.4414-1.4883,0.4414c-0.3809,0-0.7227-0.0801-1.0254-0.2412c-0.3022-0.1611-0.5508-0.3643-0.7456-0.6094
			v3.2822H60.9648z M61.9995,104.6672c0,0.8672,0.1758,1.5078,0.5269,1.9229s0.7764,0.6221,1.2759,0.6221
			c0.5078,0,0.9424-0.2148,1.3047-0.6445c0.3613-0.4297,0.5425-1.0947,0.5425-1.9961c0-0.8594-0.1768-1.502-0.5298-1.9297
			c-0.3535-0.4277-0.7759-0.6406-1.2666-0.6406c-0.4868,0-0.917,0.2266-1.292,0.6816
			C62.187,103.1379,61.9995,103.7991,61.9995,104.6672z"/>
		<path class="st2" d="M68.1948,110.5833v-9.3252h1.041v0.876c0.2456-0.3428,0.5225-0.5996,0.8315-0.7715
			c0.3091-0.1709,0.6836-0.2568,1.1235-0.2568c0.5757,0,1.0835,0.1484,1.5234,0.4443s0.7725,0.7139,0.9966,1.2539
			c0.2241,0.5391,0.3364,1.1309,0.3364,1.7734c0,0.6904-0.1235,1.3115-0.3716,1.8633c-0.2471,0.5527-0.6069,0.9756-1.0791,1.2695
			c-0.4717,0.2939-0.9678,0.4414-1.4883,0.4414c-0.3809,0-0.7227-0.0801-1.0254-0.2412c-0.3022-0.1611-0.5508-0.3643-0.7456-0.6094
			v3.2822H68.1948z M69.2295,104.6672c0,0.8672,0.1758,1.5078,0.5269,1.9229s0.7764,0.6221,1.2759,0.6221
			c0.5078,0,0.9424-0.2148,1.3047-0.6445c0.3613-0.4297,0.5425-1.0947,0.5425-1.9961c0-0.8594-0.1768-1.502-0.5298-1.9297
			c-0.3535-0.4277-0.7759-0.6406-1.2666-0.6406c-0.4868,0-0.917,0.2266-1.292,0.6816
			C69.417,103.1379,69.2295,103.7991,69.2295,104.6672z"/>
		<path class="st2" d="M75.4121,107.9993v-6.7412h1.0283v1.0225c0.2622-0.4785,0.5044-0.7939,0.7271-0.9463
			c0.2217-0.1523,0.4663-0.2285,0.7329-0.2285c0.3853,0,0.7764,0.123,1.1743,0.3682l-0.3936,1.0605
			c-0.2793-0.166-0.5586-0.248-0.8379-0.248c-0.2495,0-0.4741,0.0752-0.6729,0.2256s-0.3408,0.3584-0.4253,0.625
			c-0.127,0.4062-0.1904,0.8506-0.1904,1.333v3.5293H75.4121z"/>
		<path class="st2" d="M84.3687,105.8284l1.1807,0.1455c-0.186,0.6904-0.5312,1.2256-1.0347,1.6064s-1.147,0.5713-1.9297,0.5713
			c-0.9858,0-1.7681-0.3037-2.3452-0.9111c-0.5781-0.6074-0.8667-1.459-0.8667-2.5547c0-1.1338,0.292-2.0146,0.876-2.6406
			s1.3413-0.9395,2.2725-0.9395c0.9014,0,1.6377,0.3066,2.209,0.9209c0.5713,0.6133,0.8569,1.4766,0.8569,2.5898
			c0,0.0674-0.002,0.1689-0.0063,0.3047h-5.0273c0.0425,0.7402,0.252,1.3066,0.6284,1.7012
			c0.3765,0.3926,0.8462,0.5898,1.4092,0.5898c0.4189,0,0.7764-0.1104,1.0728-0.3301S84.1953,106.3108,84.3687,105.8284z
			 M80.6172,103.9817h3.7642c-0.0508-0.5674-0.1948-0.9932-0.4316-1.2764c-0.3638-0.4404-0.8359-0.6602-1.4155-0.6602
			c-0.5249,0-0.9658,0.1758-1.3237,0.5264C80.853,102.9231,80.6553,103.3928,80.6172,103.9817z"/>
		<path class="st2" d="M91.3828,105.5305l1.1235,0.1455c-0.1226,0.7744-0.437,1.3809-0.9429,1.8184
			c-0.5054,0.4385-1.1265,0.6572-1.8628,0.6572c-0.9224,0-1.6641-0.3018-2.2251-0.9043c-0.5605-0.6035-0.8408-1.4678-0.8408-2.5938
			c0-0.7275,0.1206-1.3643,0.3618-1.9102s0.6084-0.9551,1.1011-1.2285c0.4932-0.2725,1.0298-0.4092,1.6094-0.4092
			c0.7319,0,1.3311,0.1855,1.7964,0.5557s0.7637,0.8955,0.895,1.5771l-1.1108,0.1709c-0.106-0.4521-0.293-0.793-0.562-1.0215
			c-0.2686-0.2285-0.5933-0.3428-0.9741-0.3428c-0.5757,0-1.043,0.2061-1.4028,0.6191c-0.3599,0.4121-0.5396,1.0654-0.5396,1.958
			c0,0.9053,0.1733,1.5635,0.5205,1.9746c0.3472,0.4102,0.7998,0.6152,1.3584,0.6152c0.4487,0,0.8232-0.1377,1.1235-0.4121
			C91.1118,106.5247,91.3022,106.1008,91.3828,105.5305z"/>
		<path class="st2" d="M93.4902,100.0071v-1.3135h1.1426v1.3135H93.4902z M93.4902,107.9993v-6.7412h1.1426v6.7412H93.4902z"/>
		<path class="st2" d="M100.771,107.1672c-0.4233,0.3604-0.8306,0.6143-1.2217,0.7617c-0.3916,0.1484-0.8115,0.2227-1.2603,0.2227
			c-0.7407,0-1.3096-0.1807-1.7075-0.543c-0.3979-0.3613-0.5967-0.8242-0.5967-1.3867c0-0.3301,0.0752-0.6318,0.2256-0.9043
			c0.1499-0.2734,0.3467-0.4922,0.5898-0.6572c0.2437-0.165,0.5176-0.29,0.8223-0.374c0.2241-0.0596,0.563-0.1172,1.0156-0.1719
			c0.9224-0.1104,1.6016-0.2412,2.0376-0.3936c0.0044-0.1562,0.0063-0.2559,0.0063-0.2979c0-0.4658-0.1079-0.7939-0.3237-0.9844
			c-0.292-0.2578-0.7256-0.3867-1.3013-0.3867c-0.5376,0-0.9341,0.0938-1.1904,0.2822c-0.2559,0.1885-0.4453,0.5215-0.5679,0.999
			l-1.1172-0.1523c0.1016-0.4775,0.2686-0.8643,0.5015-1.1582s0.5693-0.5205,1.0093-0.6787
			c0.4399-0.1592,0.9502-0.2383,1.5298-0.2383c0.5757,0,1.043,0.0674,1.4028,0.2031s0.624,0.3057,0.7935,0.5107
			s0.2876,0.4648,0.3555,0.7773c0.0381,0.1953,0.0571,0.5469,0.0571,1.0547v1.5234c0,1.0615,0.0244,1.7334,0.0728,2.0146
			c0.0488,0.2812,0.145,0.5518,0.2891,0.8096h-1.1934C100.8809,107.762,100.8047,107.4856,100.771,107.1672z M100.6758,104.6165
			c-0.4146,0.1689-1.0366,0.3125-1.8662,0.4316c-0.4697,0.0674-0.8018,0.1436-0.9966,0.2285
			c-0.1948,0.084-0.3447,0.208-0.4507,0.3711s-0.1587,0.3438-0.1587,0.543c0,0.3047,0.1152,0.5586,0.3457,0.7617
			c0.231,0.2031,0.5684,0.3047,1.0127,0.3047c0.4399,0,0.8315-0.0967,1.1743-0.2891s0.5947-0.4561,0.7554-0.791
			c0.1226-0.2578,0.1841-0.6387,0.1841-1.1426V104.6165z"/>
		<path class="st2" d="M106.0967,106.9778l0.165,1.0088c-0.3218,0.0674-0.6094,0.1016-0.8633,0.1016
			c-0.4146,0-0.7363-0.0654-0.9648-0.1963c-0.2285-0.1318-0.3892-0.3037-0.4824-0.5176s-0.1396-0.6641-0.1396-1.3496v-3.8779
			h-0.8379v-0.8887h0.8379v-1.6689l1.1362-0.6855v2.3545h1.1489v0.8887h-1.1489v3.9424c0,0.3252,0.02,0.5352,0.0601,0.6279
			c0.0405,0.0928,0.106,0.167,0.1973,0.2217c0.0908,0.0557,0.2207,0.083,0.3901,0.083
			C105.7222,107.0217,105.8892,107.0071,106.0967,106.9778z"/>
		<path class="st2" d="M111.8281,105.8284l1.1816,0.1455c-0.1875,0.6904-0.5312,1.2256-1.0352,1.6064s-1.1465,0.5713-1.9297,0.5713
			c-0.9863,0-1.7676-0.3037-2.3452-0.9111c-0.5781-0.6074-0.8667-1.459-0.8667-2.5547c0-1.1338,0.292-2.0146,0.876-2.6406
			s1.3418-0.9395,2.2734-0.9395c0.9004,0,1.6367,0.3066,2.209,0.9209c0.5703,0.6133,0.8555,1.4766,0.8555,2.5898
			c0,0.0674-0.002,0.1689-0.0059,0.3047h-5.0273c0.043,0.7402,0.252,1.3066,0.6289,1.7012c0.377,0.3926,0.8457,0.5898,1.4082,0.5898
			c0.4199,0,0.7773-0.1104,1.0742-0.3301C111.4199,106.6624,111.6543,106.3108,111.8281,105.8284z M108.0771,103.9817h3.7646
			c-0.0508-0.5674-0.1953-0.9932-0.4316-1.2764c-0.3652-0.4404-0.8359-0.6602-1.416-0.6602c-0.5254,0-0.9668,0.1758-1.3242,0.5264
			C108.3125,102.9231,108.1152,103.3928,108.0771,103.9817z"/>
		<path class="st2" d="M118.0049,110.595l-0.127-1.0723c0.249,0.0674,0.4668,0.1016,0.6533,0.1016
			c0.2539,0,0.457-0.042,0.6094-0.127s0.2773-0.2031,0.374-0.3555c0.0723-0.1143,0.1885-0.3975,0.3496-0.8506
			c0.0215-0.0635,0.0547-0.1562,0.1016-0.2793l-2.5586-6.7539h1.2324l1.4023,3.9033c0.1816,0.4961,0.3447,1.0156,0.4883,1.5625
			c0.1318-0.5254,0.2881-1.0371,0.4707-1.5371l1.4404-3.9287h1.1426l-2.5645,6.8555c-0.2754,0.7402-0.4893,1.251-0.6416,1.5303
			c-0.2031,0.376-0.4355,0.6523-0.6973,0.8281c-0.2627,0.1758-0.5762,0.2637-0.9395,0.2637
			C118.5205,110.7356,118.2754,110.6887,118.0049,110.595z"/>
		<path class="st2" d="M124.1299,104.6282c0-1.248,0.3467-2.1729,1.041-2.7734c0.5801-0.499,1.2861-0.749,2.1201-0.749
			c0.9268,0,1.6846,0.3037,2.2725,0.9111s0.8828,1.4463,0.8828,2.5166c0,0.8672-0.1309,1.5498-0.3906,2.0469
			c-0.2607,0.4971-0.6396,0.8838-1.1367,1.1592c-0.4971,0.2744-1.04,0.4121-1.6279,0.4121c-0.9434,0-1.7061-0.3027-2.2881-0.9082
			C124.4209,106.6389,124.1299,105.7668,124.1299,104.6282z M125.3037,104.6282c0,0.8633,0.1885,1.5098,0.5654,1.9395
			s0.8506,0.6445,1.4219,0.6445c0.5674,0,1.0391-0.2158,1.415-0.6475c0.377-0.4316,0.5654-1.0898,0.5654-1.9736
			c0-0.834-0.1895-1.4658-0.5684-1.8955s-0.8496-0.6436-1.4121-0.6436c-0.5713,0-1.0449,0.2129-1.4219,0.6406
			S125.3037,103.7649,125.3037,104.6282z"/>
		<path class="st2" d="M136.2041,107.9993v-0.9902c-0.5254,0.7617-1.2383,1.1426-2.1396,1.1426
			c-0.3975,0-0.7695-0.0762-1.1143-0.2285s-0.6006-0.3438-0.7676-0.5742s-0.2852-0.5137-0.3525-0.8477
			c-0.0469-0.2246-0.0693-0.5801-0.0693-1.0664v-4.1768h1.1426v3.7393c0,0.5957,0.0225,0.998,0.0693,1.2051
			c0.0723,0.3008,0.2246,0.5371,0.457,0.708c0.2324,0.1719,0.5205,0.2568,0.8633,0.2568s0.6641-0.0869,0.9648-0.2627
			s0.5127-0.415,0.6377-0.7178s0.1875-0.7412,0.1875-1.3164v-3.6123h1.1426v6.7412H136.2041z"/>
		<path class="st2" d="M139.002,107.9993v-6.7412h1.0293v1.0225c0.2617-0.4785,0.5039-0.7939,0.7266-0.9463
			c0.2217-0.1523,0.4668-0.2285,0.7324-0.2285c0.3857,0,0.7773,0.123,1.1748,0.3682l-0.3936,1.0605
			c-0.2793-0.166-0.5586-0.248-0.8379-0.248c-0.25,0-0.4736,0.0752-0.6729,0.2256s-0.3408,0.3584-0.4248,0.625
			c-0.127,0.4062-0.1914,0.8506-0.1914,1.333v3.5293H139.002z"/>
		<path class="st2" d="M148.0098,107.9993h-1.0596v-9.3057h1.1426v3.3193c0.4824-0.6045,1.0986-0.9072,1.8467-0.9072
			c0.415,0,0.8076,0.084,1.1777,0.251s0.6748,0.4014,0.9141,0.7041s0.4268,0.668,0.5625,1.0947
			c0.1348,0.4277,0.2031,0.8848,0.2031,1.3711c0,1.1562-0.2861,2.0488-0.8574,2.6797c-0.5713,0.6299-1.2568,0.9453-2.0566,0.9453
			c-0.7959,0-1.4199-0.332-1.873-0.9961V107.9993z M147.998,104.5774c0,0.8086,0.1094,1.3926,0.3301,1.752
			c0.3594,0.5889,0.8457,0.8828,1.459,0.8828c0.5,0,0.9316-0.2168,1.2949-0.6504c0.3643-0.4336,0.5469-1.0801,0.5469-1.9395
			c0-0.8799-0.1748-1.5293-0.5244-1.9492c-0.3486-0.418-0.7705-0.6279-1.2666-0.6279c-0.499,0-0.9307,0.2168-1.2949,0.6504
			C148.1797,103.1292,147.998,103.7571,147.998,104.5774z"/>
		<path class="st2" d="M158.6045,107.9993v-0.9902c-0.5254,0.7617-1.2383,1.1426-2.1396,1.1426
			c-0.3975,0-0.7695-0.0762-1.1143-0.2285s-0.6006-0.3438-0.7676-0.5742s-0.2852-0.5137-0.3525-0.8477
			c-0.0469-0.2246-0.0693-0.5801-0.0693-1.0664v-4.1768h1.1426v3.7393c0,0.5957,0.0225,0.998,0.0693,1.2051
			c0.0723,0.3008,0.2246,0.5371,0.457,0.708c0.2324,0.1719,0.5205,0.2568,0.8633,0.2568s0.6641-0.0869,0.9648-0.2627
			s0.5127-0.415,0.6377-0.7178s0.1875-0.7412,0.1875-1.3164v-3.6123h1.1426v6.7412H158.6045z"/>
		<path class="st2" d="M160.96,105.9875l1.1289-0.1777c0.0645,0.4521,0.2402,0.7988,0.5303,1.041
			c0.29,0.2402,0.6953,0.3613,1.2158,0.3613c0.5244,0,0.9141-0.1064,1.168-0.3203s0.3809-0.4648,0.3809-0.752
			c0-0.2588-0.1123-0.4619-0.3359-0.6094c-0.1572-0.1016-0.5469-0.2314-1.168-0.3877c-0.8379-0.2119-1.4189-0.3945-1.7432-0.5488
			c-0.3232-0.1543-0.5693-0.3682-0.7363-0.6416c-0.167-0.2725-0.251-0.5742-0.251-0.9043c0-0.3008,0.0693-0.5791,0.207-0.835
			s0.3242-0.4688,0.5615-0.6377c0.1777-0.1309,0.4199-0.2422,0.7266-0.333s0.6357-0.1367,0.9873-0.1367
			c0.5293,0,0.9932,0.0762,1.3936,0.2285c0.3994,0.1523,0.6943,0.3584,0.8857,0.6191c0.1895,0.2598,0.3213,0.6084,0.3926,1.0439
			l-1.1172,0.1523c-0.0508-0.3467-0.1973-0.6182-0.4404-0.8125s-0.5869-0.292-1.0322-0.292c-0.5244,0-0.8984,0.0869-1.123,0.2607
			c-0.2246,0.1729-0.3359,0.376-0.3359,0.6094c0,0.1475,0.0459,0.2812,0.1387,0.3994c0.0938,0.123,0.2393,0.2246,0.4385,0.3047
			c0.1143,0.042,0.4502,0.1396,1.0088,0.292c0.8086,0.2158,1.373,0.3926,1.6924,0.5303s0.5703,0.3369,0.752,0.5996
			s0.2725,0.5879,0.2725,0.9775c0,0.3809-0.1104,0.7393-0.333,1.0762c-0.2217,0.3359-0.542,0.5967-0.9619,0.7803
			c-0.418,0.1846-0.8926,0.2764-1.4219,0.2764c-0.875,0-1.543-0.1816-2.002-0.5459S161.0869,106.7024,160.96,105.9875z"/>
		<path class="st2" d="M167.9229,100.0071v-1.3135h1.1426v1.3135H167.9229z M167.9229,107.9993v-6.7412h1.1426v6.7412H167.9229z"/>
		<path class="st2" d="M170.8047,107.9993v-6.7412h1.0273v0.958c0.4961-0.7402,1.2109-1.1104,2.1465-1.1104
			c0.4062,0,0.7793,0.0732,1.1201,0.2188c0.3408,0.1465,0.5957,0.3379,0.7646,0.5752c0.1689,0.2363,0.2881,0.5176,0.3555,0.8438
			c0.042,0.2119,0.0635,0.582,0.0635,1.1113v4.1445h-1.1426v-4.1006c0-0.4658-0.0439-0.8135-0.1338-1.0439
			c-0.0879-0.2305-0.2461-0.415-0.4727-0.5527s-0.4922-0.2061-0.7969-0.2061c-0.4863,0-0.9062,0.1543-1.2598,0.4639
			c-0.3535,0.3086-0.5293,0.8945-0.5293,1.7578v3.6816H170.8047z"/>
		<path class="st2" d="M182.6494,105.8284l1.1807,0.1455c-0.1865,0.6904-0.5312,1.2256-1.0352,1.6064
			c-0.5029,0.3809-1.1465,0.5713-1.9297,0.5713c-0.9854,0-1.7676-0.3037-2.3447-0.9111c-0.5781-0.6074-0.8662-1.459-0.8662-2.5547
			c0-1.1338,0.291-2.0146,0.875-2.6406s1.3418-0.9395,2.2734-0.9395c0.9004,0,1.6367,0.3066,2.209,0.9209
			c0.5703,0.6133,0.8564,1.4766,0.8564,2.5898c0,0.0674-0.002,0.1689-0.0068,0.3047h-5.0273
			c0.043,0.7402,0.252,1.3066,0.6289,1.7012c0.377,0.3926,0.8467,0.5898,1.4092,0.5898c0.4189,0,0.7764-0.1104,1.0732-0.3301
			C182.2412,106.6624,182.4756,106.3108,182.6494,105.8284z M178.8984,103.9817h3.7637c-0.0508-0.5674-0.1943-0.9932-0.4316-1.2764
			c-0.3643-0.4404-0.8359-0.6602-1.416-0.6602c-0.5244,0-0.9658,0.1758-1.3232,0.5264
			C179.1338,102.9231,178.9355,103.3928,178.8984,103.9817z"/>
		<path class="st2" d="M184.8076,105.9875l1.1289-0.1777c0.0645,0.4521,0.2402,0.7988,0.5303,1.041
			c0.29,0.2402,0.6953,0.3613,1.2158,0.3613c0.5244,0,0.9141-0.1064,1.168-0.3203s0.3809-0.4648,0.3809-0.752
			c0-0.2588-0.1123-0.4619-0.3359-0.6094c-0.1572-0.1016-0.5469-0.2314-1.168-0.3877c-0.8379-0.2119-1.4189-0.3945-1.7432-0.5488
			c-0.3232-0.1543-0.5693-0.3682-0.7363-0.6416c-0.167-0.2725-0.251-0.5742-0.251-0.9043c0-0.3008,0.0693-0.5791,0.207-0.835
			s0.3242-0.4688,0.5615-0.6377c0.1777-0.1309,0.4199-0.2422,0.7266-0.333s0.6357-0.1367,0.9873-0.1367
			c0.5293,0,0.9932,0.0762,1.3936,0.2285c0.3994,0.1523,0.6943,0.3584,0.8857,0.6191c0.1895,0.2598,0.3213,0.6084,0.3926,1.0439
			l-1.1172,0.1523c-0.0508-0.3467-0.1973-0.6182-0.4404-0.8125s-0.5869-0.292-1.0322-0.292c-0.5244,0-0.8984,0.0869-1.123,0.2607
			c-0.2246,0.1729-0.3359,0.376-0.3359,0.6094c0,0.1475,0.0459,0.2812,0.1387,0.3994c0.0938,0.123,0.2393,0.2246,0.4385,0.3047
			c0.1143,0.042,0.4502,0.1396,1.0088,0.292c0.8086,0.2158,1.373,0.3926,1.6924,0.5303s0.5703,0.3369,0.752,0.5996
			s0.2725,0.5879,0.2725,0.9775c0,0.3809-0.1104,0.7393-0.333,1.0762c-0.2217,0.3359-0.542,0.5967-0.9619,0.7803
			c-0.418,0.1846-0.8926,0.2764-1.4219,0.2764c-0.875,0-1.543-0.1816-2.002-0.5459S184.9346,106.7024,184.8076,105.9875z"/>
		<path class="st2" d="M191.3076,105.9875l1.1289-0.1777c0.0645,0.4521,0.2402,0.7988,0.5303,1.041
			c0.29,0.2402,0.6953,0.3613,1.2158,0.3613c0.5244,0,0.9141-0.1064,1.168-0.3203s0.3809-0.4648,0.3809-0.752
			c0-0.2588-0.1123-0.4619-0.3359-0.6094c-0.1572-0.1016-0.5469-0.2314-1.168-0.3877c-0.8379-0.2119-1.4189-0.3945-1.7432-0.5488
			c-0.3232-0.1543-0.5693-0.3682-0.7363-0.6416c-0.167-0.2725-0.251-0.5742-0.251-0.9043c0-0.3008,0.0693-0.5791,0.207-0.835
			s0.3242-0.4688,0.5615-0.6377c0.1777-0.1309,0.4199-0.2422,0.7266-0.333s0.6357-0.1367,0.9873-0.1367
			c0.5293,0,0.9932,0.0762,1.3936,0.2285c0.3994,0.1523,0.6943,0.3584,0.8857,0.6191c0.1895,0.2598,0.3213,0.6084,0.3926,1.0439
			l-1.1172,0.1523c-0.0508-0.3467-0.1973-0.6182-0.4404-0.8125s-0.5869-0.292-1.0322-0.292c-0.5244,0-0.8984,0.0869-1.123,0.2607
			c-0.2246,0.1729-0.3359,0.376-0.3359,0.6094c0,0.1475,0.0459,0.2812,0.1387,0.3994c0.0938,0.123,0.2393,0.2246,0.4385,0.3047
			c0.1143,0.042,0.4502,0.1396,1.0088,0.292c0.8086,0.2158,1.373,0.3926,1.6924,0.5303s0.5703,0.3369,0.752,0.5996
			s0.2725,0.5879,0.2725,0.9775c0,0.3809-0.1104,0.7393-0.333,1.0762c-0.2217,0.3359-0.542,0.5967-0.9619,0.7803
			c-0.418,0.1846-0.8926,0.2764-1.4219,0.2764c-0.875,0-1.543-0.1816-2.002-0.5459S191.4346,106.7024,191.3076,105.9875z"/>
		<path class="st2" d="M198.5879,107.9993v-1.3008h1.3018v1.3008H198.5879z"/>
	</g>
	<g>
		<defs>
			<rect id="SVGID_1_" width="440" height="197.469"/>
		</defs>
		<clipPath id="SVGID_2_">
			<use xlink:href="#SVGID_1_"  style="overflow:visible;"/>
		</clipPath>
		<path class="st3" d="M327.902,142.1112h92.083 M327.902,168.2672h92.083 M438,56.9622v138.507H309.887V32.0002h102.904"/>
	</g>
	<polyline class="st4" points="401.3723,81.1323 367.1543,112.8333 346.5143,91.1993 	"/>
	<g>
		<defs>
			<rect id="SVGID_3_" width="440" height="197.469"/>
		</defs>
		<clipPath id="SVGID_4_">
			<use xlink:href="#SVGID_3_"  style="overflow:visible;"/>
		</clipPath>
		<polygon class="st5" points="413.2505,32.0003 413.2505,56.7493 438.0005,56.7493 		"/>
	</g>
</g>
</svg>
