<?xml version="1.0" encoding="utf-8"?>
<!-- Generator: Adobe Illustrator 20.1.0, SVG Export Plug-In . SVG Version: 6.00 Build 0)  -->
<svg version="1.1" baseProfile="tiny" id="Layer_1" xmlns="http://www.w3.org/2000/svg" xmlns:xlink="http://www.w3.org/1999/xlink"
	 x="0px" y="0px" viewBox="0 0 87.6 26.6" xml:space="preserve">
<g>
	<path fill="#51B848" d="M3.4,6.1C3.8,5.9,4,5.8,4.2,4.9L5,2.1C5,2,5.1,1.9,5.2,1.9c0.1,0,0.3,0.1,0.4,0.2l0.6,3.5
		c0.1,0.4,0.4,0.5,0.6,0.5c0.3,0,0.5-0.2,0.6-0.5l0.6-3.5c0-0.1,0.2-0.2,0.4-0.2c0.2,0,0.3,0.1,0.3,0.2l0.8,2.9
		c0.2,0.8,0.4,1,0.8,1.2c0.6,0.3,2.3,0.3,3.3,0.3C13.4,2.8,10.5,0,6.8,0C3.2,0,0.2,2.8,0,6.4C1.1,6.4,2.8,6.4,3.4,6.1"/>
	<path fill="#10A3C8" d="M10.4,7.6C10,7.8,9.7,7.9,9.6,8.8l-0.7,2.9c0,0.1-0.2,0.2-0.4,0.2c-0.1,0-0.3-0.1-0.4-0.2L7.5,8.1
		C7.4,7.7,7.2,7.6,6.9,7.6c-0.3,0-0.5,0.2-0.6,0.5l-0.6,3.5c0,0.1-0.2,0.2-0.4,0.2c-0.2,0-0.3-0.1-0.4-0.2L4.2,8.8
		C4,7.9,3.8,7.8,3.4,7.6C2.8,7.3,1.1,7.3,0,7.3c0.2,3.6,3.2,6.4,6.8,6.4c3.6,0,6.6-2.8,6.8-6.4C12.7,7.3,11,7.3,10.4,7.6"/>
	<path fill="#3E3935" d="M23.2,0.9c2.5,0,3.7,1.5,3.7,3.3c0,1.3-0.6,2.2-1.5,2.6c0.9,0.4,1.5,1.3,1.5,2.6c0,1.9-1.2,3.3-3.7,3.3
		h-5.1V0.9H23.2z M23.1,3.8H21v1.6h2.1c0.6,0,0.9-0.3,0.9-0.8C24,4.2,23.7,3.8,23.1,3.8 M23.1,8.3H21v1.6h2.1c0.6,0,0.9-0.3,0.9-0.8
		C24,8.6,23.6,8.3,23.1,8.3"/>
	<path fill="#3E3935" d="M33.5,0.9c1.6,0,3.2,0.5,4.3,1.6l-1.4,2.6c-0.9-0.9-1.8-1.3-2.9-1.3c-1.8,0-3.1,1.3-3.1,3s1.3,3,3.1,3
		c1.1,0,2.2-0.4,3.1-1.5l1.5,2.7c-1.2,1.1-2.8,1.7-4.5,1.7c-3.4,0-6-2.6-6-5.9S30.1,0.9,33.5,0.9"/>
	<polygon fill="#3E3935" points="51.5,0.9 51.5,12.8 48.6,12.8 48.6,8.3 44.4,8.3 44.4,12.8 41.5,12.8 41.5,0.9 44.4,0.9 44.4,5.4 
		48.6,5.4 48.6,0.9 	"/>
	<polygon fill="#3E3935" points="54.1,15.4 55.8,11.5 52.2,4.3 55.4,4.3 57.2,8.4 59,4.3 61.8,4.3 56.9,15.4 	"/>
	<path fill="#3E3935" d="M70.7,0.9v11.8H68v-1.1c-0.6,0.9-1.6,1.4-2.7,1.4c-1.9,0-3.7-1.5-3.7-4.4s1.7-4.4,3.7-4.4
		c1.3,0,2.3,0.6,2.8,1.4V0.9H70.7z M64.3,8.6c0,1.1,0.9,1.8,1.8,1.8c1,0,1.8-0.7,1.8-1.8c0-1.1-0.9-1.8-1.8-1.8
		C65.2,6.8,64.3,7.4,64.3,8.6"/>
	<path fill="#3E3935" d="M77.2,4.1c0.3,0,0.6,0.1,0.8,0.1v2.9C77.7,7.1,77.2,7,76.9,7c-1.2,0-1.9,0.6-1.9,2v3.7h-2.7V4.3h2.6v1.5
		C75.3,4.8,76,4.1,77.2,4.1"/>
	<path fill="#3E3935" d="M83,4.1c2.6,0,4.6,1.7,4.6,4.4c0,2.7-2,4.4-4.6,4.4c-2.6,0-4.6-1.7-4.6-4.4C78.4,5.9,80.3,4.1,83,4.1
		 M83,6.8c-1,0-1.8,0.7-1.8,1.8c0,1.1,0.9,1.8,1.8,1.8c1,0,1.8-0.7,1.8-1.8C84.8,7.4,84,6.8,83,6.8"/>
	<path fill="#3E3935" d="M21,18.3c1.6,0,2.8,1.2,2.8,2.8c0,1.6-1.2,2.8-2.8,2.8h-1.9v2.7h-1.1v-8.2H21z M21,19.3h-1.9v3.4H21
		c0.9,0,1.7-0.7,1.7-1.7S22,19.3,21,19.3"/>
	<path fill="#3E3935" d="M27.6,20.5c1.8,0,3.1,1.3,3.1,3.1c0,1.8-1.3,3.1-3.1,3.1c-1.8,0-3.1-1.3-3.1-3.1
		C24.5,21.8,25.8,20.5,27.6,20.5 M27.6,21.4c-1.2,0-2,0.9-2,2.1c0,1.2,0.8,2.1,2,2.1c1.2,0,2-0.9,2-2.1
		C29.6,22.3,28.8,21.4,27.6,21.4"/>
	<polygon fill="#3E3935" points="33.5,26.4 31.1,20.6 32.2,20.6 33.9,24.9 35.6,20.6 36.4,20.6 38.1,24.9 39.8,20.6 40.9,20.6 
		38.6,26.4 37.8,26.4 36,22.2 34.2,26.4 	"/>
	<path fill="#3E3935" d="M44.3,20.5c1.8,0,2.8,1.3,2.8,3.1v0.3h-4.7v0c0.1,1.2,0.9,1.8,1.9,1.8c0.9,0,1.4-0.4,1.9-0.9l0.5,0.8
		c-0.5,0.5-1.2,1.1-2.3,1.1c-1.8,0-3-1.2-3-3C41.4,21.9,42.5,20.5,44.3,20.5 M44.3,21.4c-1.1,0-1.7,0.7-1.8,1.6H46
		C45.9,22.1,45.3,21.4,44.3,21.4"/>
	<path fill="#3E3935" d="M51.2,20.5c0.2,0,0.4,0,0.6,0.1v1.1c-0.2,0-0.4-0.1-0.6-0.1c-1.3,0-1.7,0.9-1.7,2.2v2.7h-1v-5.8h1v0.9
		C49.8,20.8,50.4,20.5,51.2,20.5"/>
	<path fill="#3E3935" d="M58.3,20.5c1.2,0,1.9,0.5,2.3,1.3l-0.8,0.5c-0.2-0.5-0.7-0.9-1.5-0.9c-0.7,0-1.2,0.3-1.2,0.7
		c0,0.5,0.6,0.7,1.4,0.9c1,0.2,2.1,0.4,2.1,1.8c0,1.3-1,1.8-2.2,1.8c-1.1,0-2.1-0.4-2.6-1.4l0.8-0.5c0.4,0.7,1.1,1,1.8,1
		c0.8,0,1.2-0.3,1.2-0.8c0-0.6-0.5-0.7-1.3-0.9c-1-0.2-2.2-0.5-2.2-1.8C56.1,21.2,57,20.5,58.3,20.5"/>
	<path fill="#3E3935" d="M69,20.5c1.6,0,2.3,1,2.3,2.6v3.4h-1v-3.5c0-1-0.5-1.6-1.4-1.6c-1.3,0-1.7,1-1.7,2.3v2.7h-1v-3.5
		c0-1-0.5-1.6-1.4-1.6c-1.3,0-1.7,1-1.7,2.3v2.7h-1v-5.8h1v0.8c0.4-0.6,1-1,1.9-1c1,0,1.6,0.5,1.9,1.2C67.3,20.9,67.9,20.5,69,20.5"
		/>
	<path fill="#3E3935" d="M75.1,20.5c1.6,0,2.3,0.8,2.3,2.2v3.8h-1v-0.8c-0.4,0.6-1.1,0.9-1.9,0.9c-1.3,0-2-0.8-2-1.8
		c0-1.1,0.8-1.7,1.9-1.8l1.6-0.2c0.3,0,0.4-0.1,0.4-0.3v-0.2c0-0.6-0.4-1-1.3-1c-0.8,0-1.4,0.3-1.5,1.1l-0.9-0.5
		C72.9,21.1,73.7,20.5,75.1,20.5 M76.4,23.7l-1.9,0.2c-0.7,0.1-0.9,0.4-0.9,0.9c0,0.5,0.4,0.9,1.1,0.9c1.1,0,1.8-0.8,1.8-1.5V23.7z"
		/>
	<path fill="#3E3935" d="M81.8,20.5c0.2,0,0.4,0,0.6,0.1v1.1c-0.2,0-0.4-0.1-0.6-0.1c-1.3,0-1.7,0.9-1.7,2.2v2.7h-1v-5.8h1v0.9
		C80.4,20.8,81,20.5,81.8,20.5"/>
	<path fill="#3E3935" d="M86,26.5c-1.1,0-1.6-0.5-1.6-1.7v-3.3h-1.2v-0.9h1.2V19h1v1.6H87v0.9h-1.6v3.4c0,0.4,0.2,0.7,0.7,0.7
		c0.4,0,0.6,0,0.9-0.1v0.9C86.7,26.4,86.4,26.5,86,26.5"/>
</g>
</svg>
