<?xml version="1.0" encoding="utf-8"?>
<!-- Generator: Adobe Illustrator 20.1.0, SVG Export Plug-In . SVG Version: 6.00 Build 0)  -->
<svg version="1.1" id="Layer_1" xmlns="http://www.w3.org/2000/svg" xmlns:xlink="http://www.w3.org/1999/xlink" x="0px" y="0px"
	 viewBox="0 0 146 30" style="enable-background:new 0 0 146 30;" xml:space="preserve">
<style type="text/css">
	.st0{clip-path:url(#SVGID_2_);fill:#51B848;}
	.st1{enable-background:new    ;}
	.st2{fill:#FFFFFF;}
</style>
<g>
	<g>
		<defs>
			<rect id="SVGID_1_" width="146" height="30"/>
		</defs>
		<clipPath id="SVGID_2_">
			<use xlink:href="#SVGID_1_"  style="overflow:visible;"/>
		</clipPath>
		<path class="st0" d="M3.5,0C3.5,0,0,0,0,3.5v23c0,0,0,3.5,3.5,3.5h139c0,0,3.5,0,3.5-3.5v-23c0,0,0-3.5-3.5-3.5H3.5z"/>
	</g>
</g>
<g class="st1">
	<path class="st2" d="M21.3,19.6h-2V9.8h1.9l4.1,7.2l4.1-7.2h1.9v9.8h-2v-5.7l-3.2,5.7h-1.6l-3.2-5.7V19.6z"/>
</g>
<g class="st1">
	<path class="st2" d="M33,14c0.5-1.1,1.6-1.6,3.1-1.6c2.1,0,3.1,0.9,3.1,2.8v4.3h-1.8v-1c-0.4,0.6-1.1,1.1-2.2,1.1
		c-1.4,0-2.4-0.9-2.4-2.2c0-1.3,1-2.1,2.2-2.2l1.9-0.2c0.2,0,0.4-0.1,0.4-0.3v-0.1c0-0.4-0.4-0.7-1.2-0.7c-0.7,0-1.5,0.2-1.8,0.9
		L33,14z M37.3,16.5l-1.7,0.2c-0.6,0.1-0.9,0.4-0.9,0.8c0,0.4,0.3,0.7,1,0.7c1,0,1.6-0.7,1.6-1.4V16.5z"/>
</g>
<g class="st1">
	<path class="st2" d="M43.4,16.9l-0.7,0.7v2h-1.8V9.8h1.8v5.5l2.5-2.7h2.5l-3,3l3,4h-2.4L43.4,16.9z"/>
</g>
<g class="st1">
	<path class="st2" d="M51.2,12.4c2.1,0,3.5,1.5,3.5,3.7v0.5h-5.2l0,0c0.2,0.9,1.1,1.3,1.9,1.3c0.8,0,1.5-0.3,2-0.7l0.8,1.5
		c-0.6,0.5-1.4,0.9-2.8,0.9c-2.4,0-3.8-1.6-3.8-3.7C47.7,14,49,12.4,51.2,12.4z M52.7,15.3c-0.1-0.8-0.6-1.3-1.5-1.3
		s-1.5,0.5-1.7,1.3H52.7z"/>
	<path class="st2" d="M59.6,14c0.5-1.1,1.6-1.6,3.1-1.6c2.1,0,3.1,0.9,3.1,2.8v4.3H64v-1c-0.4,0.6-1.1,1.1-2.2,1.1
		c-1.4,0-2.4-0.9-2.4-2.2c0-1.3,1-2.1,2.2-2.2l1.9-0.2c0.2,0,0.4-0.1,0.4-0.3v-0.1c0-0.4-0.4-0.7-1.2-0.7c-0.7,0-1.5,0.2-1.8,0.9
		L59.6,14z M64,16.5l-1.7,0.2c-0.6,0.1-0.9,0.4-0.9,0.8c0,0.4,0.3,0.7,1,0.7c1,0,1.6-0.7,1.6-1.4V16.5z"/>
</g>
<g class="st1">
	<path class="st2" d="M71.3,22.4v-9.8h1.8v1c0.5-0.7,1.3-1.2,2.3-1.2c1.7,0,3.2,1.3,3.2,3.7s-1.4,3.7-3.2,3.7
		c-1.1,0-1.9-0.5-2.4-1.2v3.8H71.3z M76.8,16.1c0-1.1-0.8-1.9-1.8-1.9c-1.1,0-1.8,0.7-1.8,1.9c0,1.2,0.8,1.9,1.8,1.9
		C76,18,76.8,17.2,76.8,16.1z"/>
</g>
<g class="st1">
	<path class="st2" d="M79.7,14c0.5-1.1,1.6-1.6,3.1-1.6c2.1,0,3.1,0.9,3.1,2.8v4.3H84v-1c-0.4,0.6-1.1,1.1-2.2,1.1
		c-1.4,0-2.4-0.9-2.4-2.2c0-1.3,1-2.1,2.2-2.2l1.9-0.2c0.2,0,0.4-0.1,0.4-0.3v-0.1c0-0.4-0.4-0.7-1.2-0.7c-0.7,0-1.5,0.2-1.8,0.9
		L79.7,14z M84,16.5l-1.7,0.2c-0.6,0.1-0.9,0.4-0.9,0.8c0,0.4,0.3,0.7,1,0.7c1,0,1.6-0.7,1.6-1.4V16.5z"/>
</g>
<g class="st1">
	<path class="st2" d="M87.5,22.4l1.7-3.8l-3-6h2.2l1.8,3.8l1.7-3.8h2l-4.4,9.8H87.5z"/>
</g>
<g class="st1">
	<path class="st2" d="M103.1,12.4c1.6,0,2.6,1.1,2.6,2.9v4.3h-1.9v-3.9c0-1-0.4-1.5-1.3-1.5c-1.1,0-1.5,0.9-1.5,2v3.3h-1.8v-3.9
		c0-1-0.4-1.5-1.3-1.5c-1.1,0-1.5,0.9-1.5,2v3.3h-1.8v-7h1.8v1c0.4-0.7,1.1-1.2,2.2-1.2c1.1,0,1.8,0.4,2.2,1.3
		C101.2,13,101.9,12.4,103.1,12.4z"/>
</g>
<g class="st1">
	<path class="st2" d="M110.4,12.4c2.1,0,3.5,1.5,3.5,3.7v0.5h-5.2l0,0c0.2,0.9,1.1,1.3,1.9,1.3c0.8,0,1.5-0.3,2-0.7l0.8,1.5
		c-0.6,0.5-1.4,0.9-2.8,0.9c-2.4,0-3.8-1.6-3.8-3.7C106.9,14,108.2,12.4,110.4,12.4z M111.9,15.3c-0.1-0.8-0.6-1.3-1.5-1.3
		s-1.5,0.5-1.7,1.3H111.9z"/>
</g>
<g class="st1">
	<path class="st2" d="M116.9,13.6c0.5-0.7,1.2-1.2,2.3-1.2c1.6,0,2.5,1.1,2.5,2.8v4.3h-1.9v-3.9c0-1.1-0.5-1.5-1.3-1.5
		c-1.1,0-1.5,0.8-1.5,2v3.3h-1.8v-7h1.8V13.6z"/>
</g>
<g class="st1">
	<path class="st2" d="M127.3,19.5c-0.5,0.1-1,0.2-1.5,0.2c-1.3,0-2.1-0.6-2.1-2.2v-3.3h-1.3v-1.6h1.3v-1.9h1.8v1.9h1.8v1.6h-1.8v3
		c0,0.4,0.2,0.6,0.7,0.6c0.3,0,0.5,0,1-0.1V19.5z"/>
</g>
</svg>
