<?xml version="1.0" encoding="utf-8"?>
<!-- Generator: Adobe Illustrator 20.1.0, SVG Export Plug-In . SVG Version: 6.00 Build 0)  -->
<svg version="1.1" id="Layer_1" xmlns="http://www.w3.org/2000/svg" xmlns:xlink="http://www.w3.org/1999/xlink" x="0px" y="0px"
	 viewBox="0 0 146 30" style="enable-background:new 0 0 146 30;" xml:space="preserve">
<style type="text/css">
	.st0{clip-path:url(#SVGID_2_);}
	.st1{clip-path:url(#SVGID_4_);fill:#51B848;}
	.st2{clip-path:url(#SVGID_4_);fill:#FFFFFF;}
</style>
<g>
	<g>
		<defs>
			<rect id="SVGID_1_" width="146" height="30"/>
		</defs>
		<clipPath id="SVGID_2_">
			<use xlink:href="#SVGID_1_"  style="overflow:visible;"/>
		</clipPath>
		<g class="st0">
			<defs>
				<rect id="SVGID_3_" width="146" height="30"/>
			</defs>
			<clipPath id="SVGID_4_">
				<use xlink:href="#SVGID_3_"  style="overflow:visible;"/>
			</clipPath>
			<path class="st1" d="M3.5,0C3.5,0,0,0,0,3.5v23c0,0,0,3.5,3.5,3.5h139c0,0,3.5,0,3.5-3.5v-23c0,0,0-3.5-3.5-3.5H3.5z"/>
			<path class="st2" d="M130.1,15.7c0,1.5,1.3,2,2.3,2.2c1.2,0.3,1.6,0.3,1.6,0.7c0,0.4-0.4,0.5-0.9,0.5c-1,0-1.8-0.4-2.2-0.9
				l-1.1,1.4c0.6,0.8,1.8,1.2,3.1,1.2c1.9,0,3-0.7,3-2.3c0-1.5-1-1.9-2.2-2.2c-1.2-0.3-1.6-0.3-1.6-0.7c0-0.3,0.3-0.5,0.9-0.5
				c0.7,0,1.5,0.3,1.9,0.7l1-1.3c-0.6-0.6-1.5-1-2.8-1C131.2,13.4,130.1,14.2,130.1,15.7 M129,18.7c-0.5,0.1-0.7,0.1-1,0.1
				c-0.5,0-0.7-0.2-0.7-0.6v-3h1.8v-1.6h-1.8v-1.9h-1.8v1.9h-1.3v1.6h1.3v3.3c0,1.6,0.8,2.2,2.1,2.2c0.5,0,1-0.1,1.5-0.2V18.7z
				 M118.5,13.6h-1.8v7h1.8v-3.3c0-1.2,0.4-2,1.5-2c0.8,0,1.3,0.4,1.3,1.5v3.9h1.9v-4.3c0-1.8-0.8-2.8-2.5-2.8c-1,0-1.8,0.5-2.3,1.2
				V13.6z M110.4,16.3c0.2-0.8,0.8-1.3,1.7-1.3c0.9,0,1.4,0.5,1.5,1.3H110.4z M108.6,17.1c0,2.1,1.4,3.7,3.8,3.7
				c1.3,0,2.2-0.4,2.8-0.9l-0.8-1.5c-0.5,0.4-1.1,0.7-2,0.7c-0.8,0-1.7-0.4-1.9-1.3l0,0h5.2v-0.5c0-2.3-1.3-3.7-3.5-3.7
				C109.9,13.4,108.6,15,108.6,17.1 M102.4,14.7c-0.4-0.9-1.1-1.3-2.2-1.3c-1.1,0-1.8,0.5-2.2,1.2v-1h-1.8v7h1.8v-3.3
				c0-1.2,0.4-2,1.5-2c0.9,0,1.3,0.5,1.3,1.5v3.9h1.8v-3.3c0-1.2,0.4-2,1.5-2c0.8,0,1.3,0.5,1.3,1.5v3.9h1.9v-4.3
				c0-1.8-1-2.9-2.6-2.9C103.6,13.4,102.8,14,102.4,14.7 M91.1,23.4l4.4-9.8h-2l-1.7,3.8L90,13.6h-2.2l3,6l-1.7,3.8H91.1z M82.7,16
				c0.3-0.7,1-0.9,1.8-0.9c0.8,0,1.2,0.3,1.2,0.7v0.1c0,0.2-0.1,0.3-0.4,0.3l-1.9,0.2c-1.3,0.1-2.2,0.9-2.2,2.2c0,1.3,1,2.2,2.4,2.2
				c1.1,0,1.8-0.5,2.2-1.1v1h1.8v-4.3c0-2-1-2.8-3.1-2.8c-1.5,0-2.7,0.5-3.1,1.6L82.7,16z M85.7,17.8c0,0.8-0.6,1.4-1.6,1.4
				c-0.7,0-1-0.3-1-0.7c0-0.4,0.3-0.7,0.9-0.8l1.7-0.2V17.8z M74.9,23.4v-3.8c0.5,0.7,1.2,1.2,2.4,1.2c1.7,0,3.2-1.3,3.2-3.7
				c0-2.4-1.5-3.7-3.2-3.7c-1,0-1.8,0.4-2.3,1.2v-1H73v9.8H74.9z M76.7,19c-1.1,0-1.8-0.7-1.8-1.9c0-1.2,0.8-1.9,1.8-1.9
				c1,0,1.8,0.7,1.8,1.9C78.5,18.2,77.7,19,76.7,19 M62.7,16.3c0.2-0.8,0.8-1.3,1.7-1.3c0.9,0,1.4,0.5,1.5,1.3H62.7z M60.9,17.1
				c0,2.1,1.4,3.7,3.8,3.7c1.3,0,2.2-0.4,2.8-0.9l-0.8-1.5c-0.5,0.4-1.1,0.7-2,0.7c-0.8,0-1.7-0.4-1.9-1.3l0,0h5.2v-0.5
				c0-2.3-1.3-3.7-3.5-3.7C62.2,13.4,60.9,15,60.9,17.1 M57.8,20.6h1.9v-9.8h-1.9V20.6z M54.4,13.6v3.3c0,1.2-0.5,2-1.5,2
				c-0.8,0-1.2-0.5-1.2-1.5v-3.9h-1.9V18c0,1.7,0.8,2.8,2.4,2.8c1.1,0,1.7-0.5,2.2-1.2v1.1h1.8v-7H54.4z M46.4,10.8v3.8
				c-0.5-0.7-1.2-1.2-2.4-1.2c-1.7,0-3.2,1.3-3.2,3.7c0,2.4,1.5,3.7,3.2,3.7c1,0,1.8-0.4,2.3-1.2v1h1.8v-9.8H46.4z M44.6,15.2
				c1,0,1.8,0.7,1.8,1.9c0,1.2-0.8,1.9-1.8,1.9c-1.1,0-1.8-0.7-1.8-1.9C42.8,16,43.5,15.2,44.6,15.2 M34.9,16.3
				c0.2-0.8,0.8-1.3,1.7-1.3s1.4,0.5,1.5,1.3H34.9z M33.1,17.1c0,2.1,1.4,3.7,3.8,3.7c1.3,0,2.2-0.4,2.8-0.9l-0.8-1.5
				c-0.5,0.4-1.1,0.7-2,0.7c-0.8,0-1.7-0.4-1.9-1.3l0,0h5.2v-0.5c0-2.3-1.3-3.7-3.5-3.7C34.4,13.4,33.1,15,33.1,17.1 M25.4,10.8v9.8
				h1.8v-3.3c0-1.2,0.5-2,1.5-2c0.8,0,1.3,0.5,1.3,1.5v3.9h1.9v-4.3c0-1.8-0.8-2.8-2.5-2.8c-1.1,0-1.8,0.5-2.2,1.2v-3.8H25.4z
				 M18,17.1c0,2.2,1.6,3.7,3.7,3.7c1.2,0,2.1-0.4,2.7-1l-1-1.5C23,18.6,22.4,19,21.7,19c-1.1,0-1.8-0.7-1.8-1.9
				c0-1.1,0.8-1.9,1.8-1.9c0.7,0,1.2,0.3,1.6,0.7l1.1-1.5c-0.6-0.6-1.5-1-2.7-1C19.5,13.4,18,14.9,18,17.1 M10.6,13.6
				c0,1.8,1.4,2.5,2.6,2.9c1,0.3,1.7,0.5,1.7,1.2c0,0.5-0.4,0.9-1.2,0.9c-0.8,0-1.3-0.4-1.5-1.3l-1.7,0.8c0.4,1.7,1.8,2.5,3.3,2.5
				c1.8,0,3.2-1,3.2-2.8c0-1.8-1.2-2.4-2.6-2.9c-1.1-0.3-1.8-0.5-1.8-1.2c0-0.5,0.4-0.9,1.2-0.9c0.8,0,1.3,0.3,1.5,1.2l1.8-0.7
				c-0.4-1.6-1.6-2.5-3.3-2.5C12,10.8,10.6,11.8,10.6,13.6"/>
		</g>
	</g>
</g>
</svg>
