<?xml version="1.0" encoding="utf-8"?>
<!-- Generator: Adobe Illustrator 20.1.0, SVG Export Plug-In . SVG Version: 6.00 Build 0)  -->
<svg version="1.1" id="Layer_1" xmlns="http://www.w3.org/2000/svg" xmlns:xlink="http://www.w3.org/1999/xlink" x="0px" y="0px"
	 viewBox="0 0 178 30" style="enable-background:new 0 0 178 30;" xml:space="preserve">
<style type="text/css">
	.st0{clip-path:url(#SVGID_2_);fill:none;stroke:#0BA3C8;stroke-width:1.5;}
	.st1{enable-background:new    ;}
	.st2{fill:#0BA3C8;}
</style>
<g>
	<g>
		<defs>
			<rect id="SVGID_1_" width="178" height="30"/>
		</defs>
		<clipPath id="SVGID_2_">
			<use xlink:href="#SVGID_1_"  style="overflow:visible;"/>
		</clipPath>
		<path class="st0" d="M4.2,0.8c0,0-3.5,0-3.5,3.5v21.5c0,0,0,3.5,3.5,3.5h169.5c0,0,3.5,0,3.5-3.5V4.2c0,0,0-3.5-3.5-3.5H4.2V0.8z"
			/>
	</g>
</g>
<g class="st1">
	<path class="st2" d="M27.1,19.6l-4.6-9.8h2.2l3.3,7l3.3-7h2.2l-4.6,9.8H27.1z"/>
</g>
<g class="st1">
	<path class="st2" d="M35.3,9.4c0.7,0,1.2,0.5,1.2,1.2c0,0.7-0.5,1.2-1.2,1.2s-1.2-0.5-1.2-1.2C34.1,9.9,34.6,9.4,35.3,9.4z
		 M36.2,12.6v7h-1.8v-7H36.2z"/>
</g>
<g class="st1">
	<path class="st2" d="M41,12.4c2.1,0,3.5,1.5,3.5,3.7v0.5h-5.2l0,0c0.2,0.9,1.1,1.3,1.9,1.3c0.8,0,1.5-0.3,2-0.7l0.8,1.5
		c-0.6,0.5-1.4,0.9-2.8,0.9c-2.4,0-3.8-1.6-3.8-3.7C37.4,14,38.8,12.4,41,12.4z M42.5,15.3C42.4,14.5,41.9,14,41,14
		s-1.5,0.5-1.7,1.3H42.5z"/>
</g>
<g class="st1">
	<path class="st2" d="M47.4,19.6l-2.8-7h2l1.6,4.2l1.7-4.2h1.5l1.7,4.2l1.6-4.2h2l-2.8,7h-1.4l-1.8-4.2l-1.8,4.2H47.4z"/>
	<path class="st2" d="M67.9,9.8v9.8h-1.8v-1c-0.5,0.7-1.3,1.2-2.3,1.2c-1.7,0-3.2-1.3-3.2-3.7s1.4-3.7,3.2-3.7
		c1.1,0,1.9,0.5,2.4,1.2V9.8H67.9z M62.5,16.1c0,1.1,0.8,1.9,1.8,1.9c1.1,0,1.8-0.7,1.8-1.9c0-1.2-0.8-1.9-1.8-1.9
		C63.2,14.2,62.5,15,62.5,16.1z"/>
</g>
<g class="st1">
	<path class="st2" d="M73,12.4c2.1,0,3.5,1.5,3.5,3.7v0.5h-5.2l0,0c0.2,0.9,1.1,1.3,1.9,1.3c0.8,0,1.5-0.3,2-0.7l0.8,1.5
		c-0.6,0.5-1.4,0.9-2.8,0.9c-2.4,0-3.8-1.6-3.8-3.7C69.4,14,70.8,12.4,73,12.4z M74.5,15.3C74.4,14.5,73.9,14,73,14
		s-1.5,0.5-1.7,1.3H74.5z"/>
</g>
<g class="st1">
	<path class="st2" d="M81.8,19.5c-0.5,0.1-1.1,0.2-1.5,0.2c-1.3,0-2.1-0.6-2.1-2.2v-3.3h-1.3v-1.6h1.3v-1.9H80v1.9h1.8v1.6H80v3
		c0,0.4,0.2,0.6,0.7,0.6c0.3,0,0.5,0,1-0.1V19.5z"/>
	<path class="st2" d="M82.7,14c0.5-1.1,1.6-1.6,3.1-1.6c2.1,0,3.1,0.9,3.1,2.8v4.3h-1.8v-1c-0.4,0.6-1.1,1.1-2.2,1.1
		c-1.4,0-2.4-0.9-2.4-2.2c0-1.3,1-2.1,2.2-2.2l1.9-0.2c0.2,0,0.4-0.1,0.4-0.3v-0.1c0-0.4-0.4-0.7-1.2-0.7c-0.7,0-1.5,0.2-1.8,0.9
		L82.7,14z M87.1,16.5l-1.7,0.2c-0.6,0.1-0.9,0.4-0.9,0.8c0,0.4,0.3,0.7,1,0.7c1,0,1.6-0.7,1.6-1.4V16.5z"/>
	<path class="st2" d="M91.5,9.4c0.7,0,1.2,0.5,1.2,1.2c0,0.7-0.5,1.2-1.2,1.2c-0.7,0-1.2-0.5-1.2-1.2C90.3,9.9,90.8,9.4,91.5,9.4z
		 M92.4,12.6v7h-1.8v-7H92.4z"/>
</g>
<g class="st1">
	<path class="st2" d="M95.8,9.8v9.8H94V9.8H95.8z"/>
</g>
<g class="st1">
	<path class="st2" d="M100.6,12.4c2.1,0,3.5,1.5,3.5,3.7v0.5h-5.2l0,0c0.2,0.9,1.1,1.3,1.9,1.3c0.8,0,1.5-0.3,2-0.7l0.8,1.5
		c-0.6,0.5-1.4,0.9-2.8,0.9c-2.4,0-3.8-1.6-3.8-3.7C97,14,98.4,12.4,100.6,12.4z M102.1,15.3c-0.1-0.8-0.6-1.3-1.5-1.3
		s-1.5,0.5-1.7,1.3H102.1z"/>
</g>
<g class="st1">
	<path class="st2" d="M112.2,9.8v9.8h-1.8v-1c-0.5,0.7-1.3,1.2-2.3,1.2c-1.7,0-3.2-1.3-3.2-3.7s1.4-3.7,3.2-3.7
		c1.1,0,1.9,0.5,2.4,1.2V9.8H112.2z M106.7,16.1c0,1.1,0.8,1.9,1.8,1.9c1.1,0,1.8-0.7,1.8-1.9c0-1.2-0.8-1.9-1.8-1.9
		C107.5,14.2,106.7,15,106.7,16.1z"/>
</g>
<g class="st1">
	<path class="st2" d="M124.2,12.6v7h-1.8v-1.1c-0.5,0.7-1.2,1.2-2.2,1.2c-1.6,0-2.4-1.1-2.4-2.8v-4.4h1.9v3.9c0,1,0.3,1.5,1.2,1.5
		c1.1,0,1.5-0.8,1.5-2v-3.3H124.2z"/>
</g>
<g class="st1">
	<path class="st2" d="M128.6,12.4c1.3,0,2.2,0.4,2.8,1l-1,1.3c-0.4-0.4-1.1-0.7-1.9-0.7c-0.6,0-0.9,0.2-0.9,0.5
		c0,0.4,0.4,0.4,1.6,0.7c1.2,0.3,2.2,0.7,2.2,2.2c0,1.6-1.2,2.3-3,2.3c-1.3,0-2.5-0.4-3.1-1.2l1.1-1.4c0.5,0.6,1.2,0.9,2.2,0.9
		c0.5,0,0.9-0.1,0.9-0.5c0-0.4-0.4-0.4-1.6-0.7c-1.1-0.2-2.3-0.7-2.3-2.2C125.6,13.2,126.7,12.4,128.6,12.4z"/>
</g>
<g class="st1">
	<path class="st2" d="M132.3,14c0.5-1.1,1.6-1.6,3.1-1.6c2.1,0,3.1,0.9,3.1,2.8v4.3h-1.8v-1c-0.4,0.6-1.1,1.1-2.2,1.1
		c-1.4,0-2.4-0.9-2.4-2.2c0-1.3,1-2.1,2.2-2.2l1.9-0.2c0.2,0,0.4-0.1,0.4-0.3v-0.1c0-0.4-0.4-0.7-1.2-0.7c-0.7,0-1.5,0.2-1.8,0.9
		L132.3,14z M136.7,16.5l-1.7,0.2c-0.6,0.1-0.9,0.4-0.9,0.8c0,0.4,0.3,0.7,1,0.7c1,0,1.6-0.7,1.6-1.4V16.5z"/>
</g>
<g class="st1">
	<path class="st2" d="M142.9,12.4c1.1,0,1.9,0.5,2.3,1.1v-1h1.8v6.5c0,1.8-0.9,3.4-3.8,3.4c-1.4,0-2.4-0.4-3.1-1.1l0.9-1.5
		c0.6,0.6,1.3,0.9,2.1,0.9c1.6,0,2.1-0.8,2.1-1.8v-0.4c-0.5,0.7-1.2,1.1-2.3,1.1c-1.9,0-3.3-1.3-3.3-3.6
		C139.7,13.7,141.2,12.4,142.9,12.4z M143.4,14.2c-1.1,0-1.8,0.7-1.8,1.9s0.8,1.9,1.8,1.9c1.1,0,1.8-0.7,1.8-1.9
		C145.2,14.9,144.5,14.2,143.4,14.2z"/>
</g>
<g class="st1">
	<path class="st2" d="M151.8,12.4c2.1,0,3.5,1.5,3.5,3.7v0.5h-5.2l0,0c0.2,0.9,1.1,1.3,1.9,1.3c0.8,0,1.5-0.3,2-0.7l0.8,1.5
		c-0.6,0.5-1.4,0.9-2.8,0.9c-2.4,0-3.8-1.6-3.8-3.7C148.2,14,149.6,12.4,151.8,12.4z M153.3,15.3c-0.1-0.8-0.6-1.3-1.5-1.3
		s-1.5,0.5-1.7,1.3H153.3z"/>
</g>
</svg>
