<?xml version="1.0" encoding="utf-8"?>
<!-- Generator: Adobe Illustrator 20.1.0, SVG Export Plug-In . SVG Version: 6.00 Build 0)  -->
<svg version="1.1" baseProfile="tiny" id="Layer_1" xmlns="http://www.w3.org/2000/svg" xmlns:xlink="http://www.w3.org/1999/xlink"
	 x="0px" y="0px" viewBox="0 0 7.2 7.2" xml:space="preserve">
<g>
	<path fill="#FA4616" d="M6.4,2c0.3,0.5,0.4,1,0.4,1.6S6.7,4.7,6.4,5.2S5.7,6.1,5.2,6.4c-0.5,0.3-1,0.4-1.6,0.4S2.5,6.7,2,6.4
		C1.5,6.1,1.1,5.7,0.8,5.2s-0.4-1-0.4-1.6S0.5,2.5,0.8,2C1.1,1.5,1.5,1.1,2,0.8c0.5-0.3,1-0.4,1.6-0.4s1.1,0.1,1.6,0.4
		C5.7,1.1,6.1,1.5,6.4,2z M5.5,3.9V3.3c0-0.1,0-0.1-0.1-0.2S5.3,3.1,5.2,3.1H2c-0.1,0-0.1,0-0.2,0.1S1.7,3.3,1.7,3.3v0.5
		c0,0.1,0,0.1,0.1,0.2S1.9,4.1,2,4.1h3.3c0.1,0,0.1,0,0.2-0.1S5.5,3.9,5.5,3.9z"/>
</g>
</svg>
