<?xml version="1.0" encoding="utf-8"?>
<!-- Generator: Adobe Illustrator 20.1.0, SVG Export Plug-In . SVG Version: 6.00 Build 0)  -->
<svg version="1.1" baseProfile="tiny" id="Layer_1" xmlns="http://www.w3.org/2000/svg" xmlns:xlink="http://www.w3.org/1999/xlink"
	 x="0px" y="0px" viewBox="0 0 7.2 7.2" xml:space="preserve">
<g>
	<path fill="#3E3935" d="M6.4,2c0.3,0.5,0.4,1,0.4,1.6S6.7,4.7,6.4,5.2S5.7,6.1,5.2,6.4c-0.5,0.3-1,0.4-1.6,0.4S2.5,6.7,2,6.4
		C1.5,6.1,1.1,5.7,0.8,5.2s-0.4-1-0.4-1.6S0.5,2.5,0.8,2C1.1,1.5,1.5,1.1,2,0.8c0.5-0.3,1-0.4,1.6-0.4s1.1,0.1,1.6,0.4
		C5.7,1.1,6.1,1.5,6.4,2z M5.2,2.8c0-0.2-0.1-0.5-0.2-0.7C4.8,1.9,4.6,1.7,4.4,1.6C4.2,1.5,3.9,1.4,3.7,1.4C3,1.4,2.5,1.7,2.1,2.3
		c0,0.1,0,0.1,0,0.2l0.6,0.4c0,0,0,0,0.1,0c0,0,0.1,0,0.1-0.1C3,2.7,3.2,2.6,3.3,2.5c0.1-0.1,0.2-0.1,0.4-0.1c0.1,0,0.3,0,0.4,0.1
		c0.1,0.1,0.2,0.2,0.2,0.3c0,0.1,0,0.2-0.1,0.3S3.9,3.2,3.8,3.2C3.6,3.3,3.4,3.4,3.3,3.6S3.1,3.9,3.1,4.1v0.2c0,0,0,0.1,0,0.1
		c0,0,0.1,0,0.1,0H4c0,0,0.1,0,0.1,0c0,0,0-0.1,0-0.1c0-0.1,0-0.1,0.1-0.2C4.3,4,4.4,3.9,4.5,3.9c0.1-0.1,0.2-0.1,0.2-0.1
		c0,0,0.1-0.1,0.2-0.1S5,3.5,5.1,3.4c0-0.1,0.1-0.2,0.1-0.3C5.2,3,5.2,2.9,5.2,2.8z M4.1,5.6V4.8c0,0,0-0.1,0-0.1c0,0-0.1,0-0.1,0
		H3.2c0,0-0.1,0-0.1,0s0,0.1,0,0.1v0.8c0,0,0,0.1,0,0.1s0.1,0,0.1,0H4C4,5.8,4.1,5.8,4.1,5.6C4.1,5.7,4.1,5.7,4.1,5.6z"/>
</g>
</svg>
