<?xml version="1.0" encoding="utf-8"?>
<!-- Generator: Adobe Illustrator 20.1.0, SVG Export Plug-In . SVG Version: 6.00 Build 0)  -->
<svg version="1.1" id="Layer_1" xmlns="http://www.w3.org/2000/svg" xmlns:xlink="http://www.w3.org/1999/xlink" x="0px" y="0px"
	 viewBox="0 0 19.306 20.57" style="enable-background:new 0 0 19.306 20.57;" xml:space="preserve">
<style type="text/css">
	.st0{fill:#EBEAE8;}
	.st1{fill:#50B848;}
</style>
<rect x="-0.0001" y="0.0001" class="st0" width="19.306" height="20.5743"/>
<g>
	<path class="st1" d="M17.5557,9.8849l-0.1611-0.002c-0.208-0.002-0.4219-0.0039-0.6133,0.0117
		C16.4316,9.3487,16,8.8673,15.4971,8.462c-0.0713-0.0566-0.1064-0.1152-0.124-0.21c-0.0615-0.3242-0.0371-0.6719-0.0146-1.0063
		c0.0215-0.2847,0.0332-0.5928-0.0225-0.9146c-0.1191-0.6758-0.6016-1.1235-1.2598-1.1685
		c-0.4111-0.0332-0.751,0.1265-1.0049,0.2627c-0.54,0.2896-1.0098,0.6978-1.5059,1.3198c-0.1606-0.0301-0.3307-0.0543-0.5052-0.0769
		c0.0612-0.0155,0.1175-0.0415,0.1663-0.0823c0.1533-0.1289,0.1533-0.3135,0.1533-0.3901c0.001-0.2051-0.0225-0.418-0.0693-0.6318
		c-0.3604-1.6748-1.9971-2.8438-3.7334-2.6553c-1.771,0.1914-3.0996,1.6245-3.0898,3.334L4.4858,6.3253
		c-0.002,0.0801-0.0034,0.1602,0.0044,0.2412c0.0312,0.3228,0.0522,0.5356,0.2573,0.6689c0.0801,0.0518,0.1606,0.0723,0.248,0.0723
		c0.0499,0,0.105-0.0127,0.1601-0.0244c-2.1734,0.8607-3.5905,2.3923-4.204,4.6016H0.9512C0.668,11.8585,0.4214,11.962,0.2466,12.13
		C0.0913,12.2794,0.0039,12.4874,0,12.7169c-0.0068,0.4277,0.2632,0.7451,0.6958,0.835c-0.0073,0.1992-0.0098,0.3984-0.0024,0.5967
		c0.0469,1.4365,0.5859,2.6582,1.6021,3.6309c0.0771,0.0742,0.1689,0.1387,0.2617,0.2002c0.0693,0.0469,0.1851,0.124,0.1948,0.1611
		c0.0308,0.1172,0.022,0.2695,0.0127,0.4307c-0.0049,0.0898-0.0098,0.1797-0.0098,0.2695c0.0063,0.9961,0.751,1.7227,1.771,1.7256
		h0.792c0.3813,0,0.7617,0,1.1431,0.0029c0.0107,0.001,0.0215,0.001,0.0322,0.001c0.6387,0,1.1387-0.251,1.439-0.7188
		c0.9165,0.0703,1.8384,0.0713,2.7104-0.0176c0.3486,0.4932,0.8809,0.7861,1.5049,0.7344c0.2139-0.0039,0.4287-0.002,0.6426-0.002
		l0.6279,0.002l0.6621-0.001c1.042-0.0049,1.7734-0.7197,1.7783-1.7393l0.001-0.0879c0.001-0.1934,0.002-0.3857-0.002-0.5791
		c1.0078-0.7656,1.6543-1.748,1.9248-2.9346c0.8828-0.0986,1.5156-0.7891,1.5215-1.6787c0.0029-0.6533,0.0029-1.3057,0-1.959
		C19.2988,10.627,18.5479,9.8936,17.5557,9.8849z M17.1768,13.878c-0.0732-0.0107-0.29-0.0391-0.4717,0.1064
		c-0.1641,0.1328-0.1963,0.3242-0.207,0.457c-0.0488,0.6338-0.2598,1.2217-0.626,1.748c-0.291,0.417-0.6494,0.7637-1.0654,1.0293
		c-0.2393,0.1533-0.3506,0.3652-0.3398,0.6465c0.0088,0.2471,0.0068,0.4941,0.0039,0.7412l-0.001,0.2002
		c-0.002,0.2754-0.124,0.3936-0.4102,0.3945c-0.6436,0.002-1.2891,0.002-1.9346,0c-0.3242-0.002-0.3818-0.166-0.3945-0.3281
		c-0.0127-0.1572-0.0713-0.2783-0.1729-0.3604c-0.1504-0.1221-0.3203-0.1006-0.4121-0.0889
		c-0.7012,0.0889-1.416,0.1201-2.1377,0.1094c-0.4468-0.0107-0.9751-0.0312-1.5039-0.1055c-0.1011-0.0137-0.2861-0.04-0.4448,0.0918
		c-0.1621,0.1328-0.1743,0.3291-0.1782,0.3926c-0.0117,0.1777-0.1392,0.2852-0.3403,0.2881c-0.6787,0.0059-1.3584,0.0059-2.0381,0
		c-0.2222-0.0029-0.3521-0.1289-0.3564-0.3457c-0.0059-0.3496-0.0059-0.6982,0.001-1.0469
		c0.0049-0.2373-0.0933-0.4238-0.2905-0.5537c-1.312-0.875-1.8872-2.1201-1.7583-3.8047c0.0815-1.0596,0.3564-1.9482,0.8394-2.7158
		c0.7192-1.1455,1.7729-1.918,3.2217-2.3643c0.979-0.3022,1.9912-0.4521,3.0596-0.4521c0.6289,0,1.2773,0.0518,1.9492,0.1553
		c0.2197,0.0342,0.4375,0.0791,0.6543,0.1255c0.3506,0.0747,0.5381-0.1138,0.6357-0.2856c0.2598-0.4707,0.6318-0.8647,1.1357-1.2036
		c0.1221-0.0815,0.2324-0.1348,0.3623-0.1621c0.0176,0.123,0.0244,0.2476,0.0215,0.374c-0.0029,0.1177-0.0098,0.2358-0.0156,0.354
		c-0.0234,0.4526-0.0488,0.9209,0.0869,1.4043c0.0957,0.3428,0.2764,0.6143,0.5508,0.8291
		c0.4648,0.3672,0.8506,0.8213,1.1475,1.3496c0.1621,0.2871,0.3877,0.4141,0.7217,0.3965c0.2354-0.0107,0.4678-0.0088,0.7021-0.0059
		l0.2705,0.002c0.4043,0.001,0.4727,0.1357,0.4736,0.4355v1.7666c-0.001,0.2812-0.0732,0.4238-0.4619,0.4258l-0.1123,0.002
		C17.2842,13.8819,17.2295,13.8839,17.1768,13.878z M5.8975,6.5006C5.8164,6.0499,5.9131,5.6192,6.1919,5.1842
		c0.4399-0.6855,1.3105-1.0381,2.1523-0.8809C9.1377,4.4513,9.8145,5.1056,9.9521,5.857C9.958,5.8897,9.9561,5.9269,9.9561,5.9635
		c0.001,0.1577,0.002,0.4219,0.2363,0.5859c0.0354,0.0246,0.0733,0.0283,0.1102,0.0436c-0.008-0.0005-0.0143-0.0015-0.0223-0.0021
		C8.5454,6.4771,7.0439,6.6358,5.687,7.0792C5.6859,7.0796,5.6849,7.0801,5.6837,7.0805C5.9047,6.9193,5.9311,6.6877,5.8975,6.5006z
		"/>
	<path class="st1" d="M13.9463,10.5519c-0.4707,0.0059-0.8457,0.3721-0.8535,0.834c-0.0039,0.2256,0.082,0.4395,0.2412,0.6016
		c0.1621,0.166,0.3818,0.2588,0.6162,0.2598c0.0039,0,0.0068,0,0.0098,0c0.2334,0,0.4521-0.0889,0.6162-0.251
		c0.1611-0.1602,0.249-0.373,0.248-0.5996c0-0.2256-0.0898-0.4375-0.252-0.5957C14.4062,10.6368,14.1592,10.5352,13.9463,10.5519z"
		/>
	<path class="st1" d="M7.9326,2.7193c0.3535,0,0.6411-0.2832,0.6411-0.6309v-1.457c0-0.3481-0.2876-0.6313-0.6411-0.6313
		S7.2915,0.2833,7.2915,0.6314v1.457C7.2915,2.4361,7.5791,2.7193,7.9326,2.7193z"/>
	<path class="st1" d="M2.4644,6.0421h1.4458c0.3535,0,0.6411-0.2832,0.6411-0.6313c0-0.3477-0.2876-0.6309-0.6411-0.6309H2.4644
		c-0.3535,0-0.6411,0.2832-0.6411,0.6309C1.8232,5.7589,2.1108,6.0421,2.4644,6.0421z"/>
	<path class="st1" d="M10.9922,3.7789c0.1699,0,0.3301-0.0645,0.4492-0.1802l1.1152-1.0776C12.6816,2.401,12.75,2.2408,12.75,2.0694
		c0-0.1709-0.0684-0.3311-0.1934-0.4512c-0.25-0.2412-0.6455-0.2417-0.8975,0.0005L10.542,2.6974
		c-0.123,0.1196-0.1904,0.2798-0.1904,0.4507c0,0.1704,0.0674,0.3306,0.1924,0.4517C10.665,3.7149,10.8242,3.7789,10.9922,3.7789z"
		/>
	<path class="st1" d="M4.481,3.4454c0.1206,0.1162,0.2798,0.1802,0.4492,0.1802s0.3286-0.064,0.4492-0.1802
		c0.124-0.1196,0.1924-0.2798,0.1924-0.4512c0-0.1709-0.0684-0.3311-0.1924-0.4507L4.3599,1.5592
		C4.1128,1.3199,3.709,1.3189,3.46,1.5602c-0.123,0.1191-0.1904,0.2793-0.1904,0.4497s0.0674,0.3301,0.1914,0.4507L4.481,3.4454z"/>
</g>
</svg>
