<?xml version="1.0" encoding="utf-8"?>
<!-- Generator: Adobe Illustrator 20.1.0, SVG Export Plug-In . SVG Version: 6.00 Build 0)  -->
<svg version="1.1" baseProfile="tiny" id="Layer_1" xmlns="http://www.w3.org/2000/svg" xmlns:xlink="http://www.w3.org/1999/xlink"
	 x="0px" y="0px" viewBox="0 0 19.3 20.6" xml:space="preserve">
<g>
	<path fill="#51B848" d="M17.6,9.9l-0.2,0c-0.2,0-0.4,0-0.6,0c-0.3-0.5-0.8-1-1.3-1.4c-0.1-0.1-0.1-0.1-0.1-0.2c-0.1-0.3,0-0.7,0-1
		c0-0.3,0-0.6,0-0.9c-0.1-0.7-0.6-1.1-1.3-1.2c-0.4,0-0.8,0.1-1,0.3c-0.5,0.3-1,0.7-1.5,1.3c-0.2,0-0.3-0.1-0.5-0.1
		c0.1,0,0.1,0,0.2-0.1c0.2-0.1,0.2-0.3,0.2-0.4c0-0.2,0-0.4-0.1-0.6c-0.4-1.7-2-2.8-3.7-2.7C5.8,3.1,4.5,4.5,4.5,6.2l0.4,0L4.5,6.3
		c0,0.1,0,0.2,0,0.2c0,0.3,0.1,0.5,0.3,0.7C4.8,7.3,4.9,7.3,5,7.3c0,0,0.1,0,0.2,0C3,8.1,1.6,9.7,1,11.9h0c-0.3,0-0.5,0.1-0.7,0.2
		C0.1,12.3,0,12.5,0,12.7c0,0.4,0.3,0.7,0.7,0.8c0,0.2,0,0.4,0,0.6c0,1.4,0.6,2.7,1.6,3.6c0.1,0.1,0.2,0.1,0.3,0.2
		c0.1,0,0.2,0.1,0.2,0.2c0,0.1,0,0.3,0,0.4c0,0.1,0,0.2,0,0.3c0,1,0.8,1.7,1.8,1.7h0.8c0.4,0,0.8,0,1.1,0c0,0,0,0,0,0
		c0.6,0,1.1-0.3,1.4-0.7c0.9,0.1,1.8,0.1,2.7,0c0.3,0.5,0.9,0.8,1.5,0.7c0.2,0,0.4,0,0.6,0l0.6,0l0.7,0c1,0,1.8-0.7,1.8-1.7l0-0.1
		c0-0.2,0-0.4,0-0.6c1-0.8,1.7-1.7,1.9-2.9c0.9-0.1,1.5-0.8,1.5-1.7c0-0.7,0-1.3,0-2C19.3,10.6,18.5,9.9,17.6,9.9z M17.2,13.9
		c-0.1,0-0.3,0-0.5,0.1c-0.2,0.1-0.2,0.3-0.2,0.5c0,0.6-0.3,1.2-0.6,1.7c-0.3,0.4-0.6,0.8-1.1,1c-0.2,0.2-0.4,0.4-0.3,0.6
		c0,0.2,0,0.5,0,0.7l0,0.2c0,0.3-0.1,0.4-0.4,0.4c-0.6,0-1.3,0-1.9,0c-0.3,0-0.4-0.2-0.4-0.3c0-0.2-0.1-0.3-0.2-0.4
		c-0.2-0.1-0.3-0.1-0.4-0.1c-0.7,0.1-1.4,0.1-2.1,0.1c-0.4,0-1,0-1.5-0.1c-0.1,0-0.3,0-0.4,0.1c-0.2,0.1-0.2,0.3-0.2,0.4
		c0,0.2-0.1,0.3-0.3,0.3c-0.7,0-1.4,0-2,0c-0.2,0-0.4-0.1-0.4-0.3c0-0.3,0-0.7,0-1c0-0.2-0.1-0.4-0.3-0.6c-1.3-0.9-1.9-2.1-1.8-3.8
		c0.1-1.1,0.4-1.9,0.8-2.7c0.7-1.1,1.8-1.9,3.2-2.4c1-0.3,2-0.5,3.1-0.5c0.6,0,1.3,0.1,1.9,0.2c0.2,0,0.4,0.1,0.7,0.1
		c0.4,0.1,0.5-0.1,0.6-0.3c0.3-0.5,0.6-0.9,1.1-1.2c0.1-0.1,0.2-0.1,0.4-0.2c0,0.1,0,0.2,0,0.4c0,0.1,0,0.2,0,0.4
		c0,0.5,0,0.9,0.1,1.4c0.1,0.3,0.3,0.6,0.6,0.8c0.5,0.4,0.9,0.8,1.1,1.3c0.2,0.3,0.4,0.4,0.7,0.4c0.2,0,0.5,0,0.7,0l0.3,0
		c0.4,0,0.5,0.1,0.5,0.4v1.8c0,0.3-0.1,0.4-0.5,0.4l-0.1,0C17.3,13.9,17.2,13.9,17.2,13.9z M5.9,6.5C5.8,6,5.9,5.6,6.2,5.2
		c0.4-0.7,1.3-1,2.2-0.9C9.1,4.5,9.8,5.1,10,5.9c0,0,0,0.1,0,0.1c0,0.2,0,0.4,0.2,0.6c0,0,0.1,0,0.1,0c0,0,0,0,0,0
		C8.5,6.5,7,6.6,5.7,7.1c0,0,0,0,0,0C5.9,6.9,5.9,6.7,5.9,6.5z"/>
	<path fill="#51B848" d="M13.9,10.6c-0.5,0-0.8,0.4-0.9,0.8c0,0.2,0.1,0.4,0.2,0.6c0.2,0.2,0.4,0.3,0.6,0.3c0,0,0,0,0,0
		c0.2,0,0.5-0.1,0.6-0.3c0.2-0.2,0.2-0.4,0.2-0.6c0-0.2-0.1-0.4-0.3-0.6C14.4,10.6,14.2,10.5,13.9,10.6z"/>
	<path fill="#51B848" d="M7.9,2.7c0.4,0,0.6-0.3,0.6-0.6V0.6C8.6,0.3,8.3,0,7.9,0S7.3,0.3,7.3,0.6v1.5C7.3,2.4,7.6,2.7,7.9,2.7z"/>
	<path fill="#51B848" d="M2.5,6h1.4c0.4,0,0.6-0.3,0.6-0.6c0-0.3-0.3-0.6-0.6-0.6H2.5c-0.4,0-0.6,0.3-0.6,0.6C1.8,5.8,2.1,6,2.5,6z"
		/>
	<path fill="#51B848" d="M11,3.8c0.2,0,0.3-0.1,0.4-0.2l1.1-1.1c0.1-0.1,0.2-0.3,0.2-0.5c0-0.2-0.1-0.3-0.2-0.5
		c-0.2-0.2-0.6-0.2-0.9,0l-1.1,1.1c-0.1,0.1-0.2,0.3-0.2,0.5c0,0.2,0.1,0.3,0.2,0.5C10.7,3.7,10.8,3.8,11,3.8z"/>
	<path fill="#51B848" d="M4.5,3.4c0.1,0.1,0.3,0.2,0.4,0.2s0.3-0.1,0.4-0.2C5.5,3.3,5.6,3.2,5.6,3c0-0.2-0.1-0.3-0.2-0.5l-1-1
		c-0.2-0.2-0.7-0.2-0.9,0C3.3,1.7,3.3,1.8,3.3,2s0.1,0.3,0.2,0.5L4.5,3.4z"/>
</g>
</svg>
