<?xml version="1.0" encoding="utf-8"?>
<!-- Generator: Adobe Illustrator 20.1.0, SVG Export Plug-In . SVG Version: 6.00 Build 0)  -->
<svg version="1.1" baseProfile="tiny" id="Layer_1" xmlns="http://www.w3.org/2000/svg" xmlns:xlink="http://www.w3.org/1999/xlink"
	 x="0px" y="0px" viewBox="0 0 7.2 7.2" xml:space="preserve">
<g>
	<path fill="#51B848" d="M6.9,2.1c0,0.1,0,0.2-0.1,0.3L3.7,5.4L3.1,6C3,6.1,2.9,6.1,2.8,6.1c-0.1,0-0.2,0-0.3-0.1L2,5.4L0.4,3.9
		C0.4,3.8,0.3,3.7,0.3,3.6s0-0.2,0.1-0.3L1,2.7c0.1-0.1,0.2-0.1,0.3-0.1c0.1,0,0.2,0,0.3,0.1L2.8,4l2.8-2.8c0.1-0.1,0.2-0.1,0.3-0.1
		s0.2,0,0.3,0.1l0.6,0.6C6.8,1.9,6.9,2,6.9,2.1z"/>
</g>
</svg>
