<?xml version="1.0" encoding="utf-8"?>
<!-- Generator: Adobe Illustrator 20.1.0, SVG Export Plug-In . SVG Version: 6.00 Build 0)  -->
<svg version="1.1" baseProfile="tiny" id="Layer_1" xmlns="http://www.w3.org/2000/svg" xmlns:xlink="http://www.w3.org/1999/xlink"
	 x="0px" y="0px" viewBox="0 0 26 26" xml:space="preserve">
<path fill-rule="evenodd" fill="#10A3C8" d="M13,0C5.8,0,0,5.8,0,13s5.8,13,13,13s13-5.8,13-13S20.2,0,13,0z M13,22
	c-1.2,0-2-0.8-2-2s0.8-2,2-2s2,0.8,2,2S14.1,22,13,22z M18.6,10.9c-0.4,0.9-1,1.6-1.6,2.1c-0.9,0.7-2,0.9-2,2v1h-4v-1
	c0-1.7,1-2.2,2-3c0.7-0.5,2-1.3,2-2c0-0.8-0.8-2-2-2c-1.1,0-1.9,0.8-2,2H7c0-3.3,2.9-6,6-6c3,0,6,2.4,6,5
	C19,9.7,18.8,10.3,18.6,10.9z"/>
</svg>
