<?xml version="1.0" encoding="utf-8"?>
<!-- Generator: Adobe Illustrator 20.1.0, SVG Export Plug-In . SVG Version: 6.00 Build 0)  -->
<svg version="1.1" id="Layer_1" xmlns="http://www.w3.org/2000/svg" xmlns:xlink="http://www.w3.org/1999/xlink" x="0px" y="0px"
	 viewBox="0 0 16 22.933" style="enable-background:new 0 0 16 22.933;" xml:space="preserve">
<style type="text/css">
	.st0{fill:#EBEAE8;}
	.st1{fill:#50B848;}
	.st2{fill:#50B748;}
</style>
<rect class="st0" width="16" height="22.933"/>
<g>
	<g>
		<path class="st1" d="M1.219,1.411H14.78v20.111H1.219V1.411z M0,22.933h16V0H0V22.933z"/>
		<path class="st1" d="M3.658,6.792h8.688V4.234H3.658V6.792z M13.565,8.203H2.439v-5.38h11.126V8.203z"/>
		<rect x="2.439" y="9.879" class="st1" width="1.981" height="2.293"/>
		<rect x="8.535" y="9.879" class="st1" width="1.981" height="2.293"/>
		<rect x="5.487" y="9.879" class="st1" width="1.981" height="2.293"/>
		<rect x="11.584" y="9.879" class="st1" width="1.981" height="2.293"/>
		<rect x="2.439" y="16.935" class="st1" width="1.981" height="2.293"/>
		<rect x="8.535" y="16.935" class="st1" width="1.981" height="2.293"/>
		<rect x="5.487" y="16.935" class="st1" width="1.981" height="2.293"/>
		<rect x="11.584" y="13.407" class="st1" width="1.981" height="5.821"/>
		<rect x="2.439" y="13.407" class="st1" width="1.981" height="2.293"/>
		<rect x="8.535" y="13.407" class="st1" width="1.981" height="2.293"/>
		<rect x="5.6621" y="13.407" class="st1" width="1.981" height="2.293"/>
	</g>
	<g>
		<path class="st2" d="M1.219,1.411H14.78v20.111H1.219V1.411z M0,22.933h16V0H0V22.933z"/>
		<path class="st2" d="M3.658,6.792h8.688V4.234H3.658V6.792z M13.565,8.203H2.439v-5.38h11.126V8.203z"/>
		<rect x="2.439" y="9.879" class="st2" width="1.981" height="2.293"/>
		<rect x="8.535" y="9.879" class="st2" width="1.981" height="2.293"/>
		<rect x="5.487" y="9.879" class="st2" width="1.981" height="2.293"/>
		<rect x="11.584" y="9.879" class="st2" width="1.981" height="2.293"/>
		<rect x="2.439" y="16.935" class="st2" width="1.981" height="2.293"/>
		<rect x="8.535" y="16.935" class="st2" width="1.981" height="2.293"/>
		<rect x="5.487" y="16.935" class="st2" width="1.981" height="2.293"/>
		<rect x="11.584" y="13.407" class="st2" width="1.981" height="5.821"/>
		<rect x="2.439" y="13.407" class="st2" width="1.981" height="2.293"/>
		<rect x="8.535" y="13.407" class="st2" width="1.981" height="2.293"/>
		<rect x="5.6621" y="13.407" class="st2" width="1.981" height="2.293"/>
	</g>
</g>
</svg>
