<?xml version="1.0" encoding="utf-8"?>
<!-- Generator: Adobe Illustrator 20.1.0, SVG Export Plug-In . SVG Version: 6.00 Build 0)  -->
<svg version="1.1" baseProfile="tiny" id="Layer_1" xmlns="http://www.w3.org/2000/svg" xmlns:xlink="http://www.w3.org/1999/xlink"
	 x="0px" y="0px" viewBox="0 0 7.2 7.2" xml:space="preserve">
<g>
	<path fill="#10A3C8" d="M5.7,2.4C5.9,2.8,6,3.2,6,3.6C6,4,5.9,4.4,5.7,4.8C5.5,5.2,5.2,5.5,4.8,5.7S4,6,3.6,6
		C3.2,6,2.8,5.9,2.4,5.7S1.7,5.2,1.5,4.8C1.3,4.4,1.2,4,1.2,3.6c0-0.4,0.1-0.8,0.3-1.2S2,1.7,2.4,1.5s0.8-0.3,1.2-0.3
		c0.4,0,0.8,0.1,1.2,0.3S5.5,2,5.7,2.4z M4.4,1.7C4.1,1.6,3.9,1.6,3.6,1.6c-0.3,0-0.5,0.1-0.8,0.2C2.6,1.8,2.4,2,2.2,2.2
		C2,2.4,1.8,2.6,1.7,2.8S1.6,3.3,1.6,3.6c0,0.3,0.1,0.5,0.2,0.8S2,4.8,2.2,5c0.2,0.2,0.4,0.3,0.6,0.4s0.5,0.2,0.8,0.2
		c0.3,0,0.5-0.1,0.8-0.2S4.8,5.2,5,5c0.2-0.2,0.3-0.4,0.4-0.6c0.1-0.2,0.2-0.5,0.2-0.8c0-0.3-0.1-0.5-0.2-0.8C5.4,2.6,5.2,2.4,5,2.2
		C4.8,2,4.6,1.8,4.4,1.7z"/>
</g>
</svg>
