<?xml version="1.0" encoding="utf-8"?>
<!-- Generator: Adobe Illustrator 20.1.0, SVG Export Plug-In . SVG Version: 6.00 Build 0)  -->
<svg version="1.1" baseProfile="tiny" id="Layer_1" xmlns="http://www.w3.org/2000/svg" xmlns:xlink="http://www.w3.org/1999/xlink"
	 x="0px" y="0px" viewBox="0 0 7.2 7.2" xml:space="preserve">
<g>
	<path fill="#51B848" d="M6.4,2c0.3,0.5,0.4,1,0.4,1.6S6.7,4.7,6.4,5.2S5.7,6.1,5.2,6.4c-0.5,0.3-1,0.4-1.6,0.4S2.5,6.7,2,6.4
		C1.5,6.1,1.1,5.7,0.8,5.2s-0.4-1-0.4-1.6S0.5,2.5,0.8,2C1.1,1.5,1.5,1.1,2,0.8c0.5-0.3,1-0.4,1.6-0.4s1.1,0.1,1.6,0.4
		C5.7,1.1,6.1,1.5,6.4,2z M5.8,2.9c0-0.1,0-0.1-0.1-0.2L5.3,2.3C5.3,2.3,5.2,2.3,5.1,2.3c-0.1,0-0.1,0-0.2,0.1L3.2,4.1l-1-1
		C2.2,3,2.1,3,2.1,3C2,3,1.9,3,1.9,3.1L1.5,3.5C1.4,3.5,1.4,3.6,1.4,3.7c0,0.1,0,0.1,0.1,0.2L3,5.4c0.1,0.1,0.1,0.1,0.2,0.1
		c0.1,0,0.1,0,0.2-0.1l2.3-2.3C5.8,3.1,5.8,3,5.8,2.9z"/>
</g>
</svg>
