<?xml version="1.0" encoding="utf-8"?>
<!-- Generator: Adobe Illustrator 20.1.0, SVG Export Plug-In . SVG Version: 6.00 Build 0)  -->
<svg version="1.1" id="Layer_1" xmlns="http://www.w3.org/2000/svg" xmlns:xlink="http://www.w3.org/1999/xlink" x="0px" y="0px"
	 viewBox="0 0 133 133" style="enable-background:new 0 0 133 133;" xml:space="preserve">
<style type="text/css">
	.st0{fill:#004F6C;}
	.st1{fill:none;stroke:#004F6C;stroke-width:6;stroke-linecap:round;stroke-linejoin:round;stroke-miterlimit:10;}
</style>
<g>
	<path class="st0" d="M66.5,6C99.9,6,127,33.1,127,66.5S99.9,127,66.5,127S6,99.9,6,66.5S33.1,6,66.5,6 M66.5,0
		C29.8,0,0,29.8,0,66.5S29.8,133,66.5,133S133,103.2,133,66.5S103.2,0,66.5,0L66.5,0z"/>
</g>
<g>
	<path class="st0" d="M94.2,43.1c2.4,0,4.4,2,4.4,4.4v39.2c0,2.4-2,4.4-4.4,4.4H38.8c-2.4,0-4.4-2-4.4-4.4V47.5c0-2.4,2-4.4,4.4-4.4
		H94.2 M94.2,37.1H38.8c-5.7,0-10.4,4.6-10.4,10.4v39.2c0,5.7,4.6,10.4,10.4,10.4h55.4c5.7,0,10.4-4.6,10.4-10.4V47.5
		C104.6,41.8,99.9,37.1,94.2,37.1L94.2,37.1z"/>
</g>
<path class="st1" d="M101.4,48.5l-31,28.1c-2.2,2-5.5,2-7.7,0l-31-28.1"/>
</svg>
