<?xml version="1.0" encoding="utf-8"?>
<!-- Generator: Adobe Illustrator 20.1.0, SVG Export Plug-In . SVG Version: 6.00 Build 0)  -->
<svg version="1.1" baseProfile="tiny" id="Layer_1" xmlns="http://www.w3.org/2000/svg" xmlns:xlink="http://www.w3.org/1999/xlink"
	 x="0px" y="0px" viewBox="0 0 16 22.9" xml:space="preserve">
<g>
	<path fill="#51B848" d="M1.2,1.4h13.6v20.1H1.2V1.4z M0,22.9h16V0H0V22.9z"/>
	<path fill="#51B848" d="M3.7,6.8h8.7V4.2H3.7V6.8z M13.6,8.2H2.4V2.8h11.1V8.2z"/>
	<rect x="2.4" y="9.9" fill="#51B848" width="2" height="2.3"/>
	<rect x="8.5" y="9.9" fill="#51B848" width="2" height="2.3"/>
	<rect x="5.5" y="9.9" fill="#51B848" width="2" height="2.3"/>
	<rect x="11.6" y="9.9" fill="#51B848" width="2" height="2.3"/>
	<rect x="2.4" y="16.9" fill="#51B848" width="2" height="2.3"/>
	<rect x="8.5" y="16.9" fill="#51B848" width="2" height="2.3"/>
	<rect x="5.5" y="16.9" fill="#51B848" width="2" height="2.3"/>
	<rect x="11.6" y="13.4" fill="#51B848" width="2" height="5.8"/>
	<rect x="2.4" y="13.4" fill="#51B848" width="2" height="2.3"/>
	<rect x="8.5" y="13.4" fill="#51B848" width="2" height="2.3"/>
	<rect x="5.7" y="13.4" fill="#51B848" width="2" height="2.3"/>
</g>
</svg>
