<?xml version="1.0" encoding="utf-8"?>
<!-- Generator: Adobe Illustrator 20.1.0, SVG Export Plug-In . SVG Version: 6.00 Build 0)  -->
<svg version="1.1" id="Layer_1" xmlns="http://www.w3.org/2000/svg" xmlns:xlink="http://www.w3.org/1999/xlink" x="0px" y="0px"
	 viewBox="0 0 284.4 213.84" style="enable-background:new 0 0 284.4 213.84;" xml:space="preserve">
<style type="text/css">
	.st0{fill:#F5F3F1;}
	.st1{clip-path:url(#SVGID_2_);fill:#231F20;}
	.st2{clip-path:url(#SVGID_2_);fill:#10A3C8;}
	.st3{clip-path:url(#SVGID_2_);fill:#004F6C;}
	.st4{fill:none;stroke:#CBC4BC;stroke-width:3;stroke-linecap:round;stroke-linejoin:round;}
</style>
<g>
	<rect class="st0" width="284.4" height="213.84"/>
	<g>
		<defs>
			<rect id="SVGID_1_" width="284.4" height="213.84"/>
		</defs>
		<clipPath id="SVGID_2_">
			<use xlink:href="#SVGID_1_"  style="overflow:visible;"/>
		</clipPath>
		<path class="st1" d="M129.081,66.4988h-0.851v0.851h0.851V66.4988z M124.045,67.0928c0.3,0.238,0.736,0.357,1.309,0.357
			c0.346,0,0.656-0.061,0.93-0.181c0.274-0.12,0.483-0.29,0.628-0.51c0.146-0.22,0.218-0.455,0.218-0.704
			c0-0.254-0.059-0.467-0.178-0.639c-0.119-0.172-0.283-0.302-0.492-0.392s-0.578-0.206-1.106-0.347
			c-0.365-0.099-0.585-0.163-0.66-0.191c-0.13-0.052-0.225-0.119-0.286-0.199c-0.061-0.077-0.092-0.165-0.092-0.261
			c0-0.153,0.074-0.285,0.22-0.399c0.147-0.113,0.392-0.17,0.735-0.17c0.29,0,0.515,0.064,0.674,0.191
			c0.159,0.127,0.256,0.304,0.289,0.531l0.73-0.1c-0.047-0.284-0.132-0.512-0.257-0.682s-0.318-0.305-0.579-0.405
			c-0.261-0.1-0.565-0.149-0.911-0.149c-0.23,0-0.445,0.029-0.645,0.089c-0.201,0.059-0.359,0.132-0.476,0.218
			c-0.155,0.111-0.277,0.25-0.367,0.417c-0.09,0.167-0.135,0.349-0.135,0.546c0,0.216,0.055,0.413,0.164,0.591
			c0.109,0.179,0.27,0.318,0.482,0.419c0.211,0.101,0.591,0.221,1.139,0.359c0.407,0.103,0.661,0.187,0.764,0.253
			c0.146,0.097,0.22,0.23,0.22,0.399c0,0.188-0.083,0.352-0.25,0.492c-0.166,0.14-0.42,0.209-0.763,0.209
			c-0.341,0-0.605-0.079-0.795-0.236c-0.19-0.158-0.305-0.385-0.347-0.681l-0.738,0.116
			C123.553,66.5018,123.744,66.8548,124.045,67.0928 M119.795,67.0928c0.3,0.238,0.736,0.357,1.309,0.357
			c0.346,0,0.656-0.061,0.93-0.181c0.274-0.12,0.483-0.29,0.628-0.51c0.146-0.22,0.218-0.455,0.218-0.704
			c0-0.254-0.059-0.467-0.178-0.639c-0.119-0.172-0.283-0.302-0.492-0.392s-0.578-0.206-1.106-0.347
			c-0.365-0.099-0.585-0.163-0.66-0.191c-0.13-0.052-0.225-0.119-0.286-0.199c-0.061-0.077-0.092-0.165-0.092-0.261
			c0-0.153,0.074-0.285,0.22-0.399c0.147-0.113,0.392-0.17,0.735-0.17c0.29,0,0.515,0.064,0.674,0.191
			c0.159,0.127,0.256,0.304,0.289,0.531l0.73-0.1c-0.047-0.284-0.132-0.512-0.257-0.682s-0.318-0.305-0.579-0.405
			c-0.261-0.1-0.565-0.149-0.911-0.149c-0.23,0-0.445,0.029-0.645,0.089c-0.201,0.059-0.359,0.132-0.476,0.218
			c-0.155,0.111-0.277,0.25-0.367,0.417c-0.09,0.167-0.135,0.349-0.135,0.546c0,0.216,0.055,0.413,0.164,0.591
			c0.109,0.179,0.27,0.318,0.482,0.419c0.211,0.101,0.591,0.221,1.139,0.359c0.407,0.103,0.661,0.187,0.764,0.253
			c0.146,0.097,0.22,0.23,0.22,0.399c0,0.188-0.083,0.352-0.25,0.492c-0.166,0.14-0.42,0.209-0.763,0.209
			c-0.341,0-0.605-0.079-0.795-0.236c-0.19-0.158-0.305-0.385-0.347-0.681l-0.738,0.116
			C119.303,66.5018,119.494,66.8548,119.795,67.0928 M115.744,63.8008c0.234-0.229,0.522-0.344,0.865-0.344
			c0.379,0,0.688,0.144,0.926,0.432c0.155,0.185,0.249,0.463,0.282,0.834h-2.461C115.381,64.3378,115.51,64.0308,115.744,63.8008
			 M117.348,66.6198c-0.194,0.143-0.428,0.215-0.702,0.215c-0.368,0-0.675-0.128-0.921-0.386c-0.246-0.257-0.383-0.628-0.411-1.112
			h3.287c0.003-0.088,0.004-0.155,0.004-0.199c0-0.728-0.186-1.292-0.56-1.694c-0.373-0.401-0.855-0.601-1.444-0.601
			c-0.609,0-1.104,0.204-1.486,0.614c-0.382,0.409-0.573,0.985-0.573,1.726c0,0.717,0.189,1.274,0.567,1.671
			c0.377,0.397,0.889,0.596,1.533,0.596c0.512,0,0.933-0.125,1.262-0.374c0.329-0.249,0.555-0.599,0.677-1.05l-0.772-0.095
			C117.695,66.2458,117.542,66.4758,117.348,66.6198 M110.811,67.3498v-2.407c0-0.565,0.115-0.948,0.347-1.15
			c0.231-0.202,0.505-0.303,0.823-0.303c0.2,0,0.373,0.045,0.521,0.135c0.148,0.09,0.251,0.21,0.309,0.361
			c0.059,0.151,0.088,0.379,0.088,0.683v2.681h0.747v-2.71c0-0.346-0.014-0.588-0.042-0.727c-0.044-0.213-0.122-0.397-0.232-0.552
			c-0.111-0.154-0.278-0.28-0.5-0.375c-0.223-0.096-0.467-0.143-0.733-0.143c-0.611,0-1.079,0.242-1.403,0.726v-0.627h-0.672v4.408
			H110.811z M108.927,62.9418h-0.747v4.408h0.747V62.9418z M108.927,61.2658h-0.747v0.859h0.747V61.2658z M104.201,67.0928
			c0.301,0.238,0.737,0.357,1.31,0.357c0.346,0,0.656-0.061,0.93-0.181s0.483-0.29,0.628-0.51c0.146-0.22,0.218-0.455,0.218-0.704
			c0-0.254-0.059-0.467-0.178-0.639s-0.283-0.302-0.492-0.392c-0.209-0.09-0.578-0.206-1.106-0.347
			c-0.365-0.099-0.585-0.163-0.66-0.191c-0.13-0.052-0.226-0.119-0.286-0.199c-0.061-0.077-0.092-0.165-0.092-0.261
			c0-0.153,0.074-0.285,0.22-0.399c0.147-0.113,0.392-0.17,0.735-0.17c0.29,0,0.515,0.064,0.674,0.191
			c0.159,0.127,0.256,0.304,0.289,0.531l0.73-0.1c-0.047-0.284-0.133-0.512-0.257-0.682c-0.125-0.17-0.318-0.305-0.579-0.405
			c-0.261-0.1-0.565-0.149-0.911-0.149c-0.23,0-0.445,0.029-0.645,0.089c-0.201,0.059-0.359,0.132-0.476,0.218
			c-0.155,0.111-0.277,0.25-0.367,0.417c-0.09,0.167-0.135,0.349-0.135,0.546c0,0.216,0.055,0.413,0.164,0.591
			c0.109,0.179,0.27,0.318,0.482,0.419c0.211,0.101,0.591,0.221,1.139,0.359c0.407,0.103,0.661,0.187,0.764,0.253
			c0.146,0.097,0.219,0.23,0.219,0.399c0,0.188-0.083,0.352-0.249,0.492s-0.42,0.209-0.763,0.209c-0.341,0-0.606-0.079-0.795-0.236
			c-0.19-0.158-0.305-0.385-0.347-0.681l-0.738,0.116C103.71,66.5018,103.901,66.8548,104.201,67.0928 M102.755,67.3498v-4.408
			h-0.747v2.362c0,0.376-0.041,0.663-0.122,0.861c-0.082,0.198-0.221,0.354-0.418,0.469c-0.196,0.115-0.406,0.172-0.63,0.172
			c-0.225,0-0.413-0.056-0.565-0.168s-0.252-0.266-0.299-0.463c-0.03-0.135-0.045-0.398-0.045-0.788v-2.445h-0.747v2.731
			c0,0.318,0.015,0.551,0.045,0.698c0.044,0.218,0.121,0.403,0.231,0.554c0.109,0.15,0.276,0.276,0.502,0.375
			c0.225,0.1,0.468,0.15,0.728,0.15c0.59,0,1.056-0.249,1.399-0.747v0.647H102.755z M95.509,63.8818
			c0.237-0.283,0.52-0.425,0.846-0.425c0.324,0,0.6,0.137,0.828,0.411c0.228,0.274,0.343,0.699,0.343,1.274
			c0,0.562-0.119,0.984-0.357,1.268c-0.238,0.284-0.521,0.425-0.847,0.425c-0.401,0-0.719-0.192-0.955-0.577
			c-0.144-0.235-0.215-0.617-0.215-1.145C95.152,64.5758,95.271,64.1658,95.509,63.8818 M95.16,66.7978
			c0.296,0.434,0.704,0.652,1.224,0.652c0.523,0,0.971-0.206,1.345-0.619c0.374-0.412,0.56-0.996,0.56-1.751
			c0-0.318-0.044-0.617-0.133-0.897c-0.088-0.279-0.211-0.518-0.367-0.716c-0.156-0.197-0.355-0.351-0.598-0.46
			c-0.242-0.11-0.498-0.164-0.769-0.164c-0.49,0-0.893,0.198-1.208,0.593v-2.17h-0.747v6.084h0.693V66.7978z M90.018,67.3498v-2.308
			c0-0.315,0.041-0.606,0.124-0.871c0.055-0.175,0.148-0.311,0.278-0.409c0.13-0.098,0.277-0.147,0.44-0.147
			c0.183,0,0.365,0.054,0.548,0.162l0.257-0.694c-0.26-0.16-0.516-0.24-0.768-0.24c-0.174,0-0.334,0.049-0.479,0.149
			c-0.145,0.1-0.304,0.306-0.475,0.618v-0.668H89.27v4.408H90.018z M88.108,67.3498v-4.408h-0.747v2.362
			c0,0.376-0.041,0.663-0.122,0.861c-0.082,0.198-0.221,0.354-0.417,0.469c-0.197,0.115-0.407,0.172-0.631,0.172
			s-0.412-0.056-0.565-0.168c-0.152-0.112-0.251-0.266-0.298-0.463c-0.031-0.135-0.046-0.398-0.046-0.788v-2.445h-0.747v2.731
			c0,0.318,0.015,0.551,0.046,0.698c0.044,0.218,0.121,0.403,0.23,0.554c0.109,0.15,0.277,0.276,0.502,0.375
			c0.226,0.1,0.468,0.15,0.728,0.15c0.59,0,1.056-0.249,1.399-0.747v0.647H88.108z M80.683,63.8798
			c0.247-0.279,0.556-0.419,0.93-0.419c0.368,0,0.676,0.141,0.923,0.421c0.248,0.281,0.372,0.694,0.372,1.239
			c0,0.579-0.123,1.009-0.369,1.291c-0.247,0.282-0.555,0.423-0.926,0.423c-0.374,0-0.683-0.14-0.93-0.421
			c-0.246-0.281-0.369-0.703-0.369-1.268C80.314,64.5818,80.437,64.1598,80.683,63.8798 M80.117,66.8558
			c0.38,0.396,0.879,0.594,1.496,0.594c0.385,0,0.739-0.09,1.065-0.27c0.325-0.18,0.572-0.432,0.742-0.758
			c0.171-0.325,0.256-0.771,0.256-1.338c0-0.7-0.193-1.249-0.577-1.646c-0.385-0.397-0.88-0.595-1.486-0.595
			c-0.545,0-1.007,0.163-1.386,0.489c-0.454,0.393-0.681,0.998-0.681,1.814C79.546,65.8898,79.736,66.4598,80.117,66.8558
			 M76.022,69.1388c0.238,0,0.443-0.058,0.615-0.172c0.171-0.115,0.323-0.296,0.456-0.542c0.1-0.183,0.24-0.516,0.419-1l1.677-4.483
			h-0.747l-0.942,2.569c-0.119,0.327-0.221,0.662-0.307,1.005c-0.094-0.357-0.201-0.697-0.32-1.021l-0.917-2.553h-0.805l1.672,4.416
			c-0.03,0.081-0.052,0.141-0.066,0.183c-0.105,0.296-0.181,0.481-0.228,0.556c-0.064,0.1-0.145,0.177-0.245,0.232
			c-0.1,0.056-0.233,0.083-0.399,0.083c-0.121,0-0.264-0.022-0.427-0.066l0.083,0.702C75.718,69.1078,75.879,69.1388,76.022,69.1388
			 M69.438,63.8008c0.234-0.229,0.522-0.344,0.865-0.344c0.379,0,0.688,0.144,0.926,0.432c0.155,0.185,0.249,0.463,0.282,0.834
			H69.05C69.075,64.3378,69.204,64.0308,69.438,63.8008 M71.042,66.6198c-0.194,0.143-0.428,0.215-0.701,0.215
			c-0.368,0-0.676-0.128-0.922-0.386c-0.246-0.257-0.383-0.628-0.411-1.112h3.287c0.003-0.088,0.005-0.155,0.005-0.199
			c0-0.728-0.187-1.292-0.561-1.694c-0.373-0.401-0.855-0.601-1.444-0.601c-0.609,0-1.104,0.204-1.486,0.614
			c-0.382,0.409-0.573,0.985-0.573,1.726c0,0.717,0.189,1.274,0.567,1.671c0.378,0.397,0.889,0.596,1.533,0.596
			c0.512,0,0.933-0.125,1.262-0.374c0.329-0.249,0.555-0.599,0.677-1.05l-0.772-0.095C71.389,66.2458,71.236,66.4758,71.042,66.6198
			 M67.427,66.7108c-0.111,0-0.196-0.018-0.255-0.054c-0.06-0.036-0.103-0.084-0.129-0.145c-0.026-0.061-0.039-0.198-0.039-0.411
			v-2.578h0.751v-0.581h-0.751v-1.54l-0.743,0.449v1.091h-0.548v0.581h0.548v2.536c0,0.448,0.03,0.743,0.091,0.882
			c0.061,0.14,0.166,0.253,0.315,0.338c0.15,0.086,0.36,0.129,0.631,0.129c0.166,0,0.354-0.022,0.565-0.066l-0.108-0.66
			C67.619,66.7008,67.51,66.7108,67.427,66.7108 M64.21,65.4118c0,0.329-0.04,0.578-0.12,0.747c-0.105,0.218-0.27,0.391-0.494,0.517
			c-0.224,0.126-0.48,0.188-0.768,0.188c-0.29,0-0.511-0.066-0.662-0.199c-0.15-0.133-0.226-0.299-0.226-0.498
			c0-0.13,0.035-0.248,0.104-0.355c0.069-0.106,0.167-0.187,0.295-0.243c0.127-0.055,0.344-0.105,0.651-0.149
			c0.542-0.077,0.949-0.171,1.22-0.282V65.4118z M64.422,67.3498h0.78c-0.094-0.169-0.157-0.345-0.188-0.529
			c-0.032-0.184-0.048-0.623-0.048-1.318v-0.996c0-0.332-0.013-0.562-0.038-0.689c-0.044-0.205-0.121-0.374-0.232-0.508
			c-0.111-0.135-0.284-0.246-0.519-0.335c-0.235-0.088-0.541-0.132-0.917-0.132c-0.379,0-0.713,0.052-1,0.155
			c-0.288,0.104-0.508,0.252-0.66,0.444c-0.152,0.193-0.262,0.445-0.328,0.758l0.73,0.099c0.081-0.312,0.204-0.53,0.372-0.653
			c0.167-0.123,0.427-0.185,0.778-0.185c0.376,0,0.66,0.085,0.851,0.253c0.141,0.125,0.212,0.339,0.212,0.644
			c0,0.027-0.002,0.092-0.005,0.195c-0.285,0.099-0.729,0.185-1.332,0.257c-0.296,0.036-0.517,0.073-0.664,0.112
			c-0.199,0.055-0.378,0.137-0.537,0.245c-0.16,0.108-0.288,0.251-0.386,0.429c-0.099,0.179-0.148,0.376-0.148,0.592
			c0,0.368,0.13,0.67,0.39,0.907c0.26,0.236,0.633,0.355,1.117,0.355c0.293,0,0.568-0.049,0.824-0.146
			c0.256-0.096,0.522-0.262,0.799-0.498C64.295,67.0138,64.345,67.1948,64.422,67.3498 M60.259,62.9418h-0.747v4.408h0.747V62.9418z
			 M60.259,61.2658h-0.747v0.859h0.747V61.2658z M57.761,66.5658c-0.197,0.179-0.442,0.269-0.735,0.269
			c-0.365,0-0.661-0.134-0.888-0.402c-0.227-0.269-0.34-0.699-0.34-1.291c0-0.584,0.117-1.011,0.352-1.28
			c0.236-0.27,0.541-0.405,0.918-0.405c0.249,0,0.461,0.075,0.637,0.224c0.175,0.149,0.298,0.372,0.367,0.668l0.726-0.112
			c-0.085-0.445-0.281-0.789-0.585-1.031c-0.304-0.242-0.696-0.363-1.174-0.363c-0.38,0-0.73,0.089-1.053,0.267
			c-0.322,0.179-0.562,0.447-0.72,0.803c-0.157,0.357-0.236,0.774-0.236,1.25c0,0.736,0.183,1.301,0.55,1.695
			c0.366,0.394,0.851,0.592,1.454,0.592c0.482,0,0.888-0.144,1.219-0.43c0.33-0.286,0.536-0.683,0.616-1.189l-0.735-0.096
			C58.082,66.1088,57.957,66.3858,57.761,66.5658 M51.483,63.8008c0.234-0.229,0.522-0.344,0.866-0.344
			c0.379,0,0.687,0.144,0.925,0.432c0.155,0.185,0.249,0.463,0.282,0.834h-2.461C51.12,64.3378,51.249,64.0308,51.483,63.8008
			 M53.087,66.6198c-0.193,0.143-0.427,0.215-0.701,0.215c-0.368,0-0.675-0.128-0.921-0.386c-0.247-0.257-0.384-0.628-0.411-1.112
			h3.287c0.003-0.088,0.004-0.155,0.004-0.199c0-0.728-0.187-1.292-0.56-1.694c-0.374-0.401-0.855-0.601-1.445-0.601
			c-0.608,0-1.104,0.204-1.486,0.614c-0.381,0.409-0.572,0.985-0.572,1.726c0,0.717,0.189,1.274,0.566,1.671
			c0.378,0.397,0.889,0.596,1.534,0.596c0.512,0,0.932-0.125,1.262-0.374c0.329-0.249,0.554-0.599,0.676-1.05l-0.772-0.095
			C53.435,66.2458,53.281,66.4758,53.087,66.6198 M48.439,67.3498v-2.308c0-0.315,0.041-0.606,0.124-0.871
			c0.056-0.175,0.148-0.311,0.279-0.409c0.13-0.098,0.276-0.147,0.439-0.147c0.183,0,0.366,0.054,0.548,0.162l0.258-0.694
			c-0.26-0.16-0.516-0.24-0.768-0.24c-0.175,0-0.334,0.049-0.48,0.149c-0.145,0.1-0.303,0.306-0.475,0.618v-0.668h-0.672v4.408
			H48.439z M44.017,63.8738c0.245-0.297,0.526-0.446,0.844-0.446c0.321,0,0.597,0.14,0.828,0.419c0.231,0.28,0.347,0.7,0.347,1.262
			c0,0.589-0.118,1.024-0.355,1.305c-0.237,0.281-0.521,0.421-0.853,0.421c-0.326,0-0.605-0.135-0.834-0.406
			c-0.23-0.272-0.345-0.691-0.345-1.258C43.649,64.6038,43.772,64.1718,44.017,63.8738 M43.72,69.0388v-2.146
			c0.127,0.161,0.29,0.294,0.488,0.399c0.197,0.105,0.421,0.158,0.67,0.158c0.34,0,0.665-0.097,0.973-0.289
			c0.309-0.192,0.544-0.469,0.706-0.83c0.162-0.361,0.243-0.767,0.243-1.218c0-0.421-0.074-0.807-0.22-1.16
			c-0.147-0.353-0.364-0.626-0.652-0.82c-0.288-0.193-0.62-0.29-0.996-0.29c-0.288,0-0.533,0.056-0.735,0.168
			s-0.383,0.28-0.543,0.504v-0.573h-0.681v6.097H43.72z M39.289,63.8738c0.245-0.297,0.527-0.446,0.845-0.446
			c0.321,0,0.597,0.14,0.828,0.419c0.231,0.28,0.347,0.7,0.347,1.262c0,0.589-0.119,1.024-0.355,1.305
			c-0.237,0.281-0.521,0.421-0.853,0.421c-0.327,0-0.605-0.135-0.834-0.406c-0.23-0.272-0.345-0.691-0.345-1.258
			C38.922,64.6038,39.045,64.1718,39.289,63.8738 M38.993,69.0388v-2.146c0.127,0.161,0.289,0.294,0.487,0.399
			c0.198,0.105,0.422,0.158,0.671,0.158c0.34,0,0.664-0.097,0.973-0.289c0.308-0.192,0.544-0.469,0.705-0.83
			c0.162-0.361,0.243-0.767,0.243-1.218c0-0.421-0.073-0.807-0.22-1.16c-0.146-0.353-0.364-0.626-0.651-0.82
			c-0.288-0.193-0.62-0.29-0.996-0.29c-0.288,0-0.533,0.056-0.735,0.168s-0.383,0.28-0.544,0.504v-0.573h-0.68v6.097H38.993z
			 M36.332,65.4118c0,0.329-0.04,0.578-0.12,0.747c-0.105,0.218-0.27,0.391-0.494,0.517c-0.224,0.126-0.48,0.188-0.768,0.188
			c-0.29,0-0.511-0.066-0.662-0.199c-0.151-0.133-0.226-0.299-0.226-0.498c0-0.13,0.035-0.248,0.104-0.355
			c0.069-0.106,0.167-0.187,0.294-0.243c0.128-0.055,0.345-0.105,0.652-0.149c0.542-0.077,0.949-0.171,1.22-0.282V65.4118z
			 M36.544,67.3498h0.78c-0.094-0.169-0.157-0.345-0.189-0.529c-0.032-0.184-0.047-0.623-0.047-1.318v-0.996
			c0-0.332-0.013-0.562-0.038-0.689c-0.044-0.205-0.122-0.374-0.232-0.508c-0.111-0.135-0.284-0.246-0.519-0.335
			c-0.235-0.088-0.541-0.132-0.917-0.132c-0.379,0-0.713,0.052-1,0.155c-0.288,0.104-0.508,0.252-0.66,0.444
			c-0.153,0.193-0.262,0.445-0.328,0.758l0.73,0.099c0.08-0.312,0.204-0.53,0.372-0.653c0.167-0.123,0.426-0.185,0.778-0.185
			c0.376,0,0.66,0.085,0.851,0.253c0.141,0.125,0.211,0.339,0.211,0.644c0,0.027-0.001,0.092-0.004,0.195
			c-0.285,0.099-0.729,0.185-1.332,0.257c-0.296,0.036-0.517,0.073-0.664,0.112c-0.199,0.055-0.379,0.137-0.538,0.245
			c-0.159,0.108-0.287,0.251-0.386,0.429c-0.098,0.179-0.147,0.376-0.147,0.592c0,0.368,0.13,0.67,0.39,0.907
			c0.26,0.236,0.632,0.355,1.117,0.355c0.293,0,0.568-0.049,0.824-0.146c0.255-0.096,0.522-0.262,0.798-0.498
			C36.417,67.0138,36.466,67.1948,36.544,67.3498 M27.382,63.8008c0.234-0.229,0.522-0.344,0.865-0.344
			c0.379,0,0.688,0.144,0.926,0.432c0.155,0.185,0.249,0.463,0.282,0.834h-2.461C27.019,64.3378,27.148,64.0308,27.382,63.8008
			 M28.986,66.6198c-0.194,0.143-0.427,0.215-0.701,0.215c-0.368,0-0.676-0.128-0.922-0.386c-0.246-0.257-0.383-0.628-0.411-1.112
			h3.287c0.003-0.088,0.005-0.155,0.005-0.199c0-0.728-0.187-1.292-0.561-1.694c-0.373-0.401-0.855-0.601-1.444-0.601
			c-0.609,0-1.104,0.204-1.486,0.614c-0.382,0.409-0.573,0.985-0.573,1.726c0,0.717,0.189,1.274,0.567,1.671
			c0.378,0.397,0.889,0.596,1.533,0.596c0.512,0,0.933-0.125,1.262-0.374c0.329-0.249,0.555-0.599,0.677-1.05l-0.772-0.095
			C29.333,66.2458,29.18,66.4758,28.986,66.6198 M20.54,67.3498l1.291-4.636c0.055-0.196,0.115-0.434,0.178-0.714
			c0.02,0.089,0.083,0.327,0.191,0.714l1.283,4.636h0.776l1.668-6.084h-0.809l-0.955,3.909c-0.124,0.498-0.225,0.94-0.303,1.324
			c-0.097-0.672-0.254-1.39-0.473-2.154l-0.871-3.079h-0.972l-1.158,4.108c-0.027,0.1-0.119,0.475-0.273,1.125
			c-0.072-0.412-0.158-0.827-0.258-1.245l-0.925-3.988h-0.826l1.614,6.084H20.54z"/>
		<path class="st2" d="M162.3293,48.0101c-0.605,0-1.033,0.44-1.033,1.045c0,0.604,0.428,1.044,1.033,1.044
			c0.604,0,1.055-0.44,1.055-1.044C163.3843,48.4501,162.9333,48.0101,162.3293,48.0101 M155.9933,46.2161
			c0,1.2,1.001,1.563,1.825,1.739c0.925,0.209,1.222,0.253,1.222,0.561s-0.33,0.418-0.737,0.418c-0.782,0-1.375-0.275-1.738-0.715
			l-0.847,1.1c0.484,0.615,1.385,0.912,2.442,0.912c1.463,0,2.375-0.527,2.375-1.792c0-1.155-0.802-1.53-1.759-1.728
			c-0.98-0.209-1.277-0.275-1.277-0.55c0-0.253,0.231-0.385,0.705-0.385c0.583,0,1.177,0.22,1.485,0.561l0.813-1.055
			c-0.483-0.495-1.176-0.814-2.188-0.814C156.8623,44.4681,155.9933,45.1061,155.9933,46.2161 M153.3653,44.6001v2.629
			c0,0.957-0.364,1.606-1.189,1.606c-0.65,0-0.925-0.385-0.925-1.177v-3.058h-1.483v3.421c0,1.353,0.626,2.21,1.901,2.21
			c0.837,0,1.365-0.407,1.751-0.967v0.835h1.406v-5.499H153.3653z M140.2533,42.4001v7.699h1.45v-2.629
			c0-0.979,0.364-1.606,1.2-1.606c0.649,0,1.002,0.396,1.002,1.188v3.047h1.483v-3.41c0-1.396-0.659-2.221-1.946-2.221
			c-0.825,0-1.375,0.363-1.739,0.923v-2.991H140.2533z M139.2173,48.6151c-0.396,0.077-0.583,0.088-0.803,0.088
			c-0.385,0-0.55-0.143-0.55-0.495v-2.388h1.397v-1.22h-1.397v-1.474h-1.45v1.474h-1.001v1.22h1.001v2.597
			c0,1.264,0.593,1.737,1.615,1.737c0.363,0,0.781-0.066,1.188-0.165V48.6151z M133.1143,50.0991h1.451v-5.499h-1.451V50.0991z
			 M132.9163,43.0271c0,0.527,0.396,0.923,0.923,0.923c0.528,0,0.934-0.396,0.934-0.923c0-0.528-0.406-0.935-0.934-0.935
			C133.3123,42.0921,132.9163,42.4991,132.9163,43.0271 M126.3373,50.0991l1.386-3.266l1.375,3.266h1.1l2.233-5.499h-1.584
			l-1.221,3.278l-1.32-3.278h-1.177l-1.309,3.278l-1.232-3.278h-1.584l2.233,5.499H126.3373z M117.8243,50.0991h1.462v-7.699h-1.462
			V50.0991z M115.0963,50.0991h1.462v-7.699h-1.462V50.0991z M112.2913,50.0991h1.451v-5.499h-1.451V50.0991z M112.0933,43.0271
			c0,0.527,0.396,0.923,0.924,0.923c0.527,0,0.934-0.396,0.934-0.923c0-0.528-0.407-0.935-0.934-0.935
			C112.4893,42.0921,112.0933,42.4991,112.0933,43.0271 M109.7833,47.3501c0,0.891-0.616,1.474-1.441,1.474
			c-0.826,0-1.442-0.561-1.442-1.474c0-0.925,0.616-1.475,1.442-1.475C109.1673,45.8751,109.7833,46.4581,109.7833,47.3501
			 M105.4933,42.4001v7.699h1.451v-0.769c0.396,0.56,1.023,0.912,1.827,0.912c1.364,0,2.507-1.044,2.507-2.892
			c0-1.849-1.132-2.893-2.485-2.893c-0.87,0-1.464,0.407-1.849,0.934v-2.991H105.4933z M99.6423,50.0991h1.462v-7.699h-1.462
			V50.0991z M94.6243,46.4911c0.198-0.517,0.804-0.704,1.376-0.704c0.66,0,0.958,0.231,0.958,0.55v0.088
			c0,0.121-0.099,0.198-0.287,0.22l-1.508,0.132c-1.011,0.088-1.758,0.738-1.758,1.728c0,1.012,0.769,1.715,1.857,1.715
			c0.87,0,1.398-0.418,1.696-0.857v0.747h1.45v-3.399c0-1.539-0.791-2.232-2.408-2.232c-1.2,0-2.09,0.407-2.453,1.242
			L94.6243,46.4911z M96.9583,47.8781c0,0.605-0.496,1.133-1.266,1.133c-0.518,0-0.782-0.231-0.782-0.583
			c0-0.308,0.231-0.528,0.683-0.605l1.365-0.165V47.8781z M88.6953,44.6001h-1.406v5.499h1.45v-2.629c0-0.979,0.353-1.606,1.2-1.606
			c0.616,0,1.002,0.352,1.002,1.188v3.047h1.483v-3.41c0-1.396-0.659-2.221-1.946-2.221c-0.803,0-1.397,0.385-1.783,0.923V44.6001z
			 M83.5483,45.8201v-1.22h-1.563v-0.121c0-0.573,0.199-0.848,0.782-0.848c0.253,0,0.495,0.033,0.836,0.088v-1.341
			c-0.363-0.055-0.671-0.099-1.078-0.099c-1.133,0-1.99,0.616-1.99,2.046v0.275h-1.111v1.22h1.111v4.279h1.45v-4.279H83.5483z
			 M84.4843,50.0991h1.451v-5.499h-1.451V50.0991z M84.2863,43.0271c0,0.527,0.396,0.923,0.923,0.923
			c0.528,0,0.934-0.396,0.934-0.923c0-0.528-0.406-0.935-0.934-0.935C84.6823,42.0921,84.2863,42.4991,84.2863,43.0271
			 M73.9893,44.6001h-1.396v5.499h1.451v-2.486c0-1.056,0.418-1.595,1.386-1.595c0.231,0,0.451,0.011,0.66,0.088v-1.561
			c-0.176-0.044-0.33-0.077-0.539-0.077c-0.781,0-1.265,0.385-1.562,1.033V44.6001z M69.8323,44.6001v2.629
			c0,0.957-0.363,1.606-1.189,1.606c-0.649,0-0.924-0.385-0.924-1.177v-3.058h-1.484v3.421c0,1.353,0.627,2.21,1.902,2.21
			c0.837,0,1.365-0.407,1.75-0.967v0.835h1.407v-5.499H69.8323z M63.8043,47.3501c0,0.88-0.627,1.463-1.463,1.463
			c-0.837,0-1.464-0.583-1.464-1.463c0-0.881,0.627-1.464,1.464-1.464C63.1773,45.8861,63.8043,46.4691,63.8043,47.3501
			 M59.3823,47.3501c0,1.716,1.264,2.881,2.959,2.881c1.694,0,2.958-1.165,2.958-2.881c0-1.717-1.264-2.882-2.958-2.882
			C60.6463,44.4681,59.3823,45.6331,59.3823,47.3501 M55.9723,52.2991l3.465-7.699h-1.54l-1.353,3.014l-1.408-3.014h-1.694
			l2.332,4.708l-1.342,2.991H55.9723z M45.7423,46.2161c0,1.2,1,1.563,1.825,1.739c0.925,0.209,1.222,0.253,1.222,0.561
			s-0.33,0.418-0.737,0.418c-0.782,0-1.376-0.275-1.738-0.715l-0.847,1.1c0.484,0.615,1.385,0.912,2.441,0.912
			c1.464,0,2.376-0.527,2.376-1.792c0-1.155-0.802-1.53-1.759-1.728c-0.98-0.209-1.277-0.275-1.277-0.55
			c0-0.253,0.231-0.385,0.704-0.385c0.584,0,1.178,0.22,1.486,0.561l0.813-1.055c-0.484-0.495-1.176-0.814-2.188-0.814
			C46.6103,44.4681,45.7423,45.1061,45.7423,46.2161 M43.2563,50.0991h1.451v-5.499h-1.451V50.0991z M43.0583,43.0271
			c0,0.527,0.396,0.923,0.924,0.923c0.527,0,0.934-0.396,0.934-0.923c0-0.528-0.407-0.935-0.934-0.935
			C43.4543,42.0921,43.0583,42.4991,43.0583,43.0271 M34.8083,46.2161c0,1.2,1,1.563,1.825,1.739
			c0.925,0.209,1.222,0.253,1.222,0.561s-0.33,0.418-0.737,0.418c-0.782,0-1.376-0.275-1.738-0.715l-0.847,1.1
			c0.484,0.615,1.385,0.912,2.441,0.912c1.464,0,2.376-0.527,2.376-1.792c0-1.155-0.802-1.53-1.759-1.728
			c-0.98-0.209-1.277-0.275-1.277-0.55c0-0.253,0.231-0.385,0.704-0.385c0.584,0,1.178,0.22,1.486,0.561l0.813-1.055
			c-0.484-0.495-1.176-0.814-2.188-0.814C35.6763,44.4681,34.8083,45.1061,34.8083,46.2161 M32.3223,50.0991h1.451v-5.499h-1.451
			V50.0991z M32.1243,43.0271c0,0.527,0.396,0.923,0.924,0.923c0.527,0,0.934-0.396,0.934-0.923c0-0.528-0.407-0.935-0.934-0.935
			C32.5203,42.0921,32.1243,42.4991,32.1243,43.0271 M25.8543,42.4001v7.699h1.451v-2.629c0-0.979,0.363-1.606,1.2-1.606
			c0.649,0,1.001,0.396,1.001,1.188v3.047h1.484v-3.41c0-1.396-0.659-2.221-1.946-2.221c-0.826,0-1.376,0.363-1.739,0.923v-2.991
			H25.8543z M25.1603,43.9391v-1.539h-7.105v1.539h2.783v6.16h1.539v-6.16H25.1603z"/>
		<path class="st3" d="M105.191,23.3998v4.374c0,1.368-0.648,2.052-1.566,2.052c-0.702,0-1.188-0.396-1.188-1.602v-4.824h-2.952
			v5.76c0,2.232,1.116,3.456,2.988,3.456c1.368,0,2.268-0.756,2.826-1.62v1.404h2.79v-9H105.191z M94.913,27.8998
			c0,1.206-0.918,1.89-1.962,1.89s-1.962-0.684-1.962-1.89s0.918-1.89,1.962-1.89S94.913,26.6938,94.913,27.8998 M88.037,27.8998
			c0,2.88,2.106,4.716,4.914,4.716s4.914-1.836,4.914-4.716s-2.106-4.716-4.914-4.716S88.037,25.0198,88.037,27.8998
			 M82.457,35.9998l5.58-12.6h-3.042l-1.89,4.284l-1.944-4.284h-3.294l3.744,7.65l-2.178,4.95H82.457z M68.688,32.3998h3.672
			l-3.87-5.148l3.888-3.852h-3.744l-2.754,2.934v-6.534H63v12.6h2.88v-2.574l0.684-0.666L68.688,32.3998z M54.918,23.3998H52.11v9
			h2.88v-4.374c0-1.368,0.612-2.052,1.566-2.052c0.864,0,1.368,0.45,1.368,1.656v4.77h2.916v-5.76c0-2.232-1.044-3.456-3.042-3.456
			c-1.404,0-2.322,0.756-2.88,1.566V23.3998z M43.56,26.6938c0.432-0.72,1.458-0.882,2.196-0.882c0.918,0,1.314,0.216,1.314,0.558
			v0.072c0,0.162-0.126,0.252-0.396,0.288l-2.43,0.216c-1.674,0.144-2.862,1.206-2.862,2.844c0,1.71,1.332,2.808,3.024,2.808
			c1.458,0,2.286-0.738,2.664-1.368v1.188h2.88v-5.364c0-2.736-1.422-3.852-4.14-3.852c-1.854,0-3.546,0.558-4.266,1.908
			L43.56,26.6938z M47.07,28.7638c0,0.918-0.684,1.566-1.692,1.566c-0.666,0-1.026-0.27-1.026-0.756c0-0.432,0.306-0.684,0.9-0.756
			l1.818-0.216V28.7638z M31.032,19.7998v12.6h2.88v-4.374c0-1.368,0.612-2.052,1.566-2.052c0.864,0,1.368,0.45,1.368,1.656v4.77
			h2.916v-5.76c0-2.232-1.044-3.456-3.042-3.456c-1.386,0-2.25,0.684-2.808,1.566v-4.95H31.032z M29.772,22.8598v-3.06H18.09v3.06
			h4.32v9.54h3.06v-9.54H29.772z"/>
	</g>
	<path class="st4" d="M112.0628,158.9142h60.274 M112.0628,176.0352h60.274 M184.1288,103.1792v90.661h-83.858v-107h67.358"/>
	<polyline class="st4" points="160.1538,119 137.7558,139.75 124.2458,125.589 	"/>
	<polygon class="st4" points="167.9288,86.84 167.9288,103.04 184.1288,103.04 	"/>
</g>
</svg>
