<?xml version="1.0" encoding="utf-8"?>
<!-- Generator: Adobe Illustrator 20.1.0, SVG Export Plug-In . SVG Version: 6.00 Build 0)  -->
<svg version="1.1" id="Layer_1" xmlns="http://www.w3.org/2000/svg" xmlns:xlink="http://www.w3.org/1999/xlink" x="0px" y="0px"
	 viewBox="0 0 470 295" style="enable-background:new 0 0 470 295;" xml:space="preserve">
<style type="text/css">
	.st0{fill:#22A4C6;}
	.st1{clip-path:url(#SVGID_2_);fill:#FFFFFF;}
	
		.st2{clip-path:url(#SVGID_4_);fill:none;stroke:#FFFFFF;stroke-width:2.007;stroke-linecap:round;stroke-linejoin:round;stroke-miterlimit:10;}
	.st3{clip-path:url(#SVGID_4_);fill:none;stroke:#FFFFFF;stroke-width:2.007;stroke-linecap:round;stroke-miterlimit:10;}
	.st4{fill:#05A2C7;}
	.st5{fill:none;stroke:#FFFFFF;stroke-width:2.007;stroke-linecap:round;stroke-linejoin:round;stroke-miterlimit:10;}
	
		.st6{clip-path:url(#SVGID_6_);fill:none;stroke:#FFFFFF;stroke-width:2.007;stroke-linecap:round;stroke-linejoin:round;stroke-miterlimit:10;}
	
		.st7{clip-path:url(#SVGID_8_);fill:none;stroke:#FFFFFF;stroke-width:2.007;stroke-linecap:round;stroke-linejoin:round;stroke-miterlimit:10;}
	.st8{clip-path:url(#SVGID_8_);fill:none;stroke:#FFFFFF;stroke-width:2.007;stroke-linecap:round;stroke-miterlimit:10;}
	
		.st9{clip-path:url(#SVGID_10_);fill:none;stroke:#FFFFFF;stroke-width:2.007;stroke-linecap:round;stroke-linejoin:round;stroke-miterlimit:10;}
	.st10{clip-path:url(#SVGID_12_);fill:none;stroke:#FFFFFF;stroke-width:2.007;stroke-linecap:round;stroke-miterlimit:10;}
	
		.st11{clip-path:url(#SVGID_14_);fill:none;stroke:#FFFFFF;stroke-width:2.007;stroke-linecap:round;stroke-linejoin:round;stroke-miterlimit:10;}
	.st12{fill:#00506D;}
	
		.st13{clip-path:url(#SVGID_16_);fill:none;stroke:#FFFFFF;stroke-width:2.007;stroke-linecap:round;stroke-linejoin:round;stroke-miterlimit:10;}
</style>
<g>
	<rect class="st0" width="470" height="295"/>
	<g>
		<defs>
			<rect id="SVGID_1_" width="470" height="295"/>
		</defs>
		<clipPath id="SVGID_2_">
			<use xlink:href="#SVGID_1_"  style="overflow:visible;"/>
		</clipPath>
		<path class="st1" d="M216.694,116.53c-0.99,0-1.692,0.72-1.692,1.71s0.702,1.71,1.692,1.71c0.99,0,1.728-0.72,1.728-1.71
			S217.684,116.53,216.694,116.53 M206.056,113.596c0,1.962,1.638,2.556,2.988,2.844c1.512,0.342,1.998,0.414,1.998,0.918
			s-0.54,0.684-1.206,0.684c-1.278,0-2.25-0.45-2.844-1.17l-1.386,1.8c0.792,1.008,2.268,1.494,3.996,1.494
			c2.394,0,3.888-0.864,3.888-2.934c0-1.89-1.314-2.502-2.88-2.826c-1.602-0.342-2.088-0.45-2.088-0.9
			c0-0.414,0.378-0.63,1.152-0.63c0.954,0,1.926,0.36,2.43,0.918l1.332-1.728c-0.792-0.81-1.926-1.332-3.582-1.332
			C207.478,110.734,206.056,111.778,206.056,113.596 M197.974,114.442c0.234-1.08,0.972-1.692,2.124-1.692
			c1.152,0,1.8,0.702,1.926,1.692H197.974z M195.562,115.45c0,2.682,1.782,4.716,4.824,4.716c1.728,0,2.844-0.558,3.582-1.188
			l-0.99-1.962c-0.63,0.558-1.476,0.918-2.556,0.918c-1.062,0-2.124-0.522-2.412-1.728l-0.018-0.036h6.624v-0.648
			c0-2.898-1.692-4.788-4.446-4.788C197.344,110.734,195.562,112.786,195.562,115.45 M187.624,110.95h-2.304v9h2.376v-4.302
			c0-1.602,0.576-2.628,1.962-2.628c1.008,0,1.638,0.576,1.638,1.944v4.986h2.43v-5.58c0-2.286-1.08-3.636-3.186-3.636
			c-1.314,0-2.286,0.63-2.916,1.512V110.95z M180.46,119.95h2.376v-9h-2.376V119.95z M180.136,108.376
			c0,0.864,0.648,1.512,1.512,1.512s1.53-0.648,1.53-1.512s-0.666-1.53-1.53-1.53S180.136,107.512,180.136,108.376 M175.6,119.95
			h2.394v-12.6H175.6V119.95z M165.287,110.95h-2.286v9h2.376v-4.068c0-1.728,0.684-2.61,2.268-2.61c0.378,0,0.738,0.018,1.08,0.144
			v-2.556c-0.288-0.072-0.54-0.126-0.882-0.126c-1.278,0-2.07,0.63-2.556,1.692V110.95z M154.595,114.442
			c0.234-1.08,0.972-1.692,2.124-1.692c1.152,0,1.8,0.702,1.926,1.692H154.595z M152.183,115.45c0,2.682,1.782,4.716,4.824,4.716
			c1.728,0,2.844-0.558,3.582-1.188l-0.99-1.962c-0.63,0.558-1.476,0.918-2.556,0.918c-1.062,0-2.124-0.522-2.412-1.728
			l-0.018-0.036h6.624v-0.648c0-2.898-1.692-4.788-4.446-4.788C153.965,110.734,152.183,112.786,152.183,115.45 M142.013,119.95
			l2.268-5.346l2.25,5.346h1.8l3.654-9h-2.592l-1.998,5.364l-2.16-5.364h-1.926l-2.142,5.364l-2.016-5.364h-2.592l3.654,9H142.013z
			 M133.949,115.45c0,1.44-1.026,2.394-2.394,2.394s-2.394-0.954-2.394-2.394c0-1.44,1.026-2.394,2.394-2.394
			S133.949,114.01,133.949,115.45 M126.713,115.45c0,2.808,2.07,4.716,4.842,4.716s4.842-1.908,4.842-4.716
			c0-2.808-2.07-4.716-4.842-4.716S126.713,112.642,126.713,115.45 M118.379,123.55v-4.896c0.63,0.864,1.602,1.53,3.024,1.53
			c2.214,0,4.068-1.71,4.068-4.734c0-3.024-1.872-4.734-4.104-4.734c-1.314,0-2.34,0.576-2.988,1.494v-1.26h-2.376v12.6H118.379z
			 M120.665,117.862c-1.35,0-2.358-0.9-2.358-2.412c0-1.494,1.008-2.412,2.358-2.412s2.358,0.954,2.358,2.412
			C123.023,116.908,122.015,117.862,120.665,117.862 M105.887,107.35v4.896c-0.63-0.864-1.602-1.53-3.024-1.53
			c-2.214,0-4.068,1.71-4.068,4.734c0,3.024,1.872,4.734,4.104,4.734c1.314,0,2.34-0.576,2.988-1.494v1.26h2.376v-12.6H105.887z
			 M103.601,113.038c1.35,0,2.358,0.9,2.358,2.412c0,1.494-1.008,2.412-2.358,2.412s-2.358-0.954-2.358-2.412
			C101.243,113.992,102.251,113.038,103.601,113.038 M90.929,114.046c0.324-0.846,1.314-1.152,2.25-1.152
			c1.08,0,1.566,0.378,1.566,0.9v0.144c0,0.198-0.162,0.324-0.468,0.36l-2.466,0.216c-1.656,0.144-2.88,1.206-2.88,2.826
			c0,1.656,1.26,2.808,3.042,2.808c1.422,0,2.286-0.684,2.772-1.404v1.224h2.376v-5.562c0-2.52-1.296-3.654-3.942-3.654
			c-1.962,0-3.42,0.666-4.014,2.034L90.929,114.046z M94.745,116.314c0,0.99-0.81,1.854-2.07,1.854
			c-0.846,0-1.278-0.378-1.278-0.954c0-0.504,0.378-0.864,1.116-0.99l2.232-0.27V116.314z M81.047,114.442
			c0.234-1.08,0.972-1.692,2.124-1.692s1.8,0.702,1.926,1.692H81.047z M78.635,115.45c0,2.682,1.782,4.716,4.824,4.716
			c1.728,0,2.844-0.558,3.582-1.188l-0.99-1.962c-0.63,0.558-1.476,0.918-2.556,0.918c-1.062,0-2.124-0.522-2.412-1.728
			l-0.018-0.036h6.624v-0.648c0-2.898-1.692-4.788-4.446-4.788C80.417,110.734,78.635,112.786,78.635,115.45 M68.465,107.35v12.6
			h2.376v-4.302c0-1.602,0.594-2.628,1.962-2.628c1.062,0,1.638,0.648,1.638,1.944v4.986h2.43v-5.58c0-2.286-1.08-3.636-3.186-3.636
			c-1.35,0-2.25,0.594-2.844,1.512v-4.896H68.465z M63.534,110.95h-2.286v9h2.376v-4.068c0-1.728,0.684-2.61,2.268-2.61
			c0.378,0,0.738,0.018,1.08,0.144v-2.556c-0.288-0.072-0.54-0.126-0.882-0.126c-1.278,0-2.07,0.63-2.556,1.692V110.95z
			 M52.842,114.442c0.234-1.08,0.972-1.692,2.124-1.692s1.8,0.702,1.926,1.692H52.842z M50.43,115.45
			c0,2.682,1.782,4.716,4.824,4.716c1.728,0,2.844-0.558,3.582-1.188l-0.99-1.962c-0.63,0.558-1.476,0.918-2.556,0.918
			c-1.062,0-2.124-0.522-2.412-1.728l-0.018-0.036h6.624v-0.648c0-2.898-1.692-4.788-4.446-4.788
			C52.212,110.734,50.43,112.786,50.43,115.45 M46.182,119.95l4.05-9h-2.646l-2.304,5.58l-2.286-5.58h-2.664l4.05,9H46.182z
			 M37.722,115.45c0,1.44-1.026,2.394-2.394,2.394s-2.394-0.954-2.394-2.394c0-1.44,1.026-2.394,2.394-2.394
			S37.722,114.01,37.722,115.45 M30.486,115.45c0,2.808,2.07,4.716,4.842,4.716s4.842-1.908,4.842-4.716
			c0-2.808-2.07-4.716-4.842-4.716S30.486,112.642,30.486,115.45"/>
		<path class="st1" d="M304.192,92.608c-0.522-1.116-1.44-1.674-2.79-1.674c-1.422,0-2.25,0.666-2.808,1.53V91.15h-2.304v9h2.376
			v-4.302c0-1.512,0.504-2.628,1.944-2.628c1.098,0,1.638,0.648,1.638,1.944v4.986h2.376v-4.302c0-1.512,0.54-2.628,1.98-2.628
			c1.08,0,1.62,0.648,1.62,1.944v4.986h2.394v-5.472c0-2.358-1.296-3.744-3.402-3.744C305.704,90.934,304.75,91.618,304.192,92.608
			 M292.042,95.65c0,1.44-1.026,2.394-2.394,2.394c-1.368,0-2.394-0.954-2.394-2.394s1.026-2.394,2.394-2.394
			C291.016,93.256,292.042,94.21,292.042,95.65 M284.806,95.65c0,2.808,2.07,4.716,4.842,4.716s4.842-1.908,4.842-4.716
			s-2.07-4.716-4.842-4.716S284.806,92.842,284.806,95.65 M280.774,91.15h-2.286v9h2.376v-4.068c0-1.728,0.684-2.61,2.268-2.61
			c0.378,0,0.738,0.018,1.08,0.144V91.06c-0.288-0.072-0.54-0.126-0.882-0.126c-1.278,0-2.07,0.63-2.556,1.692V91.15z
			 M276.814,93.148V91.15h-2.556v-0.198c0-0.936,0.324-1.386,1.278-1.386c0.414,0,0.81,0.054,1.368,0.144v-2.196
			c-0.594-0.09-1.098-0.162-1.764-0.162c-1.854,0-3.258,1.008-3.258,3.348v0.45h-1.818v1.998h1.818v7.002h2.376v-7.002H276.814z
			 M258.995,103.75l5.67-12.6h-2.52l-2.214,4.932l-2.304-4.932h-2.772l3.816,7.704l-2.196,4.896H258.995z M247.997,94.246
			c0.323-0.846,1.313-1.152,2.25-1.152c1.08,0,1.565,0.378,1.565,0.9v0.144c0,0.198-0.162,0.324-0.468,0.36l-2.466,0.216
			c-1.655,0.144-2.879,1.206-2.879,2.826c0,1.656,1.259,2.808,3.041,2.808c1.422,0,2.287-0.684,2.772-1.404v1.224h2.377v-5.562
			c0-2.52-1.297-3.654-3.942-3.654c-1.963,0-3.42,0.666-4.015,2.034L247.997,94.246z M251.812,96.514c0,0.99-0.81,1.854-2.069,1.854
			c-0.847,0-1.278-0.378-1.278-0.954c0-0.504,0.377-0.864,1.116-0.99l2.231-0.27V96.514z M235.63,100.15l2.268-5.346l2.25,5.346h1.8
			l3.654-9h-2.592l-1.998,5.364l-2.16-5.364h-1.926l-2.142,5.364l-2.016-5.364h-2.592l3.654,9H235.63z M223.318,94.246
			c0.324-0.846,1.314-1.152,2.25-1.152c1.08,0,1.566,0.378,1.566,0.9v0.144c0,0.198-0.162,0.324-0.468,0.36l-2.466,0.216
			c-1.656,0.144-2.88,1.206-2.88,2.826c0,1.656,1.26,2.808,3.042,2.808c1.422,0,2.286-0.684,2.772-1.404v1.224h2.376v-5.562
			c0-2.52-1.296-3.654-3.942-3.654c-1.962,0-3.42,0.666-4.014,2.034L223.318,94.246z M227.134,96.514c0,0.99-0.81,1.854-2.07,1.854
			c-0.846,0-1.278-0.378-1.278-0.954c0-0.504,0.378-0.864,1.116-0.99l2.232-0.27V96.514z M207.604,93.796
			c0,1.962,1.638,2.556,2.988,2.844c1.512,0.342,1.998,0.414,1.998,0.918s-0.54,0.684-1.206,0.684c-1.278,0-2.25-0.45-2.844-1.17
			l-1.386,1.8c0.792,1.008,2.268,1.494,3.996,1.494c2.394,0,3.888-0.864,3.888-2.934c0-1.89-1.314-2.502-2.88-2.826
			c-1.602-0.342-2.088-0.45-2.088-0.9c0-0.414,0.378-0.63,1.152-0.63c0.954,0,1.926,0.36,2.43,0.918l1.332-1.728
			c-0.792-0.81-1.926-1.332-3.582-1.332C209.026,90.934,207.604,91.978,207.604,93.796 M199.522,94.642
			c0.234-1.08,0.972-1.692,2.124-1.692c1.152,0,1.8,0.702,1.926,1.692H199.522z M197.11,95.65c0,2.682,1.782,4.716,4.824,4.716
			c1.728,0,2.844-0.558,3.582-1.188l-0.99-1.962c-0.63,0.558-1.476,0.918-2.556,0.918c-1.062,0-2.124-0.522-2.412-1.728
			l-0.018-0.036h6.624v-0.648c0-2.898-1.692-4.788-4.446-4.788C198.892,90.934,197.11,92.986,197.11,95.65 M193.079,91.15h-2.286v9
			h2.376v-4.068c0-1.728,0.684-2.61,2.268-2.61c0.378,0,0.738,0.018,1.08,0.144V91.06c-0.288-0.072-0.54-0.126-0.882-0.126
			c-1.278,0-2.07,0.63-2.556,1.692V91.15z M188.831,97.72c-0.648,0.126-0.954,0.144-1.314,0.144c-0.63,0-0.9-0.234-0.9-0.81v-3.906
			h2.286V91.15h-2.286v-2.412h-2.376v2.412h-1.638v1.998h1.638v4.248c0,2.07,0.972,2.844,2.646,2.844
			c0.594,0,1.278-0.108,1.944-0.27V97.72z M175.025,94.642c0.234-1.08,0.972-1.692,2.124-1.692c1.152,0,1.8,0.702,1.926,1.692
			H175.025z M172.613,95.65c0,2.682,1.782,4.716,4.824,4.716c1.728,0,2.844-0.558,3.582-1.188l-0.99-1.962
			c-0.63,0.558-1.476,0.918-2.556,0.918c-1.062,0-2.124-0.522-2.412-1.728l-0.018-0.036h6.624v-0.648
			c0-2.898-1.692-4.788-4.446-4.788C174.395,90.934,172.613,92.986,172.613,95.65 M164.351,92.608
			c-0.522-1.116-1.44-1.674-2.79-1.674c-1.422,0-2.25,0.666-2.808,1.53V91.15h-2.304v9h2.376v-4.302
			c0-1.512,0.504-2.628,1.944-2.628c1.098,0,1.638,0.648,1.638,1.944v4.986h2.376v-4.302c0-1.512,0.54-2.628,1.98-2.628
			c1.08,0,1.62,0.648,1.62,1.944v4.986h2.394v-5.472c0-2.358-1.296-3.744-3.402-3.744C165.863,90.934,164.909,91.618,164.351,92.608
			 M141.995,91.492c0.576-0.936,1.512-1.422,2.43-1.422c1.062,0,1.728,0.468,1.728,1.26c0,0.774-0.612,1.26-1.674,1.278h-0.954
			v2.466h0.954c1.062,0.018,1.674,0.504,1.674,1.278c0,0.81-0.648,1.278-1.728,1.278c-0.936,0-1.872-0.45-2.43-1.44l-1.728,1.872
			c0.666,1.17,2.142,2.088,4.14,2.088c2.682,0,4.266-1.404,4.266-3.492c0-1.548-0.864-2.43-1.764-2.808
			c0.882-0.342,1.764-1.278,1.764-2.808c0-2.016-1.584-3.492-4.266-3.492c-1.962,0-3.456,0.936-4.122,2.034L141.995,91.492z
			 M133.409,97.72c-0.648,0.126-0.954,0.144-1.314,0.144c-0.63,0-0.9-0.234-0.9-0.81v-3.906h2.286V91.15h-2.286v-2.412h-2.376v2.412
			h-1.638v1.998h1.638v4.248c0,2.07,0.972,2.844,2.646,2.844c0.594,0,1.278-0.108,1.944-0.27V97.72z M118.919,93.796
			c0,1.962,1.638,2.556,2.988,2.844c1.512,0.342,1.998,0.414,1.998,0.918s-0.54,0.684-1.206,0.684c-1.278,0-2.25-0.45-2.844-1.17
			l-1.386,1.8c0.792,1.008,2.268,1.494,3.996,1.494c2.394,0,3.888-0.864,3.888-2.934c0-1.89-1.314-2.502-2.88-2.826
			c-1.602-0.342-2.088-0.45-2.088-0.9c0-0.414,0.378-0.63,1.152-0.63c0.954,0,1.926,0.36,2.43,0.918l1.332-1.728
			c-0.792-0.81-1.926-1.332-3.582-1.332C120.341,90.934,118.919,91.978,118.919,93.796 M110.657,94.246
			c0.324-0.846,1.314-1.152,2.25-1.152c1.08,0,1.566,0.378,1.566,0.9v0.144c0,0.198-0.162,0.324-0.468,0.36l-2.466,0.216
			c-1.656,0.144-2.88,1.206-2.88,2.826c0,1.656,1.26,2.808,3.042,2.808c1.422,0,2.286-0.684,2.772-1.404v1.224h2.376v-5.562
			c0-2.52-1.296-3.654-3.942-3.654c-1.962,0-3.42,0.666-4.014,2.034L110.657,94.246z M114.473,96.514c0,0.99-0.81,1.854-2.07,1.854
			c-0.846,0-1.278-0.378-1.278-0.954c0-0.504,0.378-0.864,1.116-0.99l2.232-0.27V96.514z M100.775,94.642
			c0.234-1.08,0.972-1.692,2.124-1.692s1.8,0.702,1.926,1.692H100.775z M98.363,95.65c0,2.682,1.782,4.716,4.824,4.716
			c1.728,0,2.844-0.558,3.582-1.188l-0.99-1.962c-0.63,0.558-1.476,0.918-2.556,0.918c-1.062,0-2.124-0.522-2.412-1.728
			l-0.018-0.036h6.624v-0.648c0-2.898-1.692-4.788-4.446-4.788C100.145,90.934,98.363,92.986,98.363,95.65 M94.188,100.15h2.394
			v-12.6h-2.394V100.15z M86.844,97.72c-0.648,0.126-0.954,0.144-1.314,0.144c-0.63,0-0.9-0.234-0.9-0.81v-3.906h2.286V91.15H84.63
			v-2.412h-2.376v2.412h-1.638v1.998h1.638v4.248c0,2.07,0.972,2.844,2.646,2.844c0.594,0,1.278-0.108,1.944-0.27V97.72z
			 M73.002,94.246c0.324-0.846,1.314-1.152,2.25-1.152c1.08,0,1.566,0.378,1.566,0.9v0.144c0,0.198-0.162,0.324-0.468,0.36
			l-2.466,0.216c-1.656,0.144-2.88,1.206-2.88,2.826c0,1.656,1.26,2.808,3.042,2.808c1.422,0,2.286-0.684,2.772-1.404v1.224h2.376
			v-5.562c0-2.52-1.296-3.654-3.942-3.654c-1.962,0-3.42,0.666-4.014,2.034L73.002,94.246z M76.818,96.514
			c0,0.99-0.81,1.854-2.07,1.854c-0.846,0-1.278-0.378-1.278-0.954c0-0.504,0.378-0.864,1.116-0.99l2.232-0.27V96.514z
			 M59.574,103.75l5.67-12.6h-2.52l-2.214,4.932l-2.304-4.932h-2.772l3.816,7.704l-2.196,4.896H59.574z M48.576,94.246
			c0.324-0.846,1.314-1.152,2.25-1.152c1.08,0,1.566,0.378,1.566,0.9v0.144c0,0.198-0.162,0.324-0.468,0.36l-2.466,0.216
			c-1.656,0.144-2.88,1.206-2.88,2.826c0,1.656,1.26,2.808,3.042,2.808c1.422,0,2.286-0.684,2.772-1.404v1.224h2.376v-5.562
			c0-2.52-1.296-3.654-3.942-3.654c-1.962,0-3.42,0.666-4.014,2.034L48.576,94.246z M52.392,96.514c0,0.99-0.81,1.854-2.07,1.854
			c-0.846,0-1.278-0.378-1.278-0.954c0-0.504,0.378-0.864,1.116-0.99l2.232-0.27V96.514z M45.318,97.72
			c-0.648,0.126-0.954,0.144-1.314,0.144c-0.63,0-0.9-0.234-0.9-0.81v-3.906h2.286V91.15h-2.286v-2.412h-2.376v2.412H39.09v1.998
			h1.638v4.248c0,2.07,0.972,2.844,2.646,2.844c0.594,0,1.278-0.108,1.944-0.27V97.72z M30.828,93.796
			c0,1.962,1.638,2.556,2.988,2.844c1.512,0.342,1.998,0.414,1.998,0.918s-0.54,0.684-1.206,0.684c-1.278,0-2.25-0.45-2.844-1.17
			l-1.386,1.8c0.792,1.008,2.268,1.494,3.996,1.494c2.394,0,3.888-0.864,3.888-2.934c0-1.89-1.314-2.502-2.88-2.826
			c-1.602-0.342-2.088-0.45-2.088-0.9c0-0.414,0.378-0.63,1.152-0.63c0.954,0,1.926,0.36,2.43,0.918l1.332-1.728
			c-0.792-0.81-1.926-1.332-3.582-1.332C32.25,90.934,30.828,91.978,30.828,93.796"/>
		<path class="st1" d="M337.652,82.96l1.854,0.99l3.312-5.94l-1.854-1.026L337.652,82.96z M330.956,74.842
			c0.234-1.08,0.972-1.692,2.124-1.692c1.152,0,1.8,0.702,1.926,1.692H330.956z M328.544,75.85c0,2.682,1.782,4.716,4.824,4.716
			c1.728,0,2.844-0.558,3.582-1.188l-0.99-1.962c-0.63,0.558-1.476,0.918-2.556,0.918c-1.062,0-2.124-0.522-2.412-1.728
			l-0.018-0.036h6.624v-0.648c0-2.898-1.692-4.788-4.446-4.788C330.326,71.134,328.544,73.186,328.544,75.85 M324.368,67.75v4.896
			c-0.63-0.864-1.601-1.53-3.024-1.53c-2.214,0-4.068,1.71-4.068,4.734c0,3.024,1.872,4.734,4.104,4.734
			c1.314,0,2.34-0.576,2.988-1.494v1.26h2.377v-12.6H324.368z M322.082,73.438c1.35,0,2.358,0.9,2.358,2.412
			c0,1.494-1.008,2.412-2.358,2.412s-2.358-0.954-2.358-2.412C319.724,74.392,320.732,73.438,322.082,73.438 M312.975,80.35h2.376
			v-9h-2.376V80.35z M312.651,68.776c0,0.864,0.648,1.512,1.512,1.512c0.864,0,1.53-0.648,1.53-1.512s-0.666-1.53-1.53-1.53
			C313.299,67.246,312.651,67.912,312.651,68.776 M303.759,73.996c0,1.962,1.638,2.556,2.988,2.844
			c1.512,0.342,1.998,0.414,1.998,0.918s-0.54,0.684-1.206,0.684c-1.278,0-2.25-0.45-2.844-1.17l-1.386,1.8
			c0.792,1.008,2.268,1.494,3.996,1.494c2.394,0,3.888-0.864,3.888-2.934c0-1.89-1.314-2.502-2.88-2.826
			c-1.602-0.342-2.088-0.45-2.088-0.9c0-0.414,0.378-0.63,1.152-0.63c0.954,0,1.926,0.36,2.43,0.918l1.332-1.728
			c-0.792-0.81-1.926-1.332-3.582-1.332C305.181,71.134,303.759,72.178,303.759,73.996 M302.013,77.92
			c-0.648,0.126-0.954,0.144-1.314,0.144c-0.63,0-0.9-0.234-0.9-0.81v-3.906h2.286V71.35h-2.286v-2.412h-2.376v2.412h-1.638v1.998
			h1.638v4.248c0,2.07,0.972,2.844,2.646,2.844c0.594,0,1.278-0.108,1.944-0.27V77.92z M291.825,71.35v4.302
			c0,1.566-0.594,2.628-1.944,2.628c-1.062,0-1.512-0.63-1.512-1.926V71.35h-2.43v5.598c0,2.214,1.026,3.618,3.114,3.618
			c1.368,0,2.232-0.666,2.862-1.584v1.368h2.304v-9H291.825z M281.691,75.85c0,1.44-1.026,2.394-2.394,2.394
			s-2.394-0.954-2.394-2.394c0-1.44,1.026-2.394,2.394-2.394S281.691,74.41,281.691,75.85 M274.455,75.85
			c0,2.808,2.07,4.716,4.842,4.716s4.842-1.908,4.842-4.716s-2.07-4.716-4.842-4.716S274.455,73.042,274.455,75.85 M257.769,75.814
			c0,2.97,1.836,4.626,4.23,4.626c1.296,0,2.304-0.54,2.898-1.386v0.576c0,1.296-0.63,2.322-2.646,2.322
			c-1.098,0-1.944-0.396-2.718-1.134l-1.17,1.962c0.936,0.864,2.16,1.404,3.978,1.404c3.78,0,4.896-2.124,4.896-4.428V71.35h-2.376
			v1.26c-0.504-0.81-1.548-1.476-2.934-1.476C259.695,71.134,257.769,72.79,257.769,75.814 M264.915,75.85
			c0,1.494-0.972,2.412-2.34,2.412c-1.35,0-2.358-0.954-2.358-2.412c0-1.458,1.008-2.412,2.358-2.412
			C263.943,73.438,264.915,74.338,264.915,75.85 M249.759,71.35h-2.304v9h2.376v-4.302c0-1.602,0.576-2.628,1.962-2.628
			c1.008,0,1.638,0.576,1.638,1.944v4.986h2.43v-5.58c0-2.286-1.08-3.636-3.186-3.636c-1.314,0-2.286,0.63-2.916,1.512V71.35z
			 M242.596,80.35h2.376v-9h-2.376V80.35z M242.272,68.776c0,0.864,0.648,1.512,1.512,1.512s1.53-0.648,1.53-1.512
			s-0.666-1.53-1.53-1.53S242.272,67.912,242.272,68.776 M235.558,83.95l5.67-12.6h-2.52l-2.214,4.932l-2.304-4.932h-2.772
			l3.816,7.704l-2.196,4.896H235.558z M224.56,74.446c0.324-0.846,1.314-1.152,2.25-1.152c1.08,0,1.566,0.378,1.566,0.9v0.144
			c0,0.198-0.162,0.324-0.468,0.36l-2.466,0.216c-1.656,0.144-2.88,1.206-2.88,2.826c0,1.656,1.26,2.808,3.042,2.808
			c1.422,0,2.286-0.684,2.772-1.404v1.224h2.376v-5.562c0-2.52-1.296-3.654-3.942-3.654c-1.962,0-3.42,0.666-4.014,2.034
			L224.56,74.446z M228.376,76.714c0,0.99-0.81,1.854-2.07,1.854c-0.846,0-1.278-0.378-1.278-0.954c0-0.504,0.378-0.864,1.116-0.99
			l2.232-0.27V76.714z M218.35,80.35h2.394v-12.6h-2.394V80.35z M209.458,83.95v-4.896c0.63,0.864,1.602,1.53,3.024,1.53
			c2.214,0,4.068-1.71,4.068-4.734c0-3.024-1.872-4.734-4.104-4.734c-1.314,0-2.34,0.576-2.988,1.494v-1.26h-2.376v12.6H209.458z
			 M211.744,78.262c-1.35,0-2.358-0.9-2.358-2.412c0-1.494,1.008-2.412,2.358-2.412c1.35,0,2.358,0.954,2.358,2.412
			C214.102,77.308,213.094,78.262,211.744,78.262 M196.768,71.35h-2.286v9h2.376v-4.068c0-1.728,0.684-2.61,2.268-2.61
			c0.378,0,0.738,0.018,1.08,0.144V71.26c-0.288-0.072-0.54-0.126-0.882-0.126c-1.278,0-2.07,0.63-2.556,1.692V71.35z
			 M190.234,75.85c0,1.44-1.026,2.394-2.394,2.394s-2.394-0.954-2.394-2.394c0-1.44,1.026-2.394,2.394-2.394
			S190.234,74.41,190.234,75.85 M182.998,75.85c0,2.808,2.07,4.716,4.842,4.716s4.842-1.908,4.842-4.716s-2.07-4.716-4.842-4.716
			S182.998,73.042,182.998,75.85 M166.313,75.814c0,2.97,1.836,4.626,4.23,4.626c1.296,0,2.304-0.54,2.898-1.386v0.576
			c0,1.296-0.63,2.322-2.646,2.322c-1.098,0-1.944-0.396-2.718-1.134l-1.17,1.962c0.936,0.864,2.16,1.404,3.978,1.404
			c3.78,0,4.896-2.124,4.896-4.428V71.35h-2.376v1.26c-0.504-0.81-1.548-1.476-2.934-1.476
			C168.239,71.134,166.313,72.79,166.313,75.814 M173.459,75.85c0,1.494-0.972,2.412-2.34,2.412c-1.35,0-2.358-0.954-2.358-2.412
			c0-1.458,1.008-2.412,2.358-2.412C172.487,73.438,173.459,74.338,173.459,75.85 M158.303,71.35h-2.304v9h2.376v-4.302
			c0-1.602,0.576-2.628,1.962-2.628c1.008,0,1.638,0.576,1.638,1.944v4.986h2.43v-5.58c0-2.286-1.08-3.636-3.186-3.636
			c-1.314,0-2.286,0.63-2.916,1.512V71.35z M151.139,80.35h2.376v-9h-2.376V80.35z M150.815,68.776c0,0.864,0.648,1.512,1.512,1.512
			s1.53-0.648,1.53-1.512s-0.666-1.53-1.53-1.53S150.815,67.912,150.815,68.776 M146.675,80.35h3.06l-3.87-5.13l3.87-3.87h-3.15
			l-3.258,3.456V67.75h-2.376v12.6h2.376v-2.61l0.936-0.918L146.675,80.35z M136.019,71.35h-2.286v9h2.376v-4.068
			c0-1.728,0.684-2.61,2.268-2.61c0.378,0,0.738,0.018,1.08,0.144V71.26c-0.288-0.072-0.54-0.126-0.882-0.126
			c-1.278,0-2.07,0.63-2.556,1.692V71.35z M129.485,75.85c0,1.44-1.026,2.394-2.394,2.394c-1.368,0-2.394-0.954-2.394-2.394
			c0-1.44,1.026-2.394,2.394-2.394C128.459,73.456,129.485,74.41,129.485,75.85 M122.249,75.85c0,2.808,2.07,4.716,4.842,4.716
			s4.842-1.908,4.842-4.716s-2.07-4.716-4.842-4.716S122.249,73.042,122.249,75.85 M112.079,80.35l2.268-5.346l2.25,5.346h1.8
			l3.654-9h-2.592l-1.998,5.364l-2.16-5.364h-1.926l-2.142,5.364l-2.016-5.364h-2.592l3.654,9H112.079z M93.935,74.842
			c0.234-1.08,0.972-1.692,2.124-1.692s1.8,0.702,1.926,1.692H93.935z M91.523,75.85c0,2.682,1.782,4.716,4.824,4.716
			c1.728,0,2.844-0.558,3.582-1.188l-0.99-1.962c-0.63,0.558-1.476,0.918-2.556,0.918c-1.062,0-2.124-0.522-2.412-1.728
			l-0.018-0.036h6.624v-0.648c0-2.898-1.692-4.788-4.446-4.788C93.305,71.134,91.523,73.186,91.523,75.85 M87.492,71.35h-2.286v9
			h2.376v-4.068c0-1.728,0.684-2.61,2.268-2.61c0.378,0,0.738,0.018,1.08,0.144V71.26c-0.288-0.072-0.54-0.126-0.882-0.126
			c-1.278,0-2.07,0.63-2.556,1.692V71.35z M81.227,73.582l2.106-3.42c0.198-0.27,0.306-0.576,0.306-0.936
			c0-0.918-0.72-1.692-1.674-1.692c-0.954,0-1.674,0.774-1.674,1.692c0,0.702,0.414,1.278,1.008,1.548l-1.296,2.124L81.227,73.582z
			 M75.684,71.35v4.302c0,1.566-0.594,2.628-1.944,2.628c-1.062,0-1.512-0.63-1.512-1.926V71.35h-2.43v5.598
			c0,2.214,1.026,3.618,3.113,3.618c1.369,0,2.233-0.666,2.862-1.584v1.368h2.304v-9H75.684z M65.55,75.85
			c0,1.44-1.026,2.394-2.394,2.394c-1.368,0-2.394-0.954-2.394-2.394c0-1.44,1.026-2.394,2.394-2.394
			C64.524,73.456,65.55,74.41,65.55,75.85 M58.314,75.85c0,2.808,2.07,4.716,4.842,4.716c2.772,0,4.842-1.908,4.842-4.716
			s-2.07-4.716-4.842-4.716C60.384,71.134,58.314,73.042,58.314,75.85 M52.464,83.95l5.67-12.6h-2.52L53.4,76.282l-2.304-4.932
			h-2.772l3.816,7.704l-2.196,4.896H52.464z M42.366,73.348V71.35H39.81v-0.198c0-0.936,0.324-1.386,1.278-1.386
			c0.414,0,0.81,0.054,1.368,0.144v-2.196c-0.594-0.09-1.098-0.162-1.764-0.162c-1.854,0-3.258,1.008-3.258,3.348v0.45h-1.818v1.998
			h1.818v7.002h2.376v-7.002H42.366z M31.332,80.35h2.52v-12.6h-2.52V80.35z"/>
		<path class="st1" d="M320.392,37.8h-4.004v13h4.16v-5.746c0-2.288,1.092-3.12,2.964-3.12c0.598,0,1.196,0.078,1.69,0.26v-4.498
			c-0.39-0.13-0.754-0.208-1.248-0.208c-1.846,0-2.912,1.014-3.562,2.574V37.8z M304.428,42.558c0.624-1.04,2.106-1.274,3.172-1.274
			c1.326,0,1.898,0.312,1.898,0.806v0.104c0,0.234-0.182,0.364-0.572,0.416l-3.51,0.312c-2.418,0.208-4.134,1.742-4.134,4.108
			c0,2.47,1.924,4.056,4.368,4.056c2.106,0,3.302-1.066,3.848-1.976v1.716h4.16v-7.748c0-3.952-2.054-5.564-5.98-5.564
			c-2.678,0-5.122,0.806-6.162,2.756L304.428,42.558z M309.498,45.548c0,1.326-0.988,2.262-2.444,2.262
			c-0.962,0-1.482-0.39-1.482-1.092c0-0.624,0.442-0.988,1.3-1.092l2.626-0.312V45.548z M290.934,42.662
			c0.39-1.248,1.3-1.742,2.444-1.742c1.274,0,2.08,0.78,2.21,1.742H290.934z M286.774,44.222c0,3.744,2.496,6.89,7.176,6.89
			c2.574,0,4.056-0.624,5.174-1.352l-1.612-3.484c-0.91,0.598-2.08,0.936-3.432,0.936c-1.092,0-2.392-0.39-3.016-1.586l-0.026-0.052
			h9.074v-1.118c0-4.394-2.626-6.968-6.526-6.968C289.426,37.488,286.774,40.374,286.774,44.222 M280.664,50.8h4.16V32.6h-4.16V50.8
			z M266.91,44.3c0,4.238,3.094,6.812,7.02,6.812c2.158,0,3.9-0.754,5.044-1.898l-2.236-3.38c-0.624,0.702-1.508,1.196-2.73,1.196
			c-1.638,0-2.834-1.092-2.834-2.73s1.196-2.73,2.834-2.73c1.222,0,2.106,0.494,2.73,1.196l2.236-3.38
			c-1.144-1.144-2.886-1.898-5.044-1.898C270.004,37.488,266.91,40.062,266.91,44.3 M251.96,56l8.06-18.2h-4.394l-2.73,6.188
			l-2.808-6.188h-4.758l5.408,11.05L247.592,56H251.96z M235.84,42.558c0.624-1.04,2.106-1.274,3.172-1.274
			c1.326,0,1.898,0.312,1.898,0.806v0.104c0,0.234-0.182,0.364-0.572,0.416l-3.51,0.312c-2.418,0.208-4.134,1.742-4.134,4.108
			c0,2.47,1.924,4.056,4.368,4.056c2.106,0,3.302-1.066,3.848-1.976v1.716h4.16v-7.748c0-3.952-2.054-5.564-5.98-5.564
			c-2.678,0-5.122,0.806-6.162,2.756L235.84,42.558z M240.91,45.548c0,1.326-0.988,2.262-2.444,2.262
			c-0.962,0-1.482-0.39-1.482-1.092c0-0.624,0.442-0.988,1.3-1.092l2.626-0.312V45.548z M231.342,46.484
			c-1.066,0.182-1.456,0.208-1.768,0.208c-0.754,0-1.196-0.208-1.196-0.936v-4.524h3.146V37.8h-3.146v-3.484h-4.16V37.8h-2.236
			v3.432h2.236v5.382c0,3.094,1.508,4.316,3.978,4.316c0.858,0,2.028-0.156,3.146-0.442V46.484z M210.152,41.804
			c0,2.834,2.184,3.796,3.978,4.212c2.418,0.546,2.86,0.572,2.86,0.936c0,0.442-0.624,0.494-1.144,0.494
			c-1.976,0-3.302-0.702-4.212-1.43l-2.08,3.484c1.222,1.04,3.25,1.612,5.772,1.612c3.848,0,6.006-1.3,6.006-4.342
			c0-2.574-1.534-3.692-3.848-4.186c-2.652-0.572-2.99-0.598-2.99-0.936c0-0.286,0.286-0.468,1.118-0.468
			c1.118,0,2.782,0.364,3.614,0.988l1.976-3.302c-1.248-0.806-2.912-1.378-5.2-1.378C212.336,37.488,210.152,38.97,210.152,41.804
			 M192.862,54.31L196.06,56l4.94-8.892l-3.198-1.742L192.862,54.31z M189.222,37.8h-4.004v13h4.16v-5.746
			c0-2.288,1.092-3.12,2.964-3.12c0.598,0,1.196,0.078,1.69,0.26v-4.498c-0.39-0.13-0.754-0.208-1.248-0.208
			c-1.846,0-2.912,1.014-3.562,2.574V37.8z M173.258,42.558c0.624-1.04,2.107-1.274,3.172-1.274c1.327,0,1.898,0.312,1.898,0.806
			v0.104c0,0.234-0.182,0.364-0.571,0.416l-3.51,0.312c-2.419,0.208-4.134,1.742-4.134,4.108c0,2.47,1.923,4.056,4.367,4.056
			c2.107,0,3.303-1.066,3.848-1.976v1.716h4.16v-7.748c0-3.952-2.054-5.564-5.98-5.564c-2.677,0-5.121,0.806-6.162,2.756
			L173.258,42.558z M178.328,45.548c0,1.326-0.988,2.262-2.443,2.262c-0.962,0-1.483-0.39-1.483-1.092
			c0-0.624,0.442-0.988,1.3-1.092l2.626-0.312V45.548z M159.765,42.662c0.39-1.248,1.3-1.742,2.444-1.742
			c1.274,0,2.08,0.78,2.21,1.742H159.765z M155.605,44.222c0,3.744,2.496,6.89,7.176,6.89c2.574,0,4.056-0.624,5.174-1.352
			l-1.612-3.484c-0.91,0.598-2.08,0.936-3.432,0.936c-1.092,0-2.392-0.39-3.016-1.586l-0.026-0.052h9.074v-1.118
			c0-4.394-2.626-6.968-6.526-6.968C158.257,37.488,155.605,40.374,155.605,44.222 M144.971,37.8h-4.056v13h4.16v-6.318
			c0-1.976,0.884-2.964,2.262-2.964c1.248,0,1.976,0.65,1.976,2.392v6.89h4.212v-8.32c0-3.224-1.508-4.992-4.394-4.992
			c-2.028,0-3.354,1.092-4.16,2.262V37.8z M122.507,42.662c0.39-1.248,1.3-1.742,2.444-1.742c1.274,0,2.08,0.78,2.21,1.742H122.507z
			 M118.347,44.222c0,3.744,2.496,6.89,7.176,6.89c2.574,0,4.056-0.624,5.174-1.352l-1.612-3.484
			c-0.91,0.598-2.08,0.936-3.432,0.936c-1.092,0-2.392-0.39-3.016-1.586l-0.026-0.052h9.074v-1.118c0-4.394-2.626-6.968-6.526-6.968
			C120.999,37.488,118.347,40.374,118.347,44.222 M113.017,37.8h-4.004v13h4.16v-5.746c0-2.288,1.092-3.12,2.964-3.12
			c0.598,0,1.196,0.078,1.69,0.26v-4.498c-0.39-0.13-0.754-0.208-1.248-0.208c-1.846,0-2.912,1.014-3.562,2.574V37.8z
			 M103.657,41.648l3.25-4.992c0.364-0.468,0.546-1.014,0.546-1.638c0-1.482-1.17-2.73-2.704-2.73c-1.534,0-2.704,1.248-2.704,2.73
			c0,1.04,0.546,1.95,1.456,2.444l-1.898,3.016L103.657,41.648z M94.948,37.8v6.318c0,1.976-0.936,2.964-2.262,2.964
			c-1.014,0-1.716-0.572-1.716-2.314V37.8h-4.264v8.32c0,3.224,1.612,4.992,4.316,4.992c1.976,0,3.276-1.092,4.082-2.34V50.8h4.03
			v-13H94.948z M80.492,44.3c0,1.742-1.326,2.73-2.834,2.73c-1.508,0-2.834-0.988-2.834-2.73s1.326-2.73,2.834-2.73
			C79.166,41.57,80.492,42.558,80.492,44.3 M70.56,44.3c0,4.16,3.042,6.812,7.098,6.812s7.098-2.652,7.098-6.812
			s-3.042-6.812-7.098-6.812S70.56,40.14,70.56,44.3 M62.89,56l8.06-18.2h-4.394l-2.73,6.188L61.018,37.8H56.26l5.408,11.05
			L58.522,56H62.89z M48.746,41.232V37.8h-3.64c0-0.962,0.364-1.638,1.638-1.638c0.624,0,1.196,0.052,2.106,0.234v-3.848
			c-0.962-0.13-1.768-0.26-2.886-0.26c-2.782,0-5.018,1.586-5.018,4.914V37.8H38.19v3.432h2.756V50.8h4.16v-9.568H48.746z
			 M31.82,50.8h4.42V32.6h-4.42V50.8z"/>
	</g>
	<g>
		<defs>
			<rect id="SVGID_3_" y="113.5" width="470" height="181.5"/>
		</defs>
		<clipPath id="SVGID_4_">
			<use xlink:href="#SVGID_3_"  style="overflow:visible;"/>
		</clipPath>
		<path class="st2" d="M-234.627,164.857c12.497,8.99,51.6,22.901,97.903,22.901c25.842,0,49.44-4.334,67.424-9.726"/>
		<path class="st2" d="M-295.176,164.857c12.497,8.99,51.6,22.901,97.903,22.901c35.171,0,66.187-8.026,84.545-15.825"/>
		<path class="st2" d="M-277.17,164.857c12.497,8.99,51.6,22.901,97.903,22.901c34.24,0,64.541-7.606,83.06-15.206"/>
		<path class="st3" d="M-52.438,358.651c-2.746-1.674-7.119-2.758-12.041-2.758c-4.92,0-9.291,1.082-12.039,2.756"/>
		<path class="st2" d="M-39.231,164.857c12.497,8.99,51.6,22.901,97.903,22.901c25.842,0,49.44-4.334,67.424-9.726"/>
		<path class="st3" d="M-285.384,336.869c342.463,26.663,685.44-19.392,1027.903,7.271"/>
	</g>
	<rect x="155.212" y="156.994" class="st4" width="4.015" height="7.863"/>
	<rect x="155.212" y="156.994" class="st5" width="4.015" height="7.863"/>
	<rect x="111.614" y="156.994" class="st4" width="4.015" height="7.863"/>
	<rect x="111.614" y="156.994" class="st5" width="4.015" height="7.863"/>
	<rect x="93.607" y="156.994" class="st4" width="4.015" height="7.863"/>
	<rect x="93.606" y="156.994" class="st5" width="4.015" height="7.863"/>
	<rect x="82.668" y="164.857" class="st4" width="96.504" height="7.695"/>
	<rect x="82.668" y="164.857" class="st5" width="96.504" height="7.695"/>
	<rect x="126.57" y="155.154" class="st4" width="8.698" height="139.846"/>
	<g>
		<defs>
			<rect id="SVGID_5_" y="113.5" width="470" height="181.5"/>
		</defs>
		<clipPath id="SVGID_6_">
			<use xlink:href="#SVGID_5_"  style="overflow:visible;"/>
		</clipPath>
		<rect x="126.57" y="155.153" class="st6" width="8.698" height="200.741"/>
	</g>
	<line class="st5" x1="135.268" y1="183.928" x2="146.644" y2="172.552"/>
	<line class="st5" x1="126.611" y1="183.928" x2="115.235" y2="172.552"/>
	<g>
		<defs>
			<rect id="SVGID_7_" y="113.5" width="470" height="181.5"/>
		</defs>
		<clipPath id="SVGID_8_">
			<use xlink:href="#SVGID_7_"  style="overflow:visible;"/>
		</clipPath>
		<path class="st7" d="M95.614,164.857c12.497,8.99,51.6,22.901,97.903,22.901c45.807,0,84.567-13.614,97.492-22.61"/>
		<path class="st7" d="M113.621,164.857c12.497,8.99,51.6,22.901,97.903,22.901c45.807,0,84.567-13.614,97.492-22.61"/>
		<path class="st7" d="M157.219,164.857c12.497,8.99,51.6,22.901,97.903,22.901c45.807,0,84.567-13.614,97.492-22.61"/>
		<path class="st7" d="M-99.781,164.857c12.497,8.99,51.6,22.901,97.903,22.901c35.171,0,66.187-8.026,84.545-15.825"/>
		<path class="st7" d="M-81.774,164.857c12.497,8.99,51.6,22.901,97.903,22.901c34.24,0,64.541-7.606,83.06-15.206"/>
		<rect x="472.738" y="164.857" class="st7" width="96.504" height="7.695"/>
		<path class="st8" d="M533.029,358.651c-2.746-1.674-7.119-2.758-12.041-2.758c-4.92,0-9.291,1.082-12.039,2.756"/>
		<path class="st7" d="M546.235,164.857c12.497,8.99,51.6,22.901,97.903,22.901c25.842,0,49.441-4.334,67.424-9.726"/>
		<path class="st7" d="M485.686,164.857c12.497,8.99,51.6,22.901,97.903,22.901c35.171,0,66.187-8.026,84.545-15.825"/>
		<path class="st7" d="M503.693,164.857c12.496,8.99,51.6,22.901,97.903,22.901c34.24,0,64.541-7.606,83.06-15.206"/>
		<path class="st8" d="M142.958,358.651c-2.746-1.674-7.119-2.758-12.041-2.758c-4.92,0-9.291,1.082-12.039,2.756"/>
	</g>
	<rect x="278.062" y="164.857" class="st4" width="96.504" height="7.695"/>
	<rect x="278.062" y="164.857" class="st5" width="96.504" height="7.695"/>
	<rect x="350.607" y="156.994" class="st4" width="4.015" height="7.863"/>
	<rect x="350.607" y="156.994" class="st5" width="4.015" height="7.863"/>
	<rect x="307.008" y="156.994" class="st4" width="4.015" height="7.863"/>
	<rect x="307.008" y="156.994" class="st5" width="4.015" height="7.863"/>
	<rect x="289.001" y="156.994" class="st4" width="4.015" height="7.863"/>
	<rect x="289.001" y="156.994" class="st5" width="4.015" height="7.863"/>
	<rect x="321.964" y="155.154" class="st4" width="8.698" height="139.846"/>
	<g>
		<defs>
			<rect id="SVGID_9_" y="113.5" width="470" height="181.5"/>
		</defs>
		<clipPath id="SVGID_10_">
			<use xlink:href="#SVGID_9_"  style="overflow:visible;"/>
		</clipPath>
		<rect x="321.964" y="155.153" class="st9" width="8.698" height="200.741"/>
	</g>
	<line class="st5" x1="330.663" y1="183.928" x2="342.039" y2="172.552"/>
	<line class="st5" x1="322.006" y1="183.928" x2="310.63" y2="172.552"/>
	<g>
		<defs>
			<rect id="SVGID_11_" y="113.5" width="470" height="181.5"/>
		</defs>
		<clipPath id="SVGID_12_">
			<use xlink:href="#SVGID_11_"  style="overflow:visible;"/>
		</clipPath>
		<path class="st10" d="M338.353,358.651c-2.746-1.674-7.119-2.758-12.041-2.758c-4.92,0-9.291,1.082-12.039,2.756"/>
	</g>
	<polygon class="st4" points="254.502,186.558 226.791,200.976 232.442,170.253 253.127,165.345 	"/>
	<polygon class="st5" points="254.502,186.558 226.791,200.976 232.442,170.253 253.127,165.345 	"/>
	<line class="st5" x1="253.126" y1="165.344" x2="226.79" y2="200.975"/>
	<g>
		<defs>
			<rect id="SVGID_13_" y="113.5" width="470" height="181.5"/>
		</defs>
		<clipPath id="SVGID_14_">
			<use xlink:href="#SVGID_13_"  style="overflow:visible;"/>
		</clipPath>
		<path class="st11" d="M232.442,170.253l7.062,2.744c4.051,1.574,7.609,4.202,10.303,7.615l4.695,5.946"/>
	</g>
	<polygon class="st4" points="220.856,201.866 226.79,200.977 227.679,206.909 	"/>
	<polygon class="st5" points="220.856,201.866 226.79,200.977 227.679,206.909 	"/>
	<polygon class="st12" points="226.052,182.587 213.887,167.302 219.955,166.874 215.071,154.573 227.825,171.897 221.11,171.628 	
		"/>
	<g>
		<defs>
			<rect id="SVGID_15_" y="113.5" width="470" height="181.5"/>
		</defs>
		<clipPath id="SVGID_16_">
			<use xlink:href="#SVGID_15_"  style="overflow:visible;"/>
		</clipPath>
		<path class="st13" d="M350.918,164.857c12.497,8.99,51.6,22.901,97.903,22.901c25.842,0,49.441-4.334,67.424-9.726"/>
		<path class="st13" d="M290.369,164.857c12.497,8.99,51.6,22.901,97.903,22.901c35.171,0,66.187-8.026,84.545-15.825"/>
		<path class="st13" d="M308.376,164.857c12.497,8.99,51.6,22.901,97.903,22.901c34.24,0,64.541-7.606,83.06-15.206"/>
		<path class="st13" d="M224.095,204.259c0,0-17.63,7.283-12.776,28.874c4.682,20.827,4.682,38.311-7.279,50.94"/>
	</g>
</g>
</svg>
