<?xml version="1.0" encoding="utf-8"?>
<!-- Generator: Adobe Illustrator 20.1.0, SVG Export Plug-In . SVG Version: 6.00 Build 0)  -->
<svg version="1.1" id="Layer_1" xmlns="http://www.w3.org/2000/svg" xmlns:xlink="http://www.w3.org/1999/xlink" x="0px" y="0px"
	 viewBox="0 0 284.4 213.8" style="enable-background:new 0 0 284.4 213.8;" xml:space="preserve">
<style type="text/css">
	.st0{fill:#10A3C8;}
	.st1{clip-path:url(#SVGID_2_);fill:#FFFFFF;}
	
		.st2{clip-path:url(#SVGID_4_);fill:none;stroke:#FFFFFF;stroke-width:1.29;stroke-linecap:round;stroke-linejoin:round;stroke-miterlimit:10;}
	.st3{clip-path:url(#SVGID_4_);fill:none;stroke:#FFFFFF;stroke-width:1.29;stroke-linecap:round;stroke-miterlimit:10;}
	.st4{fill:#05A2C7;}
	.st5{fill:none;stroke:#FFFFFF;stroke-width:1.29;stroke-linecap:round;stroke-linejoin:round;stroke-miterlimit:10;}
	
		.st6{clip-path:url(#SVGID_6_);fill:none;stroke:#FFFFFF;stroke-width:1.29;stroke-linecap:round;stroke-linejoin:round;stroke-miterlimit:10;}
	
		.st7{clip-path:url(#SVGID_8_);fill:none;stroke:#FFFFFF;stroke-width:1.29;stroke-linecap:round;stroke-linejoin:round;stroke-miterlimit:10;}
	.st8{clip-path:url(#SVGID_8_);fill:none;stroke:#FFFFFF;stroke-width:1.29;stroke-linecap:round;stroke-miterlimit:10;}
	
		.st9{clip-path:url(#SVGID_10_);fill:none;stroke:#FFFFFF;stroke-width:1.29;stroke-linecap:round;stroke-linejoin:round;stroke-miterlimit:10;}
	.st10{clip-path:url(#SVGID_12_);fill:none;stroke:#FFFFFF;stroke-width:1.29;stroke-linecap:round;stroke-miterlimit:10;}
	
		.st11{clip-path:url(#SVGID_14_);fill:none;stroke:#FFFFFF;stroke-width:1.29;stroke-linecap:round;stroke-linejoin:round;stroke-miterlimit:10;}
	.st12{fill:#00506D;}
	
		.st13{clip-path:url(#SVGID_16_);fill:none;stroke:#FFFFFF;stroke-width:1.29;stroke-linecap:round;stroke-linejoin:round;stroke-miterlimit:10;}
</style>
<g>
	<rect y="-0.02" class="st0" width="284.4" height="213.84"/>
	<g>
		<defs>
			<rect id="SVGID_1_" y="-0.02" width="284.4" height="213.84"/>
		</defs>
		<clipPath id="SVGID_2_">
			<use xlink:href="#SVGID_1_"  style="overflow:visible;"/>
		</clipPath>
		<path class="st1" d="M152.701,95.148c-0.003-0.318,0.078-0.57,0.244-0.755c0.166-0.185,0.377-0.278,0.631-0.278
			c0.238,0,0.44,0.088,0.606,0.264c0.166,0.175,0.253,0.432,0.262,0.769H152.701z M154.095,96.809
			c-0.124,0.099-0.278,0.149-0.461,0.149c-0.268,0-0.492-0.096-0.672-0.288c-0.18-0.193-0.274-0.462-0.282-0.808h2.922
			c0.016-0.893-0.165-1.557-0.544-1.99s-0.896-0.649-1.552-0.649c-0.584,0-1.067,0.207-1.449,0.62
			c-0.382,0.414-0.572,0.986-0.572,1.716c0,0.612,0.145,1.118,0.435,1.519c0.368,0.501,0.936,0.752,1.702,0.752
			c0.484,0,0.887-0.112,1.21-0.334c0.322-0.223,0.558-0.548,0.707-0.974l-1.162-0.195C154.314,96.549,154.22,96.709,154.095,96.809
			 M148.484,94.24h0.647v3.49h1.167v-3.49h0.871v-0.918h-0.871v-0.311c0-0.224,0.036-0.376,0.11-0.454
			c0.073-0.079,0.194-0.119,0.363-0.119c0.171,0,0.35,0.022,0.535,0.067l0.158-0.814c-0.318-0.099-0.644-0.149-0.976-0.149
			c-0.323,0-0.591,0.057-0.803,0.172c-0.211,0.115-0.357,0.264-0.435,0.446c-0.079,0.183-0.119,0.46-0.119,0.83v0.332h-0.647V94.24z
			 M146.699,95.846c0,0.279-0.015,0.469-0.046,0.568c-0.044,0.153-0.136,0.281-0.278,0.386c-0.191,0.139-0.391,0.208-0.601,0.208
			c-0.189,0-0.344-0.06-0.465-0.179c-0.122-0.119-0.183-0.26-0.183-0.423c0-0.166,0.076-0.303,0.228-0.411
			c0.1-0.066,0.312-0.134,0.635-0.203c0.324-0.069,0.561-0.129,0.71-0.179V95.846z M145.421,94.237
			c0.116-0.081,0.278-0.122,0.485-0.122c0.308,0,0.516,0.048,0.627,0.143c0.111,0.096,0.166,0.255,0.166,0.48v0.116
			c-0.21,0.088-0.588,0.184-1.133,0.286c-0.404,0.078-0.713,0.168-0.928,0.272c-0.214,0.104-0.381,0.253-0.5,0.448
			s-0.178,0.417-0.178,0.666c0,0.377,0.131,0.688,0.392,0.934c0.262,0.247,0.619,0.37,1.073,0.37c0.257,0,0.499-0.049,0.726-0.146
			c0.227-0.096,0.44-0.242,0.639-0.435c0.009,0.022,0.023,0.067,0.042,0.137c0.044,0.152,0.082,0.267,0.112,0.344h1.154
			c-0.103-0.21-0.172-0.407-0.21-0.591c-0.037-0.184-0.056-0.47-0.056-0.857l0.013-1.362c0-0.506-0.052-0.854-0.156-1.044
			c-0.104-0.189-0.283-0.345-0.537-0.469c-0.255-0.123-0.642-0.184-1.163-0.184c-0.572,0-1.004,0.102-1.294,0.307
			c-0.291,0.205-0.496,0.52-0.615,0.946l1.059,0.191C145.211,94.462,145.305,94.319,145.421,94.237 M139.816,97.464
			c0.35,0.244,0.825,0.366,1.425,0.366c0.662,0,1.161-0.146,1.499-0.436c0.337-0.291,0.506-0.638,0.506-1.042
			c0-0.371-0.122-0.66-0.365-0.867c-0.247-0.205-0.68-0.378-1.301-0.519c-0.622-0.141-0.985-0.251-1.09-0.328
			c-0.077-0.058-0.116-0.129-0.116-0.212c0-0.097,0.044-0.175,0.133-0.236c0.133-0.086,0.353-0.129,0.66-0.129
			c0.243,0,0.431,0.046,0.562,0.137c0.131,0.091,0.221,0.223,0.268,0.394l1.1-0.203c-0.111-0.385-0.313-0.675-0.606-0.872
			c-0.294-0.196-0.742-0.294-1.345-0.294c-0.634,0-1.101,0.13-1.403,0.39s-0.452,0.581-0.452,0.963c0,0.423,0.174,0.754,0.523,0.992
			c0.251,0.171,0.848,0.361,1.788,0.568c0.202,0.047,0.332,0.099,0.391,0.154c0.055,0.058,0.083,0.131,0.083,0.22
			c0,0.13-0.052,0.234-0.154,0.311c-0.152,0.111-0.379,0.166-0.681,0.166c-0.274,0-0.487-0.059-0.639-0.176
			c-0.152-0.118-0.253-0.29-0.303-0.517l-1.17,0.178C139.237,96.89,139.466,97.221,139.816,97.464 M135.688,95.148
			c-0.003-0.318,0.079-0.57,0.245-0.755c0.166-0.185,0.376-0.278,0.631-0.278c0.238,0,0.44,0.088,0.606,0.264
			c0.166,0.175,0.253,0.432,0.261,0.769H135.688z M137.083,96.809c-0.125,0.099-0.278,0.149-0.461,0.149
			c-0.268,0-0.493-0.096-0.672-0.288c-0.18-0.193-0.274-0.462-0.283-0.808h2.922c0.017-0.893-0.164-1.557-0.543-1.99
			c-0.38-0.433-0.897-0.649-1.553-0.649c-0.584,0-1.066,0.207-1.448,0.62c-0.382,0.414-0.573,0.986-0.573,1.716
			c0,0.612,0.145,1.118,0.436,1.519c0.368,0.501,0.935,0.752,1.702,0.752c0.484,0,0.887-0.112,1.209-0.334
			c0.323-0.223,0.559-0.548,0.708-0.974l-1.162-0.195C137.301,96.549,137.207,96.709,137.083,96.809 M131.007,94.441
			c0.185-0.217,0.417-0.326,0.697-0.326c0.285,0,0.519,0.111,0.701,0.334c0.183,0.223,0.274,0.586,0.274,1.09
			c0,0.473-0.091,0.819-0.272,1.039c-0.181,0.22-0.4,0.33-0.658,0.33c-0.334,0-0.603-0.155-0.805-0.465
			c-0.144-0.218-0.216-0.556-0.216-1.012C130.728,94.988,130.821,94.658,131.007,94.441 M130.654,97.73v-0.647
			c0.177,0.246,0.388,0.432,0.633,0.558c0.245,0.126,0.493,0.189,0.745,0.189c0.512,0,0.947-0.204,1.305-0.61
			c0.358-0.407,0.537-0.987,0.537-1.74c0-0.727-0.175-1.285-0.527-1.674c-0.351-0.389-0.795-0.583-1.332-0.583
			c-0.492,0-0.919,0.204-1.278,0.614v-2.191h-1.167v6.084H130.654z M127.495,97.834l1.523-6.292h-0.875l-1.507,6.292H127.495z
			 M119.614,97.73h1.166v-2.142c0-0.423,0.031-0.726,0.093-0.909c0.063-0.182,0.166-0.322,0.31-0.419
			c0.143-0.097,0.305-0.145,0.485-0.145c0.15,0,0.268,0.03,0.355,0.091c0.087,0.061,0.151,0.154,0.193,0.278
			c0.041,0.125,0.062,0.402,0.062,0.83v2.416h1.167v-2.117c0-0.415,0.031-0.718,0.095-0.911c0.064-0.192,0.167-0.338,0.311-0.438
			c0.144-0.099,0.298-0.149,0.461-0.149c0.224,0,0.39,0.083,0.498,0.249c0.08,0.127,0.12,0.41,0.12,0.847v2.519h1.167v-2.818
			c0-0.421-0.041-0.725-0.121-0.913c-0.11-0.255-0.278-0.448-0.502-0.579c-0.224-0.132-0.498-0.197-0.822-0.197
			c-0.254,0-0.494,0.058-0.718,0.174c-0.224,0.116-0.433,0.292-0.626,0.527c-0.133-0.235-0.303-0.411-0.511-0.527
			c-0.207-0.116-0.452-0.174-0.735-0.174c-0.531,0-0.989,0.234-1.373,0.701v-0.602h-1.075V97.73z M115.746,94.522
			c0.207-0.233,0.463-0.349,0.767-0.349c0.305,0,0.56,0.116,0.766,0.349c0.206,0.232,0.309,0.564,0.309,0.996
			c0,0.443-0.103,0.78-0.309,1.013c-0.206,0.232-0.461,0.348-0.766,0.348c-0.304,0-0.56-0.116-0.767-0.348
			c-0.208-0.233-0.312-0.568-0.312-1.005C115.434,95.089,115.538,94.754,115.746,94.522 M114.525,96.753
			c0.191,0.352,0.47,0.62,0.837,0.803c0.366,0.182,0.751,0.274,1.156,0.274c0.652,0,1.194-0.22,1.624-0.658
			c0.431-0.439,0.646-0.991,0.646-1.658c0-0.662-0.213-1.209-0.639-1.642c-0.427-0.433-0.973-0.649-1.64-0.649
			c-0.431,0-0.822,0.095-1.172,0.286c-0.35,0.191-0.621,0.468-0.812,0.83c-0.191,0.363-0.286,0.738-0.286,1.125
			C114.239,95.97,114.334,96.4,114.525,96.753 M112.942,93.569c-0.317-0.231-0.744-0.346-1.28-0.346
			c-0.656,0-1.176,0.202-1.561,0.608c-0.385,0.405-0.577,0.972-0.577,1.699c0,0.72,0.192,1.283,0.575,1.69
			c0.383,0.406,0.897,0.61,1.542,0.61c0.567,0,1.019-0.135,1.357-0.403c0.338-0.268,0.566-0.665,0.685-1.191l-1.146-0.195
			c-0.058,0.307-0.157,0.523-0.299,0.649c-0.141,0.126-0.322,0.189-0.543,0.189c-0.296,0-0.532-0.108-0.708-0.324
			c-0.176-0.215-0.263-0.585-0.263-1.108c0-0.47,0.086-0.806,0.259-1.006c0.173-0.201,0.405-0.301,0.695-0.301
			c0.219,0,0.397,0.058,0.533,0.174c0.137,0.116,0.225,0.289,0.264,0.519l1.15-0.207C113.486,94.152,113.259,93.8,112.942,93.569
			 M108.586,96.564h-1.166v1.166h1.166V96.564z M103.465,94.522c0.207-0.233,0.463-0.349,0.767-0.349
			c0.305,0,0.56,0.116,0.766,0.349c0.206,0.232,0.309,0.564,0.309,0.996c0,0.443-0.103,0.78-0.309,1.013
			c-0.206,0.232-0.461,0.348-0.766,0.348c-0.304,0-0.56-0.116-0.767-0.348c-0.208-0.233-0.312-0.568-0.312-1.005
			C103.153,95.089,103.257,94.754,103.465,94.522 M102.244,96.753c0.191,0.352,0.47,0.62,0.837,0.803
			c0.366,0.182,0.751,0.274,1.156,0.274c0.652,0,1.194-0.22,1.624-0.658c0.431-0.439,0.646-0.991,0.646-1.658
			c0-0.662-0.213-1.209-0.639-1.642c-0.427-0.433-0.973-0.649-1.64-0.649c-0.431,0-0.822,0.095-1.172,0.286
			c-0.35,0.191-0.621,0.468-0.812,0.83c-0.191,0.363-0.286,0.738-0.286,1.125C101.958,95.97,102.053,96.4,102.244,96.753
			 M100.036,96.369c0-0.75,0.033-1.243,0.098-1.478s0.154-0.398,0.268-0.488c0.113-0.089,0.251-0.134,0.415-0.134
			c0.168,0,0.351,0.063,0.547,0.19l0.362-1.016c-0.247-0.147-0.503-0.22-0.768-0.22c-0.188,0-0.357,0.047-0.505,0.141
			s-0.314,0.289-0.5,0.585v-0.627H98.87v4.408h1.166V96.369z M94.938,94.445c0.186-0.22,0.418-0.33,0.695-0.33
			c0.285,0,0.519,0.111,0.701,0.334c0.183,0.223,0.274,0.587,0.274,1.094c0,0.454-0.094,0.795-0.282,1.023
			c-0.188,0.228-0.417,0.342-0.685,0.342c-0.338,0-0.6-0.152-0.789-0.456c-0.13-0.211-0.195-0.551-0.195-1.021
			C94.657,94.994,94.751,94.665,94.938,94.445 M97.77,91.646h-1.166v2.191c-0.36-0.41-0.786-0.614-1.278-0.614
			c-0.537,0-0.981,0.194-1.333,0.583c-0.351,0.389-0.527,0.956-0.527,1.704c0,0.73,0.181,1.299,0.542,1.707
			c0.361,0.409,0.795,0.613,1.301,0.613c0.249,0,0.496-0.062,0.741-0.185c0.245-0.123,0.457-0.311,0.637-0.562v0.647h1.083V91.646z
			 M90.125,97.742c-0.069,0.247-0.169,0.449-0.299,0.608c-0.13,0.16-0.33,0.239-0.601,0.239c-0.147,0-0.312-0.018-0.494-0.054
			l0.103,0.913c0.216,0.047,0.436,0.071,0.66,0.071c0.222,0,0.42-0.024,0.596-0.071c0.176-0.047,0.324-0.113,0.444-0.197
			s0.227-0.194,0.32-0.33c0.092-0.135,0.19-0.332,0.292-0.589l0.278-0.768l1.557-4.242h-1.208l-1.029,3.13l-1.055-3.13h-1.241
			L90.125,97.742z M83.804,91.646v6.084h1.166v-2.208c0-0.371,0.036-0.651,0.106-0.84c0.071-0.19,0.182-0.332,0.334-0.426
			c0.152-0.094,0.325-0.141,0.519-0.141c0.169,0,0.309,0.037,0.421,0.11s0.191,0.172,0.235,0.297
			c0.044,0.124,0.066,0.418,0.066,0.88v2.328h1.167v-2.586c0-0.395-0.021-0.687-0.061-0.875c-0.04-0.189-0.114-0.36-0.224-0.515
			c-0.109-0.155-0.272-0.282-0.487-0.382c-0.216-0.1-0.458-0.149-0.727-0.149c-0.523,0-0.972,0.22-1.349,0.66v-2.237H83.804z
			 M82.242,93.569c-0.317-0.231-0.744-0.346-1.281-0.346c-0.656,0-1.176,0.202-1.56,0.608c-0.385,0.405-0.577,0.972-0.577,1.699
			c0,0.72,0.191,1.283,0.574,1.69c0.384,0.406,0.898,0.61,1.542,0.61c0.568,0,1.02-0.135,1.358-0.403
			c0.337-0.268,0.565-0.665,0.684-1.191l-1.145-0.195c-0.058,0.307-0.158,0.523-0.299,0.649c-0.141,0.126-0.322,0.189-0.544,0.189
			c-0.296,0-0.532-0.108-0.707-0.324c-0.176-0.215-0.264-0.585-0.264-1.108c0-0.47,0.087-0.806,0.26-1.006
			c0.172-0.201,0.404-0.301,0.695-0.301c0.218,0,0.396,0.058,0.533,0.174c0.137,0.116,0.225,0.289,0.264,0.519l1.149-0.207
			C82.786,94.152,82.558,93.8,82.242,93.569 M75.275,94.441c0.185-0.217,0.418-0.326,0.697-0.326c0.285,0,0.519,0.111,0.702,0.334
			c0.182,0.223,0.274,0.586,0.274,1.09c0,0.473-0.091,0.819-0.272,1.039c-0.181,0.22-0.401,0.33-0.658,0.33
			c-0.335,0-0.603-0.155-0.805-0.465c-0.144-0.218-0.216-0.556-0.216-1.012C74.997,94.988,75.09,94.658,75.275,94.441 M74.922,97.73
			v-0.647c0.177,0.246,0.388,0.432,0.633,0.558c0.245,0.126,0.493,0.189,0.745,0.189c0.512,0,0.947-0.204,1.306-0.61
			c0.358-0.407,0.537-0.987,0.537-1.74c0-0.727-0.176-1.285-0.527-1.674c-0.352-0.389-0.796-0.583-1.332-0.583
			c-0.493,0-0.919,0.204-1.279,0.614v-2.191h-1.166v6.084H74.922z M70.419,97.091c-0.111,0-0.196-0.018-0.255-0.054
			c-0.06-0.036-0.103-0.084-0.129-0.145c-0.026-0.061-0.039-0.198-0.039-0.411v-2.578h0.751v-0.581h-0.751v-1.54l-0.743,0.449v1.091
			h-0.548v0.581h0.548v2.536c0,0.448,0.03,0.742,0.091,0.882c0.061,0.14,0.166,0.253,0.316,0.338
			c0.149,0.086,0.359,0.129,0.63,0.129c0.166,0,0.355-0.022,0.565-0.066l-0.108-0.66C70.611,97.081,70.502,97.091,70.419,97.091
			 M67.203,95.792c0,0.329-0.041,0.578-0.121,0.747c-0.105,0.218-0.27,0.391-0.494,0.517c-0.224,0.125-0.48,0.188-0.768,0.188
			c-0.29,0-0.511-0.066-0.662-0.199c-0.15-0.133-0.226-0.299-0.226-0.498c0-0.13,0.035-0.248,0.104-0.355
			c0.069-0.106,0.167-0.187,0.295-0.243c0.127-0.055,0.344-0.105,0.651-0.149c0.543-0.077,0.949-0.171,1.221-0.282V95.792z
			 M67.414,97.73h0.781c-0.095-0.169-0.158-0.345-0.189-0.529c-0.032-0.184-0.048-0.623-0.048-1.318v-0.996
			c0-0.332-0.013-0.562-0.037-0.689c-0.045-0.205-0.122-0.374-0.233-0.508c-0.111-0.135-0.283-0.246-0.519-0.335
			c-0.235-0.088-0.541-0.132-0.917-0.132c-0.379,0-0.712,0.052-1,0.155c-0.288,0.104-0.508,0.252-0.66,0.444
			c-0.152,0.193-0.262,0.445-0.328,0.758l0.731,0.099c0.08-0.312,0.204-0.53,0.371-0.653s0.427-0.185,0.778-0.185
			c0.376,0,0.66,0.085,0.851,0.253c0.141,0.125,0.212,0.339,0.212,0.644c0,0.027-0.002,0.092-0.004,0.195
			c-0.285,0.099-0.73,0.185-1.333,0.257c-0.296,0.036-0.517,0.073-0.664,0.112c-0.199,0.055-0.378,0.137-0.537,0.245
			c-0.159,0.108-0.288,0.251-0.386,0.429c-0.098,0.179-0.148,0.376-0.148,0.592c0,0.368,0.13,0.67,0.391,0.907
			c0.26,0.236,0.632,0.355,1.116,0.355c0.293,0,0.568-0.049,0.824-0.146c0.256-0.096,0.522-0.262,0.799-0.498
			C67.287,97.394,67.337,97.575,67.414,97.73 M58.252,94.181c0.234-0.229,0.522-0.344,0.866-0.344c0.379,0,0.687,0.144,0.925,0.432
			c0.155,0.185,0.249,0.463,0.282,0.834h-2.461C57.889,94.718,58.018,94.411,58.252,94.181 M59.856,97
			c-0.193,0.143-0.427,0.215-0.701,0.215c-0.368,0-0.675-0.128-0.921-0.386c-0.247-0.257-0.384-0.628-0.411-1.112h3.287
			c0.003-0.088,0.004-0.155,0.004-0.199c0-0.728-0.187-1.292-0.56-1.694c-0.374-0.401-0.855-0.601-1.445-0.601
			c-0.608,0-1.104,0.204-1.486,0.614c-0.381,0.409-0.572,0.985-0.572,1.726c0,0.717,0.189,1.274,0.566,1.671
			c0.378,0.397,0.889,0.596,1.534,0.596c0.512,0,0.932-0.125,1.262-0.374c0.329-0.249,0.554-0.599,0.676-1.05l-0.772-0.095
			C60.204,96.626,60.05,96.856,59.856,97 M55.208,97.73v-2.308c0-0.315,0.041-0.606,0.124-0.871
			c0.056-0.175,0.148-0.311,0.279-0.409c0.13-0.098,0.276-0.147,0.439-0.147c0.183,0,0.366,0.054,0.548,0.162l0.258-0.694
			c-0.26-0.16-0.516-0.24-0.768-0.24c-0.174,0-0.334,0.049-0.48,0.149c-0.145,0.1-0.303,0.306-0.475,0.618v-0.668h-0.672v4.408
			H55.208z M50.601,94.26c0.246-0.279,0.556-0.419,0.93-0.419c0.368,0,0.675,0.141,0.923,0.421c0.248,0.281,0.372,0.694,0.372,1.239
			c0,0.579-0.124,1.009-0.37,1.291c-0.246,0.282-0.555,0.423-0.925,0.423c-0.374,0-0.684-0.14-0.93-0.421
			c-0.246-0.281-0.369-0.703-0.369-1.268C50.232,94.962,50.355,94.54,50.601,94.26 M50.034,97.236
			c0.381,0.396,0.88,0.594,1.497,0.594c0.384,0,0.739-0.09,1.064-0.27s0.573-0.432,0.743-0.758c0.17-0.325,0.255-0.771,0.255-1.338
			c0-0.7-0.192-1.249-0.576-1.646c-0.385-0.397-0.88-0.595-1.486-0.595c-0.545,0-1.007,0.163-1.387,0.489
			c-0.453,0.393-0.68,0.998-0.68,1.814C49.464,96.27,49.654,96.84,50.034,97.236 M43.408,97.73v-2.287
			c0-0.401,0.04-0.708,0.121-0.921c0.08-0.213,0.209-0.375,0.388-0.486c0.178-0.11,0.373-0.166,0.583-0.166
			c0.277,0,0.476,0.083,0.598,0.249c0.121,0.166,0.182,0.415,0.182,0.747v2.864h0.747v-2.561c0-0.454,0.103-0.783,0.307-0.99
			c0.205-0.206,0.462-0.309,0.772-0.309c0.172,0,0.321,0.04,0.449,0.12c0.127,0.081,0.215,0.187,0.263,0.318
			c0.049,0.131,0.073,0.347,0.073,0.645v2.777h0.743v-3.026c0-0.503-0.118-0.876-0.353-1.118c-0.235-0.242-0.571-0.363-1.009-0.363
			c-0.559,0-1.012,0.257-1.361,0.772c-0.086-0.244-0.233-0.433-0.442-0.569c-0.209-0.135-0.477-0.203-0.803-0.203
			c-0.293,0-0.555,0.065-0.784,0.197c-0.23,0.131-0.414,0.305-0.552,0.521v-0.619h-0.669v4.408H43.408z M36.32,97.73v-2.407
			c0-0.565,0.115-0.948,0.346-1.15c0.231-0.202,0.506-0.303,0.824-0.303c0.199,0,0.373,0.045,0.521,0.135
			c0.148,0.09,0.251,0.21,0.309,0.361c0.058,0.151,0.087,0.379,0.087,0.683v2.681h0.747v-2.71c0-0.346-0.014-0.588-0.041-0.727
			c-0.045-0.213-0.122-0.397-0.233-0.552c-0.11-0.154-0.277-0.28-0.5-0.375c-0.223-0.096-0.467-0.143-0.732-0.143
			c-0.612,0-1.079,0.242-1.403,0.726v-0.627h-0.673v4.408H36.32z M33.481,97.73v-2.308c0-0.315,0.041-0.606,0.124-0.871
			c0.055-0.175,0.148-0.311,0.278-0.409c0.13-0.098,0.277-0.147,0.44-0.147c0.183,0,0.365,0.054,0.548,0.162l0.257-0.694
			c-0.26-0.16-0.516-0.24-0.767-0.24c-0.175,0-0.335,0.049-0.48,0.149c-0.145,0.1-0.304,0.306-0.475,0.618v-0.668h-0.672v4.408
			H33.481z M30.829,95.792c0,0.329-0.041,0.578-0.121,0.747c-0.105,0.218-0.27,0.391-0.494,0.517
			c-0.224,0.125-0.48,0.188-0.768,0.188c-0.29,0-0.511-0.066-0.662-0.199c-0.15-0.133-0.226-0.299-0.226-0.498
			c0-0.13,0.035-0.248,0.104-0.355c0.069-0.106,0.167-0.187,0.295-0.243c0.127-0.055,0.344-0.105,0.651-0.149
			c0.543-0.077,0.949-0.171,1.221-0.282V95.792z M31.04,97.73h0.78c-0.094-0.169-0.157-0.345-0.188-0.529
			c-0.032-0.184-0.048-0.623-0.048-1.318v-0.996c0-0.332-0.013-0.562-0.037-0.689c-0.045-0.205-0.122-0.374-0.233-0.508
			c-0.111-0.135-0.284-0.246-0.519-0.335c-0.235-0.088-0.541-0.132-0.917-0.132c-0.379,0-0.712,0.052-1,0.155
			c-0.288,0.104-0.508,0.252-0.66,0.444c-0.152,0.193-0.262,0.445-0.328,0.758l0.731,0.099c0.08-0.312,0.204-0.53,0.371-0.653
			s0.427-0.185,0.778-0.185c0.376,0,0.66,0.085,0.851,0.253c0.141,0.125,0.212,0.339,0.212,0.644c0,0.027-0.002,0.092-0.004,0.195
			c-0.285,0.099-0.73,0.185-1.333,0.257c-0.296,0.036-0.517,0.073-0.664,0.112c-0.199,0.055-0.378,0.137-0.537,0.245
			c-0.159,0.108-0.288,0.251-0.386,0.429c-0.099,0.179-0.148,0.376-0.148,0.592c0,0.368,0.13,0.67,0.391,0.907
			c0.26,0.236,0.632,0.355,1.116,0.355c0.293,0,0.568-0.049,0.824-0.146c0.256-0.096,0.522-0.262,0.799-0.498
			C30.913,97.394,30.963,97.575,31.04,97.73 M24.24,94.181c0.234-0.229,0.522-0.344,0.865-0.344c0.379,0,0.688,0.144,0.926,0.432
			c0.155,0.185,0.249,0.463,0.282,0.834h-2.461C23.877,94.718,24.006,94.411,24.24,94.181 M25.844,97
			c-0.194,0.143-0.428,0.215-0.701,0.215c-0.369,0-0.676-0.128-0.922-0.386c-0.246-0.257-0.383-0.628-0.411-1.112h3.287
			c0.003-0.088,0.004-0.155,0.004-0.199c0-0.728-0.186-1.292-0.56-1.694c-0.373-0.401-0.855-0.601-1.444-0.601
			c-0.609,0-1.104,0.204-1.486,0.614c-0.382,0.409-0.573,0.985-0.573,1.726c0,0.717,0.189,1.274,0.567,1.671
			c0.377,0.397,0.889,0.596,1.533,0.596c0.512,0,0.933-0.125,1.262-0.374c0.329-0.249,0.555-0.599,0.677-1.05l-0.772-0.095
			C26.191,96.626,26.038,96.856,25.844,97 M22.424,97.73v-0.718h-2.997v-5.366h-0.805v6.084H22.424z"/>
		<path class="st1" d="M138.863,78.201c-0.66,0-1.127,0.479-1.127,1.139c0,0.66,0.467,1.139,1.127,1.139
			c0.659,0,1.151-0.479,1.151-1.139C140.014,78.68,139.522,78.201,138.863,78.201 M131.951,76.243c0,1.309,1.091,1.705,1.991,1.897
			c1.009,0.228,1.333,0.276,1.333,0.613c0,0.336-0.36,0.456-0.804,0.456c-0.853,0-1.5-0.3-1.896-0.781l-0.924,1.2
			c0.528,0.672,1.511,0.995,2.664,0.995c1.596,0,2.591-0.575,2.591-1.954c0-1.261-0.875-1.669-1.919-1.885
			c-1.069-0.228-1.393-0.3-1.393-0.601c0-0.276,0.252-0.42,0.769-0.42c0.636,0,1.284,0.24,1.62,0.612l0.887-1.151
			c-0.527-0.54-1.283-0.887-2.387-0.887C132.899,74.337,131.951,75.032,131.951,76.243 M126.743,76.809
			c0.156-0.721,0.648-1.13,1.416-1.13c0.768,0,1.2,0.469,1.284,1.13H126.743z M125.135,77.48c0,1.789,1.188,3.143,3.216,3.143
			c1.152,0,1.896-0.371,2.388-0.791l-0.66-1.308c-0.42,0.372-0.984,0.613-1.704,0.613c-0.708,0-1.416-0.349-1.608-1.154
			l-0.012-0.024h4.416v-0.431c0-1.933-1.128-3.191-2.964-3.191C126.323,74.337,125.135,75.703,125.135,77.48 M120.022,74.481h-1.534
			v5.998h1.582v-2.868c0-1.068,0.384-1.752,1.309-1.752c0.672,0,1.093,0.384,1.093,1.296v3.324h1.618v-3.72
			c0-1.523-0.719-2.422-2.123-2.422c-0.876,0-1.525,0.419-1.945,1.007V74.481z M115.428,80.479h1.583V74.48h-1.583V80.479z
			 M115.212,72.764c0,0.576,0.431,1.007,1.007,1.007c0.576,0,1.019-0.431,1.019-1.007c0-0.576-0.443-1.019-1.019-1.019
			C115.643,71.745,115.212,72.188,115.212,72.764 M112.368,80.479h1.595v-8.398h-1.595V80.479z M105.851,74.481h-1.523v5.998h1.583
			v-2.712c0-1.152,0.456-1.74,1.512-1.74c0.252,0,0.492,0.012,0.72,0.096v-1.702c-0.192-0.048-0.36-0.084-0.588-0.084
			c-0.852,0-1.38,0.419-1.704,1.127V74.481z M98.903,76.809c0.156-0.721,0.648-1.13,1.416-1.13c0.768,0,1.2,0.469,1.284,1.13H98.903
			z M97.295,77.48c0,1.789,1.188,3.143,3.216,3.143c1.152,0,1.896-0.371,2.388-0.791l-0.66-1.308
			c-0.42,0.372-0.984,0.613-1.704,0.613c-0.708,0-1.416-0.349-1.608-1.154l-0.012-0.024h4.416v-0.431
			c0-1.933-1.128-3.191-2.964-3.191C98.483,74.337,97.295,75.703,97.295,77.48 M90.695,80.479l1.512-3.563l1.5,3.563h1.2
			l2.436-5.998h-1.728l-1.332,3.575l-1.44-3.575h-1.284l-1.428,3.575l-1.344-3.575h-1.728l2.436,5.998H90.695z M85.5,77.48
			c0,0.96-0.684,1.597-1.596,1.597c-0.913,0-1.597-0.637-1.597-1.597c0-0.96,0.684-1.597,1.597-1.597
			C84.816,75.883,85.5,76.52,85.5,77.48 M80.676,77.48c0,1.872,1.379,3.143,3.228,3.143c1.848,0,3.227-1.271,3.227-3.143
			c0-1.872-1.379-3.143-3.227-3.143C82.055,74.337,80.676,75.608,80.676,77.48 M75.299,82.879v-3.263
			c0.42,0.576,1.068,1.019,2.017,1.019c1.476,0,2.711-1.139,2.711-3.155c0-2.016-1.247-3.155-2.735-3.155
			c-0.877,0-1.561,0.383-1.993,0.995v-0.839h-1.583v8.398H75.299z M76.824,79.089c-0.901,0-1.573-0.601-1.573-1.609
			c0-0.996,0.672-1.609,1.573-1.609c0.9,0,1.572,0.637,1.572,1.609C78.396,78.452,77.724,79.089,76.824,79.089 M67.332,72.081v3.263
			c-0.42-0.576-1.068-1.019-2.017-1.019c-1.476,0-2.711,1.139-2.711,3.155c0,2.016,1.247,3.155,2.735,3.155
			c0.877,0,1.561-0.383,1.993-0.995v0.839h1.583v-8.398H67.332z M65.808,75.871c0.9,0,1.572,0.601,1.572,1.609
			c0,0.996-0.672,1.609-1.572,1.609c-0.901,0-1.573-0.637-1.573-1.609C64.235,76.508,64.907,75.871,65.808,75.871 M57.539,76.544
			c0.216-0.565,0.876-0.769,1.501-0.769c0.72,0,1.044,0.252,1.044,0.601v0.096c0,0.132-0.108,0.216-0.312,0.24l-1.645,0.144
			c-1.103,0.096-1.919,0.804-1.919,1.885c0,1.103,0.84,1.87,2.027,1.87c0.949,0,1.525-0.455,1.849-0.935v0.815h1.583v-3.707
			c0-1.68-0.863-2.435-2.627-2.435c-1.309,0-2.28,0.443-2.676,1.354L57.539,76.544z M60.084,78.056c0,0.661-0.54,1.237-1.38,1.237
			c-0.565,0-0.853-0.252-0.853-0.637c0-0.336,0.252-0.576,0.744-0.66l1.489-0.18V78.056z M51.132,76.809
			c0.156-0.721,0.648-1.13,1.416-1.13c0.768,0,1.2,0.469,1.284,1.13H51.132z M49.524,77.48c0,1.789,1.188,3.143,3.216,3.143
			c1.152,0,1.896-0.371,2.388-0.791l-0.66-1.308c-0.42,0.372-0.984,0.613-1.704,0.613c-0.708,0-1.416-0.349-1.608-1.154
			l-0.012-0.024h4.416v-0.431c0-1.933-1.128-3.191-2.964-3.191C50.712,74.337,49.524,75.703,49.524,77.48 M42.925,72.081v8.398
			h1.582v-2.868c0-1.068,0.396-1.752,1.309-1.752c0.708,0,1.093,0.432,1.093,1.296v3.324h1.618v-3.72
			c0-1.523-0.719-2.422-2.123-2.422c-0.9,0-1.501,0.395-1.897,1.007v-3.263H42.925z M39.815,74.481h-1.522v5.998h1.582v-2.712
			c0-1.152,0.456-1.74,1.512-1.74c0.252,0,0.492,0.012,0.72,0.096v-1.702c-0.192-0.048-0.36-0.084-0.588-0.084
			c-0.852,0-1.38,0.419-1.704,1.127V74.481z M32.868,76.809c0.156-0.721,0.648-1.13,1.416-1.13c0.768,0,1.2,0.469,1.284,1.13H32.868
			z M31.26,77.48c0,1.789,1.188,3.143,3.216,3.143c1.152,0,1.896-0.371,2.388-0.791l-0.66-1.308
			c-0.42,0.372-0.984,0.613-1.704,0.613c-0.708,0-1.416-0.349-1.608-1.154l-0.012-0.024h4.416v-0.431
			c0-1.933-1.128-3.191-2.964-3.191C32.448,74.337,31.26,75.703,31.26,77.48 M28.608,80.479l2.7-5.998h-1.764L28.008,78.2
			l-1.524-3.719h-1.776l2.7,5.998H28.608z M23.149,77.48c0,0.96-0.684,1.597-1.597,1.597c-0.912,0-1.597-0.637-1.597-1.597
			c0-0.96,0.685-1.597,1.597-1.597C22.465,75.883,23.149,76.52,23.149,77.48 M18.325,77.48c0,1.872,1.379,3.143,3.227,3.143
			c1.849,0,3.227-1.271,3.227-3.143c0-1.872-1.378-3.143-3.227-3.143C19.704,74.337,18.325,75.608,18.325,77.48"/>
		<path class="st1" d="M195.214,61.451c-0.347-0.743-0.959-1.115-1.859-1.115c-0.948,0-1.501,0.444-1.873,1.019V60.48h-1.534v5.999
			h1.582v-2.868c0-1.008,0.336-1.752,1.297-1.752c0.732,0,1.093,0.432,1.093,1.296v3.324h1.582v-2.868
			c0-1.008,0.36-1.752,1.321-1.752c0.72,0,1.081,0.432,1.081,1.296v3.324h1.594v-3.648c0-1.572-0.863-2.495-2.267-2.495
			C196.223,60.336,195.586,60.792,195.214,61.451 M187.296,63.48c0,0.96-0.685,1.596-1.597,1.596s-1.597-0.636-1.597-1.596
			c0-0.961,0.685-1.597,1.597-1.597S187.296,62.519,187.296,63.48 M182.472,63.48c0,1.872,1.378,3.143,3.227,3.143
			c1.848,0,3.227-1.271,3.227-3.143c0-1.873-1.379-3.144-3.227-3.144C183.85,60.336,182.472,61.607,182.472,63.48 M179.962,60.48
			h-1.522v5.999h1.582v-2.712c0-1.152,0.456-1.74,1.512-1.74c0.252,0,0.492,0.012,0.72,0.096V60.42
			c-0.192-0.048-0.36-0.084-0.588-0.084c-0.852,0-1.38,0.42-1.704,1.127V60.48z M177.502,61.811V60.48h-1.704v-0.132
			c0-0.625,0.216-0.925,0.852-0.925c0.276,0,0.54,0.036,0.912,0.096v-1.463c-0.396-0.06-0.732-0.108-1.176-0.108
			c-1.235,0-2.17,0.672-2.17,2.232v0.3h-1.212v1.331h1.212v4.668h1.582v-4.668H177.502z M165.983,68.879l3.78-8.399h-1.68
			l-1.476,3.288l-1.536-3.288h-1.848l2.544,5.135l-1.464,3.264H165.983z M158.831,62.543c0.216-0.564,0.876-0.768,1.5-0.768
			c0.721,0,1.045,0.252,1.045,0.6v0.096c0,0.132-0.108,0.216-0.312,0.24l-1.645,0.144c-1.104,0.096-1.919,0.805-1.919,1.885
			c0,1.104,0.839,1.871,2.027,1.871c0.948,0,1.525-0.456,1.849-0.935v0.815h1.583v-3.708c0-1.679-0.864-2.435-2.628-2.435
			c-1.308,0-2.28,0.444-2.675,1.355L158.831,62.543z M161.376,64.056c0,0.66-0.54,1.236-1.381,1.236
			c-0.564,0-0.852-0.252-0.852-0.636c0-0.336,0.252-0.576,0.744-0.66l1.489-0.18V64.056z M150.767,66.479l1.512-3.563l1.5,3.563h1.2
			l2.436-5.999h-1.728l-1.332,3.575l-1.44-3.575h-1.284l-1.428,3.575l-1.344-3.575h-1.728l2.436,5.999H150.767z M142.739,62.543
			c0.216-0.564,0.876-0.768,1.5-0.768c0.721,0,1.045,0.252,1.045,0.6v0.096c0,0.132-0.108,0.216-0.312,0.24l-1.645,0.144
			c-1.104,0.096-1.919,0.805-1.919,1.885c0,1.104,0.839,1.871,2.027,1.871c0.948,0,1.525-0.456,1.849-0.935v0.815h1.582v-3.708
			c0-1.679-0.863-2.435-2.627-2.435c-1.308,0-2.28,0.444-2.675,1.355L142.739,62.543z M145.284,64.056
			c0,0.66-0.54,1.236-1.381,1.236c-0.564,0-0.853-0.252-0.853-0.636c0-0.336,0.253-0.576,0.745-0.66l1.489-0.18V64.056z
			 M132.624,62.243c0,1.309,1.091,1.705,1.991,1.897c1.009,0.228,1.333,0.276,1.333,0.612s-0.36,0.456-0.805,0.456
			c-0.853,0-1.5-0.3-1.896-0.78l-0.923,1.2c0.528,0.671,1.511,0.995,2.663,0.995c1.596,0,2.591-0.576,2.591-1.955
			c0-1.26-0.875-1.669-1.918-1.885c-1.069-0.228-1.394-0.3-1.394-0.6c0-0.276,0.253-0.42,0.769-0.42c0.637,0,1.285,0.24,1.62,0.612
			l0.887-1.152c-0.527-0.539-1.282-0.887-2.387-0.887C133.571,60.336,132.624,61.032,132.624,62.243 M127.415,62.808
			c0.156-0.721,0.648-1.129,1.416-1.129c0.768,0,1.2,0.468,1.284,1.129H127.415z M125.807,63.479c0,1.789,1.188,3.144,3.216,3.144
			c1.152,0,1.896-0.372,2.388-0.791l-0.66-1.308c-0.42,0.372-0.984,0.612-1.704,0.612c-0.708,0-1.416-0.348-1.608-1.153
			l-0.012-0.024h4.416v-0.432c0-1.932-1.128-3.191-2.964-3.191C126.995,60.336,125.807,61.703,125.807,63.479 M123.299,60.48h-1.523
			v5.999h1.583v-2.712c0-1.152,0.456-1.74,1.512-1.74c0.252,0,0.492,0.012,0.72,0.096V60.42c-0.192-0.048-0.36-0.084-0.588-0.084
			c-0.852,0-1.38,0.42-1.704,1.127V60.48z M120.647,64.86c-0.432,0.084-0.636,0.096-0.876,0.096c-0.42,0-0.6-0.156-0.6-0.54v-2.605
			h1.524V60.48h-1.524v-1.608h-1.583v1.608h-1.092v1.331h1.092v2.833c0,1.379,0.647,1.895,1.763,1.895
			c0.396,0,0.852-0.072,1.296-0.18V64.86z M111.623,62.808c0.156-0.721,0.648-1.129,1.416-1.129s1.2,0.468,1.284,1.129H111.623z
			 M110.015,63.479c0,1.789,1.188,3.144,3.216,3.144c1.152,0,1.896-0.372,2.388-0.791l-0.66-1.308
			c-0.42,0.372-0.984,0.612-1.704,0.612c-0.708,0-1.416-0.348-1.608-1.153l-0.012-0.024h4.416v-0.432
			c0-1.932-1.128-3.191-2.964-3.191C111.203,60.336,110.015,61.703,110.015,63.479 M104.687,61.451
			c-0.348-0.743-0.959-1.115-1.859-1.115c-0.949,0-1.501,0.444-1.873,1.019V60.48H99.42v5.999h1.583v-2.868
			c0-1.008,0.336-1.752,1.297-1.752c0.732,0,1.092,0.432,1.092,1.296v3.324h1.583v-2.868c0-1.008,0.36-1.752,1.321-1.752
			c0.72,0,1.08,0.432,1.08,1.296v3.324h1.595v-3.648c0-1.572-0.863-2.495-2.267-2.495C105.695,60.336,105.059,60.792,104.687,61.451
			 M90.144,60.708c0.384-0.625,1.008-0.949,1.62-0.949c0.708,0,1.152,0.312,1.152,0.841c0,0.516-0.408,0.84-1.116,0.852h-0.636
			v1.643H91.8c0.708,0.012,1.116,0.336,1.116,0.853c0,0.54-0.432,0.852-1.152,0.852c-0.624,0-1.248-0.3-1.62-0.961l-1.152,1.249
			c0.444,0.779,1.428,1.391,2.76,1.391c1.788,0,2.843-0.935,2.843-2.327c0-1.033-0.576-1.621-1.175-1.872
			c0.587-0.228,1.175-0.852,1.175-1.873c0-1.344-1.055-2.327-2.843-2.327c-1.308,0-2.304,0.624-2.748,1.355L90.144,60.708z
			 M84.779,64.86c-0.432,0.084-0.636,0.096-0.876,0.096c-0.42,0-0.6-0.156-0.6-0.54v-2.605h1.524V60.48h-1.524v-1.608H81.72v1.608
			h-1.092v1.331h1.092v2.833c0,1.379,0.648,1.895,1.763,1.895c0.396,0,0.852-0.072,1.296-0.18V64.86z M75.3,62.243
			c0,1.309,1.092,1.705,1.991,1.897c1.009,0.228,1.334,0.276,1.334,0.612s-0.361,0.456-0.805,0.456c-0.853,0-1.5-0.3-1.896-0.78
			L75,65.628c0.528,0.671,1.511,0.995,2.664,0.995c1.596,0,2.591-0.576,2.591-1.955c0-1.26-0.875-1.669-1.919-1.885
			c-1.069-0.228-1.393-0.3-1.393-0.6c0-0.276,0.252-0.42,0.769-0.42c0.636,0,1.284,0.24,1.62,0.612l0.887-1.152
			c-0.527-0.539-1.283-0.887-2.387-0.887C76.248,60.336,75.3,61.032,75.3,62.243 M69.971,62.543
			c0.216-0.564,0.876-0.768,1.501-0.768c0.72,0,1.045,0.252,1.045,0.6v0.096c0,0.132-0.109,0.216-0.313,0.24l-1.645,0.144
			c-1.103,0.096-1.918,0.805-1.918,1.885c0,1.104,0.839,1.871,2.026,1.871c0.949,0,1.525-0.456,1.85-0.935v0.815h1.582v-3.708
			c0-1.679-0.863-2.435-2.627-2.435c-1.309,0-2.28,0.444-2.676,1.355L69.971,62.543z M72.517,64.056c0,0.66-0.541,1.236-1.381,1.236
			c-0.565,0-0.853-0.252-0.853-0.636c0-0.336,0.252-0.576,0.745-0.66l1.489-0.18V64.056z M63.564,62.808
			c0.156-0.721,0.648-1.129,1.416-1.129s1.2,0.468,1.284,1.129H63.564z M61.956,63.479c0,1.789,1.188,3.144,3.216,3.144
			c1.152,0,1.896-0.372,2.388-0.791l-0.66-1.308c-0.42,0.372-0.984,0.612-1.704,0.612c-0.708,0-1.416-0.348-1.608-1.153
			l-0.012-0.024h4.416v-0.432c0-1.932-1.128-3.191-2.964-3.191C63.144,60.336,61.956,61.703,61.956,63.479 M59.353,66.479h1.594
			v-8.398h-1.594V66.479z M54.815,64.86c-0.432,0.084-0.636,0.096-0.876,0.096c-0.42,0-0.6-0.156-0.6-0.54v-2.605h1.524V60.48
			h-1.524v-1.608h-1.582v1.608h-1.092v1.331h1.092v2.833c0,1.379,0.647,1.895,1.762,1.895c0.396,0,0.852-0.072,1.296-0.18V64.86z
			 M45.768,62.543c0.216-0.564,0.876-0.768,1.5-0.768c0.721,0,1.045,0.252,1.045,0.6v0.096c0,0.132-0.108,0.216-0.312,0.24
			l-1.645,0.144c-1.104,0.096-1.919,0.805-1.919,1.885c0,1.104,0.839,1.871,2.027,1.871c0.948,0,1.525-0.456,1.849-0.935v0.815
			h1.582v-3.708c0-1.679-0.863-2.435-2.627-2.435c-1.308,0-2.28,0.444-2.675,1.355L45.768,62.543z M48.313,64.056
			c0,0.66-0.54,1.236-1.381,1.236c-0.564,0-0.853-0.252-0.853-0.636c0-0.336,0.253-0.576,0.745-0.66l1.489-0.18V64.056z
			 M37.176,68.879l3.78-8.399h-1.68L37.8,63.768l-1.536-3.288h-1.848l2.544,5.135l-1.464,3.264H37.176z M30.024,62.543
			c0.216-0.564,0.876-0.768,1.5-0.768c0.721,0,1.045,0.252,1.045,0.6v0.096c0,0.132-0.108,0.216-0.312,0.24l-1.645,0.144
			c-1.104,0.096-1.919,0.805-1.919,1.885c0,1.104,0.839,1.871,2.027,1.871c0.948,0,1.525-0.456,1.849-0.935v0.815h1.582v-3.708
			c0-1.679-0.863-2.435-2.627-2.435c-1.308,0-2.28,0.444-2.675,1.355L30.024,62.543z M32.569,64.056c0,0.66-0.54,1.236-1.381,1.236
			c-0.564,0-0.852-0.252-0.852-0.636c0-0.336,0.252-0.576,0.744-0.66l1.489-0.18V64.056z M28.031,64.86
			c-0.432,0.084-0.636,0.096-0.876,0.096c-0.42,0-0.6-0.156-0.6-0.54v-2.605h1.524V60.48h-1.524v-1.608h-1.582v1.608h-1.092v1.331
			h1.092v2.833c0,1.379,0.647,1.895,1.762,1.895c0.396,0,0.852-0.072,1.296-0.18V64.86z M18.553,62.243
			c0,1.309,1.091,1.705,1.991,1.897c1.009,0.228,1.333,0.276,1.333,0.612s-0.36,0.456-0.805,0.456c-0.852,0-1.5-0.3-1.896-0.78
			l-0.923,1.2c0.528,0.671,1.511,0.995,2.663,0.995c1.596,0,2.591-0.576,2.591-1.955c0-1.26-0.875-1.669-1.918-1.885
			c-1.069-0.228-1.393-0.3-1.393-0.6c0-0.276,0.252-0.42,0.768-0.42c0.637,0,1.285,0.24,1.62,0.612l0.888-1.152
			c-0.528-0.539-1.283-0.887-2.388-0.887C19.5,60.336,18.553,61.032,18.553,62.243"/>
		<path class="st1" d="M216.622,54.219l1.236,0.66l2.208-3.959l-1.236-0.683L216.622,54.219z M212.338,48.809
			c0.156-0.721,0.648-1.13,1.416-1.13s1.2,0.469,1.284,1.13H212.338z M210.73,49.48c0,1.788,1.188,3.143,3.216,3.143
			c1.152,0,1.896-0.372,2.388-0.791l-0.66-1.308c-0.42,0.372-0.984,0.613-1.704,0.613c-0.708,0-1.416-0.349-1.608-1.154
			l-0.012-0.024h4.416v-0.431c0-1.933-1.128-3.191-2.964-3.191C211.918,46.337,210.73,47.703,210.73,49.48 M208.126,44.081v3.263
			c-0.42-0.576-1.068-1.019-2.017-1.019c-1.476,0-2.711,1.138-2.711,3.155c0,2.016,1.247,3.155,2.735,3.155
			c0.877,0,1.561-0.384,1.993-0.995v0.839h1.583v-8.398H208.126z M206.602,47.871c0.9,0,1.572,0.6,1.572,1.609
			c0,0.996-0.672,1.609-1.572,1.609c-0.901,0-1.573-0.637-1.573-1.609C205.029,48.507,205.701,47.871,206.602,47.871 M200.71,52.479
			h1.583V46.48h-1.583V52.479z M200.494,44.764c0,0.575,0.432,1.007,1.008,1.007c0.575,0,1.019-0.432,1.019-1.007
			c0-0.576-0.444-1.019-1.019-1.019C200.926,43.745,200.494,44.188,200.494,44.764 M194.747,48.243c0,1.309,1.091,1.705,1.99,1.897
			c1.009,0.228,1.334,0.276,1.334,0.612c0,0.336-0.361,0.457-0.805,0.457c-0.853,0-1.5-0.301-1.896-0.781l-0.923,1.2
			c0.527,0.671,1.51,0.995,2.663,0.995c1.596,0,2.591-0.575,2.591-1.955c0-1.26-0.875-1.668-1.919-1.885
			c-1.069-0.228-1.393-0.3-1.393-0.6c0-0.276,0.252-0.42,0.769-0.42c0.636,0,1.284,0.24,1.62,0.612l0.887-1.151
			c-0.527-0.54-1.283-0.887-2.387-0.887C195.694,46.337,194.747,47.032,194.747,48.243 M193.761,50.86
			c-0.432,0.085-0.636,0.097-0.876,0.097c-0.42,0-0.6-0.157-0.6-0.541v-2.605h1.524v-1.33h-1.524v-1.608h-1.582v1.608h-1.092v1.33
			h1.092v2.833c0,1.379,0.647,1.895,1.762,1.895c0.396,0,0.852-0.072,1.296-0.18V50.86z M187.151,46.481v2.868
			c0,1.044-0.397,1.752-1.297,1.752c-0.709,0-1.009-0.42-1.009-1.284v-3.336h-1.618v3.732c0,1.475,0.683,2.41,2.075,2.41
			c0.912,0,1.488-0.444,1.909-1.055v0.911h1.534v-5.998H187.151z M180.575,49.48c0,0.96-0.685,1.597-1.597,1.597
			s-1.597-0.637-1.597-1.597c0-0.961,0.685-1.597,1.597-1.597S180.575,48.519,180.575,49.48 M175.751,49.48
			c0,1.872,1.379,3.143,3.227,3.143c1.849,0,3.227-1.271,3.227-3.143c0-1.873-1.378-3.143-3.227-3.143
			C177.13,46.337,175.751,47.607,175.751,49.48 M164.987,49.456c0,1.98,1.223,3.083,2.819,3.083c0.864,0,1.537-0.36,1.933-0.923V52
			c0,0.863-0.42,1.549-1.765,1.549c-0.732,0-1.297-0.265-1.812-0.758l-0.779,1.309c0.623,0.575,1.439,0.935,2.651,0.935
			c2.52,0,3.263-1.415,3.263-2.952v-5.602h-1.582v0.839c-0.336-0.54-1.033-0.983-1.957-0.983
			C166.27,46.337,164.987,47.439,164.987,49.456 M169.751,49.48c0,0.996-0.648,1.609-1.561,1.609c-0.9,0-1.573-0.637-1.573-1.609
			c0-0.973,0.673-1.609,1.573-1.609C169.103,47.871,169.751,48.471,169.751,49.48 M159.826,46.481h-1.535v5.998h1.583v-2.868
			c0-1.068,0.384-1.752,1.308-1.752c0.673,0,1.093,0.384,1.093,1.296v3.324h1.619v-3.72c0-1.523-0.72-2.422-2.123-2.422
			c-0.877,0-1.525,0.419-1.945,1.007V46.481z M155.231,52.479h1.583V46.48h-1.583V52.479z M155.015,44.764
			c0,0.575,0.432,1.007,1.007,1.007c0.576,0,1.02-0.432,1.02-1.007c0-0.576-0.444-1.019-1.02-1.019
			C155.447,43.745,155.015,44.188,155.015,44.764 M150.718,54.879l3.78-8.398h-1.68l-1.476,3.287l-1.536-3.287h-1.848l2.544,5.135
			l-1.464,3.263H150.718z M143.566,48.543c0.216-0.564,0.876-0.768,1.5-0.768c0.721,0,1.045,0.252,1.045,0.6v0.096
			c0,0.132-0.108,0.216-0.312,0.24l-1.645,0.144c-1.104,0.097-1.919,0.805-1.919,1.885c0,1.104,0.839,1.871,2.027,1.871
			c0.949,0,1.525-0.455,1.849-0.935v0.815h1.583v-3.708c0-1.679-0.864-2.434-2.628-2.434c-1.308,0-2.279,0.443-2.675,1.354
			L143.566,48.543z M146.111,50.056c0,0.66-0.54,1.237-1.381,1.237c-0.564,0-0.852-0.253-0.852-0.637
			c0-0.336,0.252-0.576,0.744-0.66l1.489-0.18V50.056z M139.607,52.479h1.595v-8.398h-1.595V52.479z M133.858,54.879v-3.263
			c0.42,0.575,1.068,1.019,2.017,1.019c1.476,0,2.711-1.139,2.711-3.155c0-2.017-1.247-3.155-2.735-3.155
			c-0.877,0-1.561,0.383-1.993,0.995v-0.839h-1.583v8.398H133.858z M135.383,51.089c-0.901,0-1.573-0.601-1.573-1.609
			c0-0.997,0.672-1.609,1.573-1.609c0.9,0,1.572,0.636,1.572,1.609C136.955,50.452,136.283,51.089,135.383,51.089 M125.758,46.481
			h-1.522v5.998h1.582v-2.712c0-1.152,0.456-1.74,1.512-1.74c0.252,0,0.492,0.012,0.72,0.096v-1.702
			c-0.192-0.049-0.36-0.084-0.588-0.084c-0.852,0-1.38,0.419-1.704,1.127V46.481z M121.584,49.48c0,0.96-0.685,1.597-1.597,1.597
			s-1.597-0.637-1.597-1.597c0-0.961,0.685-1.597,1.597-1.597S121.584,48.519,121.584,49.48 M116.76,49.48
			c0,1.872,1.378,3.143,3.227,3.143c1.848,0,3.227-1.271,3.227-3.143c0-1.873-1.379-3.143-3.227-3.143
			C118.138,46.337,116.76,47.607,116.76,49.48 M105.996,49.456c0,1.98,1.223,3.083,2.819,3.083c0.864,0,1.537-0.36,1.933-0.923V52
			c0,0.863-0.42,1.549-1.765,1.549c-0.732,0-1.297-0.265-1.812-0.758l-0.78,1.309c0.624,0.575,1.439,0.935,2.652,0.935
			c2.52,0,3.263-1.415,3.263-2.952v-5.602h-1.582v0.839c-0.336-0.54-1.033-0.983-1.957-0.983
			C107.279,46.337,105.996,47.439,105.996,49.456 M110.76,49.48c0,0.996-0.648,1.609-1.561,1.609c-0.9,0-1.573-0.637-1.573-1.609
			c0-0.973,0.673-1.609,1.573-1.609C110.112,47.871,110.76,48.471,110.76,49.48 M100.835,46.481H99.3v5.998h1.582v-2.868
			c0-1.068,0.385-1.752,1.309-1.752c0.673,0,1.093,0.384,1.093,1.296v3.324h1.618v-3.72c0-1.523-0.719-2.422-2.122-2.422
			c-0.877,0-1.525,0.419-1.945,1.007V46.481z M96.24,52.479h1.583V46.48H96.24V52.479z M96.024,44.764
			c0,0.575,0.432,1.007,1.007,1.007c0.576,0,1.02-0.432,1.02-1.007c0-0.576-0.444-1.019-1.02-1.019
			C96.456,43.745,96.024,44.188,96.024,44.764 M93.442,52.479h2.04l-2.58-3.419l2.58-2.579h-2.1l-2.172,2.303v-4.703h-1.582v8.398
			h1.582v-1.74l0.624-0.611L93.442,52.479z M86.519,46.481h-1.523v5.998h1.583v-2.712c0-1.152,0.456-1.74,1.512-1.74
			c0.252,0,0.492,0.012,0.72,0.096v-1.702c-0.192-0.049-0.36-0.084-0.588-0.084c-0.852,0-1.38,0.419-1.704,1.127V46.481z
			 M82.344,49.48c0,0.96-0.684,1.597-1.597,1.597c-0.912,0-1.596-0.637-1.596-1.597c0-0.961,0.684-1.597,1.596-1.597
			C81.66,47.883,82.344,48.519,82.344,49.48 M77.52,49.48c0,1.872,1.379,3.143,3.227,3.143c1.849,0,3.228-1.271,3.228-3.143
			c0-1.873-1.379-3.143-3.228-3.143C78.899,46.337,77.52,47.607,77.52,49.48 M70.919,52.479l1.512-3.563l1.5,3.563h1.2l2.436-5.998
			h-1.728l-1.332,3.575l-1.44-3.575h-1.284l-1.428,3.575l-1.344-3.575h-1.728l2.436,5.998H70.919z M59.184,48.809
			c0.156-0.721,0.648-1.13,1.416-1.13c0.768,0,1.2,0.469,1.284,1.13H59.184z M57.576,49.48c0,1.788,1.188,3.143,3.216,3.143
			c1.152,0,1.896-0.372,2.388-0.791l-0.66-1.308c-0.42,0.372-0.984,0.613-1.704,0.613c-0.708,0-1.416-0.349-1.608-1.154
			l-0.012-0.024h4.416v-0.431c0-1.933-1.128-3.191-2.964-3.191C58.764,46.337,57.576,47.703,57.576,49.48 M55.067,46.481h-1.523
			v5.998h1.583v-2.712c0-1.152,0.456-1.74,1.512-1.74c0.252,0,0.492,0.012,0.72,0.096v-1.702c-0.192-0.049-0.36-0.084-0.588-0.084
			c-0.852,0-1.38,0.419-1.704,1.127V46.481z M51.072,47.967l1.403-2.279c0.132-0.18,0.204-0.384,0.204-0.624
			c0-0.612-0.48-1.127-1.115-1.127c-0.636,0-1.116,0.515-1.116,1.127c0,0.468,0.276,0.852,0.672,1.032l-0.864,1.415L51.072,47.967z
			 M47.556,46.481v2.868c0,1.044-0.396,1.752-1.296,1.752c-0.709,0-1.009-0.42-1.009-1.284v-3.336h-1.619v3.732
			c0,1.475,0.684,2.41,2.075,2.41c0.913,0,1.489-0.444,1.909-1.055v0.911h1.535v-5.998H47.556z M40.98,49.48
			c0,0.96-0.684,1.597-1.596,1.597c-0.913,0-1.597-0.637-1.597-1.597c0-0.961,0.684-1.597,1.597-1.597
			C40.296,47.883,40.98,48.519,40.98,49.48 M36.156,49.48c0,1.872,1.379,3.143,3.228,3.143c1.848,0,3.227-1.271,3.227-3.143
			c0-1.873-1.379-3.143-3.227-3.143C37.535,46.337,36.156,47.607,36.156,49.48 M32.436,54.879l3.78-8.398h-1.68l-1.476,3.287
			l-1.536-3.287h-1.848l2.544,5.135l-1.464,3.263H32.436z M26.063,47.811v-1.33h-1.704v-0.133c0-0.625,0.216-0.925,0.852-0.925
			c0.276,0,0.54,0.036,0.912,0.096v-1.463c-0.396-0.06-0.732-0.107-1.176-0.107c-1.235,0-2.17,0.671-2.17,2.231v0.301h-1.212v1.33
			h1.212v4.668h1.582v-4.668H26.063z M18.889,52.479h1.678v-8.398h-1.678V52.479z"/>
		<path class="st1" d="M248.705,23.98h-3.08v10h3.2v-4.42c0-1.76,0.84-2.4,2.28-2.4c0.46,0,0.92,0.06,1.3,0.2V23.9
			c-0.3-0.1-0.58-0.16-0.96-0.16c-1.42,0-2.24,0.78-2.74,1.98V23.98z M236.125,27.64c0.48-0.8,1.62-0.98,2.44-0.98
			c1.02,0,1.46,0.24,1.46,0.62v0.08c0,0.18-0.14,0.28-0.44,0.32l-2.7,0.24c-1.86,0.16-3.18,1.34-3.18,3.16
			c0,1.9,1.48,3.12,3.36,3.12c1.62,0,2.54-0.82,2.96-1.52V34h3.2v-5.96c0-3.04-1.58-4.28-4.6-4.28c-2.06,0-3.94,0.62-4.74,2.12
			L236.125,27.64z M240.025,29.94c0,1.02-0.76,1.74-1.88,1.74c-0.74,0-1.14-0.3-1.14-0.84c0-0.48,0.34-0.76,1-0.84l2.02-0.24V29.94z
			 M225.446,27.72c0.3-0.96,1-1.34,1.88-1.34c0.98,0,1.6,0.6,1.7,1.34H225.446z M222.246,28.92c0,2.88,1.92,5.3,5.52,5.3
			c1.98,0,3.12-0.48,3.98-1.04l-1.24-2.68c-0.7,0.46-1.6,0.72-2.64,0.72c-0.84,0-1.84-0.3-2.32-1.22l-0.02-0.04h6.98V29.1
			c0-3.38-2.02-5.36-5.02-5.36C224.286,23.74,222.246,25.96,222.246,28.92 M217.246,33.98h3.2v-14h-3.2V33.98z M206.366,28.98
			c0,3.26,2.38,5.24,5.4,5.24c1.66,0,3-0.58,3.88-1.46l-1.72-2.6c-0.48,0.54-1.16,0.92-2.1,0.92c-1.26,0-2.18-0.84-2.18-2.1
			c0-1.26,0.92-2.1,2.18-2.1c0.94,0,1.62,0.38,2.1,0.92l1.72-2.6c-0.88-0.88-2.22-1.46-3.88-1.46
			C208.746,23.74,206.366,25.72,206.366,28.98 M194.309,37.98l6.2-14h-3.38l-2.1,4.76l-2.16-4.76h-3.66l4.16,8.5l-2.42,5.5H194.309z
			 M181.609,27.64c0.48-0.8,1.62-0.98,2.44-0.98c1.02,0,1.46,0.24,1.46,0.62v0.08c0,0.18-0.14,0.28-0.44,0.32l-2.7,0.24
			c-1.86,0.16-3.18,1.34-3.18,3.16c0,1.9,1.48,3.12,3.36,3.12c1.62,0,2.54-0.82,2.96-1.52V34h3.2v-5.96c0-3.04-1.58-4.28-4.6-4.28
			c-2.06,0-3.94,0.62-4.74,2.12L181.609,27.64z M185.509,29.94c0,1.02-0.76,1.74-1.88,1.74c-0.74,0-1.14-0.3-1.14-0.84
			c0-0.48,0.34-0.76,1-0.84l2.02-0.24V29.94z M177.849,30.66c-0.82,0.14-1.12,0.16-1.36,0.16c-0.58,0-0.92-0.16-0.92-0.72v-3.48
			h2.42v-2.64h-2.42V21.3h-3.2v2.68h-1.72v2.64h1.72v4.14c0,2.38,1.16,3.32,3.06,3.32c0.66,0,1.56-0.12,2.42-0.34V30.66z
			 M161.249,27.06c0,2.18,1.68,2.92,3.06,3.24c1.86,0.42,2.2,0.44,2.2,0.72c0,0.34-0.48,0.38-0.88,0.38c-1.52,0-2.54-0.54-3.24-1.1
			l-1.6,2.68c0.94,0.8,2.5,1.24,4.44,1.24c2.96,0,4.62-1,4.62-3.34c0-1.98-1.18-2.84-2.96-3.22c-2.04-0.44-2.3-0.46-2.3-0.72
			c0-0.22,0.22-0.36,0.86-0.36c0.86,0,2.14,0.28,2.78,0.76l1.52-2.54c-0.96-0.62-2.24-1.06-4-1.06
			C162.929,23.74,161.249,24.88,161.249,27.06 M147.392,36.68l2.46,1.3l3.8-6.84l-2.46-1.34L147.392,36.68z M144.292,23.98h-3.08v10
			h3.2v-4.42c0-1.76,0.84-2.4,2.28-2.4c0.46,0,0.92,0.06,1.3,0.2V23.9c-0.3-0.1-0.58-0.16-0.96-0.16c-1.42,0-2.24,0.78-2.74,1.98
			V23.98z M131.712,27.64c0.48-0.8,1.62-0.98,2.44-0.98c1.02,0,1.46,0.24,1.46,0.62v0.08c0,0.18-0.14,0.28-0.44,0.32l-2.7,0.24
			c-1.86,0.16-3.18,1.34-3.18,3.16c0,1.9,1.48,3.12,3.36,3.12c1.62,0,2.54-0.82,2.96-1.52V34h3.2v-5.96c0-3.04-1.58-4.28-4.6-4.28
			c-2.06,0-3.94,0.62-4.74,2.12L131.712,27.64z M135.612,29.94c0,1.02-0.76,1.74-1.88,1.74c-0.74,0-1.14-0.3-1.14-0.84
			c0-0.48,0.34-0.76,1-0.84l2.02-0.24V29.94z M121.033,27.72c0.3-0.96,1-1.34,1.88-1.34c0.98,0,1.6,0.6,1.7,1.34H121.033z
			 M117.833,28.92c0,2.88,1.92,5.3,5.52,5.3c1.98,0,3.12-0.48,3.98-1.04l-1.24-2.68c-0.7,0.46-1.6,0.72-2.64,0.72
			c-0.84,0-1.84-0.3-2.32-1.22l-0.02-0.04h6.98V29.1c0-3.38-2.02-5.36-5.02-5.36C119.873,23.74,117.833,25.96,117.833,28.92
			 M109.353,23.98h-3.12v10h3.2v-4.86c0-1.52,0.68-2.28,1.74-2.28c0.96,0,1.52,0.5,1.52,1.84v5.3h3.24v-6.4
			c0-2.48-1.16-3.84-3.38-3.84c-1.56,0-2.58,0.84-3.2,1.74V23.98z M91.516,27.72c0.3-0.96,1-1.34,1.88-1.34c0.98,0,1.6,0.6,1.7,1.34
			H91.516z M88.316,28.92c0,2.88,1.92,5.3,5.52,5.3c1.98,0,3.12-0.48,3.98-1.04l-1.24-2.68c-0.7,0.46-1.6,0.72-2.64,0.72
			c-0.84,0-1.84-0.3-2.32-1.22l-0.02-0.04h6.98V29.1c0-3.38-2.02-5.36-5.02-5.36C90.356,23.74,88.316,25.96,88.316,28.92
			 M83.916,23.98h-3.08v10h3.2v-4.42c0-1.76,0.84-2.4,2.28-2.4c0.46,0,0.92,0.06,1.3,0.2V23.9c-0.3-0.1-0.58-0.16-0.96-0.16
			c-1.42,0-2.24,0.78-2.74,1.98V23.98z M76.416,26.94l2.5-3.84c0.28-0.36,0.42-0.78,0.42-1.26c0-1.14-0.9-2.1-2.08-2.1
			s-2.08,0.96-2.08,2.1c0,0.8,0.42,1.5,1.12,1.88l-1.46,2.32L76.416,26.94z M69.416,23.98v4.86c0,1.52-0.72,2.28-1.74,2.28
			c-0.78,0-1.32-0.44-1.32-1.78v-5.36h-3.28v6.4c0,2.48,1.24,3.84,3.32,3.84c1.52,0,2.52-0.84,3.14-1.8v1.56h3.1v-10H69.416z
			 M57.997,28.98c0,1.34-1.02,2.1-2.18,2.1s-2.18-0.76-2.18-2.1s1.02-2.1,2.18-2.1S57.997,27.64,57.997,28.98 M50.357,28.98
			c0,3.2,2.34,5.24,5.46,5.24c3.12,0,5.46-2.04,5.46-5.24s-2.34-5.24-5.46-5.24C52.697,23.74,50.357,25.78,50.357,28.98
			 M44.157,37.98l6.2-14h-3.38l-2.1,4.76l-2.16-4.76h-3.66l4.16,8.5l-2.42,5.5H44.157z M32.72,26.62v-2.64h-2.8
			c0-0.74,0.28-1.26,1.26-1.26c0.48,0,0.92,0.04,1.62,0.18v-2.96c-0.74-0.1-1.36-0.2-2.22-0.2c-2.14,0-3.86,1.22-3.86,3.78v0.46
			H24.6v2.64h2.12v7.36h3.2v-7.36H32.72z M19.4,33.98h3.4v-14h-3.4V33.98z"/>
	</g>
	<g>
		<defs>
			<rect id="SVGID_3_" y="89.98" width="284.4" height="123.84"/>
		</defs>
		<clipPath id="SVGID_4_">
			<use xlink:href="#SVGID_3_"  style="overflow:visible;"/>
		</clipPath>
		<path class="st2" d="M-158.057,124.598c8.03,5.777,33.158,14.716,62.912,14.716c16.606,0,31.77-2.785,43.326-6.25"/>
		<path class="st2" d="M-196.966,124.598c8.03,5.777,33.158,14.716,62.912,14.716c22.601,0,42.531-5.157,54.328-10.169"/>
		<path class="st2" d="M-185.395,124.598c8.03,5.777,33.158,14.716,62.912,14.716c22.002,0,41.474-4.887,53.374-9.771"/>
		<path class="st3" d="M-40.983,249.129c-1.765-1.076-4.574-1.772-7.737-1.772c-3.162,0-5.971,0.695-7.737,1.771"/>
		<path class="st2" d="M-32.497,124.598c8.03,5.777,33.158,14.716,62.912,14.716c16.606,0,31.77-2.785,43.326-6.25"/>
		<path class="st3" d="M-190.674,235.132c220.065,17.134,440.46-12.461,660.525,4.672"/>
	</g>
	<rect x="92.451" y="119.545" class="st4" width="2.58" height="5.053"/>
	<rect x="92.451" y="119.545" class="st5" width="2.58" height="5.053"/>
	<rect x="64.435" y="119.545" class="st4" width="2.58" height="5.053"/>
	<rect x="64.435" y="119.545" class="st5" width="2.58" height="5.053"/>
	<rect x="52.864" y="119.545" class="st4" width="2.58" height="5.053"/>
	<rect x="52.864" y="119.545" class="st5" width="2.58" height="5.053"/>
	<rect x="45.835" y="124.598" class="st4" width="62.013" height="4.945"/>
	<rect x="45.834" y="124.598" class="st5" width="62.013" height="4.945"/>
	<rect x="74.046" y="118.362" class="st4" width="5.589" height="95.458"/>
	<g>
		<defs>
			<rect id="SVGID_5_" y="89.98" width="284.4" height="123.84"/>
		</defs>
		<clipPath id="SVGID_6_">
			<use xlink:href="#SVGID_5_"  style="overflow:visible;"/>
		</clipPath>
		<rect x="74.046" y="118.362" class="st6" width="5.59" height="128.995"/>
	</g>
	<line class="st5" x1="79.635" y1="136.853" x2="86.945" y2="129.543"/>
	<line class="st5" x1="74.072" y1="136.853" x2="66.762" y2="129.543"/>
	<g>
		<defs>
			<rect id="SVGID_7_" y="89.98" width="284.4" height="123.84"/>
		</defs>
		<clipPath id="SVGID_8_">
			<use xlink:href="#SVGID_7_"  style="overflow:visible;"/>
		</clipPath>
		<path class="st7" d="M54.154,124.598c8.03,5.777,33.158,14.716,62.912,14.716c29.435,0,54.343-8.748,62.648-14.529"/>
		<path class="st7" d="M65.725,124.598c8.03,5.777,33.158,14.716,62.912,14.716c29.435,0,54.343-8.748,62.648-14.529"/>
		<path class="st7" d="M93.741,124.598c8.03,5.777,33.158,14.716,62.912,14.716c29.435,0,54.343-8.748,62.648-14.529"/>
		<path class="st7" d="M-71.406,124.598c8.03,5.777,33.158,14.716,62.912,14.716c22.601,0,42.531-5.157,54.328-10.169"/>
		<path class="st7" d="M-59.835,124.598c8.03,5.777,33.158,14.716,62.912,14.716c22.002,0,41.473-4.887,53.374-9.771"/>
		<path class="st8" d="M335.234,249.129c-1.765-1.076-4.574-1.772-7.737-1.772c-3.162,0-5.971,0.695-7.737,1.771"/>
		<path class="st7" d="M343.721,124.598c8.03,5.777,33.158,14.716,62.912,14.716c16.606,0,31.77-2.785,43.326-6.25"/>
		<path class="st7" d="M304.812,124.598c8.03,5.777,33.158,14.716,62.912,14.716c22.601,0,42.531-5.157,54.328-10.169"/>
		<path class="st7" d="M316.383,124.598c8.03,5.777,33.158,14.716,62.912,14.716c22.002,0,41.473-4.887,53.374-9.771"/>
		<path class="st8" d="M84.577,249.129c-1.765-1.076-4.574-1.772-7.737-1.772c-3.162,0-5.971,0.695-7.737,1.771"/>
	</g>
	<rect x="171.394" y="124.598" class="st4" width="62.013" height="4.945"/>
	<rect x="171.394" y="124.598" class="st5" width="62.013" height="4.945"/>
	<rect x="218.011" y="119.545" class="st4" width="2.58" height="5.053"/>
	<rect x="218.011" y="119.545" class="st5" width="2.58" height="5.053"/>
	<rect x="189.995" y="119.545" class="st4" width="2.58" height="5.053"/>
	<rect x="189.995" y="119.545" class="st5" width="2.58" height="5.053"/>
	<rect x="178.423" y="119.545" class="st4" width="2.58" height="5.053"/>
	<rect x="178.423" y="119.545" class="st5" width="2.58" height="5.053"/>
	<rect x="199.605" y="118.362" class="st4" width="5.59" height="95.458"/>
	<g>
		<defs>
			<rect id="SVGID_9_" y="89.98" width="284.4" height="123.84"/>
		</defs>
		<clipPath id="SVGID_10_">
			<use xlink:href="#SVGID_9_"  style="overflow:visible;"/>
		</clipPath>
		<rect x="199.605" y="118.362" class="st9" width="5.59" height="128.995"/>
	</g>
	<line class="st5" x1="205.195" y1="136.853" x2="212.505" y2="129.543"/>
	<line class="st5" x1="199.632" y1="136.853" x2="192.322" y2="129.543"/>
	<g>
		<defs>
			<rect id="SVGID_11_" y="89.98" width="284.4" height="123.84"/>
		</defs>
		<clipPath id="SVGID_12_">
			<use xlink:href="#SVGID_11_"  style="overflow:visible;"/>
		</clipPath>
		<path class="st10" d="M210.137,249.129c-1.765-1.076-4.574-1.772-7.737-1.772c-3.162,0-5.971,0.695-7.737,1.771"/>
	</g>
	<polygon class="st4" points="156.254,138.543 138.447,147.808 142.078,128.066 155.37,124.912 	"/>
	<polygon class="st5" points="156.254,138.543 138.447,147.808 142.078,128.066 155.37,124.912 	"/>
	<line class="st5" x1="155.37" y1="124.911" x2="138.446" y2="147.807"/>
	<g>
		<defs>
			<rect id="SVGID_13_" y="89.98" width="284.4" height="123.84"/>
		</defs>
		<clipPath id="SVGID_14_">
			<use xlink:href="#SVGID_13_"  style="overflow:visible;"/>
		</clipPath>
		<path class="st11" d="M142.079,128.066l4.538,1.763c2.603,1.012,4.889,2.7,6.621,4.893l3.017,3.821"/>
	</g>
	<polygon class="st4" points="134.633,148.38 138.446,147.809 139.018,151.62 	"/>
	<polygon class="st5" points="134.633,148.38 138.446,147.809 139.018,151.62 	"/>
	<polygon class="st12" points="137.973,135.992 130.156,126.17 134.055,125.895 130.917,117.99 139.112,129.123 134.797,128.95 	"/>
	<g>
		<defs>
			<rect id="SVGID_15_" y="89.98" width="284.4" height="123.84"/>
		</defs>
		<clipPath id="SVGID_16_">
			<use xlink:href="#SVGID_15_"  style="overflow:visible;"/>
		</clipPath>
		<path class="st13" d="M218.211,124.598c8.03,5.777,33.158,14.716,62.912,14.716c16.606,0,31.77-2.785,43.326-6.25"/>
		<path class="st13" d="M179.302,124.598c8.03,5.777,33.158,14.716,62.912,14.716c22.601,0,42.531-5.157,54.328-10.169"/>
		<path class="st13" d="M190.873,124.598c8.03,5.777,33.158,14.716,62.912,14.716c22.002,0,41.473-4.887,53.374-9.771"/>
		<path class="st13" d="M136.715,149.918c0,0-11.329,4.68-8.21,18.554c3.009,13.384,3.009,24.618-4.677,32.734"/>
	</g>
</g>
</svg>
