<?xml version="1.0" encoding="utf-8"?>
<!-- Generator: Adobe Illustrator 20.1.0, SVG Export Plug-In . SVG Version: 6.00 Build 0)  -->
<svg version="1.1" id="Layer_1" xmlns="http://www.w3.org/2000/svg" xmlns:xlink="http://www.w3.org/1999/xlink" x="0px" y="0px"
	 viewBox="0 0 284.4 213.8" style="enable-background:new 0 0 284.4 213.8;" xml:space="preserve">
<style type="text/css">
	.st0{fill:#F5F4F2;}
	
		.st1{clip-path:url(#SVGID_2_);fill:none;stroke:#01506D;stroke-width:2;stroke-linecap:round;stroke-linejoin:round;stroke-miterlimit:10;}
</style>
<g>
	<rect class="st0" width="284.4" height="213.8"/>
	<g>
		<path d="M27.3,19.4v9.8h-2v-3.9H21v3.9h-2v-9.8h2v3.9h4.3v-3.9H27.3z"/>
		<path d="M32.6,22c2.2,0,3.8,1.5,3.8,3.7s-1.6,3.7-3.8,3.7c-2.2,0-3.8-1.5-3.8-3.7S30.5,22,32.6,22z M32.6,23.8
			c-1.1,0-1.9,0.7-1.9,1.9s0.8,1.9,1.9,1.9c1.1,0,1.9-0.7,1.9-1.9S33.7,23.8,32.6,23.8z"/>
		<path d="M39.4,29.2l-2.8-7h2l1.6,4.2l1.7-4.2h1.5l1.7,4.2l1.6-4.2h2l-2.8,7h-1.4L42.5,25l-1.8,4.2H39.4z"/>
		<path d="M57.6,29.1c-0.5,0.1-1.1,0.2-1.5,0.2c-1.3,0-2.1-0.6-2.1-2.2v-3.3h-1.3v-1.6h1.3v-1.9h1.8v1.9h1.8v1.6h-1.8v3
			c0,0.4,0.2,0.6,0.7,0.6c0.3,0,0.5,0,1-0.1V29.1z"/>
		<path d="M62.3,22c2.2,0,3.8,1.5,3.8,3.7s-1.6,3.7-3.8,3.7c-2.2,0-3.8-1.5-3.8-3.7S60.1,22,62.3,22z M62.3,23.8
			c-1.1,0-1.9,0.7-1.9,1.9s0.8,1.9,1.9,1.9c1.1,0,1.9-0.7,1.9-1.9S63.3,23.8,62.3,23.8z"/>
		<path d="M71.4,23.6c0.5-1.1,1.6-1.6,3.1-1.6c2.1,0,3.1,0.9,3.1,2.8v4.3h-1.8v-1c-0.4,0.6-1.1,1.1-2.2,1.1c-1.4,0-2.4-0.9-2.4-2.2
			c0-1.3,1-2.1,2.2-2.2l1.9-0.2c0.2,0,0.4-0.1,0.4-0.3v-0.1c0-0.4-0.4-0.7-1.2-0.7c-0.7,0-1.5,0.2-1.8,0.9L71.4,23.6z M75.7,26.1
			L74,26.3c-0.6,0.1-0.9,0.4-0.9,0.8c0,0.4,0.3,0.7,1,0.7c1,0,1.6-0.7,1.6-1.4V26.1z"/>
		<path d="M81.3,29.2l-3.2-7h2.1l1.8,4.3l1.8-4.3h2.1l-3.2,7H81.3z"/>
		<path d="M89.7,22c2.2,0,3.8,1.5,3.8,3.7s-1.6,3.7-3.8,3.7c-2.2,0-3.8-1.5-3.8-3.7S87.6,22,89.7,22z M89.7,23.8
			c-1.1,0-1.9,0.7-1.9,1.9s0.8,1.9,1.9,1.9c1.1,0,1.9-0.7,1.9-1.9S90.8,23.8,89.7,23.8z"/>
		<path d="M95.9,19c0.7,0,1.2,0.5,1.2,1.2s-0.5,1.2-1.2,1.2s-1.2-0.5-1.2-1.2S95.2,19,95.9,19z M96.8,22.2v7H95v-7H96.8z"/>
		<path d="M105.7,19.4v9.8h-1.8v-1c-0.5,0.7-1.3,1.2-2.3,1.2c-1.7,0-3.2-1.3-3.2-3.7c0-2.4,1.4-3.7,3.2-3.7c1.1,0,1.9,0.5,2.4,1.2
			v-3.8H105.7z M100.2,25.7c0,1.1,0.8,1.9,1.8,1.9c1.1,0,1.8-0.7,1.8-1.9c0-1.2-0.8-1.9-1.8-1.9C101,23.8,100.2,24.6,100.2,25.7z"/>
	</g>
	<g>
		<path d="M22,37.4c2.1,0,3.5,1.5,3.5,3.7v0.5h-5.2l0,0c0.2,0.9,1.1,1.3,1.9,1.3c0.8,0,1.5-0.3,2-0.7l0.8,1.5
			c-0.6,0.5-1.4,0.9-2.8,0.9c-2.4,0-3.8-1.6-3.8-3.7C18.4,39,19.8,37.4,22,37.4z M23.4,40.3c-0.1-0.8-0.6-1.3-1.5-1.3
			s-1.5,0.5-1.7,1.3H23.4z"/>
		<path d="M29.5,37.4c1.3,0,2.2,0.4,2.8,1l-1,1.3c-0.4-0.4-1.1-0.7-1.9-0.7c-0.6,0-0.9,0.2-0.9,0.5c0,0.4,0.4,0.4,1.6,0.7
			c1.2,0.3,2.2,0.7,2.2,2.2c0,1.6-1.2,2.3-3,2.3c-1.3,0-2.5-0.4-3.1-1.2l1.1-1.4c0.5,0.6,1.2,0.9,2.2,0.9c0.5,0,0.9-0.1,0.9-0.5
			s-0.4-0.4-1.6-0.7c-1.1-0.2-2.3-0.7-2.3-2.2C26.5,38.2,27.6,37.4,29.5,37.4z"/>
		<path d="M37.8,44.5c-0.5,0.1-1.1,0.2-1.5,0.2c-1.3,0-2.1-0.6-2.1-2.2v-3.3h-1.3v-1.6h1.3v-1.9h1.8v1.9h1.8v1.6h-1.8v3
			c0,0.4,0.2,0.6,0.7,0.6c0.3,0,0.5,0,1-0.1V44.5z"/>
		<path d="M40.4,34.4c0.7,0,1.2,0.5,1.2,1.2s-0.5,1.2-1.2,1.2s-1.2-0.5-1.2-1.2S39.7,34.4,40.4,34.4z M41.3,37.6v7h-1.8v-7H41.3z"/>
		<path d="M51.7,37.4c1.6,0,2.6,1.1,2.6,2.9v4.3h-1.9v-3.9c0-1-0.4-1.5-1.3-1.5c-1.1,0-1.5,0.9-1.5,2v3.3h-1.8v-3.9
			c0-1-0.4-1.5-1.3-1.5c-1.1,0-1.5,0.9-1.5,2v3.3h-1.8v-7H45v1c0.4-0.7,1.1-1.2,2.2-1.2c1.1,0,1.8,0.4,2.2,1.3
			C49.8,38,50.6,37.4,51.7,37.4z"/>
		<path d="M56,39c0.5-1.1,1.6-1.6,3.1-1.6c2.1,0,3.1,0.9,3.1,2.8v4.3h-1.8v-1c-0.4,0.6-1.1,1.1-2.2,1.1c-1.4,0-2.4-0.9-2.4-2.2
			c0-1.3,1-2.1,2.2-2.2l1.9-0.2c0.2,0,0.4-0.1,0.4-0.3v-0.1c0-0.4-0.4-0.7-1.2-0.7c-0.7,0-1.5,0.2-1.8,0.9L56,39z M60.4,41.5
			l-1.7,0.2c-0.6,0.1-0.9,0.4-0.9,0.8c0,0.4,0.3,0.7,1,0.7c1,0,1.6-0.7,1.6-1.4V41.5z"/>
		<path d="M68.1,44.5c-0.5,0.1-1.1,0.2-1.5,0.2c-1.3,0-2.1-0.6-2.1-2.2v-3.3h-1.3v-1.6h1.3v-1.9h1.8v1.9h1.8v1.6h-1.8v3
			c0,0.4,0.2,0.6,0.7,0.6c0.3,0,0.5,0,1-0.1V44.5z"/>
		<path d="M72.6,37.4c2.1,0,3.5,1.5,3.5,3.7v0.5h-5.2l0,0c0.2,0.9,1.1,1.3,1.9,1.3c0.8,0,1.5-0.3,2-0.7l0.8,1.5
			c-0.6,0.5-1.4,0.9-2.8,0.9c-2.4,0-3.8-1.6-3.8-3.7C69,39,70.4,37.4,72.6,37.4z M74,40.3c-0.1-0.8-0.6-1.3-1.5-1.3
			s-1.5,0.5-1.7,1.3H74z"/>
		<path d="M84.4,34.8v9.8h-1.8v-1c-0.5,0.7-1.3,1.2-2.3,1.2c-1.7,0-3.2-1.3-3.2-3.7c0-2.4,1.4-3.7,3.2-3.7c1.1,0,1.9,0.5,2.4,1.2
			v-3.8H84.4z M78.9,41.1c0,1.1,0.8,1.9,1.8,1.9c1.1,0,1.8-0.7,1.8-1.9c0-1.2-0.8-1.9-1.8-1.9C79.7,39.2,78.9,40,78.9,41.1z"/>
		<path d="M92.2,34.8v3.8c0.5-0.7,1.2-1.2,2.4-1.2c1.7,0,3.2,1.3,3.2,3.7c0,2.4-1.5,3.7-3.2,3.7c-1,0-1.8-0.4-2.3-1.2v1h-1.8v-9.8
			H92.2z M94,39.2c-1.1,0-1.8,0.7-1.8,1.9c0,1.2,0.8,1.9,1.8,1.9s1.8-0.7,1.8-1.9S95,39.2,94,39.2z"/>
		<path d="M100.1,34.4c0.7,0,1.2,0.5,1.2,1.2s-0.5,1.2-1.2,1.2s-1.2-0.5-1.2-1.2S99.5,34.4,100.1,34.4z M101,37.6v7h-1.8v-7H101z"/>
		<path d="M104.8,34.8v9.8H103v-9.8H104.8z"/>
		<path d="M108.5,34.8v9.8h-1.9v-9.8H108.5z"/>
		<path d="M113.1,37.4c1.3,0,2.2,0.4,2.8,1l-1,1.3c-0.4-0.4-1.1-0.7-1.9-0.7c-0.6,0-0.9,0.2-0.9,0.5c0,0.4,0.4,0.4,1.6,0.7
			c1.2,0.3,2.2,0.7,2.2,2.2c0,1.6-1.2,2.3-3,2.3c-1.3,0-2.5-0.4-3.1-1.2l1.1-1.4c0.5,0.6,1.2,0.9,2.2,0.9c0.5,0,0.9-0.1,0.9-0.5
			s-0.4-0.4-1.6-0.7c-1.1-0.2-2.3-0.7-2.3-2.2C110.2,38.2,111.3,37.4,113.1,37.4z"/>
	</g>
	<g>
		<path d="M18.6,66.3v-6.1h2.3c0.5,0,0.8,0.1,1.1,0.2s0.5,0.3,0.7,0.6s0.2,0.5,0.2,0.8c0,0.3-0.1,0.5-0.2,0.7
			c-0.1,0.2-0.4,0.4-0.6,0.6c0.4,0.1,0.7,0.3,0.8,0.6c0.2,0.3,0.3,0.6,0.3,0.9c0,0.3-0.1,0.5-0.2,0.8c-0.1,0.2-0.3,0.4-0.4,0.6
			s-0.4,0.2-0.7,0.3s-0.6,0.1-1,0.1H18.6z M19.4,62.8h1.3c0.4,0,0.6,0,0.8-0.1c0.2-0.1,0.4-0.2,0.5-0.3c0.1-0.1,0.2-0.3,0.2-0.5
			c0-0.2,0-0.4-0.1-0.5c-0.1-0.2-0.2-0.3-0.4-0.3S21.1,61,20.6,61h-1.2V62.8z M19.4,65.6h1.5c0.3,0,0.4,0,0.5,0
			c0.2,0,0.3-0.1,0.5-0.2c0.1-0.1,0.2-0.2,0.3-0.3c0.1-0.1,0.1-0.3,0.1-0.5c0-0.2-0.1-0.4-0.2-0.6s-0.3-0.3-0.5-0.4
			s-0.5-0.1-0.9-0.1h-1.4V65.6z"/>
		<path d="M27.2,64.9L28,65c-0.1,0.5-0.3,0.8-0.7,1.1c-0.3,0.2-0.7,0.4-1.3,0.4c-0.6,0-1.2-0.2-1.5-0.6c-0.4-0.4-0.6-1-0.6-1.7
			c0-0.7,0.2-1.3,0.6-1.7s0.9-0.6,1.5-0.6c0.6,0,1.1,0.2,1.4,0.6c0.4,0.4,0.6,1,0.6,1.7c0,0,0,0.1,0,0.2h-3.3c0,0.5,0.2,0.9,0.4,1.1
			c0.2,0.3,0.6,0.4,0.9,0.4c0.3,0,0.5-0.1,0.7-0.2C27,65.5,27.1,65.2,27.2,64.9z M24.8,63.7h2.5c0-0.4-0.1-0.6-0.3-0.8
			c-0.2-0.3-0.5-0.4-0.9-0.4c-0.3,0-0.6,0.1-0.9,0.3C24.9,63,24.8,63.3,24.8,63.7z"/>
		<path d="M31.8,64.7l0.7,0.1c-0.1,0.5-0.3,0.9-0.6,1.2c-0.3,0.3-0.7,0.4-1.2,0.4c-0.6,0-1.1-0.2-1.5-0.6c-0.4-0.4-0.5-1-0.5-1.7
			c0-0.5,0.1-0.9,0.2-1.2c0.2-0.4,0.4-0.6,0.7-0.8c0.3-0.2,0.7-0.3,1.1-0.3c0.5,0,0.9,0.1,1.2,0.4c0.3,0.2,0.5,0.6,0.6,1l-0.7,0.1
			c-0.1-0.3-0.2-0.5-0.4-0.7s-0.4-0.2-0.6-0.2c-0.4,0-0.7,0.1-0.9,0.4c-0.2,0.3-0.4,0.7-0.4,1.3c0,0.6,0.1,1,0.3,1.3
			c0.2,0.3,0.5,0.4,0.9,0.4c0.3,0,0.5-0.1,0.7-0.3C31.7,65.4,31.8,65.1,31.8,64.7z"/>
		<path d="M36.1,65.8c-0.3,0.2-0.5,0.4-0.8,0.5c-0.3,0.1-0.5,0.1-0.8,0.1c-0.5,0-0.9-0.1-1.1-0.4c-0.3-0.2-0.4-0.5-0.4-0.9
			c0-0.2,0-0.4,0.1-0.6c0.1-0.2,0.2-0.3,0.4-0.4s0.3-0.2,0.5-0.2c0.1,0,0.4-0.1,0.7-0.1c0.6-0.1,1-0.2,1.3-0.3c0-0.1,0-0.2,0-0.2
			c0-0.3-0.1-0.5-0.2-0.6c-0.2-0.2-0.5-0.3-0.9-0.3c-0.4,0-0.6,0.1-0.8,0.2s-0.3,0.3-0.4,0.7l-0.7-0.1c0.1-0.3,0.2-0.6,0.3-0.8
			s0.4-0.3,0.7-0.4c0.3-0.1,0.6-0.2,1-0.2c0.4,0,0.7,0,0.9,0.1c0.2,0.1,0.4,0.2,0.5,0.3s0.2,0.3,0.2,0.5c0,0.1,0,0.4,0,0.7v1
			c0,0.7,0,1.1,0,1.3s0.1,0.4,0.2,0.5h-0.8C36.2,66.2,36.1,66,36.1,65.8z M36,64.1c-0.3,0.1-0.7,0.2-1.2,0.3c-0.3,0-0.5,0.1-0.7,0.1
			c-0.1,0.1-0.2,0.1-0.3,0.2c-0.1,0.1-0.1,0.2-0.1,0.4c0,0.2,0.1,0.4,0.2,0.5s0.4,0.2,0.7,0.2c0.3,0,0.5-0.1,0.8-0.2
			c0.2-0.1,0.4-0.3,0.5-0.5C36,65,36,64.7,36,64.4V64.1z"/>
		<path d="M40.8,66.3v-0.6c-0.3,0.5-0.8,0.7-1.4,0.7c-0.3,0-0.5,0-0.7-0.1s-0.4-0.2-0.5-0.4S38,65.6,38,65.4c0-0.1,0-0.4,0-0.7v-2.7
			h0.7v2.4c0,0.4,0,0.7,0,0.8c0,0.2,0.1,0.4,0.3,0.5c0.2,0.1,0.3,0.2,0.6,0.2s0.4-0.1,0.6-0.2s0.3-0.3,0.4-0.5s0.1-0.5,0.1-0.9v-2.4
			h0.7v4.4H40.8z"/>
		<path d="M42.4,65l0.7-0.1c0,0.3,0.2,0.5,0.3,0.7c0.2,0.2,0.5,0.2,0.8,0.2c0.3,0,0.6-0.1,0.8-0.2s0.2-0.3,0.2-0.5
			c0-0.2-0.1-0.3-0.2-0.4c-0.1-0.1-0.4-0.2-0.8-0.3c-0.5-0.1-0.9-0.3-1.1-0.4c-0.2-0.1-0.4-0.2-0.5-0.4c-0.1-0.2-0.2-0.4-0.2-0.6
			c0-0.2,0-0.4,0.1-0.5s0.2-0.3,0.4-0.4c0.1-0.1,0.3-0.2,0.5-0.2s0.4-0.1,0.6-0.1c0.3,0,0.6,0,0.9,0.1c0.3,0.1,0.5,0.2,0.6,0.4
			c0.1,0.2,0.2,0.4,0.3,0.7l-0.7,0.1c0-0.2-0.1-0.4-0.3-0.5s-0.4-0.2-0.7-0.2c-0.3,0-0.6,0.1-0.7,0.2c-0.1,0.1-0.2,0.2-0.2,0.4
			c0,0.1,0,0.2,0.1,0.3c0.1,0.1,0.2,0.1,0.3,0.2c0.1,0,0.3,0.1,0.7,0.2c0.5,0.1,0.9,0.3,1.1,0.3s0.4,0.2,0.5,0.4s0.2,0.4,0.2,0.6
			c0,0.2-0.1,0.5-0.2,0.7c-0.1,0.2-0.4,0.4-0.6,0.5c-0.3,0.1-0.6,0.2-0.9,0.2c-0.6,0-1-0.1-1.3-0.4S42.4,65.5,42.4,65z"/>
		<path d="M49.9,64.9l0.8,0.1c-0.1,0.5-0.3,0.8-0.7,1.1c-0.3,0.2-0.7,0.4-1.3,0.4c-0.6,0-1.2-0.2-1.5-0.6c-0.4-0.4-0.6-1-0.6-1.7
			c0-0.7,0.2-1.3,0.6-1.7s0.9-0.6,1.5-0.6c0.6,0,1.1,0.2,1.4,0.6c0.4,0.4,0.6,1,0.6,1.7c0,0,0,0.1,0,0.2h-3.3c0,0.5,0.2,0.9,0.4,1.1
			c0.2,0.3,0.6,0.4,0.9,0.4c0.3,0,0.5-0.1,0.7-0.2C49.7,65.5,49.8,65.2,49.9,64.9z M47.5,63.7h2.5c0-0.4-0.1-0.6-0.3-0.8
			c-0.2-0.3-0.5-0.4-0.9-0.4c-0.3,0-0.6,0.1-0.9,0.3C47.6,63,47.5,63.3,47.5,63.7z"/>
		<path d="M54.8,66.3l-1.3-4.4h0.8l0.7,2.5l0.3,0.9c0,0,0.1-0.4,0.2-0.9l0.7-2.6h0.8l0.7,2.6l0.2,0.8l0.3-0.9l0.8-2.5h0.7l-1.4,4.4
			h-0.8l-0.7-2.6L56.5,63l-0.9,3.4H54.8z"/>
		<path d="M63.2,64.9l0.8,0.1c-0.1,0.5-0.3,0.8-0.7,1.1c-0.3,0.2-0.7,0.4-1.3,0.4c-0.6,0-1.2-0.2-1.5-0.6c-0.4-0.4-0.6-1-0.6-1.7
			c0-0.7,0.2-1.3,0.6-1.7s0.9-0.6,1.5-0.6c0.6,0,1.1,0.2,1.4,0.6c0.4,0.4,0.6,1,0.6,1.7c0,0,0,0.1,0,0.2h-3.3c0,0.5,0.2,0.9,0.4,1.1
			c0.2,0.3,0.6,0.4,0.9,0.4c0.3,0,0.5-0.1,0.7-0.2C62.9,65.5,63,65.2,63.2,64.9z M60.7,63.7h2.5c0-0.4-0.1-0.6-0.3-0.8
			c-0.2-0.3-0.5-0.4-0.9-0.4c-0.3,0-0.6,0.1-0.9,0.3C60.9,63,60.7,63.3,60.7,63.7z"/>
		<path d="M70.1,64.7l0.7,0.1c-0.1,0.5-0.3,0.9-0.6,1.2c-0.3,0.3-0.7,0.4-1.2,0.4c-0.6,0-1.1-0.2-1.5-0.6c-0.4-0.4-0.5-1-0.5-1.7
			c0-0.5,0.1-0.9,0.2-1.2c0.2-0.4,0.4-0.6,0.7-0.8c0.3-0.2,0.7-0.3,1.1-0.3c0.5,0,0.9,0.1,1.2,0.4c0.3,0.2,0.5,0.6,0.6,1L70,63.3
			c-0.1-0.3-0.2-0.5-0.4-0.7s-0.4-0.2-0.6-0.2c-0.4,0-0.7,0.1-0.9,0.4c-0.2,0.3-0.4,0.7-0.4,1.3c0,0.6,0.1,1,0.3,1.3
			c0.2,0.3,0.5,0.4,0.9,0.4c0.3,0,0.5-0.1,0.7-0.3C69.9,65.4,70.1,65.1,70.1,64.7z"/>
		<path d="M71.2,64.1c0-0.8,0.2-1.4,0.7-1.8c0.4-0.3,0.8-0.5,1.4-0.5c0.6,0,1.1,0.2,1.5,0.6s0.6,0.9,0.6,1.6c0,0.6-0.1,1-0.3,1.3
			c-0.2,0.3-0.4,0.6-0.7,0.8c-0.3,0.2-0.7,0.3-1.1,0.3c-0.6,0-1.1-0.2-1.5-0.6C71.4,65.5,71.2,64.9,71.2,64.1z M72,64.1
			c0,0.6,0.1,1,0.4,1.3s0.6,0.4,0.9,0.4c0.4,0,0.7-0.1,0.9-0.4c0.2-0.3,0.4-0.7,0.4-1.3c0-0.5-0.1-1-0.4-1.2s-0.6-0.4-0.9-0.4
			c-0.4,0-0.7,0.1-0.9,0.4S72,63.6,72,64.1z"/>
		<path d="M79.1,66.3v-0.6c-0.3,0.5-0.8,0.7-1.4,0.7c-0.3,0-0.5,0-0.7-0.1s-0.4-0.2-0.5-0.4s-0.2-0.3-0.2-0.6c0-0.1,0-0.4,0-0.7
			v-2.7h0.7v2.4c0,0.4,0,0.7,0,0.8c0,0.2,0.1,0.4,0.3,0.5c0.2,0.1,0.3,0.2,0.6,0.2s0.4-0.1,0.6-0.2s0.3-0.3,0.4-0.5s0.1-0.5,0.1-0.9
			v-2.4h0.7v4.4H79.1z"/>
		<path d="M80.9,66.3v-6.1h0.7v6.1H80.9z"/>
		<path d="M85.7,66.3v-0.6c-0.3,0.4-0.7,0.7-1.2,0.7c-0.4,0-0.7-0.1-1-0.3c-0.3-0.2-0.5-0.5-0.7-0.8c-0.2-0.3-0.2-0.7-0.2-1.2
			c0-0.4,0.1-0.8,0.2-1.2c0.1-0.4,0.4-0.6,0.7-0.8c0.3-0.2,0.6-0.3,1-0.3c0.3,0,0.5,0.1,0.7,0.2c0.2,0.1,0.4,0.3,0.5,0.4v-2.2h0.7
			v6.1H85.7z M83.3,64.2c0,0.6,0.1,1,0.4,1.3c0.2,0.3,0.5,0.4,0.8,0.4c0.3,0,0.6-0.1,0.8-0.4c0.2-0.3,0.3-0.7,0.3-1.2
			c0-0.6-0.1-1-0.3-1.3s-0.5-0.4-0.9-0.4c-0.3,0-0.6,0.1-0.8,0.4C83.4,63.1,83.3,63.6,83.3,64.2z"/>
		<path d="M87.5,66.3v-4.4h0.7v0.6c0.3-0.5,0.8-0.7,1.4-0.7c0.3,0,0.5,0,0.7,0.1c0.2,0.1,0.4,0.2,0.5,0.4c0.1,0.2,0.2,0.3,0.2,0.6
			c0,0.1,0,0.4,0,0.7v2.7h-0.7v-2.7c0-0.3,0-0.5-0.1-0.7c-0.1-0.2-0.2-0.3-0.3-0.4s-0.3-0.1-0.5-0.1c-0.3,0-0.6,0.1-0.8,0.3
			c-0.2,0.2-0.3,0.6-0.3,1.1v2.4H87.5z"/>
		<path d="M92.2,61.1v-0.9H93v0.7c0,0.4,0,0.6-0.1,0.8c-0.1,0.2-0.3,0.4-0.6,0.5l-0.2-0.3c0.1-0.1,0.3-0.2,0.3-0.3s0.1-0.3,0.1-0.5
			H92.2z"/>
		<path d="M95.8,65.7l0.1,0.7c-0.2,0-0.4,0.1-0.6,0.1c-0.3,0-0.5,0-0.6-0.1c-0.1-0.1-0.3-0.2-0.3-0.3s-0.1-0.4-0.1-0.9v-2.5h-0.5
			v-0.6h0.5v-1.1l0.7-0.4v1.5h0.8v0.6H95v2.6c0,0.2,0,0.3,0,0.4s0.1,0.1,0.1,0.1c0.1,0,0.1,0.1,0.3,0.1
			C95.5,65.7,95.7,65.7,95.8,65.7z"/>
		<path d="M101.8,65.8c-0.3,0.2-0.5,0.4-0.8,0.5c-0.3,0.1-0.5,0.1-0.8,0.1c-0.5,0-0.9-0.1-1.1-0.4c-0.3-0.2-0.4-0.5-0.4-0.9
			c0-0.2,0-0.4,0.1-0.6c0.1-0.2,0.2-0.3,0.4-0.4s0.3-0.2,0.5-0.2c0.1,0,0.4-0.1,0.7-0.1c0.6-0.1,1-0.2,1.3-0.3c0-0.1,0-0.2,0-0.2
			c0-0.3-0.1-0.5-0.2-0.6c-0.2-0.2-0.5-0.3-0.9-0.3c-0.4,0-0.6,0.1-0.8,0.2s-0.3,0.3-0.4,0.7l-0.7-0.1c0.1-0.3,0.2-0.6,0.3-0.8
			s0.4-0.3,0.7-0.4c0.3-0.1,0.6-0.2,1-0.2c0.4,0,0.7,0,0.9,0.1c0.2,0.1,0.4,0.2,0.5,0.3s0.2,0.3,0.2,0.5c0,0.1,0,0.4,0,0.7v1
			c0,0.7,0,1.1,0,1.3s0.1,0.4,0.2,0.5h-0.8C101.8,66.2,101.8,66,101.8,65.8z M101.7,64.1c-0.3,0.1-0.7,0.2-1.2,0.3
			c-0.3,0-0.5,0.1-0.7,0.1c-0.1,0.1-0.2,0.1-0.3,0.2c-0.1,0.1-0.1,0.2-0.1,0.4c0,0.2,0.1,0.4,0.2,0.5s0.4,0.2,0.7,0.2
			c0.3,0,0.5-0.1,0.8-0.2c0.2-0.1,0.4-0.3,0.5-0.5c0.1-0.2,0.1-0.4,0.1-0.7V64.1z"/>
		<path d="M106.5,64.7l0.7,0.1c-0.1,0.5-0.3,0.9-0.6,1.2c-0.3,0.3-0.7,0.4-1.2,0.4c-0.6,0-1.1-0.2-1.5-0.6c-0.4-0.4-0.5-1-0.5-1.7
			c0-0.5,0.1-0.9,0.2-1.2c0.2-0.4,0.4-0.6,0.7-0.8c0.3-0.2,0.7-0.3,1.1-0.3c0.5,0,0.9,0.1,1.2,0.4c0.3,0.2,0.5,0.6,0.6,1l-0.7,0.1
			c-0.1-0.3-0.2-0.5-0.4-0.7s-0.4-0.2-0.6-0.2c-0.4,0-0.7,0.1-0.9,0.4c-0.2,0.3-0.4,0.7-0.4,1.3c0,0.6,0.1,1,0.3,1.3
			c0.2,0.3,0.5,0.4,0.9,0.4c0.3,0,0.5-0.1,0.7-0.3C106.3,65.4,106.4,65.1,106.5,64.7z"/>
		<path d="M110.7,64.7l0.7,0.1c-0.1,0.5-0.3,0.9-0.6,1.2c-0.3,0.3-0.7,0.4-1.2,0.4c-0.6,0-1.1-0.2-1.5-0.6c-0.4-0.4-0.5-1-0.5-1.7
			c0-0.5,0.1-0.9,0.2-1.2c0.2-0.4,0.4-0.6,0.7-0.8c0.3-0.2,0.7-0.3,1.1-0.3c0.5,0,0.9,0.1,1.2,0.4c0.3,0.2,0.5,0.6,0.6,1l-0.7,0.1
			c-0.1-0.3-0.2-0.5-0.4-0.7s-0.4-0.2-0.6-0.2c-0.4,0-0.7,0.1-0.9,0.4c-0.2,0.3-0.4,0.7-0.4,1.3c0,0.6,0.1,1,0.3,1.3
			c0.2,0.3,0.5,0.4,0.9,0.4c0.3,0,0.5-0.1,0.7-0.3C110.6,65.4,110.7,65.1,110.7,64.7z"/>
		<path d="M115.1,64.9l0.8,0.1c-0.1,0.5-0.3,0.8-0.7,1.1c-0.3,0.2-0.7,0.4-1.3,0.4c-0.6,0-1.2-0.2-1.5-0.6c-0.4-0.4-0.6-1-0.6-1.7
			c0-0.7,0.2-1.3,0.6-1.7s0.9-0.6,1.5-0.6c0.6,0,1.1,0.2,1.4,0.6c0.4,0.4,0.6,1,0.6,1.7c0,0,0,0.1,0,0.2h-3.3c0,0.5,0.2,0.9,0.4,1.1
			c0.2,0.3,0.6,0.4,0.9,0.4c0.3,0,0.5-0.1,0.7-0.2C114.9,65.5,115,65.2,115.1,64.9z M112.7,63.7h2.5c0-0.4-0.1-0.6-0.3-0.8
			c-0.2-0.3-0.5-0.4-0.9-0.4c-0.3,0-0.6,0.1-0.9,0.3C112.8,63,112.7,63.3,112.7,63.7z"/>
		<path d="M116.5,65l0.7-0.1c0,0.3,0.2,0.5,0.3,0.7c0.2,0.2,0.5,0.2,0.8,0.2c0.3,0,0.6-0.1,0.8-0.2s0.2-0.3,0.2-0.5
			c0-0.2-0.1-0.3-0.2-0.4c-0.1-0.1-0.4-0.2-0.8-0.3c-0.5-0.1-0.9-0.3-1.1-0.4c-0.2-0.1-0.4-0.2-0.5-0.4c-0.1-0.2-0.2-0.4-0.2-0.6
			c0-0.2,0-0.4,0.1-0.5s0.2-0.3,0.4-0.4c0.1-0.1,0.3-0.2,0.5-0.2s0.4-0.1,0.6-0.1c0.3,0,0.6,0,0.9,0.1c0.3,0.1,0.5,0.2,0.6,0.4
			c0.1,0.2,0.2,0.4,0.3,0.7l-0.7,0.1c0-0.2-0.1-0.4-0.3-0.5s-0.4-0.2-0.7-0.2c-0.3,0-0.6,0.1-0.7,0.2c-0.1,0.1-0.2,0.2-0.2,0.4
			c0,0.1,0,0.2,0.1,0.3c0.1,0.1,0.2,0.1,0.3,0.2c0.1,0,0.3,0.1,0.7,0.2c0.5,0.1,0.9,0.3,1.1,0.3s0.4,0.2,0.5,0.4s0.2,0.4,0.2,0.6
			c0,0.2-0.1,0.5-0.2,0.7c-0.1,0.2-0.4,0.4-0.6,0.5c-0.3,0.1-0.6,0.2-0.9,0.2c-0.6,0-1-0.1-1.3-0.4S116.6,65.5,116.5,65z"/>
		<path d="M120.8,65l0.7-0.1c0,0.3,0.2,0.5,0.3,0.7c0.2,0.2,0.5,0.2,0.8,0.2c0.3,0,0.6-0.1,0.8-0.2s0.2-0.3,0.2-0.5
			c0-0.2-0.1-0.3-0.2-0.4c-0.1-0.1-0.4-0.2-0.8-0.3c-0.5-0.1-0.9-0.3-1.1-0.4c-0.2-0.1-0.4-0.2-0.5-0.4c-0.1-0.2-0.2-0.4-0.2-0.6
			c0-0.2,0-0.4,0.1-0.5s0.2-0.3,0.4-0.4c0.1-0.1,0.3-0.2,0.5-0.2s0.4-0.1,0.6-0.1c0.3,0,0.6,0,0.9,0.1c0.3,0.1,0.5,0.2,0.6,0.4
			c0.1,0.2,0.2,0.4,0.3,0.7l-0.7,0.1c0-0.2-0.1-0.4-0.3-0.5s-0.4-0.2-0.7-0.2c-0.3,0-0.6,0.1-0.7,0.2c-0.1,0.1-0.2,0.2-0.2,0.4
			c0,0.1,0,0.2,0.1,0.3c0.1,0.1,0.2,0.1,0.3,0.2c0.1,0,0.3,0.1,0.7,0.2c0.5,0.1,0.9,0.3,1.1,0.3s0.4,0.2,0.5,0.4s0.2,0.4,0.2,0.6
			c0,0.2-0.1,0.5-0.2,0.7c-0.1,0.2-0.4,0.4-0.6,0.5c-0.3,0.1-0.6,0.2-0.9,0.2c-0.6,0-1-0.1-1.3-0.4S120.9,65.5,120.8,65z"/>
		<path d="M130.6,65.8c-0.3,0.2-0.5,0.4-0.8,0.5c-0.3,0.1-0.5,0.1-0.8,0.1c-0.5,0-0.9-0.1-1.1-0.4c-0.3-0.2-0.4-0.5-0.4-0.9
			c0-0.2,0-0.4,0.1-0.6c0.1-0.2,0.2-0.3,0.4-0.4s0.3-0.2,0.5-0.2c0.1,0,0.4-0.1,0.7-0.1c0.6-0.1,1-0.2,1.3-0.3c0-0.1,0-0.2,0-0.2
			c0-0.3-0.1-0.5-0.2-0.6c-0.2-0.2-0.5-0.3-0.9-0.3c-0.4,0-0.6,0.1-0.8,0.2s-0.3,0.3-0.4,0.7l-0.7-0.1c0.1-0.3,0.2-0.6,0.3-0.8
			s0.4-0.3,0.7-0.4c0.3-0.1,0.6-0.2,1-0.2c0.4,0,0.7,0,0.9,0.1c0.2,0.1,0.4,0.2,0.5,0.3s0.2,0.3,0.2,0.5c0,0.1,0,0.4,0,0.7v1
			c0,0.7,0,1.1,0,1.3s0.1,0.4,0.2,0.5h-0.8C130.7,66.2,130.6,66,130.6,65.8z M130.5,64.1c-0.3,0.1-0.7,0.2-1.2,0.3
			c-0.3,0-0.5,0.1-0.7,0.1c-0.1,0.1-0.2,0.1-0.3,0.2c-0.1,0.1-0.1,0.2-0.1,0.4c0,0.2,0.1,0.4,0.2,0.5s0.4,0.2,0.7,0.2
			c0.3,0,0.5-0.1,0.8-0.2c0.2-0.1,0.4-0.3,0.5-0.5c0.1-0.2,0.1-0.4,0.1-0.7V64.1z"/>
		<path d="M132.4,66.3v-4.4h0.7v0.6c0.3-0.5,0.8-0.7,1.4-0.7c0.3,0,0.5,0,0.7,0.1c0.2,0.1,0.4,0.2,0.5,0.4c0.1,0.2,0.2,0.3,0.2,0.6
			c0,0.1,0,0.4,0,0.7v2.7h-0.7v-2.7c0-0.3,0-0.5-0.1-0.7c-0.1-0.2-0.2-0.3-0.3-0.4s-0.3-0.1-0.5-0.1c-0.3,0-0.6,0.1-0.8,0.3
			c-0.2,0.2-0.3,0.6-0.3,1.1v2.4H132.4z"/>
		<path d="M140,66.3v-0.6c-0.3,0.4-0.7,0.7-1.2,0.7c-0.4,0-0.7-0.1-1-0.3c-0.3-0.2-0.5-0.5-0.7-0.8c-0.2-0.3-0.2-0.7-0.2-1.2
			c0-0.4,0.1-0.8,0.2-1.2c0.1-0.4,0.4-0.6,0.7-0.8c0.3-0.2,0.6-0.3,1-0.3c0.3,0,0.5,0.1,0.7,0.2c0.2,0.1,0.4,0.3,0.5,0.4v-2.2h0.7
			v6.1H140z M137.7,64.2c0,0.6,0.1,1,0.4,1.3c0.2,0.3,0.5,0.4,0.8,0.4c0.3,0,0.6-0.1,0.8-0.4c0.2-0.3,0.3-0.7,0.3-1.2
			c0-0.6-0.1-1-0.3-1.3s-0.5-0.4-0.9-0.4c-0.3,0-0.6,0.1-0.8,0.4C137.8,63.1,137.7,63.6,137.7,64.2z"/>
		<path d="M144.2,66.3v-4.4h0.7v0.7c0.2-0.3,0.3-0.5,0.5-0.6c0.1-0.1,0.3-0.1,0.5-0.1c0.3,0,0.5,0.1,0.8,0.2l-0.3,0.7
			c-0.2-0.1-0.4-0.2-0.5-0.2c-0.2,0-0.3,0-0.4,0.1c-0.1,0.1-0.2,0.2-0.3,0.4c-0.1,0.3-0.1,0.6-0.1,0.9v2.3H144.2z"/>
		<path d="M150.1,64.9l0.8,0.1c-0.1,0.5-0.3,0.8-0.7,1.1s-0.8,0.4-1.3,0.4c-0.6,0-1.2-0.2-1.5-0.6s-0.6-1-0.6-1.7
			c0-0.7,0.2-1.3,0.6-1.7s0.9-0.6,1.5-0.6c0.6,0,1.1,0.2,1.4,0.6c0.4,0.4,0.6,1,0.6,1.7c0,0,0,0.1,0,0.2h-3.3c0,0.5,0.2,0.9,0.4,1.1
			c0.2,0.3,0.6,0.4,0.9,0.4c0.3,0,0.5-0.1,0.7-0.2C149.8,65.5,150,65.2,150.1,64.9z M147.6,63.7h2.5c0-0.4-0.1-0.6-0.3-0.8
			c-0.2-0.3-0.5-0.4-0.9-0.4c-0.3,0-0.6,0.1-0.9,0.3C147.8,63,147.7,63.3,147.6,63.7z"/>
		<path d="M154.7,65.8c-0.3,0.2-0.5,0.4-0.8,0.5c-0.3,0.1-0.5,0.1-0.8,0.1c-0.5,0-0.9-0.1-1.1-0.4c-0.3-0.2-0.4-0.5-0.4-0.9
			c0-0.2,0-0.4,0.1-0.6c0.1-0.2,0.2-0.3,0.4-0.4s0.3-0.2,0.5-0.2c0.1,0,0.4-0.1,0.7-0.1c0.6-0.1,1-0.2,1.3-0.3c0-0.1,0-0.2,0-0.2
			c0-0.3-0.1-0.5-0.2-0.6c-0.2-0.2-0.5-0.3-0.9-0.3c-0.4,0-0.6,0.1-0.8,0.2c-0.2,0.1-0.3,0.3-0.4,0.7l-0.7-0.1
			c0.1-0.3,0.2-0.6,0.3-0.8s0.4-0.3,0.7-0.4c0.3-0.1,0.6-0.2,1-0.2c0.4,0,0.7,0,0.9,0.1s0.4,0.2,0.5,0.3c0.1,0.1,0.2,0.3,0.2,0.5
			c0,0.1,0,0.4,0,0.7v1c0,0.7,0,1.1,0,1.3c0,0.2,0.1,0.4,0.2,0.5h-0.8C154.8,66.2,154.7,66,154.7,65.8z M154.6,64.1
			c-0.3,0.1-0.7,0.2-1.2,0.3c-0.3,0-0.5,0.1-0.7,0.1c-0.1,0.1-0.2,0.1-0.3,0.2s-0.1,0.2-0.1,0.4c0,0.2,0.1,0.4,0.2,0.5
			c0.2,0.1,0.4,0.2,0.7,0.2c0.3,0,0.5-0.1,0.8-0.2c0.2-0.1,0.4-0.3,0.5-0.5c0.1-0.2,0.1-0.4,0.1-0.7V64.1z"/>
		<path d="M159.4,66.3v-0.6c-0.3,0.4-0.7,0.7-1.2,0.7c-0.4,0-0.7-0.1-1-0.3c-0.3-0.2-0.5-0.5-0.7-0.8s-0.2-0.7-0.2-1.2
			c0-0.4,0.1-0.8,0.2-1.2s0.4-0.6,0.7-0.8c0.3-0.2,0.6-0.3,1-0.3c0.3,0,0.5,0.1,0.7,0.2c0.2,0.1,0.4,0.3,0.5,0.4v-2.2h0.7v6.1H159.4
			z M157,64.2c0,0.6,0.1,1,0.4,1.3c0.2,0.3,0.5,0.4,0.8,0.4c0.3,0,0.6-0.1,0.8-0.4s0.3-0.7,0.3-1.2c0-0.6-0.1-1-0.3-1.3
			s-0.5-0.4-0.9-0.4c-0.3,0-0.6,0.1-0.8,0.4C157.1,63.1,157,63.6,157,64.2z"/>
	</g>
	<g>
		<path d="M18.3,76.9c0-0.8,0.2-1.4,0.7-1.8c0.4-0.3,0.8-0.5,1.4-0.5c0.6,0,1.1,0.2,1.5,0.6s0.6,0.9,0.6,1.6c0,0.6-0.1,1-0.3,1.3
			c-0.2,0.3-0.4,0.6-0.7,0.8c-0.3,0.2-0.7,0.3-1.1,0.3c-0.6,0-1.1-0.2-1.5-0.6C18.5,78.2,18.3,77.6,18.3,76.9z M19,76.9
			c0,0.6,0.1,1,0.4,1.3s0.6,0.4,0.9,0.4c0.4,0,0.7-0.1,0.9-0.4c0.2-0.3,0.4-0.7,0.4-1.3c0-0.5-0.1-1-0.4-1.2s-0.6-0.4-0.9-0.4
			c-0.4,0-0.7,0.1-0.9,0.4S19,76.3,19,76.9z"/>
		<path d="M26.2,79.1v-0.6c-0.3,0.5-0.8,0.7-1.4,0.7c-0.3,0-0.5,0-0.7-0.1s-0.4-0.2-0.5-0.4s-0.2-0.3-0.2-0.6c0-0.1,0-0.4,0-0.7
			v-2.7H24v2.4c0,0.4,0,0.7,0,0.8c0,0.2,0.1,0.4,0.3,0.5c0.2,0.1,0.3,0.2,0.6,0.2s0.4-0.1,0.6-0.2s0.3-0.3,0.4-0.5s0.1-0.5,0.1-0.9
			v-2.4h0.7v4.4H26.2z"/>
		<path d="M28,79.1v-4.4h0.7v0.7c0.2-0.3,0.3-0.5,0.5-0.6c0.1-0.1,0.3-0.1,0.5-0.1c0.3,0,0.5,0.1,0.8,0.2l-0.3,0.7
			c-0.2-0.1-0.4-0.2-0.5-0.2c-0.2,0-0.3,0-0.4,0.1s-0.2,0.2-0.3,0.4c-0.1,0.3-0.1,0.6-0.1,0.9v2.3H28z"/>
		<path d="M33.2,79.1v-4.4h0.7v0.6c0.1-0.2,0.3-0.4,0.6-0.5c0.2-0.1,0.5-0.2,0.8-0.2c0.3,0,0.6,0.1,0.8,0.2c0.2,0.1,0.4,0.3,0.4,0.6
			c0.3-0.5,0.8-0.8,1.4-0.8c0.4,0,0.8,0.1,1,0.4c0.2,0.2,0.4,0.6,0.4,1.1v3h-0.7v-2.8c0-0.3,0-0.5-0.1-0.6s-0.1-0.2-0.3-0.3
			c-0.1-0.1-0.3-0.1-0.4-0.1c-0.3,0-0.6,0.1-0.8,0.3s-0.3,0.5-0.3,1v2.6h-0.7v-2.9c0-0.3-0.1-0.6-0.2-0.7s-0.3-0.2-0.6-0.2
			c-0.2,0-0.4,0.1-0.6,0.2c-0.2,0.1-0.3,0.3-0.4,0.5C34,76.1,34,76.4,34,76.8v2.3H33.2z"/>
		<path d="M43.3,77.7l0.8,0.1c-0.1,0.5-0.3,0.8-0.7,1.1c-0.3,0.2-0.7,0.4-1.3,0.4c-0.6,0-1.2-0.2-1.5-0.6c-0.4-0.4-0.6-1-0.6-1.7
			c0-0.7,0.2-1.3,0.6-1.7s0.9-0.6,1.5-0.6c0.6,0,1.1,0.2,1.4,0.6c0.4,0.4,0.6,1,0.6,1.7c0,0,0,0.1,0,0.2h-3.3c0,0.5,0.2,0.9,0.4,1.1
			c0.2,0.3,0.6,0.4,0.9,0.4c0.3,0,0.5-0.1,0.7-0.2C43,78.2,43.2,78,43.3,77.7z M40.9,76.5h2.5c0-0.4-0.1-0.6-0.3-0.8
			c-0.2-0.3-0.5-0.4-0.9-0.4c-0.3,0-0.6,0.1-0.9,0.3C41,75.8,40.9,76.1,40.9,76.5z"/>
		<path d="M46.6,78.4l0.1,0.7c-0.2,0-0.4,0.1-0.6,0.1c-0.3,0-0.5,0-0.6-0.1c-0.1-0.1-0.3-0.2-0.3-0.3s-0.1-0.4-0.1-0.9v-2.5h-0.5
			v-0.6h0.5v-1.1l0.7-0.4v1.5h0.8v0.6h-0.8v2.6c0,0.2,0,0.3,0,0.4s0.1,0.1,0.1,0.1c0.1,0,0.1,0.1,0.3,0.1
			C46.4,78.5,46.5,78.5,46.6,78.4z"/>
		<path d="M50.4,77.7l0.8,0.1c-0.1,0.5-0.3,0.8-0.7,1.1c-0.3,0.2-0.7,0.4-1.3,0.4c-0.6,0-1.2-0.2-1.5-0.6c-0.4-0.4-0.6-1-0.6-1.7
			c0-0.7,0.2-1.3,0.6-1.7s0.9-0.6,1.5-0.6c0.6,0,1.1,0.2,1.4,0.6c0.4,0.4,0.6,1,0.6,1.7c0,0,0,0.1,0,0.2h-3.3c0,0.5,0.2,0.9,0.4,1.1
			c0.2,0.3,0.6,0.4,0.9,0.4c0.3,0,0.5-0.1,0.7-0.2C50.1,78.2,50.3,78,50.4,77.7z M47.9,76.5h2.5c0-0.4-0.1-0.6-0.3-0.8
			c-0.2-0.3-0.5-0.4-0.9-0.4c-0.3,0-0.6,0.1-0.9,0.3C48.1,75.8,48,76.1,47.9,76.5z"/>
		<path d="M52.1,79.1v-4.4h0.7v0.7c0.2-0.3,0.3-0.5,0.5-0.6c0.1-0.1,0.3-0.1,0.5-0.1c0.3,0,0.5,0.1,0.8,0.2l-0.3,0.7
			c-0.2-0.1-0.4-0.2-0.5-0.2c-0.2,0-0.3,0-0.4,0.1S53,75.7,53,75.9c-0.1,0.3-0.1,0.6-0.1,0.9v2.3H52.1z"/>
		<path d="M54.7,79.1v-0.9h0.9v0.9c0,0.3-0.1,0.6-0.2,0.8c-0.1,0.2-0.3,0.3-0.5,0.4L54.6,80c0.2-0.1,0.3-0.2,0.3-0.3
			s0.1-0.3,0.1-0.6H54.7z"/>
		<path d="M59.2,80.8l-0.1-0.7c0.2,0,0.3,0.1,0.4,0.1c0.2,0,0.3,0,0.4-0.1s0.2-0.1,0.2-0.2c0-0.1,0.1-0.3,0.2-0.6c0,0,0-0.1,0.1-0.2
			l-1.7-4.4h0.8l0.9,2.6c0.1,0.3,0.2,0.7,0.3,1c0.1-0.3,0.2-0.7,0.3-1l0.9-2.6h0.7l-1.7,4.5c-0.2,0.5-0.3,0.8-0.4,1
			c-0.1,0.2-0.3,0.4-0.5,0.5c-0.2,0.1-0.4,0.2-0.6,0.2C59.5,80.9,59.3,80.9,59.2,80.8z"/>
		<path d="M63.2,76.9c0-0.8,0.2-1.4,0.7-1.8c0.4-0.3,0.8-0.5,1.4-0.5c0.6,0,1.1,0.2,1.5,0.6s0.6,0.9,0.6,1.6c0,0.6-0.1,1-0.3,1.3
			c-0.2,0.3-0.4,0.6-0.7,0.8c-0.3,0.2-0.7,0.3-1.1,0.3c-0.6,0-1.1-0.2-1.5-0.6C63.4,78.2,63.2,77.6,63.2,76.9z M63.9,76.9
			c0,0.6,0.1,1,0.4,1.3s0.6,0.4,0.9,0.4c0.4,0,0.7-0.1,0.9-0.4c0.2-0.3,0.4-0.7,0.4-1.3c0-0.5-0.1-1-0.4-1.2s-0.6-0.4-0.9-0.4
			c-0.4,0-0.7,0.1-0.9,0.4S63.9,76.3,63.9,76.9z"/>
		<path d="M71.1,79.1v-0.6c-0.3,0.5-0.8,0.7-1.4,0.7c-0.3,0-0.5,0-0.7-0.1s-0.4-0.2-0.5-0.4s-0.2-0.3-0.2-0.6c0-0.1,0-0.4,0-0.7
			v-2.7h0.7v2.4c0,0.4,0,0.7,0,0.8c0,0.2,0.1,0.4,0.3,0.5c0.2,0.1,0.3,0.2,0.6,0.2s0.4-0.1,0.6-0.2s0.3-0.3,0.4-0.5s0.1-0.5,0.1-0.9
			v-2.4h0.7v4.4H71.1z"/>
		<path d="M72.9,79.1v-4.4h0.7v0.7c0.2-0.3,0.3-0.5,0.5-0.6c0.1-0.1,0.3-0.1,0.5-0.1c0.3,0,0.5,0.1,0.8,0.2L75,75.5
			c-0.2-0.1-0.4-0.2-0.5-0.2c-0.2,0-0.3,0-0.4,0.1s-0.2,0.2-0.3,0.4c-0.1,0.3-0.1,0.6-0.1,0.9v2.3H72.9z"/>
		<path d="M78.8,79.1h-0.7V73h0.7v2.2c0.3-0.4,0.7-0.6,1.2-0.6c0.3,0,0.5,0.1,0.8,0.2s0.4,0.3,0.6,0.5s0.3,0.4,0.4,0.7
			c0.1,0.3,0.1,0.6,0.1,0.9c0,0.8-0.2,1.3-0.6,1.8C81,79,80.5,79.2,80,79.2c-0.5,0-0.9-0.2-1.2-0.7V79.1z M78.8,76.9
			c0,0.5,0.1,0.9,0.2,1.1c0.2,0.4,0.6,0.6,1,0.6c0.3,0,0.6-0.1,0.8-0.4c0.2-0.3,0.4-0.7,0.4-1.3c0-0.6-0.1-1-0.3-1.3
			c-0.2-0.3-0.5-0.4-0.8-0.4c-0.3,0-0.6,0.1-0.8,0.4C78.9,75.9,78.8,76.3,78.8,76.9z"/>
		<path d="M82.8,73.9V73h0.7v0.9H82.8z M82.8,79.1v-4.4h0.7v4.4H82.8z"/>
		<path d="M84.7,79.1V73h0.7v6.1H84.7z"/>
		<path d="M86.6,79.1V73h0.7v6.1H86.6z"/>
		<path d="M90.9,73.9V73h0.7v0.9H90.9z M90.9,79.1v-4.4h0.7v4.4H90.9z"/>
		<path d="M92.4,77.8l0.7-0.1c0,0.3,0.2,0.5,0.3,0.7c0.2,0.2,0.5,0.2,0.8,0.2c0.3,0,0.6-0.1,0.8-0.2s0.2-0.3,0.2-0.5
			c0-0.2-0.1-0.3-0.2-0.4c-0.1-0.1-0.4-0.2-0.8-0.3c-0.5-0.1-0.9-0.3-1.1-0.4c-0.2-0.1-0.4-0.2-0.5-0.4c-0.1-0.2-0.2-0.4-0.2-0.6
			c0-0.2,0-0.4,0.1-0.5s0.2-0.3,0.4-0.4c0.1-0.1,0.3-0.2,0.5-0.2s0.4-0.1,0.6-0.1c0.3,0,0.6,0,0.9,0.1c0.3,0.1,0.5,0.2,0.6,0.4
			c0.1,0.2,0.2,0.4,0.3,0.7l-0.7,0.1c0-0.2-0.1-0.4-0.3-0.5s-0.4-0.2-0.7-0.2c-0.3,0-0.6,0.1-0.7,0.2c-0.1,0.1-0.2,0.2-0.2,0.4
			c0,0.1,0,0.2,0.1,0.3c0.1,0.1,0.2,0.1,0.3,0.2c0.1,0,0.3,0.1,0.7,0.2c0.5,0.1,0.9,0.3,1.1,0.3s0.4,0.2,0.5,0.4s0.2,0.4,0.2,0.6
			c0,0.2-0.1,0.5-0.2,0.7c-0.1,0.2-0.4,0.4-0.6,0.5c-0.3,0.1-0.6,0.2-0.9,0.2c-0.6,0-1-0.1-1.3-0.4S92.5,78.3,92.4,77.8z"/>
		<path d="M100,79.1h-0.7V73h0.7v2.2c0.3-0.4,0.7-0.6,1.2-0.6c0.3,0,0.5,0.1,0.8,0.2s0.4,0.3,0.6,0.5s0.3,0.4,0.4,0.7
			c0.1,0.3,0.1,0.6,0.1,0.9c0,0.8-0.2,1.3-0.6,1.8c-0.4,0.4-0.8,0.6-1.3,0.6c-0.5,0-0.9-0.2-1.2-0.7V79.1z M100,76.9
			c0,0.5,0.1,0.9,0.2,1.1c0.2,0.4,0.6,0.6,1,0.6c0.3,0,0.6-0.1,0.8-0.4c0.2-0.3,0.4-0.7,0.4-1.3c0-0.6-0.1-1-0.3-1.3
			c-0.2-0.3-0.5-0.4-0.8-0.4c-0.3,0-0.6,0.1-0.8,0.4C100.1,75.9,100,76.3,100,76.9z"/>
		<path d="M107,78.6c-0.3,0.2-0.5,0.4-0.8,0.5c-0.3,0.1-0.5,0.1-0.8,0.1c-0.5,0-0.9-0.1-1.1-0.4c-0.3-0.2-0.4-0.5-0.4-0.9
			c0-0.2,0-0.4,0.1-0.6c0.1-0.2,0.2-0.3,0.4-0.4s0.3-0.2,0.5-0.2c0.1,0,0.4-0.1,0.7-0.1c0.6-0.1,1-0.2,1.3-0.3c0-0.1,0-0.2,0-0.2
			c0-0.3-0.1-0.5-0.2-0.6c-0.2-0.2-0.5-0.3-0.9-0.3c-0.4,0-0.6,0.1-0.8,0.2s-0.3,0.3-0.4,0.7l-0.7-0.1c0.1-0.3,0.2-0.6,0.3-0.8
			s0.4-0.3,0.7-0.4c0.3-0.1,0.6-0.2,1-0.2c0.4,0,0.7,0,0.9,0.1c0.2,0.1,0.4,0.2,0.5,0.3s0.2,0.3,0.2,0.5c0,0.1,0,0.4,0,0.7v1
			c0,0.7,0,1.1,0,1.3s0.1,0.4,0.2,0.5h-0.8C107,78.9,107,78.8,107,78.6z M106.9,76.9c-0.3,0.1-0.7,0.2-1.2,0.3
			c-0.3,0-0.5,0.1-0.7,0.1c-0.1,0.1-0.2,0.1-0.3,0.2c-0.1,0.1-0.1,0.2-0.1,0.4c0,0.2,0.1,0.4,0.2,0.5s0.4,0.2,0.7,0.2
			c0.3,0,0.5-0.1,0.8-0.2c0.2-0.1,0.4-0.3,0.5-0.5c0.1-0.2,0.1-0.4,0.1-0.7V76.9z"/>
		<path d="M108.5,77.8l0.7-0.1c0,0.3,0.2,0.5,0.3,0.7c0.2,0.2,0.5,0.2,0.8,0.2c0.3,0,0.6-0.1,0.8-0.2s0.2-0.3,0.2-0.5
			c0-0.2-0.1-0.3-0.2-0.4c-0.1-0.1-0.4-0.2-0.8-0.3c-0.5-0.1-0.9-0.3-1.1-0.4c-0.2-0.1-0.4-0.2-0.5-0.4c-0.1-0.2-0.2-0.4-0.2-0.6
			c0-0.2,0-0.4,0.1-0.5s0.2-0.3,0.4-0.4c0.1-0.1,0.3-0.2,0.5-0.2s0.4-0.1,0.6-0.1c0.3,0,0.6,0,0.9,0.1c0.3,0.1,0.5,0.2,0.6,0.4
			c0.1,0.2,0.2,0.4,0.3,0.7l-0.7,0.1c0-0.2-0.1-0.4-0.3-0.5s-0.4-0.2-0.7-0.2c-0.3,0-0.6,0.1-0.7,0.2c-0.1,0.1-0.2,0.2-0.2,0.4
			c0,0.1,0,0.2,0.1,0.3c0.1,0.1,0.2,0.1,0.3,0.2c0.1,0,0.3,0.1,0.7,0.2c0.5,0.1,0.9,0.3,1.1,0.3s0.4,0.2,0.5,0.4s0.2,0.4,0.2,0.6
			c0,0.2-0.1,0.5-0.2,0.7c-0.1,0.2-0.4,0.4-0.6,0.5c-0.3,0.1-0.6,0.2-0.9,0.2c-0.6,0-1-0.1-1.3-0.4S108.6,78.3,108.5,77.8z"/>
		<path d="M116.1,77.7l0.8,0.1c-0.1,0.5-0.3,0.8-0.7,1.1c-0.3,0.2-0.7,0.4-1.3,0.4c-0.6,0-1.2-0.2-1.5-0.6c-0.4-0.4-0.6-1-0.6-1.7
			c0-0.7,0.2-1.3,0.6-1.7s0.9-0.6,1.5-0.6c0.6,0,1.1,0.2,1.4,0.6c0.4,0.4,0.6,1,0.6,1.7c0,0,0,0.1,0,0.2h-3.3c0,0.5,0.2,0.9,0.4,1.1
			c0.2,0.3,0.6,0.4,0.9,0.4c0.3,0,0.5-0.1,0.7-0.2C115.8,78.2,116,78,116.1,77.7z M113.6,76.5h2.5c0-0.4-0.1-0.6-0.3-0.8
			c-0.2-0.3-0.5-0.4-0.9-0.4c-0.3,0-0.6,0.1-0.9,0.3C113.8,75.8,113.6,76.1,113.6,76.5z"/>
		<path d="M120.6,79.1v-0.6c-0.3,0.4-0.7,0.7-1.2,0.7c-0.4,0-0.7-0.1-1-0.3c-0.3-0.2-0.5-0.5-0.7-0.8c-0.2-0.3-0.2-0.7-0.2-1.2
			c0-0.4,0.1-0.8,0.2-1.2c0.1-0.4,0.4-0.6,0.7-0.8c0.3-0.2,0.6-0.3,1-0.3c0.3,0,0.5,0.1,0.7,0.2c0.2,0.1,0.4,0.3,0.5,0.4V73h0.7v6.1
			H120.6z M118.3,76.9c0,0.6,0.1,1,0.4,1.3c0.2,0.3,0.5,0.4,0.8,0.4c0.3,0,0.6-0.1,0.8-0.4c0.2-0.3,0.3-0.7,0.3-1.2
			c0-0.6-0.1-1-0.3-1.3s-0.5-0.4-0.9-0.4c-0.3,0-0.6,0.1-0.8,0.4C118.4,75.9,118.3,76.3,118.3,76.9z"/>
		<path d="M124.6,76.9c0-0.8,0.2-1.4,0.7-1.8c0.4-0.3,0.8-0.5,1.4-0.5c0.6,0,1.1,0.2,1.5,0.6s0.6,0.9,0.6,1.6c0,0.6-0.1,1-0.3,1.3
			c-0.2,0.3-0.4,0.6-0.7,0.8c-0.3,0.2-0.7,0.3-1.1,0.3c-0.6,0-1.1-0.2-1.5-0.6C124.8,78.2,124.6,77.6,124.6,76.9z M125.4,76.9
			c0,0.6,0.1,1,0.4,1.3s0.6,0.4,0.9,0.4c0.4,0,0.7-0.1,0.9-0.4c0.2-0.3,0.4-0.7,0.4-1.3c0-0.5-0.1-1-0.4-1.2s-0.6-0.4-0.9-0.4
			c-0.4,0-0.7,0.1-0.9,0.4S125.4,76.3,125.4,76.9z"/>
		<path d="M129.6,79.1v-4.4h0.7v0.6c0.3-0.5,0.8-0.7,1.4-0.7c0.3,0,0.5,0,0.7,0.1c0.2,0.1,0.4,0.2,0.5,0.4c0.1,0.2,0.2,0.3,0.2,0.6
			c0,0.1,0,0.4,0,0.7v2.7h-0.7v-2.7c0-0.3,0-0.5-0.1-0.7c-0.1-0.2-0.2-0.3-0.3-0.4s-0.3-0.1-0.5-0.1c-0.3,0-0.6,0.1-0.8,0.3
			c-0.2,0.2-0.3,0.6-0.3,1.1v2.4H129.6z"/>
		<path d="M139.7,77.7l0.8,0.1c-0.1,0.5-0.3,0.8-0.7,1.1c-0.3,0.2-0.7,0.4-1.3,0.4c-0.6,0-1.2-0.2-1.5-0.6c-0.4-0.4-0.6-1-0.6-1.7
			c0-0.7,0.2-1.3,0.6-1.7s0.9-0.6,1.5-0.6c0.6,0,1.1,0.2,1.4,0.6c0.4,0.4,0.6,1,0.6,1.7c0,0,0,0.1,0,0.2h-3.3c0,0.5,0.2,0.9,0.4,1.1
			c0.2,0.3,0.6,0.4,0.9,0.4c0.3,0,0.5-0.1,0.7-0.2C139.4,78.2,139.6,78,139.7,77.7z M137.3,76.5h2.5c0-0.4-0.1-0.6-0.3-0.8
			c-0.2-0.3-0.5-0.4-0.9-0.4c-0.3,0-0.6,0.1-0.9,0.3C137.4,75.8,137.3,76.1,137.3,76.5z"/>
		<path d="M141.1,77.8l0.7-0.1c0,0.3,0.2,0.5,0.3,0.7c0.2,0.2,0.5,0.2,0.8,0.2c0.3,0,0.6-0.1,0.8-0.2s0.2-0.3,0.2-0.5
			c0-0.2-0.1-0.3-0.2-0.4c-0.1-0.1-0.4-0.2-0.8-0.3c-0.5-0.1-0.9-0.3-1.1-0.4s-0.4-0.2-0.5-0.4c-0.1-0.2-0.2-0.4-0.2-0.6
			c0-0.2,0-0.4,0.1-0.5s0.2-0.3,0.4-0.4c0.1-0.1,0.3-0.2,0.5-0.2c0.2-0.1,0.4-0.1,0.6-0.1c0.3,0,0.7,0,0.9,0.1s0.5,0.2,0.6,0.4
			c0.1,0.2,0.2,0.4,0.3,0.7l-0.7,0.1c0-0.2-0.1-0.4-0.3-0.5c-0.2-0.1-0.4-0.2-0.7-0.2c-0.3,0-0.6,0.1-0.7,0.2
			c-0.1,0.1-0.2,0.2-0.2,0.4c0,0.1,0,0.2,0.1,0.3c0.1,0.1,0.2,0.1,0.3,0.2c0.1,0,0.3,0.1,0.7,0.2c0.5,0.1,0.9,0.3,1.1,0.3
			s0.4,0.2,0.5,0.4c0.1,0.2,0.2,0.4,0.2,0.6c0,0.2-0.1,0.5-0.2,0.7c-0.1,0.2-0.4,0.4-0.6,0.5c-0.3,0.1-0.6,0.2-0.9,0.2
			c-0.6,0-1-0.1-1.3-0.4S141.2,78.3,141.1,77.8z"/>
		<path d="M147.3,78.4l0.1,0.7c-0.2,0-0.4,0.1-0.6,0.1c-0.3,0-0.5,0-0.6-0.1c-0.1-0.1-0.3-0.2-0.3-0.3c-0.1-0.1-0.1-0.4-0.1-0.9
			v-2.5h-0.5v-0.6h0.5v-1.1l0.7-0.4v1.5h0.8v0.6h-0.8v2.6c0,0.2,0,0.3,0,0.4s0.1,0.1,0.1,0.1c0.1,0,0.1,0.1,0.3,0.1
			C147,78.5,147.2,78.5,147.3,78.4z"/>
		<path d="M148,73.9V73h0.7v0.9H148z M148,79.1v-4.4h0.7v4.4H148z"/>
		<path d="M149.9,79.1v-4.4h0.7v0.6c0.1-0.2,0.3-0.4,0.6-0.5s0.5-0.2,0.8-0.2c0.3,0,0.6,0.1,0.8,0.2c0.2,0.1,0.4,0.3,0.4,0.6
			c0.3-0.5,0.8-0.8,1.4-0.8c0.4,0,0.8,0.1,1,0.4s0.4,0.6,0.4,1.1v3h-0.7v-2.8c0-0.3,0-0.5-0.1-0.6c0-0.1-0.1-0.2-0.3-0.3
			c-0.1-0.1-0.3-0.1-0.4-0.1c-0.3,0-0.6,0.1-0.8,0.3s-0.3,0.5-0.3,1v2.6h-0.7v-2.9c0-0.3-0.1-0.6-0.2-0.7c-0.1-0.2-0.3-0.2-0.6-0.2
			c-0.2,0-0.4,0.1-0.6,0.2c-0.2,0.1-0.3,0.3-0.4,0.5c-0.1,0.2-0.1,0.5-0.1,0.9v2.3H149.9z"/>
		<path d="M159.9,78.6c-0.3,0.2-0.5,0.4-0.8,0.5c-0.3,0.1-0.5,0.1-0.8,0.1c-0.5,0-0.9-0.1-1.1-0.4c-0.3-0.2-0.4-0.5-0.4-0.9
			c0-0.2,0-0.4,0.1-0.6c0.1-0.2,0.2-0.3,0.4-0.4s0.3-0.2,0.5-0.2c0.1,0,0.4-0.1,0.7-0.1c0.6-0.1,1-0.2,1.3-0.3c0-0.1,0-0.2,0-0.2
			c0-0.3-0.1-0.5-0.2-0.6c-0.2-0.2-0.5-0.3-0.9-0.3c-0.4,0-0.6,0.1-0.8,0.2c-0.2,0.1-0.3,0.3-0.4,0.7l-0.7-0.1
			c0.1-0.3,0.2-0.6,0.3-0.8s0.4-0.3,0.7-0.4c0.3-0.1,0.6-0.2,1-0.2c0.4,0,0.7,0,0.9,0.1s0.4,0.2,0.5,0.3c0.1,0.1,0.2,0.3,0.2,0.5
			c0,0.1,0,0.4,0,0.7v1c0,0.7,0,1.1,0,1.3c0,0.2,0.1,0.4,0.2,0.5H160C159.9,78.9,159.9,78.8,159.9,78.6z M159.8,76.9
			c-0.3,0.1-0.7,0.2-1.2,0.3c-0.3,0-0.5,0.1-0.7,0.1c-0.1,0.1-0.2,0.1-0.3,0.2s-0.1,0.2-0.1,0.4c0,0.2,0.1,0.4,0.2,0.5
			c0.2,0.1,0.4,0.2,0.7,0.2c0.3,0,0.5-0.1,0.8-0.2c0.2-0.1,0.4-0.3,0.5-0.5c0.1-0.2,0.1-0.4,0.1-0.7V76.9z"/>
		<path d="M163.4,78.4l0.1,0.7c-0.2,0-0.4,0.1-0.6,0.1c-0.3,0-0.5,0-0.6-0.1c-0.1-0.1-0.3-0.2-0.3-0.3c-0.1-0.1-0.1-0.4-0.1-0.9
			v-2.5h-0.5v-0.6h0.5v-1.1l0.7-0.4v1.5h0.8v0.6h-0.8v2.6c0,0.2,0,0.3,0,0.4s0.1,0.1,0.1,0.1c0.1,0,0.1,0.1,0.3,0.1
			C163.1,78.5,163.2,78.5,163.4,78.4z"/>
		<path d="M167.1,77.7l0.8,0.1c-0.1,0.5-0.3,0.8-0.7,1.1s-0.8,0.4-1.3,0.4c-0.6,0-1.2-0.2-1.5-0.6s-0.6-1-0.6-1.7
			c0-0.7,0.2-1.3,0.6-1.7s0.9-0.6,1.5-0.6c0.6,0,1.1,0.2,1.4,0.6c0.4,0.4,0.6,1,0.6,1.7c0,0,0,0.1,0,0.2h-3.3c0,0.5,0.2,0.9,0.4,1.1
			c0.2,0.3,0.6,0.4,0.9,0.4c0.3,0,0.5-0.1,0.7-0.2C166.8,78.2,167,78,167.1,77.7z M164.6,76.5h2.5c0-0.4-0.1-0.6-0.3-0.8
			c-0.2-0.3-0.5-0.4-0.9-0.4c-0.3,0-0.6,0.1-0.9,0.3C164.8,75.8,164.7,76.1,164.6,76.5z"/>
		<path d="M171.7,79.1v-0.6c-0.3,0.4-0.7,0.7-1.2,0.7c-0.4,0-0.7-0.1-1-0.3c-0.3-0.2-0.5-0.5-0.7-0.8s-0.2-0.7-0.2-1.2
			c0-0.4,0.1-0.8,0.2-1.2s0.4-0.6,0.7-0.8c0.3-0.2,0.6-0.3,1-0.3c0.3,0,0.5,0.1,0.7,0.2c0.2,0.1,0.4,0.3,0.5,0.4V73h0.7v6.1H171.7z
			 M169.3,76.9c0,0.6,0.1,1,0.4,1.3c0.2,0.3,0.5,0.4,0.8,0.4c0.3,0,0.6-0.1,0.8-0.4s0.3-0.7,0.3-1.2c0-0.6-0.1-1-0.3-1.3
			s-0.5-0.4-0.9-0.4c-0.3,0-0.6,0.1-0.8,0.4C169.4,75.9,169.3,76.3,169.3,76.9z"/>
	</g>
	<g>
		<path d="M21.6,90.4l0.8,0.1c-0.1,0.5-0.3,0.8-0.7,1.1c-0.3,0.2-0.7,0.4-1.3,0.4c-0.6,0-1.2-0.2-1.5-0.6c-0.4-0.4-0.6-1-0.6-1.7
			c0-0.7,0.2-1.3,0.6-1.7s0.9-0.6,1.5-0.6c0.6,0,1.1,0.2,1.4,0.6c0.4,0.4,0.6,1,0.6,1.7c0,0,0,0.1,0,0.2h-3.3c0,0.5,0.2,0.9,0.4,1.1
			c0.2,0.3,0.6,0.4,0.9,0.4c0.3,0,0.5-0.1,0.7-0.2C21.3,91,21.5,90.7,21.6,90.4z M19.1,89.2h2.5c0-0.4-0.1-0.6-0.3-0.8
			c-0.2-0.3-0.5-0.4-0.9-0.4c-0.3,0-0.6,0.1-0.9,0.3C19.3,88.5,19.1,88.8,19.1,89.2z"/>
		<path d="M23.3,91.8v-6.1H24v6.1H23.3z"/>
		<path d="M28.2,90.4l0.8,0.1c-0.1,0.5-0.3,0.8-0.7,1.1c-0.3,0.2-0.7,0.4-1.3,0.4c-0.6,0-1.2-0.2-1.5-0.6c-0.4-0.4-0.6-1-0.6-1.7
			c0-0.7,0.2-1.3,0.6-1.7s0.9-0.6,1.5-0.6c0.6,0,1.1,0.2,1.4,0.6c0.4,0.4,0.6,1,0.6,1.7c0,0,0,0.1,0,0.2h-3.3c0,0.5,0.2,0.9,0.4,1.1
			c0.2,0.3,0.6,0.4,0.9,0.4c0.3,0,0.5-0.1,0.7-0.2C27.9,91,28.1,90.7,28.2,90.4z M25.7,89.2h2.5c0-0.4-0.1-0.6-0.3-0.8
			C27.7,88.1,27.4,88,27,88c-0.3,0-0.6,0.1-0.9,0.3C25.9,88.5,25.8,88.8,25.7,89.2z"/>
		<path d="M32.8,90.2l0.7,0.1c-0.1,0.5-0.3,0.9-0.6,1.2c-0.3,0.3-0.7,0.4-1.2,0.4c-0.6,0-1.1-0.2-1.5-0.6c-0.4-0.4-0.5-1-0.5-1.7
			c0-0.5,0.1-0.9,0.2-1.2c0.2-0.4,0.4-0.6,0.7-0.8c0.3-0.2,0.7-0.3,1.1-0.3c0.5,0,0.9,0.1,1.2,0.4c0.3,0.2,0.5,0.6,0.6,1l-0.7,0.1
			c-0.1-0.3-0.2-0.5-0.4-0.7S32,88,31.7,88c-0.4,0-0.7,0.1-0.9,0.4c-0.2,0.3-0.4,0.7-0.4,1.3c0,0.6,0.1,1,0.3,1.3
			c0.2,0.3,0.5,0.4,0.9,0.4c0.3,0,0.5-0.1,0.7-0.3C32.6,90.9,32.7,90.6,32.8,90.2z"/>
		<path d="M35.8,91.2l0.1,0.7c-0.2,0-0.4,0.1-0.6,0.1c-0.3,0-0.5,0-0.6-0.1c-0.1-0.1-0.3-0.2-0.3-0.3s-0.1-0.4-0.1-0.9V88h-0.5v-0.6
			h0.5v-1.1l0.7-0.4v1.5h0.8V88H35v2.6c0,0.2,0,0.3,0,0.4s0.1,0.1,0.1,0.1c0.1,0,0.1,0.1,0.3,0.1C35.5,91.2,35.6,91.2,35.8,91.2z"/>
		<path d="M36.5,91.8v-4.4h0.7v0.7c0.2-0.3,0.3-0.5,0.5-0.6c0.1-0.1,0.3-0.1,0.5-0.1c0.3,0,0.5,0.1,0.8,0.2l-0.3,0.7
			c-0.2-0.1-0.4-0.2-0.5-0.2c-0.2,0-0.3,0-0.4,0.1s-0.2,0.2-0.3,0.4c-0.1,0.3-0.1,0.6-0.1,0.9v2.3H36.5z"/>
		<path d="M39.3,86.6v-0.9h0.7v0.9H39.3z M39.3,91.8v-4.4h0.7v4.4H39.3z"/>
		<path d="M44.1,90.2l0.7,0.1c-0.1,0.5-0.3,0.9-0.6,1.2c-0.3,0.3-0.7,0.4-1.2,0.4c-0.6,0-1.1-0.2-1.5-0.6c-0.4-0.4-0.5-1-0.5-1.7
			c0-0.5,0.1-0.9,0.2-1.2c0.2-0.4,0.4-0.6,0.7-0.8c0.3-0.2,0.7-0.3,1.1-0.3c0.5,0,0.9,0.1,1.2,0.4c0.3,0.2,0.5,0.6,0.6,1L44,88.8
			c-0.1-0.3-0.2-0.5-0.4-0.7S43.3,88,43,88c-0.4,0-0.7,0.1-0.9,0.4c-0.2,0.3-0.4,0.7-0.4,1.3c0,0.6,0.1,1,0.3,1.3
			c0.2,0.3,0.5,0.4,0.9,0.4c0.3,0,0.5-0.1,0.7-0.3C43.9,90.9,44.1,90.6,44.1,90.2z"/>
		<path d="M45.5,86.6v-0.9h0.7v0.9H45.5z M45.5,91.8v-4.4h0.7v4.4H45.5z"/>
		<path d="M49,91.2l0.1,0.7c-0.2,0-0.4,0.1-0.6,0.1c-0.3,0-0.5,0-0.6-0.1c-0.1-0.1-0.3-0.2-0.3-0.3s-0.1-0.4-0.1-0.9V88H47v-0.6h0.5
			v-1.1l0.7-0.4v1.5H49V88h-0.8v2.6c0,0.2,0,0.3,0,0.4s0.1,0.1,0.1,0.1c0.1,0,0.1,0.1,0.3,0.1C48.8,91.2,48.9,91.2,49,91.2z"/>
		<path d="M49.7,93.5l-0.1-0.7c0.2,0,0.3,0.1,0.4,0.1c0.2,0,0.3,0,0.4-0.1s0.2-0.1,0.2-0.2c0-0.1,0.1-0.3,0.2-0.6c0,0,0-0.1,0.1-0.2
			l-1.7-4.4h0.8L51,90c0.1,0.3,0.2,0.7,0.3,1c0.1-0.3,0.2-0.7,0.3-1l0.9-2.6h0.7l-1.7,4.5c-0.2,0.5-0.3,0.8-0.4,1
			c-0.1,0.2-0.3,0.4-0.5,0.5c-0.2,0.1-0.4,0.2-0.6,0.2C50,93.6,49.9,93.6,49.7,93.5z"/>
		<path d="M59.2,91.8v-0.6c-0.3,0.5-0.8,0.7-1.4,0.7c-0.3,0-0.5,0-0.7-0.1s-0.4-0.2-0.5-0.4s-0.2-0.3-0.2-0.6c0-0.1,0-0.4,0-0.7
			v-2.7h0.7v2.4c0,0.4,0,0.7,0,0.8c0,0.2,0.1,0.4,0.3,0.5c0.2,0.1,0.3,0.2,0.6,0.2s0.4-0.1,0.6-0.2s0.3-0.3,0.4-0.5s0.1-0.5,0.1-0.9
			v-2.4h0.7v4.4H59.2z"/>
		<path d="M60.8,90.5l0.7-0.1c0,0.3,0.2,0.5,0.3,0.7c0.2,0.2,0.5,0.2,0.8,0.2c0.3,0,0.6-0.1,0.8-0.2s0.2-0.3,0.2-0.5
			c0-0.2-0.1-0.3-0.2-0.4c-0.1-0.1-0.4-0.2-0.8-0.3c-0.5-0.1-0.9-0.3-1.1-0.4c-0.2-0.1-0.4-0.2-0.5-0.4c-0.1-0.2-0.2-0.4-0.2-0.6
			c0-0.2,0-0.4,0.1-0.5s0.2-0.3,0.4-0.4c0.1-0.1,0.3-0.2,0.5-0.2s0.4-0.1,0.6-0.1c0.3,0,0.6,0,0.9,0.1c0.3,0.1,0.5,0.2,0.6,0.4
			c0.1,0.2,0.2,0.4,0.3,0.7l-0.7,0.1c0-0.2-0.1-0.4-0.3-0.5S62.9,88,62.6,88c-0.3,0-0.6,0.1-0.7,0.2c-0.1,0.1-0.2,0.2-0.2,0.4
			c0,0.1,0,0.2,0.1,0.3c0.1,0.1,0.2,0.1,0.3,0.2c0.1,0,0.3,0.1,0.7,0.2c0.5,0.1,0.9,0.3,1.1,0.3s0.4,0.2,0.5,0.4s0.2,0.4,0.2,0.6
			c0,0.2-0.1,0.5-0.2,0.7c-0.1,0.2-0.4,0.4-0.6,0.5c-0.3,0.1-0.6,0.2-0.9,0.2c-0.6,0-1-0.1-1.3-0.4S60.9,91,60.8,90.5z"/>
		<path d="M68.2,91.3c-0.3,0.2-0.5,0.4-0.8,0.5c-0.3,0.1-0.5,0.1-0.8,0.1c-0.5,0-0.9-0.1-1.1-0.4c-0.3-0.2-0.4-0.5-0.4-0.9
			c0-0.2,0-0.4,0.1-0.6c0.1-0.2,0.2-0.3,0.4-0.4s0.3-0.2,0.5-0.2c0.1,0,0.4-0.1,0.7-0.1c0.6-0.1,1-0.2,1.3-0.3c0-0.1,0-0.2,0-0.2
			c0-0.3-0.1-0.5-0.2-0.6C67.7,88,67.5,88,67.1,88c-0.4,0-0.6,0.1-0.8,0.2s-0.3,0.3-0.4,0.7l-0.7-0.1c0.1-0.3,0.2-0.6,0.3-0.8
			s0.4-0.3,0.7-0.4c0.3-0.1,0.6-0.2,1-0.2c0.4,0,0.7,0,0.9,0.1c0.2,0.1,0.4,0.2,0.5,0.3s0.2,0.3,0.2,0.5c0,0.1,0,0.4,0,0.7v1
			c0,0.7,0,1.1,0,1.3s0.1,0.4,0.2,0.5h-0.8C68.3,91.7,68.2,91.5,68.2,91.3z M68.1,89.6c-0.3,0.1-0.7,0.2-1.2,0.3
			c-0.3,0-0.5,0.1-0.7,0.1c-0.1,0.1-0.2,0.1-0.3,0.2c-0.1,0.1-0.1,0.2-0.1,0.4c0,0.2,0.1,0.4,0.2,0.5s0.4,0.2,0.7,0.2
			c0.3,0,0.5-0.1,0.8-0.2c0.2-0.1,0.4-0.3,0.5-0.5c0.1-0.2,0.1-0.4,0.1-0.7V89.6z"/>
		<path d="M69.9,92.2l0.7,0.1c0,0.2,0.1,0.4,0.3,0.5c0.2,0.1,0.4,0.2,0.8,0.2c0.3,0,0.6-0.1,0.8-0.2s0.3-0.3,0.4-0.6
			c0-0.2,0.1-0.5,0.1-1c-0.3,0.4-0.7,0.6-1.2,0.6c-0.6,0-1.1-0.2-1.4-0.7s-0.5-1-0.5-1.6c0-0.4,0.1-0.8,0.2-1.2
			c0.2-0.4,0.4-0.6,0.7-0.8s0.6-0.3,1-0.3c0.5,0,0.9,0.2,1.3,0.6v-0.5h0.7v3.8c0,0.7-0.1,1.2-0.2,1.5c-0.1,0.3-0.4,0.5-0.7,0.7
			c-0.3,0.2-0.7,0.2-1.1,0.2c-0.5,0-1-0.1-1.3-0.4C70.1,93,69.9,92.7,69.9,92.2z M70.5,89.6c0,0.6,0.1,1,0.3,1.3s0.5,0.4,0.9,0.4
			c0.3,0,0.6-0.1,0.9-0.4s0.3-0.7,0.3-1.2c0-0.5-0.1-0.9-0.4-1.2S72.1,88,71.7,88c-0.3,0-0.6,0.1-0.8,0.4
			C70.6,88.6,70.5,89,70.5,89.6z"/>
		<path d="M77.8,90.4l0.8,0.1c-0.1,0.5-0.3,0.8-0.7,1.1c-0.3,0.2-0.7,0.4-1.3,0.4c-0.6,0-1.2-0.2-1.5-0.6c-0.4-0.4-0.6-1-0.6-1.7
			c0-0.7,0.2-1.3,0.6-1.7s0.9-0.6,1.5-0.6c0.6,0,1.1,0.2,1.4,0.6c0.4,0.4,0.6,1,0.6,1.7c0,0,0,0.1,0,0.2h-3.3c0,0.5,0.2,0.9,0.4,1.1
			c0.2,0.3,0.6,0.4,0.9,0.4c0.3,0,0.5-0.1,0.7-0.2C77.5,91,77.7,90.7,77.8,90.4z M75.3,89.2h2.5c0-0.4-0.1-0.6-0.3-0.8
			C77.3,88.1,77,88,76.6,88c-0.3,0-0.6,0.1-0.9,0.3C75.5,88.5,75.4,88.8,75.3,89.2z"/>
		<path d="M79.7,91.8V91h0.9v0.9H79.7z"/>
		<path d="M85.7,91.8v-5.4h-2v-0.7h4.8v0.7h-2v5.4H85.7z"/>
		<path d="M88.1,89.6c0-0.8,0.2-1.4,0.7-1.8c0.4-0.3,0.8-0.5,1.4-0.5c0.6,0,1.1,0.2,1.5,0.6s0.6,0.9,0.6,1.6c0,0.6-0.1,1-0.3,1.3
			c-0.2,0.3-0.4,0.6-0.7,0.8c-0.3,0.2-0.7,0.3-1.1,0.3c-0.6,0-1.1-0.2-1.5-0.6C88.3,91,88.1,90.4,88.1,89.6z M88.8,89.6
			c0,0.6,0.1,1,0.4,1.3s0.6,0.4,0.9,0.4c0.4,0,0.7-0.1,0.9-0.4c0.2-0.3,0.4-0.7,0.4-1.3c0-0.5-0.1-1-0.4-1.2S90.5,88,90.1,88
			c-0.4,0-0.7,0.1-0.9,0.4S88.8,89.1,88.8,89.6z"/>
		<path d="M98.3,91.3c-0.3,0.2-0.5,0.4-0.8,0.5c-0.3,0.1-0.5,0.1-0.8,0.1c-0.5,0-0.9-0.1-1.1-0.4c-0.3-0.2-0.4-0.5-0.4-0.9
			c0-0.2,0-0.4,0.1-0.6c0.1-0.2,0.2-0.3,0.4-0.4s0.3-0.2,0.5-0.2c0.1,0,0.4-0.1,0.7-0.1c0.6-0.1,1-0.2,1.3-0.3c0-0.1,0-0.2,0-0.2
			c0-0.3-0.1-0.5-0.2-0.6C97.8,88,97.6,88,97.2,88c-0.4,0-0.6,0.1-0.8,0.2s-0.3,0.3-0.4,0.7l-0.7-0.1c0.1-0.3,0.2-0.6,0.3-0.8
			s0.4-0.3,0.7-0.4c0.3-0.1,0.6-0.2,1-0.2c0.4,0,0.7,0,0.9,0.1c0.2,0.1,0.4,0.2,0.5,0.3s0.2,0.3,0.2,0.5c0,0.1,0,0.4,0,0.7v1
			c0,0.7,0,1.1,0,1.3s0.1,0.4,0.2,0.5h-0.8C98.4,91.7,98.3,91.5,98.3,91.3z M98.2,89.6c-0.3,0.1-0.7,0.2-1.2,0.3
			c-0.3,0-0.5,0.1-0.7,0.1c-0.1,0.1-0.2,0.1-0.3,0.2C96,90.4,96,90.5,96,90.7c0,0.2,0.1,0.4,0.2,0.5s0.4,0.2,0.7,0.2
			c0.3,0,0.5-0.1,0.8-0.2c0.2-0.1,0.4-0.3,0.5-0.5c0.1-0.2,0.1-0.4,0.1-0.7V89.6z"/>
		<path d="M101.4,91.8l-1.7-4.4h0.8l0.9,2.6c0.1,0.3,0.2,0.6,0.3,0.9c0.1-0.2,0.2-0.5,0.3-0.8l1-2.7h0.8l-1.7,4.4H101.4z"/>
		<path d="M104.1,89.6c0-0.8,0.2-1.4,0.7-1.8c0.4-0.3,0.8-0.5,1.4-0.5c0.6,0,1.1,0.2,1.5,0.6s0.6,0.9,0.6,1.6c0,0.6-0.1,1-0.3,1.3
			c-0.2,0.3-0.4,0.6-0.7,0.8c-0.3,0.2-0.7,0.3-1.1,0.3c-0.6,0-1.1-0.2-1.5-0.6C104.3,91,104.1,90.4,104.1,89.6z M104.9,89.6
			c0,0.6,0.1,1,0.4,1.3s0.6,0.4,0.9,0.4c0.4,0,0.7-0.1,0.9-0.4c0.2-0.3,0.4-0.7,0.4-1.3c0-0.5-0.1-1-0.4-1.2s-0.6-0.4-0.9-0.4
			c-0.4,0-0.7,0.1-0.9,0.4S104.9,89.1,104.9,89.6z"/>
		<path d="M109.1,86.6v-0.9h0.7v0.9H109.1z M109.1,91.8v-4.4h0.7v4.4H109.1z"/>
		<path d="M113.9,91.8v-0.6c-0.3,0.4-0.7,0.7-1.2,0.7c-0.4,0-0.7-0.1-1-0.3c-0.3-0.2-0.5-0.5-0.7-0.8c-0.2-0.3-0.2-0.7-0.2-1.2
			c0-0.4,0.1-0.8,0.2-1.2c0.1-0.4,0.4-0.6,0.7-0.8c0.3-0.2,0.6-0.3,1-0.3c0.3,0,0.5,0.1,0.7,0.2c0.2,0.1,0.4,0.3,0.5,0.4v-2.2h0.7
			v6.1H113.9z M111.5,89.7c0,0.6,0.1,1,0.4,1.3c0.2,0.3,0.5,0.4,0.8,0.4c0.3,0,0.6-0.1,0.8-0.4c0.2-0.3,0.3-0.7,0.3-1.2
			c0-0.6-0.1-1-0.3-1.3S113,88,112.7,88c-0.3,0-0.6,0.1-0.8,0.4C111.6,88.6,111.5,89.1,111.5,89.7z"/>
		<path d="M121.1,90.4l0.8,0.1c-0.1,0.5-0.3,0.8-0.7,1.1c-0.3,0.2-0.7,0.4-1.3,0.4c-0.6,0-1.2-0.2-1.5-0.6c-0.4-0.4-0.6-1-0.6-1.7
			c0-0.7,0.2-1.3,0.6-1.7s0.9-0.6,1.5-0.6c0.6,0,1.1,0.2,1.4,0.6c0.4,0.4,0.6,1,0.6,1.7c0,0,0,0.1,0,0.2h-3.3c0,0.5,0.2,0.9,0.4,1.1
			c0.2,0.3,0.6,0.4,0.9,0.4c0.3,0,0.5-0.1,0.7-0.2C120.9,91,121,90.7,121.1,90.4z M118.7,89.2h2.5c0-0.4-0.1-0.6-0.3-0.8
			c-0.2-0.3-0.5-0.4-0.9-0.4c-0.3,0-0.6,0.1-0.9,0.3C118.8,88.5,118.7,88.8,118.7,89.2z"/>
		<path d="M122.5,90.5l0.7-0.1c0,0.3,0.2,0.5,0.3,0.7c0.2,0.2,0.5,0.2,0.8,0.2c0.3,0,0.6-0.1,0.8-0.2s0.2-0.3,0.2-0.5
			c0-0.2-0.1-0.3-0.2-0.4c-0.1-0.1-0.4-0.2-0.8-0.3c-0.5-0.1-0.9-0.3-1.1-0.4c-0.2-0.1-0.4-0.2-0.5-0.4c-0.1-0.2-0.2-0.4-0.2-0.6
			c0-0.2,0-0.4,0.1-0.5s0.2-0.3,0.4-0.4c0.1-0.1,0.3-0.2,0.5-0.2s0.4-0.1,0.6-0.1c0.3,0,0.6,0,0.9,0.1c0.3,0.1,0.5,0.2,0.6,0.4
			c0.1,0.2,0.2,0.4,0.3,0.7l-0.7,0.1c0-0.2-0.1-0.4-0.3-0.5s-0.4-0.2-0.7-0.2c-0.3,0-0.6,0.1-0.7,0.2c-0.1,0.1-0.2,0.2-0.2,0.4
			c0,0.1,0,0.2,0.1,0.3c0.1,0.1,0.2,0.1,0.3,0.2c0.1,0,0.3,0.1,0.7,0.2c0.5,0.1,0.9,0.3,1.1,0.3s0.4,0.2,0.5,0.4s0.2,0.4,0.2,0.6
			c0,0.2-0.1,0.5-0.2,0.7c-0.1,0.2-0.4,0.4-0.6,0.5c-0.3,0.1-0.6,0.2-0.9,0.2c-0.6,0-1-0.1-1.3-0.4S122.6,91,122.5,90.5z"/>
		<path d="M128.7,91.2l0.1,0.7c-0.2,0-0.4,0.1-0.6,0.1c-0.3,0-0.5,0-0.6-0.1c-0.1-0.1-0.3-0.2-0.3-0.3s-0.1-0.4-0.1-0.9V88h-0.5
			v-0.6h0.5v-1.1l0.7-0.4v1.5h0.8V88H128v2.6c0,0.2,0,0.3,0,0.4s0.1,0.1,0.1,0.1c0.1,0,0.1,0.1,0.3,0.1
			C128.5,91.2,128.6,91.2,128.7,91.2z"/>
		<path d="M129.5,86.6v-0.9h0.7v0.9H129.5z M129.5,91.8v-4.4h0.7v4.4H129.5z"/>
		<path d="M131.3,91.8v-4.4h0.7v0.6c0.1-0.2,0.3-0.4,0.6-0.5c0.2-0.1,0.5-0.2,0.8-0.2c0.3,0,0.6,0.1,0.8,0.2
			c0.2,0.1,0.4,0.3,0.4,0.6c0.3-0.5,0.8-0.8,1.4-0.8c0.4,0,0.8,0.1,1,0.4c0.2,0.2,0.4,0.6,0.4,1.1v3h-0.7v-2.8c0-0.3,0-0.5-0.1-0.6
			s-0.1-0.2-0.3-0.3c-0.1-0.1-0.3-0.1-0.4-0.1c-0.3,0-0.6,0.1-0.8,0.3s-0.3,0.5-0.3,1v2.6H134V89c0-0.3-0.1-0.6-0.2-0.7
			s-0.3-0.2-0.6-0.2c-0.2,0-0.4,0.1-0.6,0.2c-0.2,0.1-0.3,0.3-0.4,0.5c-0.1,0.2-0.1,0.5-0.1,0.9v2.3H131.3z"/>
		<path d="M141.3,91.3c-0.3,0.2-0.5,0.4-0.8,0.5c-0.3,0.1-0.5,0.1-0.8,0.1c-0.5,0-0.9-0.1-1.1-0.4c-0.3-0.2-0.4-0.5-0.4-0.9
			c0-0.2,0-0.4,0.1-0.6c0.1-0.2,0.2-0.3,0.4-0.4s0.3-0.2,0.5-0.2c0.1,0,0.4-0.1,0.7-0.1c0.6-0.1,1-0.2,1.3-0.3c0-0.1,0-0.2,0-0.2
			c0-0.3-0.1-0.5-0.2-0.6c-0.2-0.2-0.5-0.3-0.9-0.3c-0.4,0-0.6,0.1-0.8,0.2s-0.3,0.3-0.4,0.7l-0.7-0.1c0.1-0.3,0.2-0.6,0.3-0.8
			s0.4-0.3,0.7-0.4c0.3-0.1,0.6-0.2,1-0.2c0.4,0,0.7,0,0.9,0.1c0.2,0.1,0.4,0.2,0.5,0.3s0.2,0.3,0.2,0.5c0,0.1,0,0.4,0,0.7v1
			c0,0.7,0,1.1,0,1.3s0.1,0.4,0.2,0.5h-0.8C141.4,91.7,141.3,91.5,141.3,91.3z M141.2,89.6c-0.3,0.1-0.7,0.2-1.2,0.3
			c-0.3,0-0.5,0.1-0.7,0.1c-0.1,0.1-0.2,0.1-0.3,0.2c-0.1,0.1-0.1,0.2-0.1,0.4c0,0.2,0.1,0.4,0.2,0.5s0.4,0.2,0.7,0.2
			c0.3,0,0.5-0.1,0.8-0.2c0.2-0.1,0.4-0.3,0.5-0.5c0.1-0.2,0.1-0.4,0.1-0.7V89.6z"/>
		<path d="M144.8,91.2l0.1,0.7c-0.2,0-0.4,0.1-0.6,0.1c-0.3,0-0.5,0-0.6-0.1c-0.1-0.1-0.3-0.2-0.3-0.3c-0.1-0.1-0.1-0.4-0.1-0.9V88
			h-0.5v-0.6h0.5v-1.1l0.7-0.4v1.5h0.8V88H144v2.6c0,0.2,0,0.3,0,0.4s0.1,0.1,0.1,0.1c0.1,0,0.1,0.1,0.3,0.1
			C144.5,91.2,144.6,91.2,144.8,91.2z"/>
		<path d="M148.5,90.4l0.8,0.1c-0.1,0.5-0.3,0.8-0.7,1.1s-0.8,0.4-1.3,0.4c-0.6,0-1.2-0.2-1.5-0.6s-0.6-1-0.6-1.7
			c0-0.7,0.2-1.3,0.6-1.7s0.9-0.6,1.5-0.6c0.6,0,1.1,0.2,1.4,0.6c0.4,0.4,0.6,1,0.6,1.7c0,0,0,0.1,0,0.2H146c0,0.5,0.2,0.9,0.4,1.1
			c0.2,0.3,0.6,0.4,0.9,0.4c0.3,0,0.5-0.1,0.7-0.2C148.3,91,148.4,90.7,148.5,90.4z M146.1,89.2h2.5c0-0.4-0.1-0.6-0.3-0.8
			c-0.2-0.3-0.5-0.4-0.9-0.4c-0.3,0-0.6,0.1-0.9,0.3C146.2,88.5,146.1,88.8,146.1,89.2z"/>
		<path d="M153.1,91.8v-0.6c-0.3,0.4-0.7,0.7-1.2,0.7c-0.4,0-0.7-0.1-1-0.3c-0.3-0.2-0.5-0.5-0.7-0.8s-0.2-0.7-0.2-1.2
			c0-0.4,0.1-0.8,0.2-1.2s0.4-0.6,0.7-0.8c0.3-0.2,0.6-0.3,1-0.3c0.3,0,0.5,0.1,0.7,0.2c0.2,0.1,0.4,0.3,0.5,0.4v-2.2h0.7v6.1H153.1
			z M150.7,89.7c0,0.6,0.1,1,0.4,1.3c0.2,0.3,0.5,0.4,0.8,0.4c0.3,0,0.6-0.1,0.8-0.4s0.3-0.7,0.3-1.2c0-0.6-0.1-1-0.3-1.3
			s-0.5-0.4-0.9-0.4c-0.3,0-0.6,0.1-0.8,0.4C150.8,88.6,150.7,89.1,150.7,89.7z"/>
		<path d="M158,91.8h-0.7v-6.1h0.7v2.2c0.3-0.4,0.7-0.6,1.2-0.6c0.3,0,0.5,0.1,0.8,0.2s0.4,0.3,0.6,0.5s0.3,0.4,0.4,0.7
			c0.1,0.3,0.1,0.6,0.1,0.9c0,0.8-0.2,1.3-0.6,1.8c-0.4,0.4-0.8,0.6-1.3,0.6c-0.5,0-0.9-0.2-1.2-0.7V91.8z M158,89.6
			c0,0.5,0.1,0.9,0.2,1.1c0.2,0.4,0.6,0.6,1,0.6c0.3,0,0.6-0.1,0.8-0.4c0.2-0.3,0.4-0.7,0.4-1.3c0-0.6-0.1-1-0.3-1.3
			c-0.2-0.3-0.5-0.4-0.8-0.4c-0.3,0-0.6,0.1-0.8,0.4C158.1,88.7,158,89.1,158,89.6z"/>
		<path d="M162.1,86.6v-0.9h0.7v0.9H162.1z M162.1,91.8v-4.4h0.7v4.4H162.1z"/>
		<path d="M163.9,91.8v-6.1h0.7v6.1H163.9z"/>
		<path d="M165.8,91.8v-6.1h0.7v6.1H165.8z"/>
		<path d="M167.4,90.5l0.7-0.1c0,0.3,0.2,0.5,0.3,0.7c0.2,0.2,0.5,0.2,0.8,0.2c0.3,0,0.6-0.1,0.8-0.2s0.2-0.3,0.2-0.5
			c0-0.2-0.1-0.3-0.2-0.4c-0.1-0.1-0.4-0.2-0.8-0.3c-0.5-0.1-0.9-0.3-1.1-0.4s-0.4-0.2-0.5-0.4c-0.1-0.2-0.2-0.4-0.2-0.6
			c0-0.2,0-0.4,0.1-0.5s0.2-0.3,0.4-0.4c0.1-0.1,0.3-0.2,0.5-0.2c0.2-0.1,0.4-0.1,0.6-0.1c0.3,0,0.6,0,0.9,0.1s0.5,0.2,0.6,0.4
			c0.1,0.2,0.2,0.4,0.3,0.7l-0.7,0.1c0-0.2-0.1-0.4-0.3-0.5s-0.4-0.2-0.7-0.2c-0.3,0-0.6,0.1-0.7,0.2c-0.1,0.1-0.2,0.2-0.2,0.4
			c0,0.1,0,0.2,0.1,0.3c0.1,0.1,0.2,0.1,0.3,0.2c0.1,0,0.3,0.1,0.7,0.2c0.5,0.1,0.9,0.3,1.1,0.3s0.4,0.2,0.5,0.4
			c0.1,0.2,0.2,0.4,0.2,0.6c0,0.2-0.1,0.5-0.2,0.7c-0.1,0.2-0.4,0.4-0.6,0.5c-0.3,0.1-0.6,0.2-0.9,0.2c-0.6,0-1-0.1-1.3-0.4
			C167.7,91.4,167.5,91,167.4,90.5z"/>
		<path d="M172.2,91.8V91h0.9v0.9c0,0.3-0.1,0.6-0.2,0.8c-0.1,0.2-0.3,0.3-0.5,0.4l-0.2-0.3c0.2-0.1,0.3-0.2,0.3-0.3
			c0.1-0.1,0.1-0.3,0.1-0.6H172.2z"/>
	</g>
	<g>
		<path d="M18.6,106.3v-6.1h0.7v0.6c0.2-0.2,0.3-0.4,0.5-0.5c0.2-0.1,0.4-0.2,0.7-0.2c0.4,0,0.7,0.1,1,0.3c0.3,0.2,0.5,0.5,0.7,0.8
			c0.1,0.4,0.2,0.7,0.2,1.2c0,0.5-0.1,0.9-0.2,1.2c-0.2,0.4-0.4,0.6-0.7,0.8s-0.6,0.3-1,0.3c-0.2,0-0.5-0.1-0.7-0.2
			s-0.4-0.2-0.5-0.4v2.1H18.6z M19.2,102.4c0,0.6,0.1,1,0.3,1.3c0.2,0.3,0.5,0.4,0.8,0.4c0.3,0,0.6-0.1,0.9-0.4
			c0.2-0.3,0.4-0.7,0.4-1.3c0-0.6-0.1-1-0.3-1.3s-0.5-0.4-0.8-0.4c-0.3,0-0.6,0.1-0.8,0.4C19.4,101.4,19.2,101.9,19.2,102.4z"/>
		<path d="M23.3,104.6v-6.1H24v6.1H23.3z"/>
		<path d="M28.2,103.2l0.8,0.1c-0.1,0.5-0.3,0.8-0.7,1.1c-0.3,0.2-0.7,0.4-1.3,0.4c-0.6,0-1.2-0.2-1.5-0.6c-0.4-0.4-0.6-1-0.6-1.7
			c0-0.7,0.2-1.3,0.6-1.7s0.9-0.6,1.5-0.6c0.6,0,1.1,0.2,1.4,0.6c0.4,0.4,0.6,1,0.6,1.7c0,0,0,0.1,0,0.2h-3.3c0,0.5,0.2,0.9,0.4,1.1
			c0.2,0.3,0.6,0.4,0.9,0.4c0.3,0,0.5-0.1,0.7-0.2C27.9,103.7,28.1,103.5,28.2,103.2z M25.7,102h2.5c0-0.4-0.1-0.6-0.3-0.8
			c-0.2-0.3-0.5-0.4-0.9-0.4c-0.3,0-0.6,0.1-0.9,0.3C25.9,101.3,25.8,101.6,25.7,102z"/>
		<path d="M32.8,104.1c-0.3,0.2-0.5,0.4-0.8,0.5c-0.3,0.1-0.5,0.1-0.8,0.1c-0.5,0-0.9-0.1-1.1-0.4c-0.3-0.2-0.4-0.5-0.4-0.9
			c0-0.2,0-0.4,0.1-0.6c0.1-0.2,0.2-0.3,0.4-0.4s0.3-0.2,0.5-0.2c0.1,0,0.4-0.1,0.7-0.1c0.6-0.1,1-0.2,1.3-0.3c0-0.1,0-0.2,0-0.2
			c0-0.3-0.1-0.5-0.2-0.6c-0.2-0.2-0.5-0.3-0.9-0.3c-0.4,0-0.6,0.1-0.8,0.2s-0.3,0.3-0.4,0.7l-0.7-0.1c0.1-0.3,0.2-0.6,0.3-0.8
			s0.4-0.3,0.7-0.4c0.3-0.1,0.6-0.2,1-0.2c0.4,0,0.7,0,0.9,0.1c0.2,0.1,0.4,0.2,0.5,0.3s0.2,0.3,0.2,0.5c0,0.1,0,0.4,0,0.7v1
			c0,0.7,0,1.1,0,1.3s0.1,0.4,0.2,0.5h-0.8C32.9,104.4,32.8,104.3,32.8,104.1z M32.7,102.4c-0.3,0.1-0.7,0.2-1.2,0.3
			c-0.3,0-0.5,0.1-0.7,0.1c-0.1,0.1-0.2,0.1-0.3,0.2c-0.1,0.1-0.1,0.2-0.1,0.4c0,0.2,0.1,0.4,0.2,0.5s0.4,0.2,0.7,0.2
			c0.3,0,0.5-0.1,0.8-0.2c0.2-0.1,0.4-0.3,0.5-0.5c0.1-0.2,0.1-0.4,0.1-0.7V102.4z"/>
		<path d="M34.3,103.3l0.7-0.1c0,0.3,0.2,0.5,0.3,0.7c0.2,0.2,0.5,0.2,0.8,0.2c0.3,0,0.6-0.1,0.8-0.2s0.2-0.3,0.2-0.5
			c0-0.2-0.1-0.3-0.2-0.4c-0.1-0.1-0.4-0.2-0.8-0.3c-0.5-0.1-0.9-0.3-1.1-0.4c-0.2-0.1-0.4-0.2-0.5-0.4c-0.1-0.2-0.2-0.4-0.2-0.6
			c0-0.2,0-0.4,0.1-0.5s0.2-0.3,0.4-0.4c0.1-0.1,0.3-0.2,0.5-0.2s0.4-0.1,0.6-0.1c0.3,0,0.6,0,0.9,0.1c0.3,0.1,0.5,0.2,0.6,0.4
			c0.1,0.2,0.2,0.4,0.3,0.7l-0.7,0.1c0-0.2-0.1-0.4-0.3-0.5s-0.4-0.2-0.7-0.2c-0.3,0-0.6,0.1-0.7,0.2c-0.1,0.1-0.2,0.2-0.2,0.4
			c0,0.1,0,0.2,0.1,0.3c0.1,0.1,0.2,0.1,0.3,0.2c0.1,0,0.3,0.1,0.7,0.2c0.5,0.1,0.9,0.3,1.1,0.3s0.4,0.2,0.5,0.4s0.2,0.4,0.2,0.6
			c0,0.2-0.1,0.5-0.2,0.7c-0.1,0.2-0.4,0.4-0.6,0.5c-0.3,0.1-0.6,0.2-0.9,0.2c-0.6,0-1-0.1-1.3-0.4S34.4,103.8,34.3,103.3z"/>
		<path d="M41.9,103.2l0.8,0.1c-0.1,0.5-0.3,0.8-0.7,1.1c-0.3,0.2-0.7,0.4-1.3,0.4c-0.6,0-1.2-0.2-1.5-0.6c-0.4-0.4-0.6-1-0.6-1.7
			c0-0.7,0.2-1.3,0.6-1.7s0.9-0.6,1.5-0.6c0.6,0,1.1,0.2,1.4,0.6c0.4,0.4,0.6,1,0.6,1.7c0,0,0,0.1,0,0.2h-3.3c0,0.5,0.2,0.9,0.4,1.1
			c0.2,0.3,0.6,0.4,0.9,0.4c0.3,0,0.5-0.1,0.7-0.2C41.6,103.7,41.8,103.5,41.9,103.2z M39.4,102h2.5c0-0.4-0.1-0.6-0.3-0.8
			c-0.2-0.3-0.5-0.4-0.9-0.4c-0.3,0-0.6,0.1-0.9,0.3C39.6,101.3,39.5,101.6,39.4,102z"/>
		<path d="M49,103.2l0.8,0.1c-0.1,0.5-0.3,0.8-0.7,1.1c-0.3,0.2-0.7,0.4-1.3,0.4c-0.6,0-1.2-0.2-1.5-0.6c-0.4-0.4-0.6-1-0.6-1.7
			c0-0.7,0.2-1.3,0.6-1.7s0.9-0.6,1.5-0.6c0.6,0,1.1,0.2,1.4,0.6c0.4,0.4,0.6,1,0.6,1.7c0,0,0,0.1,0,0.2h-3.3c0,0.5,0.2,0.9,0.4,1.1
			c0.2,0.3,0.6,0.4,0.9,0.4c0.3,0,0.5-0.1,0.7-0.2C48.7,103.7,48.9,103.5,49,103.2z M46.5,102H49c0-0.4-0.1-0.6-0.3-0.8
			c-0.2-0.3-0.5-0.4-0.9-0.4c-0.3,0-0.6,0.1-0.9,0.3C46.7,101.3,46.6,101.6,46.5,102z"/>
		<path d="M50.7,104.6v-4.4h0.7v0.6c0.3-0.5,0.8-0.7,1.4-0.7c0.3,0,0.5,0,0.7,0.1c0.2,0.1,0.4,0.2,0.5,0.4c0.1,0.2,0.2,0.3,0.2,0.6
			c0,0.1,0,0.4,0,0.7v2.7h-0.7v-2.7c0-0.3,0-0.5-0.1-0.7c-0.1-0.2-0.2-0.3-0.3-0.4s-0.3-0.1-0.5-0.1c-0.3,0-0.6,0.1-0.8,0.3
			c-0.2,0.2-0.3,0.6-0.3,1.1v2.4H50.7z"/>
		<path d="M55.1,103.3l0.7-0.1c0,0.3,0.2,0.5,0.3,0.7c0.2,0.2,0.5,0.2,0.8,0.2c0.3,0,0.6-0.1,0.8-0.2s0.2-0.3,0.2-0.5
			c0-0.2-0.1-0.3-0.2-0.4c-0.1-0.1-0.4-0.2-0.8-0.3c-0.5-0.1-0.9-0.3-1.1-0.4c-0.2-0.1-0.4-0.2-0.5-0.4c-0.1-0.2-0.2-0.4-0.2-0.6
			c0-0.2,0-0.4,0.1-0.5s0.2-0.3,0.4-0.4c0.1-0.1,0.3-0.2,0.5-0.2s0.4-0.1,0.6-0.1c0.3,0,0.6,0,0.9,0.1c0.3,0.1,0.5,0.2,0.6,0.4
			c0.1,0.2,0.2,0.4,0.3,0.7l-0.7,0.1c0-0.2-0.1-0.4-0.3-0.5s-0.4-0.2-0.7-0.2c-0.3,0-0.6,0.1-0.7,0.2c-0.1,0.1-0.2,0.2-0.2,0.4
			c0,0.1,0,0.2,0.1,0.3c0.1,0.1,0.2,0.1,0.3,0.2c0.1,0,0.3,0.1,0.7,0.2c0.5,0.1,0.9,0.3,1.1,0.3s0.4,0.2,0.5,0.4s0.2,0.4,0.2,0.6
			c0,0.2-0.1,0.5-0.2,0.7c-0.1,0.2-0.4,0.4-0.6,0.5c-0.3,0.1-0.6,0.2-0.9,0.2c-0.6,0-1-0.1-1.3-0.4S55.2,103.8,55.1,103.3z"/>
		<path d="M62.6,104.6V104c-0.3,0.5-0.8,0.7-1.4,0.7c-0.3,0-0.5,0-0.7-0.1s-0.4-0.2-0.5-0.4s-0.2-0.3-0.2-0.6c0-0.1,0-0.4,0-0.7
			v-2.7h0.7v2.4c0,0.4,0,0.7,0,0.8c0,0.2,0.1,0.4,0.3,0.5c0.2,0.1,0.3,0.2,0.6,0.2s0.4-0.1,0.6-0.2s0.3-0.3,0.4-0.5s0.1-0.5,0.1-0.9
			v-2.4h0.7v4.4H62.6z"/>
		<path d="M64.4,104.6v-4.4h0.7v0.7c0.2-0.3,0.3-0.5,0.5-0.6c0.1-0.1,0.3-0.1,0.5-0.1c0.3,0,0.5,0.1,0.8,0.2l-0.3,0.7
			c-0.2-0.1-0.4-0.2-0.5-0.2c-0.2,0-0.3,0-0.4,0.1s-0.2,0.2-0.3,0.4c-0.1,0.3-0.1,0.6-0.1,0.9v2.3H64.4z"/>
		<path d="M70.2,103.2l0.8,0.1c-0.1,0.5-0.3,0.8-0.7,1.1c-0.3,0.2-0.7,0.4-1.3,0.4c-0.6,0-1.2-0.2-1.5-0.6c-0.4-0.4-0.6-1-0.6-1.7
			c0-0.7,0.2-1.3,0.6-1.7s0.9-0.6,1.5-0.6c0.6,0,1.1,0.2,1.4,0.6c0.4,0.4,0.6,1,0.6,1.7c0,0,0,0.1,0,0.2h-3.3c0,0.5,0.2,0.9,0.4,1.1
			c0.2,0.3,0.6,0.4,0.9,0.4c0.3,0,0.5-0.1,0.7-0.2C70,103.7,70.1,103.5,70.2,103.2z M67.8,102h2.5c0-0.4-0.1-0.6-0.3-0.8
			c-0.2-0.3-0.5-0.4-0.9-0.4c-0.3,0-0.6,0.1-0.9,0.3C68,101.3,67.8,101.6,67.8,102z"/>
		<path d="M75.1,104.6l-1.3-4.4h0.8l0.7,2.5l0.3,0.9c0,0,0.1-0.4,0.2-0.9l0.7-2.6h0.8l0.7,2.6l0.2,0.8l0.3-0.9l0.8-2.5h0.7l-1.4,4.4
			h-0.8L77,102l-0.2-0.8l-0.9,3.4H75.1z"/>
		<path d="M83.5,103.2l0.8,0.1c-0.1,0.5-0.3,0.8-0.7,1.1c-0.3,0.2-0.7,0.4-1.3,0.4c-0.6,0-1.2-0.2-1.5-0.6c-0.4-0.4-0.6-1-0.6-1.7
			c0-0.7,0.2-1.3,0.6-1.7s0.9-0.6,1.5-0.6c0.6,0,1.1,0.2,1.4,0.6c0.4,0.4,0.6,1,0.6,1.7c0,0,0,0.1,0,0.2H81c0,0.5,0.2,0.9,0.4,1.1
			c0.2,0.3,0.6,0.4,0.9,0.4c0.3,0,0.5-0.1,0.7-0.2C83.2,103.7,83.4,103.5,83.5,103.2z M81,102h2.5c0-0.4-0.1-0.6-0.3-0.8
			c-0.2-0.3-0.5-0.4-0.9-0.4c-0.3,0-0.6,0.1-0.9,0.3C81.2,101.3,81,101.6,81,102z"/>
		<path d="M87.5,104.6v-6.1h0.7v2.2c0.3-0.4,0.8-0.6,1.3-0.6c0.3,0,0.6,0.1,0.9,0.2c0.2,0.1,0.4,0.3,0.5,0.5c0.1,0.2,0.2,0.6,0.2,1
			v2.8h-0.7v-2.8c0-0.4-0.1-0.6-0.2-0.8c-0.2-0.2-0.4-0.3-0.7-0.3c-0.2,0-0.4,0.1-0.6,0.2c-0.2,0.1-0.3,0.3-0.4,0.5
			c-0.1,0.2-0.1,0.5-0.1,0.8v2.4H87.5z"/>
		<path d="M95.2,104.1c-0.3,0.2-0.5,0.4-0.8,0.5c-0.3,0.1-0.5,0.1-0.8,0.1c-0.5,0-0.9-0.1-1.1-0.4c-0.3-0.2-0.4-0.5-0.4-0.9
			c0-0.2,0-0.4,0.1-0.6c0.1-0.2,0.2-0.3,0.4-0.4s0.3-0.2,0.5-0.2c0.1,0,0.4-0.1,0.7-0.1c0.6-0.1,1-0.2,1.3-0.3c0-0.1,0-0.2,0-0.2
			c0-0.3-0.1-0.5-0.2-0.6c-0.2-0.2-0.5-0.3-0.9-0.3c-0.4,0-0.6,0.1-0.8,0.2s-0.3,0.3-0.4,0.7l-0.7-0.1c0.1-0.3,0.2-0.6,0.3-0.8
			s0.4-0.3,0.7-0.4c0.3-0.1,0.6-0.2,1-0.2c0.4,0,0.7,0,0.9,0.1c0.2,0.1,0.4,0.2,0.5,0.3s0.2,0.3,0.2,0.5c0,0.1,0,0.4,0,0.7v1
			c0,0.7,0,1.1,0,1.3s0.1,0.4,0.2,0.5h-0.8C95.2,104.4,95.2,104.3,95.2,104.1z M95.1,102.4c-0.3,0.1-0.7,0.2-1.2,0.3
			c-0.3,0-0.5,0.1-0.7,0.1c-0.1,0.1-0.2,0.1-0.3,0.2c-0.1,0.1-0.1,0.2-0.1,0.4c0,0.2,0.1,0.4,0.2,0.5s0.4,0.2,0.7,0.2
			c0.3,0,0.5-0.1,0.8-0.2c0.2-0.1,0.4-0.3,0.5-0.5c0.1-0.2,0.1-0.4,0.1-0.7V102.4z"/>
		<path d="M98.2,104.6l-1.7-4.4h0.8l0.9,2.6c0.1,0.3,0.2,0.6,0.3,0.9c0.1-0.2,0.2-0.5,0.3-0.8l1-2.7h0.8l-1.7,4.4H98.2z"/>
		<path d="M104.3,103.2l0.8,0.1c-0.1,0.5-0.3,0.8-0.7,1.1c-0.3,0.2-0.7,0.4-1.3,0.4c-0.6,0-1.2-0.2-1.5-0.6c-0.4-0.4-0.6-1-0.6-1.7
			c0-0.7,0.2-1.3,0.6-1.7s0.9-0.6,1.5-0.6c0.6,0,1.1,0.2,1.4,0.6c0.4,0.4,0.6,1,0.6,1.7c0,0,0,0.1,0,0.2h-3.3c0,0.5,0.2,0.9,0.4,1.1
			c0.2,0.3,0.6,0.4,0.9,0.4c0.3,0,0.5-0.1,0.7-0.2C104,103.7,104.2,103.5,104.3,103.2z M101.8,102h2.5c0-0.4-0.1-0.6-0.3-0.8
			c-0.2-0.3-0.5-0.4-0.9-0.4c-0.3,0-0.6,0.1-0.9,0.3C102,101.3,101.8,101.6,101.8,102z"/>
		<path d="M111.2,104.1c-0.3,0.2-0.5,0.4-0.8,0.5c-0.3,0.1-0.5,0.1-0.8,0.1c-0.5,0-0.9-0.1-1.1-0.4c-0.3-0.2-0.4-0.5-0.4-0.9
			c0-0.2,0-0.4,0.1-0.6c0.1-0.2,0.2-0.3,0.4-0.4s0.3-0.2,0.5-0.2c0.1,0,0.4-0.1,0.7-0.1c0.6-0.1,1-0.2,1.3-0.3c0-0.1,0-0.2,0-0.2
			c0-0.3-0.1-0.5-0.2-0.6c-0.2-0.2-0.5-0.3-0.9-0.3c-0.4,0-0.6,0.1-0.8,0.2s-0.3,0.3-0.4,0.7l-0.7-0.1c0.1-0.3,0.2-0.6,0.3-0.8
			s0.4-0.3,0.7-0.4c0.3-0.1,0.6-0.2,1-0.2c0.4,0,0.7,0,0.9,0.1c0.2,0.1,0.4,0.2,0.5,0.3s0.2,0.3,0.2,0.5c0,0.1,0,0.4,0,0.7v1
			c0,0.7,0,1.1,0,1.3s0.1,0.4,0.2,0.5h-0.8C111.3,104.4,111.2,104.3,111.2,104.1z M111.2,102.4c-0.3,0.1-0.7,0.2-1.2,0.3
			c-0.3,0-0.5,0.1-0.7,0.1c-0.1,0.1-0.2,0.1-0.3,0.2c-0.1,0.1-0.1,0.2-0.1,0.4c0,0.2,0.1,0.4,0.2,0.5s0.4,0.2,0.7,0.2
			c0.3,0,0.5-0.1,0.8-0.2c0.2-0.1,0.4-0.3,0.5-0.5c0.1-0.2,0.1-0.4,0.1-0.7V102.4z"/>
		<path d="M115.9,103l0.7,0.1c-0.1,0.5-0.3,0.9-0.6,1.2c-0.3,0.3-0.7,0.4-1.2,0.4c-0.6,0-1.1-0.2-1.5-0.6c-0.4-0.4-0.5-1-0.5-1.7
			c0-0.5,0.1-0.9,0.2-1.2c0.2-0.4,0.4-0.6,0.7-0.8c0.3-0.2,0.7-0.3,1.1-0.3c0.5,0,0.9,0.1,1.2,0.4c0.3,0.2,0.5,0.6,0.6,1l-0.7,0.1
			c-0.1-0.3-0.2-0.5-0.4-0.7s-0.4-0.2-0.6-0.2c-0.4,0-0.7,0.1-0.9,0.4c-0.2,0.3-0.4,0.7-0.4,1.3c0,0.6,0.1,1,0.3,1.3
			c0.2,0.3,0.5,0.4,0.9,0.4c0.3,0,0.5-0.1,0.7-0.3C115.8,103.6,115.9,103.4,115.9,103z"/>
		<path d="M120.2,103l0.7,0.1c-0.1,0.5-0.3,0.9-0.6,1.2c-0.3,0.3-0.7,0.4-1.2,0.4c-0.6,0-1.1-0.2-1.5-0.6c-0.4-0.4-0.5-1-0.5-1.7
			c0-0.5,0.1-0.9,0.2-1.2c0.2-0.4,0.4-0.6,0.7-0.8c0.3-0.2,0.7-0.3,1.1-0.3c0.5,0,0.9,0.1,1.2,0.4c0.3,0.2,0.5,0.6,0.6,1l-0.7,0.1
			c-0.1-0.3-0.2-0.5-0.4-0.7s-0.4-0.2-0.6-0.2c-0.4,0-0.7,0.1-0.9,0.4c-0.2,0.3-0.4,0.7-0.4,1.3c0,0.6,0.1,1,0.3,1.3
			c0.2,0.3,0.5,0.4,0.9,0.4c0.3,0,0.5-0.1,0.7-0.3C120,103.6,120.1,103.4,120.2,103z"/>
		<path d="M124.6,103.2l0.8,0.1c-0.1,0.5-0.3,0.8-0.7,1.1c-0.3,0.2-0.7,0.4-1.3,0.4c-0.6,0-1.2-0.2-1.5-0.6c-0.4-0.4-0.6-1-0.6-1.7
			c0-0.7,0.2-1.3,0.6-1.7s0.9-0.6,1.5-0.6c0.6,0,1.1,0.2,1.4,0.6c0.4,0.4,0.6,1,0.6,1.7c0,0,0,0.1,0,0.2h-3.3c0,0.5,0.2,0.9,0.4,1.1
			c0.2,0.3,0.6,0.4,0.9,0.4c0.3,0,0.5-0.1,0.7-0.2C124.3,103.7,124.5,103.5,124.6,103.2z M122.1,102h2.5c0-0.4-0.1-0.6-0.3-0.8
			c-0.2-0.3-0.5-0.4-0.9-0.4c-0.3,0-0.6,0.1-0.9,0.3C122.3,101.3,122.2,101.6,122.1,102z"/>
		<path d="M126,103.3l0.7-0.1c0,0.3,0.2,0.5,0.3,0.7c0.2,0.2,0.5,0.2,0.8,0.2c0.3,0,0.6-0.1,0.8-0.2s0.2-0.3,0.2-0.5
			c0-0.2-0.1-0.3-0.2-0.4c-0.1-0.1-0.4-0.2-0.8-0.3c-0.5-0.1-0.9-0.3-1.1-0.4c-0.2-0.1-0.4-0.2-0.5-0.4c-0.1-0.2-0.2-0.4-0.2-0.6
			c0-0.2,0-0.4,0.1-0.5s0.2-0.3,0.4-0.4c0.1-0.1,0.3-0.2,0.5-0.2s0.4-0.1,0.6-0.1c0.3,0,0.6,0,0.9,0.1c0.3,0.1,0.5,0.2,0.6,0.4
			c0.1,0.2,0.2,0.4,0.3,0.7l-0.7,0.1c0-0.2-0.1-0.4-0.3-0.5s-0.4-0.2-0.7-0.2c-0.3,0-0.6,0.1-0.7,0.2c-0.1,0.1-0.2,0.2-0.2,0.4
			c0,0.1,0,0.2,0.1,0.3c0.1,0.1,0.2,0.1,0.3,0.2c0.1,0,0.3,0.1,0.7,0.2c0.5,0.1,0.9,0.3,1.1,0.3s0.4,0.2,0.5,0.4s0.2,0.4,0.2,0.6
			c0,0.2-0.1,0.5-0.2,0.7c-0.1,0.2-0.4,0.4-0.6,0.5c-0.3,0.1-0.6,0.2-0.9,0.2c-0.6,0-1-0.1-1.3-0.4S126.1,103.8,126,103.3z"/>
		<path d="M130.2,103.3l0.7-0.1c0,0.3,0.2,0.5,0.3,0.7c0.2,0.2,0.5,0.2,0.8,0.2c0.3,0,0.6-0.1,0.8-0.2s0.2-0.3,0.2-0.5
			c0-0.2-0.1-0.3-0.2-0.4c-0.1-0.1-0.4-0.2-0.8-0.3c-0.5-0.1-0.9-0.3-1.1-0.4c-0.2-0.1-0.4-0.2-0.5-0.4c-0.1-0.2-0.2-0.4-0.2-0.6
			c0-0.2,0-0.4,0.1-0.5s0.2-0.3,0.4-0.4c0.1-0.1,0.3-0.2,0.5-0.2s0.4-0.1,0.6-0.1c0.3,0,0.6,0,0.9,0.1c0.3,0.1,0.5,0.2,0.6,0.4
			c0.1,0.2,0.2,0.4,0.3,0.7l-0.7,0.1c0-0.2-0.1-0.4-0.3-0.5s-0.4-0.2-0.7-0.2c-0.3,0-0.6,0.1-0.7,0.2c-0.1,0.1-0.2,0.2-0.2,0.4
			c0,0.1,0,0.2,0.1,0.3c0.1,0.1,0.2,0.1,0.3,0.2c0.1,0,0.3,0.1,0.7,0.2c0.5,0.1,0.9,0.3,1.1,0.3s0.4,0.2,0.5,0.4s0.2,0.4,0.2,0.6
			c0,0.2-0.1,0.5-0.2,0.7c-0.1,0.2-0.4,0.4-0.6,0.5c-0.3,0.1-0.6,0.2-0.9,0.2c-0.6,0-1-0.1-1.3-0.4S130.3,103.8,130.2,103.3z"/>
		<path d="M138.8,103.9l0.1,0.7c-0.2,0-0.4,0.1-0.6,0.1c-0.3,0-0.5,0-0.6-0.1c-0.1-0.1-0.3-0.2-0.3-0.3s-0.1-0.4-0.1-0.9v-2.5h-0.5
			v-0.6h0.5v-1.1l0.7-0.4v1.5h0.8v0.6H138v2.6c0,0.2,0,0.3,0,0.4s0.1,0.1,0.1,0.1c0.1,0,0.1,0.1,0.3,0.1
			C138.5,104,138.7,104,138.8,103.9z"/>
		<path d="M139.2,102.4c0-0.8,0.2-1.4,0.7-1.8c0.4-0.3,0.8-0.5,1.4-0.5c0.6,0,1.1,0.2,1.5,0.6s0.6,0.9,0.6,1.6c0,0.6-0.1,1-0.3,1.3
			c-0.2,0.3-0.4,0.6-0.7,0.8c-0.3,0.2-0.7,0.3-1.1,0.3c-0.6,0-1.1-0.2-1.5-0.6C139.4,103.7,139.2,103.1,139.2,102.4z M140,102.4
			c0,0.6,0.1,1,0.4,1.3s0.6,0.4,0.9,0.4c0.4,0,0.7-0.1,0.9-0.4c0.2-0.3,0.4-0.7,0.4-1.3c0-0.5-0.1-1-0.4-1.2
			c-0.2-0.3-0.6-0.4-0.9-0.4c-0.4,0-0.7,0.1-0.9,0.4S140,101.8,140,102.4z"/>
		<path d="M146.3,102.4c0-0.8,0.2-1.4,0.7-1.8c0.4-0.3,0.8-0.5,1.4-0.5c0.6,0,1.1,0.2,1.5,0.6s0.6,0.9,0.6,1.6c0,0.6-0.1,1-0.3,1.3
			c-0.2,0.3-0.4,0.6-0.7,0.8c-0.3,0.2-0.7,0.3-1.1,0.3c-0.6,0-1.1-0.2-1.5-0.6C146.5,103.7,146.3,103.1,146.3,102.4z M147.1,102.4
			c0,0.6,0.1,1,0.4,1.3c0.2,0.3,0.6,0.4,0.9,0.4c0.4,0,0.7-0.1,0.9-0.4s0.4-0.7,0.4-1.3c0-0.5-0.1-1-0.4-1.2
			c-0.2-0.3-0.6-0.4-0.9-0.4c-0.4,0-0.7,0.1-0.9,0.4C147.2,101.4,147.1,101.8,147.1,102.4z"/>
		<path d="M154.2,104.6V104c-0.3,0.5-0.8,0.7-1.4,0.7c-0.3,0-0.5,0-0.7-0.1s-0.4-0.2-0.5-0.4s-0.2-0.3-0.2-0.6c0-0.1,0-0.4,0-0.7
			v-2.7h0.7v2.4c0,0.4,0,0.7,0,0.8c0,0.2,0.1,0.4,0.3,0.5c0.2,0.1,0.3,0.2,0.6,0.2c0.2,0,0.4-0.1,0.6-0.2c0.2-0.1,0.3-0.3,0.4-0.5
			c0.1-0.2,0.1-0.5,0.1-0.9v-2.4h0.7v4.4H154.2z"/>
		<path d="M156.1,104.6v-4.4h0.7v0.7c0.2-0.3,0.3-0.5,0.5-0.6c0.1-0.1,0.3-0.1,0.5-0.1c0.3,0,0.5,0.1,0.8,0.2l-0.3,0.7
			c-0.2-0.1-0.4-0.2-0.5-0.2c-0.2,0-0.3,0-0.4,0.1c-0.1,0.1-0.2,0.2-0.3,0.4c-0.1,0.3-0.1,0.6-0.1,0.9v2.3H156.1z"/>
		<path d="M161.3,104.6v-4.4h0.7v0.6c0.1-0.2,0.3-0.4,0.6-0.5s0.5-0.2,0.8-0.2c0.3,0,0.6,0.1,0.8,0.2c0.2,0.1,0.4,0.3,0.4,0.6
			c0.3-0.5,0.8-0.8,1.4-0.8c0.4,0,0.8,0.1,1,0.4s0.4,0.6,0.4,1.1v3h-0.7v-2.8c0-0.3,0-0.5-0.1-0.6c0-0.1-0.1-0.2-0.3-0.3
			c-0.1-0.1-0.3-0.1-0.4-0.1c-0.3,0-0.6,0.1-0.8,0.3s-0.3,0.5-0.3,1v2.6h-0.7v-2.9c0-0.3-0.1-0.6-0.2-0.7c-0.1-0.2-0.3-0.2-0.6-0.2
			c-0.2,0-0.4,0.1-0.6,0.2c-0.2,0.1-0.3,0.3-0.4,0.5c-0.1,0.2-0.1,0.5-0.1,0.9v2.3H161.3z"/>
		<path d="M171.4,103.2l0.8,0.1c-0.1,0.5-0.3,0.8-0.7,1.1s-0.8,0.4-1.3,0.4c-0.6,0-1.2-0.2-1.5-0.6s-0.6-1-0.6-1.7
			c0-0.7,0.2-1.3,0.6-1.7s0.9-0.6,1.5-0.6c0.6,0,1.1,0.2,1.4,0.6c0.4,0.4,0.6,1,0.6,1.7c0,0,0,0.1,0,0.2h-3.3c0,0.5,0.2,0.9,0.4,1.1
			c0.2,0.3,0.6,0.4,0.9,0.4c0.3,0,0.5-0.1,0.7-0.2C171.1,103.7,171.2,103.5,171.4,103.2z M168.9,102h2.5c0-0.4-0.1-0.6-0.3-0.8
			c-0.2-0.3-0.5-0.4-0.9-0.4c-0.3,0-0.6,0.1-0.9,0.3C169.1,101.3,168.9,101.6,168.9,102z"/>
		<path d="M174.7,103.9l0.1,0.7c-0.2,0-0.4,0.1-0.6,0.1c-0.3,0-0.5,0-0.6-0.1c-0.1-0.1-0.3-0.2-0.3-0.3c-0.1-0.1-0.1-0.4-0.1-0.9
			v-2.5h-0.5v-0.6h0.5v-1.1l0.7-0.4v1.5h0.8v0.6h-0.8v2.6c0,0.2,0,0.3,0,0.4s0.1,0.1,0.1,0.1c0.1,0,0.1,0.1,0.3,0.1
			C174.4,104,174.6,104,174.7,103.9z"/>
		<path d="M178.4,103.2l0.8,0.1c-0.1,0.5-0.3,0.8-0.7,1.1s-0.8,0.4-1.3,0.4c-0.6,0-1.2-0.2-1.5-0.6s-0.6-1-0.6-1.7
			c0-0.7,0.2-1.3,0.6-1.7s0.9-0.6,1.5-0.6c0.6,0,1.1,0.2,1.4,0.6c0.4,0.4,0.6,1,0.6,1.7c0,0,0,0.1,0,0.2h-3.3c0,0.5,0.2,0.9,0.4,1.1
			c0.2,0.3,0.6,0.4,0.9,0.4c0.3,0,0.5-0.1,0.7-0.2C178.2,103.7,178.3,103.5,178.4,103.2z M176,102h2.5c0-0.4-0.1-0.6-0.3-0.8
			c-0.2-0.3-0.5-0.4-0.9-0.4c-0.3,0-0.6,0.1-0.9,0.3C176.1,101.3,176,101.6,176,102z"/>
		<path d="M180.1,104.6v-4.4h0.7v0.7c0.2-0.3,0.3-0.5,0.5-0.6c0.1-0.1,0.3-0.1,0.5-0.1c0.3,0,0.5,0.1,0.8,0.2l-0.3,0.7
			c-0.2-0.1-0.4-0.2-0.5-0.2c-0.2,0-0.3,0-0.4,0.1c-0.1,0.1-0.2,0.2-0.3,0.4c-0.1,0.3-0.1,0.6-0.1,0.9v2.3H180.1z"/>
		<path d="M182.7,104.6v-0.9h0.9v0.9H182.7z"/>
	</g>
	<g>
		<path d="M18.6,121.8v-6.1h0.8v5.4h3v0.7H18.6z"/>
		<path d="M26.3,120.4l0.8,0.1c-0.1,0.5-0.3,0.8-0.7,1.1c-0.3,0.2-0.7,0.4-1.3,0.4c-0.6,0-1.2-0.2-1.5-0.6c-0.4-0.4-0.6-1-0.6-1.7
			c0-0.7,0.2-1.3,0.6-1.7c0.4-0.4,0.9-0.6,1.5-0.6c0.6,0,1.1,0.2,1.4,0.6c0.4,0.4,0.6,1,0.6,1.7c0,0,0,0.1,0,0.2h-3.3
			c0,0.5,0.2,0.9,0.4,1.1c0.2,0.3,0.6,0.4,0.9,0.4c0.3,0,0.5-0.1,0.7-0.2C26,121,26.2,120.7,26.3,120.4z M23.9,119.2h2.5
			c0-0.4-0.1-0.6-0.3-0.8c-0.2-0.3-0.5-0.4-0.9-0.4c-0.3,0-0.6,0.1-0.9,0.3S23.9,118.8,23.9,119.2z"/>
		<path d="M30.9,121.3c-0.3,0.2-0.5,0.4-0.8,0.5s-0.5,0.1-0.8,0.1c-0.5,0-0.9-0.1-1.1-0.4c-0.3-0.2-0.4-0.5-0.4-0.9
			c0-0.2,0-0.4,0.1-0.6c0.1-0.2,0.2-0.3,0.4-0.4c0.2-0.1,0.3-0.2,0.5-0.2c0.1,0,0.4-0.1,0.7-0.1c0.6-0.1,1-0.2,1.3-0.3
			c0-0.1,0-0.2,0-0.2c0-0.3-0.1-0.5-0.2-0.6c-0.2-0.2-0.5-0.3-0.9-0.3c-0.4,0-0.6,0.1-0.8,0.2s-0.3,0.3-0.4,0.7l-0.7-0.1
			c0.1-0.3,0.2-0.6,0.3-0.8s0.4-0.3,0.7-0.4c0.3-0.1,0.6-0.2,1-0.2c0.4,0,0.7,0,0.9,0.1c0.2,0.1,0.4,0.2,0.5,0.3
			c0.1,0.1,0.2,0.3,0.2,0.5c0,0.1,0,0.4,0,0.7v1c0,0.7,0,1.1,0,1.3c0,0.2,0.1,0.4,0.2,0.5H31C31,121.7,30.9,121.5,30.9,121.3z
			 M30.8,119.6c-0.3,0.1-0.7,0.2-1.2,0.3c-0.3,0-0.5,0.1-0.7,0.1c-0.1,0.1-0.2,0.1-0.3,0.2c-0.1,0.1-0.1,0.2-0.1,0.4
			c0,0.2,0.1,0.4,0.2,0.5s0.4,0.2,0.7,0.2c0.3,0,0.5-0.1,0.8-0.2c0.2-0.1,0.4-0.3,0.5-0.5c0.1-0.2,0.1-0.4,0.1-0.7V119.6z"/>
		<path d="M32.7,121.8v-4.4h0.7v0.7c0.2-0.3,0.3-0.5,0.5-0.6c0.1-0.1,0.3-0.2,0.5-0.2c0.3,0,0.5,0.1,0.8,0.2l-0.3,0.7
			c-0.2-0.1-0.4-0.2-0.5-0.2c-0.2,0-0.3,0-0.4,0.1c-0.1,0.1-0.2,0.2-0.3,0.4c-0.1,0.3-0.1,0.6-0.1,0.9v2.3H32.7z"/>
		<path d="M35.6,121.8v-4.4h0.7v0.6c0.3-0.5,0.8-0.7,1.4-0.7c0.3,0,0.5,0,0.7,0.1s0.4,0.2,0.5,0.4c0.1,0.2,0.2,0.3,0.2,0.6
			c0,0.1,0,0.4,0,0.7v2.7h-0.7v-2.7c0-0.3,0-0.5-0.1-0.7c-0.1-0.2-0.2-0.3-0.3-0.4s-0.3-0.1-0.5-0.1c-0.3,0-0.6,0.1-0.8,0.3
			s-0.3,0.6-0.3,1.1v2.4H35.6z"/>
		<path d="M42.7,121.8v-4.4h0.7v0.6c0.1-0.2,0.3-0.4,0.6-0.5c0.2-0.1,0.5-0.2,0.8-0.2c0.3,0,0.6,0.1,0.8,0.2s0.4,0.3,0.4,0.6
			c0.3-0.5,0.8-0.8,1.4-0.8c0.4,0,0.8,0.1,1,0.4c0.2,0.2,0.4,0.6,0.4,1.1v3h-0.7v-2.8c0-0.3,0-0.5-0.1-0.6c0-0.1-0.1-0.2-0.3-0.3
			s-0.3-0.1-0.4-0.1c-0.3,0-0.6,0.1-0.8,0.3s-0.3,0.5-0.3,1v2.6h-0.7V119c0-0.3-0.1-0.6-0.2-0.7s-0.3-0.2-0.6-0.2
			c-0.2,0-0.4,0.1-0.6,0.2c-0.2,0.1-0.3,0.3-0.4,0.5s-0.1,0.5-0.1,0.9v2.3H42.7z"/>
		<path d="M49.5,119.6c0-0.8,0.2-1.4,0.7-1.8c0.4-0.3,0.8-0.5,1.4-0.5c0.6,0,1.1,0.2,1.5,0.6c0.4,0.4,0.6,0.9,0.6,1.6
			c0,0.6-0.1,1-0.3,1.3c-0.2,0.3-0.4,0.6-0.7,0.8s-0.7,0.3-1.1,0.3c-0.6,0-1.1-0.2-1.5-0.6S49.5,120.4,49.5,119.6z M50.2,119.6
			c0,0.6,0.1,1,0.4,1.3c0.2,0.3,0.6,0.4,0.9,0.4c0.4,0,0.7-0.1,0.9-0.4c0.2-0.3,0.4-0.7,0.4-1.3c0-0.5-0.1-1-0.4-1.2
			c-0.2-0.3-0.6-0.4-0.9-0.4c-0.4,0-0.7,0.1-0.9,0.4S50.2,119.1,50.2,119.6z"/>
		<path d="M54.5,121.8v-4.4h0.7v0.7c0.2-0.3,0.3-0.5,0.5-0.6c0.1-0.1,0.3-0.2,0.5-0.2c0.3,0,0.5,0.1,0.8,0.2l-0.3,0.7
			c-0.2-0.1-0.4-0.2-0.5-0.2c-0.2,0-0.3,0-0.4,0.1c-0.1,0.1-0.2,0.2-0.3,0.4c-0.1,0.3-0.1,0.6-0.1,0.9v2.3H54.5z"/>
		<path d="M60.3,120.4l0.8,0.1c-0.1,0.5-0.3,0.8-0.7,1.1c-0.3,0.2-0.7,0.4-1.3,0.4c-0.6,0-1.2-0.2-1.5-0.6c-0.4-0.4-0.6-1-0.6-1.7
			c0-0.7,0.2-1.3,0.6-1.7c0.4-0.4,0.9-0.6,1.5-0.6c0.6,0,1.1,0.2,1.4,0.6c0.4,0.4,0.6,1,0.6,1.7c0,0,0,0.1,0,0.2h-3.3
			c0,0.5,0.2,0.9,0.4,1.1c0.2,0.3,0.6,0.4,0.9,0.4c0.3,0,0.5-0.1,0.7-0.2C60.1,121,60.2,120.7,60.3,120.4z M57.9,119.2h2.5
			c0-0.4-0.1-0.6-0.3-0.8c-0.2-0.3-0.5-0.4-0.9-0.4c-0.3,0-0.6,0.1-0.9,0.3S57.9,118.8,57.9,119.2z"/>
		<path d="M67.3,121.3c-0.3,0.2-0.5,0.4-0.8,0.5s-0.5,0.1-0.8,0.1c-0.5,0-0.9-0.1-1.1-0.4c-0.3-0.2-0.4-0.5-0.4-0.9
			c0-0.2,0-0.4,0.1-0.6c0.1-0.2,0.2-0.3,0.4-0.4c0.2-0.1,0.3-0.2,0.5-0.2c0.1,0,0.4-0.1,0.7-0.1c0.6-0.1,1-0.2,1.3-0.3
			c0-0.1,0-0.2,0-0.2c0-0.3-0.1-0.5-0.2-0.6c-0.2-0.2-0.5-0.3-0.9-0.3c-0.4,0-0.6,0.1-0.8,0.2s-0.3,0.3-0.4,0.7l-0.7-0.1
			c0.1-0.3,0.2-0.6,0.3-0.8s0.4-0.3,0.7-0.4c0.3-0.1,0.6-0.2,1-0.2c0.4,0,0.7,0,0.9,0.1c0.2,0.1,0.4,0.2,0.5,0.3
			c0.1,0.1,0.2,0.3,0.2,0.5c0,0.1,0,0.4,0,0.7v1c0,0.7,0,1.1,0,1.3c0,0.2,0.1,0.4,0.2,0.5h-0.8C67.3,121.7,67.3,121.5,67.3,121.3z
			 M67.2,119.6c-0.3,0.1-0.7,0.2-1.2,0.3c-0.3,0-0.5,0.1-0.7,0.1c-0.1,0.1-0.2,0.1-0.3,0.2c-0.1,0.1-0.1,0.2-0.1,0.4
			c0,0.2,0.1,0.4,0.2,0.5s0.4,0.2,0.7,0.2c0.3,0,0.5-0.1,0.8-0.2c0.2-0.1,0.4-0.3,0.5-0.5c0.1-0.2,0.1-0.4,0.1-0.7V119.6z"/>
		<path d="M70.7,121.2l0.1,0.7c-0.2,0-0.4,0.1-0.6,0.1c-0.3,0-0.5,0-0.6-0.1s-0.3-0.2-0.3-0.3s-0.1-0.4-0.1-0.9V118h-0.5v-0.6h0.5
			v-1.1l0.7-0.4v1.5h0.8v0.6H70v2.6c0,0.2,0,0.3,0,0.4c0,0.1,0.1,0.1,0.1,0.1s0.1,0.1,0.3,0.1C70.5,121.2,70.6,121.2,70.7,121.2z"/>
	</g>
	<g>
		<path d="M73.8,121.8v-6.1H75v2.2c0.4-0.4,0.8-0.6,1.3-0.6c0.5,0,1,0.2,1.3,0.6c0.4,0.4,0.5,0.9,0.5,1.7c0,0.8-0.2,1.3-0.5,1.7
			c-0.4,0.4-0.8,0.6-1.3,0.6c-0.3,0-0.5-0.1-0.7-0.2c-0.2-0.1-0.5-0.3-0.6-0.6v0.6H73.8z M75,119.5c0,0.5,0.1,0.8,0.2,1
			c0.2,0.3,0.5,0.5,0.8,0.5c0.3,0,0.5-0.1,0.7-0.3c0.2-0.2,0.3-0.6,0.3-1c0-0.5-0.1-0.9-0.3-1.1s-0.4-0.3-0.7-0.3
			c-0.3,0-0.5,0.1-0.7,0.3C75.1,118.8,75,119.1,75,119.5z"/>
		<path d="M82.9,118.7l-1.1,0.2c0-0.2-0.1-0.4-0.3-0.5c-0.1-0.1-0.3-0.2-0.5-0.2c-0.3,0-0.5,0.1-0.7,0.3c-0.2,0.2-0.3,0.5-0.3,1
			c0,0.5,0.1,0.9,0.3,1.1s0.4,0.3,0.7,0.3c0.2,0,0.4-0.1,0.5-0.2c0.1-0.1,0.2-0.3,0.3-0.6l1.1,0.2c-0.1,0.5-0.3,0.9-0.7,1.2
			s-0.8,0.4-1.4,0.4c-0.6,0-1.2-0.2-1.5-0.6c-0.4-0.4-0.6-1-0.6-1.7c0-0.7,0.2-1.3,0.6-1.7s0.9-0.6,1.6-0.6c0.5,0,1,0.1,1.3,0.3
			C82.6,117.9,82.8,118.3,82.9,118.7z"/>
		<path d="M85,115.8v2.2c0.4-0.4,0.8-0.7,1.3-0.7c0.3,0,0.5,0.1,0.7,0.2s0.4,0.2,0.5,0.4c0.1,0.2,0.2,0.3,0.2,0.5
			c0,0.2,0.1,0.5,0.1,0.9v2.6h-1.2v-2.3c0-0.5,0-0.8-0.1-0.9c0-0.1-0.1-0.2-0.2-0.3c-0.1-0.1-0.3-0.1-0.4-0.1c-0.2,0-0.4,0-0.5,0.1
			c-0.2,0.1-0.3,0.2-0.3,0.4c-0.1,0.2-0.1,0.5-0.1,0.8v2.2h-1.2v-6.1H85z"/>
		<path d="M88.4,117.4h1.2l1.1,3.1l1-3.1H93l-1.6,4.2l-0.3,0.8c-0.1,0.3-0.2,0.5-0.3,0.6s-0.2,0.2-0.3,0.3c-0.1,0.1-0.3,0.1-0.4,0.2
			c-0.2,0-0.4,0.1-0.6,0.1c-0.2,0-0.4,0-0.7-0.1l-0.1-0.9c0.2,0,0.3,0.1,0.5,0.1c0.3,0,0.5-0.1,0.6-0.2s0.2-0.4,0.3-0.6L88.4,117.4z
			"/>
		<path d="M97.8,121.8h-1.1v-0.6c-0.2,0.3-0.4,0.4-0.6,0.6c-0.2,0.1-0.5,0.2-0.7,0.2c-0.5,0-0.9-0.2-1.3-0.6c-0.4-0.4-0.5-1-0.5-1.7
			c0-0.7,0.2-1.3,0.5-1.7c0.4-0.4,0.8-0.6,1.3-0.6c0.5,0,0.9,0.2,1.3,0.6v-2.2h1.2V121.8z M94.7,119.5c0,0.5,0.1,0.8,0.2,1
			c0.2,0.3,0.5,0.5,0.8,0.5c0.3,0,0.5-0.1,0.7-0.3c0.2-0.2,0.3-0.6,0.3-1c0-0.5-0.1-0.9-0.3-1.1s-0.4-0.3-0.7-0.3
			c-0.3,0-0.5,0.1-0.7,0.3C94.7,118.8,94.7,119.1,94.7,119.5z"/>
		<path d="M100,121.8h-1.2v-4.4h1.1v0.6c0.2-0.3,0.4-0.5,0.5-0.6s0.3-0.1,0.5-0.1c0.3,0,0.5,0.1,0.8,0.2l-0.4,1
			c-0.2-0.1-0.4-0.2-0.5-0.2c-0.2,0-0.3,0-0.4,0.1s-0.2,0.3-0.3,0.5s-0.1,0.7-0.1,1.5V121.8z"/>
		<path d="M102,119.6c0-0.4,0.1-0.8,0.3-1.1c0.2-0.4,0.5-0.6,0.8-0.8c0.4-0.2,0.7-0.3,1.2-0.3c0.7,0,1.2,0.2,1.6,0.7
			c0.4,0.4,0.6,1,0.6,1.6c0,0.7-0.2,1.2-0.6,1.7s-1,0.7-1.6,0.7c-0.4,0-0.8-0.1-1.2-0.3c-0.4-0.2-0.6-0.5-0.8-0.8
			C102,120.5,102,120.1,102,119.6z M103.1,119.6c0,0.4,0.1,0.8,0.3,1c0.2,0.2,0.5,0.3,0.8,0.3s0.6-0.1,0.8-0.3s0.3-0.6,0.3-1
			c0-0.4-0.1-0.8-0.3-1s-0.5-0.3-0.8-0.3s-0.6,0.1-0.8,0.3C103.3,118.9,103.1,119.2,103.1,119.6z"/>
		<path d="M107.4,121.8v-1.2h1.2v1.2H107.4z"/>
		<path d="M113.6,118.7l-1.1,0.2c0-0.2-0.1-0.4-0.3-0.5c-0.1-0.1-0.3-0.2-0.5-0.2c-0.3,0-0.5,0.1-0.7,0.3c-0.2,0.2-0.3,0.5-0.3,1
			c0,0.5,0.1,0.9,0.3,1.1s0.4,0.3,0.7,0.3c0.2,0,0.4-0.1,0.5-0.2c0.1-0.1,0.2-0.3,0.3-0.6l1.1,0.2c-0.1,0.5-0.3,0.9-0.7,1.2
			s-0.8,0.4-1.4,0.4c-0.6,0-1.2-0.2-1.5-0.6c-0.4-0.4-0.6-1-0.6-1.7c0-0.7,0.2-1.3,0.6-1.7s0.9-0.6,1.6-0.6c0.5,0,1,0.1,1.3,0.3
			C113.3,117.9,113.5,118.3,113.6,118.7z"/>
		<path d="M114.2,119.6c0-0.4,0.1-0.8,0.3-1.1c0.2-0.4,0.5-0.6,0.8-0.8c0.4-0.2,0.7-0.3,1.2-0.3c0.7,0,1.2,0.2,1.6,0.7
			c0.4,0.4,0.6,1,0.6,1.6c0,0.7-0.2,1.2-0.6,1.7s-1,0.7-1.6,0.7c-0.4,0-0.8-0.1-1.2-0.3c-0.4-0.2-0.6-0.5-0.8-0.8
			C114.3,120.5,114.2,120.1,114.2,119.6z M115.4,119.6c0,0.4,0.1,0.8,0.3,1c0.2,0.2,0.5,0.3,0.8,0.3s0.6-0.1,0.8-0.3s0.3-0.6,0.3-1
			c0-0.4-0.1-0.8-0.3-1s-0.5-0.3-0.8-0.3s-0.6,0.1-0.8,0.3C115.5,118.9,115.4,119.2,115.4,119.6z"/>
		<path d="M119.6,117.4h1.1v0.6c0.4-0.5,0.8-0.7,1.4-0.7c0.3,0,0.5,0.1,0.7,0.2c0.2,0.1,0.4,0.3,0.5,0.5c0.2-0.2,0.4-0.4,0.6-0.5
			c0.2-0.1,0.5-0.2,0.7-0.2c0.3,0,0.6,0.1,0.8,0.2c0.2,0.1,0.4,0.3,0.5,0.6c0.1,0.2,0.1,0.5,0.1,0.9v2.8h-1.2v-2.5
			c0-0.4,0-0.7-0.1-0.8c-0.1-0.2-0.3-0.2-0.5-0.2c-0.2,0-0.3,0-0.5,0.1c-0.1,0.1-0.2,0.2-0.3,0.4s-0.1,0.5-0.1,0.9v2.1h-1.2v-2.4
			c0-0.4,0-0.7-0.1-0.8c0-0.1-0.1-0.2-0.2-0.3c-0.1-0.1-0.2-0.1-0.4-0.1c-0.2,0-0.3,0-0.5,0.1s-0.2,0.2-0.3,0.4
			c-0.1,0.2-0.1,0.5-0.1,0.9v2.1h-1.2V117.4z"/>
		<path d="M126.6,121.9l1.5-6.3h0.9l-1.5,6.3H126.6z"/>
		<path d="M133.5,118.7l-1.1,0.2c0-0.2-0.1-0.4-0.3-0.5c-0.1-0.1-0.3-0.2-0.5-0.2c-0.3,0-0.5,0.1-0.7,0.3c-0.2,0.2-0.3,0.5-0.3,1
			c0,0.5,0.1,0.9,0.3,1.1s0.4,0.3,0.7,0.3c0.2,0,0.4-0.1,0.5-0.2c0.1-0.1,0.2-0.3,0.3-0.6l1.1,0.2c-0.1,0.5-0.3,0.9-0.7,1.2
			s-0.8,0.4-1.4,0.4c-0.6,0-1.2-0.2-1.5-0.6c-0.4-0.4-0.6-1-0.6-1.7c0-0.7,0.2-1.3,0.6-1.7s0.9-0.6,1.6-0.6c0.5,0,1,0.1,1.3,0.3
			C133.1,117.9,133.3,118.3,133.5,118.7z"/>
		<path d="M137.2,121.8v-0.7c-0.2,0.2-0.4,0.4-0.6,0.6c-0.3,0.1-0.5,0.2-0.8,0.2c-0.3,0-0.6-0.1-0.8-0.2s-0.4-0.3-0.5-0.5
			c-0.1-0.2-0.2-0.6-0.2-1v-2.8h1.2v2c0,0.6,0,1,0.1,1.1s0.1,0.3,0.2,0.3c0.1,0.1,0.3,0.1,0.4,0.1c0.2,0,0.4-0.1,0.5-0.2
			c0.2-0.1,0.3-0.2,0.3-0.4c0.1-0.2,0.1-0.6,0.1-1.2v-1.9h1.2v4.4H137.2z"/>
		<path d="M139.1,120.6l1.2-0.2c0,0.2,0.2,0.4,0.3,0.5c0.2,0.1,0.4,0.2,0.6,0.2c0.3,0,0.5-0.1,0.7-0.2c0.1-0.1,0.2-0.2,0.2-0.3
			c0-0.1,0-0.2-0.1-0.2c-0.1-0.1-0.2-0.1-0.4-0.2c-0.9-0.2-1.5-0.4-1.8-0.6c-0.3-0.2-0.5-0.6-0.5-1c0-0.4,0.2-0.7,0.5-1
			s0.8-0.4,1.4-0.4c0.6,0,1.1,0.1,1.3,0.3s0.5,0.5,0.6,0.9l-1.1,0.2c0-0.2-0.1-0.3-0.3-0.4c-0.1-0.1-0.3-0.1-0.6-0.1
			c-0.3,0-0.5,0-0.7,0.1c-0.1,0.1-0.1,0.1-0.1,0.2c0,0.1,0,0.2,0.1,0.2c0.1,0.1,0.5,0.2,1.1,0.3c0.6,0.1,1.1,0.3,1.3,0.5
			c0.2,0.2,0.4,0.5,0.4,0.9c0,0.4-0.2,0.8-0.5,1c-0.3,0.3-0.8,0.4-1.5,0.4c-0.6,0-1.1-0.1-1.4-0.4S139.2,121,139.1,120.6z"/>
		<path d="M146.3,117.4v0.9h-0.8v1.8c0,0.4,0,0.6,0,0.6c0,0.1,0,0.1,0.1,0.1c0.1,0,0.1,0.1,0.2,0.1c0.1,0,0.3,0,0.5-0.1l0.1,0.9
			c-0.3,0.1-0.6,0.2-0.9,0.2c-0.2,0-0.4,0-0.6-0.1c-0.2-0.1-0.3-0.2-0.4-0.3s-0.1-0.3-0.2-0.5c0-0.1,0-0.4,0-0.8v-1.9h-0.5v-0.9h0.5
			v-0.9l1.2-0.7v1.6H146.3z"/>
		<path d="M146.8,119.6c0-0.4,0.1-0.8,0.3-1.1c0.2-0.4,0.5-0.6,0.8-0.8c0.3-0.2,0.7-0.3,1.2-0.3c0.7,0,1.2,0.2,1.6,0.7
			c0.4,0.4,0.6,1,0.6,1.6c0,0.7-0.2,1.2-0.6,1.7c-0.4,0.4-1,0.7-1.6,0.7c-0.4,0-0.8-0.1-1.2-0.3c-0.4-0.2-0.6-0.5-0.8-0.8
			C146.9,120.5,146.8,120.1,146.8,119.6z M148,119.6c0,0.4,0.1,0.8,0.3,1c0.2,0.2,0.5,0.3,0.8,0.3c0.3,0,0.6-0.1,0.8-0.3
			s0.3-0.6,0.3-1c0-0.4-0.1-0.8-0.3-1s-0.5-0.3-0.8-0.3c-0.3,0-0.6,0.1-0.8,0.3C148.1,118.9,148,119.2,148,119.6z"/>
		<path d="M152.2,117.4h1.1v0.6c0.4-0.5,0.8-0.7,1.4-0.7c0.3,0,0.5,0.1,0.7,0.2c0.2,0.1,0.4,0.3,0.5,0.5c0.2-0.2,0.4-0.4,0.6-0.5
			c0.2-0.1,0.5-0.2,0.7-0.2c0.3,0,0.6,0.1,0.8,0.2c0.2,0.1,0.4,0.3,0.5,0.6c0.1,0.2,0.1,0.5,0.1,0.9v2.8h-1.2v-2.5
			c0-0.4,0-0.7-0.1-0.8c-0.1-0.2-0.3-0.2-0.5-0.2c-0.2,0-0.3,0-0.5,0.1c-0.1,0.1-0.2,0.2-0.3,0.4s-0.1,0.5-0.1,0.9v2.1h-1.2v-2.4
			c0-0.4,0-0.7-0.1-0.8c0-0.1-0.1-0.2-0.2-0.3c-0.1-0.1-0.2-0.1-0.4-0.1c-0.2,0-0.3,0-0.5,0.1s-0.2,0.2-0.3,0.4
			c-0.1,0.2-0.1,0.5-0.1,0.9v2.1h-1.2V117.4z"/>
		<path d="M162.4,120.4l1.2,0.2c-0.1,0.4-0.4,0.8-0.7,1s-0.7,0.3-1.2,0.3c-0.8,0-1.3-0.2-1.7-0.8c-0.3-0.4-0.4-0.9-0.4-1.5
			c0-0.7,0.2-1.3,0.6-1.7c0.4-0.4,0.9-0.6,1.4-0.6c0.7,0,1.2,0.2,1.6,0.7c0.4,0.4,0.6,1.1,0.5,2h-2.9c0,0.3,0.1,0.6,0.3,0.8
			s0.4,0.3,0.7,0.3c0.2,0,0.3-0.1,0.5-0.2C162.2,120.8,162.3,120.7,162.4,120.4z M162.5,119.3c0-0.3-0.1-0.6-0.3-0.8
			s-0.4-0.3-0.6-0.3c-0.3,0-0.5,0.1-0.6,0.3s-0.2,0.4-0.2,0.8H162.5z"/>
		<path d="M165.7,121.8h-1.2v-4.4h1.1v0.6c0.2-0.3,0.4-0.5,0.5-0.6c0.1-0.1,0.3-0.1,0.5-0.1c0.3,0,0.5,0.1,0.8,0.2l-0.4,1
			c-0.2-0.1-0.4-0.2-0.5-0.2c-0.2,0-0.3,0-0.4,0.1s-0.2,0.3-0.3,0.5c-0.1,0.2-0.1,0.7-0.1,1.5V121.8z"/>
		<path d="M167.5,120.6l1.2-0.2c0.1,0.2,0.2,0.4,0.3,0.5c0.2,0.1,0.4,0.2,0.6,0.2c0.3,0,0.5-0.1,0.7-0.2c0.1-0.1,0.2-0.2,0.2-0.3
			c0-0.1,0-0.2-0.1-0.2c-0.1-0.1-0.2-0.1-0.4-0.2c-0.9-0.2-1.5-0.4-1.8-0.6c-0.3-0.2-0.5-0.6-0.5-1c0-0.4,0.2-0.7,0.5-1
			s0.8-0.4,1.4-0.4c0.6,0,1.1,0.1,1.3,0.3c0.3,0.2,0.5,0.5,0.6,0.9l-1.1,0.2c0-0.2-0.1-0.3-0.3-0.4c-0.1-0.1-0.3-0.1-0.6-0.1
			c-0.3,0-0.5,0-0.7,0.1c-0.1,0.1-0.1,0.1-0.1,0.2c0,0.1,0,0.2,0.1,0.2c0.1,0.1,0.5,0.2,1.1,0.3c0.6,0.1,1.1,0.3,1.3,0.5
			c0.2,0.2,0.4,0.5,0.4,0.9c0,0.4-0.2,0.8-0.5,1c-0.3,0.3-0.8,0.4-1.5,0.4c-0.6,0-1.1-0.1-1.4-0.4
			C167.8,121.3,167.6,121,167.5,120.6z"/>
		<path d="M175.2,120.4l1.2,0.2c-0.1,0.4-0.4,0.8-0.7,1s-0.7,0.3-1.2,0.3c-0.8,0-1.3-0.2-1.7-0.8c-0.3-0.4-0.4-0.9-0.4-1.5
			c0-0.7,0.2-1.3,0.6-1.7c0.4-0.4,0.9-0.6,1.4-0.6c0.7,0,1.2,0.2,1.6,0.7c0.4,0.4,0.6,1.1,0.5,2h-2.9c0,0.3,0.1,0.6,0.3,0.8
			s0.4,0.3,0.7,0.3c0.2,0,0.3-0.1,0.5-0.2C175,120.8,175.1,120.7,175.2,120.4z M175.2,119.3c0-0.3-0.1-0.6-0.3-0.8s-0.4-0.3-0.6-0.3
			c-0.3,0-0.5,0.1-0.6,0.3s-0.2,0.4-0.2,0.8H175.2z"/>
		<path d="M178.5,121.8h-1.2v-4.4h1.1v0.6c0.2-0.3,0.4-0.5,0.5-0.6c0.1-0.1,0.3-0.1,0.5-0.1c0.3,0,0.5,0.1,0.8,0.2l-0.4,1
			c-0.2-0.1-0.4-0.2-0.5-0.2c-0.2,0-0.3,0-0.4,0.1s-0.2,0.3-0.3,0.5c-0.1,0.2-0.1,0.7-0.1,1.5V121.8z"/>
		<path d="M181.9,121.8l-1.8-4.4h1.2l0.8,2.2l0.2,0.8c0.1-0.2,0.1-0.3,0.1-0.4c0-0.1,0.1-0.2,0.1-0.4l0.8-2.2h1.2l-1.8,4.4H181.9z"
			/>
		<path d="M185.4,116.8v-1.1h1.2v1.1H185.4z M185.4,121.8v-4.4h1.2v4.4H185.4z"/>
		<path d="M191.6,118.7l-1.1,0.2c0-0.2-0.1-0.4-0.3-0.5s-0.3-0.2-0.5-0.2c-0.3,0-0.5,0.1-0.7,0.3c-0.2,0.2-0.3,0.5-0.3,1
			c0,0.5,0.1,0.9,0.3,1.1s0.4,0.3,0.7,0.3c0.2,0,0.4-0.1,0.5-0.2c0.1-0.1,0.2-0.3,0.3-0.6l1.1,0.2c-0.1,0.5-0.3,0.9-0.7,1.2
			c-0.3,0.3-0.8,0.4-1.4,0.4c-0.6,0-1.2-0.2-1.5-0.6c-0.4-0.4-0.6-1-0.6-1.7c0-0.7,0.2-1.3,0.6-1.7s0.9-0.6,1.6-0.6
			c0.5,0,1,0.1,1.3,0.3C191.2,117.9,191.4,118.3,191.6,118.7z"/>
		<path d="M195,120.4l1.2,0.2c-0.1,0.4-0.4,0.8-0.7,1s-0.7,0.3-1.2,0.3c-0.8,0-1.3-0.2-1.7-0.8c-0.3-0.4-0.4-0.9-0.4-1.5
			c0-0.7,0.2-1.3,0.6-1.7c0.4-0.4,0.9-0.6,1.4-0.6c0.7,0,1.2,0.2,1.6,0.7c0.4,0.4,0.6,1.1,0.5,2h-2.9c0,0.3,0.1,0.6,0.3,0.8
			s0.4,0.3,0.7,0.3c0.2,0,0.3-0.1,0.5-0.2C194.9,120.8,194.9,120.7,195,120.4z M195.1,119.3c0-0.3-0.1-0.6-0.3-0.8s-0.4-0.3-0.6-0.3
			c-0.3,0-0.5,0.1-0.6,0.3s-0.2,0.4-0.2,0.8H195.1z"/>
		<path d="M198.3,121.8h-1.2v-4.4h1.1v0.6c0.2-0.3,0.4-0.5,0.5-0.6c0.1-0.1,0.3-0.1,0.5-0.1c0.3,0,0.5,0.1,0.8,0.2l-0.4,1
			c-0.2-0.1-0.4-0.2-0.5-0.2c-0.2,0-0.3,0-0.4,0.1s-0.2,0.3-0.3,0.5c-0.1,0.2-0.1,0.7-0.1,1.5V121.8z"/>
		<path d="M203.4,121.8v-0.7c-0.2,0.2-0.4,0.4-0.6,0.6c-0.3,0.1-0.5,0.2-0.8,0.2c-0.3,0-0.6-0.1-0.8-0.2c-0.2-0.1-0.4-0.3-0.5-0.5
			c-0.1-0.2-0.2-0.6-0.2-1v-2.8h1.2v2c0,0.6,0,1,0.1,1.1s0.1,0.3,0.2,0.3c0.1,0.1,0.3,0.1,0.4,0.1c0.2,0,0.4-0.1,0.5-0.2
			c0.2-0.1,0.3-0.2,0.3-0.4c0.1-0.2,0.1-0.6,0.1-1.2v-1.9h1.2v4.4H203.4z"/>
		<path d="M205.7,121.8v-6.1h1.2v6.1H205.7z"/>
		<path d="M210.6,120.4l1.2,0.2c-0.1,0.4-0.4,0.8-0.7,1s-0.7,0.3-1.2,0.3c-0.8,0-1.3-0.2-1.7-0.8c-0.3-0.4-0.4-0.9-0.4-1.5
			c0-0.7,0.2-1.3,0.6-1.7c0.4-0.4,0.9-0.6,1.4-0.6c0.7,0,1.2,0.2,1.6,0.7c0.4,0.4,0.6,1.1,0.5,2h-2.9c0,0.3,0.1,0.6,0.3,0.8
			s0.4,0.3,0.7,0.3c0.2,0,0.3-0.1,0.5-0.2C210.4,120.8,210.5,120.7,210.6,120.4z M210.7,119.3c0-0.3-0.1-0.6-0.3-0.8
			s-0.4-0.3-0.6-0.3c-0.3,0-0.5,0.1-0.6,0.3s-0.2,0.4-0.2,0.8H210.7z"/>
		<path d="M212.4,120.6l1.2-0.2c0.1,0.2,0.2,0.4,0.3,0.5c0.2,0.1,0.4,0.2,0.6,0.2c0.3,0,0.5-0.1,0.7-0.2c0.1-0.1,0.2-0.2,0.2-0.3
			c0-0.1,0-0.2-0.1-0.2c-0.1-0.1-0.2-0.1-0.4-0.2c-0.9-0.2-1.5-0.4-1.8-0.6c-0.3-0.2-0.5-0.6-0.5-1c0-0.4,0.2-0.7,0.5-1
			s0.8-0.4,1.4-0.4c0.6,0,1.1,0.1,1.3,0.3c0.3,0.2,0.5,0.5,0.6,0.9l-1.1,0.2c0-0.2-0.1-0.3-0.3-0.4c-0.1-0.1-0.3-0.1-0.6-0.1
			c-0.3,0-0.5,0-0.7,0.1c-0.1,0.1-0.1,0.1-0.1,0.2c0,0.1,0,0.2,0.1,0.2c0.1,0.1,0.5,0.2,1.1,0.3c0.6,0.1,1.1,0.3,1.3,0.5
			c0.2,0.2,0.4,0.5,0.4,0.9c0,0.4-0.2,0.8-0.5,1c-0.3,0.3-0.8,0.4-1.5,0.4c-0.6,0-1.1-0.1-1.4-0.4
			C212.7,121.3,212.5,121,212.4,120.6z"/>
	</g>
	<g>
		<path d="M217.7,121.8V121h0.9v0.9H217.7z"/>
	</g>
	<g>
		<defs>
			<rect id="SVGID_1_" width="284.4" height="213.8"/>
		</defs>
		<clipPath id="SVGID_2_">
			<use xlink:href="#SVGID_1_"  style="overflow:visible;"/>
		</clipPath>
		<path class="st1" d="M241.9,51.3h-29.6V44h29.6V51.3z M256.2,61.3c0-1.7-0.2-3.3-0.5-4.9c-1.7-0.3-3.5-0.5-5.3-0.5
			c-16.1,0-29.1,12.9-29.1,28.8c0,1.7,0.2,3.3,0.5,4.9c1.7,0.3,3.5,0.5,5.3,0.5C243.2,90.1,256.2,77.2,256.2,61.3z M265.4,61.3
			c0,20.9-17.1,37.9-38.3,37.9c-21.2,0-38.3-17-38.3-37.9c0-20.9,17.1-37.9,38.3-37.9C248.3,23.4,265.4,40.4,265.4,61.3z
			 M260.5,61.3c0,18.2-14.9,33-33.4,33c-18.4,0-33.4-14.8-33.4-33c0-18.2,14.9-33,33.4-33C245.5,28.3,260.5,43.1,260.5,61.3z"/>
	</g>
</g>
</svg>
