<?xml version="1.0" encoding="utf-8"?>
<!-- Generator: Adobe Illustrator 20.1.0, SVG Export Plug-In . SVG Version: 6.00 Build 0)  -->
<svg version="1.1" id="Layer_1" xmlns="http://www.w3.org/2000/svg" xmlns:xlink="http://www.w3.org/1999/xlink" x="0px" y="0px"
	 viewBox="0 0 470 295" style="enable-background:new 0 0 470 295;" xml:space="preserve">
<style type="text/css">
	.st0{clip-path:url(#SVGID_2_);fill:#22A4C6;}
	.st1{clip-path:url(#SVGID_2_);fill:#004C6C;}
	.st2{clip-path:url(#SVGID_2_);}
	.st3{clip-path:url(#SVGID_4_);fill:#FFFFFF;}
	.st4{clip-path:url(#SVGID_4_);fill:#ECEAE9;}
	.st5{clip-path:url(#SVGID_4_);fill:#B7B5B4;}
	.st6{clip-path:url(#SVGID_4_);fill:none;stroke:#D2D1D1;stroke-width:0.26;stroke-miterlimit:10;}
	.st7{clip-path:url(#SVGID_4_);fill:#90CDE6;}
	.st8{clip-path:url(#SVGID_4_);fill:#D2D1D1;}
	.st9{clip-path:url(#SVGID_4_);fill:#25B3DA;}
	.st10{opacity:0.26;clip-path:url(#SVGID_4_);}
	.st11{clip-path:url(#SVGID_6_);}
	.st12{clip-path:url(#SVGID_8_);fill:#FFFFFF;}
	.st13{clip-path:url(#SVGID_4_);fill:#C7C6C6;}
	.st14{clip-path:url(#SVGID_4_);fill:#B0DBDB;}
	.st15{clip-path:url(#SVGID_4_);fill:none;stroke:#B0DBDB;stroke-width:0.26;stroke-miterlimit:10;}
	.st16{clip-path:url(#SVGID_10_);}
	.st17{clip-path:url(#SVGID_12_);fill:#FFFFFF;}
	
		.st18{clip-path:url(#SVGID_4_);fill:none;stroke:#343534;stroke-width:0.52;stroke-linecap:round;stroke-linejoin:round;stroke-miterlimit:10;}
	.st19{clip-path:url(#SVGID_4_);fill:#DB5536;}
	.st20{clip-path:url(#SVGID_4_);fill:#53AD4A;}
	.st21{clip-path:url(#SVGID_4_);fill:#207D44;}
	.st22{opacity:0.19;clip-path:url(#SVGID_4_);}
	.st23{clip-path:url(#SVGID_14_);}
	.st24{clip-path:url(#SVGID_16_);fill:#9E3E3A;}
	.st25{clip-path:url(#SVGID_18_);}
	.st26{clip-path:url(#SVGID_20_);fill:#9E3E3A;}
	.st27{clip-path:url(#SVGID_22_);}
	.st28{clip-path:url(#SVGID_24_);fill:#9E3E3A;}
	.st29{clip-path:url(#SVGID_26_);}
	.st30{clip-path:url(#SVGID_28_);fill:#9E3E3A;}
	.st31{clip-path:url(#SVGID_30_);fill:#FFFFFF;}
</style>
<g>
	<g>
		<defs>
			<rect id="SVGID_1_" width="470" height="295"/>
		</defs>
		<clipPath id="SVGID_2_">
			<use xlink:href="#SVGID_1_"  style="overflow:visible;"/>
		</clipPath>
		<rect class="st0" width="470" height="295"/>
		<rect y="251.43" class="st1" width="470" height="15.24"/>
		<g class="st2">
			<defs>
				<rect id="SVGID_3_" x="62.816" y="137.233" width="322.97" height="114.197"/>
			</defs>
			<clipPath id="SVGID_4_">
				<use xlink:href="#SVGID_3_"  style="overflow:visible;"/>
			</clipPath>
			<path class="st3" d="M351.225,251.43c0-7.421,7.737-13.436,17.281-13.436c9.544,0,17.28,6.015,17.28,13.436H351.225z"/>
			<rect x="163.013" y="144.857" class="st3" width="148.679" height="91.495"/>
			<path class="st3" d="M319.316,243.41c0,4.109-3.129,7.439-6.989,7.439H161.742c-3.86,0-6.989-3.33-6.989-7.439v-98.738
				c0-4.108,3.129-7.439,6.989-7.439h150.585c3.86,0,6.989,3.331,6.989,7.439V243.41z"/>
			<path class="st4" d="M331.201,242.788c0,3.277-2.307,8.642-5.804,8.642H150.36c-3.498,0-6.863-5.365-6.863-8.642"/>
			<path class="st5" d="M224.944,243.04c0,0-2.697,2.518,12.945,2.518c0,0,14.202,0.27,13.664-2.518H224.944z"/>
			<circle class="st6" cx="236.399" cy="140.727" r="1.588"/>
			<rect x="162.376" y="144.857" class="st7" width="148.68" height="91.495"/>
			<path class="st3" d="M277.506,227.814c0,0.642-0.696,1.163-1.555,1.163H174.098c-0.858,0-1.555-0.521-1.555-1.163v-75.329
				c0-0.642,0.697-1.163,1.555-1.163h101.853c0.859,0,1.555,0.521,1.555,1.163V227.814z"/>
			<path class="st8" d="M145.373,246.695h184.468c0,0-0.838,2.775-3.398,4.42h-176.65
				C149.793,251.115,147.305,249.723,145.373,246.695"/>
			<rect x="302.119" y="154.028" class="st9" width="5.689" height="3.793"/>
			<rect x="302.119" y="162.448" class="st9" width="5.689" height="3.793"/>
			<rect x="302.119" y="170.868" class="st9" width="5.689" height="3.793"/>
			<rect x="302.119" y="179.288" class="st9" width="5.689" height="3.794"/>
			<rect x="302.119" y="187.709" class="st9" width="5.689" height="3.793"/>
			<rect x="302.119" y="196.129" class="st9" width="5.689" height="3.793"/>
			<rect x="292.447" y="154.028" class="st9" width="5.689" height="3.793"/>
			<rect x="292.447" y="162.448" class="st9" width="5.689" height="3.793"/>
			<rect x="292.447" y="170.868" class="st9" width="5.689" height="3.793"/>
			<rect x="292.447" y="179.288" class="st9" width="5.689" height="3.794"/>
			<rect x="292.447" y="187.709" class="st9" width="5.689" height="3.793"/>
			<rect x="292.447" y="196.129" class="st9" width="5.689" height="3.793"/>
			<rect x="301.929" y="204.701" class="st9" width="5.689" height="3.793"/>
			<rect x="301.929" y="213.121" class="st9" width="5.689" height="3.793"/>
			<rect x="301.929" y="221.541" class="st9" width="5.689" height="3.794"/>
			<g class="st10">
				<g>
					<defs>
						<rect id="SVGID_5_" x="154.662" y="169.947" width="61.065" height="73.463"/>
					</defs>
					<clipPath id="SVGID_6_">
						<use xlink:href="#SVGID_5_"  style="overflow:visible;"/>
					</clipPath>
					<g class="st11">
						<defs>
							<rect id="SVGID_7_" x="154.662" y="169.947" width="61.065" height="73.463"/>
						</defs>
						<clipPath id="SVGID_8_">
							<use xlink:href="#SVGID_7_"  style="overflow:visible;"/>
						</clipPath>
						<polygon class="st12" points="154.662,169.947 215.727,242.77 154.753,243.41 						"/>
					</g>
				</g>
			</g>
			<rect x="172.543" y="151.267" class="st13" width="105.198" height="5.743"/>
			<rect x="183.905" y="167.536" class="st14" width="55.433" height="49.443"/>
			<rect x="246.2" y="167.535" class="st14" width="24.145" height="16.214"/>
			<line class="st15" x1="246.165" y1="185.972" x2="270.06" y2="185.972"/>
			<line class="st15" x1="246.165" y1="187.394" x2="270.06" y2="187.394"/>
			<line class="st15" x1="246.165" y1="188.817" x2="270.06" y2="188.817"/>
			<g class="st10">
				<g>
					<defs>
						<rect id="SVGID_9_" x="162.121" y="137.423" width="157.573" height="106.176"/>
					</defs>
					<clipPath id="SVGID_10_">
						<use xlink:href="#SVGID_9_"  style="overflow:visible;"/>
					</clipPath>
					<g class="st16">
						<defs>
							<rect id="SVGID_11_" x="162.121" y="137.423" width="157.574" height="106.177"/>
						</defs>
						<clipPath id="SVGID_12_">
							<use xlink:href="#SVGID_11_"  style="overflow:visible;"/>
						</clipPath>
						<path class="st17" d="M162.121,137.422h150.585c3.86,0,6.989,3.331,6.989,7.439v98.738"/>
					</g>
				</g>
			</g>
			<line class="st18" x1="143.497" y1="242.642" x2="331.156" y2="242.642"/>
			<polygon class="st19" points="111.967,251.43 80.553,251.43 74.898,216.872 117.622,216.872 			"/>
			<path class="st20" d="M86.242,212.983c0,0-23.426-6.389-20.232-35.139c0,0,19.167,15.972,23.426,22.361
				c0,0-14.907-22.361-9.583-37.27L95.825,203.4c0,0-7.453-45.788,1.064-50.047c0,0,13.574,21.01,6.122,40.178
				c0,0,7.722-18.882,11.981-18.882c0,0,7.454-3.195,10.649-1.065c0,0-2.13,13.843-6.39,17.037l-10.648,7.455l15.973-4.26
				c0,0-2.13,20.232-19.168,14.908L86.242,212.983z"/>
			<path class="st21" d="M79.853,162.935c0,0,15.637,22.26,15.637,40.362C95.49,203.297,85.177,185.296,79.853,162.935"/>
			<path class="st21" d="M90.502,208.723c0,0-10.369-16.283-23.682-25.465C66.82,183.258,65.895,211.929,90.502,208.723"/>
			<polygon class="st19" points="119.845,218.082 72.675,218.082 71.442,206.145 121.078,206.145 			"/>
			<path class="st21" d="M101.15,201.27c0,0,11.179-5.28,19.62-11.845c2.774-2.159,4.007-7.708,4.871-15.842L101.15,201.27z"/>
			<g class="st22">
				<g>
					<defs>
						<rect id="SVGID_13_" x="71.752" y="206.38" width="49.018" height="2.775"/>
					</defs>
					<clipPath id="SVGID_14_">
						<use xlink:href="#SVGID_13_"  style="overflow:visible;"/>
					</clipPath>
					<g class="st23">
						<defs>
							<rect id="SVGID_15_" x="71.752" y="206.38" width="49.018" height="2.775"/>
						</defs>
						<clipPath id="SVGID_16_">
							<use xlink:href="#SVGID_15_"  style="overflow:visible;"/>
						</clipPath>
						<rect x="71.752" y="206.38" class="st24" width="49.018" height="2.775"/>
					</g>
				</g>
			</g>
			<g class="st22">
				<g>
					<defs>
						<rect id="SVGID_17_" x="76.376" y="218.404" width="31.446" height="1.233"/>
					</defs>
					<clipPath id="SVGID_18_">
						<use xlink:href="#SVGID_17_"  style="overflow:visible;"/>
					</clipPath>
					<g class="st25">
						<defs>
							<rect id="SVGID_19_" x="76.376" y="218.404" width="31.446" height="1.233"/>
						</defs>
						<clipPath id="SVGID_20_">
							<use xlink:href="#SVGID_19_"  style="overflow:visible;"/>
						</clipPath>
						<rect x="76.376" y="218.404" class="st26" width="31.446" height="1.233"/>
					</g>
				</g>
			</g>
			<g class="st22">
				<g>
					<defs>
						<rect id="SVGID_21_" x="86.596" y="218.521" width="30.142" height="31.837"/>
					</defs>
					<clipPath id="SVGID_22_">
						<use xlink:href="#SVGID_21_"  style="overflow:visible;"/>
					</clipPath>
					<g class="st27">
						<defs>
							<rect id="SVGID_23_" x="86.596" y="218.521" width="30.142" height="31.837"/>
						</defs>
						<clipPath id="SVGID_24_">
							<use xlink:href="#SVGID_23_"  style="overflow:visible;"/>
						</clipPath>
						<polygon class="st28" points="86.596,218.642 97.927,234.928 110.928,250.358 116.738,218.522 						"/>
					</g>
				</g>
			</g>
			<g class="st22">
				<g>
					<defs>
						<rect id="SVGID_25_" x="101.921" y="207.485" width="17.796" height="11.025"/>
					</defs>
					<clipPath id="SVGID_26_">
						<use xlink:href="#SVGID_25_"  style="overflow:visible;"/>
					</clipPath>
					<g class="st29">
						<defs>
							<rect id="SVGID_27_" x="101.921" y="207.485" width="17.796" height="11.025"/>
						</defs>
						<clipPath id="SVGID_28_">
							<use xlink:href="#SVGID_27_"  style="overflow:visible;"/>
						</clipPath>
						<polygon class="st30" points="106.279,218.51 119.017,218.201 119.717,207.485 101.921,207.485 						"/>
					</g>
				</g>
			</g>
		</g>
		<g class="st2">
			<defs>
				<rect id="SVGID_29_" width="470" height="295"/>
			</defs>
			<clipPath id="SVGID_30_">
				<use xlink:href="#SVGID_29_"  style="overflow:visible;"/>
			</clipPath>
			<path class="st31" d="M123.507,111.499h-1.301v1.301h1.301V111.499z M116.109,107.373c0.358-0.351,0.799-0.527,1.324-0.527
				c0.579,0,1.051,0.22,1.415,0.66c0.237,0.284,0.381,0.709,0.432,1.276h-3.764C115.554,108.194,115.752,107.724,116.109,107.373
				 M118.563,111.683c-0.297,0.22-0.654,0.33-1.073,0.33c-0.563,0-1.033-0.197-1.409-0.59c-0.377-0.394-0.586-0.961-0.629-1.702
				h5.028c0.004-0.135,0.006-0.237,0.006-0.304c0-1.113-0.286-1.976-0.857-2.59s-1.308-0.921-2.209-0.921
				c-0.931,0-1.688,0.314-2.272,0.94c-0.584,0.626-0.876,1.506-0.876,2.641c0,1.096,0.288,1.947,0.866,2.554
				c0.578,0.608,1.359,0.911,2.346,0.911c0.782,0,1.426-0.19,1.929-0.571c0.504-0.381,0.849-0.916,1.035-1.606l-1.181-0.146
				C119.094,111.112,118.859,111.463,118.563,111.683 M112.881,103.494h-1.143v9.306h1.143V103.494z M110.025,106.059h-1.143v6.741
				h1.143V106.059z M110.025,103.494h-1.143v1.314h1.143V103.494z M106.712,112.8v-5.859h1.307v-0.882h-1.307v-0.438
				c0-0.508,0.071-0.84,0.215-0.997c0.144-0.156,0.413-0.235,0.807-0.235c0.186,0,0.391,0.019,0.615,0.057l0.178-0.964
				c-0.355-0.098-0.743-0.146-1.162-0.146c-0.622,0-1.077,0.177-1.364,0.533c-0.288,0.355-0.432,0.867-0.432,1.536v0.654h-1.016
				v0.882h1.016v5.859H106.712z M99.348,107.493c0.377-0.427,0.851-0.641,1.422-0.641c0.563,0,1.034,0.215,1.413,0.645
				c0.378,0.429,0.568,1.061,0.568,1.894c0,0.885-0.189,1.543-0.565,1.974c-0.377,0.432-0.849,0.648-1.416,0.648
				c-0.571,0-1.045-0.215-1.422-0.644c-0.376-0.43-0.565-1.076-0.565-1.94C98.783,108.566,98.972,107.921,99.348,107.493
				 M98.482,112.045c0.582,0.605,1.344,0.907,2.288,0.907c0.588,0,1.131-0.137,1.628-0.412c0.498-0.275,0.876-0.661,1.137-1.159
				c0.26-0.497,0.39-1.179,0.39-2.047c0-1.07-0.294-1.909-0.882-2.517c-0.589-0.607-1.346-0.911-2.273-0.911
				c-0.834,0-1.54,0.25-2.12,0.749c-0.694,0.601-1.041,1.526-1.041,2.774C97.609,110.568,97.9,111.44,98.482,112.045 M94.835,112.8
				v-3.529c0-0.483,0.064-0.927,0.191-1.333c0.084-0.267,0.226-0.475,0.425-0.626c0.199-0.15,0.423-0.225,0.673-0.225
				c0.279,0,0.558,0.083,0.838,0.248l0.393-1.06c-0.398-0.246-0.789-0.369-1.174-0.369c-0.267,0-0.511,0.077-0.733,0.229
				c-0.223,0.152-0.465,0.468-0.727,0.946v-1.022h-1.028v6.741H94.835z M88.072,107.484c0.374-0.455,0.805-0.683,1.291-0.683
				c0.491,0,0.913,0.214,1.267,0.642c0.353,0.427,0.53,1.07,0.53,1.929c0,0.902-0.181,1.567-0.543,1.997
				c-0.362,0.429-0.797,0.644-1.304,0.644c-0.5,0-0.925-0.207-1.276-0.622c-0.352-0.415-0.527-1.056-0.527-1.924
				C87.51,108.6,87.697,107.939,88.072,107.484 M87.618,115.383v-3.281c0.194,0.245,0.443,0.448,0.746,0.609
				c0.302,0.161,0.644,0.241,1.025,0.241c0.52,0,1.016-0.147,1.488-0.441c0.472-0.294,0.832-0.717,1.079-1.269
				c0.248-0.553,0.372-1.174,0.372-1.863c0-0.644-0.112-1.235-0.337-1.775c-0.224-0.539-0.556-0.957-0.996-1.253
				c-0.44-0.296-0.948-0.445-1.524-0.445c-0.44,0-0.814,0.086-1.123,0.258c-0.309,0.171-0.586,0.428-0.832,0.771v-0.876h-1.041
				v9.324H87.618z M76.947,107.493c0.377-0.427,0.851-0.641,1.422-0.641c0.563,0,1.034,0.215,1.413,0.645
				c0.378,0.429,0.568,1.061,0.568,1.894c0,0.885-0.189,1.543-0.565,1.974c-0.377,0.432-0.849,0.648-1.416,0.648
				c-0.571,0-1.045-0.215-1.422-0.644c-0.376-0.43-0.565-1.076-0.565-1.94C76.382,108.566,76.571,107.921,76.947,107.493
				 M76.081,112.045c0.582,0.605,1.345,0.907,2.288,0.907c0.588,0,1.131-0.137,1.628-0.412c0.498-0.275,0.876-0.661,1.137-1.159
				c0.26-0.497,0.39-1.179,0.39-2.047c0-1.07-0.294-1.909-0.882-2.517c-0.588-0.607-1.346-0.911-2.273-0.911
				c-0.833,0-1.54,0.25-2.12,0.749c-0.694,0.601-1.041,1.526-1.041,2.774C75.208,110.568,75.499,111.44,76.081,112.045
				 M72.434,112.8v-3.529c0-0.483,0.064-0.927,0.191-1.333c0.084-0.267,0.226-0.475,0.425-0.626c0.199-0.15,0.423-0.225,0.673-0.225
				c0.279,0,0.558,0.083,0.838,0.248l0.393-1.06c-0.398-0.246-0.789-0.369-1.174-0.369c-0.267,0-0.511,0.077-0.733,0.229
				c-0.222,0.152-0.465,0.468-0.727,0.946v-1.022h-1.028v6.741H72.434z M65.347,107.474c0.341-0.414,0.765-0.622,1.273-0.622
				c0.52,0,0.958,0.216,1.314,0.648c0.355,0.431,0.533,1.108,0.533,2.031c0,0.838-0.175,1.461-0.524,1.869
				c-0.349,0.409-0.773,0.613-1.272,0.613c-0.496,0-0.925-0.214-1.289-0.641c-0.364-0.428-0.546-1.073-0.546-1.936
				C64.836,108.543,65.006,107.889,65.347,107.474 M69.508,112.8v-9.306h-1.136v3.339c-0.199-0.275-0.457-0.498-0.775-0.669
				c-0.317-0.172-0.679-0.258-1.085-0.258c-0.555,0-1.056,0.146-1.505,0.438c-0.448,0.292-0.785,0.712-1.009,1.26
				c-0.224,0.549-0.336,1.159-0.336,1.832c0,0.69,0.124,1.3,0.371,1.831c0.248,0.531,0.597,0.945,1.047,1.241
				c0.451,0.296,0.945,0.444,1.483,0.444c0.829,0,1.457-0.334,1.885-1.003v0.851H69.508z M58.26,115.536
				c0.364,0,0.677-0.088,0.939-0.264c0.263-0.175,0.495-0.451,0.699-0.828c0.152-0.279,0.366-0.789,0.641-1.53l2.564-6.855h-1.142
				l-1.441,3.929c-0.182,0.499-0.339,1.011-0.47,1.536c-0.144-0.546-0.307-1.066-0.489-1.561l-1.403-3.904h-1.231l2.558,6.754
				c-0.047,0.122-0.08,0.216-0.102,0.279c-0.16,0.453-0.277,0.736-0.349,0.851c-0.097,0.152-0.222,0.27-0.374,0.355
				c-0.153,0.085-0.356,0.127-0.61,0.127c-0.186,0-0.404-0.034-0.653-0.102l0.127,1.073C57.794,115.489,58.04,115.536,58.26,115.536
				 M49.602,112.8v-4.386h4.837v4.386h1.231v-9.306h-1.231v3.822h-4.837v-3.822H48.37v9.306H49.602z M42.372,115.536
				c0.364,0,0.677-0.088,0.939-0.264c0.263-0.175,0.495-0.451,0.698-0.828c0.153-0.279,0.366-0.789,0.642-1.53l2.564-6.855h-1.143
				l-1.441,3.929c-0.181,0.499-0.338,1.011-0.469,1.536c-0.144-0.546-0.307-1.066-0.489-1.561l-1.403-3.904h-1.231l2.558,6.754
				c-0.047,0.122-0.081,0.216-0.102,0.279c-0.161,0.453-0.277,0.736-0.349,0.851c-0.097,0.152-0.222,0.27-0.374,0.355
				c-0.153,0.085-0.356,0.127-0.61,0.127c-0.186,0-0.404-0.034-0.654-0.102l0.127,1.073
				C41.906,115.489,42.152,115.536,42.372,115.536 M32.152,112.8v-7.922l2.691,7.922h1.111l2.704-7.789v7.789h1.187v-9.306h-1.656
				l-2.228,6.475c-0.225,0.656-0.39,1.153-0.496,1.492c-0.093-0.305-0.241-0.764-0.444-1.378l-2.202-6.589h-1.854v9.306H32.152z"/>
			<path class="st31" d="M422.203,93.3v-3.529c0-0.483,0.063-0.927,0.19-1.333c0.085-0.267,0.227-0.475,0.425-0.626
				c0.199-0.15,0.424-0.225,0.673-0.225c0.28,0,0.559,0.083,0.838,0.248l0.394-1.06c-0.398-0.246-0.79-0.369-1.175-0.369
				c-0.266,0-0.511,0.077-0.733,0.229c-0.222,0.152-0.464,0.468-0.726,0.946v-1.022h-1.029V93.3H422.203z M419.283,93.3v-6.741
				h-1.143v3.612c0,0.575-0.062,1.014-0.187,1.317c-0.125,0.302-0.338,0.541-0.638,0.717c-0.3,0.176-0.622,0.263-0.965,0.263
				c-0.343,0-0.63-0.085-0.863-0.257c-0.233-0.171-0.385-0.407-0.457-0.707c-0.047-0.208-0.07-0.61-0.07-1.206v-3.739h-1.142v4.177
				c0,0.486,0.023,0.842,0.069,1.066c0.068,0.334,0.185,0.617,0.353,0.847c0.167,0.231,0.423,0.422,0.768,0.575
				c0.345,0.152,0.716,0.228,1.114,0.228c0.901,0,1.614-0.381,2.139-1.142v0.99H419.283z M407.927,87.993
				c0.376-0.427,0.85-0.641,1.422-0.641c0.563,0,1.033,0.215,1.412,0.645c0.379,0.429,0.568,1.061,0.568,1.894
				c0,0.885-0.188,1.543-0.565,1.974c-0.376,0.432-0.848,0.648-1.415,0.648c-0.572,0-1.046-0.215-1.422-0.644
				c-0.377-0.43-0.565-1.076-0.565-1.94C407.362,89.066,407.55,88.421,407.927,87.993 M407.06,92.545
				c0.582,0.605,1.345,0.907,2.289,0.907c0.588,0,1.131-0.137,1.628-0.412c0.497-0.275,0.876-0.661,1.136-1.159
				c0.26-0.497,0.391-1.179,0.391-2.047c0-1.07-0.295-1.909-0.883-2.517c-0.588-0.607-1.345-0.911-2.272-0.911
				c-0.834,0-1.541,0.25-2.12,0.749c-0.694,0.601-1.041,1.526-1.041,2.774C406.188,91.068,406.479,91.94,407.06,92.545
				 M400.798,96.036c0.364,0,0.677-0.088,0.94-0.264c0.262-0.175,0.495-0.451,0.698-0.828c0.153-0.279,0.366-0.789,0.641-1.53
				l2.565-6.855h-1.143l-1.441,3.929c-0.182,0.499-0.338,1.011-0.469,1.536c-0.144-0.546-0.307-1.066-0.489-1.561l-1.403-3.904
				h-1.232l2.559,6.754c-0.047,0.122-0.081,0.216-0.102,0.279c-0.161,0.453-0.277,0.736-0.349,0.851
				c-0.098,0.152-0.222,0.27-0.375,0.355c-0.152,0.085-0.355,0.127-0.609,0.127c-0.186,0-0.404-0.034-0.654-0.102l0.127,1.073
				C400.333,95.989,400.578,96.036,400.798,96.036 M390.585,87.993c0.377-0.427,0.851-0.641,1.422-0.641
				c0.563,0,1.034,0.215,1.412,0.645c0.379,0.429,0.568,1.061,0.568,1.894c0,0.885-0.188,1.543-0.565,1.974
				c-0.376,0.432-0.848,0.648-1.415,0.648c-0.571,0-1.045-0.215-1.422-0.644c-0.377-0.43-0.565-1.076-0.565-1.94
				C390.02,89.066,390.208,88.421,390.585,87.993 M389.719,92.545c0.581,0.605,1.344,0.907,2.288,0.907
				c0.588,0,1.131-0.137,1.628-0.412c0.497-0.275,0.876-0.661,1.136-1.159c0.261-0.497,0.391-1.179,0.391-2.047
				c0-1.07-0.294-1.909-0.883-2.517c-0.588-0.607-1.345-0.911-2.272-0.911c-0.834,0-1.54,0.25-2.12,0.749
				c-0.694,0.601-1.041,1.526-1.041,2.774C388.846,91.068,389.137,91.94,389.719,92.545 M387.652,92.322
				c-0.169,0-0.299-0.027-0.39-0.082c-0.091-0.055-0.157-0.129-0.197-0.222s-0.06-0.303-0.06-0.629v-3.942h1.149v-0.888h-1.149
				v-2.355l-1.136,0.685v1.67h-0.838v0.888h0.838v3.879c0,0.685,0.046,1.135,0.139,1.349c0.093,0.214,0.254,0.386,0.483,0.517
				c0.228,0.131,0.55,0.197,0.965,0.197c0.254,0,0.541-0.034,0.863-0.102l-0.165-1.009
				C387.947,92.308,387.779,92.322,387.652,92.322 M380.429,92.322c-0.169,0-0.3-0.027-0.391-0.082
				c-0.091-0.055-0.156-0.129-0.196-0.222c-0.041-0.093-0.061-0.303-0.061-0.629v-3.942h1.149v-0.888h-1.149v-2.355l-1.136,0.685
				v1.67h-0.838v0.888h0.838v3.879c0,0.685,0.047,1.135,0.14,1.349c0.093,0.214,0.254,0.386,0.482,0.517
				c0.229,0.131,0.55,0.197,0.965,0.197c0.254,0,0.542-0.034,0.863-0.102l-0.165-1.009
				C380.723,92.308,380.556,92.322,380.429,92.322 M372.348,93.3v-3.682c0-0.863,0.177-1.449,0.53-1.758
				c0.354-0.309,0.774-0.463,1.26-0.463c0.305,0,0.57,0.069,0.797,0.206c0.226,0.138,0.384,0.322,0.473,0.552
				c0.089,0.231,0.133,0.579,0.133,1.044V93.3h1.143v-4.145c0-0.529-0.022-0.899-0.064-1.111c-0.068-0.326-0.186-0.607-0.355-0.844
				c-0.17-0.237-0.425-0.429-0.765-0.575c-0.341-0.146-0.714-0.219-1.12-0.219c-0.936,0-1.651,0.371-2.146,1.111v-0.958h-1.028V93.3
				H372.348z M369.416,93.3v-6.741h-1.143v3.612c0,0.575-0.062,1.014-0.187,1.317c-0.125,0.302-0.338,0.541-0.638,0.717
				c-0.301,0.176-0.622,0.263-0.965,0.263c-0.343,0-0.631-0.085-0.863-0.257c-0.233-0.171-0.385-0.407-0.457-0.707
				c-0.047-0.208-0.07-0.61-0.07-1.206v-3.739h-1.143v4.177c0,0.486,0.024,0.842,0.07,1.066c0.068,0.334,0.185,0.617,0.352,0.847
				c0.168,0.231,0.424,0.422,0.769,0.575c0.344,0.152,0.716,0.228,1.114,0.228c0.901,0,1.614-0.381,2.139-1.142v0.99H369.416z
				 M358.06,87.993c0.376-0.427,0.85-0.641,1.422-0.641c0.562,0,1.033,0.215,1.412,0.645c0.379,0.429,0.568,1.061,0.568,1.894
				c0,0.885-0.188,1.543-0.565,1.974c-0.377,0.432-0.848,0.648-1.415,0.648c-0.572,0-1.046-0.215-1.422-0.644
				c-0.377-0.43-0.565-1.076-0.565-1.94C357.495,89.066,357.683,88.421,358.06,87.993 M357.193,92.545
				c0.582,0.605,1.345,0.907,2.289,0.907c0.588,0,1.13-0.137,1.628-0.412c0.497-0.275,0.876-0.661,1.136-1.159
				c0.26-0.497,0.39-1.179,0.39-2.047c0-1.07-0.294-1.909-0.882-2.517c-0.588-0.607-1.346-0.911-2.272-0.911
				c-0.834,0-1.541,0.25-2.121,0.749c-0.694,0.601-1.041,1.526-1.041,2.774C356.32,91.068,356.611,91.94,357.193,92.545
				 M354.073,92.1c-0.3,0.275-0.675,0.413-1.123,0.413c-0.559,0-1.012-0.205-1.359-0.616c-0.347-0.41-0.52-1.068-0.52-1.974
				c0-0.893,0.18-1.546,0.539-1.958c0.36-0.413,0.828-0.619,1.403-0.619c0.381,0,0.706,0.114,0.975,0.343
				c0.268,0.228,0.456,0.569,0.561,1.022l1.111-0.172c-0.131-0.681-0.429-1.207-0.895-1.577c-0.465-0.37-1.064-0.556-1.796-0.556
				c-0.58,0-1.116,0.137-1.609,0.41c-0.493,0.273-0.86,0.682-1.102,1.228c-0.241,0.546-0.361,1.183-0.361,1.911
				c0,1.126,0.28,1.99,0.841,2.593c0.56,0.603,1.302,0.904,2.225,0.904c0.736,0,1.357-0.219,1.863-0.657
				c0.505-0.438,0.819-1.044,0.942-1.818l-1.123-0.146C354.564,91.402,354.374,91.825,354.073,92.1 M347.573,92.1
				c-0.3,0.275-0.675,0.413-1.123,0.413c-0.559,0-1.012-0.205-1.359-0.616c-0.347-0.41-0.52-1.068-0.52-1.974
				c0-0.893,0.18-1.546,0.539-1.958c0.36-0.413,0.828-0.619,1.403-0.619c0.381,0,0.706,0.114,0.975,0.343
				c0.268,0.228,0.456,0.569,0.561,1.022l1.111-0.172c-0.131-0.681-0.429-1.207-0.895-1.577c-0.465-0.37-1.064-0.556-1.796-0.556
				c-0.58,0-1.116,0.137-1.609,0.41c-0.493,0.273-0.86,0.682-1.102,1.228c-0.241,0.546-0.361,1.183-0.361,1.911
				c0,1.126,0.28,1.99,0.841,2.593c0.56,0.603,1.302,0.904,2.225,0.904c0.736,0,1.357-0.219,1.863-0.657
				c0.505-0.438,0.819-1.044,0.942-1.818l-1.123-0.146C348.064,91.402,347.874,91.825,347.573,92.1 M340.819,90.336
				c0,0.503-0.061,0.884-0.184,1.142c-0.161,0.335-0.412,0.598-0.755,0.791c-0.343,0.192-0.734,0.288-1.174,0.288
				c-0.445,0-0.782-0.101-1.013-0.304c-0.23-0.203-0.346-0.457-0.346-0.762c0-0.199,0.053-0.38,0.159-0.543
				c0.106-0.163,0.256-0.286,0.451-0.371c0.194-0.085,0.527-0.161,0.996-0.229c0.83-0.118,1.452-0.262,1.866-0.431V90.336z
				 M341.143,93.3h1.194c-0.144-0.258-0.241-0.528-0.289-0.809c-0.049-0.282-0.073-0.953-0.073-2.016v-1.523
				c0-0.508-0.019-0.859-0.057-1.054c-0.068-0.313-0.187-0.572-0.356-0.777c-0.169-0.206-0.434-0.376-0.793-0.511
				c-0.36-0.136-0.828-0.204-1.403-0.204c-0.58,0-1.09,0.08-1.53,0.238c-0.44,0.159-0.777,0.386-1.009,0.68
				c-0.233,0.294-0.4,0.68-0.502,1.158l1.118,0.152c0.122-0.478,0.312-0.811,0.568-0.999c0.256-0.189,0.652-0.283,1.19-0.283
				c0.575,0,1.009,0.129,1.301,0.387c0.216,0.191,0.324,0.519,0.324,0.984c0,0.043-0.002,0.142-0.007,0.299
				c-0.435,0.152-1.115,0.283-2.037,0.393c-0.453,0.055-0.792,0.112-1.016,0.172c-0.304,0.084-0.578,0.209-0.822,0.374
				c-0.243,0.165-0.44,0.384-0.59,0.657s-0.225,0.575-0.225,0.905c0,0.563,0.198,1.025,0.596,1.387
				c0.398,0.361,0.967,0.542,1.708,0.542c0.448,0,0.868-0.074,1.26-0.222c0.391-0.148,0.798-0.402,1.222-0.762
				C340.948,92.786,341.025,93.063,341.143,93.3 M329.705,93.3v-3.529c0-0.483,0.063-0.927,0.19-1.333
				c0.085-0.267,0.226-0.475,0.425-0.626c0.199-0.15,0.424-0.225,0.673-0.225c0.28,0,0.559,0.083,0.838,0.248l0.394-1.06
				c-0.398-0.246-0.79-0.369-1.175-0.369c-0.266,0-0.511,0.077-0.733,0.229c-0.222,0.152-0.464,0.468-0.727,0.946v-1.022h-1.028
				V93.3H329.705z M326.785,93.3v-6.741h-1.143v3.612c0,0.575-0.062,1.014-0.187,1.317c-0.125,0.302-0.338,0.541-0.638,0.717
				c-0.301,0.176-0.622,0.263-0.965,0.263c-0.343,0-0.63-0.085-0.863-0.257c-0.233-0.171-0.385-0.407-0.457-0.707
				c-0.047-0.208-0.07-0.61-0.07-1.206v-3.739h-1.143v4.177c0,0.486,0.024,0.842,0.07,1.066c0.068,0.334,0.185,0.617,0.353,0.847
				c0.167,0.231,0.423,0.422,0.768,0.575c0.344,0.152,0.716,0.228,1.114,0.228c0.901,0,1.614-0.381,2.139-1.142v0.99H326.785z
				 M315.429,87.993c0.376-0.427,0.85-0.641,1.422-0.641c0.562,0,1.033,0.215,1.412,0.645c0.379,0.429,0.568,1.061,0.568,1.894
				c0,0.885-0.188,1.543-0.565,1.974c-0.376,0.432-0.848,0.648-1.415,0.648c-0.572,0-1.046-0.215-1.422-0.644
				c-0.377-0.43-0.565-1.076-0.565-1.94C314.864,89.066,315.052,88.421,315.429,87.993 M314.562,92.545
				c0.582,0.605,1.345,0.907,2.289,0.907c0.588,0,1.131-0.137,1.628-0.412c0.497-0.275,0.876-0.661,1.136-1.159
				c0.26-0.497,0.39-1.179,0.39-2.047c0-1.07-0.294-1.909-0.882-2.517c-0.588-0.607-1.346-0.911-2.272-0.911
				c-0.834,0-1.541,0.25-2.12,0.749c-0.694,0.601-1.041,1.526-1.041,2.774C313.69,91.068,313.98,91.94,314.562,92.545 M308.3,96.036
				c0.364,0,0.677-0.088,0.94-0.264c0.262-0.175,0.495-0.451,0.698-0.828c0.152-0.279,0.366-0.789,0.641-1.53l2.565-6.855h-1.143
				l-1.441,3.929c-0.182,0.499-0.338,1.011-0.47,1.536c-0.143-0.546-0.306-1.066-0.488-1.561l-1.403-3.904h-1.232l2.559,6.754
				c-0.047,0.122-0.081,0.216-0.102,0.279c-0.161,0.453-0.277,0.736-0.349,0.851c-0.098,0.152-0.222,0.27-0.375,0.355
				c-0.152,0.085-0.355,0.127-0.609,0.127c-0.186,0-0.404-0.034-0.654-0.102l0.127,1.073C307.835,95.989,308.08,96.036,308.3,96.036
				 M298.652,93.3v-2.672l0.806-0.775l2.228,3.447h1.409l-2.837-4.24l2.577-2.501h-1.479l-2.704,2.742v-5.307h-1.143V93.3H298.652z
				 M291.416,93.3v-3.682c0-0.863,0.176-1.449,0.53-1.758c0.353-0.309,0.773-0.463,1.26-0.463c0.304,0,0.57,0.069,0.796,0.206
				c0.227,0.138,0.384,0.322,0.473,0.552c0.089,0.231,0.134,0.579,0.134,1.044V93.3h1.142v-4.145c0-0.529-0.021-0.899-0.063-1.111
				c-0.068-0.326-0.187-0.607-0.356-0.844s-0.424-0.429-0.765-0.575c-0.34-0.146-0.714-0.219-1.12-0.219
				c-0.935,0-1.65,0.371-2.146,1.111v-0.958h-1.028V93.3H291.416z M288.534,86.559h-1.143V93.3h1.143V86.559z M288.534,83.994
				h-1.143v1.314h1.143V83.994z M285.614,83.994h-1.143V93.3h1.143V83.994z M279.095,93.3v-6.741h-1.143v3.612
				c0,0.575-0.062,1.014-0.187,1.317c-0.125,0.302-0.338,0.541-0.638,0.717c-0.3,0.176-0.622,0.263-0.965,0.263
				c-0.343,0-0.63-0.085-0.863-0.257c-0.233-0.171-0.385-0.407-0.457-0.707c-0.047-0.208-0.07-0.61-0.07-1.206v-3.739h-1.142v4.177
				c0,0.486,0.023,0.842,0.069,1.066c0.068,0.334,0.185,0.617,0.353,0.847c0.167,0.231,0.423,0.422,0.768,0.575
				c0.345,0.152,0.716,0.228,1.114,0.228c0.901,0,1.614-0.381,2.139-1.142v0.99H279.095z M267.739,87.993
				c0.376-0.427,0.85-0.641,1.422-0.641c0.563,0,1.033,0.215,1.412,0.645c0.379,0.429,0.568,1.061,0.568,1.894
				c0,0.885-0.188,1.543-0.565,1.974c-0.376,0.432-0.848,0.648-1.415,0.648c-0.572,0-1.046-0.215-1.422-0.644
				c-0.377-0.43-0.565-1.076-0.565-1.94C267.174,89.066,267.362,88.421,267.739,87.993 M266.872,92.545
				c0.582,0.605,1.345,0.907,2.289,0.907c0.588,0,1.131-0.137,1.628-0.412c0.497-0.275,0.876-0.661,1.136-1.159
				c0.26-0.497,0.391-1.179,0.391-2.047c0-1.07-0.295-1.909-0.883-2.517c-0.588-0.607-1.345-0.911-2.272-0.911
				c-0.834,0-1.541,0.25-2.12,0.749c-0.694,0.601-1.041,1.526-1.041,2.774C266,91.068,266.291,91.94,266.872,92.545 M260.61,96.036
				c0.364,0,0.677-0.088,0.94-0.264c0.262-0.175,0.495-0.451,0.698-0.828c0.153-0.279,0.366-0.789,0.641-1.53l2.565-6.855h-1.143
				l-1.441,3.929c-0.182,0.499-0.338,1.011-0.469,1.536c-0.144-0.546-0.307-1.066-0.489-1.561l-1.403-3.904h-1.232l2.559,6.754
				c-0.047,0.122-0.081,0.216-0.102,0.279c-0.161,0.453-0.277,0.736-0.349,0.851c-0.098,0.152-0.222,0.27-0.375,0.355
				c-0.152,0.085-0.355,0.127-0.609,0.127c-0.186,0-0.404-0.034-0.654-0.102l0.127,1.073
				C260.145,95.989,260.39,96.036,260.61,96.036 M250.226,93.3v-3.682c0-0.863,0.176-1.449,0.53-1.758
				c0.353-0.309,0.773-0.463,1.26-0.463c0.304,0,0.57,0.069,0.796,0.206c0.227,0.138,0.384,0.322,0.473,0.552
				c0.089,0.231,0.134,0.579,0.134,1.044V93.3h1.142v-4.145c0-0.529-0.021-0.899-0.063-1.111c-0.068-0.326-0.187-0.607-0.356-0.844
				s-0.424-0.429-0.765-0.575c-0.34-0.146-0.714-0.219-1.12-0.219c-0.935,0-1.65,0.371-2.146,1.111v-0.958h-1.028V93.3H250.226z
				 M243.31,87.873c0.357-0.351,0.799-0.527,1.323-0.527c0.58,0,1.052,0.22,1.416,0.66c0.237,0.284,0.381,0.709,0.432,1.276h-3.765
				C242.755,88.694,242.952,88.224,243.31,87.873 M245.763,92.183c-0.296,0.22-0.654,0.33-1.072,0.33
				c-0.563,0-1.033-0.197-1.41-0.59c-0.376-0.394-0.586-0.961-0.628-1.702h5.027c0.004-0.135,0.007-0.237,0.007-0.304
				c0-1.113-0.286-1.976-0.857-2.59c-0.572-0.614-1.308-0.921-2.209-0.921c-0.931,0-1.689,0.314-2.273,0.94
				c-0.584,0.626-0.876,1.506-0.876,2.641c0,1.096,0.289,1.947,0.867,2.554c0.577,0.608,1.359,0.911,2.345,0.911
				c0.783,0,1.426-0.19,1.93-0.571c0.503-0.381,0.848-0.916,1.035-1.606l-1.181-0.146C246.294,91.612,246.059,91.963,245.763,92.183
				 M235.766,93.3v-3.688c0-0.529,0.063-0.944,0.19-1.244c0.127-0.301,0.34-0.539,0.638-0.714c0.298-0.176,0.617-0.264,0.955-0.264
				c0.453,0,0.803,0.13,1.051,0.391c0.248,0.26,0.371,0.676,0.371,1.247V93.3h1.143v-4.272c0-0.66-0.079-1.164-0.238-1.511
				c-0.159-0.347-0.422-0.619-0.79-0.815c-0.369-0.197-0.802-0.296-1.302-0.296c-0.812,0-1.485,0.309-2.018,0.927v-3.339h-1.143
				V93.3H235.766z M227.672,93.3l1.365-5.186l0.26,1.149l1.073,4.037h1.187l2.108-6.741h-1.111l-1.155,3.897l-0.388,1.302
				l-0.336-1.289l-1.009-3.91h-1.175l-1.072,3.948c-0.216,0.855-0.333,1.318-0.35,1.39l-0.399-1.447l-1.073-3.891h-1.181
				l2.063,6.741H227.672z M215.545,92.906c0.459,0.364,1.127,0.546,2.003,0.546c0.529,0,1.003-0.092,1.422-0.276
				c0.419-0.184,0.739-0.444,0.962-0.781c0.222-0.336,0.333-0.695,0.333-1.075c0-0.39-0.091-0.716-0.273-0.978
				c-0.182-0.262-0.433-0.462-0.752-0.6c-0.32-0.137-0.884-0.314-1.692-0.53c-0.559-0.152-0.895-0.25-1.009-0.292
				c-0.199-0.08-0.345-0.182-0.438-0.305c-0.093-0.118-0.14-0.251-0.14-0.399c0-0.233,0.112-0.436,0.336-0.61
				c0.225-0.173,0.599-0.26,1.124-0.26c0.444,0,0.788,0.097,1.032,0.292c0.243,0.195,0.39,0.465,0.441,0.812l1.117-0.152
				c-0.072-0.436-0.203-0.784-0.394-1.044c-0.19-0.26-0.485-0.467-0.885-0.619c-0.4-0.152-0.865-0.229-1.393-0.229
				c-0.352,0-0.681,0.046-0.988,0.137c-0.306,0.091-0.549,0.202-0.726,0.333c-0.237,0.169-0.425,0.382-0.562,0.638
				c-0.138,0.256-0.206,0.534-0.206,0.835c0,0.33,0.083,0.631,0.25,0.904c0.167,0.273,0.413,0.487,0.737,0.641
				c0.323,0.155,0.904,0.338,1.742,0.55c0.622,0.156,1.011,0.285,1.168,0.387c0.224,0.148,0.336,0.351,0.336,0.609
				c0,0.288-0.126,0.539-0.38,0.752c-0.254,0.214-0.644,0.321-1.168,0.321c-0.521,0-0.926-0.121-1.216-0.362
				c-0.29-0.241-0.467-0.588-0.53-1.041l-1.13,0.178C214.793,92.003,215.086,92.543,215.545,92.906 M213.352,83.994h-1.143V93.3
				h1.143V83.994z M210.464,83.994h-1.143V93.3h1.143V83.994z M207.608,86.559h-1.143V93.3h1.143V86.559z M207.608,83.994h-1.143
				v1.314h1.143V83.994z M200.816,87.997c0.363-0.434,0.795-0.651,1.294-0.651c0.496,0,0.918,0.209,1.267,0.628
				c0.349,0.419,0.524,1.069,0.524,1.949c0,0.859-0.182,1.506-0.546,1.939c-0.364,0.434-0.796,0.651-1.295,0.651
				c-0.614,0-1.101-0.294-1.46-0.882c-0.22-0.36-0.33-0.944-0.33-1.752C200.27,89.058,200.452,88.43,200.816,87.997 M200.282,92.456
				c0.453,0.664,1.077,0.996,1.873,0.996c0.8,0,1.485-0.315,2.057-0.945c0.571-0.631,0.856-1.524,0.856-2.679
				c0-0.487-0.067-0.944-0.203-1.371c-0.135-0.428-0.322-0.793-0.561-1.095c-0.24-0.303-0.544-0.538-0.914-0.705
				c-0.371-0.167-0.763-0.251-1.178-0.251c-0.749,0-1.365,0.303-1.847,0.908v-3.32h-1.143V93.3h1.06V92.456z M189.539,92.906
				c0.459,0.364,1.127,0.546,2.003,0.546c0.529,0,1.003-0.092,1.422-0.276c0.418-0.184,0.739-0.444,0.961-0.781
				c0.222-0.336,0.333-0.695,0.333-1.075c0-0.39-0.091-0.716-0.273-0.978c-0.182-0.262-0.432-0.462-0.752-0.6
				c-0.319-0.137-0.883-0.314-1.691-0.53c-0.559-0.152-0.895-0.25-1.01-0.292c-0.199-0.08-0.345-0.182-0.438-0.305
				c-0.093-0.118-0.139-0.251-0.139-0.399c0-0.233,0.112-0.436,0.336-0.61c0.224-0.173,0.599-0.26,1.124-0.26
				c0.444,0,0.788,0.097,1.031,0.292c0.243,0.195,0.391,0.465,0.441,0.812l1.118-0.152c-0.072-0.436-0.204-0.784-0.394-1.044
				c-0.19-0.26-0.486-0.467-0.886-0.619c-0.399-0.152-0.864-0.229-1.393-0.229c-0.351,0-0.68,0.046-0.987,0.137
				c-0.307,0.091-0.549,0.202-0.727,0.333c-0.237,0.169-0.424,0.382-0.561,0.638c-0.138,0.256-0.207,0.534-0.207,0.835
				c0,0.33,0.084,0.631,0.251,0.904c0.167,0.273,0.413,0.487,0.736,0.641c0.324,0.155,0.905,0.338,1.743,0.55
				c0.622,0.156,1.011,0.285,1.168,0.387c0.224,0.148,0.336,0.351,0.336,0.609c0,0.288-0.127,0.539-0.381,0.752
				c-0.254,0.214-0.643,0.321-1.168,0.321c-0.52,0-0.925-0.121-1.215-0.362c-0.29-0.241-0.467-0.588-0.53-1.041l-1.13,0.178
				C188.787,92.003,189.08,92.543,189.539,92.906 M187.327,93.3v-6.741h-1.143v3.612c0,0.575-0.062,1.014-0.187,1.317
				c-0.125,0.302-0.338,0.541-0.638,0.717c-0.301,0.176-0.622,0.263-0.965,0.263s-0.63-0.085-0.863-0.257
				c-0.233-0.171-0.385-0.407-0.457-0.707c-0.047-0.208-0.07-0.61-0.07-1.206v-3.739h-1.143v4.177c0,0.486,0.024,0.842,0.07,1.066
				c0.068,0.334,0.185,0.617,0.353,0.847c0.167,0.231,0.423,0.422,0.768,0.575c0.344,0.152,0.716,0.228,1.114,0.228
				c0.901,0,1.614-0.381,2.139-1.142v0.99H187.327z M175.971,87.993c0.376-0.427,0.85-0.641,1.422-0.641
				c0.562,0,1.033,0.215,1.412,0.645c0.379,0.429,0.568,1.061,0.568,1.894c0,0.885-0.188,1.543-0.565,1.974
				c-0.376,0.432-0.848,0.648-1.415,0.648c-0.572,0-1.046-0.215-1.422-0.644c-0.377-0.43-0.565-1.076-0.565-1.94
				C175.406,89.066,175.594,88.421,175.971,87.993 M175.104,92.545c0.582,0.605,1.345,0.907,2.289,0.907
				c0.588,0,1.131-0.137,1.628-0.412c0.497-0.275,0.876-0.661,1.136-1.159c0.26-0.497,0.39-1.179,0.39-2.047
				c0-1.07-0.294-1.909-0.882-2.517c-0.588-0.607-1.346-0.911-2.272-0.911c-0.834,0-1.541,0.25-2.12,0.749
				c-0.694,0.601-1.041,1.526-1.041,2.774C174.232,91.068,174.522,91.94,175.104,92.545 M172.918,86.559h-1.143V93.3h1.143V86.559z
				 M172.918,83.994h-1.143v1.314h1.143V83.994z M168.208,93.3l2.551-6.741h-1.174l-1.498,4.113
				c-0.182,0.499-0.324,0.927-0.425,1.282c-0.131-0.469-0.275-0.922-0.432-1.358l-1.447-4.037h-1.206l2.564,6.741H168.208z
				 M159.495,87.873c0.358-0.351,0.799-0.527,1.324-0.527c0.58,0,1.052,0.22,1.416,0.66c0.236,0.284,0.38,0.709,0.431,1.276h-3.764
				C158.94,88.694,159.138,88.224,159.495,87.873 M161.949,92.183c-0.296,0.22-0.654,0.33-1.073,0.33
				c-0.563,0-1.032-0.197-1.409-0.59c-0.377-0.394-0.586-0.961-0.628-1.702h5.027c0.004-0.135,0.006-0.237,0.006-0.304
				c0-1.113-0.285-1.976-0.857-2.59c-0.571-0.614-1.307-0.921-2.209-0.921c-0.931,0-1.688,0.314-2.272,0.94
				c-0.584,0.626-0.876,1.506-0.876,2.641c0,1.096,0.289,1.947,0.866,2.554c0.578,0.608,1.36,0.911,2.346,0.911
				c0.783,0,1.426-0.19,1.929-0.571c0.504-0.381,0.849-0.916,1.035-1.606l-1.181-0.146C162.48,91.612,162.245,91.963,161.949,92.183
				 M154.839,93.3v-3.529c0-0.483,0.064-0.927,0.191-1.333c0.085-0.267,0.226-0.475,0.425-0.626c0.199-0.15,0.423-0.225,0.673-0.225
				c0.279,0,0.559,0.083,0.838,0.248l0.394-1.06c-0.398-0.246-0.79-0.369-1.175-0.369c-0.266,0-0.511,0.077-0.733,0.229
				c-0.222,0.152-0.464,0.468-0.727,0.946v-1.022h-1.028V93.3H154.839z M148.076,87.984c0.375-0.455,0.805-0.683,1.292-0.683
				c0.491,0,0.913,0.214,1.266,0.642c0.353,0.427,0.53,1.07,0.53,1.929c0,0.902-0.181,1.567-0.543,1.997
				c-0.361,0.429-0.796,0.644-1.304,0.644c-0.499,0-0.925-0.207-1.276-0.622c-0.351-0.415-0.527-1.056-0.527-1.924
				C147.514,89.1,147.702,88.439,148.076,87.984 M147.622,95.883v-3.281c0.195,0.245,0.443,0.448,0.746,0.609
				c0.303,0.161,0.644,0.241,1.025,0.241c0.521,0,1.017-0.147,1.489-0.441c0.472-0.294,0.831-0.717,1.079-1.269
				c0.247-0.553,0.371-1.174,0.371-1.863c0-0.644-0.112-1.235-0.336-1.775c-0.225-0.539-0.557-0.957-0.997-1.253
				c-0.44-0.296-0.948-0.445-1.523-0.445c-0.44,0-0.815,0.086-1.124,0.258c-0.309,0.171-0.586,0.428-0.831,0.771v-0.876h-1.041
				v9.324H147.622z M140.665,93.3v-5.853h1.314v-0.888h-1.314v-0.622c0-0.407,0.072-0.684,0.216-0.832s0.389-0.222,0.736-0.222
				c0.212,0,0.436,0.021,0.673,0.063l0.172-0.996c-0.39-0.076-0.745-0.114-1.067-0.114c-0.499,0-0.888,0.092-1.165,0.276
				c-0.277,0.184-0.47,0.424-0.58,0.72c-0.081,0.22-0.121,0.557-0.121,1.01v0.717h-1.009v0.888h1.009V93.3H140.665z M133.34,87.993
				c0.377-0.427,0.851-0.641,1.422-0.641c0.563,0,1.033,0.215,1.412,0.645c0.379,0.429,0.568,1.061,0.568,1.894
				c0,0.885-0.188,1.543-0.565,1.974c-0.376,0.432-0.848,0.648-1.415,0.648c-0.571,0-1.045-0.215-1.422-0.644
				c-0.377-0.43-0.565-1.076-0.565-1.94C132.775,89.066,132.963,88.421,133.34,87.993 M132.474,92.545
				c0.581,0.605,1.344,0.907,2.288,0.907c0.588,0,1.131-0.137,1.628-0.412c0.497-0.275,0.876-0.661,1.136-1.159
				c0.261-0.497,0.391-1.179,0.391-2.047c0-1.07-0.295-1.909-0.883-2.517c-0.588-0.607-1.345-0.911-2.272-0.911
				c-0.834,0-1.541,0.25-2.12,0.749c-0.694,0.601-1.041,1.526-1.041,2.774C131.601,91.068,131.892,91.94,132.474,92.545
				 M122.336,92.906c0.459,0.364,1.127,0.546,2.003,0.546c0.529,0,1.003-0.092,1.422-0.276c0.419-0.184,0.739-0.444,0.962-0.781
				c0.222-0.336,0.333-0.695,0.333-1.075c0-0.39-0.091-0.716-0.273-0.978s-0.433-0.462-0.752-0.6
				c-0.32-0.137-0.884-0.314-1.692-0.53c-0.559-0.152-0.895-0.25-1.009-0.292c-0.199-0.08-0.345-0.182-0.438-0.305
				c-0.093-0.118-0.14-0.251-0.14-0.399c0-0.233,0.112-0.436,0.337-0.61c0.224-0.173,0.598-0.26,1.123-0.26
				c0.444,0,0.788,0.097,1.032,0.292c0.243,0.195,0.39,0.465,0.441,0.812l1.117-0.152c-0.072-0.436-0.203-0.784-0.394-1.044
				c-0.19-0.26-0.485-0.467-0.885-0.619c-0.4-0.152-0.865-0.229-1.393-0.229c-0.352,0-0.681,0.046-0.988,0.137
				c-0.306,0.091-0.549,0.202-0.726,0.333c-0.237,0.169-0.425,0.382-0.562,0.638c-0.138,0.256-0.206,0.534-0.206,0.835
				c0,0.33,0.083,0.631,0.25,0.904c0.167,0.273,0.413,0.487,0.737,0.641c0.323,0.155,0.904,0.338,1.742,0.55
				c0.622,0.156,1.011,0.285,1.168,0.387c0.224,0.148,0.336,0.351,0.336,0.609c0,0.288-0.126,0.539-0.38,0.752
				c-0.254,0.214-0.644,0.321-1.168,0.321c-0.521,0-0.926-0.121-1.216-0.362c-0.29-0.241-0.466-0.588-0.53-1.041l-1.13,0.178
				C121.584,92.003,121.877,92.543,122.336,92.906 M118.715,93.3v-3.529c0-0.483,0.063-0.927,0.19-1.333
				c0.085-0.267,0.227-0.475,0.426-0.626c0.199-0.15,0.423-0.225,0.673-0.225c0.279,0,0.558,0.083,0.837,0.248l0.394-1.06
				c-0.398-0.246-0.789-0.369-1.174-0.369c-0.267,0-0.511,0.077-0.733,0.229c-0.223,0.152-0.465,0.468-0.727,0.946v-1.022h-1.029
				V93.3H118.715z M114.659,90.336c0,0.503-0.062,0.884-0.184,1.142c-0.161,0.335-0.413,0.598-0.756,0.791
				c-0.342,0.192-0.734,0.288-1.174,0.288c-0.444,0-0.782-0.101-1.012-0.304c-0.231-0.203-0.346-0.457-0.346-0.762
				c0-0.199,0.053-0.38,0.158-0.543c0.106-0.163,0.256-0.286,0.451-0.371s0.527-0.161,0.997-0.229
				c0.829-0.118,1.451-0.262,1.866-0.431V90.336z M114.983,93.3h1.193c-0.144-0.258-0.24-0.528-0.289-0.809
				c-0.049-0.282-0.073-0.953-0.073-2.016v-1.523c0-0.508-0.019-0.859-0.057-1.054c-0.068-0.313-0.186-0.572-0.356-0.777
				c-0.169-0.206-0.433-0.376-0.793-0.511c-0.36-0.136-0.827-0.204-1.403-0.204c-0.58,0-1.09,0.08-1.53,0.238
				c-0.44,0.159-0.776,0.386-1.009,0.68c-0.233,0.294-0.4,0.68-0.501,1.158l1.117,0.152c0.123-0.478,0.312-0.811,0.568-0.999
				c0.256-0.189,0.653-0.283,1.19-0.283c0.576,0,1.009,0.129,1.301,0.387c0.216,0.191,0.324,0.519,0.324,0.984
				c0,0.043-0.002,0.142-0.006,0.299c-0.436,0.152-1.115,0.283-2.038,0.393c-0.453,0.055-0.791,0.112-1.015,0.172
				c-0.305,0.084-0.579,0.209-0.822,0.374c-0.244,0.165-0.441,0.384-0.591,0.657c-0.15,0.273-0.225,0.575-0.225,0.905
				c0,0.563,0.199,1.025,0.597,1.387c0.397,0.361,0.967,0.542,1.707,0.542c0.449,0,0.869-0.074,1.26-0.222s0.799-0.402,1.222-0.762
				C114.788,92.786,114.864,93.063,114.983,93.3 M104.582,87.873c0.357-0.351,0.799-0.527,1.323-0.527c0.58,0,1.052,0.22,1.416,0.66
				c0.237,0.284,0.381,0.709,0.432,1.276h-3.765C104.026,88.694,104.224,88.224,104.582,87.873 M107.035,92.183
				c-0.296,0.22-0.654,0.33-1.072,0.33c-0.563,0-1.033-0.197-1.41-0.59c-0.376-0.394-0.586-0.961-0.628-1.702h5.027
				c0.004-0.135,0.007-0.237,0.007-0.304c0-1.113-0.286-1.976-0.857-2.59c-0.572-0.614-1.308-0.921-2.209-0.921
				c-0.931,0-1.689,0.314-2.273,0.94c-0.584,0.626-0.876,1.506-0.876,2.641c0,1.096,0.289,1.947,0.867,2.554
				c0.577,0.608,1.359,0.911,2.345,0.911c0.783,0,1.426-0.19,1.93-0.571c0.503-0.381,0.848-0.916,1.035-1.606l-1.181-0.146
				C107.566,91.612,107.331,91.963,107.035,92.183 M97.311,96.036c0.364,0,0.677-0.088,0.939-0.264
				c0.262-0.175,0.495-0.451,0.698-0.828c0.153-0.279,0.366-0.789,0.641-1.53l2.565-6.855h-1.143l-1.441,3.929
				c-0.182,0.499-0.338,1.011-0.469,1.536c-0.144-0.546-0.307-1.066-0.489-1.561l-1.403-3.904h-1.231l2.558,6.754
				c-0.047,0.122-0.081,0.216-0.102,0.279c-0.161,0.453-0.277,0.736-0.349,0.851c-0.097,0.152-0.222,0.27-0.374,0.355
				c-0.153,0.085-0.356,0.127-0.61,0.127c-0.186,0-0.404-0.034-0.654-0.102l0.127,1.073C96.845,95.989,97.091,96.036,97.311,96.036
				 M87.24,87.873c0.358-0.351,0.799-0.527,1.324-0.527c0.579,0,1.051,0.22,1.415,0.66c0.237,0.284,0.381,0.709,0.432,1.276h-3.764
				C86.685,88.694,86.882,88.224,87.24,87.873 M89.693,92.183c-0.296,0.22-0.653,0.33-1.072,0.33c-0.563,0-1.033-0.197-1.409-0.59
				c-0.377-0.394-0.587-0.961-0.629-1.702h5.027c0.005-0.135,0.007-0.237,0.007-0.304c0-1.113-0.286-1.976-0.857-2.59
				c-0.571-0.614-1.308-0.921-2.209-0.921c-0.931,0-1.689,0.314-2.273,0.94c-0.584,0.626-0.876,1.506-0.876,2.641
				c0,1.096,0.289,1.947,0.867,2.554c0.578,0.608,1.359,0.911,2.345,0.911c0.783,0,1.426-0.19,1.93-0.571s0.848-0.916,1.035-1.606
				l-1.181-0.146C90.225,91.612,89.99,91.963,89.693,92.183 M80.01,87.873c0.358-0.351,0.799-0.527,1.324-0.527
				c0.579,0,1.051,0.22,1.415,0.66c0.237,0.284,0.381,0.709,0.432,1.276h-3.764C79.455,88.694,79.652,88.224,80.01,87.873
				 M82.464,92.183c-0.297,0.22-0.654,0.33-1.073,0.33c-0.563,0-1.033-0.197-1.409-0.59c-0.377-0.394-0.587-0.961-0.629-1.702h5.027
				c0.005-0.135,0.007-0.237,0.007-0.304c0-1.113-0.286-1.976-0.857-2.59s-1.308-0.921-2.209-0.921c-0.931,0-1.689,0.314-2.273,0.94
				c-0.584,0.626-0.876,1.506-0.876,2.641c0,1.096,0.289,1.947,0.867,2.554c0.578,0.608,1.359,0.911,2.345,0.911
				c0.783,0,1.426-0.19,1.93-0.571c0.504-0.381,0.848-0.916,1.035-1.606l-1.181-0.146C82.995,91.612,82.76,91.963,82.464,92.183
				 M75.354,93.3v-3.529c0-0.483,0.064-0.927,0.191-1.333c0.084-0.267,0.226-0.475,0.425-0.626c0.199-0.15,0.423-0.225,0.673-0.225
				c0.279,0,0.558,0.083,0.838,0.248l0.393-1.06c-0.398-0.246-0.789-0.369-1.174-0.369c-0.267,0-0.511,0.077-0.733,0.229
				c-0.222,0.152-0.465,0.468-0.727,0.946v-1.022h-1.028V93.3H75.354z M68.137,93.3v-3.688c0-0.529,0.063-0.944,0.19-1.244
				c0.127-0.301,0.34-0.539,0.638-0.714c0.299-0.176,0.617-0.264,0.956-0.264c0.452,0,0.803,0.13,1.05,0.391
				c0.248,0.26,0.371,0.676,0.371,1.247V93.3h1.143v-4.272c0-0.66-0.079-1.164-0.238-1.511c-0.159-0.347-0.422-0.619-0.79-0.815
				c-0.368-0.197-0.802-0.296-1.302-0.296c-0.812,0-1.485,0.309-2.018,0.927v-3.339h-1.143V93.3H68.137z M65.376,92.322
				c-0.17,0-0.3-0.027-0.391-0.082c-0.091-0.055-0.156-0.129-0.197-0.222c-0.04-0.093-0.06-0.303-0.06-0.629v-3.942h1.149v-0.888
				h-1.149v-2.355l-1.136,0.685v1.67h-0.838v0.888h0.838v3.879c0,0.685,0.046,1.135,0.14,1.349c0.093,0.214,0.253,0.386,0.482,0.517
				c0.229,0.131,0.55,0.197,0.965,0.197c0.254,0,0.541-0.034,0.863-0.102l-0.165-1.009C65.67,92.308,65.503,92.322,65.376,92.322
				 M53.855,87.993c0.376-0.427,0.85-0.641,1.421-0.641c0.563,0,1.034,0.215,1.413,0.645c0.379,0.429,0.568,1.061,0.568,1.894
				c0,0.885-0.188,1.543-0.565,1.974c-0.377,0.432-0.848,0.648-1.416,0.648c-0.571,0-1.045-0.215-1.421-0.644
				c-0.377-0.43-0.565-1.076-0.565-1.94C53.29,89.066,53.478,88.421,53.855,87.993 M52.988,92.545
				c0.582,0.605,1.345,0.907,2.288,0.907c0.589,0,1.131-0.137,1.629-0.412c0.497-0.275,0.876-0.661,1.136-1.159
				c0.26-0.497,0.39-1.179,0.39-2.047c0-1.07-0.294-1.909-0.882-2.517c-0.588-0.607-1.346-0.911-2.273-0.911
				c-0.833,0-1.54,0.25-2.12,0.749c-0.694,0.601-1.041,1.526-1.041,2.774C52.115,91.068,52.406,91.94,52.988,92.545 M50.922,92.322
				c-0.169,0-0.299-0.027-0.39-0.082c-0.091-0.055-0.157-0.129-0.197-0.222s-0.06-0.303-0.06-0.629v-3.942h1.148v-0.888h-1.148
				v-2.355l-1.137,0.685v1.67H48.3v0.888h0.838v3.879c0,0.685,0.047,1.135,0.14,1.349c0.093,0.214,0.254,0.386,0.482,0.517
				c0.229,0.131,0.55,0.197,0.965,0.197c0.254,0,0.542-0.034,0.864-0.102l-0.166-1.009C51.216,92.308,51.049,92.322,50.922,92.322
				 M39.683,87.984c0.375-0.455,0.806-0.683,1.292-0.683c0.491,0,0.913,0.214,1.267,0.642c0.353,0.427,0.53,1.07,0.53,1.929
				c0,0.902-0.181,1.567-0.543,1.997c-0.362,0.429-0.797,0.644-1.305,0.644c-0.499,0-0.924-0.207-1.275-0.622
				c-0.352-0.415-0.527-1.056-0.527-1.924C39.122,89.1,39.309,88.439,39.683,87.984 M39.23,95.883v-3.281
				c0.194,0.245,0.443,0.448,0.745,0.609c0.303,0.161,0.645,0.241,1.026,0.241c0.52,0,1.016-0.147,1.488-0.441
				c0.472-0.294,0.832-0.717,1.079-1.269c0.248-0.553,0.372-1.174,0.372-1.863c0-0.644-0.113-1.235-0.337-1.775
				c-0.224-0.539-0.556-0.957-0.996-1.253c-0.441-0.296-0.948-0.445-1.524-0.445c-0.44,0-0.815,0.086-1.123,0.258
				c-0.309,0.171-0.587,0.428-0.832,0.771v-0.876h-1.041v9.324H39.23z M36.297,93.3v-6.741h-1.143v3.612
				c0,0.575-0.062,1.014-0.187,1.317c-0.125,0.302-0.337,0.541-0.638,0.717c-0.3,0.176-0.622,0.263-0.965,0.263
				c-0.342,0-0.63-0.085-0.863-0.257c-0.233-0.171-0.385-0.407-0.457-0.707c-0.047-0.208-0.07-0.61-0.07-1.206v-3.739h-1.142v4.177
				c0,0.486,0.023,0.842,0.069,1.066c0.068,0.334,0.186,0.617,0.353,0.847c0.167,0.231,0.423,0.422,0.768,0.575
				c0.345,0.152,0.716,0.228,1.114,0.228c0.901,0,1.614-0.381,2.139-1.142v0.99H36.297z"/>
			<path class="st31" d="M404.889,73.406c0.459,0.364,1.127,0.546,2.003,0.546c0.529,0,1.003-0.092,1.422-0.276
				c0.419-0.184,0.739-0.444,0.961-0.781c0.223-0.336,0.334-0.695,0.334-1.076c0-0.389-0.091-0.715-0.273-0.977
				c-0.182-0.262-0.433-0.462-0.753-0.6c-0.319-0.137-0.883-0.314-1.691-0.53c-0.559-0.152-0.895-0.25-1.009-0.292
				c-0.199-0.08-0.345-0.182-0.438-0.305c-0.094-0.118-0.14-0.251-0.14-0.4c0-0.232,0.112-0.435,0.336-0.609
				c0.225-0.173,0.599-0.26,1.124-0.26c0.444,0,0.788,0.097,1.031,0.292c0.244,0.194,0.391,0.465,0.442,0.812l1.117-0.152
				c-0.072-0.436-0.203-0.784-0.394-1.044c-0.19-0.26-0.485-0.467-0.885-0.619c-0.4-0.152-0.865-0.229-1.394-0.229
				c-0.351,0-0.68,0.046-0.987,0.137c-0.307,0.091-0.549,0.202-0.727,0.333c-0.237,0.169-0.424,0.382-0.561,0.638
				c-0.138,0.256-0.207,0.534-0.207,0.835c0,0.33,0.084,0.631,0.251,0.904c0.167,0.273,0.413,0.487,0.736,0.641
				c0.324,0.155,0.905,0.338,1.743,0.549c0.622,0.157,1.011,0.286,1.168,0.388c0.224,0.148,0.336,0.351,0.336,0.609
				c0,0.288-0.127,0.539-0.381,0.752c-0.253,0.214-0.643,0.321-1.168,0.321c-0.52,0-0.925-0.121-1.215-0.362
				s-0.467-0.588-0.53-1.041l-1.13,0.178C404.137,72.503,404.43,73.042,404.889,73.406 M398.389,73.406
				c0.459,0.364,1.127,0.546,2.003,0.546c0.529,0,1.003-0.092,1.422-0.276c0.419-0.184,0.739-0.444,0.961-0.781
				c0.223-0.336,0.334-0.695,0.334-1.076c0-0.389-0.091-0.715-0.273-0.977c-0.182-0.262-0.433-0.462-0.753-0.6
				c-0.319-0.137-0.883-0.314-1.691-0.53c-0.559-0.152-0.895-0.25-1.009-0.292c-0.199-0.08-0.345-0.182-0.438-0.305
				c-0.094-0.118-0.14-0.251-0.14-0.4c0-0.232,0.112-0.435,0.336-0.609c0.225-0.173,0.599-0.26,1.124-0.26
				c0.444,0,0.788,0.097,1.031,0.292c0.244,0.194,0.391,0.465,0.442,0.812l1.117-0.152c-0.072-0.436-0.203-0.784-0.394-1.044
				c-0.19-0.26-0.485-0.467-0.885-0.619c-0.4-0.152-0.865-0.229-1.394-0.229c-0.351,0-0.68,0.046-0.987,0.137
				c-0.307,0.091-0.549,0.202-0.727,0.333c-0.237,0.169-0.424,0.382-0.561,0.638c-0.138,0.256-0.207,0.534-0.207,0.835
				c0,0.33,0.084,0.631,0.251,0.904c0.167,0.273,0.413,0.487,0.736,0.641c0.324,0.155,0.905,0.338,1.743,0.549
				c0.622,0.157,1.011,0.286,1.168,0.388c0.224,0.148,0.336,0.351,0.336,0.609c0,0.288-0.127,0.539-0.381,0.752
				c-0.253,0.214-0.643,0.321-1.168,0.321c-0.52,0-0.925-0.121-1.215-0.362s-0.467-0.588-0.53-1.041l-1.13,0.178
				C397.637,72.503,397.93,73.042,398.389,73.406 M392.194,68.373c0.357-0.352,0.799-0.527,1.323-0.527
				c0.58,0,1.052,0.22,1.416,0.66c0.237,0.284,0.381,0.709,0.431,1.276H391.6C391.638,69.194,391.836,68.724,392.194,68.373
				 M394.647,72.683c-0.296,0.22-0.654,0.33-1.073,0.33c-0.562,0-1.032-0.197-1.409-0.591c-0.376-0.393-0.586-0.96-0.628-1.701
				h5.027c0.004-0.135,0.007-0.237,0.007-0.304c0-1.113-0.286-1.977-0.857-2.59c-0.572-0.614-1.308-0.921-2.209-0.921
				c-0.931,0-1.689,0.314-2.273,0.94c-0.584,0.626-0.876,1.506-0.876,2.64c0,1.096,0.289,1.948,0.867,2.555
				c0.577,0.608,1.359,0.911,2.345,0.911c0.783,0,1.426-0.19,1.93-0.571c0.503-0.381,0.848-0.916,1.034-1.606l-1.18-0.146
				C395.178,72.111,394.943,72.463,394.647,72.683 M388.065,72.6c-0.301,0.275-0.675,0.413-1.124,0.413
				c-0.558,0-1.011-0.205-1.358-0.616c-0.347-0.41-0.521-1.068-0.521-1.974c0-0.893,0.18-1.546,0.54-1.958
				c0.359-0.413,0.827-0.619,1.403-0.619c0.38,0,0.705,0.114,0.974,0.343c0.269,0.228,0.456,0.569,0.562,1.022l1.111-0.172
				c-0.132-0.681-0.43-1.207-0.895-1.577c-0.466-0.37-1.065-0.556-1.797-0.556c-0.58,0-1.116,0.137-1.609,0.41
				c-0.493,0.273-0.86,0.682-1.101,1.228c-0.241,0.546-0.362,1.183-0.362,1.911c0,1.125,0.28,1.99,0.841,2.593
				c0.561,0.603,1.302,0.904,2.225,0.904c0.736,0,1.357-0.219,1.863-0.657c0.505-0.438,0.82-1.044,0.943-1.818l-1.124-0.146
				C388.556,71.902,388.365,72.325,388.065,72.6 M381.565,72.6c-0.301,0.275-0.675,0.413-1.124,0.413
				c-0.558,0-1.011-0.205-1.358-0.616c-0.347-0.41-0.521-1.068-0.521-1.974c0-0.893,0.18-1.546,0.54-1.958
				c0.359-0.413,0.827-0.619,1.403-0.619c0.38,0,0.705,0.114,0.974,0.343c0.269,0.228,0.456,0.569,0.562,1.022l1.111-0.172
				c-0.132-0.681-0.43-1.207-0.895-1.577c-0.466-0.37-1.065-0.556-1.797-0.556c-0.58,0-1.116,0.137-1.609,0.41
				c-0.493,0.273-0.86,0.682-1.101,1.228c-0.241,0.546-0.362,1.183-0.362,1.911c0,1.125,0.28,1.99,0.841,2.593
				c0.561,0.603,1.302,0.904,2.225,0.904c0.736,0,1.357-0.219,1.863-0.657c0.505-0.438,0.82-1.044,0.943-1.818l-1.124-0.146
				C382.056,71.902,381.865,72.325,381.565,72.6 M374.811,70.836c0,0.503-0.062,0.884-0.184,1.142
				c-0.161,0.334-0.413,0.598-0.756,0.79c-0.342,0.193-0.734,0.289-1.174,0.289c-0.444,0-0.782-0.101-1.012-0.304
				c-0.231-0.204-0.346-0.457-0.346-0.762c0-0.199,0.052-0.38,0.158-0.543c0.106-0.163,0.256-0.287,0.451-0.371
				c0.195-0.085,0.527-0.161,0.997-0.229c0.829-0.118,1.451-0.262,1.866-0.431V70.836z M375.135,73.8h1.193
				c-0.144-0.258-0.24-0.528-0.289-0.809c-0.049-0.282-0.073-0.954-0.073-2.016v-1.523c0-0.508-0.019-0.859-0.057-1.054
				c-0.068-0.313-0.186-0.572-0.356-0.778c-0.169-0.205-0.433-0.375-0.793-0.511c-0.36-0.135-0.827-0.203-1.403-0.203
				c-0.58,0-1.09,0.08-1.53,0.238c-0.44,0.159-0.776,0.386-1.009,0.68c-0.233,0.294-0.4,0.68-0.501,1.158l1.117,0.152
				c0.123-0.478,0.312-0.811,0.568-0.999c0.256-0.189,0.653-0.283,1.19-0.283c0.576,0,1.009,0.129,1.301,0.387
				c0.216,0.191,0.324,0.519,0.324,0.984c0,0.043-0.002,0.142-0.006,0.299c-0.436,0.152-1.115,0.283-2.038,0.393
				c-0.453,0.055-0.791,0.112-1.015,0.172c-0.305,0.084-0.579,0.209-0.822,0.374c-0.244,0.165-0.441,0.384-0.591,0.657
				c-0.15,0.273-0.225,0.574-0.225,0.905c0,0.562,0.199,1.025,0.597,1.387c0.397,0.361,0.966,0.542,1.707,0.542
				c0.449,0,0.869-0.074,1.26-0.222c0.391-0.148,0.799-0.402,1.222-0.762C374.94,73.286,375.016,73.563,375.135,73.8
				 M360.938,68.474c0.341-0.414,0.765-0.622,1.273-0.622c0.52,0,0.958,0.216,1.314,0.648c0.355,0.431,0.533,1.108,0.533,2.031
				c0,0.838-0.175,1.461-0.524,1.869c-0.349,0.409-0.773,0.613-1.273,0.613c-0.495,0-0.924-0.214-1.288-0.641
				c-0.364-0.428-0.546-1.073-0.546-1.936C360.427,69.543,360.597,68.889,360.938,68.474 M365.099,73.8v-9.306h-1.136v3.339
				c-0.199-0.275-0.457-0.498-0.775-0.67c-0.317-0.171-0.679-0.257-1.085-0.257c-0.555,0-1.056,0.146-1.505,0.438
				c-0.448,0.292-0.785,0.712-1.009,1.26s-0.336,1.159-0.336,1.832c0,0.689,0.123,1.3,0.371,1.831
				c0.248,0.531,0.597,0.945,1.047,1.241c0.451,0.296,0.945,0.444,1.483,0.444c0.829,0,1.457-0.334,1.885-1.003V73.8H365.099z
				 M353.578,73.8v-3.682c0-0.863,0.176-1.449,0.53-1.758c0.353-0.309,0.773-0.463,1.26-0.463c0.305,0,0.57,0.068,0.797,0.206
				c0.226,0.137,0.384,0.322,0.472,0.552c0.089,0.231,0.134,0.579,0.134,1.044V73.8h1.142v-4.145c0-0.529-0.021-0.899-0.063-1.111
				c-0.068-0.326-0.186-0.607-0.356-0.844c-0.169-0.237-0.424-0.429-0.765-0.575c-0.34-0.146-0.714-0.219-1.12-0.219
				c-0.935,0-1.65,0.371-2.145,1.111v-0.958h-1.029V73.8H353.578z M349.509,70.836c0,0.503-0.061,0.884-0.184,1.142
				c-0.161,0.334-0.413,0.598-0.755,0.79c-0.343,0.193-0.735,0.289-1.175,0.289c-0.444,0-0.782-0.101-1.012-0.304
				c-0.231-0.204-0.346-0.457-0.346-0.762c0-0.199,0.053-0.38,0.159-0.543c0.105-0.163,0.256-0.287,0.45-0.371
				c0.195-0.085,0.527-0.161,0.997-0.229c0.829-0.118,1.451-0.262,1.866-0.431V70.836z M349.833,73.8h1.193
				c-0.144-0.258-0.24-0.528-0.289-0.809c-0.048-0.282-0.073-0.954-0.073-2.016v-1.523c0-0.508-0.019-0.859-0.057-1.054
				c-0.068-0.313-0.186-0.572-0.355-0.778c-0.17-0.205-0.434-0.375-0.794-0.511c-0.36-0.135-0.827-0.203-1.403-0.203
				c-0.579,0-1.089,0.08-1.529,0.238c-0.441,0.159-0.777,0.386-1.01,0.68c-0.232,0.294-0.4,0.68-0.501,1.158l1.117,0.152
				c0.123-0.478,0.312-0.811,0.568-0.999c0.256-0.189,0.653-0.283,1.19-0.283c0.576,0,1.01,0.129,1.302,0.387
				c0.215,0.191,0.323,0.519,0.323,0.984c0,0.043-0.002,0.142-0.006,0.299c-0.436,0.152-1.115,0.283-2.038,0.393
				c-0.452,0.055-0.791,0.112-1.015,0.172c-0.305,0.084-0.579,0.209-0.822,0.374c-0.244,0.165-0.44,0.384-0.591,0.657
				c-0.15,0.273-0.225,0.574-0.225,0.905c0,0.562,0.199,1.025,0.597,1.387c0.397,0.361,0.967,0.542,1.707,0.542
				c0.449,0,0.869-0.074,1.26-0.222c0.392-0.148,0.799-0.402,1.222-0.762C349.638,73.286,349.714,73.563,349.833,73.8 M338.927,73.8
				c-0.012,0.385-0.076,0.68-0.19,0.885c-0.114,0.206-0.292,0.361-0.533,0.467l0.317,0.489c0.368-0.161,0.637-0.389,0.806-0.683
				c0.17-0.294,0.254-0.68,0.254-1.158v-1.301h-1.301V73.8H338.927z M332.208,68.373c0.358-0.352,0.799-0.527,1.324-0.527
				c0.58,0,1.051,0.22,1.415,0.66c0.237,0.284,0.381,0.709,0.432,1.276h-3.764C331.653,69.194,331.851,68.724,332.208,68.373
				 M334.662,72.683c-0.296,0.22-0.654,0.33-1.073,0.33c-0.563,0-1.032-0.197-1.409-0.591c-0.377-0.393-0.586-0.96-0.629-1.701
				h5.028c0.004-0.135,0.006-0.237,0.006-0.304c0-1.113-0.285-1.977-0.857-2.59c-0.571-0.614-1.307-0.921-2.209-0.921
				c-0.931,0-1.688,0.314-2.272,0.94c-0.584,0.626-0.876,1.506-0.876,2.64c0,1.096,0.289,1.948,0.866,2.555
				c0.578,0.608,1.36,0.911,2.346,0.911c0.783,0,1.426-0.19,1.929-0.571c0.504-0.381,0.849-0.916,1.035-1.606l-1.181-0.146
				C335.193,72.111,334.958,72.463,334.662,72.683 M324.664,73.8v-3.682c0-0.863,0.177-1.449,0.53-1.758
				c0.354-0.309,0.774-0.463,1.26-0.463c0.305,0,0.571,0.068,0.797,0.206c0.226,0.137,0.384,0.322,0.473,0.552
				c0.089,0.231,0.133,0.579,0.133,1.044V73.8H329v-4.145c0-0.529-0.022-0.899-0.064-1.111c-0.067-0.326-0.186-0.607-0.355-0.844
				c-0.17-0.237-0.425-0.429-0.765-0.575c-0.341-0.146-0.714-0.219-1.12-0.219c-0.936,0-1.651,0.371-2.146,1.111v-0.958h-1.028V73.8
				H324.664z M321.782,67.059h-1.143V73.8h1.143V67.059z M321.782,64.494h-1.143v1.314h1.143V64.494z M318.863,64.494h-1.143V73.8
				h1.143V64.494z M311.658,73.8v-3.682c0-0.863,0.177-1.449,0.53-1.758s0.773-0.463,1.26-0.463c0.305,0,0.57,0.068,0.797,0.206
				c0.226,0.137,0.384,0.322,0.473,0.552c0.088,0.231,0.133,0.579,0.133,1.044V73.8h1.142v-4.145c0-0.529-0.021-0.899-0.063-1.111
				c-0.068-0.326-0.186-0.607-0.356-0.844c-0.169-0.237-0.424-0.429-0.764-0.575c-0.341-0.146-0.715-0.219-1.121-0.219
				c-0.935,0-1.65,0.371-2.145,1.111v-0.958h-1.029V73.8H311.658z M304.599,68.493c0.377-0.427,0.851-0.641,1.422-0.641
				c0.563,0,1.034,0.215,1.413,0.644c0.378,0.43,0.568,1.062,0.568,1.895c0,0.885-0.189,1.543-0.565,1.974
				c-0.377,0.432-0.849,0.648-1.416,0.648c-0.571,0-1.045-0.215-1.422-0.644c-0.376-0.43-0.565-1.076-0.565-1.94
				C304.034,69.566,304.223,68.921,304.599,68.493 M303.733,73.045c0.582,0.605,1.344,0.907,2.288,0.907
				c0.588,0,1.131-0.137,1.628-0.412c0.498-0.275,0.876-0.661,1.137-1.159c0.26-0.497,0.39-1.179,0.39-2.047
				c0-1.07-0.294-1.909-0.882-2.517c-0.589-0.607-1.346-0.911-2.273-0.911c-0.834,0-1.54,0.25-2.12,0.749
				c-0.694,0.601-1.041,1.526-1.041,2.774C302.86,71.568,303.151,72.439,303.733,73.045 M293.596,73.406
				c0.459,0.364,1.126,0.546,2.002,0.546c0.529,0,1.003-0.092,1.422-0.276c0.419-0.184,0.74-0.444,0.962-0.781
				c0.222-0.336,0.333-0.695,0.333-1.076c0-0.389-0.091-0.715-0.273-0.977c-0.182-0.262-0.433-0.462-0.752-0.6
				c-0.32-0.137-0.883-0.314-1.692-0.53c-0.558-0.152-0.895-0.25-1.009-0.292c-0.199-0.08-0.345-0.182-0.438-0.305
				c-0.093-0.118-0.14-0.251-0.14-0.4c0-0.232,0.113-0.435,0.337-0.609c0.224-0.173,0.599-0.26,1.123-0.26
				c0.445,0,0.789,0.097,1.032,0.292c0.243,0.194,0.39,0.465,0.441,0.812l1.117-0.152c-0.072-0.436-0.203-0.784-0.393-1.044
				c-0.191-0.26-0.486-0.467-0.886-0.619c-0.4-0.152-0.864-0.229-1.393-0.229c-0.351,0-0.68,0.046-0.987,0.137
				c-0.307,0.091-0.549,0.202-0.727,0.333c-0.237,0.169-0.424,0.382-0.562,0.638c-0.137,0.256-0.206,0.534-0.206,0.835
				c0,0.33,0.083,0.631,0.251,0.904c0.167,0.273,0.412,0.487,0.736,0.641c0.324,0.155,0.905,0.338,1.742,0.549
				c0.623,0.157,1.012,0.286,1.168,0.388c0.225,0.148,0.337,0.351,0.337,0.609c0,0.288-0.127,0.539-0.381,0.752
				c-0.254,0.214-0.643,0.321-1.168,0.321c-0.52,0-0.926-0.121-1.216-0.362c-0.289-0.241-0.466-0.588-0.53-1.041l-1.129,0.178
				C292.843,72.503,293.136,73.042,293.596,73.406 M291.403,64.494h-1.143V73.8h1.143V64.494z M288.514,64.494h-1.143V73.8h1.143
				V64.494z M285.658,67.059h-1.143V73.8h1.143V67.059z M285.658,64.494h-1.143v1.314h1.143V64.494z M278.866,68.496
				c0.364-0.433,0.795-0.65,1.295-0.65c0.495,0,0.917,0.209,1.266,0.628c0.349,0.419,0.524,1.069,0.524,1.949
				c0,0.859-0.182,1.505-0.546,1.939c-0.364,0.434-0.796,0.651-1.295,0.651c-0.614,0-1.1-0.294-1.46-0.883
				c-0.22-0.359-0.33-0.943-0.33-1.751C278.32,69.558,278.502,68.93,278.866,68.496 M278.333,72.956
				c0.453,0.664,1.077,0.996,1.872,0.996c0.8,0,1.486-0.315,2.057-0.946c0.571-0.63,0.857-1.523,0.857-2.678
				c0-0.487-0.068-0.944-0.203-1.371c-0.136-0.428-0.323-0.793-0.562-1.095c-0.239-0.303-0.544-0.538-0.914-0.705
				c-0.37-0.167-0.763-0.251-1.178-0.251c-0.749,0-1.364,0.303-1.847,0.908v-3.32h-1.142V73.8h1.06V72.956z M270.468,73.8v-3.529
				c0-0.483,0.063-0.927,0.19-1.333c0.085-0.267,0.227-0.475,0.426-0.626c0.199-0.15,0.423-0.225,0.673-0.225
				c0.279,0,0.558,0.083,0.837,0.248l0.394-1.06c-0.398-0.246-0.789-0.369-1.174-0.369c-0.267,0-0.511,0.077-0.733,0.229
				c-0.223,0.152-0.465,0.468-0.727,0.946v-1.022h-1.029V73.8H270.468z M267.548,73.8v-6.741h-1.143v3.612
				c0,0.575-0.062,1.014-0.187,1.317c-0.125,0.302-0.337,0.541-0.638,0.717c-0.3,0.176-0.622,0.263-0.965,0.263
				c-0.342,0-0.63-0.085-0.863-0.257c-0.233-0.171-0.385-0.407-0.457-0.707c-0.046-0.208-0.07-0.61-0.07-1.207v-3.738h-1.142v4.176
				c0,0.487,0.023,0.843,0.07,1.067c0.067,0.334,0.185,0.617,0.352,0.847c0.167,0.231,0.423,0.422,0.768,0.575
				c0.345,0.152,0.716,0.228,1.114,0.228c0.901,0,1.614-0.381,2.139-1.142v0.99H267.548z M256.192,68.493
				c0.377-0.427,0.851-0.641,1.422-0.641c0.563,0,1.034,0.215,1.412,0.644c0.379,0.43,0.568,1.062,0.568,1.895
				c0,0.885-0.188,1.543-0.564,1.974c-0.377,0.432-0.849,0.648-1.416,0.648c-0.571,0-1.045-0.215-1.422-0.644
				c-0.377-0.43-0.565-1.076-0.565-1.94C255.627,69.566,255.815,68.921,256.192,68.493 M255.326,73.045
				c0.581,0.605,1.344,0.907,2.288,0.907c0.588,0,1.131-0.137,1.628-0.412c0.497-0.275,0.876-0.661,1.136-1.159
				c0.261-0.497,0.391-1.179,0.391-2.047c0-1.07-0.294-1.909-0.883-2.517c-0.588-0.607-1.345-0.911-2.272-0.911
				c-0.834,0-1.54,0.25-2.12,0.749c-0.694,0.601-1.041,1.526-1.041,2.774C254.453,71.568,254.744,72.439,255.326,73.045
				 M249.064,76.536c0.364,0,0.677-0.088,0.939-0.264c0.262-0.175,0.495-0.451,0.698-0.828c0.153-0.279,0.366-0.789,0.642-1.53
				l2.564-6.855h-1.143l-1.441,3.929c-0.182,0.499-0.338,1.011-0.469,1.536c-0.144-0.546-0.307-1.066-0.489-1.562l-1.403-3.903
				h-1.231l2.558,6.754c-0.047,0.122-0.081,0.215-0.102,0.279c-0.161,0.453-0.277,0.736-0.349,0.85
				c-0.097,0.153-0.222,0.271-0.374,0.356c-0.153,0.085-0.356,0.127-0.61,0.127c-0.186,0-0.404-0.034-0.654-0.102l0.127,1.073
				C248.598,76.489,248.844,76.536,249.064,76.536 M238.993,68.373c0.358-0.352,0.799-0.527,1.324-0.527
				c0.579,0,1.051,0.22,1.415,0.66c0.237,0.284,0.381,0.709,0.432,1.276H238.4C238.438,69.194,238.635,68.724,238.993,68.373
				 M241.447,72.683c-0.297,0.22-0.654,0.33-1.073,0.33c-0.563,0-1.033-0.197-1.409-0.591c-0.377-0.393-0.587-0.96-0.629-1.701
				h5.028c0.004-0.135,0.006-0.237,0.006-0.304c0-1.113-0.286-1.977-0.857-2.59c-0.571-0.614-1.308-0.921-2.209-0.921
				c-0.931,0-1.689,0.314-2.273,0.94c-0.584,0.626-0.876,1.506-0.876,2.64c0,1.096,0.289,1.948,0.867,2.555
				c0.578,0.608,1.359,0.911,2.345,0.911c0.783,0,1.426-0.19,1.93-0.571c0.504-0.381,0.849-0.916,1.035-1.606l-1.181-0.146
				C241.978,72.111,241.743,72.463,241.447,72.683 M231.763,68.373c0.358-0.352,0.799-0.527,1.324-0.527
				c0.579,0,1.051,0.22,1.415,0.66c0.237,0.284,0.381,0.709,0.432,1.276h-3.764C231.208,69.194,231.406,68.724,231.763,68.373
				 M234.217,72.683c-0.297,0.22-0.654,0.33-1.073,0.33c-0.563,0-1.033-0.197-1.409-0.591c-0.377-0.393-0.587-0.96-0.629-1.701
				h5.028c0.004-0.135,0.006-0.237,0.006-0.304c0-1.113-0.286-1.977-0.857-2.59c-0.571-0.614-1.308-0.921-2.209-0.921
				c-0.931,0-1.689,0.314-2.273,0.94c-0.583,0.626-0.875,1.506-0.875,2.64c0,1.096,0.288,1.948,0.866,2.555
				c0.578,0.608,1.359,0.911,2.345,0.911c0.783,0,1.426-0.19,1.93-0.571c0.504-0.381,0.849-0.916,1.035-1.606l-1.181-0.146
				C234.748,72.111,234.513,72.463,234.217,72.683 M224.228,73.406c0.46,0.364,1.127,0.546,2.003,0.546
				c0.529,0,1.003-0.092,1.422-0.276c0.419-0.184,0.74-0.444,0.962-0.781c0.222-0.336,0.333-0.695,0.333-1.076
				c0-0.389-0.091-0.715-0.273-0.977c-0.182-0.262-0.433-0.462-0.752-0.6c-0.32-0.137-0.884-0.314-1.692-0.53
				c-0.558-0.152-0.895-0.25-1.009-0.292c-0.199-0.08-0.345-0.182-0.438-0.305c-0.093-0.118-0.14-0.251-0.14-0.4
				c0-0.232,0.112-0.435,0.337-0.609c0.224-0.173,0.598-0.26,1.123-0.26c0.445,0,0.788,0.097,1.032,0.292
				c0.243,0.194,0.39,0.465,0.441,0.812l1.117-0.152c-0.072-0.436-0.203-0.784-0.393-1.044c-0.191-0.26-0.486-0.467-0.886-0.619
				c-0.4-0.152-0.864-0.229-1.393-0.229c-0.352,0-0.681,0.046-0.987,0.137c-0.307,0.091-0.549,0.202-0.727,0.333
				c-0.237,0.169-0.424,0.382-0.562,0.638c-0.137,0.256-0.206,0.534-0.206,0.835c0,0.33,0.083,0.631,0.251,0.904
				c0.167,0.273,0.412,0.487,0.736,0.641c0.324,0.155,0.904,0.338,1.742,0.549c0.622,0.157,1.012,0.286,1.168,0.388
				c0.224,0.148,0.337,0.351,0.337,0.609c0,0.288-0.127,0.539-0.381,0.752c-0.254,0.214-0.643,0.321-1.168,0.321
				c-0.521,0-0.926-0.121-1.216-0.362s-0.466-0.588-0.53-1.041l-1.13,0.178C223.476,72.503,223.769,73.042,224.228,73.406
				 M214.279,68.493c0.376-0.427,0.85-0.641,1.421-0.641c0.563,0,1.034,0.215,1.413,0.644c0.378,0.43,0.568,1.062,0.568,1.895
				c0,0.885-0.188,1.543-0.565,1.974c-0.377,0.432-0.849,0.648-1.416,0.648c-0.571,0-1.045-0.215-1.421-0.644
				c-0.377-0.43-0.565-1.076-0.565-1.94C213.714,69.566,213.902,68.921,214.279,68.493 M213.412,73.045
				c0.582,0.605,1.345,0.907,2.288,0.907c0.589,0,1.131-0.137,1.629-0.412c0.497-0.275,0.876-0.661,1.136-1.159
				c0.26-0.497,0.39-1.179,0.39-2.047c0-1.07-0.294-1.909-0.882-2.517c-0.588-0.607-1.346-0.911-2.273-0.911
				c-0.833,0-1.54,0.25-2.12,0.749c-0.694,0.601-1.041,1.526-1.041,2.774C212.539,71.568,212.83,72.439,213.412,73.045
				 M211.346,72.822c-0.169,0-0.3-0.027-0.39-0.082c-0.092-0.055-0.157-0.129-0.197-0.222s-0.061-0.303-0.061-0.629v-3.942h1.149
				v-0.888h-1.149v-2.355l-1.136,0.685v1.67h-0.838v0.888h0.838v3.879c0,0.685,0.047,1.135,0.14,1.349
				c0.093,0.213,0.254,0.386,0.482,0.517c0.229,0.131,0.55,0.197,0.965,0.197c0.254,0,0.542-0.034,0.863-0.102l-0.165-1.009
				C211.64,72.808,211.473,72.822,211.346,72.822 M199.663,73.406c0.459,0.364,1.127,0.546,2.003,0.546
				c0.529,0,1.003-0.092,1.422-0.276c0.419-0.184,0.739-0.444,0.961-0.781c0.222-0.336,0.334-0.695,0.334-1.076
				c0-0.389-0.091-0.715-0.273-0.977c-0.182-0.262-0.433-0.462-0.753-0.6c-0.319-0.137-0.883-0.314-1.691-0.53
				c-0.559-0.152-0.895-0.25-1.01-0.292c-0.198-0.08-0.344-0.182-0.438-0.305c-0.093-0.118-0.139-0.251-0.139-0.4
				c0-0.232,0.112-0.435,0.336-0.609c0.225-0.173,0.599-0.26,1.124-0.26c0.444,0,0.788,0.097,1.031,0.292
				c0.244,0.194,0.391,0.465,0.441,0.812l1.118-0.152c-0.072-0.436-0.203-0.784-0.394-1.044c-0.19-0.26-0.486-0.467-0.885-0.619
				c-0.4-0.152-0.865-0.229-1.394-0.229c-0.351,0-0.68,0.046-0.987,0.137c-0.307,0.091-0.549,0.202-0.727,0.333
				c-0.237,0.169-0.424,0.382-0.561,0.638c-0.138,0.256-0.207,0.534-0.207,0.835c0,0.33,0.084,0.631,0.251,0.904
				c0.167,0.273,0.413,0.487,0.736,0.641c0.324,0.155,0.905,0.338,1.743,0.549c0.622,0.157,1.011,0.286,1.168,0.388
				c0.224,0.148,0.336,0.351,0.336,0.609c0,0.288-0.127,0.539-0.381,0.752c-0.254,0.214-0.643,0.321-1.168,0.321
				c-0.52,0-0.925-0.121-1.215-0.362c-0.29-0.241-0.467-0.588-0.53-1.041l-1.13,0.178C198.911,72.503,199.204,73.042,199.663,73.406
				 M193.163,73.406c0.459,0.364,1.127,0.546,2.003,0.546c0.529,0,1.003-0.092,1.422-0.276c0.419-0.184,0.739-0.444,0.961-0.781
				c0.222-0.336,0.334-0.695,0.334-1.076c0-0.389-0.091-0.715-0.273-0.977c-0.182-0.262-0.433-0.462-0.753-0.6
				c-0.319-0.137-0.883-0.314-1.691-0.53c-0.559-0.152-0.895-0.25-1.01-0.292c-0.198-0.08-0.344-0.182-0.438-0.305
				c-0.093-0.118-0.139-0.251-0.139-0.4c0-0.232,0.112-0.435,0.336-0.609c0.225-0.173,0.599-0.26,1.124-0.26
				c0.444,0,0.788,0.097,1.031,0.292c0.244,0.194,0.391,0.465,0.441,0.812l1.118-0.152c-0.072-0.436-0.203-0.784-0.394-1.044
				c-0.19-0.26-0.486-0.467-0.885-0.619c-0.4-0.152-0.865-0.229-1.394-0.229c-0.351,0-0.68,0.046-0.987,0.137
				c-0.307,0.091-0.549,0.202-0.727,0.333c-0.237,0.169-0.424,0.382-0.561,0.638c-0.138,0.256-0.207,0.534-0.207,0.835
				c0,0.33,0.084,0.631,0.251,0.904c0.167,0.273,0.413,0.487,0.736,0.641c0.324,0.155,0.905,0.338,1.743,0.549
				c0.622,0.157,1.011,0.286,1.168,0.388c0.224,0.148,0.336,0.351,0.336,0.609c0,0.288-0.127,0.539-0.381,0.752
				c-0.254,0.214-0.643,0.321-1.168,0.321c-0.52,0-0.925-0.121-1.215-0.362c-0.29-0.241-0.467-0.588-0.53-1.041l-1.13,0.178
				C192.411,72.503,192.704,73.042,193.163,73.406 M186.968,68.373c0.357-0.352,0.798-0.527,1.323-0.527
				c0.58,0,1.052,0.22,1.416,0.66c0.237,0.284,0.381,0.709,0.431,1.276h-3.764C186.412,69.194,186.61,68.724,186.968,68.373
				 M189.421,72.683c-0.296,0.22-0.654,0.33-1.073,0.33c-0.562,0-1.032-0.197-1.409-0.591c-0.377-0.393-0.586-0.96-0.628-1.701
				h5.027c0.004-0.135,0.006-0.237,0.006-0.304c0-1.113-0.285-1.977-0.856-2.59c-0.572-0.614-1.308-0.921-2.209-0.921
				c-0.931,0-1.689,0.314-2.273,0.94c-0.584,0.626-0.876,1.506-0.876,2.64c0,1.096,0.289,1.948,0.867,2.555
				c0.577,0.608,1.359,0.911,2.345,0.911c0.783,0,1.426-0.19,1.93-0.571c0.503-0.381,0.848-0.916,1.034-1.606l-1.18-0.146
				C189.952,72.111,189.717,72.463,189.421,72.683 M182.839,72.6c-0.301,0.275-0.675,0.413-1.124,0.413
				c-0.559,0-1.011-0.205-1.358-0.616c-0.347-0.41-0.521-1.068-0.521-1.974c0-0.893,0.18-1.546,0.54-1.958
				c0.359-0.413,0.827-0.619,1.403-0.619c0.38,0,0.705,0.114,0.974,0.343c0.269,0.228,0.456,0.569,0.562,1.022l1.111-0.172
				c-0.132-0.681-0.43-1.207-0.896-1.577c-0.465-0.37-1.064-0.556-1.796-0.556c-0.58,0-1.116,0.137-1.609,0.41
				c-0.493,0.273-0.86,0.682-1.101,1.228c-0.242,0.546-0.362,1.183-0.362,1.911c0,1.125,0.28,1.99,0.841,2.593
				c0.561,0.603,1.302,0.904,2.225,0.904c0.736,0,1.357-0.219,1.863-0.657c0.505-0.438,0.82-1.044,0.942-1.818l-1.123-0.146
				C183.329,71.902,183.139,72.325,182.839,72.6 M176.339,72.6c-0.301,0.275-0.675,0.413-1.124,0.413
				c-0.559,0-1.011-0.205-1.358-0.616c-0.347-0.41-0.521-1.068-0.521-1.974c0-0.893,0.18-1.546,0.54-1.958
				c0.359-0.413,0.827-0.619,1.403-0.619c0.38,0,0.705,0.114,0.974,0.343c0.269,0.228,0.456,0.569,0.562,1.022l1.111-0.172
				c-0.132-0.681-0.43-1.207-0.896-1.577c-0.465-0.37-1.064-0.556-1.796-0.556c-0.58,0-1.116,0.137-1.609,0.41
				c-0.493,0.273-0.86,0.682-1.101,1.228c-0.242,0.546-0.362,1.183-0.362,1.911c0,1.125,0.28,1.99,0.841,2.593
				c0.561,0.603,1.302,0.904,2.225,0.904c0.736,0,1.357-0.219,1.863-0.657c0.505-0.438,0.82-1.044,0.942-1.818l-1.123-0.146
				C176.829,71.902,176.639,72.325,176.339,72.6 M169.585,70.836c0,0.503-0.062,0.884-0.184,1.142
				c-0.161,0.334-0.413,0.598-0.756,0.79c-0.343,0.193-0.734,0.289-1.174,0.289c-0.444,0-0.782-0.101-1.013-0.304
				c-0.23-0.204-0.345-0.457-0.345-0.762c0-0.199,0.052-0.38,0.158-0.543c0.106-0.163,0.256-0.287,0.451-0.371
				c0.195-0.085,0.527-0.161,0.996-0.229c0.83-0.118,1.452-0.262,1.867-0.431V70.836z M169.908,73.8h1.194
				c-0.144-0.258-0.24-0.528-0.289-0.809c-0.049-0.282-0.073-0.954-0.073-2.016v-1.523c0-0.508-0.019-0.859-0.057-1.054
				c-0.068-0.313-0.186-0.572-0.356-0.778c-0.169-0.205-0.433-0.375-0.793-0.511c-0.36-0.135-0.827-0.203-1.403-0.203
				c-0.58,0-1.09,0.08-1.53,0.238c-0.44,0.159-0.776,0.386-1.009,0.68c-0.233,0.294-0.4,0.68-0.501,1.158l1.117,0.152
				c0.122-0.478,0.312-0.811,0.568-0.999c0.256-0.189,0.653-0.283,1.19-0.283c0.576,0,1.009,0.129,1.301,0.387
				c0.216,0.191,0.324,0.519,0.324,0.984c0,0.043-0.002,0.142-0.006,0.299c-0.436,0.152-1.115,0.283-2.038,0.393
				c-0.453,0.055-0.791,0.112-1.016,0.172c-0.304,0.084-0.578,0.209-0.822,0.374c-0.243,0.165-0.44,0.384-0.59,0.657
				c-0.15,0.273-0.225,0.574-0.225,0.905c0,0.562,0.199,1.025,0.596,1.387c0.398,0.361,0.967,0.542,1.708,0.542
				c0.448,0,0.869-0.074,1.26-0.222c0.391-0.148,0.799-0.402,1.222-0.762C169.714,73.286,169.79,73.563,169.908,73.8 M155.582,73.8
				v-3.682c0-0.863,0.176-1.449,0.53-1.758c0.353-0.309,0.773-0.463,1.26-0.463c0.304,0,0.57,0.068,0.796,0.206
				c0.227,0.137,0.384,0.322,0.473,0.552c0.089,0.231,0.134,0.579,0.134,1.044V73.8h1.142v-4.145c0-0.529-0.021-0.899-0.063-1.111
				c-0.068-0.326-0.187-0.607-0.356-0.844c-0.169-0.237-0.424-0.429-0.765-0.575c-0.34-0.146-0.714-0.219-1.12-0.219
				c-0.935,0-1.65,0.371-2.145,1.111v-0.958h-1.029V73.8H155.582z M152.7,67.059h-1.143V73.8h1.143V67.059z M152.7,64.494h-1.143
				v1.314h1.143V64.494z M148.625,70.836c0,0.503-0.062,0.884-0.184,1.142c-0.161,0.334-0.413,0.598-0.756,0.79
				c-0.342,0.193-0.734,0.289-1.174,0.289c-0.444,0-0.782-0.101-1.012-0.304c-0.231-0.204-0.346-0.457-0.346-0.762
				c0-0.199,0.052-0.38,0.158-0.543c0.106-0.163,0.256-0.287,0.451-0.371c0.195-0.085,0.527-0.161,0.997-0.229
				c0.829-0.118,1.451-0.262,1.866-0.431V70.836z M148.948,73.8h1.194c-0.144-0.258-0.24-0.528-0.289-0.809
				c-0.049-0.282-0.073-0.954-0.073-2.016v-1.523c0-0.508-0.019-0.859-0.057-1.054c-0.068-0.313-0.186-0.572-0.356-0.778
				c-0.169-0.205-0.433-0.375-0.793-0.511c-0.36-0.135-0.827-0.203-1.403-0.203c-0.58,0-1.09,0.08-1.53,0.238
				c-0.44,0.159-0.776,0.386-1.009,0.68c-0.233,0.294-0.4,0.68-0.501,1.158l1.117,0.152c0.122-0.478,0.312-0.811,0.568-0.999
				c0.256-0.189,0.653-0.283,1.19-0.283c0.576,0,1.009,0.129,1.301,0.387c0.216,0.191,0.324,0.519,0.324,0.984
				c0,0.043-0.002,0.142-0.006,0.299c-0.436,0.152-1.115,0.283-2.038,0.393c-0.453,0.055-0.791,0.112-1.015,0.172
				c-0.305,0.084-0.579,0.209-0.823,0.374c-0.243,0.165-0.44,0.384-0.59,0.657c-0.15,0.273-0.225,0.574-0.225,0.905
				c0,0.562,0.199,1.025,0.597,1.387c0.397,0.361,0.966,0.542,1.707,0.542c0.449,0,0.869-0.074,1.26-0.222
				c0.391-0.148,0.799-0.402,1.222-0.762C148.754,73.286,148.83,73.563,148.948,73.8 M138.361,68.471
				c0.355-0.413,0.787-0.619,1.295-0.619c0.516,0,0.957,0.21,1.323,0.629c0.366,0.419,0.549,1.041,0.549,1.866
				c0,0.863-0.178,1.497-0.533,1.901c-0.356,0.404-0.796,0.606-1.32,0.606c-0.529,0-0.97-0.203-1.321-0.609
				c-0.351-0.407-0.527-1.052-0.527-1.936C137.827,69.496,138.005,68.884,138.361,68.471 M137.599,75.993
				c0.495,0.362,1.145,0.543,1.949,0.543c0.677,0,1.247-0.127,1.71-0.381c0.464-0.254,0.802-0.6,1.016-1.038
				c0.214-0.438,0.32-1.182,0.32-2.231v-5.827h-1.053v0.812c-0.517-0.643-1.172-0.965-1.968-0.965c-0.597,0-1.116,0.149-1.558,0.445
				c-0.443,0.296-0.78,0.716-1.013,1.26c-0.233,0.544-0.349,1.137-0.349,1.78c0,0.936,0.254,1.737,0.762,2.406
				c0.508,0.669,1.225,1.003,2.152,1.003c0.744,0,1.366-0.294,1.866-0.882c0.004,0.744-0.023,1.233-0.083,1.466
				c-0.101,0.381-0.296,0.677-0.584,0.889c-0.287,0.211-0.696,0.317-1.225,0.317c-0.491,0-0.878-0.106-1.161-0.317
				c-0.212-0.157-0.341-0.407-0.388-0.749l-1.11-0.166C136.865,75.086,137.104,75.631,137.599,75.993 M127.522,68.474
				c0.341-0.414,0.765-0.622,1.273-0.622c0.52,0,0.958,0.216,1.314,0.648c0.355,0.431,0.533,1.108,0.533,2.031
				c0,0.838-0.175,1.461-0.524,1.869c-0.349,0.409-0.773,0.613-1.273,0.613c-0.495,0-0.924-0.214-1.288-0.641
				c-0.364-0.428-0.546-1.073-0.546-1.936C127.011,69.543,127.181,68.889,127.522,68.474 M131.683,73.8v-9.306h-1.136v3.339
				c-0.199-0.275-0.457-0.498-0.775-0.67c-0.317-0.171-0.679-0.257-1.085-0.257c-0.555,0-1.056,0.146-1.505,0.438
				c-0.448,0.292-0.785,0.712-1.009,1.26s-0.336,1.159-0.336,1.832c0,0.689,0.123,1.3,0.371,1.831
				c0.248,0.531,0.597,0.945,1.047,1.241c0.451,0.296,0.945,0.444,1.483,0.444c0.829,0,1.457-0.334,1.885-1.003V73.8H131.683z
				 M120.162,73.8v-3.682c0-0.863,0.176-1.449,0.53-1.758c0.353-0.309,0.773-0.463,1.26-0.463c0.305,0,0.57,0.068,0.797,0.206
				c0.226,0.137,0.384,0.322,0.472,0.552c0.089,0.231,0.134,0.579,0.134,1.044V73.8h1.142v-4.145c0-0.529-0.021-0.899-0.063-1.111
				c-0.068-0.326-0.186-0.607-0.356-0.844c-0.169-0.237-0.424-0.429-0.765-0.575c-0.34-0.146-0.714-0.219-1.12-0.219
				c-0.935,0-1.65,0.371-2.145,1.111v-0.958h-1.029V73.8H120.162z M116.093,70.836c0,0.503-0.061,0.884-0.184,1.142
				c-0.161,0.334-0.413,0.598-0.755,0.79c-0.343,0.193-0.735,0.289-1.175,0.289c-0.444,0-0.782-0.101-1.012-0.304
				c-0.231-0.204-0.346-0.457-0.346-0.762c0-0.199,0.053-0.38,0.159-0.543c0.105-0.163,0.256-0.287,0.45-0.371
				c0.195-0.085,0.527-0.161,0.997-0.229c0.829-0.118,1.451-0.262,1.866-0.431V70.836z M116.417,73.8h1.193
				c-0.144-0.258-0.24-0.528-0.289-0.809c-0.048-0.282-0.073-0.954-0.073-2.016v-1.523c0-0.508-0.019-0.859-0.057-1.054
				c-0.068-0.313-0.186-0.572-0.355-0.778c-0.17-0.205-0.434-0.375-0.794-0.511c-0.36-0.135-0.827-0.203-1.403-0.203
				c-0.579,0-1.089,0.08-1.529,0.238c-0.441,0.159-0.777,0.386-1.01,0.68c-0.232,0.294-0.4,0.68-0.501,1.158l1.117,0.152
				c0.123-0.478,0.312-0.811,0.568-0.999c0.256-0.189,0.653-0.283,1.19-0.283c0.576,0,1.01,0.129,1.302,0.387
				c0.215,0.191,0.323,0.519,0.323,0.984c0,0.043-0.002,0.142-0.006,0.299c-0.436,0.152-1.115,0.283-2.038,0.393
				c-0.452,0.055-0.791,0.112-1.015,0.172c-0.305,0.084-0.579,0.209-0.822,0.374c-0.244,0.165-0.44,0.384-0.591,0.657
				c-0.15,0.273-0.225,0.574-0.225,0.905c0,0.562,0.199,1.025,0.597,1.387c0.397,0.361,0.967,0.542,1.707,0.542
				c0.449,0,0.869-0.074,1.26-0.222c0.392-0.148,0.799-0.402,1.222-0.762C116.222,73.286,116.298,73.563,116.417,73.8 M102.1,73.406
				c0.459,0.364,1.126,0.546,2.002,0.546c0.529,0,1.003-0.092,1.422-0.276c0.419-0.184,0.74-0.444,0.962-0.781
				c0.222-0.336,0.333-0.695,0.333-1.076c0-0.389-0.091-0.715-0.273-0.977c-0.182-0.262-0.433-0.462-0.752-0.6
				c-0.32-0.137-0.883-0.314-1.692-0.53c-0.558-0.152-0.895-0.25-1.009-0.292c-0.199-0.08-0.345-0.182-0.438-0.305
				c-0.093-0.118-0.14-0.251-0.14-0.4c0-0.232,0.112-0.435,0.337-0.609c0.224-0.173,0.599-0.26,1.123-0.26
				c0.445,0,0.788,0.097,1.032,0.292c0.243,0.194,0.39,0.465,0.441,0.812l1.117-0.152c-0.072-0.436-0.203-0.784-0.393-1.044
				c-0.191-0.26-0.486-0.467-0.886-0.619c-0.4-0.152-0.864-0.229-1.393-0.229c-0.351,0-0.68,0.046-0.987,0.137
				c-0.307,0.091-0.549,0.202-0.727,0.333c-0.237,0.169-0.424,0.382-0.562,0.638c-0.137,0.256-0.206,0.534-0.206,0.835
				c0,0.33,0.083,0.631,0.251,0.904c0.167,0.273,0.412,0.487,0.736,0.641c0.324,0.155,0.904,0.338,1.742,0.549
				c0.622,0.157,1.012,0.286,1.168,0.388c0.225,0.148,0.337,0.351,0.337,0.609c0,0.288-0.127,0.539-0.381,0.752
				c-0.254,0.214-0.643,0.321-1.168,0.321c-0.521,0-0.926-0.121-1.216-0.362s-0.466-0.588-0.53-1.041l-1.13,0.178
				C101.347,72.503,101.64,73.042,102.1,73.406 M95.6,73.406c0.459,0.364,1.126,0.546,2.002,0.546c0.529,0,1.003-0.092,1.422-0.276
				c0.419-0.184,0.74-0.444,0.962-0.781c0.222-0.336,0.333-0.695,0.333-1.076c0-0.389-0.091-0.715-0.273-0.977
				c-0.182-0.262-0.433-0.462-0.752-0.6c-0.32-0.137-0.883-0.314-1.692-0.53c-0.558-0.152-0.895-0.25-1.009-0.292
				c-0.199-0.08-0.345-0.182-0.438-0.305c-0.093-0.118-0.14-0.251-0.14-0.4c0-0.232,0.112-0.435,0.337-0.609
				c0.224-0.173,0.599-0.26,1.123-0.26c0.445,0,0.788,0.097,1.032,0.292c0.243,0.194,0.39,0.465,0.441,0.812l1.117-0.152
				c-0.072-0.436-0.203-0.784-0.393-1.044c-0.191-0.26-0.486-0.467-0.886-0.619c-0.4-0.152-0.864-0.229-1.393-0.229
				c-0.351,0-0.68,0.046-0.987,0.137s-0.549,0.202-0.727,0.333c-0.237,0.169-0.424,0.382-0.562,0.638
				c-0.137,0.256-0.206,0.534-0.206,0.835c0,0.33,0.083,0.631,0.251,0.904c0.167,0.273,0.412,0.487,0.736,0.641
				c0.324,0.155,0.904,0.338,1.742,0.549c0.622,0.157,1.012,0.286,1.168,0.388c0.225,0.148,0.337,0.351,0.337,0.609
				c0,0.288-0.127,0.539-0.381,0.752c-0.254,0.214-0.643,0.321-1.168,0.321c-0.521,0-0.926-0.121-1.216-0.362
				c-0.29-0.241-0.466-0.588-0.53-1.041l-1.13,0.178C94.847,72.503,95.14,73.042,95.6,73.406 M89.404,68.373
				c0.358-0.352,0.799-0.527,1.324-0.527c0.579,0,1.051,0.22,1.415,0.66c0.237,0.284,0.381,0.709,0.432,1.276h-3.764
				C88.849,69.194,89.047,68.724,89.404,68.373 M91.858,72.683c-0.297,0.22-0.654,0.33-1.073,0.33c-0.563,0-1.033-0.197-1.409-0.591
				c-0.377-0.393-0.586-0.96-0.629-1.701h5.028c0.004-0.135,0.006-0.237,0.006-0.304c0-1.113-0.286-1.977-0.857-2.59
				c-0.571-0.614-1.308-0.921-2.209-0.921c-0.931,0-1.688,0.314-2.272,0.94c-0.584,0.626-0.876,1.506-0.876,2.64
				c0,1.096,0.288,1.948,0.866,2.555c0.578,0.608,1.359,0.911,2.346,0.911c0.782,0,1.426-0.19,1.929-0.571
				c0.504-0.381,0.849-0.916,1.035-1.606l-1.181-0.146C92.389,72.111,92.154,72.463,91.858,72.683 M86.176,64.494h-1.143V73.8h1.143
				V64.494z M81.86,73.8v-3.529c0-0.483,0.064-0.927,0.191-1.333c0.084-0.267,0.226-0.475,0.425-0.626
				c0.199-0.15,0.423-0.225,0.673-0.225c0.279,0,0.558,0.083,0.838,0.248l0.393-1.06c-0.398-0.246-0.789-0.369-1.174-0.369
				c-0.267,0-0.511,0.077-0.733,0.229c-0.223,0.152-0.465,0.468-0.727,0.946v-1.022h-1.028V73.8H81.86z M74.957,68.373
				c0.358-0.352,0.799-0.527,1.324-0.527c0.579,0,1.051,0.22,1.415,0.66c0.237,0.284,0.381,0.709,0.432,1.276h-3.764
				C74.402,69.194,74.599,68.724,74.957,68.373 M77.41,72.683c-0.296,0.22-0.653,0.33-1.072,0.33c-0.563,0-1.033-0.197-1.41-0.591
				c-0.376-0.393-0.586-0.96-0.628-1.701h5.027c0.005-0.135,0.007-0.237,0.007-0.304c0-1.113-0.286-1.977-0.857-2.59
				c-0.571-0.614-1.308-0.921-2.209-0.921c-0.931,0-1.689,0.314-2.273,0.94c-0.584,0.626-0.876,1.506-0.876,2.64
				c0,1.096,0.289,1.948,0.867,2.555c0.577,0.608,1.359,0.911,2.345,0.911c0.783,0,1.426-0.19,1.93-0.571
				c0.504-0.381,0.848-0.916,1.035-1.606l-1.181-0.146C77.941,72.111,77.707,72.463,77.41,72.683 M67.867,68.484
				c0.374-0.455,0.805-0.683,1.291-0.683c0.491,0,0.913,0.214,1.267,0.641c0.353,0.428,0.53,1.071,0.53,1.93
				c0,0.902-0.181,1.567-0.543,1.997c-0.362,0.429-0.797,0.644-1.304,0.644c-0.5,0-0.925-0.207-1.276-0.622
				c-0.352-0.415-0.527-1.056-0.527-1.924C67.305,69.6,67.492,68.939,67.867,68.484 M67.413,76.383v-3.281
				c0.194,0.245,0.443,0.448,0.746,0.609c0.302,0.161,0.644,0.241,1.025,0.241c0.52,0,1.016-0.147,1.488-0.441
				s0.832-0.717,1.079-1.269c0.248-0.553,0.372-1.174,0.372-1.863c0-0.644-0.112-1.235-0.337-1.775
				c-0.224-0.539-0.556-0.957-0.996-1.253c-0.44-0.296-0.948-0.445-1.524-0.445c-0.44,0-0.814,0.086-1.123,0.257
				c-0.309,0.172-0.586,0.429-0.832,0.772v-0.876H66.27v9.324H67.413z M63.344,70.836c0,0.503-0.061,0.884-0.184,1.142
				c-0.161,0.334-0.413,0.598-0.755,0.79c-0.343,0.193-0.735,0.289-1.175,0.289c-0.444,0-0.782-0.101-1.012-0.304
				c-0.231-0.204-0.346-0.457-0.346-0.762c0-0.199,0.053-0.38,0.158-0.543c0.106-0.163,0.256-0.287,0.451-0.371
				c0.195-0.085,0.527-0.161,0.997-0.229c0.829-0.118,1.451-0.262,1.866-0.431V70.836z M63.668,73.8h1.193
				c-0.144-0.258-0.24-0.528-0.289-0.809c-0.048-0.282-0.073-0.954-0.073-2.016v-1.523c0-0.508-0.019-0.859-0.057-1.054
				c-0.068-0.313-0.186-0.572-0.355-0.778c-0.17-0.205-0.434-0.375-0.794-0.511c-0.36-0.135-0.827-0.203-1.403-0.203
				c-0.579,0-1.089,0.08-1.529,0.238c-0.441,0.159-0.777,0.386-1.01,0.68c-0.232,0.294-0.4,0.68-0.501,1.158l1.117,0.152
				c0.123-0.478,0.312-0.811,0.568-0.999c0.256-0.189,0.653-0.283,1.19-0.283c0.576,0,1.01,0.129,1.302,0.387
				c0.215,0.191,0.323,0.519,0.323,0.984c0,0.043-0.002,0.142-0.006,0.299c-0.436,0.152-1.115,0.283-2.038,0.393
				c-0.452,0.055-0.791,0.112-1.015,0.172c-0.305,0.084-0.579,0.209-0.822,0.374c-0.244,0.165-0.44,0.384-0.591,0.657
				c-0.15,0.273-0.225,0.574-0.225,0.905c0,0.562,0.199,1.025,0.597,1.387c0.397,0.361,0.967,0.542,1.707,0.542
				c0.449,0,0.869-0.074,1.26-0.222c0.392-0.148,0.799-0.402,1.222-0.762C63.473,73.286,63.549,73.563,63.668,73.8 M53.407,68.484
				c0.374-0.455,0.805-0.683,1.291-0.683c0.491,0,0.913,0.214,1.267,0.641c0.353,0.428,0.53,1.071,0.53,1.93
				c0,0.902-0.181,1.567-0.543,1.997c-0.362,0.429-0.797,0.644-1.304,0.644c-0.5,0-0.925-0.207-1.276-0.622
				c-0.351-0.415-0.527-1.056-0.527-1.924C52.845,69.6,53.032,68.939,53.407,68.484 M52.953,76.383v-3.281
				c0.194,0.245,0.443,0.448,0.746,0.609c0.302,0.161,0.644,0.241,1.025,0.241c0.52,0,1.016-0.147,1.488-0.441
				s0.832-0.717,1.079-1.269c0.248-0.553,0.372-1.174,0.372-1.863c0-0.644-0.112-1.235-0.337-1.775
				c-0.224-0.539-0.556-0.957-0.996-1.253c-0.44-0.296-0.948-0.445-1.524-0.445c-0.44,0-0.814,0.086-1.123,0.257
				c-0.309,0.172-0.586,0.429-0.832,0.772v-0.876H51.81v9.324H52.953z M42.282,68.493c0.377-0.427,0.851-0.641,1.422-0.641
				c0.563,0,1.034,0.215,1.413,0.644c0.378,0.43,0.568,1.062,0.568,1.895c0,0.885-0.189,1.543-0.565,1.974
				c-0.377,0.432-0.849,0.648-1.416,0.648c-0.571,0-1.045-0.215-1.422-0.644c-0.376-0.43-0.564-1.076-0.564-1.94
				C41.718,69.566,41.906,68.921,42.282,68.493 M41.416,73.045c0.582,0.605,1.345,0.907,2.288,0.907
				c0.588,0,1.131-0.137,1.629-0.412c0.497-0.275,0.875-0.661,1.136-1.159c0.26-0.497,0.39-1.179,0.39-2.047
				c0-1.07-0.294-1.909-0.882-2.517c-0.588-0.607-1.346-0.911-2.273-0.911c-0.833,0-1.54,0.25-2.12,0.749
				c-0.694,0.601-1.041,1.526-1.041,2.774C40.543,71.568,40.834,72.439,41.416,73.045 M38.093,70.15v1.733
				c-0.262,0.233-0.647,0.452-1.155,0.657c-0.508,0.205-1.029,0.308-1.562,0.308c-0.613,0-1.193-0.136-1.739-0.406
				c-0.546-0.271-0.962-0.686-1.247-1.245c-0.286-0.558-0.429-1.252-0.429-2.082c0-0.673,0.119-1.297,0.356-1.872
				c0.139-0.334,0.335-0.641,0.587-0.921c0.252-0.279,0.583-0.504,0.993-0.676c0.411-0.171,0.897-0.257,1.46-0.257
				c0.47,0,0.897,0.082,1.282,0.245c0.385,0.163,0.682,0.38,0.889,0.65c0.207,0.271,0.381,0.644,0.521,1.117l1.11-0.304
				c-0.16-0.626-0.395-1.134-0.704-1.524c-0.309-0.389-0.736-0.693-1.279-0.911c-0.544-0.217-1.152-0.326-1.825-0.326
				c-0.927,0-1.746,0.19-2.457,0.571s-1.256,0.964-1.634,1.749c-0.379,0.785-0.568,1.63-0.568,2.536c0,0.914,0.19,1.741,0.571,2.481
				c0.381,0.741,0.945,1.307,1.692,1.698c0.746,0.392,1.577,0.588,2.491,0.588c0.677,0,1.337-0.122,1.98-0.365
				c0.644-0.244,1.268-0.607,1.873-1.089v-3.453l-3.942,0.006v1.092H38.093z"/>
			<path class="st31" d="M162.046,38.046c0,1.962,1.638,2.556,2.988,2.844c1.512,0.342,1.998,0.414,1.998,0.918
				s-0.54,0.684-1.206,0.684c-1.278,0-2.25-0.45-2.844-1.17l-1.386,1.8c0.792,1.008,2.268,1.494,3.996,1.494
				c2.394,0,3.888-0.864,3.888-2.934c0-1.89-1.314-2.502-2.88-2.826c-1.602-0.342-2.088-0.45-2.088-0.9
				c0-0.414,0.378-0.63,1.152-0.63c0.954,0,1.926,0.36,2.43,0.918l1.332-1.728c-0.792-0.81-1.926-1.332-3.582-1.332
				C163.468,35.184,162.046,36.228,162.046,38.046 M153.172,38.046c0,1.962,1.638,2.556,2.988,2.844
				c1.512,0.342,1.998,0.414,1.998,0.918s-0.54,0.684-1.206,0.684c-1.278,0-2.25-0.45-2.844-1.17l-1.386,1.8
				c0.792,1.008,2.268,1.494,3.996,1.494c2.394,0,3.888-0.864,3.888-2.934c0-1.89-1.314-2.502-2.88-2.826
				c-1.602-0.342-2.088-0.45-2.088-0.9c0-0.414,0.378-0.63,1.152-0.63c0.954,0,1.926,0.36,2.43,0.918l1.332-1.728
				c-0.792-0.81-1.926-1.332-3.582-1.332C154.594,35.184,153.172,36.228,153.172,38.046 M145.09,38.892
				c0.234-1.08,0.972-1.692,2.124-1.692c1.152,0,1.8,0.702,1.926,1.692H145.09z M142.678,39.9c0,2.682,1.782,4.716,4.824,4.716
				c1.728,0,2.844-0.558,3.582-1.188l-0.99-1.962c-0.63,0.558-1.476,0.918-2.556,0.918c-1.062,0-2.124-0.522-2.412-1.728
				l-0.018-0.036h6.624v-0.648c0-2.898-1.692-4.788-4.446-4.788C144.46,35.184,142.678,37.236,142.678,39.9 M138.502,44.4h2.394
				V31.8h-2.394V44.4z M133.571,35.4h-2.286v9h2.376v-4.068c0-1.728,0.684-2.61,2.268-2.61c0.378,0,0.738,0.018,1.08,0.144V35.31
				c-0.288-0.072-0.54-0.126-0.882-0.126c-1.278,0-2.07,0.63-2.556,1.692V35.4z M122.879,38.892c0.234-1.08,0.972-1.692,2.124-1.692
				s1.8,0.702,1.926,1.692H122.879z M120.467,39.9c0,2.682,1.782,4.716,4.824,4.716c1.728,0,2.844-0.558,3.582-1.188l-0.99-1.962
				c-0.63,0.558-1.476,0.918-2.556,0.918c-1.062,0-2.124-0.522-2.412-1.728l-0.018-0.036h6.624v-0.648
				c0-2.898-1.692-4.788-4.446-4.788C122.249,35.184,120.467,37.236,120.467,39.9 M112.133,48v-4.896
				c0.63,0.864,1.602,1.53,3.024,1.53c2.214,0,4.068-1.71,4.068-4.734c0-3.024-1.872-4.734-4.104-4.734
				c-1.314,0-2.34,0.576-2.988,1.494V35.4h-2.376V48H112.133z M114.419,42.312c-1.35,0-2.358-0.9-2.358-2.412
				c0-1.494,1.008-2.412,2.358-2.412s2.358,0.954,2.358,2.412C116.777,41.358,115.769,42.312,114.419,42.312 M101.279,38.496
				c0.324-0.846,1.314-1.152,2.25-1.152c1.08,0,1.566,0.378,1.566,0.9v0.144c0,0.198-0.162,0.324-0.468,0.36l-2.466,0.216
				c-1.656,0.144-2.88,1.206-2.88,2.826c0,1.656,1.26,2.808,3.042,2.808c1.422,0,2.286-0.684,2.772-1.404v1.224h2.376v-5.562
				c0-2.52-1.296-3.654-3.942-3.654c-1.962,0-3.42,0.666-4.014,2.034L101.279,38.496z M105.095,40.764c0,0.99-0.81,1.854-2.07,1.854
				c-0.846,0-1.278-0.378-1.278-0.954c0-0.504,0.378-0.864,1.116-0.99l2.232-0.27V40.764z M90.911,48v-4.896
				c0.63,0.864,1.602,1.53,3.024,1.53c2.214,0,4.068-1.71,4.068-4.734c0-3.024-1.872-4.734-4.104-4.734
				c-1.314,0-2.34,0.576-2.988,1.494V35.4h-2.376V48H90.911z M93.197,42.312c-1.35,0-2.358-0.9-2.358-2.412
				c0-1.494,1.008-2.412,2.358-2.412s2.358,0.954,2.358,2.412C95.555,41.358,94.547,42.312,93.197,42.312 M71.291,39.864
				c0,2.97,1.836,4.626,4.23,4.626c1.296,0,2.304-0.54,2.899-1.386v0.576c0,1.296-0.631,2.322-2.646,2.322
				c-1.099,0-1.944-0.396-2.718-1.134l-1.17,1.962c0.935,0.864,2.159,1.404,3.978,1.404c3.78,0,4.895-2.124,4.895-4.428V35.4h-2.375
				v1.26c-0.505-0.81-1.548-1.476-2.934-1.476C73.218,35.184,71.291,36.84,71.291,39.864 M78.437,39.9
				c0,1.494-0.972,2.412-2.34,2.412c-1.349,0-2.358-0.954-2.358-2.412c0-1.458,1.009-2.412,2.358-2.412
				C77.465,37.488,78.437,38.388,78.437,39.9 M63.282,35.4h-2.304v9h2.376v-4.302c0-1.602,0.576-2.628,1.962-2.628
				c1.008,0,1.638,0.576,1.638,1.944V44.4h2.43v-5.58c0-2.286-1.08-3.636-3.186-3.636c-1.314,0-2.286,0.63-2.916,1.512V35.4z
				 M56.118,44.4h2.376v-9h-2.376V44.4z M55.794,32.826c0,0.864,0.648,1.512,1.512,1.512c0.864,0,1.53-0.648,1.53-1.512
				c0-0.864-0.666-1.53-1.53-1.53C56.442,31.296,55.794,31.962,55.794,32.826 M51.744,39.9c0,1.44-1.026,2.394-2.394,2.394
				s-2.394-0.954-2.394-2.394c0-1.44,1.026-2.394,2.394-2.394S51.744,38.46,51.744,39.9 M44.508,39.9
				c0,2.808,2.07,4.716,4.842,4.716s4.842-1.908,4.842-4.716c0-2.808-2.07-4.716-4.842-4.716S44.508,37.092,44.508,39.9
				 M30.792,38.118c0,3.654,2.61,6.282,6.408,6.282c3.276,0,5.958-2.25,5.958-6.372V37.2h-6.426v2.52h3.528
				c-0.288,1.458-1.764,2.178-3.114,2.178c-2.286,0-3.834-1.548-3.834-3.798c0-2.232,1.548-3.78,3.762-3.78
				c1.368,0,2.574,0.504,3.528,1.602l1.224-2.34C40.584,32.358,38.928,31.8,37.2,31.8C33.366,31.8,30.792,34.482,30.792,38.118"/>
		</g>
	</g>
</g>
</svg>
