<?xml version="1.0" encoding="utf-8"?>
<!-- Generator: Adobe Illustrator 20.1.0, SVG Export Plug-In . SVG Version: 6.00 Build 0)  -->
<svg version="1.1" baseProfile="tiny" id="Layer_1" xmlns="http://www.w3.org/2000/svg" xmlns:xlink="http://www.w3.org/1999/xlink"
	 x="0px" y="0px" viewBox="0 0 470 295" xml:space="preserve">
<g>
	<g>
		<path fill="none" d="M169.4,34.3h-2.1v7.6h2.1c2.2,0,3.7-1.6,3.7-3.8C173,35.9,171.6,34.3,169.4,34.3z"/>
		<path fill="none" d="M171.3,88c-0.4-0.4-0.8-0.6-1.3-0.6c-0.5,0-0.9,0.2-1.3,0.6c-0.3,0.4-0.5,1.1-0.5,2c0,0.9,0.2,1.5,0.5,1.9
			s0.8,0.6,1.3,0.6c0.5,0,0.9-0.2,1.3-0.6c0.3-0.4,0.5-1,0.5-1.9C171.8,89.1,171.6,88.4,171.3,88z"/>
		<path fill="none" d="M139.8,88c-0.4-0.4-0.8-0.7-1.4-0.7c-0.5,0-1,0.2-1.3,0.5c-0.4,0.4-0.6,0.8-0.6,1.4h3.8
			C140.2,88.7,140.1,88.3,139.8,88z"/>
		<path fill="none" d="M140.9,37.2c-1.2,0-1.9,0.6-2.1,1.7h4C142.7,37.9,142.1,37.2,140.9,37.2z"/>
		<path fill="none" d="M155.5,68.5c-0.4-0.4-0.8-0.7-1.4-0.7c-0.5,0-1,0.2-1.3,0.5c-0.4,0.4-0.6,0.8-0.6,1.4h3.8
			C155.9,69.2,155.7,68.8,155.5,68.5z"/>
		<path fill="none" d="M144.9,69.8h3.8c-0.1-0.6-0.2-1-0.4-1.3c-0.4-0.4-0.8-0.7-1.4-0.7c-0.5,0-1,0.2-1.3,0.5
			C145.2,68.7,145,69.2,144.9,69.8z"/>
		<path fill="none" d="M97,34.3h-2.1v7.6H97c2.2,0,3.7-1.6,3.7-3.8C100.7,35.9,99.2,34.3,97,34.3z"/>
		<path fill="none" d="M154.4,90.6c-0.2,0.1-0.3,0.2-0.5,0.4c-0.1,0.2-0.2,0.3-0.2,0.5c0,0.3,0.1,0.6,0.3,0.8c0.2,0.2,0.6,0.3,1,0.3
			c0.4,0,0.8-0.1,1.2-0.3c0.3-0.2,0.6-0.5,0.8-0.8c0.1-0.3,0.2-0.6,0.2-1.1v-0.4c-0.4,0.2-1,0.3-1.9,0.4
			C154.9,90.4,154.6,90.5,154.4,90.6z"/>
		<path fill="none" d="M203,87.1c0,0.6,0.2,1.1,0.5,1.4c0.4,0.4,0.8,0.6,1.3,0.6c0.5,0,1-0.2,1.3-0.6c0.3-0.4,0.5-0.9,0.5-1.5
			s-0.2-1.2-0.5-1.6s-0.8-0.6-1.3-0.6c-0.5,0-1,0.2-1.3,0.6C203.2,85.9,203,86.5,203,87.1z"/>
		<path fill="none" d="M182.1,88c-0.4-0.4-0.8-0.6-1.3-0.6c-0.5,0-0.9,0.2-1.3,0.6c-0.3,0.4-0.5,1.1-0.5,2c0,0.9,0.2,1.5,0.5,1.9
			s0.8,0.6,1.3,0.6c0.5,0,0.9-0.2,1.3-0.6c0.3-0.4,0.5-1,0.5-1.9C182.7,89.1,182.5,88.4,182.1,88z"/>
		<path fill="none" d="M211,67.8c-0.5,0-1,0.2-1.3,0.5c-0.4,0.4-0.6,0.8-0.6,1.4h3.8c-0.1-0.6-0.2-1-0.4-1.3
			C212.1,68.1,211.6,67.8,211,67.8z"/>
		<path fill="none" d="M181.6,71.1c-0.2,0.1-0.3,0.2-0.5,0.4c-0.1,0.2-0.2,0.3-0.2,0.5c0,0.3,0.1,0.6,0.3,0.8c0.2,0.2,0.6,0.3,1,0.3
			c0.4,0,0.8-0.1,1.2-0.3c0.3-0.2,0.6-0.5,0.8-0.8c0.1-0.3,0.2-0.6,0.2-1.1v-0.4c-0.4,0.2-1,0.3-1.9,0.4
			C182.1,70.9,181.8,71,181.6,71.1z"/>
		<path fill="none" d="M184.5,41.7c0,0.6,0.4,1,1.3,1c1.3,0,2.1-0.9,2.1-1.9v-0.4l-2.2,0.3C184.9,40.8,184.5,41.2,184.5,41.7z"/>
		<path fill="none" d="M164.8,73c0.6,0,1-0.2,1.4-0.6c0.4-0.4,0.6-1.1,0.6-2c0-0.8-0.2-1.5-0.6-1.9c-0.4-0.4-0.8-0.6-1.4-0.6
			c-0.6,0-1,0.2-1.4,0.6c-0.4,0.4-0.6,1.1-0.6,1.9c0,0.9,0.2,1.5,0.6,1.9C163.8,72.8,164.3,73,164.8,73z"/>
		<path fill="none" d="M189.8,90.6c-0.2,0.1-0.3,0.2-0.5,0.4c-0.1,0.2-0.2,0.3-0.2,0.5c0,0.3,0.1,0.6,0.3,0.8c0.2,0.2,0.6,0.3,1,0.3
			c0.4,0,0.8-0.1,1.2-0.3c0.3-0.2,0.6-0.5,0.8-0.8c0.1-0.3,0.2-0.6,0.2-1.1v-0.4c-0.4,0.2-1,0.3-1.9,0.4
			C190.4,90.4,190,90.5,189.8,90.6z"/>
		<path fill="none" d="M84.1,68.5c-0.4-0.4-0.8-0.7-1.4-0.7c-0.5,0-1,0.2-1.3,0.5c-0.4,0.4-0.6,0.8-0.6,1.4h3.8
			C84.5,69.2,84.3,68.8,84.1,68.5z"/>
		<path fill="none" d="M50.9,67.9c-0.6,0-1,0.2-1.4,0.6c-0.4,0.4-0.6,1.1-0.6,1.9c0,0.9,0.2,1.5,0.6,1.9c0.4,0.4,0.9,0.6,1.4,0.6
			c0.6,0,1-0.2,1.4-0.6c0.4-0.4,0.6-1.1,0.6-2c0-0.8-0.2-1.5-0.6-1.9C51.9,68.1,51.4,67.9,50.9,67.9z"/>
		<path fill="none" d="M63.3,92.5c0.5,0,0.9-0.2,1.3-0.7c0.4-0.4,0.5-1.1,0.5-1.9c0-0.9-0.2-1.5-0.5-1.9c-0.3-0.4-0.8-0.6-1.3-0.6
			c-0.5,0-0.9,0.2-1.3,0.7c-0.4,0.4-0.5,1.1-0.5,1.9c0,0.8,0.1,1.4,0.3,1.8C62.2,92.2,62.7,92.5,63.3,92.5z"/>
		<path fill="none" d="M44.6,90.6c-0.2,0.1-0.3,0.2-0.5,0.4C44,91.1,44,91.3,44,91.5c0,0.3,0.1,0.6,0.3,0.8c0.2,0.2,0.6,0.3,1,0.3
			c0.4,0,0.8-0.1,1.2-0.3c0.3-0.2,0.6-0.5,0.8-0.8c0.1-0.3,0.2-0.6,0.2-1.1v-0.4c-0.4,0.2-1,0.3-1.9,0.4
			C45.1,90.4,44.8,90.5,44.6,90.6z"/>
		<path fill="none" d="M75.5,67.8c-0.5,0-1,0.2-1.3,0.5c-0.4,0.4-0.6,0.8-0.6,1.4h3.8c-0.1-0.6-0.2-1-0.4-1.3
			C76.5,68.1,76,67.8,75.5,67.8z"/>
		<path fill="none" d="M48.3,37.5c-1.4,0-2.4,1-2.4,2.4s1,2.4,2.4,2.4c1.4,0,2.4-1,2.4-2.4S49.7,37.5,48.3,37.5z"/>
		<path fill="none" d="M200.9,67.8c-0.5,0-1,0.2-1.3,0.5c-0.4,0.4-0.6,0.8-0.6,1.4h3.8c0-0.6-0.2-1-0.4-1.3
			C202,68.1,201.5,67.8,200.9,67.8z"/>
		<path fill="none" d="M121.3,89.3h3.8c-0.1-0.6-0.2-1-0.4-1.3c-0.4-0.4-0.8-0.7-1.4-0.7c-0.5,0-1,0.2-1.3,0.5
			C121.6,88.2,121.4,88.7,121.3,89.3z"/>
		<path fill="none" d="M101.5,84.9c-0.5,0-0.9,0.2-1.3,0.7c-0.4,0.6-0.6,1.6-0.6,3.1c0,1.5,0.2,2.5,0.5,3c0.4,0.5,0.8,0.8,1.3,0.8
			s1-0.3,1.3-0.8c0.4-0.5,0.5-1.5,0.5-3c0-1.5-0.2-2.6-0.5-3.1C102.5,85.2,102,84.9,101.5,84.9z"/>
		<path fill="none" d="M120.9,67.8c-0.5,0-1,0.2-1.3,0.5c-0.4,0.4-0.6,0.8-0.6,1.4h3.8c0-0.6-0.2-1-0.4-1.3
			C121.9,68.1,121.5,67.8,120.9,67.8z"/>
		<path fill="none" d="M35.9,34.3h-2.1v7.6h2.1c2.2,0,3.7-1.6,3.7-3.8C39.6,35.9,38.1,34.3,35.9,34.3z"/>
		<path fill="none" d="M106.5,71.1c-0.2,0.1-0.3,0.2-0.5,0.4c-0.1,0.2-0.2,0.3-0.2,0.5c0,0.3,0.1,0.6,0.3,0.8c0.2,0.2,0.6,0.3,1,0.3
			c0.4,0,0.8-0.1,1.2-0.3c0.3-0.2,0.6-0.5,0.8-0.8c0.1-0.3,0.2-0.6,0.2-1.1v-0.4c-0.4,0.2-1,0.3-1.9,0.4
			C107.1,70.9,106.7,71,106.5,71.1z"/>
		<path fill="none" d="M130,37.5c-1.4,0-2.4,1-2.4,2.4c0,1.5,1,2.4,2.4,2.4c1.4,0,2.3-0.9,2.3-2.4C132.3,38.4,131.4,37.5,130,37.5z"
			/>
		<path fill="none" d="M92.1,71.1c-0.2,0.1-0.3,0.2-0.5,0.4c-0.1,0.2-0.2,0.3-0.2,0.5c0,0.3,0.1,0.6,0.3,0.8c0.2,0.2,0.6,0.3,1,0.3
			c0.4,0,0.8-0.1,1.2-0.3c0.3-0.2,0.6-0.5,0.8-0.8c0.1-0.3,0.2-0.6,0.2-1.1v-0.4c-0.4,0.2-1,0.3-1.9,0.4
			C92.7,70.9,92.3,71,92.1,71.1z"/>
		<path fill="none" d="M106.9,41.7c0,0.6,0.4,1,1.3,1c1.3,0,2.1-0.9,2.1-1.9v-0.4l-2.2,0.3C107.3,40.8,106.9,41.2,106.9,41.7z"/>
		<path fill="none" d="M69.2,90.6c-0.2,0.1-0.3,0.2-0.4,0.4c-0.1,0.2-0.2,0.3-0.2,0.5c0,0.3,0.1,0.6,0.3,0.8c0.2,0.2,0.6,0.3,1,0.3
			c0.4,0,0.8-0.1,1.2-0.3c0.3-0.2,0.6-0.5,0.8-0.8c0.1-0.3,0.2-0.6,0.2-1.1v-0.4c-0.4,0.2-1,0.3-1.9,0.4
			C69.7,90.4,69.3,90.5,69.2,90.6z"/>
		<path fill="none" d="M240.8,71.1c-0.2,0.1-0.3,0.2-0.5,0.4c-0.1,0.2-0.2,0.3-0.2,0.5c0,0.3,0.1,0.6,0.3,0.8c0.2,0.2,0.6,0.3,1,0.3
			c0.4,0,0.8-0.1,1.2-0.3c0.3-0.2,0.6-0.5,0.8-0.8c0.1-0.3,0.2-0.6,0.2-1.1v-0.4c-0.4,0.2-1,0.3-1.9,0.4
			C241.3,70.9,241,71,240.8,71.1z"/>
		<path fill="none" d="M336,68.5c-0.4-0.4-0.8-0.6-1.3-0.6c-0.5,0-0.9,0.2-1.3,0.6c-0.4,0.4-0.5,1-0.5,1.8c0,0.9,0.2,1.5,0.5,1.9
			c0.4,0.4,0.8,0.6,1.3,0.6c0.5,0,1-0.2,1.3-0.6c0.4-0.4,0.5-1,0.5-1.9C336.6,69.5,336.4,68.9,336,68.5z"/>
		<path fill="none" d="M319.1,71.1c-0.2,0.1-0.3,0.2-0.5,0.4c-0.1,0.2-0.2,0.3-0.2,0.5c0,0.3,0.1,0.6,0.3,0.8c0.2,0.2,0.6,0.3,1,0.3
			c0.4,0,0.8-0.1,1.2-0.3c0.3-0.2,0.6-0.5,0.8-0.8c0.1-0.3,0.2-0.6,0.2-1.1v-0.4c-0.4,0.2-1,0.3-1.9,0.4
			C319.6,70.9,319.3,71,319.1,71.1z"/>
		<path fill="none" d="M301.1,71.1c-0.2,0.1-0.3,0.2-0.5,0.4c-0.1,0.2-0.2,0.3-0.2,0.5c0,0.3,0.1,0.6,0.3,0.8c0.2,0.2,0.6,0.3,1,0.3
			c0.4,0,0.8-0.1,1.2-0.3c0.3-0.2,0.6-0.5,0.8-0.8c0.1-0.3,0.2-0.6,0.2-1.1v-0.4c-0.4,0.2-1,0.3-1.9,0.4
			C301.6,70.9,301.3,71,301.1,71.1z"/>
		<path fill="none" d="M314.3,68.5c-0.4-0.4-0.8-0.6-1.3-0.6c-0.5,0-0.9,0.2-1.3,0.6c-0.3,0.4-0.5,1.1-0.5,2c0,0.9,0.2,1.5,0.5,1.9
			c0.4,0.4,0.8,0.6,1.3,0.6c0.5,0,0.9-0.2,1.3-0.6c0.3-0.4,0.5-1,0.5-1.9C314.8,69.6,314.6,68.9,314.3,68.5z"/>
		<path fill="none" d="M342.1,67.8c-0.5,0-1,0.2-1.3,0.5c-0.4,0.4-0.6,0.8-0.6,1.4h3.8c0-0.6-0.2-1-0.4-1.3
			C343.2,68.1,342.7,67.8,342.1,67.8z"/>
		<path fill="none" d="M268.8,67.8c-0.5,0-1,0.2-1.3,0.5c-0.4,0.4-0.6,0.8-0.6,1.4h3.8c-0.1-0.6-0.2-1-0.4-1.3
			C269.8,68.1,269.4,67.8,268.8,67.8z"/>
		<path fill="#231F20" d="M131.3,86.6v6.7h1.1v-3.5c0-0.5,0.1-0.9,0.2-1.3c0.1-0.3,0.2-0.5,0.4-0.6c0.2-0.2,0.4-0.2,0.7-0.2
			c0.3,0,0.6,0.1,0.8,0.2l0.4-1.1c-0.4-0.2-0.8-0.4-1.2-0.4c-0.3,0-0.5,0.1-0.7,0.2c-0.2,0.2-0.5,0.5-0.7,0.9v-1H131.3z"/>
		<rect x="185.5" y="86.6" fill="#231F20" width="1.1" height="6.7"/>
		<rect x="195.6" y="84" fill="#231F20" width="1.1" height="9.3"/>
		<path fill="#231F20" d="M45.4,89.4c-0.5,0.1-0.8,0.1-1,0.2c-0.3,0.1-0.6,0.2-0.8,0.4c-0.2,0.2-0.4,0.4-0.6,0.7
			c-0.2,0.3-0.2,0.6-0.2,0.9c0,0.6,0.2,1,0.6,1.4s1,0.5,1.7,0.5c0.4,0,0.9-0.1,1.3-0.2c0.4-0.1,0.8-0.4,1.2-0.8
			c0,0.3,0.1,0.6,0.2,0.8H49c-0.1-0.3-0.2-0.5-0.3-0.8c0-0.3-0.1-1-0.1-2V89c0-0.5,0-0.9-0.1-1.1c-0.1-0.3-0.2-0.6-0.4-0.8
			c-0.2-0.2-0.4-0.4-0.8-0.5c-0.4-0.1-0.8-0.2-1.4-0.2c-0.6,0-1.1,0.1-1.5,0.2c-0.4,0.2-0.8,0.4-1,0.7c-0.2,0.3-0.4,0.7-0.5,1.2
			l1.1,0.2c0.1-0.5,0.3-0.8,0.6-1c0.3-0.2,0.7-0.3,1.2-0.3c0.6,0,1,0.1,1.3,0.4c0.2,0.2,0.3,0.5,0.3,1c0,0,0,0.1,0,0.3
			C47,89.2,46.3,89.3,45.4,89.4z M47.4,90.3c0,0.5-0.1,0.9-0.2,1.1c-0.2,0.3-0.4,0.6-0.8,0.8c-0.3,0.2-0.7,0.3-1.2,0.3
			c-0.4,0-0.8-0.1-1-0.3C44.1,92,44,91.8,44,91.5c0-0.2,0.1-0.4,0.2-0.5c0.1-0.2,0.3-0.3,0.5-0.4c0.2-0.1,0.5-0.2,1-0.2
			c0.8-0.1,1.5-0.3,1.9-0.4V90.3z"/>
		<path fill="#231F20" d="M183.7,93.3V84h-1.1v3.3c-0.2-0.3-0.5-0.5-0.8-0.7c-0.3-0.2-0.7-0.3-1.1-0.3c-0.6,0-1.1,0.1-1.5,0.4
			c-0.4,0.3-0.8,0.7-1,1.3c-0.2,0.5-0.3,1.2-0.3,1.8c0,0.7,0.1,1.3,0.4,1.8c0.2,0.5,0.6,0.9,1,1.2c0.5,0.3,0.9,0.4,1.5,0.4
			c0.8,0,1.5-0.3,1.9-1v0.9H183.7z M182.1,91.9c-0.3,0.4-0.8,0.6-1.3,0.6c-0.5,0-0.9-0.2-1.3-0.6s-0.5-1.1-0.5-1.9
			c0-0.9,0.2-1.5,0.5-2c0.3-0.4,0.8-0.6,1.3-0.6c0.5,0,1,0.2,1.3,0.6c0.4,0.4,0.5,1.1,0.5,2C182.7,90.9,182.5,91.5,182.1,91.9z"/>
		<path fill="#231F20" d="M190.7,89.4c-0.5,0.1-0.8,0.1-1,0.2c-0.3,0.1-0.6,0.2-0.8,0.4c-0.2,0.2-0.4,0.4-0.6,0.7
			c-0.1,0.3-0.2,0.6-0.2,0.9c0,0.6,0.2,1,0.6,1.4s1,0.5,1.7,0.5c0.4,0,0.9-0.1,1.3-0.2c0.4-0.1,0.8-0.4,1.2-0.8
			c0,0.3,0.1,0.6,0.2,0.8h1.2c-0.1-0.3-0.2-0.5-0.3-0.8c0-0.3-0.1-1-0.1-2V89c0-0.5,0-0.9-0.1-1.1c-0.1-0.3-0.2-0.6-0.4-0.8
			c-0.2-0.2-0.4-0.4-0.8-0.5c-0.4-0.1-0.8-0.2-1.4-0.2c-0.6,0-1.1,0.1-1.5,0.2c-0.4,0.2-0.8,0.4-1,0.7c-0.2,0.3-0.4,0.7-0.5,1.2
			l1.1,0.2c0.1-0.5,0.3-0.8,0.6-1c0.3-0.2,0.7-0.3,1.2-0.3c0.6,0,1,0.1,1.3,0.4c0.2,0.2,0.3,0.5,0.3,1c0,0,0,0.1,0,0.3
			C192.3,89.2,191.6,89.3,190.7,89.4z M192.7,90.3c0,0.5-0.1,0.9-0.2,1.1c-0.2,0.3-0.4,0.6-0.8,0.8c-0.3,0.2-0.7,0.3-1.2,0.3
			c-0.4,0-0.8-0.1-1-0.3c-0.2-0.2-0.3-0.5-0.3-0.8c0-0.2,0.1-0.4,0.2-0.5c0.1-0.2,0.3-0.3,0.5-0.4c0.2-0.1,0.5-0.2,1-0.2
			c0.8-0.1,1.5-0.3,1.9-0.4V90.3z"/>
		<path fill="#231F20" d="M128,92.7c0.1,0.2,0.3,0.4,0.5,0.5c0.2,0.1,0.5,0.2,1,0.2c0.3,0,0.5,0,0.9-0.1l-0.2-1c-0.2,0-0.4,0-0.5,0
			c-0.2,0-0.3,0-0.4-0.1s-0.2-0.1-0.2-0.2c0-0.1-0.1-0.3-0.1-0.6v-3.9h1.1v-0.9H129v-2.4l-1.1,0.7v1.7h-0.8v0.9h0.8v3.9
			C127.9,92,127.9,92.5,128,92.7z"/>
		<path fill="#231F20" d="M61.5,92.5c0.5,0.7,1.1,1,1.9,1c0.8,0,1.5-0.3,2.1-0.9c0.6-0.6,0.9-1.5,0.9-2.7c0-0.5-0.1-0.9-0.2-1.4
			c-0.1-0.4-0.3-0.8-0.6-1.1c-0.2-0.3-0.5-0.5-0.9-0.7c-0.4-0.2-0.8-0.2-1.2-0.2c-0.7,0-1.4,0.3-1.8,0.9V84h-1.1v9.3h1.1V92.5z
			 M62.1,88c0.4-0.4,0.8-0.7,1.3-0.7c0.5,0,0.9,0.2,1.3,0.6c0.3,0.4,0.5,1.1,0.5,1.9c0,0.9-0.2,1.5-0.5,1.9
			c-0.4,0.4-0.8,0.7-1.3,0.7c-0.6,0-1.1-0.3-1.5-0.9c-0.2-0.4-0.3-0.9-0.3-1.8C61.5,89.1,61.7,88.4,62.1,88z"/>
		<rect x="185.5" y="84" fill="#231F20" width="1.1" height="1.3"/>
		<path fill="#231F20" d="M213.3,93.3V84h-0.7c-0.2,0.4-0.5,0.8-1,1.2c-0.5,0.4-1,0.8-1.7,1.1v1.1c0.4-0.1,0.8-0.3,1.2-0.6
			c0.4-0.3,0.8-0.5,1.1-0.8v7.3H213.3z"/>
		<path fill="#231F20" d="M51.8,94.4c-0.1,0.2-0.2,0.3-0.4,0.4c-0.2,0.1-0.4,0.1-0.6,0.1c-0.2,0-0.4,0-0.7-0.1l0.1,1.1
			c0.3,0.1,0.5,0.1,0.7,0.1c0.4,0,0.7-0.1,0.9-0.3c0.3-0.2,0.5-0.5,0.7-0.8c0.2-0.3,0.4-0.8,0.6-1.5l2.6-6.9h-1.1l-1.4,3.9
			c-0.2,0.5-0.3,1-0.5,1.5c-0.1-0.5-0.3-1.1-0.5-1.6L51,86.6h-1.2l2.6,6.8c0,0.1-0.1,0.2-0.1,0.3C52,94,51.9,94.3,51.8,94.4z"/>
		<path fill="#231F20" d="M120.9,87.3c-0.6,0.6-0.9,1.5-0.9,2.6c0,1.1,0.3,1.9,0.9,2.6c0.6,0.6,1.4,0.9,2.3,0.9
			c0.8,0,1.4-0.2,1.9-0.6c0.5-0.4,0.8-0.9,1-1.6l-1.2-0.1c-0.2,0.5-0.4,0.8-0.7,1.1c-0.3,0.2-0.7,0.3-1.1,0.3c-0.6,0-1-0.2-1.4-0.6
			c-0.4-0.4-0.6-1-0.6-1.7h5c0-0.1,0-0.2,0-0.3c0-1.1-0.3-2-0.9-2.6c-0.6-0.6-1.3-0.9-2.2-0.9C122.3,86.4,121.5,86.7,120.9,87.3z
			 M124.7,88c0.2,0.3,0.4,0.7,0.4,1.3h-3.8c0-0.6,0.2-1.1,0.6-1.4c0.4-0.4,0.8-0.5,1.3-0.5C123.8,87.3,124.3,87.6,124.7,88z"/>
		<path fill="#231F20" d="M113.9,86.7c-0.3-0.2-0.7-0.3-1.2-0.3c-0.4,0-0.8,0.1-1.2,0.3c-0.4,0.2-0.6,0.5-0.8,0.8v-0.9h-1v6.7h1.1
			v-3.5c0-0.6,0.1-1.1,0.2-1.4c0.1-0.3,0.3-0.6,0.6-0.7c0.3-0.2,0.6-0.3,0.9-0.3c0.4,0,0.7,0.1,0.9,0.4c0.2,0.3,0.3,0.6,0.3,1.1v4.4
			h1.1v-3.9c0-0.7,0.2-1.2,0.5-1.5c0.3-0.3,0.7-0.5,1.2-0.5c0.3,0,0.5,0.1,0.7,0.2c0.2,0.1,0.3,0.3,0.4,0.5c0.1,0.2,0.1,0.5,0.1,1
			v4.2h1.1v-4.6c0-0.8-0.2-1.3-0.5-1.7c-0.4-0.4-0.9-0.6-1.5-0.6c-0.9,0-1.5,0.4-2.1,1.2C114.5,87.2,114.2,86.9,113.9,86.7z"/>
		<rect x="223.2" y="92" fill="#231F20" width="1.3" height="1.3"/>
		<path fill="#231F20" d="M202.6,84.8c-0.6,0.6-0.8,1.3-0.8,2.3c0,0.9,0.3,1.7,0.8,2.2c0.5,0.6,1.2,0.8,2,0.8c0.5,0,0.9-0.1,1.3-0.3
			c0.4-0.2,0.7-0.5,0.9-0.9c0,0.1,0,0.2,0,0.2c0,0.5-0.1,0.9-0.2,1.4c-0.1,0.5-0.3,0.8-0.4,1.1c-0.2,0.3-0.4,0.5-0.7,0.6
			c-0.3,0.2-0.6,0.2-0.9,0.2c-0.4,0-0.7-0.1-1-0.3c-0.3-0.2-0.4-0.6-0.5-1.1l-1.1,0.1c0.1,0.7,0.4,1.3,0.8,1.7s1.1,0.6,1.8,0.6
			c0.7,0,1.3-0.2,1.8-0.6c0.5-0.4,0.9-0.9,1.2-1.6c0.3-0.7,0.4-1.7,0.4-2.8c0-1.1-0.1-2-0.4-2.6c-0.3-0.6-0.6-1.1-1.1-1.4
			c-0.5-0.3-1.1-0.5-1.7-0.5C203.9,84,203.2,84.2,202.6,84.8z M206.1,85.5c0.3,0.4,0.5,0.9,0.5,1.6s-0.2,1.2-0.5,1.5
			c-0.3,0.4-0.8,0.6-1.3,0.6c-0.5,0-1-0.2-1.3-0.6c-0.4-0.4-0.5-0.9-0.5-1.4c0-0.7,0.2-1.2,0.6-1.6c0.4-0.4,0.8-0.6,1.3-0.6
			C205.4,84.9,205.8,85.1,206.1,85.5z"/>
		<path fill="#231F20" d="M145.3,92.5c-0.5,0-0.9-0.1-1.2-0.4c-0.3-0.2-0.5-0.6-0.5-1l-1.1,0.2c0.1,0.7,0.4,1.3,0.9,1.6
			c0.5,0.4,1.1,0.5,2,0.5c0.5,0,1-0.1,1.4-0.3c0.4-0.2,0.7-0.4,1-0.8c0.2-0.3,0.3-0.7,0.3-1.1c0-0.4-0.1-0.7-0.3-1
			c-0.2-0.3-0.4-0.5-0.8-0.6c-0.3-0.1-0.9-0.3-1.7-0.5c-0.6-0.2-0.9-0.2-1-0.3c-0.2-0.1-0.3-0.2-0.4-0.3c-0.1-0.1-0.1-0.3-0.1-0.4
			c0-0.2,0.1-0.4,0.3-0.6c0.2-0.2,0.6-0.3,1.1-0.3c0.4,0,0.8,0.1,1,0.3c0.2,0.2,0.4,0.5,0.4,0.8l1.1-0.2c-0.1-0.4-0.2-0.8-0.4-1
			c-0.2-0.3-0.5-0.5-0.9-0.6c-0.4-0.2-0.9-0.2-1.4-0.2c-0.4,0-0.7,0-1,0.1s-0.5,0.2-0.7,0.3c-0.2,0.2-0.4,0.4-0.6,0.6
			c-0.1,0.3-0.2,0.5-0.2,0.8c0,0.3,0.1,0.6,0.3,0.9c0.2,0.3,0.4,0.5,0.7,0.6c0.3,0.2,0.9,0.3,1.7,0.5c0.6,0.2,1,0.3,1.2,0.4
			c0.2,0.1,0.3,0.4,0.3,0.6c0,0.3-0.1,0.5-0.4,0.8C146.2,92.4,145.8,92.5,145.3,92.5z"/>
		<path fill="#231F20" d="M35.7,92.1c-0.4,0.1-0.8,0.2-1.2,0.2c-0.5,0-1-0.1-1.4-0.3c-0.4-0.2-0.7-0.4-0.9-0.7
			c-0.2-0.3-0.3-0.7-0.4-1.1l-1.2,0.1c0,0.6,0.2,1.2,0.5,1.7c0.3,0.5,0.8,0.9,1.3,1.1c0.6,0.2,1.3,0.4,2.1,0.4
			c0.7,0,1.3-0.1,1.8-0.4c0.5-0.2,0.9-0.6,1.2-1c0.3-0.4,0.4-0.9,0.4-1.4c0-0.5-0.1-0.9-0.4-1.3c-0.3-0.4-0.7-0.7-1.2-0.9
			c-0.4-0.2-1.1-0.4-2.1-0.6c-1-0.2-1.6-0.4-1.9-0.7c-0.2-0.2-0.4-0.5-0.4-0.8c0-0.4,0.2-0.7,0.5-1c0.3-0.3,0.9-0.4,1.6-0.4
			c0.7,0,1.3,0.2,1.6,0.5c0.4,0.3,0.6,0.7,0.6,1.3l1.2-0.1c0-0.5-0.2-1-0.5-1.5c-0.3-0.4-0.7-0.8-1.2-1c-0.5-0.2-1.1-0.3-1.8-0.3
			c-0.6,0-1.2,0.1-1.7,0.3c-0.5,0.2-0.9,0.5-1.2,0.9c-0.3,0.4-0.4,0.8-0.4,1.3c0,0.4,0.1,0.8,0.3,1.2c0.2,0.3,0.5,0.6,1,0.9
			c0.3,0.2,0.9,0.4,1.8,0.6c0.9,0.2,1.4,0.4,1.7,0.5c0.4,0.1,0.7,0.3,0.8,0.5c0.2,0.2,0.3,0.5,0.3,0.8c0,0.3-0.1,0.6-0.3,0.8
			C36.4,91.8,36.1,92,35.7,92.1z"/>
		<path fill="#231F20" d="M172.9,93.3V84h-1.1v3.3c-0.2-0.3-0.5-0.5-0.8-0.7c-0.3-0.2-0.7-0.3-1.1-0.3c-0.6,0-1.1,0.1-1.5,0.4
			c-0.4,0.3-0.8,0.7-1,1.3c-0.2,0.5-0.3,1.2-0.3,1.8c0,0.7,0.1,1.3,0.4,1.8c0.2,0.5,0.6,0.9,1,1.2c0.5,0.3,0.9,0.4,1.5,0.4
			c0.8,0,1.5-0.3,1.9-1v0.9H172.9z M171.3,91.9c-0.3,0.4-0.8,0.6-1.3,0.6c-0.5,0-0.9-0.2-1.3-0.6s-0.5-1.1-0.5-1.9
			c0-0.9,0.2-1.5,0.5-2c0.3-0.4,0.8-0.6,1.3-0.6c0.5,0,1,0.2,1.3,0.6c0.4,0.4,0.5,1.1,0.5,2C171.8,90.9,171.6,91.5,171.3,91.9z"/>
		<path fill="#231F20" d="M160.2,86.6v6.7h1.1v-3.7c0-0.9,0.2-1.4,0.5-1.8c0.4-0.3,0.8-0.5,1.3-0.5c0.3,0,0.6,0.1,0.8,0.2
			c0.2,0.1,0.4,0.3,0.5,0.6c0.1,0.2,0.1,0.6,0.1,1v4.1h1.1v-4.1c0-0.5,0-0.9-0.1-1.1c-0.1-0.3-0.2-0.6-0.4-0.8s-0.4-0.4-0.8-0.6
			s-0.7-0.2-1.1-0.2c-0.9,0-1.7,0.4-2.1,1.1v-1H160.2z"/>
		<path fill="#231F20" d="M70,89.4c-0.5,0.1-0.8,0.1-1,0.2c-0.3,0.1-0.6,0.2-0.8,0.4c-0.2,0.2-0.4,0.4-0.6,0.7
			c-0.2,0.3-0.2,0.6-0.2,0.9c0,0.6,0.2,1,0.6,1.4c0.4,0.4,1,0.5,1.7,0.5c0.4,0,0.9-0.1,1.3-0.2c0.4-0.1,0.8-0.4,1.2-0.8
			c0,0.3,0.1,0.6,0.2,0.8h1.2c-0.1-0.3-0.2-0.5-0.3-0.8c0-0.3-0.1-1-0.1-2V89c0-0.5,0-0.9-0.1-1.1c-0.1-0.3-0.2-0.6-0.4-0.8
			c-0.2-0.2-0.4-0.4-0.8-0.5c-0.4-0.1-0.8-0.2-1.4-0.2c-0.6,0-1.1,0.1-1.5,0.2c-0.4,0.2-0.8,0.4-1,0.7c-0.2,0.3-0.4,0.7-0.5,1.2
			l1.1,0.2c0.1-0.5,0.3-0.8,0.6-1c0.3-0.2,0.7-0.3,1.2-0.3c0.6,0,1,0.1,1.3,0.4c0.2,0.2,0.3,0.5,0.3,1c0,0,0,0.1,0,0.3
			C71.6,89.2,70.9,89.3,70,89.4z M72,90.3c0,0.5-0.1,0.9-0.2,1.1c-0.2,0.3-0.4,0.6-0.8,0.8c-0.3,0.2-0.7,0.3-1.2,0.3
			c-0.4,0-0.8-0.1-1-0.3c-0.2-0.2-0.3-0.5-0.3-0.8c0-0.2,0.1-0.4,0.2-0.5c0.1-0.2,0.3-0.3,0.4-0.4c0.2-0.1,0.5-0.2,1-0.2
			c0.8-0.1,1.5-0.3,1.9-0.4V90.3z"/>
		<path fill="#231F20" d="M136.1,92.5c0.6,0.6,1.4,0.9,2.3,0.9c0.8,0,1.4-0.2,1.9-0.6c0.5-0.4,0.8-0.9,1-1.6l-1.2-0.1
			c-0.2,0.5-0.4,0.8-0.7,1.1c-0.3,0.2-0.7,0.3-1.1,0.3c-0.6,0-1-0.2-1.4-0.6c-0.4-0.4-0.6-1-0.6-1.7h5c0-0.1,0-0.2,0-0.3
			c0-1.1-0.3-2-0.9-2.6c-0.6-0.6-1.3-0.9-2.2-0.9c-0.9,0-1.7,0.3-2.3,0.9c-0.6,0.6-0.9,1.5-0.9,2.6
			C135.2,91.1,135.5,91.9,136.1,92.5z M137.1,87.9c0.4-0.4,0.8-0.5,1.3-0.5c0.6,0,1.1,0.2,1.4,0.7c0.2,0.3,0.4,0.7,0.4,1.3h-3.8
			C136.5,88.7,136.7,88.2,137.1,87.9z"/>
		<path fill="#231F20" d="M77.7,86.4c-0.6,0-1.1,0.1-1.6,0.4S75.2,87.5,75,88c-0.2,0.5-0.4,1.2-0.4,1.9c0,1.1,0.3,2,0.8,2.6
			c0.6,0.6,1.3,0.9,2.2,0.9c0.7,0,1.4-0.2,1.9-0.7c0.5-0.4,0.8-1,0.9-1.8l-1.1-0.1c-0.1,0.6-0.3,1-0.6,1.3c-0.3,0.3-0.7,0.4-1.1,0.4
			c-0.6,0-1-0.2-1.4-0.6c-0.3-0.4-0.5-1.1-0.5-2c0-0.9,0.2-1.5,0.5-2c0.4-0.4,0.8-0.6,1.4-0.6c0.4,0,0.7,0.1,1,0.3
			c0.3,0.2,0.5,0.6,0.6,1l1.1-0.2c-0.1-0.7-0.4-1.2-0.9-1.6C79,86.6,78.4,86.4,77.7,86.4z"/>
		<path fill="#231F20" d="M95.5,93.3V84h-0.7c-0.2,0.4-0.5,0.8-1,1.2c-0.5,0.4-1,0.8-1.7,1.1v1.1c0.4-0.1,0.8-0.3,1.2-0.6
			c0.4-0.3,0.8-0.5,1.1-0.8v7.3H95.5z"/>
		<path fill="#231F20" d="M158.4,87.9c-0.1-0.3-0.2-0.6-0.4-0.8c-0.2-0.2-0.4-0.4-0.8-0.5c-0.4-0.1-0.8-0.2-1.4-0.2
			c-0.6,0-1.1,0.1-1.5,0.2c-0.4,0.2-0.8,0.4-1,0.7c-0.2,0.3-0.4,0.7-0.5,1.2l1.1,0.2c0.1-0.5,0.3-0.8,0.6-1c0.3-0.2,0.7-0.3,1.2-0.3
			c0.6,0,1,0.1,1.3,0.4c0.2,0.2,0.3,0.5,0.3,1c0,0,0,0.1,0,0.3c-0.4,0.2-1.1,0.3-2,0.4c-0.5,0.1-0.8,0.1-1,0.2
			c-0.3,0.1-0.6,0.2-0.8,0.4c-0.2,0.2-0.4,0.4-0.6,0.7s-0.2,0.6-0.2,0.9c0,0.6,0.2,1,0.6,1.4c0.4,0.4,1,0.5,1.7,0.5
			c0.4,0,0.9-0.1,1.3-0.2c0.4-0.1,0.8-0.4,1.2-0.8c0,0.3,0.1,0.6,0.2,0.8h1.2c-0.1-0.3-0.2-0.5-0.3-0.8c0-0.3-0.1-1-0.1-2V89
			C158.4,88.4,158.4,88.1,158.4,87.9z M157.3,90.3c0,0.5-0.1,0.9-0.2,1.1c-0.2,0.3-0.4,0.6-0.8,0.8c-0.3,0.2-0.7,0.3-1.2,0.3
			c-0.4,0-0.8-0.1-1-0.3c-0.2-0.2-0.3-0.5-0.3-0.8c0-0.2,0.1-0.4,0.2-0.5c0.1-0.2,0.3-0.3,0.5-0.4c0.2-0.1,0.5-0.2,1-0.2
			c0.8-0.1,1.5-0.3,1.9-0.4V90.3z"/>
		<path fill="#231F20" d="M103.7,85.1c-0.2-0.4-0.6-0.7-0.9-0.9c-0.4-0.2-0.8-0.3-1.3-0.3c-0.7,0-1.2,0.2-1.7,0.5
			c-0.4,0.4-0.8,0.9-1,1.6c-0.2,0.7-0.3,1.6-0.3,2.7c0,1.7,0.3,3,0.9,3.8c0.5,0.6,1.2,1,2.1,1c0.7,0,1.2-0.2,1.7-0.5
			c0.4-0.4,0.8-0.9,1-1.6c0.2-0.7,0.3-1.6,0.3-2.6c0-0.9-0.1-1.7-0.2-2.2C104.2,86,104,85.5,103.7,85.1z M102.8,91.8
			c-0.4,0.5-0.8,0.8-1.3,0.8s-1-0.3-1.3-0.8c-0.4-0.5-0.5-1.5-0.5-3c0-1.5,0.2-2.6,0.6-3.1c0.3-0.4,0.7-0.7,1.3-0.7
			c0.5,0,1,0.3,1.3,0.8c0.4,0.5,0.5,1.5,0.5,3.1C103.4,90.2,103.2,91.2,102.8,91.8z"/>
		<path fill="#231F20" d="M219.6,93.3V84h-0.7c-0.2,0.4-0.5,0.8-1,1.2c-0.5,0.4-1,0.8-1.7,1.1v1.1c0.4-0.1,0.8-0.3,1.2-0.6
			c0.4-0.3,0.8-0.5,1.1-0.8v7.3H219.6z"/>
		<polygon fill="#231F20" points="85.3,86.6 82.6,89.3 82.6,84 81.4,84 81.4,93.3 82.6,93.3 82.6,90.6 83.4,89.9 85.6,93.3 87,93.3 
			84.2,89.1 86.8,86.6 		"/>
		<path fill="#231F20" d="M39.9,92.7c0.1,0.2,0.3,0.4,0.5,0.5c0.2,0.1,0.5,0.2,1,0.2c0.3,0,0.5,0,0.9-0.1l-0.2-1c-0.2,0-0.4,0-0.5,0
			c-0.2,0-0.3,0-0.4-0.1S41,92.1,40.9,92c0-0.1-0.1-0.3-0.1-0.6v-3.9H42v-0.9h-1.1v-2.4l-1.1,0.7v1.7h-0.8v0.9h0.8v3.9
			C39.7,92,39.8,92.5,39.9,92.7z"/>
		<path fill="#231F20" d="M139.7,67.1v6.7h1.1v-3.5c0-0.5,0.1-0.9,0.2-1.3c0.1-0.3,0.2-0.5,0.4-0.6c0.2-0.2,0.4-0.2,0.7-0.2
			c0.3,0,0.6,0.1,0.8,0.2l0.4-1.1c-0.4-0.2-0.8-0.4-1.2-0.4c-0.3,0-0.5,0.1-0.7,0.2c-0.2,0.2-0.5,0.5-0.7,0.9v-1H139.7z"/>
		<path fill="#231F20" d="M136.3,67.1h-0.8v0.9h0.8v3.9c0,0.7,0,1.1,0.1,1.3c0.1,0.2,0.3,0.4,0.5,0.5c0.2,0.1,0.6,0.2,1,0.2
			c0.3,0,0.5,0,0.9-0.1l-0.2-1c-0.2,0-0.4,0-0.5,0c-0.2,0-0.3,0-0.4-0.1s-0.2-0.1-0.2-0.2c0-0.1-0.1-0.3-0.1-0.6v-3.9h1.1v-0.9h-1.1
			v-2.4l-1.1,0.7V67.1z"/>
		<path fill="#231F20" d="M258.8,67.1v6.7h1.1v-3.7c0-0.9,0.2-1.4,0.5-1.8c0.4-0.3,0.8-0.5,1.3-0.5c0.3,0,0.6,0.1,0.8,0.2
			c0.2,0.1,0.4,0.3,0.5,0.6c0.1,0.2,0.1,0.6,0.1,1v4.1h1.1v-4.1c0-0.5,0-0.9-0.1-1.1c-0.1-0.3-0.2-0.6-0.4-0.8
			c-0.2-0.2-0.4-0.4-0.8-0.6c-0.3-0.1-0.7-0.2-1.1-0.2c-0.9,0-1.6,0.4-2.1,1.1v-1H258.8z"/>
		<path fill="#231F20" d="M144.6,67.8c-0.6,0.6-0.9,1.5-0.9,2.6c0,1.1,0.3,1.9,0.9,2.6c0.6,0.6,1.4,0.9,2.3,0.9
			c0.8,0,1.4-0.2,1.9-0.6c0.5-0.4,0.8-0.9,1-1.6l-1.2-0.1c-0.2,0.5-0.4,0.8-0.7,1.1c-0.3,0.2-0.7,0.3-1.1,0.3c-0.6,0-1-0.2-1.4-0.6
			c-0.4-0.4-0.6-1-0.6-1.7h5c0-0.1,0-0.2,0-0.3c0-1.1-0.3-2-0.9-2.6c-0.6-0.6-1.3-0.9-2.2-0.9C145.9,66.9,145.2,67.2,144.6,67.8z
			 M148.3,68.5c0.2,0.3,0.4,0.7,0.4,1.3h-3.8c0-0.6,0.2-1.1,0.6-1.4c0.4-0.4,0.8-0.5,1.3-0.5C147.4,67.8,147.9,68.1,148.3,68.5z"/>
		<rect x="255.9" y="64.5" fill="#231F20" width="1.1" height="1.3"/>
		<path fill="#231F20" d="M174.8,73.8v-4.1c0-0.5,0-0.9-0.1-1.1c-0.1-0.3-0.2-0.6-0.4-0.8c-0.2-0.2-0.4-0.4-0.8-0.6
			c-0.3-0.1-0.7-0.2-1.1-0.2c-0.9,0-1.7,0.4-2.1,1.1v-1h-1v6.7h1.1v-3.7c0-0.9,0.2-1.4,0.5-1.8c0.4-0.3,0.8-0.5,1.3-0.5
			c0.3,0,0.6,0.1,0.8,0.2c0.2,0.1,0.4,0.3,0.5,0.6c0.1,0.2,0.1,0.6,0.1,1v4.1H174.8z"/>
		<path fill="#231F20" d="M107.4,69.9c-0.5,0.1-0.8,0.1-1,0.2c-0.3,0.1-0.6,0.2-0.8,0.4c-0.2,0.2-0.4,0.4-0.6,0.7
			c-0.2,0.3-0.2,0.6-0.2,0.9c0,0.6,0.2,1,0.6,1.4c0.4,0.4,1,0.5,1.7,0.5c0.4,0,0.9-0.1,1.3-0.2c0.4-0.1,0.8-0.4,1.2-0.8
			c0,0.3,0.1,0.6,0.2,0.8h1.2c-0.1-0.3-0.2-0.5-0.3-0.8c0-0.3-0.1-1-0.1-2v-1.5c0-0.5,0-0.9-0.1-1.1c-0.1-0.3-0.2-0.6-0.4-0.8
			c-0.2-0.2-0.4-0.4-0.8-0.5c-0.4-0.1-0.8-0.2-1.4-0.2c-0.6,0-1.1,0.1-1.5,0.2c-0.4,0.2-0.8,0.4-1,0.7c-0.2,0.3-0.4,0.7-0.5,1.2
			l1.1,0.2c0.1-0.5,0.3-0.8,0.6-1c0.3-0.2,0.7-0.3,1.2-0.3c0.6,0,1,0.1,1.3,0.4c0.2,0.2,0.3,0.5,0.3,1c0,0,0,0.1,0,0.3
			C109,69.7,108.3,69.8,107.4,69.9z M109.4,70.8c0,0.5-0.1,0.9-0.2,1.1c-0.2,0.3-0.4,0.6-0.8,0.8c-0.3,0.2-0.7,0.3-1.2,0.3
			c-0.4,0-0.8-0.1-1-0.3c-0.2-0.2-0.3-0.5-0.3-0.8c0-0.2,0.1-0.4,0.2-0.5c0.1-0.2,0.3-0.3,0.5-0.4c0.2-0.1,0.5-0.2,1-0.2
			c0.8-0.1,1.5-0.3,1.9-0.4V70.8z"/>
		<path fill="#231F20" d="M271.8,70.4c0-1.1-0.3-2-0.9-2.6c-0.6-0.6-1.3-0.9-2.2-0.9c-0.9,0-1.7,0.3-2.3,0.9
			c-0.6,0.6-0.9,1.5-0.9,2.6c0,1.1,0.3,1.9,0.9,2.6c0.6,0.6,1.4,0.9,2.3,0.9c0.8,0,1.4-0.2,1.9-0.6c0.5-0.4,0.8-0.9,1-1.6l-1.2-0.1
			c-0.2,0.5-0.4,0.8-0.7,1.1c-0.3,0.2-0.7,0.3-1.1,0.3c-0.6,0-1-0.2-1.4-0.6c-0.4-0.4-0.6-1-0.6-1.7h5
			C271.8,70.6,271.8,70.5,271.8,70.4z M266.9,69.8c0-0.6,0.2-1.1,0.6-1.4c0.4-0.4,0.8-0.5,1.3-0.5c0.6,0,1.1,0.2,1.4,0.7
			c0.2,0.3,0.4,0.7,0.4,1.3H266.9z"/>
		<rect x="280.4" y="67.1" fill="#231F20" width="1.1" height="6.7"/>
		<rect x="253" y="64.5" fill="#231F20" width="1.1" height="9.3"/>
		<rect x="112.3" y="64.5" fill="#231F20" width="1.1" height="9.3"/>
		<path fill="#231F20" d="M102.5,64.6c-0.3,0.2-0.5,0.4-0.6,0.7c-0.1,0.2-0.1,0.6-0.1,1v0.7h-1v0.9h1v5.9h1.1v-5.9h1.3v-0.9h-1.3
			v-0.6c0-0.4,0.1-0.7,0.2-0.8c0.1-0.1,0.4-0.2,0.7-0.2c0.2,0,0.4,0,0.7,0.1l0.2-1c-0.4-0.1-0.7-0.1-1.1-0.1
			C103.1,64.3,102.7,64.4,102.5,64.6z"/>
		<path fill="#231F20" d="M150.9,70.5c0,1.1,0.3,1.9,0.9,2.6c0.6,0.6,1.4,0.9,2.3,0.9c0.8,0,1.4-0.2,1.9-0.6c0.5-0.4,0.8-0.9,1-1.6
			l-1.2-0.1c-0.2,0.5-0.4,0.8-0.7,1.1c-0.3,0.2-0.7,0.3-1.1,0.3c-0.6,0-1-0.2-1.4-0.6c-0.4-0.4-0.6-1-0.6-1.7h5c0-0.1,0-0.2,0-0.3
			c0-1.1-0.3-2-0.9-2.6c-0.6-0.6-1.3-0.9-2.2-0.9c-0.9,0-1.7,0.3-2.3,0.9C151.2,68.5,150.9,69.4,150.9,70.5z M152.8,68.4
			c0.4-0.4,0.8-0.5,1.3-0.5c0.6,0,1.1,0.2,1.4,0.7c0.2,0.3,0.4,0.7,0.4,1.3h-3.8C152.2,69.2,152.4,68.7,152.8,68.4z"/>
		<path fill="#231F20" d="M273.5,75.2l0.3,0.5c0.4-0.2,0.6-0.4,0.8-0.7s0.3-0.7,0.3-1.2v-1.3h-1.3v1.3h0.6c0,0.4-0.1,0.7-0.2,0.9
			S273.7,75,273.5,75.2z"/>
		<rect x="255.9" y="67.1" fill="#231F20" width="1.1" height="6.7"/>
		<path fill="#231F20" d="M218.3,67.8c0.4,0,0.7,0.1,1,0.3c0.3,0.2,0.5,0.6,0.6,1l1.1-0.2c-0.1-0.7-0.4-1.2-0.9-1.6
			c-0.5-0.4-1.1-0.6-1.8-0.6c-0.6,0-1.1,0.1-1.6,0.4c-0.5,0.3-0.9,0.7-1.1,1.2c-0.2,0.5-0.4,1.2-0.4,1.9c0,1.1,0.3,2,0.8,2.6
			c0.6,0.6,1.3,0.9,2.2,0.9c0.7,0,1.4-0.2,1.9-0.7c0.5-0.4,0.8-1,0.9-1.8l-1.1-0.1c-0.1,0.6-0.3,1-0.6,1.3c-0.3,0.3-0.7,0.4-1.1,0.4
			c-0.6,0-1-0.2-1.4-0.6c-0.3-0.4-0.5-1.1-0.5-2c0-0.9,0.2-1.5,0.5-2C217.2,68.1,217.7,67.8,218.3,67.8z"/>
		<path fill="#231F20" d="M222.2,65.4v1.7h-0.8v0.9h0.8v3.9c0,0.7,0,1.1,0.1,1.3c0.1,0.2,0.3,0.4,0.5,0.5c0.2,0.1,0.5,0.2,1,0.2
			c0.3,0,0.5,0,0.9-0.1l-0.2-1c-0.2,0-0.4,0-0.5,0c-0.2,0-0.3,0-0.4-0.1s-0.2-0.1-0.2-0.2c0-0.1-0.1-0.3-0.1-0.6v-3.9h1.1v-0.9h-1.1
			v-2.4L222.2,65.4z"/>
		<path fill="#231F20" d="M225.6,67.1v6.7h1.1v-3.5c0-0.5,0.1-0.9,0.2-1.3c0.1-0.3,0.2-0.5,0.4-0.6c0.2-0.2,0.4-0.2,0.7-0.2
			c0.3,0,0.6,0.1,0.8,0.2l0.4-1.1c-0.4-0.2-0.8-0.4-1.2-0.4c-0.3,0-0.5,0.1-0.7,0.2c-0.2,0.2-0.5,0.5-0.7,0.9v-1H225.6z"/>
		<rect x="229.9" y="67.1" fill="#231F20" width="1.1" height="6.7"/>
		<rect x="205.4" y="64.5" fill="#231F20" width="1.1" height="9.3"/>
		<path fill="#231F20" d="M161.7,70.4c0,1.1,0.3,2,0.9,2.6c0.6,0.6,1.3,0.9,2.3,0.9c0.6,0,1.1-0.1,1.6-0.4c0.5-0.3,0.9-0.7,1.1-1.2
			c0.3-0.5,0.4-1.2,0.4-2c0-1.1-0.3-1.9-0.9-2.5c-0.6-0.6-1.3-0.9-2.3-0.9c-0.8,0-1.5,0.2-2.1,0.7C162,68.3,161.7,69.2,161.7,70.4z
			 M163.4,68.5c0.4-0.4,0.9-0.6,1.4-0.6c0.6,0,1,0.2,1.4,0.6c0.4,0.4,0.6,1.1,0.6,1.9c0,0.9-0.2,1.5-0.6,2c-0.4,0.4-0.8,0.6-1.4,0.6
			c-0.6,0-1-0.2-1.4-0.6c-0.4-0.4-0.6-1.1-0.6-1.9C162.8,69.6,163,68.9,163.4,68.5z"/>
		<path fill="#231F20" d="M200.9,66.9c-0.9,0-1.7,0.3-2.3,0.9c-0.6,0.6-0.9,1.5-0.9,2.6c0,1.1,0.3,1.9,0.9,2.6
			c0.6,0.6,1.4,0.9,2.3,0.9c0.8,0,1.4-0.2,1.9-0.6c0.5-0.4,0.8-0.9,1-1.6l-1.2-0.1c-0.2,0.5-0.4,0.8-0.7,1.1
			c-0.3,0.2-0.7,0.3-1.1,0.3c-0.6,0-1-0.2-1.4-0.6c-0.4-0.4-0.6-1-0.6-1.7h5c0-0.1,0-0.2,0-0.3c0-1.1-0.3-2-0.9-2.6
			C202.6,67.2,201.8,66.9,200.9,66.9z M199,69.8c0-0.6,0.2-1.1,0.6-1.4c0.4-0.4,0.8-0.5,1.3-0.5c0.6,0,1.1,0.2,1.4,0.7
			c0.2,0.3,0.4,0.7,0.4,1.3H199z"/>
		<path fill="#231F20" d="M241.6,69.9c-0.5,0.1-0.8,0.1-1,0.2c-0.3,0.1-0.6,0.2-0.8,0.4c-0.2,0.2-0.4,0.4-0.6,0.7
			c-0.2,0.3-0.2,0.6-0.2,0.9c0,0.6,0.2,1,0.6,1.4c0.4,0.4,1,0.5,1.7,0.5c0.4,0,0.9-0.1,1.3-0.2c0.4-0.1,0.8-0.4,1.2-0.8
			c0,0.3,0.1,0.6,0.2,0.8h1.2c-0.1-0.3-0.2-0.5-0.3-0.8c0-0.3-0.1-1-0.1-2v-1.5c0-0.5,0-0.9-0.1-1.1c-0.1-0.3-0.2-0.6-0.4-0.8
			c-0.2-0.2-0.4-0.4-0.8-0.5c-0.4-0.1-0.8-0.2-1.4-0.2c-0.6,0-1.1,0.1-1.5,0.2c-0.4,0.2-0.8,0.4-1,0.7c-0.2,0.3-0.4,0.7-0.5,1.2
			l1.1,0.2c0.1-0.5,0.3-0.8,0.6-1c0.3-0.2,0.7-0.3,1.2-0.3c0.6,0,1,0.1,1.3,0.4c0.2,0.2,0.3,0.5,0.3,1c0,0,0,0.1,0,0.3
			C243.2,69.7,242.5,69.8,241.6,69.9z M243.6,70.8c0,0.5-0.1,0.9-0.2,1.1c-0.2,0.3-0.4,0.6-0.8,0.8c-0.3,0.2-0.7,0.3-1.2,0.3
			c-0.4,0-0.8-0.1-1-0.3c-0.2-0.2-0.3-0.5-0.3-0.8c0-0.2,0.1-0.4,0.2-0.5c0.1-0.2,0.3-0.3,0.5-0.4c0.2-0.1,0.5-0.2,1-0.2
			c0.8-0.1,1.5-0.3,1.9-0.4V70.8z"/>
		<path fill="#231F20" d="M191.6,67.1c-0.3-0.1-0.7-0.2-1.1-0.2c-0.9,0-1.6,0.4-2.1,1.1v-1h-1v6.7h1.1v-3.7c0-0.9,0.2-1.4,0.5-1.8
			c0.4-0.3,0.8-0.5,1.3-0.5c0.3,0,0.6,0.1,0.8,0.2c0.2,0.1,0.4,0.3,0.5,0.6c0.1,0.2,0.1,0.6,0.1,1v4.1h1.1v-4.1c0-0.5,0-0.9-0.1-1.1
			c-0.1-0.3-0.2-0.6-0.4-0.8S192,67.3,191.6,67.1z"/>
		<rect x="246.5" y="64.5" fill="#231F20" width="1.1" height="9.3"/>
		<rect x="229.9" y="64.5" fill="#231F20" width="1.1" height="1.3"/>
		<path fill="#231F20" d="M235.6,67.8c0.4,0,0.7,0.1,1,0.3c0.3,0.2,0.5,0.6,0.6,1l1.1-0.2c-0.1-0.7-0.4-1.2-0.9-1.6
			c-0.5-0.4-1.1-0.6-1.8-0.6c-0.6,0-1.1,0.1-1.6,0.4c-0.5,0.3-0.9,0.7-1.1,1.2c-0.2,0.5-0.4,1.2-0.4,1.9c0,1.1,0.3,2,0.8,2.6
			c0.6,0.6,1.3,0.9,2.2,0.9c0.7,0,1.4-0.2,1.9-0.7c0.5-0.4,0.8-1,0.9-1.8l-1.1-0.1c-0.1,0.6-0.3,1-0.6,1.3c-0.3,0.3-0.7,0.4-1.1,0.4
			c-0.6,0-1-0.2-1.4-0.6c-0.3-0.4-0.5-1.1-0.5-2c0-0.9,0.2-1.5,0.5-2C234.5,68.1,235,67.8,235.6,67.8z"/>
		<path fill="#231F20" d="M180.4,67.8c-0.2,0.3-0.4,0.7-0.5,1.2l1.1,0.2c0.1-0.5,0.3-0.8,0.6-1c0.3-0.2,0.7-0.3,1.2-0.3
			c0.6,0,1,0.1,1.3,0.4c0.2,0.2,0.3,0.5,0.3,1c0,0,0,0.1,0,0.3c-0.4,0.2-1.1,0.3-2,0.4c-0.5,0.1-0.8,0.1-1,0.2
			c-0.3,0.1-0.6,0.2-0.8,0.4c-0.2,0.2-0.4,0.4-0.6,0.7c-0.1,0.3-0.2,0.6-0.2,0.9c0,0.6,0.2,1,0.6,1.4c0.4,0.4,1,0.5,1.7,0.5
			c0.4,0,0.9-0.1,1.3-0.2c0.4-0.1,0.8-0.4,1.2-0.8c0,0.3,0.1,0.6,0.2,0.8h1.2c-0.1-0.3-0.2-0.5-0.3-0.8c0-0.3-0.1-1-0.1-2v-1.5
			c0-0.5,0-0.9-0.1-1.1c-0.1-0.3-0.2-0.6-0.4-0.8c-0.2-0.2-0.4-0.4-0.8-0.5c-0.4-0.1-0.8-0.2-1.4-0.2c-0.6,0-1.1,0.1-1.5,0.2
			C181,67.3,180.7,67.5,180.4,67.8z M184.4,70.8c0,0.5-0.1,0.9-0.2,1.1c-0.2,0.3-0.4,0.6-0.8,0.8c-0.3,0.2-0.7,0.3-1.2,0.3
			c-0.4,0-0.8-0.1-1-0.3c-0.2-0.2-0.3-0.5-0.3-0.8c0-0.2,0.1-0.4,0.2-0.5c0.1-0.2,0.3-0.3,0.5-0.4c0.2-0.1,0.5-0.2,1-0.2
			c0.8-0.1,1.5-0.3,1.9-0.4V70.8z"/>
		<path fill="#231F20" d="M292,73c-0.5,0-0.9-0.1-1.2-0.4c-0.3-0.2-0.5-0.6-0.5-1l-1.1,0.2c0.1,0.7,0.4,1.3,0.9,1.6
			c0.5,0.4,1.1,0.5,2,0.5c0.5,0,1-0.1,1.4-0.3c0.4-0.2,0.7-0.4,1-0.8c0.2-0.3,0.3-0.7,0.3-1.1c0-0.4-0.1-0.7-0.3-1
			c-0.2-0.3-0.4-0.5-0.8-0.6c-0.3-0.1-0.9-0.3-1.7-0.5c-0.6-0.2-0.9-0.2-1-0.3c-0.2-0.1-0.3-0.2-0.4-0.3c-0.1-0.1-0.1-0.3-0.1-0.4
			c0-0.2,0.1-0.4,0.3-0.6c0.2-0.2,0.6-0.3,1.1-0.3c0.4,0,0.8,0.1,1,0.3c0.2,0.2,0.4,0.5,0.4,0.8l1.1-0.2c-0.1-0.4-0.2-0.8-0.4-1
			c-0.2-0.3-0.5-0.5-0.9-0.6c-0.4-0.2-0.9-0.2-1.4-0.2c-0.4,0-0.7,0-1,0.1c-0.3,0.1-0.5,0.2-0.7,0.3c-0.2,0.2-0.4,0.4-0.6,0.6
			c-0.1,0.3-0.2,0.5-0.2,0.8c0,0.3,0.1,0.6,0.3,0.9c0.2,0.3,0.4,0.5,0.7,0.6c0.3,0.2,0.9,0.3,1.7,0.5c0.6,0.2,1,0.3,1.2,0.4
			c0.2,0.1,0.3,0.4,0.3,0.6c0,0.3-0.1,0.5-0.4,0.8C292.9,72.9,292.5,73,292,73z"/>
		<path fill="#231F20" d="M345.2,70.4c0-1.1-0.3-2-0.9-2.6c-0.6-0.6-1.3-0.9-2.2-0.9c-0.9,0-1.7,0.3-2.3,0.9
			c-0.6,0.6-0.9,1.5-0.9,2.6c0,1.1,0.3,1.9,0.9,2.6c0.6,0.6,1.4,0.9,2.3,0.9c0.8,0,1.4-0.2,1.9-0.6c0.5-0.4,0.8-0.9,1-1.6l-1.2-0.1
			c-0.2,0.5-0.4,0.8-0.7,1.1c-0.3,0.2-0.7,0.3-1.1,0.3c-0.6,0-1-0.2-1.4-0.6c-0.4-0.4-0.6-1-0.6-1.7h5
			C345.2,70.6,345.2,70.5,345.2,70.4z M340.2,69.8c0-0.6,0.2-1.1,0.6-1.4c0.4-0.4,0.8-0.5,1.3-0.5c0.6,0,1.1,0.2,1.4,0.7
			c0.2,0.3,0.4,0.7,0.4,1.3H340.2z"/>
		<path fill="#231F20" d="M60.8,73.8v-6.7h-1.1v3.6c0,0.6-0.1,1-0.2,1.3c-0.1,0.3-0.3,0.5-0.6,0.7c-0.3,0.2-0.6,0.3-1,0.3
			c-0.3,0-0.6-0.1-0.9-0.3c-0.2-0.2-0.4-0.4-0.5-0.7c0-0.2-0.1-0.6-0.1-1.2v-3.7h-1.1v4.2c0,0.5,0,0.8,0.1,1.1
			c0.1,0.3,0.2,0.6,0.4,0.8c0.2,0.2,0.4,0.4,0.8,0.6c0.3,0.2,0.7,0.2,1.1,0.2c0.9,0,1.6-0.4,2.1-1.1v1H60.8z"/>
		<path fill="#231F20" d="M214.1,70.4c0-1.1-0.3-2-0.9-2.6c-0.6-0.6-1.3-0.9-2.2-0.9c-0.9,0-1.7,0.3-2.3,0.9
			c-0.6,0.6-0.9,1.5-0.9,2.6c0,1.1,0.3,1.9,0.9,2.6c0.6,0.6,1.4,0.9,2.3,0.9c0.8,0,1.4-0.2,1.9-0.6c0.5-0.4,0.8-0.9,1-1.6l-1.2-0.1
			c-0.2,0.5-0.4,0.8-0.7,1.1c-0.3,0.2-0.7,0.3-1.1,0.3c-0.6,0-1-0.2-1.4-0.6c-0.4-0.4-0.6-1-0.6-1.7h5
			C214.1,70.6,214.1,70.5,214.1,70.4z M209.1,69.8c0-0.6,0.2-1.1,0.6-1.4c0.4-0.4,0.8-0.5,1.3-0.5c0.6,0,1.1,0.2,1.4,0.7
			c0.2,0.3,0.4,0.7,0.4,1.3H209.1z"/>
		<path fill="#231F20" d="M286.8,67l0.3,0.5c0.4-0.2,0.7-0.4,0.9-0.8c0.1-0.2,0.2-0.7,0.2-1.2v-1h-1.2v1.3h0.6
			c0,0.4-0.1,0.6-0.2,0.8C287.1,66.8,287,66.9,286.8,67z"/>
		<path fill="#231F20" d="M36.1,65.6c0.1-0.1,0.4-0.2,0.7-0.2c0.2,0,0.4,0,0.7,0.1l0.2-1c-0.4-0.1-0.7-0.1-1.1-0.1
			c-0.5,0-0.9,0.1-1.2,0.3c-0.3,0.2-0.5,0.4-0.6,0.7c-0.1,0.2-0.1,0.6-0.1,1v0.7h-1v0.9h1v5.9h1.1v-5.9h1.3v-0.9h-1.3v-0.6
			C35.9,66,36,65.8,36.1,65.6z"/>
		<path fill="#231F20" d="M301.9,69.9c-0.5,0.1-0.8,0.1-1,0.2c-0.3,0.1-0.6,0.2-0.8,0.4c-0.2,0.2-0.4,0.4-0.6,0.7
			c-0.1,0.3-0.2,0.6-0.2,0.9c0,0.6,0.2,1,0.6,1.4c0.4,0.4,1,0.5,1.7,0.5c0.4,0,0.9-0.1,1.3-0.2c0.4-0.1,0.8-0.4,1.2-0.8
			c0,0.3,0.1,0.6,0.2,0.8h1.2c-0.1-0.3-0.2-0.5-0.3-0.8c0-0.3-0.1-1-0.1-2v-1.5c0-0.5,0-0.9-0.1-1.1c-0.1-0.3-0.2-0.6-0.4-0.8
			c-0.2-0.2-0.4-0.4-0.8-0.5c-0.4-0.1-0.8-0.2-1.4-0.2c-0.6,0-1.1,0.1-1.5,0.2c-0.4,0.2-0.8,0.4-1,0.7c-0.2,0.3-0.4,0.7-0.5,1.2
			l1.1,0.2c0.1-0.5,0.3-0.8,0.6-1c0.3-0.2,0.7-0.3,1.2-0.3c0.6,0,1,0.1,1.3,0.4c0.2,0.2,0.3,0.5,0.3,1c0,0,0,0.1,0,0.3
			C303.5,69.7,302.8,69.8,301.9,69.9z M303.9,70.8c0,0.5-0.1,0.9-0.2,1.1c-0.2,0.3-0.4,0.6-0.8,0.8c-0.3,0.2-0.7,0.3-1.2,0.3
			c-0.4,0-0.8-0.1-1-0.3c-0.2-0.2-0.3-0.5-0.3-0.8c0-0.2,0.1-0.4,0.2-0.5c0.1-0.2,0.3-0.3,0.5-0.4c0.2-0.1,0.5-0.2,1-0.2
			c0.8-0.1,1.5-0.3,1.9-0.4V70.8z"/>
		<path fill="#231F20" d="M50.9,66.9c-0.8,0-1.5,0.2-2.1,0.7c-0.7,0.6-1,1.5-1,2.8c0,1.1,0.3,2,0.9,2.6c0.6,0.6,1.3,0.9,2.3,0.9
			c0.6,0,1.1-0.1,1.6-0.4c0.5-0.3,0.9-0.7,1.1-1.2c0.3-0.5,0.4-1.2,0.4-2c0-1.1-0.3-1.9-0.9-2.5C52.6,67.2,51.8,66.9,50.9,66.9z
			 M52.3,72.4c-0.4,0.4-0.8,0.6-1.4,0.6c-0.6,0-1-0.2-1.4-0.6c-0.4-0.4-0.6-1.1-0.6-1.9c0-0.9,0.2-1.5,0.6-1.9
			c0.4-0.4,0.9-0.6,1.4-0.6c0.6,0,1,0.2,1.4,0.6c0.4,0.4,0.6,1.1,0.6,1.9C52.9,71.3,52.7,71.9,52.3,72.4z"/>
		<path fill="#231F20" d="M324.9,67.1v6.7h1.1v-3.7c0-0.9,0.2-1.4,0.5-1.8c0.4-0.3,0.8-0.5,1.3-0.5c0.3,0,0.6,0.1,0.8,0.2
			c0.2,0.1,0.4,0.3,0.5,0.6c0.1,0.2,0.1,0.6,0.1,1v4.1h1.1v-4.1c0-0.5,0-0.9-0.1-1.1c-0.1-0.3-0.2-0.6-0.4-0.8s-0.4-0.4-0.8-0.6
			c-0.3-0.1-0.7-0.2-1.1-0.2c-0.9,0-1.6,0.4-2.1,1.1v-1H324.9z"/>
		<path fill="#231F20" d="M335.8,75.3c-0.3,0.2-0.7,0.3-1.2,0.3c-0.5,0-0.9-0.1-1.2-0.3c-0.2-0.2-0.3-0.4-0.4-0.7l-1.1-0.2
			c0,0.7,0.2,1.3,0.7,1.6s1.1,0.5,1.9,0.5c0.7,0,1.2-0.1,1.7-0.4c0.5-0.3,0.8-0.6,1-1s0.3-1.2,0.3-2.2v-5.8h-1.1v0.8
			c-0.5-0.6-1.2-1-2-1c-0.6,0-1.1,0.1-1.6,0.4c-0.4,0.3-0.8,0.7-1,1.3c-0.2,0.5-0.3,1.1-0.3,1.8c0,0.9,0.3,1.7,0.8,2.4s1.2,1,2.2,1
			c0.7,0,1.4-0.3,1.9-0.9c0,0.7,0,1.2-0.1,1.5C336.3,74.8,336.1,75.1,335.8,75.3z M336,72.2c-0.4,0.4-0.8,0.6-1.3,0.6
			c-0.5,0-1-0.2-1.3-0.6c-0.4-0.4-0.5-1.1-0.5-1.9c0-0.8,0.2-1.4,0.5-1.8c0.4-0.4,0.8-0.6,1.3-0.6c0.5,0,1,0.2,1.3,0.6
			c0.4,0.4,0.5,1,0.5,1.9C336.6,71.2,336.4,71.8,336,72.2z"/>
		<path fill="#231F20" d="M315.9,73.8v-9.3h-1.1v3.3c-0.2-0.3-0.5-0.5-0.8-0.7c-0.3-0.2-0.7-0.3-1.1-0.3c-0.6,0-1.1,0.1-1.5,0.4
			c-0.4,0.3-0.8,0.7-1,1.3c-0.2,0.5-0.3,1.2-0.3,1.8c0,0.7,0.1,1.3,0.4,1.8c0.2,0.5,0.6,0.9,1,1.2c0.5,0.3,0.9,0.4,1.5,0.4
			c0.8,0,1.5-0.3,1.9-1v0.9H315.9z M314.3,72.4c-0.3,0.4-0.8,0.6-1.3,0.6c-0.5,0-0.9-0.2-1.3-0.6c-0.4-0.4-0.5-1.1-0.5-1.9
			c0-0.9,0.2-1.5,0.5-2c0.3-0.4,0.8-0.6,1.3-0.6c0.5,0,1,0.2,1.3,0.6c0.4,0.4,0.5,1.1,0.5,2C314.8,71.4,314.7,72,314.3,72.4z"/>
		<path fill="#231F20" d="M319.9,69.9c-0.5,0.1-0.8,0.1-1,0.2c-0.3,0.1-0.6,0.2-0.8,0.4c-0.2,0.2-0.4,0.4-0.6,0.7s-0.2,0.6-0.2,0.9
			c0,0.6,0.2,1,0.6,1.4c0.4,0.4,1,0.5,1.7,0.5c0.4,0,0.9-0.1,1.3-0.2s0.8-0.4,1.2-0.8c0,0.3,0.1,0.6,0.2,0.8h1.2
			c-0.1-0.3-0.2-0.5-0.3-0.8c0-0.3-0.1-1-0.1-2v-1.5c0-0.5,0-0.9-0.1-1.1c-0.1-0.3-0.2-0.6-0.4-0.8c-0.2-0.2-0.4-0.4-0.8-0.5
			c-0.4-0.1-0.8-0.2-1.4-0.2c-0.6,0-1.1,0.1-1.5,0.2c-0.4,0.2-0.8,0.4-1,0.7c-0.2,0.3-0.4,0.7-0.5,1.2l1.1,0.2
			c0.1-0.5,0.3-0.8,0.6-1c0.3-0.2,0.7-0.3,1.2-0.3c0.6,0,1,0.1,1.3,0.4c0.2,0.2,0.3,0.5,0.3,1c0,0,0,0.1,0,0.3
			C321.5,69.7,320.9,69.8,319.9,69.9z M322,70.8c0,0.5-0.1,0.9-0.2,1.1c-0.2,0.3-0.4,0.6-0.8,0.8c-0.3,0.2-0.7,0.3-1.2,0.3
			c-0.4,0-0.8-0.1-1-0.3c-0.2-0.2-0.3-0.5-0.3-0.8c0-0.2,0.1-0.4,0.2-0.5c0.1-0.2,0.3-0.3,0.5-0.4c0.2-0.1,0.5-0.2,1-0.2
			c0.8-0.1,1.5-0.3,1.9-0.4V70.8z"/>
		<rect x="31.2" y="64.5" fill="#231F20" width="1.2" height="9.3"/>
		<path fill="#231F20" d="M41,67.1l2.6,6.8c0,0.1-0.1,0.2-0.1,0.3c-0.2,0.5-0.3,0.7-0.3,0.9c-0.1,0.2-0.2,0.3-0.4,0.4
			c-0.2,0.1-0.4,0.1-0.6,0.1c-0.2,0-0.4,0-0.7-0.1l0.1,1.1c0.3,0.1,0.5,0.1,0.7,0.1c0.4,0,0.7-0.1,0.9-0.3c0.3-0.2,0.5-0.5,0.7-0.8
			c0.2-0.3,0.4-0.8,0.6-1.5l2.6-6.9H46L44.6,71c-0.2,0.5-0.3,1-0.5,1.5C44,72,43.8,71.5,43.6,71l-1.4-3.9H41z"/>
		<path fill="#231F20" d="M79.5,70.5c0,1.1,0.3,1.9,0.9,2.6c0.6,0.6,1.4,0.9,2.3,0.9c0.8,0,1.4-0.2,1.9-0.6c0.5-0.4,0.8-0.9,1-1.6
			l-1.2-0.1c-0.2,0.5-0.4,0.8-0.7,1.1c-0.3,0.2-0.7,0.3-1.1,0.3c-0.6,0-1-0.2-1.4-0.6c-0.4-0.4-0.6-1-0.6-1.7h5c0-0.1,0-0.2,0-0.3
			c0-1.1-0.3-2-0.9-2.6c-0.6-0.6-1.3-0.9-2.2-0.9c-0.9,0-1.7,0.3-2.3,0.9C79.8,68.5,79.5,69.4,79.5,70.5z M81.4,68.4
			c0.4-0.4,0.8-0.5,1.3-0.5c0.6,0,1.1,0.2,1.4,0.7c0.2,0.3,0.4,0.7,0.4,1.3h-3.8C80.8,69.2,81,68.7,81.4,68.4z"/>
		<rect x="115.2" y="64.5" fill="#231F20" width="1.1" height="9.3"/>
		<path fill="#231F20" d="M120.9,66.9c-0.9,0-1.7,0.3-2.3,0.9c-0.6,0.6-0.9,1.5-0.9,2.6c0,1.1,0.3,1.9,0.9,2.6
			c0.6,0.6,1.4,0.9,2.3,0.9c0.8,0,1.4-0.2,1.9-0.6c0.5-0.4,0.8-0.9,1-1.6l-1.2-0.1c-0.2,0.5-0.4,0.8-0.7,1.1
			c-0.3,0.2-0.7,0.3-1.1,0.3c-0.6,0-1-0.2-1.4-0.6c-0.4-0.4-0.6-1-0.6-1.7h5c0-0.1,0-0.2,0-0.3c0-1.1-0.3-2-0.9-2.6
			C122.5,67.2,121.8,66.9,120.9,66.9z M119,69.8c0-0.6,0.2-1.1,0.6-1.4c0.4-0.4,0.8-0.5,1.3-0.5c0.6,0,1.1,0.2,1.4,0.7
			c0.2,0.3,0.4,0.7,0.4,1.3H119z"/>
		<rect x="280.4" y="64.5" fill="#231F20" width="1.1" height="1.3"/>
		<path fill="#231F20" d="M93,69.9c-0.5,0.1-0.8,0.1-1,0.2c-0.3,0.1-0.6,0.2-0.8,0.4c-0.2,0.2-0.4,0.4-0.6,0.7
			c-0.2,0.3-0.2,0.6-0.2,0.9c0,0.6,0.2,1,0.6,1.4c0.4,0.4,1,0.5,1.7,0.5c0.4,0,0.9-0.1,1.3-0.2c0.4-0.1,0.8-0.4,1.2-0.8
			c0,0.3,0.1,0.6,0.2,0.8h1.2c-0.1-0.3-0.2-0.5-0.3-0.8c0-0.3-0.1-1-0.1-2v-1.5c0-0.5,0-0.9-0.1-1.1c-0.1-0.3-0.2-0.6-0.4-0.8
			c-0.2-0.2-0.4-0.4-0.8-0.5c-0.4-0.1-0.8-0.2-1.4-0.2c-0.6,0-1.1,0.1-1.5,0.2c-0.4,0.2-0.8,0.4-1,0.7c-0.2,0.3-0.4,0.7-0.5,1.2
			l1.1,0.2c0.1-0.5,0.3-0.8,0.6-1c0.3-0.2,0.7-0.3,1.2-0.3c0.6,0,1,0.1,1.3,0.4c0.2,0.2,0.3,0.5,0.3,1c0,0,0,0.1,0,0.3
			C94.6,69.7,93.9,69.8,93,69.9z M95,70.8c0,0.5-0.1,0.9-0.2,1.1c-0.2,0.3-0.4,0.6-0.8,0.8c-0.3,0.2-0.7,0.3-1.2,0.3
			c-0.4,0-0.8-0.1-1-0.3c-0.2-0.2-0.3-0.5-0.3-0.8c0-0.2,0.1-0.4,0.2-0.5c0.1-0.2,0.3-0.3,0.5-0.4c0.2-0.1,0.5-0.2,1-0.2
			c0.8-0.1,1.5-0.3,1.9-0.4V70.8z"/>
		<path fill="#231F20" d="M130.8,69.7c0-0.5,0-0.9-0.1-1.1c-0.1-0.3-0.2-0.6-0.4-0.8c-0.2-0.2-0.4-0.4-0.8-0.6s-0.7-0.2-1.1-0.2
			c-0.9,0-1.7,0.4-2.1,1.1v-1h-1v6.7h1.1v-3.7c0-0.9,0.2-1.4,0.5-1.8c0.4-0.3,0.8-0.5,1.3-0.5c0.3,0,0.6,0.1,0.8,0.2
			c0.2,0.1,0.4,0.3,0.5,0.6c0.1,0.2,0.1,0.6,0.1,1v4.1h1.1V69.7z"/>
		<path fill="#231F20" d="M283.5,65.4v1.7h-0.8v0.9h0.8v3.9c0,0.7,0,1.1,0.1,1.3c0.1,0.2,0.3,0.4,0.5,0.5c0.2,0.1,0.6,0.2,1,0.2
			c0.3,0,0.5,0,0.9-0.1l-0.2-1c-0.2,0-0.4,0-0.5,0c-0.2,0-0.3,0-0.4-0.1c-0.1-0.1-0.2-0.1-0.2-0.2c0-0.1-0.1-0.3-0.1-0.6v-3.9h1.1
			v-0.9h-1.1v-2.4L283.5,65.4z"/>
		<path fill="#231F20" d="M68.4,66.9c-0.4,0-0.7,0-1,0.1c-0.3,0.1-0.5,0.2-0.7,0.3c-0.2,0.2-0.4,0.4-0.6,0.6
			c-0.1,0.3-0.2,0.5-0.2,0.8c0,0.3,0.1,0.6,0.2,0.9s0.4,0.5,0.7,0.6c0.3,0.2,0.9,0.3,1.7,0.5c0.6,0.2,1,0.3,1.2,0.4
			c0.2,0.1,0.3,0.4,0.3,0.6c0,0.3-0.1,0.5-0.4,0.8c-0.3,0.2-0.6,0.3-1.2,0.3c-0.5,0-0.9-0.1-1.2-0.4c-0.3-0.2-0.5-0.6-0.5-1
			l-1.1,0.2c0.1,0.7,0.4,1.3,0.9,1.6c0.5,0.4,1.1,0.5,2,0.5c0.5,0,1-0.1,1.4-0.3c0.4-0.2,0.7-0.4,1-0.8c0.2-0.3,0.3-0.7,0.3-1.1
			c0-0.4-0.1-0.7-0.3-1c-0.2-0.3-0.4-0.5-0.8-0.6c-0.3-0.1-0.9-0.3-1.7-0.5c-0.6-0.2-0.9-0.2-1-0.3c-0.2-0.1-0.3-0.2-0.4-0.3
			C67.1,69,67,68.9,67,68.7c0-0.2,0.1-0.4,0.3-0.6c0.2-0.2,0.6-0.3,1.1-0.3c0.4,0,0.8,0.1,1,0.3c0.2,0.2,0.4,0.5,0.4,0.8l1.1-0.2
			c-0.1-0.4-0.2-0.8-0.4-1c-0.2-0.3-0.5-0.5-0.9-0.6C69.4,67,68.9,66.9,68.4,66.9z"/>
		<rect x="350.5" y="72.5" fill="#231F20" width="1.3" height="1.3"/>
		<path fill="#231F20" d="M346.6,67.1v6.7h1.1v-3.5c0-0.5,0.1-0.9,0.2-1.3c0.1-0.3,0.2-0.5,0.4-0.6c0.2-0.2,0.4-0.2,0.7-0.2
			c0.3,0,0.6,0.1,0.8,0.2l0.4-1.1c-0.4-0.2-0.8-0.4-1.2-0.4c-0.3,0-0.5,0.1-0.7,0.2c-0.2,0.2-0.5,0.5-0.7,0.9v-1H346.6z"/>
		<path fill="#231F20" d="M75.4,66.9c-0.9,0-1.7,0.3-2.3,0.9c-0.6,0.6-0.9,1.5-0.9,2.6c0,1.1,0.3,1.9,0.9,2.6
			c0.6,0.6,1.4,0.9,2.3,0.9c0.8,0,1.4-0.2,1.9-0.6c0.5-0.4,0.8-0.9,1-1.6l-1.2-0.1c-0.2,0.5-0.4,0.8-0.7,1.1
			c-0.3,0.2-0.7,0.3-1.1,0.3c-0.6,0-1-0.2-1.4-0.6c-0.4-0.4-0.6-1-0.6-1.7h5c0-0.1,0-0.2,0-0.3c0-1.1-0.3-2-0.9-2.6
			C77.1,67.2,76.3,66.9,75.4,66.9z M73.5,69.8c0-0.6,0.2-1.1,0.6-1.4c0.4-0.4,0.8-0.5,1.3-0.5c0.6,0,1.1,0.2,1.4,0.7
			c0.2,0.3,0.4,0.7,0.4,1.3H73.5z"/>
		<polygon fill="#231F20" points="64.2,40.8 62,35.4 60.1,35.4 58,40.8 55.9,35.4 53.3,35.4 57,44.4 58.8,44.4 61.1,39.1 63.3,44.4 
			65.1,44.4 68.8,35.4 66.2,35.4 		"/>
		<path fill="#231F20" d="M84.2,42.7c0-1-0.7-1.7-1.7-1.7c-1,0-1.7,0.7-1.7,1.7s0.7,1.7,1.7,1.7C83.5,44.4,84.2,43.7,84.2,42.7z"/>
		<path fill="#231F20" d="M48.3,35.2c-2.8,0-4.8,1.9-4.8,4.7c0,2.8,2.1,4.7,4.8,4.7c2.8,0,4.8-1.9,4.8-4.7
			C53.2,37.1,51.1,35.2,48.3,35.2z M48.3,42.3c-1.4,0-2.4-1-2.4-2.4s1-2.4,2.4-2.4c1.4,0,2.4,1,2.4,2.4S49.7,42.3,48.3,42.3z"/>
		<path fill="#231F20" d="M109.8,38.7l-2.5,0.2c-1.7,0.1-2.9,1.2-2.9,2.8c0,1.7,1.3,2.8,3,2.8c1.4,0,2.3-0.7,2.8-1.4v1.2h2.4v-5.6
			c0-2.5-1.3-3.7-3.9-3.7c-2,0-3.4,0.7-4,2l1.8,1.3c0.3-0.8,1.3-1.2,2.2-1.2c1.1,0,1.6,0.4,1.6,0.9v0.1
			C110.2,38.6,110.1,38.7,109.8,38.7z M110.2,40.8c0,1-0.8,1.9-2.1,1.9c-0.8,0-1.3-0.4-1.3-1c0-0.5,0.4-0.9,1.1-1l2.2-0.3V40.8z"/>
		<path fill="#231F20" d="M35.9,31.8h-4.6v12.6h4.6c3.5,0,6.2-2.7,6.2-6.3S39.5,31.8,35.9,31.8z M35.9,41.9h-2.1v-7.6h2.1
			c2.2,0,3.7,1.6,3.7,3.8C39.6,40.3,38.1,41.9,35.9,41.9z"/>
		<path fill="#231F20" d="M132.3,36.7c-0.5-0.8-1.5-1.5-2.9-1.5c-2.2,0-4.2,1.7-4.2,4.7c0,3,1.8,4.6,4.2,4.6c1.3,0,2.3-0.5,2.9-1.4
			v0.6c0,1.3-0.6,2.3-2.6,2.3c-1.1,0-1.9-0.4-2.7-1.1l-1.2,2c0.9,0.9,2.2,1.4,4,1.4c3.8,0,4.9-2.1,4.9-4.4v-8.4h-2.4V36.7z
			 M130,42.3c-1.4,0-2.4-1-2.4-2.4c0-1.5,1-2.4,2.4-2.4c1.4,0,2.3,0.9,2.3,2.4C132.3,41.4,131.4,42.3,130,42.3z"/>
		<rect x="192.5" y="31.8" fill="#231F20" width="2.4" height="12.6"/>
		<path fill="#231F20" d="M187.4,38.7l-2.5,0.2c-1.7,0.1-2.9,1.2-2.9,2.8c0,1.7,1.3,2.8,3,2.8c1.4,0,2.3-0.7,2.8-1.4v1.2h2.4v-5.6
			c0-2.5-1.3-3.7-3.9-3.7c-2,0-3.4,0.7-4,2l1.8,1.3c0.3-0.8,1.3-1.2,2.2-1.2c1.1,0,1.6,0.4,1.6,0.9v0.1
			C187.8,38.6,187.7,38.7,187.4,38.7z M187.8,40.8c0,1-0.8,1.9-2.1,1.9c-0.8,0-1.3-0.4-1.3-1c0-0.5,0.4-0.9,1.1-1l2.2-0.3V40.8z"/>
		<rect x="177.7" y="35.4" fill="#231F20" width="2.4" height="9"/>
		<path fill="#231F20" d="M178.9,31.3c-0.9,0-1.5,0.7-1.5,1.5s0.6,1.5,1.5,1.5s1.5-0.6,1.5-1.5S179.7,31.3,178.9,31.3z"/>
		<path fill="#231F20" d="M114.9,35.4v9h2.4v-4.3c0-1.6,0.6-2.6,2-2.6c1,0,1.6,0.6,1.6,1.9v5h2.4v-5.6c0-2.3-1.1-3.6-3.2-3.6
			c-1.3,0-2.3,0.6-2.9,1.5v-1.3H114.9z"/>
		<path fill="#231F20" d="M70,35.4v9h2.4v-4.3c0-1.6,0.6-2.6,2-2.6c1,0,1.6,0.6,1.6,1.9v5h2.4v-5.6c0-2.3-1.1-3.6-3.2-3.6
			c-1.3,0-2.3,0.6-2.9,1.5v-1.3H70z"/>
		<path fill="#231F20" d="M199.1,41c-1,0-1.7,0.7-1.7,1.7s0.7,1.7,1.7,1.7s1.7-0.7,1.7-1.7S200.1,41,199.1,41z"/>
		<path fill="#231F20" d="M147.2,35.4v9h2.4v-4.1c0-1.7,0.7-2.6,2.3-2.6c0.4,0,0.7,0,1.1,0.1v-2.6c-0.3-0.1-0.5-0.1-0.9-0.1
			c-1.3,0-2.1,0.6-2.6,1.7v-1.5H147.2z"/>
		<path fill="#231F20" d="M97,31.8h-4.6v12.6H97c3.5,0,6.2-2.7,6.2-6.3S100.5,31.8,97,31.8z M97,41.9h-2.1v-7.6H97
			c2.2,0,3.7,1.6,3.7,3.8C100.7,40.3,99.2,41.9,97,41.9z"/>
		<path fill="#231F20" d="M169.4,31.8h-4.6v12.6h4.6c3.5,0,6.2-2.7,6.2-6.3S172.9,31.8,169.4,31.8z M169.4,41.9h-2.1v-7.6h2.1
			c2.2,0,3.7,1.6,3.7,3.8C173,40.3,171.6,41.9,169.4,41.9z"/>
		<path fill="#231F20" d="M141,35.2c-2.8,0-4.6,2.1-4.6,4.7c0,2.7,1.8,4.7,4.8,4.7c1.7,0,2.8-0.6,3.6-1.2l-1-2
			c-0.6,0.6-1.5,0.9-2.6,0.9c-1.1,0-2.1-0.5-2.4-1.7l0,0h6.6V40C145.5,37.1,143.8,35.2,141,35.2z M138.8,38.9c0.2-1.1,1-1.7,2.1-1.7
			c1.2,0,1.8,0.7,1.9,1.7H138.8z"/>
		<path fill="#231F20" d="M156.6,42.7c0-1-0.7-1.7-1.7-1.7s-1.7,0.7-1.7,1.7s0.7,1.7,1.7,1.7S156.6,43.7,156.6,42.7z"/>
	</g>
	<g>
		<path fill="#3E3935" d="M0,159.5c7.5-1.1,15.2-2.4,23.3-4c0,0,0,0,0,0c-7.8,2.4-15.6,4.4-23.3,6v1.2c5.5-1.1,11.1-2.5,16.6-4
			c-5.6,2.6-11.1,4.9-16.6,7v1.3c7.8-2.9,15.8-6.4,23.8-10.4c3.2-1,6.4-2.1,9.6-3.2c27.6-6.2,57.9-15.6,88.2-29.4
			c0.3-0.1,0.4-0.5,0.3-0.8c-0.1-0.3-0.5-0.4-0.8-0.3c-27.2,12.4-54.3,21.2-79.5,27.4c16.3-6.7,31.7-15.4,44.6-26.4
			c0.3-0.2,0.3-0.6,0.1-0.9c-0.2-0.3-0.6-0.3-0.9-0.1c-14.9,12.7-33.1,22.3-52.2,29.3c-0.5,0.1-1.1,0.2-1.6,0.4
			c14-7.7,27.7-17.2,39.9-28.7c0.2-0.2,0.3-0.6,0-0.9c-0.2-0.2-0.6-0.3-0.9,0c-13.2,12.4-28.1,22.4-43.3,30.5
			c-9.5,2-18.6,3.6-27.3,4.8V159.5z"/>
		<path fill="#3E3935" d="M470,261.3c-75.6-7.5-156.9-4.7-236-1.9c-78.4,2.7-159,5.5-234-1.8v1.9c75.1,7.3,155.7,4.5,234.1,1.7
			c79.1-2.8,160.4-5.6,235.9,1.9V261.3z"/>
	</g>
	<rect x="119.7" y="123.4" fill="#CAC3BB" width="3.2" height="6.4"/>
	
		<rect x="119.7" y="123.4" fill="none" stroke="#3E3935" stroke-width="1.215" stroke-linecap="round" stroke-linejoin="round" stroke-miterlimit="10" width="3.2" height="6.4"/>
	<rect x="84" y="123.4" fill="#CAC3BB" width="3.2" height="6.4"/>
	
		<rect x="84" y="123.4" fill="none" stroke="#3E3935" stroke-width="1.215" stroke-linecap="round" stroke-linejoin="round" stroke-miterlimit="10" width="3.2" height="6.4"/>
	<rect x="69.3" y="123.4" fill="#CAC3BB" width="3.2" height="6.4"/>
	
		<rect x="69.3" y="123.4" fill="none" stroke="#3E3935" stroke-width="1.215" stroke-linecap="round" stroke-linejoin="round" stroke-miterlimit="10" width="3.2" height="6.4"/>
	<rect x="60.4" y="129.8" fill="#CAC3BB" width="78.8" height="6.2"/>
	
		<rect x="60.4" y="129.8" fill="none" stroke="#3E3935" stroke-width="1.215" stroke-linecap="round" stroke-linejoin="round" stroke-miterlimit="10" width="78.8" height="6.2"/>
	<rect x="96.3" y="121.9" fill="#CAC3BB" width="7.1" height="164.1"/>
	
		<rect x="96.3" y="121.9" fill="none" stroke="#3E3935" stroke-width="1.215" stroke-linecap="round" stroke-linejoin="round" stroke-miterlimit="10" width="7.1" height="164.1"/>
	
		<line fill="none" stroke="#3E3935" stroke-width="1.215" stroke-linecap="round" stroke-linejoin="round" stroke-miterlimit="10" x1="103.4" y1="145.4" x2="112.6" y2="136.1"/>
	
		<line fill="none" stroke="#3E3935" stroke-width="1.215" stroke-linecap="round" stroke-linejoin="round" stroke-miterlimit="10" x1="96.3" y1="145.4" x2="87" y2="136.1"/>
	<g>
		<path fill="#3E3935" d="M100.8,260.3c0,6.2-0.1,12.3-0.1,18.5c0,0.2,0.3,0.2,0.3,0c0-6.2,0.1-12.3,0.1-18.5
			C101.1,260.1,100.8,260.1,100.8,260.3z"/>
		<path fill="#3E3935" d="M99.5,274.2c0-6.1,0.1-12.1,0.1-18.2c0-0.2-0.3-0.2-0.3,0c0,6.1-0.1,12.1-0.1,18.2
			C99.2,274.3,99.5,274.3,99.5,274.2z"/>
	</g>
	<g>
		<path fill="#3E3935" d="M98.1,281.2v-4.6c0-0.2-0.3-0.2-0.3,0v4.6C97.8,281.4,98.1,281.4,98.1,281.2z"/>
		<path fill="#3E3935" d="M100.5,254c-0.1-5.4-0.2-10.9-0.3-16.3c0-0.2-0.3-0.2-0.3,0c0.1,5.4,0.2,10.9,0.3,16.3
			C100.2,254.2,100.5,254.2,100.5,254z"/>
		<path fill="#3E3935" d="M98.5,239.7c0.2-2,0.4-4.1,0.6-6.2c0-0.2-0.3-0.2-0.3,0c-0.2,2.1-0.4,4.1-0.6,6.2
			C98.1,239.9,98.4,239.9,98.5,239.7z"/>
		<path fill="#3E3935" d="M98.4,249.2c0-1.4,0.1-2.9,0.1-4.3c0-0.2-0.3-0.2-0.3,0c0,1.4-0.1,2.9-0.1,4.3
			C98.1,249.4,98.4,249.4,98.4,249.2z"/>
		<path fill="#CAC3BB" d="M100.7,229.7l-0.4-10.3C100.3,222.9,100.4,226.3,100.7,229.7z"/>
		<path fill="#3E3935" d="M100.3,219.4c0-1.1,0-2.2,0-3.2c0-0.2-0.3-0.2-0.3,0c-0.1,5.6,0.2,11.2,0.7,16.8c0,0.2,0.3,0.1,0.3-0.1
			c-0.1-1.1-0.2-2.1-0.3-3.2C100.4,226.3,100.3,222.9,100.3,219.4z"/>
		<path fill="#3E3935" d="M100.6,199.8c0.2-3.9,0.2-7.8,0.1-11.7c0-0.2-0.3-0.2-0.3,0c0.1,3.9,0.1,7.8-0.1,11.7
			C100.3,200,100.6,200,100.6,199.8z"/>
		<path fill="#CAC3BB" d="M98.6,198.6l0.1,10.7C98.8,205.7,98.8,202.1,98.6,198.6z"/>
		<path fill="#3E3935" d="M98.7,209.3c0,1.1-0.1,2.2-0.1,3.3c0,0.2,0.3,0.2,0.3,0c0.3-5.8,0.3-11.6-0.1-17.3c0-0.2-0.3-0.2-0.3,0
			c0.1,1.1,0.1,2.2,0.2,3.3C98.8,202.1,98.8,205.7,98.7,209.3z"/>
	</g>
	<g>
		<path fill="#3E3935" d="M100.1,209.4v1.3c0,0.2,0.3,0.2,0.3,0v-1.3C100.4,209.2,100.1,209.2,100.1,209.4z"/>
		<path fill="#3E3935" d="M99,184.6c0.2-4.9,0.3-9.7,0.5-14.6c0-0.2-0.3-0.2-0.3,0c-0.2,4.9-0.3,9.7-0.5,14.6
			C98.7,184.8,99,184.8,99,184.6z"/>
		<path fill="#3E3935" d="M99.6,158.2c0.1,2.6,0.2,5.1,0.3,7.7c0,0.2,0.3,0.2,0.3,0c-0.1-2.6-0.2-5.1-0.3-7.7
			C99.9,158.1,99.6,158,99.6,158.2z"/>
		<path fill="#CAC3BB" d="M100.8,135.8l0,2.7C100.8,137.6,100.8,136.7,100.8,135.8z"/>
		<path fill="#3E3935" d="M100.6,132.1c0.1,1.2,0.1,2.5,0.1,3.7c0,0.9,0,1.8,0,2.7c0,1.2-0.1,2.5-0.2,3.7c0,0.2,0.3,0.2,0.3,0
			c0.2-3.4,0.3-6.8,0.1-10.2C100.9,131.9,100.6,131.9,100.6,132.1z"/>
	</g>
	<path fill="#3E3935" d="M99.6,137v15.8c0,0.2,0.3,0.2,0.3,0V137C99.9,136.8,99.6,136.8,99.6,137z"/>
	<g>
		<path fill="#3E3935" d="M100.7,152.6v2.4c0,0.2,0.3,0.2,0.3,0v-2.4C101,152.4,100.7,152.4,100.7,152.6z"/>
		<path fill="#3E3935" d="M95,132.2c0.2,0,0.2-0.3,0-0.3c-5.8-0.2-11.6-0.4-17.4-0.7c-0.2,0-0.2,0.3,0,0.3
			C83.4,131.8,89.2,132,95,132.2z"/>
	</g>
	<g>
		<path fill="#3E3935" d="M82.1,133.2c0.2,0,0.2-0.3,0-0.3H79c-0.2,0-0.2,0.3,0,0.3H82.1z"/>
		<path fill="#3E3935" d="M88.9,133.8c0.2,0,0.2-0.3,0-0.3c-1.6,0.1-3.3,0.1-4.9-0.1c-0.2,0-0.2,0.3,0,0.3
			C85.6,133.9,87.2,133.9,88.9,133.8z"/>
		<path fill="#3E3935" d="M72.7,132.1c0.2,0,0.2-0.3,0-0.3c-1.9,0-3.9-0.1-5.8-0.1c-0.2,0-0.2,0.3,0,0.3
			C68.8,132.1,70.7,132.1,72.7,132.1z"/>
		<path fill="#CAC3BB" d="M72.6,133.6l-4.8-0.3C69.4,133.5,71,133.6,72.6,133.6z"/>
		<path fill="#3E3935" d="M66.1,133.3c2.7,0.5,5.5,0.7,8.2,0.5c0.2,0,0.2-0.3,0-0.3c-0.6,0-1.1,0-1.7,0c-1.6,0-3.2-0.1-4.8-0.3
			c-0.6-0.1-1.1-0.1-1.7-0.2C66,133,65.9,133.3,66.1,133.3z"/>
		<path fill="#CAC3BB" d="M108.1,131.8l7.4,0.7C113.1,131.9,110.6,131.7,108.1,131.8z"/>
		<path fill="#3E3935" d="M116.8,132.4c-3.2-0.8-6.6-1.1-9.9-0.9c-0.2,0-0.2,0.3,0,0.3c0.4,0,0.8,0,1.2,0c2.5-0.1,5,0.1,7.4,0.7
			c0.4,0.1,0.8,0.1,1.2,0.2C116.9,132.7,117,132.5,116.8,132.4z"/>
	</g>
	<g>
		<path fill="#3E3935" d="M112.8,133.1c0.2,0,0.2-0.3,0-0.3h-3.4c0.3,0.1,0.5,0.2,0.8,0.3H112.8z"/>
		<path fill="#CAC3BB" d="M120.1,133.3c0.2,0,0.5,0,0.7-0.1L120.1,133.3z"/>
		<path fill="#3E3935" d="M121.8,133.3c0.2-0.1,0.1-0.3-0.1-0.3c-0.3,0.1-0.6,0.2-0.9,0.2c-0.2,0-0.5,0.1-0.7,0.1
			c-0.3,0-0.6,0-0.9-0.1c-0.2,0-0.3,0.2-0.1,0.3C120,133.7,120.9,133.6,121.8,133.3z"/>
		<path fill="#3E3935" d="M132.9,131.9c-2.1-0.2-4.1-0.3-6.2-0.2c-0.2,0-0.2,0.3,0,0.3c2.3-0.1,4.6,0,6.8,0.3
			C133.3,132.2,133.1,132.1,132.9,131.9z"/>
		<path fill="#3E3935" d="M134.8,133.1c-1.9-0.1-3.8-0.1-5.7-0.2c-0.2,0-0.2,0.3,0,0.3c2.1,0.1,4.2,0.2,6.3,0.2
			C135.2,133.3,135,133.2,134.8,133.1z"/>
		<path fill="#CAC3BB" d="M101,177.1l-0.5,4.8C100.9,180.3,101,178.7,101,177.1z"/>
		<path fill="#3E3935" d="M100.5,181.9c-0.1,0.3-0.1,0.7-0.2,1c-0.1,0.2,0.2,0.3,0.3,0.1c0.6-2.3,0.9-4.6,0.7-6.9
			c0-0.2-0.3-0.2-0.3,0c0,0.4,0,0.7,0,1.1C101,178.7,100.9,180.3,100.5,181.9z"/>
		<path fill="#3E3935" d="M100.7,282c0,1.2-0.1,2.4-0.1,3.6c0,0.2,0.3,0.2,0.3,0c0-1.2,0.1-2.4,0.1-3.6
			C101,281.9,100.7,281.9,100.7,282z"/>
		<path fill="#3E3935" d="M393.4,122.8c-27.6,12.5-54.8,21.9-81.1,27.8c17.4-6.3,32.9-15.3,46.5-26.8c0.3-0.2,0.3-0.6,0.1-0.9
			c-0.2-0.3-0.6-0.3-0.9-0.1c-13.9,11.8-29.8,20.9-47.8,27.2c11.7-7.3,23-16.1,33.8-26.3c0.2-0.2,0.3-0.6,0-0.9
			c-0.2-0.2-0.6-0.3-0.9,0C331,134.4,318.2,144,305,151.8c-1.2,0.4-2.4,0.8-3.7,1.1c-8.4,1.6-16.7,2.9-24.9,3.8
			c-29.8,3.3-58.5,2.1-85.1-3.7c-23.7-5.2-41.3-13.1-52-18.8c-11.5-6.2-17.6-11.2-17.6-11.3c-0.3-0.2-0.6-0.2-0.9,0.1
			c-0.2,0.3-0.2,0.6,0.1,0.9c0,0,4.1,3.4,11.9,8.1c0.2,0.1,0.4,0.2,0.6,0.4c0.4,0.3,0.9,0.5,1.3,0.8c0.2,0.1,0.4,0.2,0.6,0.3
			c1.1,0.6,2.2,1.2,3.4,1.9c10.7,5.8,28.5,13.7,52.3,18.9c26.8,5.9,55.5,7.1,85.5,3.8c2.7-0.3,5.4-0.6,8.1-1
			c-3.7,0.7-7.4,1.3-11.2,1.8c-26.7,3.5-56.6,2.2-88.8-4c-30-5.7-56.5-14.7-74.5-21.6c-0.3-0.1-0.5-0.2-0.8-0.3
			c-14.5-5.6-23.2-9.9-23.4-10c-0.3-0.1-0.7,0-0.8,0.3s0,0.7,0.3,0.8c0.4,0.2,43.8,21.5,98.9,32c32.4,6.2,62.4,7.5,89.2,4
			c9.3-1.2,18.2-3,26.8-5.5c-17.2,9.5-35.1,15.9-53.7,19.3c-27.9,5-57.3,3.1-87.4-5.6c-51.4-14.9-87.5-44.9-87.9-45.2
			c-0.3-0.2-0.6-0.2-0.9,0.1c-0.2,0.3-0.2,0.6,0.1,0.9c0.4,0.3,36.7,30.4,88.3,45.4c19.3,5.6,38.3,8.4,56.9,8.4
			c10.5,0,20.9-0.9,31.1-2.7c20-3.6,39.3-10.7,57.6-21.4c29-5.8,59-15.7,89.5-29.6c0.3-0.1,0.4-0.5,0.3-0.8S393.7,122.7,393.4,122.8
			z"/>
	</g>
	<rect x="332.7" y="129.8" fill="#CAC3BB" width="78.8" height="6.2"/>
	
		<rect x="332.7" y="129.8" fill="none" stroke="#3E3935" stroke-width="1.215" stroke-linecap="round" stroke-linejoin="round" stroke-miterlimit="10" width="78.8" height="6.2"/>
	<rect x="392.1" y="123.4" fill="#CAC3BB" width="3.2" height="6.4"/>
	
		<rect x="392.1" y="123.4" fill="none" stroke="#3E3935" stroke-width="1.215" stroke-linecap="round" stroke-linejoin="round" stroke-miterlimit="10" width="3.2" height="6.4"/>
	<rect x="356.4" y="123.4" fill="#CAC3BB" width="3.2" height="6.4"/>
	
		<rect x="356.4" y="123.4" fill="none" stroke="#3E3935" stroke-width="1.215" stroke-linecap="round" stroke-linejoin="round" stroke-miterlimit="10" width="3.2" height="6.4"/>
	<rect x="341.7" y="123.4" fill="#CAC3BB" width="3.2" height="6.4"/>
	
		<rect x="341.7" y="123.4" fill="none" stroke="#3E3935" stroke-width="1.215" stroke-linecap="round" stroke-linejoin="round" stroke-miterlimit="10" width="3.2" height="6.4"/>
	<rect x="368.6" y="121.9" fill="#CAC3BB" width="7.1" height="164.1"/>
	
		<rect x="368.6" y="121.9" fill="none" stroke="#3E3935" stroke-width="1.215" stroke-linecap="round" stroke-linejoin="round" stroke-miterlimit="10" width="7.1" height="164.1"/>
	
		<line fill="none" stroke="#3E3935" stroke-width="1.215" stroke-linecap="round" stroke-linejoin="round" stroke-miterlimit="10" x1="375.7" y1="145.4" x2="385" y2="136.1"/>
	
		<line fill="none" stroke="#3E3935" stroke-width="1.215" stroke-linecap="round" stroke-linejoin="round" stroke-miterlimit="10" x1="368.6" y1="145.4" x2="359.4" y2="136.1"/>
	<g>
		<path fill="#3E3935" d="M373.6,220.8v13c0,0.2,0.3,0.2,0.3,0v-13C373.9,220.6,373.6,220.6,373.6,220.8z"/>
		<path fill="#CAC3BB" d="M372.3,237.4l1.1,9.9C373.3,244,372.9,240.7,372.3,237.4z"/>
		<path fill="#3E3935" d="M373.4,248.9c0,0.2,0.3,0.2,0.3,0c0.1-4.4-0.4-8.9-1.4-13.2c0-0.2-0.3-0.1-0.3,0.1
			c0.1,0.5,0.2,1.1,0.3,1.6c0.7,3.3,1,6.6,1.1,9.9C373.3,247.8,373.4,248.4,373.4,248.9z"/>
		<path fill="#3E3935" d="M371.2,244.2c0,5.5-0.1,10.9-0.1,16.4c0,0.2,0.3,0.2,0.3,0c0-5.5,0.1-10.9,0.1-16.4
			C371.5,244,371.2,244,371.2,244.2z"/>
		<path fill="#CAC3BB" d="M372.8,262.6c-0.3,2.6-0.5,5.2-0.7,7.9L372.8,262.6z"/>
		<path fill="#3E3935" d="M371.6,277.1c0.1-2.2,0.3-4.4,0.5-6.6c0.2-2.6,0.4-5.2,0.7-7.9c0.2-2.2,0.5-4.4,0.7-6.6
			c0-0.2-0.3-0.2-0.3,0c-0.9,7-1.5,14.1-1.9,21.1C371.3,277.3,371.6,277.3,371.6,277.1z"/>
	</g>
	<g>
		<path fill="#3E3935" d="M373.8,274.8v6.5c0,0.2,0.3,0.2,0.3,0v-6.5C374.1,274.6,373.8,274.6,373.8,274.8z"/>
		<path fill="#CAC3BB" d="M371.1,211.9c-0.4,3.7-0.6,7.4-0.8,11L371.1,211.9z"/>
		<path fill="#3E3935" d="M370.3,226.6c0-1.2,0.1-2.4,0.1-3.6c0.1-3.7,0.4-7.4,0.8-11c0.1-1.2,0.2-2.4,0.4-3.5c0-0.2-0.3-0.2-0.3,0
			c-0.7,6-1.2,12.1-1.2,18.2C370,226.7,370.3,226.7,370.3,226.6z"/>
		<path fill="#3E3935" d="M373,215.5c-0.2-9-0.5-18-0.7-27c0-0.2-0.3-0.2-0.3,0c0.2,9,0.5,18,0.7,27
			C372.7,215.6,373,215.7,373,215.5z"/>
	</g>
	<g>
		<path fill="#3E3935" d="M370.6,196.4v6.3c0,0.2,0.3,0.2,0.3,0v-6.3C370.9,196.2,370.6,196.2,370.6,196.4z"/>
		<path fill="#CAC3BB" d="M372.8,173l0.1,7C372.9,177.6,372.9,175.3,372.8,173z"/>
		<path fill="#3E3935" d="M372.6,169.8c0.1,1.1,0.1,2.1,0.2,3.2c0.1,2.3,0.1,4.7,0.1,7c0,1.1,0,2.1-0.1,3.2c0,0.2,0.3,0.2,0.3,0
			c0.2-4.4,0.1-8.9-0.2-13.3C372.9,169.6,372.6,169.6,372.6,169.8z"/>
		<path fill="#3E3935" d="M371.3,174.6c-0.3,4.3-0.6,8.7-1,13c0,0.2,0.3,0.2,0.3,0c0.3-4.3,0.6-8.7,1-13
			C371.6,174.5,371.3,174.5,371.3,174.6z"/>
		<path fill="#3E3935" d="M372.2,160.7c0-5.7,0.1-11.4,0.1-17c0-0.2-0.3-0.2-0.3,0c0,5.7-0.1,11.4-0.1,17
			C371.9,160.9,372.2,160.9,372.2,160.7z"/>
	</g>
	<g>
		<path fill="#3E3935" d="M373.9,158v4.9c0,0.2,0.3,0.2,0.3,0V158C374.2,157.8,373.9,157.8,373.9,158z"/>
		<path fill="#3E3935" d="M372.4,165.1c-0.3,1.6-0.5,3.3-0.8,4.9c0,0.2,0.3,0.2,0.3,0c0.3-1.6,0.5-3.3,0.8-4.9
			C372.7,164.9,372.4,164.9,372.4,165.1z"/>
		<path fill="#3E3935" d="M372.8,138.7c0.2-3.1,0.1-6.2,0-9.2c0-0.2-0.3-0.2-0.3,0c0.2,3.1,0.2,6.2,0,9.2
			C372.5,138.9,372.7,138.9,372.8,138.7z"/>
	</g>
	<g>
		<path fill="#3E3935" d="M371.6,138.2v-10.8c0-0.2-0.3-0.2-0.3,0v10.8C371.3,138.4,371.6,138.4,371.6,138.2z"/>
		<path fill="#3E3935" d="M364.5,132.5c0.2,0,0.2-0.3,0-0.3c-2.1-0.1-4.1-0.1-6.2-0.2c-0.2,0-0.2,0.3,0,0.3
			C360.4,132.3,362.4,132.4,364.5,132.5z"/>
		<path fill="#3E3935" d="M337.5,133.7c6,0,11.9,0,17.8,0.1c0.2,0,0.2-0.3,0-0.3c-6,0-11.9,0-17.8-0.1
			C337.3,133.4,337.3,133.7,337.5,133.7z"/>
		<path fill="#3E3935" d="M353.3,132.8c0.2,0,0.2-0.3,0-0.3c-4.3-0.1-8.7-0.2-13-0.3c-0.2,0-0.2,0.3,0,0.3
			C344.6,132.5,349,132.7,353.3,132.8z"/>
		<path fill="#CAC3BB" d="M391.1,133.4l2.1,0C392.5,133.4,391.8,133.4,391.1,133.4z"/>
		<path fill="#3E3935" d="M401.1,133.2c-6-0.2-12-0.1-18,0.1c-0.2,0-0.2,0.3,0,0.3c2.6-0.1,5.3-0.2,7.9-0.2c0.7,0,1.4,0,2.1,0
			c2.6,0,5.3,0,7.9,0.1C401.3,133.5,401.3,133.2,401.1,133.2z"/>
		<path fill="#3E3935" d="M390.1,131.8c0.2,0,0.2-0.3,0-0.3c-1.8-0.1-3.5,0-5.3,0.2c-0.2,0-0.1,0.3,0.1,0.3
			C386.7,131.8,388.4,131.7,390.1,131.8z"/>
		<path fill="#3E3935" d="M381.6,132.4c0.2,0,0.2-0.3,0-0.3c-0.9,0-1.8-0.1-2.7-0.1c-0.2,0-0.2,0.3,0,0.3
			C379.8,132.4,380.7,132.4,381.6,132.4z"/>
	</g>
	<path fill="#3E3935" d="M407.7,131.9h-7.8c-0.2,0-0.2,0.3,0,0.3h7.8C407.9,132.2,407.9,131.9,407.7,131.9z"/>
	<g>
		<path fill="#3E3935" d="M407.1,133.4h-1.5c-0.2,0-0.2,0.3,0,0.3h1.5C407.2,133.7,407.3,133.4,407.1,133.4z"/>
		<path fill="#9B938C" d="M167.2,285.3c1.9,0,4,0.2,6,0.9c4.3-8.3,65.5-126.1,70.2-135.2l-7.9-4.1l-72.8,138.8
			C163.8,285.5,165.4,285.3,167.2,285.3z"/>
		<path fill="#3E3935" d="M173.3,287.5c0.1,0,0.1,0,0.2,0c0.2,0,0.4-0.1,0.5-0.3c0.3-0.5,67.9-130.7,70.7-136.2
			c0.2-0.3,0-0.7-0.3-0.8l-8.9-4.7c-0.3-0.2-0.7,0-0.8,0.3l-73.7,140.4c-0.1,0.2-0.1,0.5,0.1,0.7c0.1,0.2,0.4,0.3,0.6,0.2
			C161.9,287,168.2,285.5,173.3,287.5z M243.4,151c-4.7,9-65.9,126.9-70.2,135.2c-2-0.7-4.1-0.9-6-0.9c-1.8,0-3.4,0.2-4.4,0.4
			l72.8-138.8L243.4,151z"/>
	</g>
	<polygon fill="#51B748" points="169,199.9 261.5,106.8 237.9,235.9 	"/>
	<g>
		<polygon fill="none" points="237.5,234.9 260.5,108.7 170.1,199.7 		"/>
		<path fill="#3E3935" d="M261.8,106.3c-0.2-0.1-0.5-0.1-0.7,0.1l-92.4,93c-0.1,0.1-0.2,0.3-0.2,0.5c0,0.2,0.1,0.4,0.3,0.4l68.9,36
			c0.1,0,0.2,0.1,0.3,0.1c0.1,0,0.2,0,0.3-0.1c0.2-0.1,0.3-0.2,0.3-0.4l23.5-129C262.1,106.7,262,106.4,261.8,106.3z M237.5,234.9
			l-67.4-35.2l90.5-91L237.5,234.9z"/>
	</g>
	
		<line fill="none" stroke="#3E3935" stroke-width="1.215" stroke-linecap="round" stroke-linejoin="round" stroke-miterlimit="10" x1="191.4" y1="188.7" x2="234.3" y2="211.1"/>
	
		<line fill="none" stroke="#3E3935" stroke-width="1.215" stroke-linecap="round" stroke-linejoin="round" stroke-miterlimit="10" x1="215.2" y1="163.7" x2="241.3" y2="177.4"/>
	
		<line fill="none" stroke="#3E3935" stroke-width="1.215" stroke-linecap="round" stroke-linejoin="round" stroke-miterlimit="10" x1="235.4" y1="146" x2="244.2" y2="150.7"/>
	<g>
		<path fill="#3E3935" d="M357.8,123.1c-0.1,0.3,0,0.7,0.3,0.8c0.7,0.3,53.6,23.6,111.9,36.5v-1.2c-58.1-12.9-110.7-36-111.4-36.4
			C358.3,122.7,357.9,122.8,357.8,123.1z"/>
		<path fill="#3E3935" d="M393.2,123.1c-0.2,0.3-0.1,0.7,0.2,0.8c0.4,0.3,32.1,19.4,76.6,31.2v-1.3c-44.2-11.8-75.6-30.7-76-31
			C393.7,122.7,393.3,122.8,393.2,123.1z"/>
		<path fill="#3E3935" d="M470,177.9c-67-13.5-125.3-54.5-126-55c-0.3-0.2-0.7-0.1-0.8,0.1c-0.2,0.3-0.1,0.7,0.1,0.8
			c0.2,0.2,23.5,16.6,57.1,32c18.8,8.6,43.2,18,69.6,23.2V177.9z"/>
		<path fill="#F94616" d="M259.9,198c4.9,0,8.8-3.9,8.8-8.8c0-4.9-3.9-8.8-8.8-8.8c-4.9,0-8.8,3.9-8.8,8.8
			C251.1,194.1,255.1,198,259.9,198z M253.9,191.9l4.9-8.5c0.6-1,1.5-1,2.1,0l4.9,8.5c0.6,1,0.1,1.8-1.1,1.8H255
			C253.8,193.7,253.3,192.9,253.9,191.9z"/>
		<path fill="#FFFFFF" d="M255,193.7h9.9c1.2,0,1.6-0.8,1.1-1.8l-4.9-8.5c-0.6-1-1.5-1-2.1,0l-4.9,8.5
			C253.3,192.9,253.8,193.7,255,193.7z M259.9,192.8c-0.5,0-0.9-0.4-0.9-0.9s0.4-0.9,0.9-0.9s0.9,0.4,0.9,0.9
			S260.4,192.8,259.9,192.8z M259.9,184c0.5,0,0.9,0.4,0.9,0.9l-0.5,5.2c0,0.2-0.2,0.4-0.4,0.4c-0.2,0-0.4-0.2-0.4-0.4l-0.5-5.2
			C259,184.4,259.4,184,259.9,184z"/>
		<circle fill="#FFFFFF" cx="259.9" cy="191.9" r="0.9"/>
		<circle fill="#231F20" cx="259.9" cy="191.9" r="0.9"/>
		<path fill="#FFFFFF" d="M259.9,190.4c0.2,0,0.4-0.2,0.4-0.4l0.5-5.2c0-0.5-0.4-0.9-0.9-0.9s-0.9,0.4-0.9,0.9l0.5,5.2
			C259.6,190.2,259.7,190.4,259.9,190.4z"/>
		<path fill="#231F20" d="M259.9,190.4c0.2,0,0.4-0.2,0.4-0.4l0.5-5.2c0-0.5-0.4-0.9-0.9-0.9s-0.9,0.4-0.9,0.9l0.5,5.2
			C259.6,190.2,259.7,190.4,259.9,190.4z"/>
	</g>
</g>
</svg>
