<?xml version="1.0" encoding="utf-8"?>
<!-- Generator: Adobe Illustrator 20.1.0, SVG Export Plug-In . SVG Version: 6.00 Build 0)  -->
<svg version="1.1" id="Layer_1" xmlns="http://www.w3.org/2000/svg" xmlns:xlink="http://www.w3.org/1999/xlink" x="0px" y="0px"
	 viewBox="0 0 284.4 213.84" style="enable-background:new 0 0 284.4 213.84;" xml:space="preserve">
<style type="text/css">
	.st0{fill:#F5F4F2;}
	.st1{fill:none;stroke:#3F3A36;stroke-width:2.139;stroke-linecap:round;stroke-linejoin:round;stroke-miterlimit:10;}
	
		.st2{clip-path:url(#SVGID_2_);fill:none;stroke:#3F3A36;stroke-width:2.139;stroke-linecap:round;stroke-linejoin:round;stroke-miterlimit:10;}
	.st3{fill:none;stroke:#3F3A36;stroke-width:2.139;stroke-linejoin:round;stroke-miterlimit:10;}
	.st4{clip-path:url(#SVGID_4_);fill:none;stroke:#3F3A36;stroke-width:2.139;stroke-linejoin:round;stroke-miterlimit:10;}
	
		.st5{clip-path:url(#SVGID_6_);fill:none;stroke:#3F3A36;stroke-width:2.139;stroke-linecap:round;stroke-linejoin:round;stroke-miterlimit:10;}
	
		.st6{clip-path:url(#SVGID_8_);fill:none;stroke:#3F3A36;stroke-width:2.139;stroke-linecap:round;stroke-linejoin:round;stroke-miterlimit:10;}
	
		.st7{clip-path:url(#SVGID_10_);fill:none;stroke:#3F3A36;stroke-width:2.139;stroke-linecap:round;stroke-linejoin:round;stroke-miterlimit:10;}
	
		.st8{clip-path:url(#SVGID_10_);fill:none;stroke:#05506D;stroke-width:2.139;stroke-linecap:round;stroke-linejoin:round;stroke-miterlimit:10;}
	
		.st9{clip-path:url(#SVGID_10_);fill:none;stroke:#51B848;stroke-width:2.139;stroke-linecap:round;stroke-linejoin:round;stroke-miterlimit:10;}
	.st10{fill:none;stroke:#05506D;stroke-width:2.139;stroke-linecap:round;stroke-linejoin:round;stroke-miterlimit:10;}
	.st11{fill:none;stroke:#51B848;stroke-width:2.139;stroke-linecap:round;stroke-linejoin:round;stroke-miterlimit:10;}
</style>
<rect class="st0" width="284.4" height="213.84"/>
<polyline class="st1" points="240.632,83.589 222.485,83.589 222.485,88.71 240.632,88.71 "/>
<g>
	<defs>
		<rect id="SVGID_1_" x="18" y="74.03" width="248.4" height="114.344"/>
	</defs>
	<clipPath id="SVGID_2_">
		<use xlink:href="#SVGID_1_"  style="overflow:visible;"/>
	</clipPath>
	<polyline class="st2" points="246.116,88.71 264.262,88.71 264.262,83.589 246.116,83.589 	"/>
	<rect x="240.632" y="76.168" class="st2" width="5.483" height="110.067"/>
	<path class="st2" d="M113.902,158.853c76.36,0,113.506-71.937,113.506-71.937s15.965,27.082,32.202,0.344"/>
	<rect x="37.442" y="146.532" class="st2" width="67.496" height="39.704"/>
</g>
<polyline class="st1" points="43.036,133.593 25.531,146.532 116.851,146.532 71.191,112.784 65.953,116.654 "/>
<polyline class="st3" points="104.939,137.762 104.939,118.736 93.028,118.736 93.028,128.972 "/>
<g>
	<defs>
		<rect id="SVGID_3_" x="18" y="74.03" width="248.4" height="114.344"/>
	</defs>
	<clipPath id="SVGID_4_">
		<use xlink:href="#SVGID_3_"  style="overflow:visible;"/>
	</clipPath>
	<rect x="49.353" y="158.443" class="st4" width="11.911" height="27.793"/>
</g>
<rect x="73.175" y="158.443" class="st3" width="19.852" height="11.911"/>
<line class="st1" x1="38.877" y1="90.761" x2="38.877" y2="92.843"/>
<line class="st1" x1="24.304" y1="94.868" x2="26.386" y2="96.95"/>
<line class="st1" x1="53.453" y1="92.78" x2="51.371" y2="94.862"/>
<g>
	<defs>
		<rect id="SVGID_5_" x="18" y="74.03" width="248.4" height="114.344"/>
	</defs>
	<clipPath id="SVGID_6_">
		<use xlink:href="#SVGID_5_"  style="overflow:visible;"/>
	</clipPath>
	<line class="st5" x1="20.139" y1="109.5" x2="22.221" y2="109.5"/>
	<path class="st5" d="M48.219,101.159c-2.291-2.579-5.622-4.212-9.34-4.212c-6.9,0-12.493,5.595-12.493,12.492
		c0,1.432,0.244,2.799,0.696,4.079"/>
</g>
<rect x="43.043" y="128.524" class="st1" width="6.246" height="10.124"/>
<line class="st1" x1="42" y1="109.5" x2="37.836" y2="128.238"/>
<line class="st1" x1="50.329" y1="109.5" x2="54.493" y2="128.238"/>
<line class="st3" x1="31.243" y1="115.746" x2="61.086" y2="115.746"/>
<line class="st3" x1="27.773" y1="121.992" x2="64.557" y2="121.992"/>
<polygon class="st1" points="34.713,109.5 57.615,109.5 68.026,128.238 24.302,128.238 "/>
<g>
	<defs>
		<rect id="SVGID_7_" x="18" y="74.03" width="248.4" height="114.344"/>
	</defs>
	<clipPath id="SVGID_8_">
		<use xlink:href="#SVGID_7_"  style="overflow:visible;"/>
	</clipPath>
	<line class="st6" x1="25.532" y1="186.235" x2="257.713" y2="186.235"/>
</g>
<rect x="104.938" y="154.286" class="st1" width="5.258" height="9.135"/>
<rect x="110.196" y="156.113" class="st1" width="3.707" height="5.481"/>
<g>
	<defs>
		<rect id="SVGID_9_" x="18" y="74.03" width="248.4" height="114.344"/>
	</defs>
	<clipPath id="SVGID_10_">
		<use xlink:href="#SVGID_9_"  style="overflow:visible;"/>
	</clipPath>
	<line class="st7" x1="108.247" y1="163.42" x2="108.247" y2="186.235"/>
	<path class="st8" d="M207.266,131.237c-14.557,13.902-30.718,24.248-47.929,30.804"/>
	<path class="st9" d="M149.837,141.022c14.571-5.317,28.259-13.994,40.941-25.98"/>
</g>
<polyline class="st10" points="162.169,164.678 157.471,162.745 159.405,158.048 "/>
<polyline class="st11" points="187.207,113.315 192.286,113.201 192.4,118.278 "/>
</svg>
