<?xml version="1.0" encoding="utf-8"?>
<!-- Generator: Adobe Illustrator 20.1.0, SVG Export Plug-In . SVG Version: 6.00 Build 0)  -->
<svg version="1.1" baseProfile="tiny" id="Layer_1" xmlns="http://www.w3.org/2000/svg" xmlns:xlink="http://www.w3.org/1999/xlink"
	 x="0px" y="0px" viewBox="0 0 284.4 213.8" xml:space="preserve">
<g>
	<rect fill="#F4F2F0" width="284.4" height="213.8"/>
	
		<polyline fill="none" stroke="#3F3A36" stroke-width="2.139" stroke-linecap="round" stroke-linejoin="round" stroke-miterlimit="10" points="
		240.6,83.6 222.5,83.6 222.5,88.7 240.6,88.7 	"/>
	
		<polyline fill="none" stroke="#3F3A36" stroke-width="2.139" stroke-linecap="round" stroke-linejoin="round" stroke-miterlimit="10" points="
		43,133.6 25.5,146.5 116.9,146.5 71.2,112.8 66,116.7 	"/>
	<polyline fill="none" stroke="#3F3A36" stroke-width="2.139" stroke-linejoin="round" stroke-miterlimit="10" points="104.9,137.8 
		104.9,118.7 93,118.7 93,129 	"/>
	
		<rect x="73.2" y="158.4" fill="none" stroke="#3F3A36" stroke-width="2.139" stroke-linejoin="round" stroke-miterlimit="10" width="19.9" height="11.9"/>
	
		<line fill="none" stroke="#3F3A36" stroke-width="2.139" stroke-linecap="round" stroke-linejoin="round" stroke-miterlimit="10" x1="38.9" y1="90.8" x2="38.9" y2="92.8"/>
	
		<line fill="none" stroke="#3F3A36" stroke-width="2.139" stroke-linecap="round" stroke-linejoin="round" stroke-miterlimit="10" x1="24.3" y1="94.9" x2="26.4" y2="97"/>
	
		<line fill="none" stroke="#3F3A36" stroke-width="2.139" stroke-linecap="round" stroke-linejoin="round" stroke-miterlimit="10" x1="53.5" y1="92.8" x2="51.4" y2="94.9"/>
	
		<rect x="43" y="128.5" fill="none" stroke="#3F3A36" stroke-width="2.139" stroke-linecap="round" stroke-linejoin="round" stroke-miterlimit="10" width="6.2" height="10.1"/>
	
		<line fill="none" stroke="#3F3A36" stroke-width="2.139" stroke-linecap="round" stroke-linejoin="round" stroke-miterlimit="10" x1="42" y1="109.5" x2="37.8" y2="128.2"/>
	
		<line fill="none" stroke="#3F3A36" stroke-width="2.139" stroke-linecap="round" stroke-linejoin="round" stroke-miterlimit="10" x1="50.3" y1="109.5" x2="54.5" y2="128.2"/>
	
		<line fill="none" stroke="#3F3A36" stroke-width="2.139" stroke-linejoin="round" stroke-miterlimit="10" x1="31.2" y1="115.7" x2="61.1" y2="115.7"/>
	
		<line fill="none" stroke="#3F3A36" stroke-width="2.139" stroke-linejoin="round" stroke-miterlimit="10" x1="27.8" y1="122" x2="64.6" y2="122"/>
	
		<polygon fill="none" stroke="#3F3A36" stroke-width="2.139" stroke-linecap="round" stroke-linejoin="round" stroke-miterlimit="10" points="
		34.7,109.5 57.6,109.5 68,128.2 24.3,128.2 	"/>
	<polygon fill="#51B748" points="123.8,114.8 123.8,115.5 124,116.1 124.5,116.3 161.4,116.3 159.7,118.1 159.4,118.6 159.7,119.1 
		160.1,119.6 160.7,119.8 161.2,119.6 165.1,115.7 165.3,115.2 165.1,114.6 161.2,110.7 160.7,110.5 160.1,110.7 159.7,111.2 
		159.4,111.7 159.7,112.3 161.4,114 124.5,114 124,114.2 	"/>
	<polygon fill="#02506D" points="226.5,158.6 226.5,157.8 226.3,157.3 225.8,157.1 188.9,157.1 190.6,155.3 190.9,154.8 
		190.6,154.2 190.2,153.8 189.6,153.5 189.1,153.8 185.2,157.7 185,158.2 185.2,158.8 189.1,162.6 189.6,162.9 190.2,162.6 
		190.6,162.2 190.9,161.7 190.6,161.1 188.9,159.4 225.8,159.4 226.3,159.1 	"/>
</g>
<g>
	<path fill="none" d="M258.1,87.6c0.2-0.3,0.4-0.6,0.6-0.9c0.3-0.5,1-0.7,1.5-0.4c0.4,0.3,0.6,0.8,0.4,1.3h2.6v-3h-16v3H258.1z"/>
	<path fill="none" d="M241.7,77.2v20.5c0.8,0.2,1.6,0.3,2.4,0.3c0,0,0,0,0.1,0c0.3,0,0.6,0,0.9,0V77.2H241.7z"/>
	<path fill="none" d="M247.2,97.5c3.3-1,6.4-3.6,9.5-7.7h-9.5V97.5z"/>
	<rect x="38.5" y="147.6" fill="none" width="65.4" height="37.6"/>
	<path fill="none" d="M245,185.2v-85.1c-0.3,0-0.6,0-0.9,0c0,0-0.1,0-0.1,0c-0.8,0-1.6-0.1-2.4-0.3v85.3H245z"/>
	<path fill="#3F3A36" d="M264.3,82.5h-17.1v2.1h16v3h-2.6c0,0.1,0,0.1-0.1,0.2c-0.4,0.7-0.8,1.3-1.3,2h5c0.6,0,1.1-0.5,1.1-1.1v-5.1
		C265.3,83,264.9,82.5,264.3,82.5z"/>
	<path fill="#3F3A36" d="M247.2,89.8h9.5c0.5-0.7,1-1.4,1.5-2.1h-10.9V89.8z"/>
	<path fill="#3F3A36" d="M241.7,77.2h3.3v20.7c0.7-0.1,1.4-0.2,2.1-0.4v-7.7v-2.1v-3v-2.1v-6.4c0-0.6-0.5-1.1-1.1-1.1h-5.5
		c-0.6,0-1.1,0.5-1.1,1.1V97c0.7,0.3,1.4,0.5,2.1,0.7V77.2z"/>
	<path fill="#3F3A36" d="M245,185.2h-3.3V99.9c-0.7-0.1-1.4-0.3-2.1-0.6v87c0,0.6,0.5,1.1,1.1,1.1h5.5c0.6,0,1.1-0.5,1.1-1.1V99.7
		c-0.7,0.2-1.4,0.3-2.1,0.3V185.2z"/>
	<path fill="#3F3A36" d="M260.6,87.6c0.2-0.5,0-1-0.4-1.3c-0.5-0.3-1.2-0.1-1.5,0.4c-0.2,0.3-0.4,0.6-0.6,0.9
		c-0.5,0.8-1,1.5-1.5,2.1c-3,4.2-6.2,6.8-9.5,7.7c-0.7,0.2-1.4,0.4-2.1,0.4c-0.3,0-0.6,0-0.9,0c0,0,0,0-0.1,0
		c-0.8,0-1.6-0.1-2.4-0.3c-0.7-0.2-1.4-0.4-2.1-0.7c-6.5-2.8-11.2-10.5-11.2-10.6c-0.2-0.3-0.5-0.5-1-0.5c-0.4,0-0.7,0.2-0.9,0.6
		c-0.1,0.2-9.5,18.1-28,35.7c-17,16.3-45.5,35.6-84.6,35.6c-0.6,0-1.1,0.5-1.1,1.1s0.5,1.1,1.1,1.1c39.8,0,68.8-19.7,86.1-36.3
		c15.5-14.8,24.7-29.9,27.5-34.7c1.9,2.7,6.3,8.2,12.1,10.3c0.7,0.2,1.4,0.4,2.1,0.6c0.8,0.2,1.6,0.3,2.4,0.3c0,0,0.1,0,0.1,0
		c0.3,0,0.6,0,0.9,0c0.7-0.1,1.4-0.2,2.1-0.3c4.3-1.1,8.3-4.4,12.1-10c0.4-0.6,0.8-1.3,1.3-2C260.6,87.8,260.6,87.7,260.6,87.6z"/>
	<path fill="#3F3A36" d="M104.9,187.3c0.6,0,1.1-0.5,1.1-1.1v-39.7c0-0.6-0.5-1.1-1.1-1.1H37.4c-0.6,0-1.1,0.5-1.1,1.1v39.7
		c0,0.6,0.5,1.1,1.1,1.1H104.9z M38.5,147.6h65.4v37.6H38.5V147.6z"/>
</g>
<g>
	<rect x="50.4" y="159.5" fill="none" width="9.8" height="25.7"/>
	<path fill="#3F3A36" d="M61.3,157.4H49.4c-0.6,0-1.1,0.5-1.1,1.1v27.8c0,0.6,0.5,1.1,1.1,1.1h11.9c0.6,0,1.1-0.5,1.1-1.1v-27.8
		C62.3,157.9,61.9,157.4,61.3,157.4z M60.2,185.2h-9.8v-25.7h9.8V185.2z"/>
</g>
<g>
	<path fill="#3F3A36" d="M22.2,110.6c0.6,0,1.1-0.5,1.1-1.1s-0.5-1.1-1.1-1.1h-2.1c-0.6,0-1.1,0.5-1.1,1.1s0.5,1.1,1.1,1.1H22.2z"/>
	<path fill="#3F3A36" d="M38.9,95.9c-7.5,0-13.6,6.1-13.6,13.6c0,1.5,0.3,3,0.8,4.4c0.2,0.4,0.6,0.7,1,0.7c0.1,0,0.2,0,0.4-0.1
		c0.6-0.2,0.8-0.8,0.7-1.4c-0.4-1.2-0.6-2.4-0.6-3.7c0-6.3,5.1-11.4,11.4-11.4c3.3,0,6.4,1.4,8.5,3.9c0.4,0.4,1.1,0.5,1.5,0.1
		c0.4-0.4,0.5-1.1,0.1-1.5C46.4,97.5,42.7,95.9,38.9,95.9z"/>
</g>
<path fill="#3F3A36" d="M257.7,185.2H25.5c-0.6,0-1.1,0.5-1.1,1.1s0.5,1.1,1.1,1.1h232.2c0.6,0,1.1-0.5,1.1-1.1
	S258.3,185.2,257.7,185.2z"/>
<g>
	<polygon fill="none" points="109.1,161.6 109.1,161.6 109.1,156.1 109.1,156.1 109.1,155.4 106,155.4 106,162.4 108.2,162.4 
		109.1,162.4 	"/>
	<path fill="none" d="M129.6,102.2c0-1.4-1-2.4-2.4-2.4c-1.4,0-2.4,1-2.4,2.4c0,1.4,1,2.4,2.4,2.4
		C128.6,104.6,129.6,103.6,129.6,102.2z"/>
	<path fill="none" d="M154.7,103.4c0-0.9-0.6-1.5-1.5-1.5s-1.5,0.6-1.5,1.5c0,0.9,0.6,1.5,1.5,1.5S154.7,104.3,154.7,103.4z"/>
	<rect x="111.3" y="157.2" fill="none" width="1.6" height="3.3"/>
	<path fill="none" d="M213,147c0-0.9-0.6-1.5-1.5-1.5s-1.5,0.6-1.5,1.5c0,0.9,0.6,1.5,1.5,1.5S213,147.9,213,147z"/>
	<path fill="#51B748" d="M131.2,102.2c0-2.3-1.7-3.9-3.9-3.9c-2.3,0-3.9,1.7-3.9,3.9c0,2.3,1.7,3.9,3.9,3.9
		C129.5,106.2,131.2,104.5,131.2,102.2z M124.9,102.2c0-1.4,1-2.4,2.4-2.4c1.4,0,2.4,1,2.4,2.4c0,1.4-1,2.4-2.4,2.4
		C125.9,104.6,124.9,103.6,124.9,102.2z"/>
	<path fill="#51B748" d="M132.1,100.6v3.5c0,1.4,0.6,2.3,2,2.3c0.9,0,1.4-0.4,1.8-1v0.9h1.4v-5.6h-1.5v2.7c0,1-0.4,1.6-1.2,1.6
		c-0.7,0-0.9-0.4-0.9-1.2v-3.1H132.1z"/>
	<path fill="#51B748" d="M139.1,99v1.5h-1v1.3h1v2.7c0,1.3,0.6,1.8,1.7,1.8c0.4,0,0.8-0.1,1.2-0.2v-1.4c-0.4,0.1-0.6,0.1-0.8,0.1
		c-0.4,0-0.6-0.1-0.6-0.5v-2.4h1.4v-1.3h-1.4V99H139.1z"/>
	<path fill="#51B748" d="M146,99.6c0.3,0,0.5,0,0.9,0.1v-1.4c-0.4-0.1-0.7-0.1-1.1-0.1c-1.2,0-2,0.6-2,2.1v0.3h-1.1v1.3h1.1v4.4h1.5
		v-4.4h1.6v-1.3h-1.6v-0.1C145.2,99.8,145.4,99.6,146,99.6z"/>
	<rect x="147.7" y="98.3" fill="#51B748" width="1.5" height="7.9"/>
	<path fill="#51B748" d="M156.2,103.4c0-1.8-1.3-3-3-3s-3,1.2-3,3c0,1.8,1.3,3,3,3S156.2,105.1,156.2,103.4z M151.7,103.4
		c0-0.9,0.6-1.5,1.5-1.5s1.5,0.6,1.5,1.5c0,0.9-0.6,1.5-1.5,1.5S151.7,104.3,151.7,103.4z"/>
	<polygon fill="#51B748" points="161.4,102.8 162.8,106.2 163.9,106.2 166.2,100.6 164.6,100.6 163.3,103.9 162,100.6 160.8,100.6 
		159.4,103.9 158.2,100.6 156.6,100.6 158.8,106.2 160,106.2 	"/>
	<rect x="191.5" y="141.9" fill="#02506D" width="1.6" height="7.9"/>
	<path fill="#02506D" d="M194.6,144.2v5.6h1.5v-2.7c0-1,0.4-1.6,1.2-1.6c0.6,0,1,0.4,1,1.2v3.1h1.5v-3.5c0-1.4-0.7-2.3-2-2.3
		c-0.8,0-1.4,0.4-1.8,0.9v-0.8H194.6z"/>
	<path fill="#02506D" d="M204.3,143.2c0.3,0,0.5,0,0.9,0.1v-1.4c-0.4-0.1-0.7-0.1-1.1-0.1c-1.2,0-2,0.6-2,2.1v0.3h-1.1v1.3h1.1v4.4
		h1.5v-4.4h1.6v-1.3h-1.6V144C203.5,143.4,203.7,143.2,204.3,143.2z"/>
	<rect x="206" y="141.9" fill="#02506D" width="1.5" height="7.9"/>
	<path fill="#02506D" d="M214.5,147c0-1.8-1.3-3-3-3s-3,1.2-3,3c0,1.8,1.3,3,3,3S214.5,148.7,214.5,147z M210,147
		c0-0.9,0.6-1.5,1.5-1.5s1.5,0.6,1.5,1.5c0,0.9-0.6,1.5-1.5,1.5S210,147.9,210,147z"/>
	<polygon fill="#02506D" points="221.2,147.5 219.9,144.1 218.7,144.1 217.3,147.5 216.1,144.1 214.4,144.1 216.7,149.8 
		217.9,149.8 219.3,146.4 220.7,149.8 221.8,149.8 224.1,144.1 222.5,144.1 	"/>
	<rect x="111.3" y="157.2" fill="#3F3A36" width="0" height="3.3"/>
	<path fill="#3F3A36" d="M110.2,153.2h-5.3c-0.6,0-1.1,0.5-1.1,1.1v9.1c0,0.6,0.5,1.1,1.1,1.1h2.2v-1.1c0-0.6,0.5-1.1,1.1-1.1H106
		v-7h3.1v0.8c0-0.6,0.5-1.1,1.1-1.1h1.1v-0.8C111.3,153.7,110.8,153.2,110.2,153.2z"/>
	<path fill="#3F3A36" d="M109.1,161.6v0.8h-0.9c0.6,0,1.1,0.5,1.1,1.1v1.1h0.9c0.6,0,1.1-0.5,1.1-1.1v-0.8h-1.1
		C109.6,162.7,109.1,162.2,109.1,161.6z"/>
	<path fill="#3F3A36" d="M109.1,156.1C109.1,156.1,109.1,156.1,109.1,156.1l0,5.5c0,0,0,0,0,0c0,0.6,0.5,1.1,1.1,1.1h1.1h2.6
		c0.6,0,1.1-0.5,1.1-1.1v-5.5c0-0.6-0.5-1.1-1.1-1.1h-2.6h-1.1C109.6,155,109.1,155.5,109.1,156.1z M111.3,157.2L111.3,157.2h1.6
		v3.3h-1.6h0V157.2z"/>
	<path fill="#3F3A36" d="M108.2,162.4c-0.6,0-1.1,0.5-1.1,1.1v1.1v21.7c0,0.6,0.5,1.1,1.1,1.1s1.1-0.5,1.1-1.1v-21.7v-1.1
		C109.3,162.8,108.8,162.4,108.2,162.4z"/>
</g>
</svg>
