<?xml version="1.0" encoding="utf-8"?>
<!-- Generator: Adobe Illustrator 20.1.0, SVG Export Plug-In . SVG Version: 6.00 Build 0)  -->
<svg version="1.1" id="Layer_1" xmlns="http://www.w3.org/2000/svg" xmlns:xlink="http://www.w3.org/1999/xlink" x="0px" y="0px"
	 viewBox="0 0 470 295" style="enable-background:new 0 0 470 295;" xml:space="preserve">
<style type="text/css">
	.st0{clip-path:url(#SVGID_2_);fill:#231F20;}
	
		.st1{clip-path:url(#SVGID_2_);fill:none;stroke:#004F6C;stroke-width:3;stroke-linecap:round;stroke-linejoin:round;stroke-miterlimit:10;}
</style>
<g>
	<g>
		<defs>
			<rect id="SVGID_1_" width="433.9" height="261.8"/>
		</defs>
		<clipPath id="SVGID_2_">
			<use xlink:href="#SVGID_1_"  style="overflow:visible;"/>
		</clipPath>
		<path class="st0" d="M265.6,111.5h-1.3v1.3h1.3V111.5z M259.2,115.5c0.4,0,0.7-0.1,0.9-0.3c0.3-0.2,0.5-0.5,0.7-0.8
			c0.2-0.3,0.4-0.8,0.6-1.5l2.6-6.9h-1.1l-1.4,3.9c-0.2,0.5-0.3,1-0.5,1.5c-0.1-0.5-0.3-1.1-0.5-1.6l-1.4-3.9h-1.2l2.6,6.8
			c0,0.1-0.1,0.2-0.1,0.3c-0.2,0.5-0.3,0.7-0.3,0.9c-0.1,0.2-0.2,0.3-0.4,0.4c-0.2,0.1-0.4,0.1-0.6,0.1c-0.2,0-0.4,0-0.7-0.1
			l0.1,1.1C258.7,115.5,258.9,115.5,259.2,115.5 M256.9,111.8c-0.2,0-0.3,0-0.4-0.1c-0.1-0.1-0.2-0.1-0.2-0.2c0-0.1-0.1-0.3-0.1-0.6
			v-3.9h1.1v-0.9h-1.1v-2.4l-1.1,0.7v1.7h-0.8v0.9h0.8v3.9c0,0.7,0,1.1,0.1,1.3c0.1,0.2,0.3,0.4,0.5,0.5c0.2,0.1,0.5,0.2,1,0.2
			c0.3,0,0.5,0,0.9-0.1l-0.2-1C257.2,111.8,257,111.8,256.9,111.8 M253.1,106.1H252v6.7h1.1V106.1z M253.1,103.5H252v1.3h1.1V103.5z
			 M250.2,103.5h-1.1v9.3h1.1V103.5z M247.3,106.1h-1.1v6.7h1.1V106.1z M247.3,103.5h-1.1v1.3h1.1V103.5z M244.6,111.8
			c-0.2,0-0.3,0-0.4-0.1c-0.1-0.1-0.2-0.1-0.2-0.2c0-0.1-0.1-0.3-0.1-0.6v-3.9h1.1v-0.9h-1.1v-2.4l-1.1,0.7v1.7H242v0.9h0.8v3.9
			c0,0.7,0,1.1,0.1,1.3c0.1,0.2,0.3,0.4,0.5,0.5c0.2,0.1,0.5,0.2,1,0.2c0.3,0,0.5,0,0.9-0.1l-0.2-1
			C244.9,111.8,244.7,111.8,244.6,111.8 M240.8,112.8v-6.7h-1.1v3.6c0,0.6-0.1,1-0.2,1.3c-0.1,0.3-0.3,0.5-0.6,0.7
			c-0.3,0.2-0.6,0.3-1,0.3s-0.6-0.1-0.9-0.3c-0.2-0.2-0.4-0.4-0.5-0.7c0-0.2-0.1-0.6-0.1-1.2v-3.7h-1.1v4.2c0,0.5,0,0.8,0.1,1.1
			c0.1,0.3,0.2,0.6,0.4,0.8c0.2,0.2,0.4,0.4,0.8,0.6c0.3,0.2,0.7,0.2,1.1,0.2c0.9,0,1.6-0.4,2.1-1.1v1H240.8z M228.5,112.8v-3.5
			c0-0.5,0.1-0.9,0.2-1.3c0.1-0.3,0.2-0.5,0.4-0.6c0.2-0.1,0.4-0.2,0.7-0.2c0.3,0,0.6,0.1,0.8,0.2l0.4-1.1c-0.4-0.2-0.8-0.4-1.2-0.4
			c-0.3,0-0.5,0.1-0.7,0.2c-0.2,0.2-0.5,0.5-0.7,0.9v-1h-1v6.7H228.5z M221.6,107.4c0.4-0.4,0.8-0.5,1.3-0.5c0.6,0,1.1,0.2,1.4,0.7
			c0.2,0.3,0.4,0.7,0.4,1.3h-3.8C221.1,108.2,221.3,107.7,221.6,107.4 M224.1,111.7c-0.3,0.2-0.7,0.3-1.1,0.3c-0.6,0-1-0.2-1.4-0.6
			c-0.4-0.4-0.6-1-0.6-1.7h5c0-0.1,0-0.2,0-0.3c0-1.1-0.3-2-0.9-2.6c-0.6-0.6-1.3-0.9-2.2-0.9c-0.9,0-1.7,0.3-2.3,0.9
			c-0.6,0.6-0.9,1.5-0.9,2.6c0,1.1,0.3,1.9,0.9,2.6c0.6,0.6,1.4,0.9,2.3,0.9c0.8,0,1.4-0.2,1.9-0.6c0.5-0.4,0.8-0.9,1-1.6l-1.2-0.1
			C224.6,111.1,224.4,111.5,224.1,111.7 M214.1,112.8v-3.7c0-0.5,0.1-0.9,0.2-1.2c0.1-0.3,0.3-0.5,0.6-0.7c0.3-0.2,0.6-0.3,1-0.3
			c0.5,0,0.8,0.1,1.1,0.4c0.2,0.3,0.4,0.7,0.4,1.2v4.3h1.1v-4.3c0-0.7-0.1-1.2-0.2-1.5c-0.2-0.3-0.4-0.6-0.8-0.8
			c-0.4-0.2-0.8-0.3-1.3-0.3c-0.8,0-1.5,0.3-2,0.9v-3.3H213v9.3H214.1z M211.3,111.8c-0.2,0-0.3,0-0.4-0.1c-0.1-0.1-0.2-0.1-0.2-0.2
			c0-0.1-0.1-0.3-0.1-0.6v-3.9h1.1v-0.9h-1.1v-2.4l-1.1,0.7v1.7h-0.8v0.9h0.8v3.9c0,0.7,0,1.1,0.1,1.3c0.1,0.2,0.3,0.4,0.5,0.5
			c0.2,0.1,0.6,0.2,1,0.2c0.3,0,0.5,0,0.9-0.1l-0.2-1C211.6,111.8,211.5,111.8,211.3,111.8 M203.4,107.5c0.4-0.4,0.9-0.6,1.4-0.6
			c0.6,0,1,0.2,1.4,0.6c0.4,0.4,0.6,1.1,0.6,1.9c0,0.9-0.2,1.5-0.6,2c-0.4,0.4-0.8,0.6-1.4,0.6c-0.6,0-1-0.2-1.4-0.6
			c-0.4-0.4-0.6-1.1-0.6-1.9C202.9,108.6,203.1,107.9,203.4,107.5 M202.6,112c0.6,0.6,1.3,0.9,2.3,0.9c0.6,0,1.1-0.1,1.6-0.4
			c0.5-0.3,0.9-0.7,1.1-1.2c0.3-0.5,0.4-1.2,0.4-2c0-1.1-0.3-1.9-0.9-2.5c-0.6-0.6-1.3-0.9-2.3-0.9c-0.8,0-1.5,0.2-2.1,0.7
			c-0.7,0.6-1,1.5-1,2.8C201.7,110.6,202,111.4,202.6,112 M196,112.8v-3.7c0-0.9,0.2-1.4,0.5-1.8c0.4-0.3,0.8-0.5,1.3-0.5
			c0.3,0,0.6,0.1,0.8,0.2c0.2,0.1,0.4,0.3,0.5,0.6c0.1,0.2,0.1,0.6,0.1,1v4.1h1.1v-4.1c0-0.5,0-0.9-0.1-1.1
			c-0.1-0.3-0.2-0.6-0.4-0.8s-0.4-0.4-0.8-0.6c-0.3-0.1-0.7-0.2-1.1-0.2c-0.9,0-1.7,0.4-2.1,1.1v-1h-1v6.7H196z M192,109.8
			c0,0.5-0.1,0.9-0.2,1.1c-0.2,0.3-0.4,0.6-0.8,0.8c-0.3,0.2-0.7,0.3-1.2,0.3c-0.4,0-0.8-0.1-1-0.3c-0.2-0.2-0.3-0.5-0.3-0.8
			c0-0.2,0.1-0.4,0.2-0.5c0.1-0.2,0.3-0.3,0.5-0.4c0.2-0.1,0.5-0.2,1-0.2c0.8-0.1,1.5-0.3,1.9-0.4V109.8z M192.3,112.8h1.2
			c-0.1-0.3-0.2-0.5-0.3-0.8c0-0.3-0.1-1-0.1-2v-1.5c0-0.5,0-0.9-0.1-1.1c-0.1-0.3-0.2-0.6-0.4-0.8c-0.2-0.2-0.4-0.4-0.8-0.5
			c-0.4-0.1-0.8-0.2-1.4-0.2c-0.6,0-1.1,0.1-1.5,0.2c-0.4,0.2-0.8,0.4-1,0.7c-0.2,0.3-0.4,0.7-0.5,1.2l1.1,0.2
			c0.1-0.5,0.3-0.8,0.6-1c0.3-0.2,0.7-0.3,1.2-0.3c0.6,0,1,0.1,1.3,0.4c0.2,0.2,0.3,0.5,0.3,1c0,0,0,0.1,0,0.3
			c-0.4,0.2-1.1,0.3-2,0.4c-0.5,0.1-0.8,0.1-1,0.2c-0.3,0.1-0.6,0.2-0.8,0.4c-0.2,0.2-0.4,0.4-0.6,0.7c-0.1,0.3-0.2,0.6-0.2,0.9
			c0,0.6,0.2,1,0.6,1.4c0.4,0.4,1,0.5,1.7,0.5c0.4,0,0.9-0.1,1.3-0.2c0.4-0.1,0.8-0.4,1.2-0.8C192.1,112.3,192.2,112.6,192.3,112.8
			 M178.2,115.5c0.4,0,0.7-0.1,0.9-0.3c0.3-0.2,0.5-0.5,0.7-0.8c0.2-0.3,0.4-0.8,0.6-1.5l2.6-6.9h-1.1l-1.4,3.9
			c-0.2,0.5-0.3,1-0.5,1.5c-0.1-0.5-0.3-1.1-0.5-1.6l-1.4-3.9h-1.2l2.6,6.8c0,0.1-0.1,0.2-0.1,0.3c-0.2,0.5-0.3,0.7-0.3,0.9
			c-0.1,0.2-0.2,0.3-0.4,0.4c-0.2,0.1-0.4,0.1-0.6,0.1c-0.2,0-0.4,0-0.7-0.1l0.1,1.1C177.8,115.5,178,115.5,178.2,115.5
			 M171.9,107.5c0.4-0.4,0.8-0.7,1.3-0.7c0.5,0,0.9,0.2,1.3,0.6c0.3,0.4,0.5,1.1,0.5,1.9c0,0.9-0.2,1.5-0.5,1.9
			c-0.4,0.4-0.8,0.7-1.3,0.7c-0.6,0-1.1-0.3-1.5-0.9c-0.2-0.4-0.3-0.9-0.3-1.8C171.4,108.6,171.5,107.9,171.9,107.5 M171.4,112
			c0.5,0.7,1.1,1,1.9,1c0.8,0,1.5-0.3,2.1-0.9c0.6-0.6,0.9-1.5,0.9-2.7c0-0.5-0.1-0.9-0.2-1.4c-0.1-0.4-0.3-0.8-0.6-1.1
			c-0.2-0.3-0.5-0.5-0.9-0.7c-0.4-0.2-0.8-0.3-1.2-0.3c-0.8,0-1.4,0.3-1.8,0.9v-3.3h-1.1v9.3h1.1V112z M160.7,107.5
			c0.3-0.4,0.8-0.6,1.3-0.6c0.5,0,1,0.2,1.3,0.6c0.4,0.4,0.5,1.1,0.5,2c0,0.8-0.2,1.5-0.5,1.9c-0.3,0.4-0.8,0.6-1.3,0.6
			c-0.5,0-0.9-0.2-1.3-0.6c-0.4-0.4-0.5-1.1-0.5-1.9C160.2,108.5,160.4,107.9,160.7,107.5 M164.9,112.8v-9.3h-1.1v3.3
			c-0.2-0.3-0.5-0.5-0.8-0.7c-0.3-0.2-0.7-0.3-1.1-0.3c-0.6,0-1.1,0.1-1.5,0.4c-0.4,0.3-0.8,0.7-1,1.3c-0.2,0.5-0.3,1.2-0.3,1.8
			c0,0.7,0.1,1.3,0.4,1.8c0.2,0.5,0.6,0.9,1,1.2c0.5,0.3,0.9,0.4,1.5,0.4c0.8,0,1.5-0.3,1.9-1v0.9H164.9z M153.7,107.4
			c0.4-0.4,0.8-0.5,1.3-0.5c0.6,0,1.1,0.2,1.4,0.7c0.2,0.3,0.4,0.7,0.4,1.3h-3.8C153.1,108.2,153.3,107.7,153.7,107.4 M156.2,111.7
			c-0.3,0.2-0.7,0.3-1.1,0.3c-0.6,0-1-0.2-1.4-0.6c-0.4-0.4-0.6-1-0.6-1.7h5c0-0.1,0-0.2,0-0.3c0-1.1-0.3-2-0.9-2.6
			s-1.3-0.9-2.2-0.9c-0.9,0-1.7,0.3-2.3,0.9c-0.6,0.6-0.9,1.5-0.9,2.6c0,1.1,0.3,1.9,0.9,2.6c0.6,0.6,1.4,0.9,2.3,0.9
			c0.8,0,1.4-0.2,1.9-0.6c0.5-0.4,0.8-0.9,1-1.6l-1.2-0.1C156.7,111.1,156.4,111.5,156.2,111.7 M146.9,112.8v-2.7l0.8-0.8l2.2,3.4
			h1.4l-2.8-4.2l2.6-2.5h-1.5l-2.7,2.7v-5.3h-1.1v9.3H146.9z M139.7,112.4c0.5,0.4,1.1,0.5,2,0.5c0.5,0,1-0.1,1.4-0.3
			c0.4-0.2,0.7-0.4,1-0.8c0.2-0.3,0.3-0.7,0.3-1.1c0-0.4-0.1-0.7-0.3-1c-0.2-0.3-0.4-0.5-0.8-0.6c-0.3-0.1-0.9-0.3-1.7-0.5
			c-0.6-0.2-0.9-0.2-1-0.3c-0.2-0.1-0.3-0.2-0.4-0.3c-0.1-0.1-0.1-0.3-0.1-0.4c0-0.2,0.1-0.4,0.3-0.6c0.2-0.2,0.6-0.3,1.1-0.3
			c0.4,0,0.8,0.1,1,0.3c0.2,0.2,0.4,0.5,0.4,0.8l1.1-0.2c-0.1-0.4-0.2-0.8-0.4-1c-0.2-0.3-0.5-0.5-0.9-0.6c-0.4-0.2-0.9-0.2-1.4-0.2
			c-0.4,0-0.7,0-1,0.1c-0.3,0.1-0.5,0.2-0.7,0.3c-0.2,0.2-0.4,0.4-0.6,0.6s-0.2,0.5-0.2,0.8c0,0.3,0.1,0.6,0.2,0.9
			c0.2,0.3,0.4,0.5,0.7,0.6c0.3,0.2,0.9,0.3,1.7,0.6c0.6,0.2,1,0.3,1.2,0.4c0.2,0.1,0.3,0.4,0.3,0.6c0,0.3-0.1,0.5-0.4,0.8
			c-0.3,0.2-0.6,0.3-1.2,0.3c-0.5,0-0.9-0.1-1.2-0.4c-0.3-0.2-0.5-0.6-0.5-1l-1.1,0.2C138.9,111.5,139.2,112,139.7,112.4
			 M136.3,109.8c0,0.5-0.1,0.9-0.2,1.1c-0.2,0.3-0.4,0.6-0.8,0.8c-0.3,0.2-0.7,0.3-1.2,0.3c-0.4,0-0.8-0.1-1-0.3
			c-0.2-0.2-0.3-0.5-0.3-0.8c0-0.2,0.1-0.4,0.2-0.5c0.1-0.2,0.3-0.3,0.5-0.4c0.2-0.1,0.5-0.2,1-0.2c0.8-0.1,1.5-0.3,1.9-0.4V109.8z
			 M136.6,112.8h1.2c-0.1-0.3-0.2-0.5-0.3-0.8c0-0.3-0.1-1-0.1-2v-1.5c0-0.5,0-0.9-0.1-1.1c-0.1-0.3-0.2-0.6-0.4-0.8
			c-0.2-0.2-0.4-0.4-0.8-0.5c-0.4-0.1-0.8-0.2-1.4-0.2c-0.6,0-1.1,0.1-1.5,0.2c-0.4,0.2-0.8,0.4-1,0.7c-0.2,0.3-0.4,0.7-0.5,1.2
			l1.1,0.2c0.1-0.5,0.3-0.8,0.6-1c0.3-0.2,0.7-0.3,1.2-0.3c0.6,0,1,0.1,1.3,0.4c0.2,0.2,0.3,0.5,0.3,1c0,0,0,0.1,0,0.3
			c-0.4,0.2-1.1,0.3-2,0.4c-0.5,0.1-0.8,0.1-1,0.2c-0.3,0.1-0.6,0.2-0.8,0.4c-0.2,0.2-0.4,0.4-0.6,0.7c-0.2,0.3-0.2,0.6-0.2,0.9
			c0,0.6,0.2,1,0.6,1.4c0.4,0.4,1,0.5,1.7,0.5c0.4,0,0.9-0.1,1.3-0.2c0.4-0.1,0.8-0.4,1.2-0.8C136.4,112.3,136.5,112.6,136.6,112.8
			 M126.2,112.8v-5.9h1.3v-0.9h-1.3v-0.6c0-0.4,0.1-0.7,0.2-0.8c0.1-0.1,0.4-0.2,0.7-0.2c0.2,0,0.4,0,0.7,0.1l0.2-1
			c-0.4-0.1-0.7-0.1-1.1-0.1c-0.5,0-0.9,0.1-1.2,0.3c-0.3,0.2-0.5,0.4-0.6,0.7c-0.1,0.2-0.1,0.6-0.1,1v0.7h-1v0.9h1v5.9H126.2z
			 M123,106.1h-1.1v6.7h1.1V106.1z M123,103.5h-1.1v1.3h1.1V103.5z M115.1,112.8v-3.5c0-0.5,0.1-0.9,0.2-1.3
			c0.1-0.3,0.2-0.5,0.4-0.6c0.2-0.1,0.4-0.2,0.7-0.2c0.3,0,0.6,0.1,0.8,0.2l0.4-1.1c-0.4-0.2-0.8-0.4-1.2-0.4
			c-0.3,0-0.5,0.1-0.7,0.2c-0.2,0.2-0.5,0.5-0.7,0.9v-1h-1v6.7H115.1z M108.2,107.4c0.4-0.4,0.8-0.5,1.3-0.5c0.6,0,1.1,0.2,1.4,0.7
			c0.2,0.3,0.4,0.7,0.4,1.3h-3.8C107.6,108.2,107.8,107.7,108.2,107.4 M110.6,111.7c-0.3,0.2-0.7,0.3-1.1,0.3c-0.6,0-1-0.2-1.4-0.6
			c-0.4-0.4-0.6-1-0.6-1.7h5c0-0.1,0-0.2,0-0.3c0-1.1-0.3-2-0.9-2.6c-0.6-0.6-1.3-0.9-2.2-0.9c-0.9,0-1.7,0.3-2.3,0.9
			c-0.6,0.6-0.9,1.5-0.9,2.6c0,1.1,0.3,1.9,0.9,2.6c0.6,0.6,1.4,0.9,2.3,0.9c0.8,0,1.4-0.2,1.9-0.6c0.5-0.4,0.8-0.9,1-1.6l-1.2-0.1
			C111.2,111.1,110.9,111.5,110.6,111.7 M105.1,111.8c-0.2,0-0.3,0-0.4-0.1c-0.1-0.1-0.2-0.1-0.2-0.2s-0.1-0.3-0.1-0.6v-3.9h1.1
			v-0.9h-1.1v-2.4l-1.1,0.7v1.7h-0.8v0.9h0.8v3.9c0,0.7,0,1.1,0.1,1.3c0.1,0.2,0.3,0.4,0.5,0.5c0.2,0.1,0.6,0.2,1,0.2
			c0.3,0,0.5,0,0.9-0.1l-0.2-1C105.4,111.8,105.2,111.8,105.1,111.8 M101.5,111.8c-0.2,0-0.3,0-0.4-0.1c-0.1-0.1-0.2-0.1-0.2-0.2
			s-0.1-0.3-0.1-0.6v-3.9h1.1v-0.9h-1.1v-2.4l-1.1,0.7v1.7h-0.8v0.9h0.8v3.9c0,0.7,0,1.1,0.1,1.3c0.1,0.2,0.3,0.4,0.5,0.5
			c0.2,0.1,0.6,0.2,1,0.2c0.3,0,0.5,0,0.9-0.1l-0.2-1C101.8,111.8,101.6,111.8,101.5,111.8 M93.7,107.4c0.4-0.4,0.8-0.5,1.3-0.5
			c0.6,0,1.1,0.2,1.4,0.7c0.2,0.3,0.4,0.7,0.4,1.3h-3.8C93.2,108.2,93.4,107.7,93.7,107.4 M96.2,111.7c-0.3,0.2-0.7,0.3-1.1,0.3
			c-0.6,0-1-0.2-1.4-0.6c-0.4-0.4-0.6-1-0.6-1.7h5c0-0.1,0-0.2,0-0.3c0-1.1-0.3-2-0.9-2.6c-0.6-0.6-1.3-0.9-2.2-0.9
			c-0.9,0-1.7,0.3-2.3,0.9c-0.6,0.6-0.9,1.5-0.9,2.6c0,1.1,0.3,1.9,0.9,2.6c0.6,0.6,1.4,0.9,2.3,0.9c0.8,0,1.4-0.2,1.9-0.6
			c0.5-0.4,0.8-0.9,1-1.6l-1.2-0.1C96.7,111.1,96.5,111.5,96.2,111.7 M90.5,103.5h-1.1v9.3h1.1V103.5z M80,107.4
			c0.4-0.4,0.8-0.5,1.3-0.5c0.6,0,1.1,0.2,1.4,0.7c0.2,0.3,0.4,0.7,0.4,1.3h-3.8C79.4,108.2,79.6,107.7,80,107.4 M82.5,111.7
			c-0.3,0.2-0.7,0.3-1.1,0.3c-0.6,0-1-0.2-1.4-0.6c-0.4-0.4-0.6-1-0.6-1.7h5c0-0.1,0-0.2,0-0.3c0-1.1-0.3-2-0.9-2.6
			c-0.6-0.6-1.3-0.9-2.2-0.9c-0.9,0-1.7,0.3-2.3,0.9c-0.6,0.6-0.9,1.5-0.9,2.6c0,1.1,0.3,1.9,0.9,2.6c0.6,0.6,1.4,0.9,2.3,0.9
			c0.8,0,1.4-0.2,1.9-0.6c0.5-0.4,0.8-0.9,1-1.6l-1.2-0.1C83,111.1,82.8,111.5,82.5,111.7 M75.9,111.6c-0.3,0.3-0.7,0.4-1.1,0.4
			c-0.6,0-1-0.2-1.4-0.6c-0.3-0.4-0.5-1.1-0.5-2c0-0.9,0.2-1.5,0.5-2c0.4-0.4,0.8-0.6,1.4-0.6c0.4,0,0.7,0.1,1,0.3
			c0.3,0.2,0.5,0.6,0.6,1l1.1-0.2c-0.1-0.7-0.4-1.2-0.9-1.6c-0.5-0.4-1.1-0.6-1.8-0.6c-0.6,0-1.1,0.1-1.6,0.4
			c-0.5,0.3-0.9,0.7-1.1,1.2c-0.2,0.5-0.4,1.2-0.4,1.9c0,1.1,0.3,2,0.8,2.6c0.6,0.6,1.3,0.9,2.2,0.9c0.7,0,1.4-0.2,1.9-0.7
			c0.5-0.4,0.8-1,0.9-1.8l-1.1-0.1C76.4,110.9,76.2,111.3,75.9,111.6 M66,112.8v-3.7c0-0.9,0.2-1.4,0.5-1.8c0.4-0.3,0.8-0.5,1.3-0.5
			c0.3,0,0.6,0.1,0.8,0.2c0.2,0.1,0.4,0.3,0.5,0.6c0.1,0.2,0.1,0.6,0.1,1v4.1h1.1v-4.1c0-0.5,0-0.9-0.1-1.1
			c-0.1-0.3-0.2-0.6-0.4-0.8s-0.4-0.4-0.8-0.6c-0.3-0.1-0.7-0.2-1.1-0.2c-0.9,0-1.7,0.4-2.1,1.1v-1h-1v6.7H66z M59,107.4
			c0.4-0.4,0.8-0.5,1.3-0.5c0.6,0,1.1,0.2,1.4,0.7c0.2,0.3,0.4,0.7,0.4,1.3h-3.8C58.5,108.2,58.7,107.7,59,107.4 M61.5,111.7
			c-0.3,0.2-0.7,0.3-1.1,0.3c-0.6,0-1-0.2-1.4-0.6c-0.4-0.4-0.6-1-0.6-1.7h5c0-0.1,0-0.2,0-0.3c0-1.1-0.3-2-0.9-2.6
			c-0.6-0.6-1.3-0.9-2.2-0.9c-0.9,0-1.7,0.3-2.3,0.9c-0.6,0.6-0.9,1.5-0.9,2.6c0,1.1,0.3,1.9,0.9,2.6c0.6,0.6,1.4,0.9,2.3,0.9
			c0.8,0,1.4-0.2,1.9-0.6c0.5-0.4,0.8-0.9,1-1.6l-1.2-0.1C62,111.1,61.8,111.5,61.5,111.7 M54.4,112.8v-3.5c0-0.5,0.1-0.9,0.2-1.3
			c0.1-0.3,0.2-0.5,0.4-0.6c0.2-0.1,0.4-0.2,0.7-0.2c0.3,0,0.6,0.1,0.8,0.2l0.4-1.1c-0.4-0.2-0.8-0.4-1.2-0.4
			c-0.3,0-0.5,0.1-0.7,0.2c-0.2,0.2-0.5,0.5-0.7,0.9v-1h-1v6.7H54.4z M47.5,107.4c0.4-0.4,0.8-0.5,1.3-0.5c0.6,0,1.1,0.2,1.4,0.7
			c0.2,0.3,0.4,0.7,0.4,1.3h-3.8C46.9,108.2,47.1,107.7,47.5,107.4 M49.9,111.7c-0.3,0.2-0.7,0.3-1.1,0.3c-0.6,0-1-0.2-1.4-0.6
			c-0.4-0.4-0.6-1-0.6-1.7h5c0-0.1,0-0.2,0-0.3c0-1.1-0.3-2-0.9-2.6c-0.6-0.6-1.3-0.9-2.2-0.9c-0.9,0-1.7,0.3-2.3,0.9
			c-0.6,0.6-0.9,1.5-0.9,2.6c0,1.1,0.3,1.9,0.9,2.6c0.6,0.6,1.4,0.9,2.3,0.9c0.8,0,1.4-0.2,1.9-0.6c0.5-0.4,0.8-0.9,1-1.6l-1.2-0.1
			C50.5,111.1,50.2,111.5,49.9,111.7 M43.8,112.8v-5.9h1.3v-0.9h-1.3v-0.6c0-0.4,0.1-0.7,0.2-0.8s0.4-0.2,0.7-0.2
			c0.2,0,0.4,0,0.7,0.1l0.2-1c-0.4-0.1-0.7-0.1-1.1-0.1c-0.5,0-0.9,0.1-1.2,0.3c-0.3,0.2-0.5,0.4-0.6,0.7c-0.1,0.2-0.1,0.6-0.1,1
			v0.7h-1v0.9h1v5.9H43.8z M36.6,107.4c0.4-0.4,0.8-0.5,1.3-0.5c0.6,0,1.1,0.2,1.4,0.7c0.2,0.3,0.4,0.7,0.4,1.3H36
			C36.1,108.2,36.3,107.7,36.6,107.4 M39.1,111.7c-0.3,0.2-0.7,0.3-1.1,0.3c-0.6,0-1-0.2-1.4-0.6c-0.4-0.4-0.6-1-0.6-1.7h5
			c0-0.1,0-0.2,0-0.3c0-1.1-0.3-2-0.9-2.6c-0.6-0.6-1.3-0.9-2.2-0.9c-0.9,0-1.7,0.3-2.3,0.9c-0.6,0.6-0.9,1.5-0.9,2.6
			c0,1.1,0.3,1.9,0.9,2.6c0.6,0.6,1.4,0.9,2.3,0.9c0.8,0,1.4-0.2,1.9-0.6c0.5-0.4,0.8-0.9,1-1.6l-1.2-0.1
			C39.6,111.1,39.4,111.5,39.1,111.7 M32,112.8v-3.5c0-0.5,0.1-0.9,0.2-1.3c0.1-0.3,0.2-0.5,0.4-0.6c0.2-0.1,0.4-0.2,0.7-0.2
			c0.3,0,0.6,0.1,0.8,0.2l0.4-1.1c-0.4-0.2-0.8-0.4-1.2-0.4c-0.3,0-0.5,0.1-0.7,0.2c-0.2,0.2-0.5,0.5-0.7,0.9v-1h-1v6.7H32z"/>
		<path class="st0" d="M433.2,92.3c-0.2,0-0.3,0-0.4-0.1c-0.1-0.1-0.2-0.1-0.2-0.2s-0.1-0.3-0.1-0.6v-3.9h1.1v-0.9h-1.1v-2.4
			l-1.1,0.7v1.7h-0.8v0.9h0.8v3.9c0,0.7,0,1.1,0.1,1.3c0.1,0.2,0.3,0.4,0.5,0.5c0.2,0.1,0.6,0.2,1,0.2c0.3,0,0.5,0,0.9-0.1l-0.2-1
			C433.5,92.3,433.3,92.3,433.2,92.3 M429.5,86.6h-1.1v6.7h1.1V86.6z M429.5,84h-1.1v1.3h1.1V84z M422.4,88c0.3-0.4,0.8-0.6,1.3-0.6
			c0.5,0,1,0.2,1.3,0.6c0.4,0.4,0.5,1.1,0.5,2c0,0.8-0.2,1.5-0.5,1.9c-0.3,0.4-0.8,0.6-1.3,0.6c-0.5,0-0.9-0.2-1.3-0.6
			c-0.4-0.4-0.5-1.1-0.5-1.9C421.9,89,422,88.4,422.4,88 M426.5,93.3V84h-1.1v3.3c-0.2-0.3-0.5-0.5-0.8-0.7
			c-0.3-0.2-0.7-0.3-1.1-0.3c-0.6,0-1.1,0.1-1.5,0.4c-0.4,0.3-0.8,0.7-1,1.3c-0.2,0.5-0.3,1.2-0.3,1.8c0,0.7,0.1,1.3,0.4,1.8
			c0.2,0.5,0.6,0.9,1,1.2c0.5,0.3,0.9,0.4,1.5,0.4c0.8,0,1.5-0.3,1.9-1v0.9H426.5z M415.3,87.9c0.4-0.4,0.8-0.5,1.3-0.5
			c0.6,0,1.1,0.2,1.4,0.7c0.2,0.3,0.4,0.7,0.4,1.3h-3.8C414.8,88.7,415,88.2,415.3,87.9 M417.8,92.2c-0.3,0.2-0.7,0.3-1.1,0.3
			c-0.6,0-1-0.2-1.4-0.6c-0.4-0.4-0.6-1-0.6-1.7h5c0-0.1,0-0.2,0-0.3c0-1.1-0.3-2-0.9-2.6c-0.6-0.6-1.3-0.9-2.2-0.9
			c-0.9,0-1.7,0.3-2.3,0.9c-0.6,0.6-0.9,1.5-0.9,2.6c0,1.1,0.3,1.9,0.9,2.6c0.6,0.6,1.4,0.9,2.3,0.9c0.8,0,1.4-0.2,1.9-0.6
			c0.5-0.4,0.8-0.9,1-1.6l-1.2-0.1C418.3,91.6,418.1,92,417.8,92.2 M410.7,93.3v-3.5c0-0.5,0.1-0.9,0.2-1.3c0.1-0.3,0.2-0.5,0.4-0.6
			c0.2-0.2,0.4-0.2,0.7-0.2c0.3,0,0.6,0.1,0.8,0.2l0.4-1.1c-0.4-0.2-0.8-0.4-1.2-0.4c-0.3,0-0.5,0.1-0.7,0.2
			c-0.2,0.2-0.5,0.5-0.7,0.9v-1h-1v6.7H410.7z M406.9,92.1c-0.3,0.3-0.7,0.4-1.1,0.4c-0.6,0-1-0.2-1.4-0.6c-0.3-0.4-0.5-1.1-0.5-2
			c0-0.9,0.2-1.5,0.5-2c0.4-0.4,0.8-0.6,1.4-0.6c0.4,0,0.7,0.1,1,0.3c0.3,0.2,0.5,0.6,0.6,1l1.1-0.2c-0.1-0.7-0.4-1.2-0.9-1.6
			c-0.5-0.4-1.1-0.6-1.8-0.6c-0.6,0-1.1,0.1-1.6,0.4c-0.5,0.3-0.9,0.7-1.1,1.2c-0.2,0.5-0.4,1.2-0.4,1.9c0,1.1,0.3,2,0.8,2.6
			s1.3,0.9,2.2,0.9c0.7,0,1.4-0.2,1.9-0.7c0.5-0.4,0.8-1,0.9-1.8l-1.1-0.1C407.4,91.4,407.2,91.8,406.9,92.1 M396.2,93.3v-3.5
			c0-0.5,0.1-0.9,0.2-1.3c0.1-0.3,0.2-0.5,0.4-0.6c0.2-0.2,0.4-0.2,0.7-0.2c0.3,0,0.6,0.1,0.8,0.2l0.4-1.1c-0.4-0.2-0.8-0.4-1.2-0.4
			c-0.3,0-0.5,0.1-0.7,0.2c-0.2,0.2-0.5,0.5-0.7,0.9v-1h-1v6.7H396.2z M393.3,93.3v-6.7h-1.1v3.6c0,0.6-0.1,1-0.2,1.3
			c-0.1,0.3-0.3,0.5-0.6,0.7c-0.3,0.2-0.6,0.3-1,0.3c-0.3,0-0.6-0.1-0.9-0.3c-0.2-0.2-0.4-0.4-0.5-0.7c0-0.2-0.1-0.6-0.1-1.2v-3.7
			h-1.1v4.2c0,0.5,0,0.8,0.1,1.1c0.1,0.3,0.2,0.6,0.4,0.8c0.2,0.2,0.4,0.4,0.8,0.6c0.3,0.2,0.7,0.2,1.1,0.2c0.9,0,1.6-0.4,2.1-1.1v1
			H393.3z M382,88c0.4-0.4,0.9-0.6,1.4-0.6c0.6,0,1,0.2,1.4,0.6c0.4,0.4,0.6,1.1,0.6,1.9c0,0.9-0.2,1.5-0.6,2
			c-0.4,0.4-0.8,0.6-1.4,0.6c-0.6,0-1-0.2-1.4-0.6c-0.4-0.4-0.6-1.1-0.6-1.9C381.4,89.1,381.6,88.4,382,88 M381.1,92.5
			c0.6,0.6,1.3,0.9,2.3,0.9c0.6,0,1.1-0.1,1.6-0.4c0.5-0.3,0.9-0.7,1.1-1.2c0.3-0.5,0.4-1.2,0.4-2c0-1.1-0.3-1.9-0.9-2.5
			c-0.6-0.6-1.3-0.9-2.3-0.9c-0.8,0-1.5,0.2-2.1,0.7c-0.7,0.6-1,1.5-1,2.8C380.2,91.1,380.5,91.9,381.1,92.5 M374.8,96
			c0.4,0,0.7-0.1,0.9-0.3c0.3-0.2,0.5-0.5,0.7-0.8c0.2-0.3,0.4-0.8,0.6-1.5l2.6-6.9h-1.1l-1.4,3.9c-0.2,0.5-0.3,1-0.5,1.5
			c-0.1-0.5-0.3-1.1-0.5-1.6l-1.4-3.9h-1.2l2.6,6.8c0,0.1-0.1,0.2-0.1,0.3c-0.2,0.5-0.3,0.7-0.3,0.9c-0.1,0.2-0.2,0.3-0.4,0.4
			c-0.2,0.1-0.4,0.1-0.6,0.1c-0.2,0-0.4,0-0.7-0.1l0.1,1.1C374.4,96,374.6,96,374.8,96 M364.5,92.9c0.5,0.4,1.1,0.5,2,0.5
			c0.5,0,1-0.1,1.4-0.3c0.4-0.2,0.7-0.4,1-0.8c0.2-0.3,0.3-0.7,0.3-1.1c0-0.4-0.1-0.7-0.3-1c-0.2-0.3-0.4-0.5-0.8-0.6
			c-0.3-0.1-0.9-0.3-1.7-0.5c-0.6-0.2-0.9-0.2-1-0.3c-0.2-0.1-0.3-0.2-0.4-0.3c-0.1-0.1-0.1-0.3-0.1-0.4c0-0.2,0.1-0.4,0.3-0.6
			c0.2-0.2,0.6-0.3,1.1-0.3c0.4,0,0.8,0.1,1,0.3c0.2,0.2,0.4,0.5,0.4,0.8l1.1-0.2c-0.1-0.4-0.2-0.8-0.4-1c-0.2-0.3-0.5-0.5-0.9-0.6
			c-0.4-0.2-0.9-0.2-1.4-0.2c-0.4,0-0.7,0-1,0.1c-0.3,0.1-0.5,0.2-0.7,0.3c-0.2,0.2-0.4,0.4-0.6,0.6c-0.1,0.3-0.2,0.5-0.2,0.8
			c0,0.3,0.1,0.6,0.2,0.9c0.2,0.3,0.4,0.5,0.7,0.6c0.3,0.2,0.9,0.3,1.7,0.5c0.6,0.2,1,0.3,1.2,0.4c0.2,0.1,0.3,0.4,0.3,0.6
			c0,0.3-0.1,0.5-0.4,0.8c-0.3,0.2-0.6,0.3-1.2,0.3c-0.5,0-0.9-0.1-1.2-0.4c-0.3-0.2-0.5-0.6-0.5-1l-1.1,0.2
			C363.7,92,364,92.5,364.5,92.9 M361.1,90.3c0,0.5-0.1,0.9-0.2,1.1c-0.2,0.3-0.4,0.6-0.8,0.8c-0.3,0.2-0.7,0.3-1.2,0.3
			c-0.4,0-0.8-0.1-1-0.3c-0.2-0.2-0.3-0.5-0.3-0.8c0-0.2,0.1-0.4,0.2-0.5c0.1-0.2,0.3-0.3,0.5-0.4c0.2-0.1,0.5-0.2,1-0.2
			c0.8-0.1,1.5-0.3,1.9-0.4V90.3z M361.4,93.3h1.2c-0.1-0.3-0.2-0.5-0.3-0.8c0-0.3-0.1-1-0.1-2V89c0-0.5,0-0.9-0.1-1.1
			c-0.1-0.3-0.2-0.6-0.4-0.8c-0.2-0.2-0.4-0.4-0.8-0.5c-0.4-0.1-0.8-0.2-1.4-0.2c-0.6,0-1.1,0.1-1.5,0.2c-0.4,0.2-0.8,0.4-1,0.7
			c-0.2,0.3-0.4,0.7-0.5,1.2l1.1,0.2c0.1-0.5,0.3-0.8,0.6-1c0.3-0.2,0.7-0.3,1.2-0.3c0.6,0,1,0.1,1.3,0.4c0.2,0.2,0.3,0.5,0.3,1
			c0,0,0,0.1,0,0.3c-0.4,0.2-1.1,0.3-2,0.4c-0.5,0.1-0.8,0.1-1,0.2c-0.3,0.1-0.6,0.2-0.8,0.4c-0.2,0.2-0.4,0.4-0.6,0.7
			c-0.1,0.3-0.2,0.6-0.2,0.9c0,0.6,0.2,1,0.6,1.4c0.4,0.4,1,0.5,1.7,0.5c0.4,0,0.9-0.1,1.3-0.2c0.4-0.1,0.8-0.4,1.2-0.8
			C361.2,92.8,361.3,93.1,361.4,93.3 M351.4,84h-1.1v9.3h1.1V84z M348.5,84h-1.1v9.3h1.1V84z M345.7,86.6h-1.1v6.7h1.1V86.6z
			 M345.7,84h-1.1v1.3h1.1V84z M338.9,88c0.4-0.4,0.8-0.7,1.3-0.7c0.5,0,0.9,0.2,1.3,0.6c0.3,0.4,0.5,1.1,0.5,1.9
			c0,0.9-0.2,1.5-0.5,1.9c-0.4,0.4-0.8,0.7-1.3,0.7c-0.6,0-1.1-0.3-1.5-0.9c-0.2-0.4-0.3-0.9-0.3-1.8
			C338.3,89.1,338.5,88.4,338.9,88 M338.4,92.5c0.5,0.7,1.1,1,1.9,1c0.8,0,1.5-0.3,2.1-0.9c0.6-0.6,0.9-1.5,0.9-2.7
			c0-0.5-0.1-0.9-0.2-1.4c-0.1-0.4-0.3-0.8-0.6-1.1c-0.2-0.3-0.5-0.5-0.9-0.7c-0.4-0.2-0.8-0.2-1.2-0.2c-0.7,0-1.4,0.3-1.8,0.9V84
			h-1.1v9.3h1.1V92.5z M331.9,84h-1.1v9.3h1.1V84z M327.9,90.3c0,0.5-0.1,0.9-0.2,1.1c-0.2,0.3-0.4,0.6-0.8,0.8
			c-0.3,0.2-0.7,0.3-1.2,0.3c-0.4,0-0.8-0.1-1-0.3c-0.2-0.2-0.3-0.5-0.3-0.8c0-0.2,0.1-0.4,0.2-0.5c0.1-0.2,0.3-0.3,0.5-0.4
			c0.2-0.1,0.5-0.2,1-0.2c0.8-0.1,1.5-0.3,1.9-0.4V90.3z M328.2,93.3h1.2c-0.1-0.3-0.2-0.5-0.3-0.8c0-0.3-0.1-1-0.1-2V89
			c0-0.5,0-0.9-0.1-1.1c-0.1-0.3-0.2-0.6-0.4-0.8c-0.2-0.2-0.4-0.4-0.8-0.5c-0.4-0.1-0.8-0.2-1.4-0.2c-0.6,0-1.1,0.1-1.5,0.2
			c-0.4,0.2-0.8,0.4-1,0.7c-0.2,0.3-0.4,0.7-0.5,1.2l1.1,0.2c0.1-0.5,0.3-0.8,0.6-1c0.3-0.2,0.7-0.3,1.2-0.3c0.6,0,1,0.1,1.3,0.4
			c0.2,0.2,0.3,0.5,0.3,1c0,0,0,0.1,0,0.3c-0.4,0.2-1.1,0.3-2,0.4c-0.5,0.1-0.8,0.1-1,0.2c-0.3,0.1-0.6,0.2-0.8,0.4
			c-0.2,0.2-0.4,0.4-0.6,0.7c-0.1,0.3-0.2,0.6-0.2,0.9c0,0.6,0.2,1,0.6,1.4c0.4,0.4,1,0.5,1.7,0.5c0.4,0,0.9-0.1,1.3-0.2
			c0.4-0.1,0.8-0.4,1.2-0.8C328,92.8,328.1,93.1,328.2,93.3 M317.5,93.3v-3.7c0-0.9,0.2-1.4,0.5-1.8c0.4-0.3,0.8-0.5,1.3-0.5
			c0.3,0,0.6,0.1,0.8,0.2c0.2,0.1,0.4,0.3,0.5,0.6c0.1,0.2,0.1,0.6,0.1,1v4.1h1.1v-4.1c0-0.5,0-0.9-0.1-1.1
			c-0.1-0.3-0.2-0.6-0.4-0.8s-0.4-0.4-0.8-0.6c-0.3-0.1-0.7-0.2-1.1-0.2c-0.9,0-1.7,0.4-2.1,1.1v-1h-1v6.7H317.5z M314.6,86.6h-1.1
			v6.7h1.1V86.6z M314.6,84h-1.1v1.3h1.1V84z M311.3,93.3v-5.9h1.3v-0.9h-1.3v-0.4c0-0.5,0.1-0.8,0.2-1c0.1-0.2,0.4-0.2,0.8-0.2
			c0.2,0,0.4,0,0.6,0.1l0.2-1c-0.4-0.1-0.7-0.1-1.2-0.1c-0.6,0-1.1,0.2-1.4,0.5s-0.4,0.9-0.4,1.5v0.7h-1v0.9h1v5.9H311.3z
			 M300.1,92.9c0.5,0.4,1.1,0.5,2,0.5c0.5,0,1-0.1,1.4-0.3c0.4-0.2,0.7-0.4,1-0.8c0.2-0.3,0.3-0.7,0.3-1.1c0-0.4-0.1-0.7-0.3-1
			c-0.2-0.3-0.4-0.5-0.8-0.6c-0.3-0.1-0.9-0.3-1.7-0.5c-0.6-0.2-0.9-0.2-1-0.3c-0.2-0.1-0.3-0.2-0.4-0.3c-0.1-0.1-0.1-0.3-0.1-0.4
			c0-0.2,0.1-0.4,0.3-0.6c0.2-0.2,0.6-0.3,1.1-0.3c0.4,0,0.8,0.1,1,0.3c0.2,0.2,0.4,0.5,0.4,0.8l1.1-0.2c-0.1-0.4-0.2-0.8-0.4-1
			c-0.2-0.3-0.5-0.5-0.9-0.6c-0.4-0.2-0.9-0.2-1.4-0.2c-0.4,0-0.7,0-1,0.1c-0.3,0.1-0.5,0.2-0.7,0.3c-0.2,0.2-0.4,0.4-0.6,0.6
			c-0.1,0.3-0.2,0.5-0.2,0.8c0,0.3,0.1,0.6,0.2,0.9c0.2,0.3,0.4,0.5,0.7,0.6c0.3,0.2,0.9,0.3,1.7,0.5c0.6,0.2,1,0.3,1.2,0.4
			c0.2,0.1,0.3,0.4,0.3,0.6c0,0.3-0.1,0.5-0.4,0.8c-0.3,0.2-0.6,0.3-1.2,0.3c-0.5,0-0.9-0.1-1.2-0.4c-0.3-0.2-0.5-0.6-0.5-1
			l-1.1,0.2C299.4,92,299.7,92.5,300.1,92.9 M298,86.6h-1.1v6.7h1.1V86.6z M298,84h-1.1v1.3h1.1V84z M290.7,93.3v-3.7
			c0-0.5,0.1-0.9,0.2-1.2c0.1-0.3,0.3-0.5,0.6-0.7c0.3-0.2,0.6-0.3,1-0.3c0.5,0,0.8,0.1,1.1,0.4c0.2,0.3,0.4,0.7,0.4,1.2v4.3h1.1V89
			c0-0.7-0.1-1.2-0.2-1.5c-0.2-0.3-0.4-0.6-0.8-0.8c-0.4-0.2-0.8-0.3-1.3-0.3c-0.8,0-1.5,0.3-2,0.9V84h-1.1v9.3H290.7z M288,92.3
			c-0.2,0-0.3,0-0.4-0.1c-0.1-0.1-0.2-0.1-0.2-0.2s-0.1-0.3-0.1-0.6v-3.9h1.1v-0.9h-1.1v-2.4l-1.1,0.7v1.7h-0.8v0.9h0.8v3.9
			c0,0.7,0,1.1,0.1,1.3c0.1,0.2,0.3,0.4,0.5,0.5c0.2,0.1,0.6,0.2,1,0.2c0.3,0,0.5,0,0.9-0.1l-0.2-1C288.3,92.3,288.1,92.3,288,92.3
			 M276.6,87.9c0.4-0.4,0.8-0.5,1.3-0.5c0.6,0,1.1,0.2,1.4,0.7c0.2,0.3,0.4,0.7,0.4,1.3H276C276.1,88.7,276.3,88.2,276.6,87.9
			 M279.1,92.2c-0.3,0.2-0.7,0.3-1.1,0.3c-0.6,0-1-0.2-1.4-0.6c-0.4-0.4-0.6-1-0.6-1.7h5c0-0.1,0-0.2,0-0.3c0-1.1-0.3-2-0.9-2.6
			c-0.6-0.6-1.3-0.9-2.2-0.9c-0.9,0-1.7,0.3-2.3,0.9c-0.6,0.6-0.9,1.5-0.9,2.6c0,1.1,0.3,1.9,0.9,2.6c0.6,0.6,1.4,0.9,2.3,0.9
			c0.8,0,1.4-0.2,1.9-0.6c0.5-0.4,0.8-0.9,1-1.6l-1.2-0.1C279.6,91.6,279.4,92,279.1,92.2 M269.1,92.9c0.5,0.4,1.1,0.5,2,0.5
			c0.5,0,1-0.1,1.4-0.3c0.4-0.2,0.7-0.4,1-0.8c0.2-0.3,0.3-0.7,0.3-1.1c0-0.4-0.1-0.7-0.3-1c-0.2-0.3-0.4-0.5-0.8-0.6
			c-0.3-0.1-0.9-0.3-1.7-0.5c-0.6-0.2-0.9-0.2-1-0.3c-0.2-0.1-0.3-0.2-0.4-0.3c-0.1-0.1-0.1-0.3-0.1-0.4c0-0.2,0.1-0.4,0.3-0.6
			c0.2-0.2,0.6-0.3,1.1-0.3c0.4,0,0.8,0.1,1,0.3c0.2,0.2,0.4,0.5,0.4,0.8l1.1-0.2c-0.1-0.4-0.2-0.8-0.4-1c-0.2-0.3-0.5-0.5-0.9-0.6
			c-0.4-0.2-0.9-0.2-1.4-0.2c-0.4,0-0.7,0-1,0.1c-0.3,0.1-0.5,0.2-0.7,0.3c-0.2,0.2-0.4,0.4-0.6,0.6c-0.1,0.3-0.2,0.5-0.2,0.8
			c0,0.3,0.1,0.6,0.2,0.9c0.2,0.3,0.4,0.5,0.7,0.6c0.3,0.2,0.9,0.3,1.7,0.5c0.6,0.2,1,0.3,1.2,0.4c0.2,0.1,0.3,0.4,0.3,0.6
			c0,0.3-0.1,0.5-0.4,0.8c-0.3,0.2-0.6,0.3-1.2,0.3c-0.5,0-0.9-0.1-1.2-0.4c-0.3-0.2-0.5-0.6-0.5-1l-1.1,0.2
			C268.3,92,268.6,92.5,269.1,92.9 M266.9,93.3v-6.7h-1.1v3.6c0,0.6-0.1,1-0.2,1.3c-0.1,0.3-0.3,0.5-0.6,0.7c-0.3,0.2-0.6,0.3-1,0.3
			c-0.3,0-0.6-0.1-0.9-0.3c-0.2-0.2-0.4-0.4-0.5-0.7c0-0.2-0.1-0.6-0.1-1.2v-3.7h-1.1v4.2c0,0.5,0,0.8,0.1,1.1
			c0.1,0.3,0.2,0.6,0.4,0.8c0.2,0.2,0.4,0.4,0.8,0.6c0.3,0.2,0.7,0.2,1.1,0.2c0.9,0,1.6-0.4,2.1-1.1v1H266.9z M251.7,93.3v-3.7
			c0-0.9,0.2-1.4,0.5-1.8c0.4-0.3,0.8-0.5,1.3-0.5c0.3,0,0.6,0.1,0.8,0.2c0.2,0.1,0.4,0.3,0.5,0.6c0.1,0.2,0.1,0.6,0.1,1v4.1h1.1
			v-4.1c0-0.5,0-0.9-0.1-1.1c-0.1-0.3-0.2-0.6-0.4-0.8c-0.2-0.2-0.4-0.4-0.8-0.6c-0.3-0.1-0.7-0.2-1.1-0.2c-0.9,0-1.7,0.4-2.1,1.1
			v-1h-1v6.7H251.7z M247.7,90.3c0,0.5-0.1,0.9-0.2,1.1c-0.2,0.3-0.4,0.6-0.8,0.8c-0.3,0.2-0.7,0.3-1.2,0.3c-0.4,0-0.8-0.1-1-0.3
			c-0.2-0.2-0.3-0.5-0.3-0.8c0-0.2,0.1-0.4,0.2-0.5c0.1-0.2,0.3-0.3,0.5-0.4c0.2-0.1,0.5-0.2,1-0.2c0.8-0.1,1.5-0.3,1.9-0.4V90.3z
			 M248,93.3h1.2c-0.1-0.3-0.2-0.5-0.3-0.8c0-0.3-0.1-1-0.1-2V89c0-0.5,0-0.9-0.1-1.1c-0.1-0.3-0.2-0.6-0.4-0.8
			c-0.2-0.2-0.4-0.4-0.8-0.5c-0.4-0.1-0.8-0.2-1.4-0.2c-0.6,0-1.1,0.1-1.5,0.2c-0.4,0.2-0.8,0.4-1,0.7c-0.2,0.3-0.4,0.7-0.5,1.2
			l1.1,0.2c0.1-0.5,0.3-0.8,0.6-1c0.3-0.2,0.7-0.3,1.2-0.3c0.6,0,1,0.1,1.3,0.4c0.2,0.2,0.3,0.5,0.3,1c0,0,0,0.1,0,0.3
			c-0.4,0.2-1.1,0.3-2,0.4c-0.5,0.1-0.8,0.1-1,0.2c-0.3,0.1-0.6,0.2-0.8,0.4c-0.2,0.2-0.4,0.4-0.6,0.7c-0.2,0.3-0.2,0.6-0.2,0.9
			c0,0.6,0.2,1,0.6,1.4c0.4,0.4,1,0.5,1.7,0.5c0.4,0,0.9-0.1,1.3-0.2c0.4-0.1,0.8-0.4,1.2-0.8C247.8,92.8,247.9,93.1,248,93.3
			 M240.7,92.1c-0.3,0.3-0.7,0.4-1.1,0.4c-0.6,0-1-0.2-1.4-0.6c-0.3-0.4-0.5-1.1-0.5-2c0-0.9,0.2-1.5,0.5-2c0.4-0.4,0.8-0.6,1.4-0.6
			c0.4,0,0.7,0.1,1,0.3c0.3,0.2,0.5,0.6,0.6,1l1.1-0.2c-0.1-0.7-0.4-1.2-0.9-1.6c-0.5-0.4-1.1-0.6-1.8-0.6c-0.6,0-1.1,0.1-1.6,0.4
			c-0.5,0.3-0.9,0.7-1.1,1.2c-0.2,0.5-0.4,1.2-0.4,1.9c0,1.1,0.3,2,0.8,2.6c0.6,0.6,1.3,0.9,2.2,0.9c0.7,0,1.4-0.2,1.9-0.7
			c0.5-0.4,0.8-1,0.9-1.8l-1.1-0.1C241.2,91.4,241,91.8,240.7,92.1 M231.4,93.3v-6.7h-1.1v3.6c0,0.6-0.1,1-0.2,1.3
			c-0.1,0.3-0.3,0.5-0.6,0.7c-0.3,0.2-0.6,0.3-1,0.3s-0.6-0.1-0.9-0.3c-0.2-0.2-0.4-0.4-0.5-0.7c0-0.2-0.1-0.6-0.1-1.2v-3.7H226v4.2
			c0,0.5,0,0.8,0.1,1.1c0.1,0.3,0.2,0.6,0.4,0.8c0.2,0.2,0.4,0.4,0.8,0.6c0.3,0.2,0.7,0.2,1.1,0.2c0.9,0,1.6-0.4,2.1-1.1v1H231.4z
			 M220.1,88c0.4-0.4,0.9-0.6,1.4-0.6c0.6,0,1,0.2,1.4,0.6c0.4,0.4,0.6,1.1,0.6,1.9c0,0.9-0.2,1.5-0.6,2c-0.4,0.4-0.8,0.6-1.4,0.6
			c-0.6,0-1-0.2-1.4-0.6c-0.4-0.4-0.6-1.1-0.6-1.9C219.5,89.1,219.7,88.4,220.1,88 M219.2,92.5c0.6,0.6,1.3,0.9,2.3,0.9
			c0.6,0,1.1-0.1,1.6-0.4c0.5-0.3,0.9-0.7,1.1-1.2c0.3-0.5,0.4-1.2,0.4-2c0-1.1-0.3-1.9-0.9-2.5c-0.6-0.6-1.3-0.9-2.3-0.9
			c-0.8,0-1.5,0.2-2.1,0.7c-0.7,0.6-1,1.5-1,2.8C218.4,91.1,218.6,91.9,219.2,92.5 M215.3,93.3v-3.9L219,84h-1.4l-1.8,2.7
			c-0.4,0.6-0.7,1.2-1,1.6c-0.3-0.5-0.6-1-0.9-1.6L212,84h-1.5l3.6,5.4v3.9H215.3z M205.9,92h-1.3v1.3h1.3V92z M198.4,88
			c0.4-0.4,0.8-0.6,1.3-0.6c0.5,0,1,0.2,1.3,0.6c0.4,0.4,0.6,1,0.6,1.9c0,0.9-0.2,1.5-0.5,1.9c-0.4,0.4-0.8,0.6-1.3,0.6
			c-0.5,0-1-0.2-1.3-0.6c-0.4-0.4-0.5-1.1-0.5-1.9C197.8,89,198,88.4,198.4,88 M197.6,95.5c0.5,0.4,1.1,0.5,1.9,0.5
			c0.7,0,1.2-0.1,1.7-0.4c0.5-0.3,0.8-0.6,1-1c0.2-0.4,0.3-1.2,0.3-2.2v-5.8h-1.1v0.8c-0.5-0.6-1.2-1-2-1c-0.6,0-1.1,0.1-1.6,0.4
			c-0.4,0.3-0.8,0.7-1,1.3c-0.2,0.5-0.3,1.1-0.3,1.8c0,0.9,0.3,1.7,0.8,2.4c0.5,0.7,1.2,1,2.2,1c0.7,0,1.4-0.3,1.9-0.9
			c0,0.7,0,1.2-0.1,1.5c-0.1,0.4-0.3,0.7-0.6,0.9c-0.3,0.2-0.7,0.3-1.2,0.3c-0.5,0-0.9-0.1-1.2-0.3c-0.2-0.2-0.3-0.4-0.4-0.7
			l-1.1-0.2C196.9,94.6,197.1,95.1,197.6,95.5 M191,93.3v-3.7c0-0.9,0.2-1.4,0.5-1.8c0.4-0.3,0.8-0.5,1.3-0.5c0.3,0,0.6,0.1,0.8,0.2
			c0.2,0.1,0.4,0.3,0.5,0.6c0.1,0.2,0.1,0.6,0.1,1v4.1h1.1v-4.1c0-0.5,0-0.9-0.1-1.1c-0.1-0.3-0.2-0.6-0.4-0.8
			c-0.2-0.2-0.4-0.4-0.8-0.6c-0.3-0.1-0.7-0.2-1.1-0.2c-0.9,0-1.6,0.4-2.1,1.1v-1h-1v6.7H191z M188.1,86.6H187v6.7h1.1V86.6z
			 M188.1,84H187v1.3h1.1V84z M181,88c0.3-0.4,0.8-0.6,1.3-0.6c0.5,0,1,0.2,1.3,0.6c0.4,0.4,0.5,1.1,0.5,2c0,0.8-0.2,1.5-0.5,1.9
			c-0.3,0.4-0.8,0.6-1.3,0.6c-0.5,0-0.9-0.2-1.3-0.6c-0.4-0.4-0.5-1.1-0.5-1.9C180.5,89,180.7,88.4,181,88 M185.2,93.3V84H184v3.3
			c-0.2-0.3-0.5-0.5-0.8-0.7c-0.3-0.2-0.7-0.3-1.1-0.3c-0.6,0-1.1,0.1-1.5,0.4c-0.4,0.3-0.8,0.7-1,1.3c-0.2,0.5-0.3,1.2-0.3,1.8
			c0,0.7,0.1,1.3,0.4,1.8c0.2,0.5,0.6,0.9,1,1.2c0.5,0.3,0.9,0.4,1.5,0.4c0.8,0,1.5-0.3,1.9-1v0.9H185.2z M173.6,93.3v-3.7
			c0-0.9,0.2-1.4,0.5-1.8c0.4-0.3,0.8-0.5,1.3-0.5c0.3,0,0.6,0.1,0.8,0.2c0.2,0.1,0.4,0.3,0.5,0.6c0.1,0.2,0.1,0.6,0.1,1v4.1h1.1
			v-4.1c0-0.5,0-0.9-0.1-1.1c-0.1-0.3-0.2-0.6-0.4-0.8c-0.2-0.2-0.4-0.4-0.8-0.6c-0.3-0.1-0.7-0.2-1.1-0.2c-0.9,0-1.7,0.4-2.1,1.1
			v-1h-1v6.7H173.6z M169.6,90.3c0,0.5-0.1,0.9-0.2,1.1c-0.2,0.3-0.4,0.6-0.8,0.8c-0.3,0.2-0.7,0.3-1.2,0.3c-0.4,0-0.8-0.1-1-0.3
			s-0.3-0.5-0.3-0.8c0-0.2,0.1-0.4,0.2-0.5c0.1-0.2,0.3-0.3,0.4-0.4c0.2-0.1,0.5-0.2,1-0.2c0.8-0.1,1.5-0.3,1.9-0.4V90.3z
			 M169.9,93.3h1.2c-0.1-0.3-0.2-0.5-0.3-0.8c0-0.3-0.1-1-0.1-2V89c0-0.5,0-0.9-0.1-1.1c-0.1-0.3-0.2-0.6-0.4-0.8
			c-0.2-0.2-0.4-0.4-0.8-0.5c-0.4-0.1-0.8-0.2-1.4-0.2c-0.6,0-1.1,0.1-1.5,0.2c-0.4,0.2-0.8,0.4-1,0.7c-0.2,0.3-0.4,0.7-0.5,1.2
			l1.1,0.2c0.1-0.5,0.3-0.8,0.6-1c0.3-0.2,0.7-0.3,1.2-0.3c0.6,0,1,0.1,1.3,0.4c0.2,0.2,0.3,0.5,0.3,1c0,0,0,0.1,0,0.3
			c-0.4,0.2-1.1,0.3-2,0.4c-0.5,0.1-0.8,0.1-1,0.2c-0.3,0.1-0.6,0.2-0.8,0.4c-0.2,0.2-0.4,0.4-0.6,0.7c-0.2,0.3-0.2,0.6-0.2,0.9
			c0,0.6,0.2,1,0.6,1.4s1,0.5,1.7,0.5c0.4,0,0.9-0.1,1.3-0.2c0.4-0.1,0.8-0.4,1.2-0.8C169.7,92.8,169.8,93.1,169.9,93.3 M163.7,92.3
			c-0.2,0-0.3,0-0.4-0.1c-0.1-0.1-0.2-0.1-0.2-0.2c0-0.1-0.1-0.3-0.1-0.6v-3.9h1.1v-0.9H163v-2.4l-1.1,0.7v1.7H161v0.9h0.8v3.9
			c0,0.7,0,1.1,0.1,1.3s0.3,0.4,0.5,0.5c0.2,0.1,0.6,0.2,1,0.2c0.3,0,0.5,0,0.9-0.1l-0.2-1C164,92.3,163.8,92.3,163.7,92.3
			 M155.6,92.9c0.5,0.4,1.1,0.5,2,0.5c0.5,0,1-0.1,1.4-0.3c0.4-0.2,0.7-0.4,1-0.8c0.2-0.3,0.3-0.7,0.3-1.1c0-0.4-0.1-0.7-0.3-1
			c-0.2-0.3-0.4-0.5-0.8-0.6c-0.3-0.1-0.9-0.3-1.7-0.5c-0.6-0.2-0.9-0.2-1-0.3c-0.2-0.1-0.3-0.2-0.4-0.3c-0.1-0.1-0.1-0.3-0.1-0.4
			c0-0.2,0.1-0.4,0.3-0.6c0.2-0.2,0.6-0.3,1.1-0.3c0.4,0,0.8,0.1,1,0.3c0.2,0.2,0.4,0.5,0.4,0.8l1.1-0.2c-0.1-0.4-0.2-0.8-0.4-1
			c-0.2-0.3-0.5-0.5-0.9-0.6c-0.4-0.2-0.9-0.2-1.4-0.2c-0.4,0-0.7,0-1,0.1c-0.3,0.1-0.5,0.2-0.7,0.3c-0.2,0.2-0.4,0.4-0.6,0.6
			c-0.1,0.3-0.2,0.5-0.2,0.8c0,0.3,0.1,0.6,0.3,0.9c0.2,0.3,0.4,0.5,0.7,0.6c0.3,0.2,0.9,0.3,1.7,0.5c0.6,0.2,1,0.3,1.2,0.4
			c0.2,0.1,0.3,0.4,0.3,0.6c0,0.3-0.1,0.5-0.4,0.8c-0.3,0.2-0.6,0.3-1.2,0.3c-0.5,0-0.9-0.1-1.2-0.4c-0.3-0.2-0.5-0.6-0.5-1
			l-1.1,0.2C154.8,92,155.1,92.5,155.6,92.9 M145.6,88c0.3-0.4,0.8-0.6,1.3-0.6c0.5,0,1,0.2,1.3,0.6c0.4,0.4,0.5,1.1,0.5,2
			c0,0.8-0.2,1.5-0.5,1.9c-0.3,0.4-0.8,0.6-1.3,0.6c-0.5,0-0.9-0.2-1.3-0.6c-0.4-0.4-0.5-1.1-0.5-1.9C145.1,89,145.3,88.4,145.6,88
			 M149.8,93.3V84h-1.1v3.3c-0.2-0.3-0.5-0.5-0.8-0.7c-0.3-0.2-0.7-0.3-1.1-0.3c-0.6,0-1.1,0.1-1.5,0.4c-0.4,0.3-0.8,0.7-1,1.3
			c-0.2,0.5-0.3,1.2-0.3,1.8c0,0.7,0.1,1.3,0.4,1.8c0.2,0.5,0.6,0.9,1,1.2c0.5,0.3,0.9,0.4,1.5,0.4c0.8,0,1.5-0.3,1.9-1v0.9H149.8z
			 M138.4,88c0.4-0.4,0.9-0.6,1.4-0.6c0.6,0,1,0.2,1.4,0.6c0.4,0.4,0.6,1.1,0.6,1.9c0,0.9-0.2,1.5-0.6,2c-0.4,0.4-0.8,0.6-1.4,0.6
			c-0.6,0-1-0.2-1.4-0.6c-0.4-0.4-0.6-1.1-0.6-1.9C137.8,89.1,138,88.4,138.4,88 M137.5,92.5c0.6,0.6,1.3,0.9,2.3,0.9
			c0.6,0,1.1-0.1,1.6-0.4c0.5-0.3,0.9-0.7,1.1-1.2c0.3-0.5,0.4-1.2,0.4-2c0-1.1-0.3-1.9-0.9-2.5c-0.6-0.6-1.3-0.9-2.3-0.9
			c-0.8,0-1.5,0.2-2.1,0.7c-0.7,0.6-1,1.5-1,2.8C136.7,91.1,137,91.9,137.5,92.5 M131.2,88c0.4-0.4,0.9-0.6,1.4-0.6
			c0.6,0,1,0.2,1.4,0.6c0.4,0.4,0.6,1.1,0.6,1.9c0,0.9-0.2,1.5-0.6,2c-0.4,0.4-0.8,0.6-1.4,0.6c-0.6,0-1-0.2-1.4-0.6
			c-0.4-0.4-0.6-1.1-0.6-1.9C130.6,89.1,130.8,88.4,131.2,88 M130.3,92.5c0.6,0.6,1.3,0.9,2.3,0.9c0.6,0,1.1-0.1,1.6-0.4
			c0.5-0.3,0.9-0.7,1.1-1.2c0.3-0.5,0.4-1.2,0.4-2c0-1.1-0.3-1.9-0.9-2.5c-0.6-0.6-1.3-0.9-2.3-0.9c-0.8,0-1.5,0.2-2.1,0.7
			c-0.7,0.6-1,1.5-1,2.8C129.4,91.1,129.7,91.9,130.3,92.5 M123.9,88c0.4-0.4,0.8-0.6,1.3-0.6c0.5,0,1,0.2,1.3,0.6
			c0.4,0.4,0.5,1,0.5,1.9c0,0.9-0.2,1.5-0.5,1.9c-0.4,0.4-0.8,0.6-1.3,0.6c-0.5,0-1-0.2-1.3-0.6c-0.4-0.4-0.5-1.1-0.5-1.9
			C123.4,89,123.5,88.4,123.9,88 M123.1,95.5c0.5,0.4,1.1,0.5,1.9,0.5c0.7,0,1.2-0.1,1.7-0.4c0.5-0.3,0.8-0.6,1-1
			c0.2-0.4,0.3-1.2,0.3-2.2v-5.8h-1.1v0.8c-0.5-0.6-1.2-1-2-1c-0.6,0-1.1,0.1-1.6,0.4c-0.4,0.3-0.8,0.7-1,1.3
			c-0.2,0.5-0.3,1.1-0.3,1.8c0,0.9,0.3,1.7,0.8,2.4c0.5,0.7,1.2,1,2.2,1c0.7,0,1.4-0.3,1.9-0.9c0,0.7,0,1.2-0.1,1.5
			c-0.1,0.4-0.3,0.7-0.6,0.9c-0.3,0.2-0.7,0.3-1.2,0.3c-0.5,0-0.9-0.1-1.2-0.3c-0.2-0.2-0.3-0.4-0.4-0.7l-1.1-0.2
			C122.4,94.6,122.6,95.1,123.1,95.5 M112.9,93.3v-3.7c0-0.9,0.2-1.4,0.5-1.8c0.4-0.3,0.8-0.5,1.3-0.5c0.3,0,0.6,0.1,0.8,0.2
			c0.2,0.1,0.4,0.3,0.5,0.6c0.1,0.2,0.1,0.6,0.1,1v4.1h1.1v-4.1c0-0.5,0-0.9-0.1-1.1c-0.1-0.3-0.2-0.6-0.4-0.8s-0.4-0.4-0.8-0.6
			c-0.3-0.1-0.7-0.2-1.1-0.2c-0.9,0-1.6,0.4-2.1,1.1v-1h-1v6.7H112.9z M110.1,86.6h-1.1v6.7h1.1V86.6z M110.1,84h-1.1v1.3h1.1V84z
			 M103.7,92.3c-0.2,0-0.3,0-0.4-0.1c-0.1-0.1-0.2-0.1-0.2-0.2s-0.1-0.3-0.1-0.6v-3.9h1.1v-0.9H103v-2.4l-1.1,0.7v1.7H101v0.9h0.8
			v3.9c0,0.7,0,1.1,0.1,1.3s0.3,0.4,0.5,0.5c0.2,0.1,0.5,0.2,1,0.2c0.3,0,0.5,0,0.9-0.1l-0.2-1C104,92.3,103.8,92.3,103.7,92.3
			 M95.6,93.3v-3.7c0-0.9,0.2-1.4,0.5-1.8c0.4-0.3,0.8-0.5,1.3-0.5c0.3,0,0.6,0.1,0.8,0.2c0.2,0.1,0.4,0.3,0.5,0.6
			c0.1,0.2,0.1,0.6,0.1,1v4.1h1.1v-4.1c0-0.5,0-0.9-0.1-1.1c-0.1-0.3-0.2-0.6-0.4-0.8c-0.2-0.2-0.4-0.4-0.8-0.6
			c-0.3-0.1-0.7-0.2-1.1-0.2c-0.9,0-1.7,0.4-2.1,1.1v-1h-1v6.7H95.6z M92.7,93.3v-6.7h-1.1v3.6c0,0.6-0.1,1-0.2,1.3
			c-0.1,0.3-0.3,0.5-0.6,0.7c-0.3,0.2-0.6,0.3-1,0.3c-0.3,0-0.6-0.1-0.9-0.3c-0.2-0.2-0.4-0.4-0.5-0.7c0-0.2-0.1-0.6-0.1-1.2v-3.7
			h-1.1v4.2c0,0.5,0,0.8,0.1,1.1c0.1,0.3,0.2,0.6,0.4,0.8c0.2,0.2,0.4,0.4,0.8,0.6c0.3,0.2,0.7,0.2,1.1,0.2c0.9,0,1.6-0.4,2.1-1.1v1
			H92.7z M81.3,88c0.4-0.4,0.9-0.6,1.4-0.6c0.6,0,1,0.2,1.4,0.6c0.4,0.4,0.6,1.1,0.6,1.9c0,0.9-0.2,1.5-0.6,2
			c-0.4,0.4-0.8,0.6-1.4,0.6c-0.6,0-1-0.2-1.4-0.6c-0.4-0.4-0.6-1.1-0.6-1.9C80.7,89.1,80.9,88.4,81.3,88 M80.4,92.5
			c0.6,0.6,1.3,0.9,2.3,0.9c0.6,0,1.1-0.1,1.6-0.4c0.5-0.3,0.9-0.7,1.1-1.2c0.3-0.5,0.4-1.2,0.4-2c0-1.1-0.3-1.9-0.9-2.5
			c-0.6-0.6-1.3-0.9-2.3-0.9c-0.8,0-1.5,0.2-2.1,0.7c-0.7,0.6-1,1.5-1,2.8C79.6,91.1,79.9,91.9,80.4,92.5 M77.3,92.1
			c-0.3,0.3-0.7,0.4-1.1,0.4c-0.6,0-1-0.2-1.4-0.6c-0.3-0.4-0.5-1.1-0.5-2c0-0.9,0.2-1.5,0.5-2c0.4-0.4,0.8-0.6,1.4-0.6
			c0.4,0,0.7,0.1,1,0.3c0.3,0.2,0.5,0.6,0.6,1l1.1-0.2c-0.1-0.7-0.4-1.2-0.9-1.6c-0.5-0.4-1.1-0.6-1.8-0.6c-0.6,0-1.1,0.1-1.6,0.4
			c-0.5,0.3-0.9,0.7-1.1,1.2c-0.2,0.5-0.4,1.2-0.4,1.9c0,1.1,0.3,2,0.8,2.6c0.6,0.6,1.3,0.9,2.2,0.9c0.7,0,1.4-0.2,1.9-0.7
			s0.8-1,0.9-1.8l-1.1-0.1C77.8,91.4,77.6,91.8,77.3,92.1 M70.8,92.1c-0.3,0.3-0.7,0.4-1.1,0.4c-0.6,0-1-0.2-1.4-0.6
			c-0.3-0.4-0.5-1.1-0.5-2c0-0.9,0.2-1.5,0.5-2c0.4-0.4,0.8-0.6,1.4-0.6c0.4,0,0.7,0.1,1,0.3c0.3,0.2,0.5,0.6,0.6,1l1.1-0.2
			c-0.1-0.7-0.4-1.2-0.9-1.6c-0.5-0.4-1.1-0.6-1.8-0.6c-0.6,0-1.1,0.1-1.6,0.4c-0.5,0.3-0.9,0.7-1.1,1.2c-0.2,0.5-0.4,1.2-0.4,1.9
			c0,1.1,0.3,2,0.8,2.6c0.6,0.6,1.3,0.9,2.2,0.9c0.7,0,1.4-0.2,1.9-0.7s0.8-1,0.9-1.8l-1.1-0.1C71.3,91.4,71.1,91.8,70.8,92.1
			 M64.1,90.3c0,0.5-0.1,0.9-0.2,1.1c-0.2,0.3-0.4,0.6-0.8,0.8c-0.3,0.2-0.7,0.3-1.2,0.3c-0.4,0-0.8-0.1-1-0.3
			c-0.2-0.2-0.3-0.5-0.3-0.8c0-0.2,0.1-0.4,0.2-0.5c0.1-0.2,0.3-0.3,0.5-0.4c0.2-0.1,0.5-0.2,1-0.2c0.8-0.1,1.5-0.3,1.9-0.4V90.3z
			 M64.4,93.3h1.2c-0.1-0.3-0.2-0.5-0.3-0.8c0-0.3-0.1-1-0.1-2V89c0-0.5,0-0.9-0.1-1.1c-0.1-0.3-0.2-0.6-0.4-0.8
			c-0.2-0.2-0.4-0.4-0.8-0.5c-0.4-0.1-0.8-0.2-1.4-0.2c-0.6,0-1.1,0.1-1.5,0.2c-0.4,0.2-0.8,0.4-1,0.7c-0.2,0.3-0.4,0.7-0.5,1.2
			l1.1,0.2c0.1-0.5,0.3-0.8,0.6-1c0.3-0.2,0.7-0.3,1.2-0.3c0.6,0,1,0.1,1.3,0.4c0.2,0.2,0.3,0.5,0.3,1c0,0,0,0.1,0,0.3
			c-0.4,0.2-1.1,0.3-2,0.4c-0.5,0.1-0.8,0.1-1,0.2c-0.3,0.1-0.6,0.2-0.8,0.4c-0.2,0.2-0.4,0.4-0.6,0.7c-0.1,0.3-0.2,0.6-0.2,0.9
			c0,0.6,0.2,1,0.6,1.4s1,0.5,1.7,0.5c0.4,0,0.9-0.1,1.3-0.2c0.4-0.1,0.8-0.4,1.2-0.8C64.2,92.8,64.3,93.1,64.4,93.3 M52.9,93.3
			v-3.5c0-0.5,0.1-0.9,0.2-1.3c0.1-0.3,0.2-0.5,0.4-0.6c0.2-0.2,0.4-0.2,0.7-0.2c0.3,0,0.6,0.1,0.8,0.2l0.4-1.1
			c-0.4-0.2-0.8-0.4-1.2-0.4c-0.3,0-0.5,0.1-0.7,0.2c-0.2,0.2-0.5,0.5-0.7,0.9v-1h-1v6.7H52.9z M50,93.3v-6.7h-1.1v3.6
			c0,0.6-0.1,1-0.2,1.3c-0.1,0.3-0.3,0.5-0.6,0.7c-0.3,0.2-0.6,0.3-1,0.3c-0.3,0-0.6-0.1-0.9-0.3c-0.2-0.2-0.4-0.4-0.5-0.7
			c0-0.2-0.1-0.6-0.1-1.2v-3.7h-1.1v4.2c0,0.5,0,0.8,0.1,1.1c0.1,0.3,0.2,0.6,0.4,0.8c0.2,0.2,0.4,0.4,0.8,0.6
			c0.3,0.2,0.7,0.2,1.1,0.2c0.9,0,1.6-0.4,2.1-1.1v1H50z M38.7,88c0.4-0.4,0.9-0.6,1.4-0.6c0.6,0,1,0.2,1.4,0.6
			c0.4,0.4,0.6,1.1,0.6,1.9c0,0.9-0.2,1.5-0.6,2c-0.4,0.4-0.8,0.6-1.4,0.6c-0.6,0-1-0.2-1.4-0.6c-0.4-0.4-0.6-1.1-0.6-1.9
			C38.1,89.1,38.3,88.4,38.7,88 M37.8,92.5c0.6,0.6,1.3,0.9,2.3,0.9c0.6,0,1.1-0.1,1.6-0.4c0.5-0.3,0.9-0.7,1.1-1.2
			c0.3-0.5,0.4-1.2,0.4-2c0-1.1-0.3-1.9-0.9-2.5c-0.6-0.6-1.3-0.9-2.3-0.9c-0.8,0-1.5,0.2-2.1,0.7c-0.7,0.6-1,1.5-1,2.8
			C36.9,91.1,37.2,91.9,37.8,92.5 M31.5,96c0.4,0,0.7-0.1,0.9-0.3c0.3-0.2,0.5-0.5,0.7-0.8c0.2-0.3,0.4-0.8,0.6-1.5l2.6-6.9h-1.1
			l-1.4,3.9c-0.2,0.5-0.3,1-0.5,1.5c-0.1-0.5-0.3-1.1-0.5-1.6l-1.4-3.9h-1.2l2.6,6.8c0,0.1-0.1,0.2-0.1,0.3
			c-0.2,0.5-0.3,0.7-0.3,0.9c-0.1,0.2-0.2,0.3-0.4,0.4c-0.2,0.1-0.4,0.1-0.6,0.1c-0.2,0-0.4,0-0.7-0.1l0.1,1.1
			C31.1,96,31.3,96,31.5,96"/>
		<path class="st0" d="M405.5,68.5c0.4-0.4,0.8-0.6,1.3-0.6c0.5,0,1,0.2,1.3,0.6c0.4,0.4,0.5,1,0.5,1.9c0,0.9-0.2,1.5-0.5,1.9
			c-0.4,0.4-0.8,0.6-1.3,0.6c-0.5,0-1-0.2-1.3-0.6c-0.4-0.4-0.5-1.1-0.5-1.9C405,69.5,405.1,68.9,405.5,68.5 M404.7,76
			c0.5,0.4,1.1,0.5,1.9,0.5c0.7,0,1.2-0.1,1.7-0.4c0.5-0.3,0.8-0.6,1-1c0.2-0.4,0.3-1.2,0.3-2.2v-5.8h-1.1v0.8c-0.5-0.6-1.2-1-2-1
			c-0.6,0-1.1,0.1-1.6,0.4c-0.4,0.3-0.8,0.7-1,1.3c-0.2,0.5-0.3,1.1-0.3,1.8c0,0.9,0.3,1.7,0.8,2.4c0.5,0.7,1.2,1,2.2,1
			c0.7,0,1.4-0.3,1.9-0.9c0,0.7,0,1.2-0.1,1.5c-0.1,0.4-0.3,0.7-0.6,0.9c-0.3,0.2-0.7,0.3-1.2,0.3c-0.5,0-0.9-0.1-1.2-0.3
			c-0.2-0.2-0.3-0.4-0.4-0.7l-1.1-0.2C404,75.1,404.2,75.6,404.7,76 M398.1,73.8v-3.7c0-0.9,0.2-1.4,0.5-1.8
			c0.4-0.3,0.8-0.5,1.3-0.5c0.3,0,0.6,0.1,0.8,0.2c0.2,0.1,0.4,0.3,0.5,0.6c0.1,0.2,0.1,0.6,0.1,1v4.1h1.1v-4.1c0-0.5,0-0.9-0.1-1.1
			c-0.1-0.3-0.2-0.6-0.4-0.8s-0.4-0.4-0.8-0.6c-0.3-0.1-0.7-0.2-1.1-0.2c-0.9,0-1.7,0.4-2.1,1.1v-1h-1v6.7H398.1z M395.3,67.1h-1.1
			v6.7h1.1V67.1z M395.3,64.5h-1.1v1.3h1.1V64.5z M388,73.8v-3.7c0-0.9,0.2-1.4,0.5-1.8c0.4-0.3,0.8-0.5,1.3-0.5
			c0.3,0,0.6,0.1,0.8,0.2c0.2,0.1,0.4,0.3,0.5,0.6c0.1,0.2,0.1,0.6,0.1,1v4.1h1.1v-4.1c0-0.5,0-0.9-0.1-1.1
			c-0.1-0.3-0.2-0.6-0.4-0.8c-0.2-0.2-0.4-0.4-0.8-0.6c-0.3-0.1-0.7-0.2-1.1-0.2c-0.9,0-1.7,0.4-2.1,1.1v-1h-1v6.7H388z M385.1,67.1
			H384v6.7h1.1V67.1z M385.1,64.5H384v1.3h1.1V64.5z M381.1,70.8c0,0.5-0.1,0.9-0.2,1.1c-0.2,0.3-0.4,0.6-0.8,0.8
			c-0.3,0.2-0.7,0.3-1.2,0.3c-0.4,0-0.8-0.1-1-0.3c-0.2-0.2-0.3-0.5-0.3-0.8c0-0.2,0.1-0.4,0.2-0.5c0.1-0.2,0.3-0.3,0.5-0.4
			c0.2-0.1,0.5-0.2,1-0.2c0.8-0.1,1.5-0.3,1.9-0.4V70.8z M381.4,73.8h1.2c-0.1-0.3-0.2-0.5-0.3-0.8c0-0.3-0.1-1-0.1-2v-1.5
			c0-0.5,0-0.9-0.1-1.1c-0.1-0.3-0.2-0.6-0.4-0.8c-0.2-0.2-0.4-0.4-0.8-0.5c-0.4-0.1-0.8-0.2-1.4-0.2c-0.6,0-1.1,0.1-1.5,0.2
			c-0.4,0.2-0.8,0.4-1,0.7c-0.2,0.3-0.4,0.7-0.5,1.2l1.1,0.2c0.1-0.5,0.3-0.8,0.6-1c0.3-0.2,0.7-0.3,1.2-0.3c0.6,0,1,0.1,1.3,0.4
			c0.2,0.2,0.3,0.5,0.3,1c0,0,0,0.1,0,0.3c-0.4,0.2-1.1,0.3-2,0.4c-0.5,0.1-0.8,0.1-1,0.2c-0.3,0.1-0.6,0.2-0.8,0.4
			c-0.2,0.2-0.4,0.4-0.6,0.7s-0.2,0.6-0.2,0.9c0,0.6,0.2,1,0.6,1.4c0.4,0.4,1,0.5,1.7,0.5c0.4,0,0.9-0.1,1.3-0.2
			c0.4-0.1,0.8-0.4,1.2-0.8C381.2,73.3,381.3,73.6,381.4,73.8 M375.1,72.8c-0.2,0-0.3,0-0.4-0.1c-0.1-0.1-0.2-0.1-0.2-0.2
			s-0.1-0.3-0.1-0.6v-3.9h1.1v-0.9h-1.1v-2.4l-1.1,0.7v1.7h-0.8v0.9h0.8v3.9c0,0.7,0,1.1,0.1,1.3c0.1,0.2,0.3,0.4,0.5,0.5
			c0.2,0.1,0.5,0.2,1,0.2c0.3,0,0.5,0,0.9-0.1l-0.2-1C375.4,72.8,375.3,72.8,375.1,72.8 M367.1,73.8v-3.7c0-0.9,0.2-1.4,0.5-1.8
			c0.4-0.3,0.8-0.5,1.3-0.5c0.3,0,0.6,0.1,0.8,0.2c0.2,0.1,0.4,0.3,0.5,0.6c0.1,0.2,0.1,0.6,0.1,1v4.1h1.1v-4.1c0-0.5,0-0.9-0.1-1.1
			c-0.1-0.3-0.2-0.6-0.4-0.8s-0.4-0.4-0.8-0.6c-0.3-0.1-0.7-0.2-1.1-0.2c-0.9,0-1.7,0.4-2.1,1.1v-1h-1v6.7H367.1z M364.2,67.1H363
			v6.7h1.1V67.1z M364.2,64.5H363v1.3h1.1V64.5z M360.1,70.8c0,0.5-0.1,0.9-0.2,1.1c-0.2,0.3-0.4,0.6-0.8,0.8
			c-0.3,0.2-0.7,0.3-1.2,0.3c-0.4,0-0.8-0.1-1-0.3s-0.3-0.5-0.3-0.8c0-0.2,0.1-0.4,0.2-0.5c0.1-0.2,0.3-0.3,0.5-0.4
			c0.2-0.1,0.5-0.2,1-0.2c0.8-0.1,1.5-0.3,1.9-0.4V70.8z M360.4,73.8h1.2c-0.1-0.3-0.2-0.5-0.3-0.8c0-0.3-0.1-1-0.1-2v-1.5
			c0-0.5,0-0.9-0.1-1.1c-0.1-0.3-0.2-0.6-0.4-0.8c-0.2-0.2-0.4-0.4-0.8-0.5c-0.4-0.1-0.8-0.2-1.4-0.2c-0.6,0-1.1,0.1-1.5,0.2
			c-0.4,0.2-0.8,0.4-1,0.7c-0.2,0.3-0.4,0.7-0.5,1.2l1.1,0.2c0.1-0.5,0.3-0.8,0.6-1c0.3-0.2,0.7-0.3,1.2-0.3c0.6,0,1,0.1,1.3,0.4
			c0.2,0.2,0.3,0.5,0.3,1c0,0,0,0.1,0,0.3c-0.4,0.2-1.1,0.3-2,0.4c-0.5,0.1-0.8,0.1-1,0.2c-0.3,0.1-0.6,0.2-0.8,0.4
			c-0.2,0.2-0.4,0.4-0.6,0.7c-0.2,0.3-0.2,0.6-0.2,0.9c0,0.6,0.2,1,0.6,1.4c0.4,0.4,1,0.5,1.7,0.5c0.4,0,0.9-0.1,1.3-0.2
			c0.4-0.1,0.8-0.4,1.2-0.8C360.2,73.3,360.3,73.6,360.4,73.8 M346.1,73.8v-3.5c0-0.6,0.1-1.1,0.2-1.4c0.1-0.3,0.3-0.6,0.6-0.7
			c0.3-0.2,0.6-0.3,0.9-0.3c0.4,0,0.7,0.1,0.9,0.4c0.2,0.3,0.3,0.6,0.3,1.1v4.4h1.1v-3.9c0-0.7,0.2-1.2,0.5-1.5
			c0.3-0.3,0.7-0.5,1.2-0.5c0.3,0,0.5,0.1,0.7,0.2c0.2,0.1,0.3,0.3,0.4,0.5c0.1,0.2,0.1,0.5,0.1,1v4.2h1.1v-4.6
			c0-0.8-0.2-1.3-0.5-1.7c-0.4-0.4-0.9-0.6-1.5-0.6c-0.9,0-1.5,0.4-2.1,1.2c-0.1-0.4-0.4-0.7-0.7-0.9c-0.3-0.2-0.7-0.3-1.2-0.3
			c-0.4,0-0.8,0.1-1.2,0.3c-0.4,0.2-0.6,0.5-0.8,0.8v-0.9h-1v6.7H346.1z M335.4,68.5c0.3-0.4,0.8-0.6,1.3-0.6c0.5,0,1,0.2,1.3,0.6
			c0.4,0.4,0.5,1.1,0.5,2c0,0.8-0.2,1.5-0.5,1.9c-0.3,0.4-0.8,0.6-1.3,0.6c-0.5,0-0.9-0.2-1.3-0.6c-0.4-0.4-0.5-1.1-0.5-1.9
			C334.9,69.5,335.1,68.9,335.4,68.5 M339.6,73.8v-9.3h-1.1v3.3c-0.2-0.3-0.5-0.5-0.8-0.7c-0.3-0.2-0.7-0.3-1.1-0.3
			c-0.6,0-1.1,0.1-1.5,0.4c-0.4,0.3-0.8,0.7-1,1.3c-0.2,0.5-0.3,1.2-0.3,1.8c0,0.7,0.1,1.3,0.4,1.8c0.2,0.5,0.6,0.9,1,1.2
			c0.5,0.3,0.9,0.4,1.5,0.4c0.8,0,1.5-0.3,1.9-1v0.9H339.6z M328,73.8v-3.7c0-0.9,0.2-1.4,0.5-1.8c0.4-0.3,0.8-0.5,1.3-0.5
			c0.3,0,0.6,0.1,0.8,0.2c0.2,0.1,0.4,0.3,0.5,0.6c0.1,0.2,0.1,0.6,0.1,1v4.1h1.1v-4.1c0-0.5,0-0.9-0.1-1.1
			c-0.1-0.3-0.2-0.6-0.4-0.8c-0.2-0.2-0.4-0.4-0.8-0.6c-0.3-0.1-0.7-0.2-1.1-0.2c-0.9,0-1.7,0.4-2.1,1.1v-1h-1v6.7H328z M324,70.8
			c0,0.5-0.1,0.9-0.2,1.1c-0.2,0.3-0.4,0.6-0.8,0.8c-0.3,0.2-0.7,0.3-1.2,0.3c-0.4,0-0.8-0.1-1-0.3c-0.2-0.2-0.3-0.5-0.3-0.8
			c0-0.2,0.1-0.4,0.2-0.5c0.1-0.2,0.3-0.3,0.5-0.4c0.2-0.1,0.5-0.2,1-0.2c0.8-0.1,1.5-0.3,1.9-0.4V70.8z M324.3,73.8h1.2
			c-0.1-0.3-0.2-0.5-0.3-0.8c0-0.3-0.1-1-0.1-2v-1.5c0-0.5,0-0.9-0.1-1.1c-0.1-0.3-0.2-0.6-0.4-0.8c-0.2-0.2-0.4-0.4-0.8-0.5
			c-0.4-0.1-0.8-0.2-1.4-0.2c-0.6,0-1.1,0.1-1.5,0.2c-0.4,0.2-0.8,0.4-1,0.7c-0.2,0.3-0.4,0.7-0.5,1.2l1.1,0.2
			c0.1-0.5,0.3-0.8,0.6-1c0.3-0.2,0.7-0.3,1.2-0.3c0.6,0,1,0.1,1.3,0.4c0.2,0.2,0.3,0.5,0.3,1c0,0,0,0.1,0,0.3
			c-0.4,0.2-1.1,0.3-2,0.4c-0.5,0.1-0.8,0.1-1,0.2c-0.3,0.1-0.6,0.2-0.8,0.4c-0.2,0.2-0.4,0.4-0.6,0.7s-0.2,0.6-0.2,0.9
			c0,0.6,0.2,1,0.6,1.4c0.4,0.4,1,0.5,1.7,0.5c0.4,0,0.9-0.1,1.3-0.2c0.4-0.1,0.8-0.4,1.2-0.8C324.1,73.3,324.2,73.6,324.3,73.8
			 M312.9,73.8v-3.5c0-0.5,0.1-0.9,0.2-1.3c0.1-0.3,0.2-0.5,0.4-0.6c0.2-0.1,0.4-0.2,0.7-0.2c0.3,0,0.6,0.1,0.8,0.2l0.4-1.1
			c-0.4-0.2-0.8-0.4-1.2-0.4c-0.3,0-0.5,0.1-0.7,0.2c-0.2,0.2-0.5,0.5-0.7,0.9v-1h-1v6.7H312.9z M305.9,68.4
			c0.4-0.4,0.8-0.5,1.3-0.5c0.6,0,1.1,0.2,1.4,0.7c0.2,0.3,0.4,0.7,0.4,1.3h-3.8C305.4,69.2,305.6,68.7,305.9,68.4 M308.4,72.7
			c-0.3,0.2-0.7,0.3-1.1,0.3c-0.6,0-1-0.2-1.4-0.6c-0.4-0.4-0.6-1-0.6-1.7h5c0-0.1,0-0.2,0-0.3c0-1.1-0.3-2-0.9-2.6
			c-0.6-0.6-1.3-0.9-2.2-0.9c-0.9,0-1.7,0.3-2.3,0.9c-0.6,0.6-0.9,1.5-0.9,2.6c0,1.1,0.3,1.9,0.9,2.6c0.6,0.6,1.4,0.9,2.3,0.9
			c0.8,0,1.4-0.2,1.9-0.6c0.5-0.4,0.8-0.9,1-1.6l-1.2-0.1C308.9,72.1,308.7,72.5,308.4,72.7 M294.8,73.8v-3.5c0-0.6,0.1-1.1,0.2-1.4
			c0.1-0.3,0.3-0.6,0.6-0.7c0.3-0.2,0.6-0.3,0.9-0.3c0.4,0,0.7,0.1,0.9,0.4c0.2,0.3,0.3,0.6,0.3,1.1v4.4h1.1v-3.9
			c0-0.7,0.2-1.2,0.5-1.5c0.3-0.3,0.7-0.5,1.2-0.5c0.3,0,0.5,0.1,0.7,0.2c0.2,0.1,0.3,0.3,0.4,0.5s0.1,0.5,0.1,1v4.2h1.1v-4.6
			c0-0.8-0.2-1.3-0.5-1.7c-0.4-0.4-0.9-0.6-1.5-0.6c-0.9,0-1.5,0.4-2.1,1.2c-0.1-0.4-0.4-0.7-0.7-0.9c-0.3-0.2-0.7-0.3-1.2-0.3
			c-0.4,0-0.8,0.1-1.2,0.3c-0.4,0.2-0.6,0.5-0.8,0.8v-0.9h-1v6.7H294.8z M287.7,68.5c0.4-0.4,0.9-0.6,1.4-0.6c0.6,0,1,0.2,1.4,0.6
			c0.4,0.4,0.6,1.1,0.6,1.9c0,0.9-0.2,1.5-0.6,2c-0.4,0.4-0.8,0.6-1.4,0.6c-0.6,0-1-0.2-1.4-0.6c-0.4-0.4-0.6-1.1-0.6-1.9
			C287.2,69.6,287.4,68.9,287.7,68.5 M286.9,73c0.6,0.6,1.3,0.9,2.3,0.9c0.6,0,1.1-0.1,1.6-0.4c0.5-0.3,0.9-0.7,1.1-1.2
			c0.3-0.5,0.4-1.2,0.4-2c0-1.1-0.3-1.9-0.9-2.5c-0.6-0.6-1.3-0.9-2.3-0.9c-0.8,0-1.5,0.2-2.1,0.7c-0.7,0.6-1,1.5-1,2.8
			C286,71.6,286.3,72.4,286.9,73 M284.8,72.8c-0.2,0-0.3,0-0.4-0.1c-0.1-0.1-0.2-0.1-0.2-0.2c0-0.1-0.1-0.3-0.1-0.6v-3.9h1.1v-0.9
			h-1.1v-2.4l-1.1,0.7v1.7h-0.8v0.9h0.8v3.9c0,0.7,0,1.1,0.1,1.3c0.1,0.2,0.3,0.4,0.5,0.5c0.2,0.1,0.5,0.2,1,0.2
			c0.3,0,0.5,0,0.9-0.1l-0.2-1C285.1,72.8,284.9,72.8,284.8,72.8 M276.7,73.4c0.5,0.4,1.1,0.5,2,0.5c0.5,0,1-0.1,1.4-0.3
			s0.7-0.4,1-0.8c0.2-0.3,0.3-0.7,0.3-1.1c0-0.4-0.1-0.7-0.3-1s-0.4-0.5-0.8-0.6c-0.3-0.1-0.9-0.3-1.7-0.5c-0.6-0.2-0.9-0.2-1-0.3
			c-0.2-0.1-0.3-0.2-0.4-0.3c-0.1-0.1-0.1-0.3-0.1-0.4c0-0.2,0.1-0.4,0.3-0.6c0.2-0.2,0.6-0.3,1.1-0.3c0.4,0,0.8,0.1,1,0.3
			c0.2,0.2,0.4,0.5,0.4,0.8l1.1-0.2c-0.1-0.4-0.2-0.8-0.4-1c-0.2-0.3-0.5-0.5-0.9-0.6c-0.4-0.2-0.9-0.2-1.4-0.2c-0.4,0-0.7,0-1,0.1
			c-0.3,0.1-0.5,0.2-0.7,0.3c-0.2,0.2-0.4,0.4-0.6,0.6c-0.1,0.3-0.2,0.5-0.2,0.8c0,0.3,0.1,0.6,0.3,0.9c0.2,0.3,0.4,0.5,0.7,0.6
			c0.3,0.2,0.9,0.3,1.7,0.6c0.6,0.2,1,0.3,1.2,0.4c0.2,0.1,0.3,0.4,0.3,0.6c0,0.3-0.1,0.5-0.4,0.8c-0.3,0.2-0.6,0.3-1.2,0.3
			c-0.5,0-0.9-0.1-1.2-0.4c-0.3-0.2-0.5-0.6-0.5-1l-1.1,0.2C276,72.5,276.3,73,276.7,73.4 M274.5,73.8v-6.7h-1.1v3.6
			c0,0.6-0.1,1-0.2,1.3c-0.1,0.3-0.3,0.5-0.6,0.7c-0.3,0.2-0.6,0.3-1,0.3c-0.3,0-0.6-0.1-0.9-0.3c-0.2-0.2-0.4-0.4-0.5-0.7
			c0-0.2-0.1-0.6-0.1-1.2v-3.7h-1.1v4.2c0,0.5,0,0.8,0.1,1.1c0.1,0.3,0.2,0.6,0.4,0.8c0.2,0.2,0.4,0.4,0.8,0.6
			c0.3,0.2,0.7,0.2,1.1,0.2c0.9,0,1.6-0.4,2.1-1.1v1H274.5z M266.4,72.6c-0.3,0.3-0.7,0.4-1.1,0.4c-0.6,0-1-0.2-1.4-0.6
			c-0.3-0.4-0.5-1.1-0.5-2c0-0.9,0.2-1.5,0.5-2c0.4-0.4,0.8-0.6,1.4-0.6c0.4,0,0.7,0.1,1,0.3c0.3,0.2,0.5,0.6,0.6,1L268,69
			c-0.1-0.7-0.4-1.2-0.9-1.6c-0.5-0.4-1.1-0.6-1.8-0.6c-0.6,0-1.1,0.1-1.6,0.4c-0.5,0.3-0.9,0.7-1.1,1.2c-0.2,0.5-0.4,1.2-0.4,1.9
			c0,1.1,0.3,2,0.8,2.6c0.6,0.6,1.3,0.9,2.2,0.9c0.7,0,1.4-0.2,1.9-0.7c0.5-0.4,0.8-1,0.9-1.8l-1.1-0.1
			C266.9,71.9,266.7,72.3,266.4,72.6 M256.1,70.8c0,0.5-0.1,0.9-0.2,1.1c-0.2,0.3-0.4,0.6-0.8,0.8c-0.3,0.2-0.7,0.3-1.2,0.3
			c-0.4,0-0.8-0.1-1-0.3c-0.2-0.2-0.3-0.5-0.3-0.8c0-0.2,0.1-0.4,0.2-0.5c0.1-0.2,0.3-0.3,0.5-0.4c0.2-0.1,0.5-0.2,1-0.2
			c0.8-0.1,1.5-0.3,1.9-0.4V70.8z M256.4,73.8h1.2c-0.1-0.3-0.2-0.5-0.3-0.8c0-0.3-0.1-1-0.1-2v-1.5c0-0.5,0-0.9-0.1-1.1
			c-0.1-0.3-0.2-0.6-0.4-0.8c-0.2-0.2-0.4-0.4-0.8-0.5c-0.4-0.1-0.8-0.2-1.4-0.2c-0.6,0-1.1,0.1-1.5,0.2c-0.4,0.2-0.8,0.4-1,0.7
			c-0.2,0.3-0.4,0.7-0.5,1.2l1.1,0.2c0.1-0.5,0.3-0.8,0.6-1c0.3-0.2,0.7-0.3,1.2-0.3c0.6,0,1,0.1,1.3,0.4c0.2,0.2,0.3,0.5,0.3,1
			c0,0,0,0.1,0,0.3c-0.4,0.2-1.1,0.3-2,0.4c-0.5,0.1-0.8,0.1-1,0.2c-0.3,0.1-0.6,0.2-0.8,0.4c-0.2,0.2-0.4,0.4-0.6,0.7
			c-0.1,0.3-0.2,0.6-0.2,0.9c0,0.6,0.2,1,0.6,1.4c0.4,0.4,1,0.5,1.7,0.5c0.4,0,0.9-0.1,1.3-0.2c0.4-0.1,0.8-0.4,1.2-0.8
			C256.2,73.3,256.3,73.6,256.4,73.8 M242.2,68.5c0.4-0.4,0.8-0.6,1.3-0.6c0.5,0,1,0.2,1.3,0.6c0.4,0.4,0.5,1,0.5,1.9
			c0,0.9-0.2,1.5-0.5,1.9c-0.4,0.4-0.8,0.6-1.3,0.6c-0.5,0-1-0.2-1.3-0.6c-0.4-0.4-0.5-1.1-0.5-1.9
			C241.6,69.5,241.8,68.9,242.2,68.5 M241.4,76c0.5,0.4,1.1,0.5,1.9,0.5c0.7,0,1.2-0.1,1.7-0.4c0.5-0.3,0.8-0.6,1-1
			c0.2-0.4,0.3-1.2,0.3-2.2v-5.8h-1.1v0.8c-0.5-0.6-1.2-1-2-1c-0.6,0-1.1,0.1-1.6,0.4c-0.4,0.3-0.8,0.7-1,1.3
			c-0.2,0.5-0.4,1.1-0.4,1.8c0,0.9,0.3,1.7,0.8,2.4c0.5,0.7,1.2,1,2.2,1c0.7,0,1.4-0.3,1.9-0.9c0,0.7,0,1.2-0.1,1.5
			c-0.1,0.4-0.3,0.7-0.6,0.9c-0.3,0.2-0.7,0.3-1.2,0.3c-0.5,0-0.9-0.1-1.2-0.3c-0.2-0.2-0.3-0.4-0.4-0.7l-1.1-0.2
			C240.7,75.1,240.9,75.6,241.4,76 M234.8,73.8v-3.7c0-0.9,0.2-1.4,0.5-1.8c0.4-0.3,0.8-0.5,1.3-0.5c0.3,0,0.6,0.1,0.8,0.2
			c0.2,0.1,0.4,0.3,0.5,0.6c0.1,0.2,0.1,0.6,0.1,1v4.1h1.1v-4.1c0-0.5,0-0.9-0.1-1.1c-0.1-0.3-0.2-0.6-0.4-0.8
			c-0.2-0.2-0.4-0.4-0.8-0.6c-0.3-0.1-0.7-0.2-1.1-0.2c-0.9,0-1.7,0.4-2.1,1.1v-1h-1v6.7H234.8z M231.9,67.1h-1.1v6.7h1.1V67.1z
			 M231.9,64.5h-1.1v1.3h1.1V64.5z M225,68.4c0.4-0.4,0.8-0.5,1.3-0.5c0.6,0,1.1,0.2,1.4,0.7c0.2,0.3,0.4,0.7,0.4,1.3h-3.8
			C224.5,69.2,224.7,68.7,225,68.4 M227.5,72.7c-0.3,0.2-0.7,0.3-1.1,0.3c-0.6,0-1-0.2-1.4-0.6c-0.4-0.4-0.6-1-0.6-1.7h5
			c0-0.1,0-0.2,0-0.3c0-1.1-0.3-2-0.9-2.6s-1.3-0.9-2.2-0.9c-0.9,0-1.7,0.3-2.3,0.9c-0.6,0.6-0.9,1.5-0.9,2.6c0,1.1,0.3,1.9,0.9,2.6
			c0.6,0.6,1.4,0.9,2.3,0.9c0.8,0,1.4-0.2,1.9-0.6s0.8-0.9,1-1.6l-1.2-0.1C228,72.1,227.8,72.5,227.5,72.7 M217.9,68.5
			c0.4-0.4,0.8-0.7,1.3-0.7c0.5,0,0.9,0.2,1.3,0.6c0.3,0.4,0.5,1.1,0.5,1.9c0,0.9-0.2,1.5-0.5,1.9c-0.4,0.4-0.8,0.7-1.3,0.7
			c-0.6,0-1.1-0.3-1.5-0.9c-0.2-0.4-0.3-0.9-0.3-1.8C217.4,69.6,217.6,68.9,217.9,68.5 M217.4,73c0.5,0.7,1.1,1,1.9,1
			c0.8,0,1.5-0.3,2.1-0.9c0.6-0.6,0.9-1.5,0.9-2.7c0-0.5-0.1-0.9-0.2-1.4c-0.1-0.4-0.3-0.8-0.6-1.1c-0.2-0.3-0.5-0.5-0.9-0.7
			c-0.4-0.2-0.8-0.3-1.2-0.3c-0.7,0-1.4,0.3-1.8,0.9v-3.3h-1.1v9.3h1.1V73z M209.5,73.8v-3.5c0-0.5,0.1-0.9,0.2-1.3
			c0.1-0.3,0.2-0.5,0.4-0.6c0.2-0.1,0.4-0.2,0.7-0.2c0.3,0,0.6,0.1,0.8,0.2l0.4-1.1c-0.4-0.2-0.8-0.4-1.2-0.4
			c-0.3,0-0.5,0.1-0.7,0.2c-0.2,0.2-0.5,0.5-0.7,0.9v-1h-1v6.7H209.5z M202.5,68.5c0.4-0.4,0.9-0.6,1.4-0.6c0.6,0,1,0.2,1.4,0.6
			c0.4,0.4,0.6,1.1,0.6,1.9c0,0.9-0.2,1.5-0.6,2c-0.4,0.4-0.8,0.6-1.4,0.6c-0.6,0-1-0.2-1.4-0.6c-0.4-0.4-0.6-1.1-0.6-1.9
			C201.9,69.6,202.1,68.9,202.5,68.5 M201.6,73c0.6,0.6,1.3,0.9,2.3,0.9c0.6,0,1.1-0.1,1.6-0.4c0.5-0.3,0.9-0.7,1.1-1.2
			c0.3-0.5,0.4-1.2,0.4-2c0-1.1-0.3-1.9-0.9-2.5c-0.6-0.6-1.3-0.9-2.3-0.9c-0.8,0-1.5,0.2-2.1,0.7c-0.7,0.6-1,1.5-1,2.8
			C200.7,71.6,201,72.4,201.6,73 M199,73.8v-5.9h1.3v-0.9H199v-0.6c0-0.4,0.1-0.7,0.2-0.8c0.1-0.1,0.4-0.2,0.7-0.2
			c0.2,0,0.4,0,0.7,0.1l0.2-1c-0.4-0.1-0.7-0.1-1.1-0.1c-0.5,0-0.9,0.1-1.2,0.3c-0.3,0.2-0.5,0.4-0.6,0.7c-0.1,0.2-0.1,0.6-0.1,1
			v0.7h-1v0.9h1v5.9H199z M192.1,73.8v-6.7H191v3.6c0,0.6-0.1,1-0.2,1.3c-0.1,0.3-0.3,0.5-0.6,0.7c-0.3,0.2-0.6,0.3-1,0.3
			s-0.6-0.1-0.9-0.3c-0.2-0.2-0.4-0.4-0.5-0.7c0-0.2-0.1-0.6-0.1-1.2v-3.7h-1.1v4.2c0,0.5,0,0.8,0.1,1.1c0.1,0.3,0.2,0.6,0.4,0.8
			c0.2,0.2,0.4,0.4,0.8,0.6c0.3,0.2,0.7,0.2,1.1,0.2c0.9,0,1.6-0.4,2.1-1.1v1H192.1z M180.8,68.5c0.4-0.4,0.8-0.6,1.4-0.6
			c0.6,0,1,0.2,1.4,0.6c0.4,0.4,0.6,1.1,0.6,1.9c0,0.9-0.2,1.5-0.6,2c-0.4,0.4-0.8,0.6-1.4,0.6c-0.6,0-1-0.2-1.4-0.6
			c-0.4-0.4-0.6-1.1-0.6-1.9C180.2,69.6,180.4,68.9,180.8,68.5 M179.9,73c0.6,0.6,1.3,0.9,2.3,0.9c0.6,0,1.1-0.1,1.6-0.4
			c0.5-0.3,0.9-0.7,1.1-1.2c0.3-0.5,0.4-1.2,0.4-2c0-1.1-0.3-1.9-0.9-2.5c-0.6-0.6-1.3-0.9-2.3-0.9c-0.8,0-1.5,0.2-2.1,0.7
			c-0.7,0.6-1,1.5-1,2.8C179,71.6,179.3,72.4,179.9,73 M173.7,76.5c0.4,0,0.7-0.1,0.9-0.3c0.3-0.2,0.5-0.5,0.7-0.8
			c0.2-0.3,0.4-0.8,0.6-1.5l2.6-6.9h-1.1l-1.4,3.9c-0.2,0.5-0.3,1-0.5,1.5c-0.1-0.5-0.3-1.1-0.5-1.6l-1.4-3.9h-1.2l2.6,6.8
			c0,0.1-0.1,0.2-0.1,0.3c-0.2,0.5-0.3,0.7-0.3,0.9c-0.1,0.2-0.2,0.3-0.4,0.4c-0.2,0.1-0.4,0.1-0.6,0.1c-0.2,0-0.4,0-0.7-0.1
			l0.1,1.1C173.2,76.5,173.4,76.5,173.7,76.5 M164,73.8v-2.7l0.8-0.8l2.2,3.4h1.4l-2.8-4.2l2.6-2.5h-1.5l-2.7,2.7v-5.3h-1.1v9.3H164
			z M156.8,73.8v-3.7c0-0.9,0.2-1.4,0.5-1.8c0.4-0.3,0.8-0.5,1.3-0.5c0.3,0,0.6,0.1,0.8,0.2c0.2,0.1,0.4,0.3,0.5,0.6
			c0.1,0.2,0.1,0.6,0.1,1v4.1h1.1v-4.1c0-0.5,0-0.9-0.1-1.1c-0.1-0.3-0.2-0.6-0.4-0.8c-0.2-0.2-0.4-0.4-0.8-0.6
			c-0.3-0.1-0.7-0.2-1.1-0.2c-0.9,0-1.7,0.4-2.1,1.1v-1h-1v6.7H156.8z M152.7,70.8c0,0.5-0.1,0.9-0.2,1.1c-0.2,0.3-0.4,0.6-0.8,0.8
			c-0.3,0.2-0.7,0.3-1.2,0.3c-0.4,0-0.8-0.1-1-0.3c-0.2-0.2-0.3-0.5-0.3-0.8c0-0.2,0.1-0.4,0.2-0.5c0.1-0.2,0.3-0.3,0.5-0.4
			c0.2-0.1,0.5-0.2,1-0.2c0.8-0.1,1.5-0.3,1.9-0.4V70.8z M153,73.8h1.2c-0.1-0.3-0.2-0.5-0.3-0.8c0-0.3-0.1-1-0.1-2v-1.5
			c0-0.5,0-0.9-0.1-1.1c-0.1-0.3-0.2-0.6-0.4-0.8c-0.2-0.2-0.4-0.4-0.8-0.5c-0.4-0.1-0.8-0.2-1.4-0.2c-0.6,0-1.1,0.1-1.5,0.2
			c-0.4,0.2-0.8,0.4-1,0.7c-0.2,0.3-0.4,0.7-0.5,1.2l1.1,0.2c0.1-0.5,0.3-0.8,0.6-1c0.3-0.2,0.7-0.3,1.2-0.3c0.6,0,1,0.1,1.3,0.4
			c0.2,0.2,0.3,0.5,0.3,1c0,0,0,0.1,0,0.3c-0.4,0.2-1.1,0.3-2,0.4c-0.5,0.1-0.8,0.1-1,0.2c-0.3,0.1-0.6,0.2-0.8,0.4
			c-0.2,0.2-0.4,0.4-0.6,0.7c-0.2,0.3-0.2,0.6-0.2,0.9c0,0.6,0.2,1,0.6,1.4c0.4,0.4,1,0.5,1.7,0.5c0.4,0,0.9-0.1,1.3-0.2
			c0.4-0.1,0.8-0.4,1.2-0.8C152.8,73.3,152.9,73.6,153,73.8 M142.3,73.8v-3.7c0-0.5,0.1-0.9,0.2-1.2c0.1-0.3,0.3-0.5,0.6-0.7
			c0.3-0.2,0.6-0.3,1-0.3c0.5,0,0.8,0.1,1.1,0.4c0.2,0.3,0.4,0.7,0.4,1.2v4.3h1.1v-4.3c0-0.7-0.1-1.2-0.2-1.5
			c-0.2-0.3-0.4-0.6-0.8-0.8c-0.4-0.2-0.8-0.3-1.3-0.3c-0.8,0-1.5,0.3-2,0.9v-3.3h-1.1v9.3H142.3z M139.6,72.8c-0.2,0-0.3,0-0.4-0.1
			c-0.1-0.1-0.2-0.1-0.2-0.2c0-0.1-0.1-0.3-0.1-0.6v-3.9h1.1v-0.9h-1.1v-2.4l-1.1,0.7v1.7h-0.8v0.9h0.8v3.9c0,0.7,0,1.1,0.1,1.3
			c0.1,0.2,0.3,0.4,0.5,0.5c0.2,0.1,0.6,0.2,1,0.2c0.3,0,0.5,0,0.9-0.1l-0.2-1C139.8,72.8,139.7,72.8,139.6,72.8 M128,68.5
			c0.4-0.4,0.9-0.6,1.4-0.6c0.6,0,1,0.2,1.4,0.6c0.4,0.4,0.6,1.1,0.6,1.9c0,0.9-0.2,1.5-0.6,2c-0.4,0.4-0.8,0.6-1.4,0.6
			c-0.6,0-1-0.2-1.4-0.6c-0.4-0.4-0.6-1.1-0.6-1.9C127.5,69.6,127.7,68.9,128,68.5 M127.2,73c0.6,0.6,1.3,0.9,2.3,0.9
			c0.6,0,1.1-0.1,1.6-0.4c0.5-0.3,0.9-0.7,1.1-1.2c0.3-0.5,0.4-1.2,0.4-2c0-1.1-0.3-1.9-0.9-2.5c-0.6-0.6-1.3-0.9-2.3-0.9
			c-0.8,0-1.5,0.2-2.1,0.7c-0.7,0.6-1,1.5-1,2.8C126.3,71.6,126.6,72.4,127.2,73 M125.1,72.8c-0.2,0-0.3,0-0.4-0.1
			c-0.1-0.1-0.2-0.1-0.2-0.2c0-0.1-0.1-0.3-0.1-0.6v-3.9h1.1v-0.9h-1.1v-2.4l-1.1,0.7v1.7h-0.8v0.9h0.8v3.9c0,0.7,0,1.1,0.1,1.3
			c0.1,0.2,0.3,0.4,0.5,0.5c0.2,0.1,0.5,0.2,1,0.2c0.3,0,0.5,0,0.9-0.1l-0.2-1C125.4,72.8,125.2,72.8,125.1,72.8 M113.5,68.5
			c0.3-0.4,0.8-0.6,1.3-0.6c0.5,0,1,0.2,1.3,0.6c0.4,0.4,0.5,1.1,0.5,2c0,0.8-0.2,1.5-0.5,1.9c-0.3,0.4-0.8,0.6-1.3,0.6
			c-0.5,0-0.9-0.2-1.3-0.6c-0.4-0.4-0.5-1.1-0.5-1.9C113,69.5,113.2,68.9,113.5,68.5 M117.7,73.8v-9.3h-1.1v3.3
			c-0.2-0.3-0.5-0.5-0.8-0.7c-0.3-0.2-0.7-0.3-1.1-0.3c-0.6,0-1.1,0.1-1.5,0.4c-0.4,0.3-0.8,0.7-1,1.3c-0.2,0.5-0.3,1.2-0.3,1.8
			c0,0.7,0.1,1.3,0.4,1.8c0.2,0.5,0.6,0.9,1,1.2c0.5,0.3,0.9,0.4,1.5,0.4c0.8,0,1.5-0.3,1.9-1v0.9H117.7z M106.5,68.4
			c0.4-0.4,0.8-0.5,1.3-0.5c0.6,0,1.1,0.2,1.4,0.7c0.2,0.3,0.4,0.7,0.4,1.3h-3.8C105.9,69.2,106.1,68.7,106.5,68.4 M108.9,72.7
			c-0.3,0.2-0.7,0.3-1.1,0.3c-0.6,0-1-0.2-1.4-0.6c-0.4-0.4-0.6-1-0.6-1.7h5c0-0.1,0-0.2,0-0.3c0-1.1-0.3-2-0.9-2.6
			c-0.6-0.6-1.3-0.9-2.2-0.9c-0.9,0-1.7,0.3-2.3,0.9c-0.6,0.6-0.9,1.5-0.9,2.6c0,1.1,0.3,1.9,0.9,2.6c0.6,0.6,1.4,0.9,2.3,0.9
			c0.8,0,1.4-0.2,1.9-0.6c0.5-0.4,0.8-0.9,1-1.6l-1.2-0.1C109.5,72.1,109.2,72.5,108.9,72.7 M103.4,72.8c-0.2,0-0.3,0-0.4-0.1
			c-0.1-0.1-0.2-0.1-0.2-0.2s-0.1-0.3-0.1-0.6v-3.9h1.1v-0.9h-1.1v-2.4l-1.1,0.7v1.7h-0.8v0.9h0.8v3.9c0,0.7,0,1.1,0.1,1.3
			c0.1,0.2,0.3,0.4,0.5,0.5c0.2,0.1,0.5,0.2,1,0.2c0.3,0,0.5,0,0.9-0.1l-0.2-1C103.7,72.8,103.5,72.8,103.4,72.8 M95.3,73.8v-3.7
			c0-0.9,0.2-1.4,0.5-1.8c0.4-0.3,0.8-0.5,1.3-0.5c0.3,0,0.6,0.1,0.8,0.2c0.2,0.1,0.4,0.3,0.5,0.6c0.1,0.2,0.1,0.6,0.1,1v4.1h1.1
			v-4.1c0-0.5,0-0.9-0.1-1.1c-0.1-0.3-0.2-0.6-0.4-0.8c-0.2-0.2-0.4-0.4-0.8-0.6c-0.3-0.1-0.7-0.2-1.1-0.2c-0.9,0-1.7,0.4-2.1,1.1
			v-1h-1v6.7H95.3z M91.3,70.8c0,0.5-0.1,0.9-0.2,1.1c-0.2,0.3-0.4,0.6-0.8,0.8c-0.3,0.2-0.7,0.3-1.2,0.3c-0.4,0-0.8-0.1-1-0.3
			c-0.2-0.2-0.3-0.5-0.3-0.8c0-0.2,0.1-0.4,0.2-0.5c0.1-0.2,0.3-0.3,0.5-0.4s0.5-0.2,1-0.2c0.8-0.1,1.5-0.3,1.9-0.4V70.8z
			 M91.6,73.8h1.2c-0.1-0.3-0.2-0.5-0.3-0.8c0-0.3-0.1-1-0.1-2v-1.5c0-0.5,0-0.9-0.1-1.1c-0.1-0.3-0.2-0.6-0.4-0.8
			c-0.2-0.2-0.4-0.4-0.8-0.5c-0.4-0.1-0.8-0.2-1.4-0.2c-0.6,0-1.1,0.1-1.5,0.2c-0.4,0.2-0.8,0.4-1,0.7c-0.2,0.3-0.4,0.7-0.5,1.2
			l1.1,0.2c0.1-0.5,0.3-0.8,0.6-1c0.3-0.2,0.7-0.3,1.2-0.3c0.6,0,1,0.1,1.3,0.4c0.2,0.2,0.3,0.5,0.3,1c0,0,0,0.1,0,0.3
			c-0.4,0.2-1.1,0.3-2,0.4c-0.5,0.1-0.8,0.1-1,0.2c-0.3,0.1-0.6,0.2-0.8,0.4c-0.2,0.2-0.4,0.4-0.6,0.7s-0.2,0.6-0.2,0.9
			c0,0.6,0.2,1,0.6,1.4c0.4,0.4,1,0.5,1.7,0.5c0.4,0,0.9-0.1,1.3-0.2s0.8-0.4,1.2-0.8C91.4,73.3,91.5,73.6,91.6,73.8 M80,73.8
			l1.4-5.2l0.3,1.1l1.1,4h1.2l2.1-6.7h-1.1L83.7,71l-0.4,1.3L83,71l-1-3.9h-1.2L79.8,71c-0.2,0.9-0.3,1.3-0.3,1.4L79,70.9l-1.1-3.9
			h-1.2l2.1,6.7H80z M72.3,72.8c-0.2,0-0.3,0-0.4-0.1c-0.1-0.1-0.2-0.1-0.2-0.2s-0.1-0.3-0.1-0.6v-3.9h1.1v-0.9h-1.1v-2.4l-1.1,0.7
			v1.7h-0.8v0.9h0.8v3.9c0,0.7,0,1.1,0.1,1.3c0.1,0.2,0.3,0.4,0.5,0.5c0.2,0.1,0.5,0.2,1,0.2c0.3,0,0.5,0,0.9-0.1l-0.2-1
			C72.6,72.8,72.5,72.8,72.3,72.8 M64.3,73.4c0.5,0.4,1.1,0.5,2,0.5c0.5,0,1-0.1,1.4-0.3s0.7-0.4,1-0.8c0.2-0.3,0.3-0.7,0.3-1.1
			c0-0.4-0.1-0.7-0.3-1c-0.2-0.3-0.4-0.5-0.8-0.6c-0.3-0.1-0.9-0.3-1.7-0.5c-0.6-0.2-0.9-0.2-1-0.3c-0.2-0.1-0.3-0.2-0.4-0.3
			c-0.1-0.1-0.1-0.3-0.1-0.4c0-0.2,0.1-0.4,0.3-0.6c0.2-0.2,0.6-0.3,1.1-0.3c0.4,0,0.8,0.1,1,0.3c0.2,0.2,0.4,0.5,0.4,0.8l1.1-0.2
			c-0.1-0.4-0.2-0.8-0.4-1c-0.2-0.3-0.5-0.5-0.9-0.6c-0.4-0.2-0.9-0.2-1.4-0.2c-0.4,0-0.7,0-1,0.1c-0.3,0.1-0.5,0.2-0.7,0.3
			c-0.2,0.2-0.4,0.4-0.6,0.6c-0.1,0.3-0.2,0.5-0.2,0.8c0,0.3,0.1,0.6,0.2,0.9c0.2,0.3,0.4,0.5,0.7,0.6c0.3,0.2,0.9,0.3,1.7,0.6
			c0.6,0.2,1,0.3,1.2,0.4c0.2,0.1,0.3,0.4,0.3,0.6c0,0.3-0.1,0.5-0.4,0.8c-0.3,0.2-0.6,0.3-1.2,0.3c-0.5,0-0.9-0.1-1.2-0.4
			c-0.3-0.2-0.5-0.6-0.5-1l-1.1,0.2C63.5,72.5,63.8,73,64.3,73.4 M62.1,73.8v-6.7h-1.1v3.6c0,0.6-0.1,1-0.2,1.3
			c-0.1,0.3-0.3,0.5-0.6,0.7c-0.3,0.2-0.6,0.3-1,0.3c-0.3,0-0.6-0.1-0.9-0.3c-0.2-0.2-0.4-0.4-0.5-0.7c0-0.2-0.1-0.6-0.1-1.2v-3.7
			h-1.1v4.2c0,0.5,0,0.8,0.1,1.1c0.1,0.3,0.2,0.6,0.4,0.8c0.2,0.2,0.4,0.4,0.8,0.6c0.3,0.2,0.7,0.2,1.1,0.2c0.9,0,1.6-0.4,2.1-1.1v1
			H62.1z M53.2,76.5c0.6,0,1.1-0.2,1.4-0.6c0.2-0.3,0.3-0.9,0.3-1.7v-7.1h-1.1v7.1c0,0.6-0.1,1-0.2,1.2c-0.1,0.2-0.3,0.2-0.5,0.2
			c-0.1,0-0.3,0-0.5-0.1l-0.2,1C52.6,76.5,52.9,76.5,53.2,76.5 M54.9,64.5h-1.1v1.3h1.1V64.5z M44.3,68.4c0.4-0.4,0.8-0.5,1.3-0.5
			c0.6,0,1.1,0.2,1.4,0.7c0.2,0.3,0.4,0.7,0.4,1.3h-3.8C43.8,69.2,44,68.7,44.3,68.4 M46.8,72.7c-0.3,0.2-0.7,0.3-1.1,0.3
			c-0.6,0-1-0.2-1.4-0.6c-0.4-0.4-0.6-1-0.6-1.7h5c0-0.1,0-0.2,0-0.3c0-1.1-0.3-2-0.9-2.6c-0.6-0.6-1.3-0.9-2.2-0.9
			c-0.9,0-1.7,0.3-2.3,0.9c-0.6,0.6-0.9,1.5-0.9,2.6c0,1.1,0.3,1.9,0.9,2.6c0.6,0.6,1.4,0.9,2.3,0.9c0.8,0,1.4-0.2,1.9-0.6
			c0.5-0.4,0.8-0.9,1-1.6l-1.2-0.1C47.3,72.1,47.1,72.5,46.8,72.7 M33.9,73.8l2-7.1c0.1-0.3,0.2-0.7,0.3-1.1c0,0.1,0.1,0.5,0.3,1.1
			l2,7.1h1.2l2.6-9.3h-1.2l-1.5,6c-0.2,0.8-0.3,1.4-0.5,2c-0.1-1-0.4-2.1-0.7-3.3l-1.3-4.7h-1.5l-1.8,6.3c0,0.2-0.2,0.7-0.4,1.7
			c-0.1-0.6-0.2-1.3-0.4-1.9l-1.4-6.1h-1.3l2.5,9.3H33.9z"/>
		<path class="st0" d="M84.6,38c0,2,1.6,2.6,3,2.8c1.5,0.3,2,0.4,2,0.9s-0.5,0.7-1.2,0.7c-1.3,0-2.2-0.5-2.8-1.2l-1.4,1.8
			c0.8,1,2.3,1.5,4,1.5c2.4,0,3.9-0.9,3.9-2.9c0-1.9-1.3-2.5-2.9-2.8c-1.6-0.3-2.1-0.4-2.1-0.9c0-0.4,0.4-0.6,1.2-0.6
			c1,0,1.9,0.4,2.4,0.9l1.3-1.7c-0.8-0.8-1.9-1.3-3.6-1.3C86,35.2,84.6,36.2,84.6,38 M80.3,44.4h3.1l-3.9-5.1l3.9-3.9h-3.1L77,38.9
			v-7.1h-2.4v12.6H77v-2.6l0.9-0.9L80.3,44.4z M66.1,35.4h-2.3v9h2.4v-4.3c0-1.6,0.6-2.6,2-2.6c1,0,1.6,0.6,1.6,1.9v5h2.4v-5.6
			c0-2.3-1.1-3.6-3.2-3.6c-1.3,0-2.3,0.6-2.9,1.5V35.4z M55.3,38.5c0.3-0.8,1.3-1.2,2.2-1.2c1.1,0,1.6,0.4,1.6,0.9v0.1
			c0,0.2-0.2,0.3-0.5,0.4L56.2,39c-1.7,0.1-2.9,1.2-2.9,2.8c0,1.7,1.3,2.8,3,2.8c1.4,0,2.3-0.7,2.8-1.4v1.2h2.4v-5.6
			c0-2.5-1.3-3.7-3.9-3.7c-2,0-3.4,0.7-4,2L55.3,38.5z M59.1,40.8c0,1-0.8,1.9-2.1,1.9c-0.8,0-1.3-0.4-1.3-1c0-0.5,0.4-0.9,1.1-1
			l2.2-0.3V40.8z M43.1,31.8v12.6h2.4v-4.3c0-1.6,0.6-2.6,2-2.6c1.1,0,1.6,0.6,1.6,1.9v5h2.4v-5.6c0-2.3-1.1-3.6-3.2-3.6
			c-1.3,0-2.2,0.6-2.8,1.5v-4.9H43.1z M41.7,34.3v-2.5H30.1v2.5h4.6v10.1h2.5V34.3H41.7z"/>
		<polyline class="st1" points="170.1,221.7 208.8,260.3 299.9,169.2 		"/>
	</g>
</g>
</svg>
