<?xml version="1.0" encoding="utf-8"?>
<!-- Generator: Adobe Illustrator 20.1.0, SVG Export Plug-In . SVG Version: 6.00 Build 0)  -->
<svg version="1.1" id="Layer_1" xmlns="http://www.w3.org/2000/svg" xmlns:xlink="http://www.w3.org/1999/xlink" x="0px" y="0px"
	 viewBox="0 0 284.4 213.8" style="enable-background:new 0 0 284.4 213.8;" xml:space="preserve">
<style type="text/css">
	.st0{fill:#F5F4F2;}
	
		.st1{clip-path:url(#SVGID_2_);fill:none;stroke:#3E3935;stroke-width:0.735;stroke-linecap:round;stroke-linejoin:round;stroke-miterlimit:10;}
	.st2{clip-path:url(#SVGID_2_);fill:none;stroke:#3E3935;stroke-width:1.127;stroke-linecap:round;stroke-miterlimit:10;}
	.st3{fill:#CBC4BC;}
	.st4{fill:none;stroke:#3E3935;stroke-width:0.735;stroke-linecap:round;stroke-linejoin:round;stroke-miterlimit:10;}
	.st5{clip-path:url(#SVGID_4_);fill:#CBC4BC;}
	.st6{clip-path:url(#SVGID_4_);fill:#3E3935;}
	.st7{clip-path:url(#SVGID_6_);fill:#3E3935;}
	.st8{clip-path:url(#SVGID_6_);fill:#CBC4BC;}
	.st9{clip-path:url(#SVGID_8_);fill:#3E3935;}
	.st10{clip-path:url(#SVGID_8_);fill:#CBC4BC;}
	.st11{clip-path:url(#SVGID_10_);fill:#3E3935;}
	.st12{clip-path:url(#SVGID_12_);fill:#3E3935;}
	.st13{clip-path:url(#SVGID_12_);fill:#CBC4BC;}
	.st14{clip-path:url(#SVGID_14_);fill:#3E3935;}
	.st15{clip-path:url(#SVGID_14_);fill:#CBC4BC;}
	.st16{clip-path:url(#SVGID_16_);fill:#3E3935;}
	.st17{clip-path:url(#SVGID_16_);fill:#CBC4BC;}
	
		.st18{clip-path:url(#SVGID_16_);fill:none;stroke:#3E3935;stroke-width:0.735;stroke-linecap:round;stroke-linejoin:round;stroke-miterlimit:10;}
	.st19{clip-path:url(#SVGID_18_);fill:#3E3935;}
	.st20{clip-path:url(#SVGID_18_);fill:#CBC4BC;}
	.st21{clip-path:url(#SVGID_20_);fill:#3E3935;}
	.st22{clip-path:url(#SVGID_20_);fill:#CBC4BC;}
	.st23{clip-path:url(#SVGID_22_);fill:#3E3935;}
	.st24{clip-path:url(#SVGID_22_);fill:#CBC4BC;}
	.st25{clip-path:url(#SVGID_24_);fill:#3E3935;}
	.st26{clip-path:url(#SVGID_24_);fill:#CBC4BC;}
	.st27{clip-path:url(#SVGID_26_);fill:#3E3935;}
	.st28{clip-path:url(#SVGID_26_);fill:#CBC4BC;}
	.st29{clip-path:url(#SVGID_28_);fill:#3E3935;}
	.st30{clip-path:url(#SVGID_30_);fill:#3E3935;}
	.st31{clip-path:url(#SVGID_30_);fill:#9B948C;}
	
		.st32{clip-path:url(#SVGID_30_);fill:none;stroke:#3E3935;stroke-width:0.735;stroke-linecap:round;stroke-linejoin:round;stroke-miterlimit:10;}
	.st33{fill:#51B848;}
	
		.st34{clip-path:url(#SVGID_32_);fill:none;stroke:#3E3935;stroke-width:0.735;stroke-linecap:round;stroke-linejoin:round;stroke-miterlimit:10;}
	
		.st35{clip-path:url(#SVGID_34_);fill:none;stroke:#3E3935;stroke-width:0.735;stroke-linecap:round;stroke-linejoin:round;stroke-miterlimit:10;}
	.st36{clip-path:url(#SVGID_34_);fill:#F04923;}
	.st37{clip-path:url(#SVGID_34_);fill:#FFFFFF;}
	.st38{clip-path:url(#SVGID_34_);}
</style>
<rect class="st0" width="284.4" height="213.8"/>
<g>
	<path d="M22.6,19.4c2.8,0,4.8,2.1,4.8,4.9c0,2.8-2,4.9-4.8,4.9H19v-9.8H22.6z M22.6,21.4H21v5.9h1.6c1.7,0,2.8-1.3,2.8-2.9
		C25.4,22.6,24.3,21.4,22.6,21.4z"/>
	<path d="M32.3,22c2.2,0,3.8,1.5,3.8,3.7s-1.6,3.7-3.8,3.7c-2.2,0-3.8-1.5-3.8-3.7S30.1,22,32.3,22z M32.3,23.8
		c-1.1,0-1.9,0.7-1.9,1.9s0.8,1.9,1.9,1.9c1.1,0,1.9-0.7,1.9-1.9S33.3,23.8,32.3,23.8z"/>
	<path d="M39,29.2l-2.8-7h2l1.6,4.2l1.7-4.2h1.5l1.7,4.2l1.6-4.2h2l-2.8,7h-1.4L42.2,25l-1.8,4.2H39z"/>
	<path d="M50.9,23.2c0.5-0.7,1.2-1.2,2.3-1.2c1.6,0,2.5,1.1,2.5,2.8v4.3h-1.9v-3.9c0-1.1-0.5-1.5-1.3-1.5c-1.1,0-1.5,0.8-1.5,2v3.3
		h-1.8v-7h1.8V23.2z"/>
	<path d="M60.2,27.9c0,0.8-0.6,1.3-1.3,1.3c-0.8,0-1.3-0.6-1.3-1.3s0.5-1.3,1.3-1.3C59.6,26.5,60.2,27.1,60.2,27.9z"/>
	<path d="M70.1,19.4c2.8,0,4.8,2.1,4.8,4.9c0,2.8-2,4.9-4.8,4.9h-3.6v-9.8H70.1z M70.1,21.4h-1.6v5.9h1.6c1.7,0,2.8-1.3,2.8-2.9
		C72.9,22.6,71.7,21.4,70.1,21.4z"/>
	<path d="M76,23.6c0.5-1.1,1.6-1.6,3.1-1.6c2.1,0,3.1,0.9,3.1,2.8v4.3h-1.8v-1c-0.4,0.6-1.1,1.1-2.2,1.1c-1.4,0-2.4-0.9-2.4-2.2
		c0-1.3,1-2.1,2.2-2.2l1.9-0.2c0.2,0,0.4-0.1,0.4-0.3v-0.1c0-0.4-0.4-0.7-1.2-0.7c-0.7,0-1.5,0.2-1.8,0.9L76,23.6z M80.3,26.1
		l-1.7,0.2c-0.6,0.1-0.9,0.4-0.9,0.8c0,0.4,0.3,0.7,1,0.7c1,0,1.6-0.7,1.6-1.4V26.1z"/>
	<path d="M85.7,23.2C86.2,22.5,87,22,88,22c1.6,0,2.5,1.1,2.5,2.8v4.3h-1.9v-3.9c0-1.1-0.5-1.5-1.3-1.5c-1.1,0-1.5,0.8-1.5,2v3.3H84
		v-7h1.8V23.2z"/>
	<path d="M95.2,22c1.1,0,1.9,0.5,2.3,1.1v-1h1.8v6.5c0,1.8-0.9,3.4-3.8,3.4c-1.4,0-2.4-0.4-3.1-1.1l0.9-1.5c0.6,0.6,1.3,0.9,2.1,0.9
		c1.6,0,2.1-0.8,2.1-1.8v-0.4c-0.5,0.7-1.2,1.1-2.3,1.1c-1.9,0-3.3-1.3-3.3-3.6C92,23.3,93.5,22,95.2,22z M95.7,23.8
		c-1.1,0-1.8,0.7-1.8,1.9s0.8,1.9,1.8,1.9c1.1,0,1.8-0.7,1.8-1.9C97.5,24.5,96.8,23.8,95.7,23.8z"/>
	<path d="M104.3,22c2.1,0,3.5,1.5,3.5,3.7v0.5h-5.2l0,0c0.2,0.9,1.1,1.3,1.9,1.3c0.8,0,1.5-0.3,2-0.7l0.8,1.5
		c-0.6,0.5-1.4,0.9-2.8,0.9c-2.4,0-3.8-1.6-3.8-3.7C100.7,23.6,102.1,22,104.3,22z M105.7,24.9c-0.1-0.8-0.6-1.3-1.5-1.3
		s-1.5,0.5-1.7,1.3H105.7z"/>
	<path d="M110.9,23.3c0.4-0.8,1-1.3,2-1.3c0.3,0,0.5,0,0.7,0.1v2c-0.3-0.1-0.5-0.1-0.8-0.1c-1.2,0-1.8,0.7-1.8,2v3.2h-1.8v-7h1.8
		V23.3z"/>
	<path d="M116.4,27.9c0,0.8-0.6,1.3-1.3,1.3c-0.8,0-1.3-0.6-1.3-1.3s0.5-1.3,1.3-1.3C115.8,26.5,116.4,27.1,116.4,27.9z"/>
	<path d="M126.3,19.4c2.8,0,4.8,2.1,4.8,4.9c0,2.8-2,4.9-4.8,4.9h-3.6v-9.8H126.3z M126.3,21.4h-1.6v5.9h1.6c1.7,0,2.8-1.3,2.8-2.9
		C129.2,22.6,128,21.4,126.3,21.4z"/>
	<path d="M133.7,19c0.7,0,1.2,0.5,1.2,1.2s-0.5,1.2-1.2,1.2s-1.2-0.5-1.2-1.2S133,19,133.7,19z M134.6,22.2v7h-1.8v-7H134.6z"/>
	<path d="M136.3,23.6c0.5-1.1,1.6-1.6,3.1-1.6c2.1,0,3.1,0.9,3.1,2.8v4.3h-1.8v-1c-0.4,0.6-1.1,1.1-2.2,1.1c-1.4,0-2.4-0.9-2.4-2.2
		c0-1.3,1-2.1,2.2-2.2l1.9-0.2c0.2,0,0.4-0.1,0.4-0.3v-0.1c0-0.4-0.4-0.7-1.2-0.7c-0.7,0-1.5,0.2-1.8,0.9L136.3,23.6z M140.6,26.1
		l-1.7,0.2c-0.6,0.1-0.9,0.4-0.9,0.8c0,0.4,0.3,0.7,1,0.7c1,0,1.6-0.7,1.6-1.4V26.1z"/>
	<path d="M146.1,19.4v9.8h-1.9v-9.8H146.1z"/>
	<path d="M150.7,27.9c0,0.8-0.6,1.3-1.3,1.3s-1.3-0.6-1.3-1.3s0.5-1.3,1.3-1.3S150.7,27.1,150.7,27.9z"/>
</g>
<g>
	<path d="M18.8,50.9v-6.1h0.8v6.1H18.8z"/>
	<path d="M21.1,50.9v-3.8h-0.7v-0.6h0.7v-0.5c0-0.3,0-0.5,0.1-0.7c0.1-0.2,0.2-0.4,0.4-0.5c0.2-0.1,0.4-0.2,0.8-0.2
		c0.2,0,0.4,0,0.7,0.1l-0.1,0.7c-0.2,0-0.3,0-0.4,0c-0.2,0-0.4,0-0.5,0.1c-0.1,0.1-0.1,0.3-0.1,0.5v0.4h0.9v0.6h-0.9v3.8H21.1z"/>
	<path d="M25.6,52.6l-0.1-0.7c0.2,0,0.3,0.1,0.4,0.1c0.2,0,0.3,0,0.4-0.1s0.2-0.1,0.2-0.2c0-0.1,0.1-0.3,0.2-0.6c0,0,0-0.1,0.1-0.2
		l-1.7-4.4H26l0.9,2.6c0.1,0.3,0.2,0.7,0.3,1c0.1-0.3,0.2-0.7,0.3-1l0.9-2.6h0.7L27.6,51c-0.2,0.5-0.3,0.8-0.4,1
		c-0.1,0.2-0.3,0.4-0.5,0.5c-0.2,0.1-0.4,0.2-0.6,0.2C25.9,52.7,25.8,52.7,25.6,52.6z"/>
	<path d="M29.6,48.7c0-0.8,0.2-1.4,0.7-1.8c0.4-0.3,0.8-0.5,1.4-0.5c0.6,0,1.1,0.2,1.5,0.6s0.6,0.9,0.6,1.6c0,0.6-0.1,1-0.3,1.3
		c-0.2,0.3-0.4,0.6-0.7,0.8C32.4,51,32.1,51,31.7,51c-0.6,0-1.1-0.2-1.5-0.6C29.8,50.1,29.6,49.5,29.6,48.7z M30.4,48.7
		c0,0.6,0.1,1,0.4,1.3s0.6,0.4,0.9,0.4c0.4,0,0.7-0.1,0.9-0.4c0.2-0.3,0.4-0.7,0.4-1.3c0-0.5-0.1-1-0.4-1.2s-0.6-0.4-0.9-0.4
		c-0.4,0-0.7,0.1-0.9,0.4S30.4,48.2,30.4,48.7z"/>
	<path d="M37.5,50.9v-0.6c-0.3,0.5-0.8,0.7-1.4,0.7c-0.3,0-0.5,0-0.7-0.1s-0.4-0.2-0.5-0.4s-0.2-0.3-0.2-0.6c0-0.1,0-0.4,0-0.7v-2.7
		h0.7V49c0,0.4,0,0.7,0,0.8c0,0.2,0.1,0.4,0.3,0.5c0.2,0.1,0.3,0.2,0.6,0.2s0.4-0.1,0.6-0.2s0.3-0.3,0.4-0.5s0.1-0.5,0.1-0.9v-2.4
		h0.7v4.4H37.5z"/>
	<path d="M41.4,49.6l0.7-0.1c0,0.3,0.2,0.5,0.3,0.7c0.2,0.2,0.5,0.2,0.8,0.2c0.3,0,0.6-0.1,0.8-0.2s0.2-0.3,0.2-0.5
		c0-0.2-0.1-0.3-0.2-0.4c-0.1-0.1-0.4-0.2-0.8-0.3c-0.5-0.1-0.9-0.3-1.1-0.4c-0.2-0.1-0.4-0.2-0.5-0.4c-0.1-0.2-0.2-0.4-0.2-0.6
		c0-0.2,0-0.4,0.1-0.5s0.2-0.3,0.4-0.4c0.1-0.1,0.3-0.2,0.5-0.2s0.4-0.1,0.6-0.1c0.3,0,0.6,0,0.9,0.1c0.3,0.1,0.5,0.2,0.6,0.4
		c0.1,0.2,0.2,0.4,0.3,0.7l-0.7,0.1c0-0.2-0.1-0.4-0.3-0.5s-0.4-0.2-0.7-0.2c-0.3,0-0.6,0.1-0.7,0.2c-0.1,0.1-0.2,0.2-0.2,0.4
		c0,0.1,0,0.2,0.1,0.3c0.1,0.1,0.2,0.1,0.3,0.2c0.1,0,0.3,0.1,0.7,0.2c0.5,0.1,0.9,0.3,1.1,0.3s0.4,0.2,0.5,0.4s0.2,0.4,0.2,0.6
		c0,0.2-0.1,0.5-0.2,0.7c-0.1,0.2-0.4,0.4-0.6,0.5C44,51,43.6,51,43.3,51c-0.6,0-1-0.1-1.3-0.4S41.5,50.1,41.4,49.6z"/>
	<path d="M49,49.5l0.8,0.1c-0.1,0.5-0.3,0.8-0.7,1.1c-0.3,0.2-0.7,0.4-1.3,0.4c-0.6,0-1.2-0.2-1.5-0.6c-0.4-0.4-0.6-1-0.6-1.7
		c0-0.7,0.2-1.3,0.6-1.7s0.9-0.6,1.5-0.6c0.6,0,1.1,0.2,1.4,0.6c0.4,0.4,0.6,1,0.6,1.7c0,0,0,0.1,0,0.2h-3.3c0,0.5,0.2,0.9,0.4,1.1
		c0.2,0.3,0.6,0.4,0.9,0.4c0.3,0,0.5-0.1,0.7-0.2C48.7,50.1,48.9,49.8,49,49.5z M46.5,48.3H49c0-0.4-0.1-0.6-0.3-0.8
		c-0.2-0.3-0.5-0.4-0.9-0.4c-0.3,0-0.6,0.1-0.9,0.3C46.7,47.6,46.6,47.9,46.5,48.3z"/>
	<path d="M53.7,49.5l0.8,0.1c-0.1,0.5-0.3,0.8-0.7,1.1c-0.3,0.2-0.7,0.4-1.3,0.4c-0.6,0-1.2-0.2-1.5-0.6c-0.4-0.4-0.6-1-0.6-1.7
		c0-0.7,0.2-1.3,0.6-1.7s0.9-0.6,1.5-0.6c0.6,0,1.1,0.2,1.4,0.6c0.4,0.4,0.6,1,0.6,1.7c0,0,0,0.1,0,0.2h-3.3c0,0.5,0.2,0.9,0.4,1.1
		c0.2,0.3,0.6,0.4,0.9,0.4c0.3,0,0.5-0.1,0.7-0.2C53.4,50.1,53.6,49.8,53.7,49.5z M51.3,48.3h2.5c0-0.4-0.1-0.6-0.3-0.8
		c-0.2-0.3-0.5-0.4-0.9-0.4c-0.3,0-0.6,0.1-0.9,0.3C51.4,47.6,51.3,47.9,51.3,48.3z"/>
	<path d="M60.7,50.4c-0.3,0.2-0.5,0.4-0.8,0.5C59.6,51,59.3,51,59,51c-0.5,0-0.9-0.1-1.1-0.4c-0.3-0.2-0.4-0.5-0.4-0.9
		c0-0.2,0-0.4,0.1-0.6c0.1-0.2,0.2-0.3,0.4-0.4s0.3-0.2,0.5-0.2c0.1,0,0.4-0.1,0.7-0.1c0.6-0.1,1-0.2,1.3-0.3c0-0.1,0-0.2,0-0.2
		c0-0.3-0.1-0.5-0.2-0.6c-0.2-0.2-0.5-0.3-0.9-0.3c-0.4,0-0.6,0.1-0.8,0.2s-0.3,0.3-0.4,0.7l-0.7-0.1c0.1-0.3,0.2-0.6,0.3-0.8
		s0.4-0.3,0.7-0.4c0.3-0.1,0.6-0.2,1-0.2c0.4,0,0.7,0,0.9,0.1c0.2,0.1,0.4,0.2,0.5,0.3s0.2,0.3,0.2,0.5c0,0.1,0,0.4,0,0.7v1
		c0,0.7,0,1.1,0,1.3s0.1,0.4,0.2,0.5h-0.8C60.7,50.8,60.7,50.6,60.7,50.4z M60.6,48.7c-0.3,0.1-0.7,0.2-1.2,0.3
		c-0.3,0-0.5,0.1-0.7,0.1c-0.1,0.1-0.2,0.1-0.3,0.2c-0.1,0.1-0.1,0.2-0.1,0.4c0,0.2,0.1,0.4,0.2,0.5s0.4,0.2,0.7,0.2
		c0.3,0,0.5-0.1,0.8-0.2c0.2-0.1,0.4-0.3,0.5-0.5c0.1-0.2,0.1-0.4,0.1-0.7V48.7z"/>
	<path d="M65,50.9v-3.8h-0.7v-0.6H65v-0.5c0-0.3,0-0.5,0.1-0.7c0.1-0.2,0.2-0.4,0.4-0.5c0.2-0.1,0.4-0.2,0.8-0.2
		c0.2,0,0.4,0,0.7,0.1l-0.1,0.7c-0.2,0-0.3,0-0.4,0c-0.2,0-0.4,0-0.5,0.1c-0.1,0.1-0.1,0.3-0.1,0.5v0.4h0.9v0.6h-0.9v3.8H65z"/>
	<path d="M70.1,50.4c-0.3,0.2-0.5,0.4-0.8,0.5C69,51,68.8,51,68.5,51c-0.5,0-0.9-0.1-1.1-0.4c-0.3-0.2-0.4-0.5-0.4-0.9
		c0-0.2,0-0.4,0.1-0.6c0.1-0.2,0.2-0.3,0.4-0.4s0.3-0.2,0.5-0.2c0.1,0,0.4-0.1,0.7-0.1c0.6-0.1,1-0.2,1.3-0.3c0-0.1,0-0.2,0-0.2
		c0-0.3-0.1-0.5-0.2-0.6c-0.2-0.2-0.5-0.3-0.9-0.3c-0.4,0-0.6,0.1-0.8,0.2s-0.3,0.3-0.4,0.7l-0.7-0.1c0.1-0.3,0.2-0.6,0.3-0.8
		s0.4-0.3,0.7-0.4c0.3-0.1,0.6-0.2,1-0.2c0.4,0,0.7,0,0.9,0.1c0.2,0.1,0.4,0.2,0.5,0.3s0.2,0.3,0.2,0.5c0,0.1,0,0.4,0,0.7v1
		c0,0.7,0,1.1,0,1.3s0.1,0.4,0.2,0.5h-0.8C70.2,50.8,70.1,50.6,70.1,50.4z M70,48.7c-0.3,0.1-0.7,0.2-1.2,0.3
		c-0.3,0-0.5,0.1-0.7,0.1c-0.1,0.1-0.2,0.1-0.3,0.2c-0.1,0.1-0.1,0.2-0.1,0.4c0,0.2,0.1,0.4,0.2,0.5s0.4,0.2,0.7,0.2
		c0.3,0,0.5-0.1,0.8-0.2c0.2-0.1,0.4-0.3,0.5-0.5C70,49.6,70,49.3,70,49V48.7z"/>
	<path d="M71.9,50.9v-6.1h0.7v6.1H71.9z"/>
	<path d="M73.8,50.9v-6.1h0.7v6.1H73.8z"/>
	<path d="M78.7,49.5l0.8,0.1c-0.1,0.5-0.3,0.8-0.7,1.1c-0.3,0.2-0.7,0.4-1.3,0.4c-0.6,0-1.2-0.2-1.5-0.6c-0.4-0.4-0.6-1-0.6-1.7
		c0-0.7,0.2-1.3,0.6-1.7s0.9-0.6,1.5-0.6c0.6,0,1.1,0.2,1.4,0.6c0.4,0.4,0.6,1,0.6,1.7c0,0,0,0.1,0,0.2h-3.3c0,0.5,0.2,0.9,0.4,1.1
		c0.2,0.3,0.6,0.4,0.9,0.4c0.3,0,0.5-0.1,0.7-0.2C78.5,50.1,78.6,49.8,78.7,49.5z M76.3,48.3h2.5c0-0.4-0.1-0.6-0.3-0.8
		c-0.2-0.3-0.5-0.4-0.9-0.4c-0.3,0-0.6,0.1-0.9,0.3C76.5,47.6,76.3,47.9,76.3,48.3z"/>
	<path d="M80.5,50.9v-4.4h0.7v0.6c0.3-0.5,0.8-0.7,1.4-0.7c0.3,0,0.5,0,0.7,0.1c0.2,0.1,0.4,0.2,0.5,0.4c0.1,0.2,0.2,0.3,0.2,0.6
		c0,0.1,0,0.4,0,0.7v2.7h-0.7v-2.7c0-0.3,0-0.5-0.1-0.7c-0.1-0.2-0.2-0.3-0.3-0.4s-0.3-0.1-0.5-0.1c-0.3,0-0.6,0.1-0.8,0.3
		c-0.2,0.2-0.3,0.6-0.3,1.1v2.4H80.5z"/>
	<path d="M89.2,50.3l0.1,0.7c-0.2,0-0.4,0.1-0.6,0.1c-0.3,0-0.5,0-0.6-0.1c-0.1-0.1-0.3-0.2-0.3-0.3s-0.1-0.4-0.1-0.9v-2.5h-0.5
		v-0.6h0.5v-1.1l0.7-0.4v1.5h0.8v0.6h-0.8v2.6c0,0.2,0,0.3,0,0.4s0.1,0.1,0.1,0.1c0.1,0,0.1,0.1,0.3,0.1
		C88.9,50.3,89,50.3,89.2,50.3z"/>
	<path d="M89.9,50.9v-4.4h0.7v0.7c0.2-0.3,0.3-0.5,0.5-0.6c0.1-0.1,0.3-0.1,0.5-0.1c0.3,0,0.5,0.1,0.8,0.2L92,47.4
		c-0.2-0.1-0.4-0.2-0.5-0.2c-0.2,0-0.3,0-0.4,0.1s-0.2,0.2-0.3,0.4c-0.1,0.3-0.1,0.6-0.1,0.9v2.3H89.9z"/>
	<path d="M95.8,49.5l0.8,0.1c-0.1,0.5-0.3,0.8-0.7,1.1c-0.3,0.2-0.7,0.4-1.3,0.4c-0.6,0-1.2-0.2-1.5-0.6c-0.4-0.4-0.6-1-0.6-1.7
		c0-0.7,0.2-1.3,0.6-1.7s0.9-0.6,1.5-0.6c0.6,0,1.1,0.2,1.4,0.6c0.4,0.4,0.6,1,0.6,1.7c0,0,0,0.1,0,0.2h-3.3c0,0.5,0.2,0.9,0.4,1.1
		c0.2,0.3,0.6,0.4,0.9,0.4c0.3,0,0.5-0.1,0.7-0.2C95.5,50.1,95.6,49.8,95.8,49.5z M93.3,48.3h2.5c0-0.4-0.1-0.6-0.3-0.8
		c-0.2-0.3-0.5-0.4-0.9-0.4c-0.3,0-0.6,0.1-0.9,0.3C93.5,47.6,93.3,47.9,93.3,48.3z"/>
	<path d="M100.5,49.5l0.8,0.1c-0.1,0.5-0.3,0.8-0.7,1.1c-0.3,0.2-0.7,0.4-1.3,0.4c-0.6,0-1.2-0.2-1.5-0.6c-0.4-0.4-0.6-1-0.6-1.7
		c0-0.7,0.2-1.3,0.6-1.7s0.9-0.6,1.5-0.6c0.6,0,1.1,0.2,1.4,0.6c0.4,0.4,0.6,1,0.6,1.7c0,0,0,0.1,0,0.2H98c0,0.5,0.2,0.9,0.4,1.1
		c0.2,0.3,0.6,0.4,0.9,0.4c0.3,0,0.5-0.1,0.7-0.2C100.2,50.1,100.4,49.8,100.5,49.5z M98,48.3h2.5c0-0.4-0.1-0.6-0.3-0.8
		c-0.2-0.3-0.5-0.4-0.9-0.4c-0.3,0-0.6,0.1-0.9,0.3C98.2,47.6,98.1,47.9,98,48.3z"/>
	<path d="M104.3,48.7c0-0.8,0.2-1.4,0.7-1.8c0.4-0.3,0.8-0.5,1.4-0.5c0.6,0,1.1,0.2,1.5,0.6s0.6,0.9,0.6,1.6c0,0.6-0.1,1-0.3,1.3
		c-0.2,0.3-0.4,0.6-0.7,0.8c-0.3,0.2-0.7,0.3-1.1,0.3c-0.6,0-1.1-0.2-1.5-0.6C104.5,50.1,104.3,49.5,104.3,48.7z M105,48.7
		c0,0.6,0.1,1,0.4,1.3s0.6,0.4,0.9,0.4c0.4,0,0.7-0.1,0.9-0.4c0.2-0.3,0.4-0.7,0.4-1.3c0-0.5-0.1-1-0.4-1.2s-0.6-0.4-0.9-0.4
		c-0.4,0-0.7,0.1-0.9,0.4S105,48.2,105,48.7z"/>
	<path d="M109.3,50.9v-4.4h0.7v0.6c0.3-0.5,0.8-0.7,1.4-0.7c0.3,0,0.5,0,0.7,0.1c0.2,0.1,0.4,0.2,0.5,0.4c0.1,0.2,0.2,0.3,0.2,0.6
		c0,0.1,0,0.4,0,0.7v2.7h-0.7v-2.7c0-0.3,0-0.5-0.1-0.7c-0.1-0.2-0.2-0.3-0.3-0.4s-0.3-0.1-0.5-0.1c-0.3,0-0.6,0.1-0.8,0.3
		c-0.2,0.2-0.3,0.6-0.3,1.1v2.4H109.3z"/>
	<path d="M119.2,50.4c-0.3,0.2-0.5,0.4-0.8,0.5c-0.3,0.1-0.5,0.1-0.8,0.1c-0.5,0-0.9-0.1-1.1-0.4c-0.3-0.2-0.4-0.5-0.4-0.9
		c0-0.2,0-0.4,0.1-0.6c0.1-0.2,0.2-0.3,0.4-0.4s0.3-0.2,0.5-0.2c0.1,0,0.4-0.1,0.7-0.1c0.6-0.1,1-0.2,1.3-0.3c0-0.1,0-0.2,0-0.2
		c0-0.3-0.1-0.5-0.2-0.6c-0.2-0.2-0.5-0.3-0.9-0.3c-0.4,0-0.6,0.1-0.8,0.2s-0.3,0.3-0.4,0.7l-0.7-0.1c0.1-0.3,0.2-0.6,0.3-0.8
		s0.4-0.3,0.7-0.4c0.3-0.1,0.6-0.2,1-0.2c0.4,0,0.7,0,0.9,0.1c0.2,0.1,0.4,0.2,0.5,0.3s0.2,0.3,0.2,0.5c0,0.1,0,0.4,0,0.7v1
		c0,0.7,0,1.1,0,1.3s0.1,0.4,0.2,0.5h-0.8C119.3,50.8,119.3,50.6,119.2,50.4z M119.2,48.7c-0.3,0.1-0.7,0.2-1.2,0.3
		c-0.3,0-0.5,0.1-0.7,0.1c-0.1,0.1-0.2,0.1-0.3,0.2c-0.1,0.1-0.1,0.2-0.1,0.4c0,0.2,0.1,0.4,0.2,0.5s0.4,0.2,0.7,0.2
		c0.3,0,0.5-0.1,0.8-0.2c0.2-0.1,0.4-0.3,0.5-0.5c0.1-0.2,0.1-0.4,0.1-0.7V48.7z"/>
	<path d="M121.1,50.9v-4.4h0.7v0.6c0.3-0.5,0.8-0.7,1.4-0.7c0.3,0,0.5,0,0.7,0.1c0.2,0.1,0.4,0.2,0.5,0.4c0.1,0.2,0.2,0.3,0.2,0.6
		c0,0.1,0,0.4,0,0.7v2.7h-0.7v-2.7c0-0.3,0-0.5-0.1-0.7c-0.1-0.2-0.2-0.3-0.3-0.4s-0.3-0.1-0.5-0.1c-0.3,0-0.6,0.1-0.8,0.3
		c-0.2,0.2-0.3,0.6-0.3,1.1v2.4H121.1z"/>
	<path d="M131.2,49.5l0.8,0.1c-0.1,0.5-0.3,0.8-0.7,1.1c-0.3,0.2-0.7,0.4-1.3,0.4c-0.6,0-1.2-0.2-1.5-0.6c-0.4-0.4-0.6-1-0.6-1.7
		c0-0.7,0.2-1.3,0.6-1.7s0.9-0.6,1.5-0.6c0.6,0,1.1,0.2,1.4,0.6c0.4,0.4,0.6,1,0.6,1.7c0,0,0,0.1,0,0.2h-3.3c0,0.5,0.2,0.9,0.4,1.1
		c0.2,0.3,0.6,0.4,0.9,0.4c0.3,0,0.5-0.1,0.7-0.2C130.9,50.1,131.1,49.8,131.2,49.5z M128.8,48.3h2.5c0-0.4-0.1-0.6-0.3-0.8
		c-0.2-0.3-0.5-0.4-0.9-0.4c-0.3,0-0.6,0.1-0.9,0.3C128.9,47.6,128.8,47.9,128.8,48.3z"/>
	<path d="M132.9,50.9v-6.1h0.7v6.1H132.9z"/>
	<path d="M137.8,49.5l0.8,0.1c-0.1,0.5-0.3,0.8-0.7,1.1c-0.3,0.2-0.7,0.4-1.3,0.4c-0.6,0-1.2-0.2-1.5-0.6c-0.4-0.4-0.6-1-0.6-1.7
		c0-0.7,0.2-1.3,0.6-1.7s0.9-0.6,1.5-0.6c0.6,0,1.1,0.2,1.4,0.6c0.4,0.4,0.6,1,0.6,1.7c0,0,0,0.1,0,0.2h-3.3c0,0.5,0.2,0.9,0.4,1.1
		c0.2,0.3,0.6,0.4,0.9,0.4c0.3,0,0.5-0.1,0.7-0.2C137.6,50.1,137.7,49.8,137.8,49.5z M135.4,48.3h2.5c0-0.4-0.1-0.6-0.3-0.8
		c-0.2-0.3-0.5-0.4-0.9-0.4c-0.3,0-0.6,0.1-0.9,0.3C135.5,47.6,135.4,47.9,135.4,48.3z"/>
	<path d="M142.4,49.3l0.7,0.1c-0.1,0.5-0.3,0.9-0.6,1.2c-0.3,0.3-0.7,0.4-1.2,0.4c-0.6,0-1.1-0.2-1.5-0.6c-0.4-0.4-0.5-1-0.5-1.7
		c0-0.5,0.1-0.9,0.2-1.2c0.2-0.4,0.4-0.6,0.7-0.8c0.3-0.2,0.7-0.3,1.1-0.3c0.5,0,0.9,0.1,1.2,0.4c0.3,0.2,0.5,0.6,0.6,1l-0.7,0.1
		c-0.1-0.3-0.2-0.5-0.4-0.7s-0.4-0.2-0.6-0.2c-0.4,0-0.7,0.1-0.9,0.4c-0.2,0.3-0.4,0.7-0.4,1.3c0,0.6,0.1,1,0.3,1.3
		c0.2,0.3,0.5,0.4,0.9,0.4c0.3,0,0.5-0.1,0.7-0.3C142.2,50,142.4,49.7,142.4,49.3z"/>
	<path d="M145.4,50.3l0.1,0.7c-0.2,0-0.4,0.1-0.6,0.1c-0.3,0-0.5,0-0.6-0.1c-0.1-0.1-0.3-0.2-0.3-0.3c-0.1-0.1-0.1-0.4-0.1-0.9v-2.5
		h-0.5v-0.6h0.5v-1.1l0.7-0.4v1.5h0.8v0.6h-0.8v2.6c0,0.2,0,0.3,0,0.4s0.1,0.1,0.1,0.1c0.1,0,0.1,0.1,0.3,0.1
		C145.2,50.3,145.3,50.3,145.4,50.3z"/>
	<path d="M146.1,50.9v-4.4h0.7v0.7c0.2-0.3,0.3-0.5,0.5-0.6c0.1-0.1,0.3-0.1,0.5-0.1c0.3,0,0.5,0.1,0.8,0.2l-0.3,0.7
		c-0.2-0.1-0.4-0.2-0.5-0.2c-0.2,0-0.3,0-0.4,0.1c-0.1,0.1-0.2,0.2-0.3,0.4c-0.1,0.3-0.1,0.6-0.1,0.9v2.3H146.1z"/>
	<path d="M149,45.7v-0.9h0.7v0.9H149z M149,50.9v-4.4h0.7v4.4H149z"/>
	<path d="M153.7,49.3l0.7,0.1c-0.1,0.5-0.3,0.9-0.6,1.2c-0.3,0.3-0.7,0.4-1.2,0.4c-0.6,0-1.1-0.2-1.5-0.6c-0.4-0.4-0.5-1-0.5-1.7
		c0-0.5,0.1-0.9,0.2-1.2c0.2-0.4,0.4-0.6,0.7-0.8c0.3-0.2,0.7-0.3,1.1-0.3c0.5,0,0.9,0.1,1.2,0.4c0.3,0.2,0.5,0.6,0.6,1l-0.7,0.1
		c-0.1-0.3-0.2-0.5-0.4-0.7s-0.4-0.2-0.6-0.2c-0.4,0-0.7,0.1-0.9,0.4c-0.2,0.3-0.4,0.7-0.4,1.3c0,0.6,0.1,1,0.3,1.3
		c0.2,0.3,0.5,0.4,0.9,0.4c0.3,0,0.5-0.1,0.7-0.3C153.6,50,153.7,49.7,153.7,49.3z"/>
	<path d="M158,50.4c-0.3,0.2-0.5,0.4-0.8,0.5c-0.3,0.1-0.5,0.1-0.8,0.1c-0.5,0-0.9-0.1-1.1-0.4c-0.3-0.2-0.4-0.5-0.4-0.9
		c0-0.2,0-0.4,0.1-0.6c0.1-0.2,0.2-0.3,0.4-0.4s0.3-0.2,0.5-0.2c0.1,0,0.4-0.1,0.7-0.1c0.6-0.1,1-0.2,1.3-0.3c0-0.1,0-0.2,0-0.2
		c0-0.3-0.1-0.5-0.2-0.6c-0.2-0.2-0.5-0.3-0.9-0.3c-0.4,0-0.6,0.1-0.8,0.2c-0.2,0.1-0.3,0.3-0.4,0.7l-0.7-0.1
		c0.1-0.3,0.2-0.6,0.3-0.8s0.4-0.3,0.7-0.4c0.3-0.1,0.6-0.2,1-0.2c0.4,0,0.7,0,0.9,0.1s0.4,0.2,0.5,0.3c0.1,0.1,0.2,0.3,0.2,0.5
		c0,0.1,0,0.4,0,0.7v1c0,0.7,0,1.1,0,1.3c0,0.2,0.1,0.4,0.2,0.5h-0.8C158.1,50.8,158,50.6,158,50.4z M157.9,48.7
		c-0.3,0.1-0.7,0.2-1.2,0.3c-0.3,0-0.5,0.1-0.7,0.1c-0.1,0.1-0.2,0.1-0.3,0.2s-0.1,0.2-0.1,0.4c0,0.2,0.1,0.4,0.2,0.5
		c0.2,0.1,0.4,0.2,0.7,0.2c0.3,0,0.5-0.1,0.8-0.2c0.2-0.1,0.4-0.3,0.5-0.5c0.1-0.2,0.1-0.4,0.1-0.7V48.7z"/>
	<path d="M159.8,50.9v-6.1h0.7v6.1H159.8z"/>
	<path d="M164.1,50.9v-6.1h0.7v6.1H164.1z"/>
	<path d="M166,45.7v-0.9h0.7v0.9H166z M166,50.9v-4.4h0.7v4.4H166z"/>
	<path d="M167.9,50.9v-4.4h0.7v0.6c0.3-0.5,0.8-0.7,1.4-0.7c0.3,0,0.5,0,0.7,0.1c0.2,0.1,0.4,0.2,0.5,0.4c0.1,0.2,0.2,0.3,0.2,0.6
		c0,0.1,0,0.4,0,0.7v2.7h-0.7v-2.7c0-0.3,0-0.5-0.1-0.7c-0.1-0.2-0.2-0.3-0.3-0.4c-0.1-0.1-0.3-0.1-0.5-0.1c-0.3,0-0.6,0.1-0.8,0.3
		c-0.2,0.2-0.3,0.6-0.3,1.1v2.4H167.9z"/>
	<path d="M175.6,49.5l0.8,0.1c-0.1,0.5-0.3,0.8-0.7,1.1S175,51,174.4,51c-0.6,0-1.2-0.2-1.5-0.6s-0.6-1-0.6-1.7
		c0-0.7,0.2-1.3,0.6-1.7s0.9-0.6,1.5-0.6c0.6,0,1.1,0.2,1.4,0.6c0.4,0.4,0.6,1,0.6,1.7c0,0,0,0.1,0,0.2h-3.3c0,0.5,0.2,0.9,0.4,1.1
		c0.2,0.3,0.6,0.4,0.9,0.4c0.3,0,0.5-0.1,0.7-0.2C175.3,50.1,175.5,49.8,175.6,49.5z M173.2,48.3h2.5c0-0.4-0.1-0.6-0.3-0.8
		c-0.2-0.3-0.5-0.4-0.9-0.4c-0.3,0-0.6,0.1-0.9,0.3C173.3,47.6,173.2,47.9,173.2,48.3z"/>
	<path d="M177.5,50.9v-0.9h0.9v0.9c0,0.3-0.1,0.6-0.2,0.8c-0.1,0.2-0.3,0.3-0.5,0.4l-0.2-0.3c0.2-0.1,0.3-0.2,0.3-0.3
		c0.1-0.1,0.1-0.3,0.1-0.6H177.5z"/>
	<path d="M182,45.7v-0.9h0.7v0.9H182z M182,50.9v-4.4h0.7v4.4H182z"/>
	<path d="M185.6,50.3l0.1,0.7c-0.2,0-0.4,0.1-0.6,0.1c-0.3,0-0.5,0-0.6-0.1c-0.1-0.1-0.3-0.2-0.3-0.3c-0.1-0.1-0.1-0.4-0.1-0.9v-2.5
		h-0.5v-0.6h0.5v-1.1l0.7-0.4v1.5h0.8v0.6h-0.8v2.6c0,0.2,0,0.3,0,0.4s0.1,0.1,0.1,0.1c0.1,0,0.1,0.1,0.3,0.1
		C185.3,50.3,185.4,50.3,185.6,50.3z"/>
	<path d="M186.2,45.7v-0.9h0.8v0.7c0,0.4,0,0.6-0.1,0.8c-0.1,0.2-0.3,0.4-0.6,0.5l-0.2-0.3c0.1-0.1,0.3-0.2,0.3-0.3s0.1-0.3,0.1-0.5
		H186.2z"/>
	<path d="M187.7,49.6l0.7-0.1c0,0.3,0.2,0.5,0.3,0.7c0.2,0.2,0.5,0.2,0.8,0.2c0.3,0,0.6-0.1,0.8-0.2s0.2-0.3,0.2-0.5
		c0-0.2-0.1-0.3-0.2-0.4c-0.1-0.1-0.4-0.2-0.8-0.3c-0.5-0.1-0.9-0.3-1.1-0.4s-0.4-0.2-0.5-0.4c-0.1-0.2-0.2-0.4-0.2-0.6
		c0-0.2,0-0.4,0.1-0.5s0.2-0.3,0.4-0.4c0.1-0.1,0.3-0.2,0.5-0.2c0.2-0.1,0.4-0.1,0.6-0.1c0.3,0,0.6,0,0.9,0.1s0.5,0.2,0.6,0.4
		c0.1,0.2,0.2,0.4,0.3,0.7l-0.7,0.1c0-0.2-0.1-0.4-0.3-0.5s-0.4-0.2-0.7-0.2c-0.3,0-0.6,0.1-0.7,0.2c-0.1,0.1-0.2,0.2-0.2,0.4
		c0,0.1,0,0.2,0.1,0.3c0.1,0.1,0.2,0.1,0.3,0.2c0.1,0,0.3,0.1,0.7,0.2c0.5,0.1,0.9,0.3,1.1,0.3s0.4,0.2,0.5,0.4
		c0.1,0.2,0.2,0.4,0.2,0.6c0,0.2-0.1,0.5-0.2,0.7c-0.1,0.2-0.4,0.4-0.6,0.5c-0.3,0.1-0.6,0.2-0.9,0.2c-0.6,0-1-0.1-1.3-0.4
		C188,50.5,187.8,50.1,187.7,49.6z"/>
	<path d="M197.5,50.4c-0.3,0.2-0.5,0.4-0.8,0.5c-0.3,0.1-0.5,0.1-0.8,0.1c-0.5,0-0.9-0.1-1.1-0.4c-0.3-0.2-0.4-0.5-0.4-0.9
		c0-0.2,0-0.4,0.1-0.6c0.1-0.2,0.2-0.3,0.4-0.4s0.3-0.2,0.5-0.2c0.1,0,0.4-0.1,0.7-0.1c0.6-0.1,1-0.2,1.3-0.3c0-0.1,0-0.2,0-0.2
		c0-0.3-0.1-0.5-0.2-0.6c-0.2-0.2-0.5-0.3-0.9-0.3c-0.4,0-0.6,0.1-0.8,0.2c-0.2,0.1-0.3,0.3-0.4,0.7l-0.7-0.1
		c0.1-0.3,0.2-0.6,0.3-0.8s0.4-0.3,0.7-0.4c0.3-0.1,0.6-0.2,1-0.2c0.4,0,0.7,0,0.9,0.1s0.4,0.2,0.5,0.3c0.1,0.1,0.2,0.3,0.2,0.5
		c0,0.1,0,0.4,0,0.7v1c0,0.7,0,1.1,0,1.3c0,0.2,0.1,0.4,0.2,0.5h-0.8C197.6,50.8,197.6,50.6,197.5,50.4z M197.5,48.7
		c-0.3,0.1-0.7,0.2-1.2,0.3c-0.3,0-0.5,0.1-0.7,0.1c-0.1,0.1-0.2,0.1-0.3,0.2s-0.1,0.2-0.1,0.4c0,0.2,0.1,0.4,0.2,0.5
		c0.2,0.1,0.4,0.2,0.7,0.2c0.3,0,0.5-0.1,0.8-0.2c0.2-0.1,0.4-0.3,0.5-0.5c0.1-0.2,0.1-0.4,0.1-0.7V48.7z"/>
	<path d="M204.6,50.9v-0.6c-0.3,0.4-0.7,0.7-1.2,0.7c-0.4,0-0.7-0.1-1-0.3c-0.3-0.2-0.5-0.5-0.7-0.8s-0.2-0.7-0.2-1.2
		c0-0.4,0.1-0.8,0.2-1.2s0.4-0.6,0.7-0.8c0.3-0.2,0.6-0.3,1-0.3c0.3,0,0.5,0.1,0.7,0.2c0.2,0.1,0.4,0.3,0.5,0.4v-2.2h0.7v6.1H204.6z
		 M202.2,48.8c0,0.6,0.1,1,0.4,1.3c0.2,0.3,0.5,0.4,0.8,0.4c0.3,0,0.6-0.1,0.8-0.4s0.3-0.7,0.3-1.2c0-0.6-0.1-1-0.3-1.3
		s-0.5-0.4-0.9-0.4c-0.3,0-0.6,0.1-0.8,0.4C202.4,47.7,202.2,48.2,202.2,48.8z"/>
	<path d="M209.4,50.4c-0.3,0.2-0.5,0.4-0.8,0.5c-0.3,0.1-0.5,0.1-0.8,0.1c-0.5,0-0.9-0.1-1.1-0.4c-0.3-0.2-0.4-0.5-0.4-0.9
		c0-0.2,0-0.4,0.1-0.6c0.1-0.2,0.2-0.3,0.4-0.4s0.3-0.2,0.5-0.2c0.1,0,0.4-0.1,0.7-0.1c0.6-0.1,1-0.2,1.3-0.3c0-0.1,0-0.2,0-0.2
		c0-0.3-0.1-0.5-0.2-0.6c-0.2-0.2-0.5-0.3-0.9-0.3c-0.4,0-0.6,0.1-0.8,0.2c-0.2,0.1-0.3,0.3-0.4,0.7l-0.7-0.1
		c0.1-0.3,0.2-0.6,0.3-0.8s0.4-0.3,0.7-0.4c0.3-0.1,0.6-0.2,1-0.2c0.4,0,0.7,0,0.9,0.1s0.4,0.2,0.5,0.3c0.1,0.1,0.2,0.3,0.2,0.5
		c0,0.1,0,0.4,0,0.7v1c0,0.7,0,1.1,0,1.3c0,0.2,0.1,0.4,0.2,0.5h-0.8C209.4,50.8,209.4,50.6,209.4,50.4z M209.3,48.7
		c-0.3,0.1-0.7,0.2-1.2,0.3c-0.3,0-0.5,0.1-0.7,0.1c-0.1,0.1-0.2,0.1-0.3,0.2s-0.1,0.2-0.1,0.4c0,0.2,0.1,0.4,0.2,0.5
		c0.2,0.1,0.4,0.2,0.7,0.2c0.3,0,0.5-0.1,0.8-0.2c0.2-0.1,0.4-0.3,0.5-0.5c0.1-0.2,0.1-0.4,0.1-0.7V48.7z"/>
	<path d="M211.2,50.9v-4.4h0.7v0.6c0.3-0.5,0.8-0.7,1.4-0.7c0.3,0,0.5,0,0.7,0.1c0.2,0.1,0.4,0.2,0.5,0.4c0.1,0.2,0.2,0.3,0.2,0.6
		c0,0.1,0,0.4,0,0.7v2.7H214v-2.7c0-0.3,0-0.5-0.1-0.7c-0.1-0.2-0.2-0.3-0.3-0.4c-0.1-0.1-0.3-0.1-0.5-0.1c-0.3,0-0.6,0.1-0.8,0.3
		c-0.2,0.2-0.3,0.6-0.3,1.1v2.4H211.2z"/>
	<path d="M215.8,51.3l0.7,0.1c0,0.2,0.1,0.4,0.3,0.5c0.2,0.1,0.4,0.2,0.8,0.2c0.3,0,0.6-0.1,0.8-0.2c0.2-0.1,0.3-0.3,0.4-0.6
		c0-0.2,0.1-0.5,0.1-1c-0.3,0.4-0.7,0.6-1.2,0.6c-0.6,0-1.1-0.2-1.4-0.7s-0.5-1-0.5-1.6c0-0.4,0.1-0.8,0.2-1.2s0.4-0.6,0.7-0.8
		s0.6-0.3,1-0.3c0.5,0,0.9,0.2,1.3,0.6v-0.5h0.7v3.8c0,0.7-0.1,1.2-0.2,1.5c-0.1,0.3-0.4,0.5-0.7,0.7s-0.7,0.2-1.1,0.2
		c-0.5,0-1-0.1-1.3-0.4C215.9,52.1,215.8,51.8,215.8,51.3z M216.4,48.7c0,0.6,0.1,1,0.3,1.3c0.2,0.3,0.5,0.4,0.9,0.4
		c0.3,0,0.6-0.1,0.9-0.4s0.3-0.7,0.3-1.2c0-0.5-0.1-0.9-0.4-1.2s-0.5-0.4-0.9-0.4c-0.3,0-0.6,0.1-0.8,0.4
		C216.5,47.7,216.4,48.1,216.4,48.7z"/>
	<path d="M223.7,49.5l0.8,0.1c-0.1,0.5-0.3,0.8-0.7,1.1S223,51,222.5,51c-0.6,0-1.2-0.2-1.5-0.6s-0.6-1-0.6-1.7
		c0-0.7,0.2-1.3,0.6-1.7s0.9-0.6,1.5-0.6c0.6,0,1.1,0.2,1.4,0.6c0.4,0.4,0.6,1,0.6,1.7c0,0,0,0.1,0,0.2h-3.3c0,0.5,0.2,0.9,0.4,1.1
		c0.2,0.3,0.6,0.4,0.9,0.4c0.3,0,0.5-0.1,0.7-0.2C223.4,50.1,223.6,49.8,223.7,49.5z M221.2,48.3h2.5c0-0.4-0.1-0.6-0.3-0.8
		c-0.2-0.3-0.5-0.4-0.9-0.4c-0.3,0-0.6,0.1-0.9,0.3C221.4,47.6,221.2,47.9,221.2,48.3z"/>
	<path d="M225.4,50.9v-4.4h0.7v0.7c0.2-0.3,0.3-0.5,0.5-0.6c0.1-0.1,0.3-0.1,0.5-0.1c0.3,0,0.5,0.1,0.8,0.2l-0.3,0.7
		c-0.2-0.1-0.4-0.2-0.5-0.2c-0.2,0-0.3,0-0.4,0.1c-0.1,0.1-0.2,0.2-0.3,0.4c-0.1,0.3-0.1,0.6-0.1,0.9v2.3H225.4z"/>
	<path d="M228,50.9v-0.9h0.9v0.9H228z"/>
</g>
<g>
	<path d="M18.4,61.7l0.8-0.1c0,0.3,0.1,0.6,0.3,0.7c0.1,0.2,0.3,0.4,0.6,0.5c0.3,0.1,0.6,0.2,0.9,0.2c0.3,0,0.6,0,0.8-0.1
		s0.4-0.2,0.5-0.4s0.2-0.3,0.2-0.5c0-0.2-0.1-0.4-0.2-0.5s-0.3-0.3-0.5-0.4c-0.2-0.1-0.5-0.2-1.1-0.3c-0.6-0.1-1-0.3-1.2-0.4
		c-0.3-0.2-0.5-0.3-0.6-0.6s-0.2-0.5-0.2-0.8c0-0.3,0.1-0.6,0.3-0.9c0.2-0.3,0.4-0.5,0.8-0.6c0.3-0.1,0.7-0.2,1.1-0.2
		c0.5,0,0.8,0.1,1.2,0.2c0.3,0.1,0.6,0.4,0.8,0.6c0.2,0.3,0.3,0.6,0.3,1l-0.8,0.1c0-0.4-0.2-0.7-0.4-0.9c-0.2-0.2-0.6-0.3-1.1-0.3
		c-0.5,0-0.8,0.1-1.1,0.3c-0.2,0.2-0.3,0.4-0.3,0.6c0,0.2,0.1,0.4,0.2,0.5c0.2,0.1,0.6,0.3,1.2,0.4s1.1,0.3,1.3,0.4
		c0.4,0.2,0.6,0.4,0.8,0.6s0.3,0.5,0.3,0.9c0,0.3-0.1,0.6-0.3,0.9c-0.2,0.3-0.5,0.5-0.8,0.7s-0.7,0.2-1.2,0.2c-0.6,0-1-0.1-1.4-0.2
		c-0.4-0.2-0.7-0.4-0.9-0.7C18.5,62.5,18.4,62.2,18.4,61.7z"/>
	<path d="M25.9,63l0.1,0.7c-0.2,0-0.4,0.1-0.6,0.1c-0.3,0-0.5,0-0.6-0.1c-0.1-0.1-0.3-0.2-0.3-0.3s-0.1-0.4-0.1-0.9v-2.5h-0.5v-0.6
		h0.5v-1.1l0.7-0.4v1.5h0.8v0.6h-0.8v2.6c0,0.2,0,0.3,0,0.4s0.1,0.1,0.1,0.1c0.1,0,0.1,0.1,0.3,0.1C25.6,63.1,25.7,63.1,25.9,63z"/>
	<path d="M29.5,63.2c-0.3,0.2-0.5,0.4-0.8,0.5c-0.3,0.1-0.5,0.1-0.8,0.1c-0.5,0-0.9-0.1-1.1-0.4c-0.3-0.2-0.4-0.5-0.4-0.9
		c0-0.2,0-0.4,0.1-0.6c0.1-0.2,0.2-0.3,0.4-0.4s0.3-0.2,0.5-0.2c0.1,0,0.4-0.1,0.7-0.1c0.6-0.1,1-0.2,1.3-0.3c0-0.1,0-0.2,0-0.2
		c0-0.3-0.1-0.5-0.2-0.6c-0.2-0.2-0.5-0.3-0.9-0.3c-0.4,0-0.6,0.1-0.8,0.2s-0.3,0.3-0.4,0.7l-0.7-0.1c0.1-0.3,0.2-0.6,0.3-0.8
		s0.4-0.3,0.7-0.4c0.3-0.1,0.6-0.2,1-0.2c0.4,0,0.7,0,0.9,0.1c0.2,0.1,0.4,0.2,0.5,0.3s0.2,0.3,0.2,0.5c0,0.1,0,0.4,0,0.7v1
		c0,0.7,0,1.1,0,1.3s0.1,0.4,0.2,0.5h-0.8C29.5,63.5,29.5,63.4,29.5,63.2z M29.4,61.5c-0.3,0.1-0.7,0.2-1.2,0.3
		c-0.3,0-0.5,0.1-0.7,0.1c-0.1,0.1-0.2,0.1-0.3,0.2c-0.1,0.1-0.1,0.2-0.1,0.4c0,0.2,0.1,0.4,0.2,0.5s0.4,0.2,0.7,0.2
		c0.3,0,0.5-0.1,0.8-0.2c0.2-0.1,0.4-0.3,0.5-0.5c0.1-0.2,0.1-0.4,0.1-0.7V61.5z"/>
	<path d="M31.3,65.4l-0.1-0.7c0.2,0,0.3,0.1,0.4,0.1c0.2,0,0.3,0,0.4-0.1s0.2-0.1,0.2-0.2c0-0.1,0.1-0.3,0.2-0.6c0,0,0-0.1,0.1-0.2
		l-1.7-4.4h0.8l0.9,2.6c0.1,0.3,0.2,0.7,0.3,1c0.1-0.3,0.2-0.7,0.3-1l0.9-2.6h0.7l-1.7,4.5c-0.2,0.5-0.3,0.8-0.4,1
		c-0.1,0.2-0.3,0.4-0.5,0.5c-0.2,0.1-0.4,0.2-0.6,0.2C31.6,65.5,31.5,65.5,31.3,65.4z"/>
	<path d="M38.6,63.7h-0.7v-6.1h0.7v2.2c0.3-0.4,0.7-0.6,1.2-0.6c0.3,0,0.5,0.1,0.8,0.2s0.4,0.3,0.6,0.5s0.3,0.4,0.4,0.7
		c0.1,0.3,0.1,0.6,0.1,0.9c0,0.8-0.2,1.3-0.6,1.8c-0.4,0.4-0.8,0.6-1.3,0.6c-0.5,0-0.9-0.2-1.2-0.7V63.7z M38.6,61.5
		c0,0.5,0.1,0.9,0.2,1.1c0.2,0.4,0.6,0.6,1,0.6c0.3,0,0.6-0.1,0.8-0.4c0.2-0.3,0.4-0.7,0.4-1.3c0-0.6-0.1-1-0.3-1.3
		c-0.2-0.3-0.5-0.4-0.8-0.4c-0.3,0-0.6,0.1-0.8,0.4C38.7,60.5,38.6,60.9,38.6,61.5z"/>
	<path d="M45.5,63.2c-0.3,0.2-0.5,0.4-0.8,0.5c-0.3,0.1-0.5,0.1-0.8,0.1c-0.5,0-0.9-0.1-1.1-0.4c-0.3-0.2-0.4-0.5-0.4-0.9
		c0-0.2,0-0.4,0.1-0.6c0.1-0.2,0.2-0.3,0.4-0.4s0.3-0.2,0.5-0.2c0.1,0,0.4-0.1,0.7-0.1c0.6-0.1,1-0.2,1.3-0.3c0-0.1,0-0.2,0-0.2
		c0-0.3-0.1-0.5-0.2-0.6c-0.2-0.2-0.5-0.3-0.9-0.3c-0.4,0-0.6,0.1-0.8,0.2s-0.3,0.3-0.4,0.7l-0.7-0.1c0.1-0.3,0.2-0.6,0.3-0.8
		s0.4-0.3,0.7-0.4c0.3-0.1,0.6-0.2,1-0.2c0.4,0,0.7,0,0.9,0.1c0.2,0.1,0.4,0.2,0.5,0.3s0.2,0.3,0.2,0.5c0,0.1,0,0.4,0,0.7v1
		c0,0.7,0,1.1,0,1.3s0.1,0.4,0.2,0.5h-0.8C45.6,63.5,45.6,63.4,45.5,63.2z M45.5,61.5c-0.3,0.1-0.7,0.2-1.2,0.3
		c-0.3,0-0.5,0.1-0.7,0.1c-0.1,0.1-0.2,0.1-0.3,0.2c-0.1,0.1-0.1,0.2-0.1,0.4c0,0.2,0.1,0.4,0.2,0.5s0.4,0.2,0.7,0.2
		c0.3,0,0.5-0.1,0.8-0.2c0.2-0.1,0.4-0.3,0.5-0.5c0.1-0.2,0.1-0.4,0.1-0.7V61.5z"/>
	<path d="M50.3,62.1l0.7,0.1c-0.1,0.5-0.3,0.9-0.6,1.2c-0.3,0.3-0.7,0.4-1.2,0.4c-0.6,0-1.1-0.2-1.5-0.6c-0.4-0.4-0.5-1-0.5-1.7
		c0-0.5,0.1-0.9,0.2-1.2c0.2-0.4,0.4-0.6,0.7-0.8c0.3-0.2,0.7-0.3,1.1-0.3c0.5,0,0.9,0.1,1.2,0.4c0.3,0.2,0.5,0.6,0.6,1l-0.7,0.1
		c-0.1-0.3-0.2-0.5-0.4-0.7s-0.4-0.2-0.6-0.2c-0.4,0-0.7,0.1-0.9,0.4c-0.2,0.3-0.4,0.7-0.4,1.3c0,0.6,0.1,1,0.3,1.3
		c0.2,0.3,0.5,0.4,0.9,0.4c0.3,0,0.5-0.1,0.7-0.3C50.1,62.7,50.2,62.5,50.3,62.1z"/>
	<path d="M51.6,63.7v-6.1h0.7v3.5l1.8-1.8h1l-1.7,1.6l1.9,2.8h-0.9l-1.5-2.3L52.4,62v1.7H51.6z"/>
	<path d="M60.9,63.7h-0.7v-4.8c-0.2,0.2-0.4,0.3-0.7,0.5c-0.3,0.2-0.6,0.3-0.8,0.4v-0.7c0.4-0.2,0.8-0.4,1.1-0.7
		c0.3-0.3,0.5-0.6,0.7-0.8h0.5V63.7z"/>
	<path d="M62.8,60.7c0-0.7,0.1-1.3,0.2-1.7s0.4-0.8,0.7-1s0.7-0.4,1.1-0.4c0.3,0,0.6,0.1,0.9,0.2s0.4,0.3,0.6,0.6
		c0.2,0.2,0.3,0.5,0.4,0.9s0.1,0.8,0.1,1.4c0,0.7-0.1,1.3-0.2,1.7s-0.4,0.8-0.7,1s-0.7,0.4-1.1,0.4c-0.6,0-1-0.2-1.4-0.6
		C63,62.7,62.8,61.8,62.8,60.7z M63.5,60.7c0,1,0.1,1.7,0.4,2s0.5,0.5,0.9,0.5c0.3,0,0.6-0.2,0.9-0.5s0.4-1,0.4-2c0-1-0.1-1.7-0.4-2
		s-0.5-0.5-0.9-0.5c-0.3,0-0.6,0.1-0.8,0.4C63.7,59,63.5,59.7,63.5,60.7z"/>
	<path d="M70.1,63.7v-4.4h0.7v0.6c0.1-0.2,0.3-0.4,0.6-0.5c0.2-0.1,0.5-0.2,0.8-0.2c0.3,0,0.6,0.1,0.8,0.2c0.2,0.1,0.4,0.3,0.4,0.6
		c0.3-0.5,0.8-0.8,1.4-0.8c0.4,0,0.8,0.1,1,0.4c0.2,0.2,0.4,0.6,0.4,1.1v3h-0.7v-2.8c0-0.3,0-0.5-0.1-0.6S75.1,60,75,60
		c-0.1-0.1-0.3-0.1-0.4-0.1c-0.3,0-0.6,0.1-0.8,0.3s-0.3,0.5-0.3,1v2.6h-0.7v-2.9c0-0.3-0.1-0.6-0.2-0.7s-0.3-0.2-0.6-0.2
		c-0.2,0-0.4,0.1-0.6,0.2c-0.2,0.1-0.3,0.3-0.4,0.5c-0.1,0.2-0.1,0.5-0.1,0.9v2.3H70.1z"/>
	<path d="M80.2,62.3l0.8,0.1c-0.1,0.5-0.3,0.8-0.7,1.1c-0.3,0.2-0.7,0.4-1.3,0.4c-0.6,0-1.2-0.2-1.5-0.6c-0.4-0.4-0.6-1-0.6-1.7
		c0-0.7,0.2-1.3,0.6-1.7s0.9-0.6,1.5-0.6c0.6,0,1.1,0.2,1.4,0.6c0.4,0.4,0.6,1,0.6,1.7c0,0,0,0.1,0,0.2h-3.3c0,0.5,0.2,0.9,0.4,1.1
		c0.2,0.3,0.6,0.4,0.9,0.4c0.3,0,0.5-0.1,0.7-0.2C79.9,62.8,80,62.6,80.2,62.3z M77.7,61.1h2.5c0-0.4-0.1-0.6-0.3-0.8
		c-0.2-0.3-0.5-0.4-0.9-0.4c-0.3,0-0.6,0.1-0.9,0.3C77.9,60.4,77.7,60.7,77.7,61.1z"/>
	<path d="M83.5,63l0.1,0.7c-0.2,0-0.4,0.1-0.6,0.1c-0.3,0-0.5,0-0.6-0.1c-0.1-0.1-0.3-0.2-0.3-0.3S82,62.9,82,62.4v-2.5h-0.5v-0.6
		H82v-1.1l0.7-0.4v1.5h0.8v0.6h-0.8v2.6c0,0.2,0,0.3,0,0.4s0.1,0.1,0.1,0.1c0.1,0,0.1,0.1,0.3,0.1C83.3,63.1,83.4,63.1,83.5,63z"/>
	<path d="M84.2,63.7v-4.4h0.7V60c0.2-0.3,0.3-0.5,0.5-0.6c0.1-0.1,0.3-0.1,0.5-0.1c0.3,0,0.5,0.1,0.8,0.2l-0.3,0.7
		C86.2,60,86,60,85.8,60c-0.2,0-0.3,0-0.4,0.1s-0.2,0.2-0.3,0.4C85,60.8,85,61.1,85,61.4v2.3H84.2z"/>
	<path d="M90.1,62.3l0.8,0.1c-0.1,0.5-0.3,0.8-0.7,1.1c-0.3,0.2-0.7,0.4-1.3,0.4c-0.6,0-1.2-0.2-1.5-0.6c-0.4-0.4-0.6-1-0.6-1.7
		c0-0.7,0.2-1.3,0.6-1.7s0.9-0.6,1.5-0.6c0.6,0,1.1,0.2,1.4,0.6c0.4,0.4,0.6,1,0.6,1.7c0,0,0,0.1,0,0.2h-3.3c0,0.5,0.2,0.9,0.4,1.1
		c0.2,0.3,0.6,0.4,0.9,0.4c0.3,0,0.5-0.1,0.7-0.2C89.8,62.8,90,62.6,90.1,62.3z M87.6,61.1h2.5c0-0.4-0.1-0.6-0.3-0.8
		c-0.2-0.3-0.5-0.4-0.9-0.4c-0.3,0-0.6,0.1-0.9,0.3C87.8,60.4,87.7,60.7,87.6,61.1z"/>
	<path d="M91.5,62.4l0.7-0.1c0,0.3,0.2,0.5,0.3,0.7c0.2,0.2,0.5,0.2,0.8,0.2c0.3,0,0.6-0.1,0.8-0.2s0.2-0.3,0.2-0.5
		c0-0.2-0.1-0.3-0.2-0.4c-0.1-0.1-0.4-0.2-0.8-0.3c-0.5-0.1-0.9-0.3-1.1-0.4c-0.2-0.1-0.4-0.2-0.5-0.4c-0.1-0.2-0.2-0.4-0.2-0.6
		c0-0.2,0-0.4,0.1-0.5s0.2-0.3,0.4-0.4c0.1-0.1,0.3-0.2,0.5-0.2s0.4-0.1,0.6-0.1c0.3,0,0.6,0,0.9,0.1c0.3,0.1,0.5,0.2,0.6,0.4
		c0.1,0.2,0.2,0.4,0.3,0.7l-0.7,0.1c0-0.2-0.1-0.4-0.3-0.5s-0.4-0.2-0.7-0.2c-0.3,0-0.6,0.1-0.7,0.2c-0.1,0.1-0.2,0.2-0.2,0.4
		c0,0.1,0,0.2,0.1,0.3c0.1,0.1,0.2,0.1,0.3,0.2c0.1,0,0.3,0.1,0.7,0.2c0.5,0.1,0.9,0.3,1.1,0.3s0.4,0.2,0.5,0.4s0.2,0.4,0.2,0.6
		c0,0.2-0.1,0.5-0.2,0.7c-0.1,0.2-0.4,0.4-0.6,0.5c-0.3,0.1-0.6,0.2-0.9,0.2c-0.6,0-1-0.1-1.3-0.4S91.6,62.9,91.5,62.4z"/>
	<path d="M101.3,63.2c-0.3,0.2-0.5,0.4-0.8,0.5c-0.3,0.1-0.5,0.1-0.8,0.1c-0.5,0-0.9-0.1-1.1-0.4c-0.3-0.2-0.4-0.5-0.4-0.9
		c0-0.2,0-0.4,0.1-0.6c0.1-0.2,0.2-0.3,0.4-0.4s0.3-0.2,0.5-0.2c0.1,0,0.4-0.1,0.7-0.1c0.6-0.1,1-0.2,1.3-0.3c0-0.1,0-0.2,0-0.2
		c0-0.3-0.1-0.5-0.2-0.6c-0.2-0.2-0.5-0.3-0.9-0.3c-0.4,0-0.6,0.1-0.8,0.2s-0.3,0.3-0.4,0.7l-0.7-0.1c0.1-0.3,0.2-0.6,0.3-0.8
		s0.4-0.3,0.7-0.4c0.3-0.1,0.6-0.2,1-0.2c0.4,0,0.7,0,0.9,0.1c0.2,0.1,0.4,0.2,0.5,0.3s0.2,0.3,0.2,0.5c0,0.1,0,0.4,0,0.7v1
		c0,0.7,0,1.1,0,1.3s0.1,0.4,0.2,0.5h-0.8C101.3,63.5,101.3,63.4,101.3,63.2z M101.2,61.5c-0.3,0.1-0.7,0.2-1.2,0.3
		c-0.3,0-0.5,0.1-0.7,0.1c-0.1,0.1-0.2,0.1-0.3,0.2c-0.1,0.1-0.1,0.2-0.1,0.4c0,0.2,0.1,0.4,0.2,0.5s0.4,0.2,0.7,0.2
		c0.3,0,0.5-0.1,0.8-0.2c0.2-0.1,0.4-0.3,0.5-0.5c0.1-0.2,0.1-0.4,0.1-0.7V61.5z"/>
	<path d="M103.1,63.7v-4.4h0.7v0.6c0.3-0.5,0.8-0.7,1.4-0.7c0.3,0,0.5,0,0.7,0.1c0.2,0.1,0.4,0.2,0.5,0.4c0.1,0.2,0.2,0.3,0.2,0.6
		c0,0.1,0,0.4,0,0.7v2.7H106V61c0-0.3,0-0.5-0.1-0.7c-0.1-0.2-0.2-0.3-0.3-0.4s-0.3-0.1-0.5-0.1c-0.3,0-0.6,0.1-0.8,0.3
		c-0.2,0.2-0.3,0.6-0.3,1.1v2.4H103.1z"/>
	<path d="M110.7,63.7v-0.6c-0.3,0.4-0.7,0.7-1.2,0.7c-0.4,0-0.7-0.1-1-0.3c-0.3-0.2-0.5-0.5-0.7-0.8c-0.2-0.3-0.2-0.7-0.2-1.2
		c0-0.4,0.1-0.8,0.2-1.2c0.1-0.4,0.4-0.6,0.7-0.8c0.3-0.2,0.6-0.3,1-0.3c0.3,0,0.5,0.1,0.7,0.2c0.2,0.1,0.4,0.3,0.5,0.4v-2.2h0.7
		v6.1H110.7z M108.4,61.5c0,0.6,0.1,1,0.4,1.3c0.2,0.3,0.5,0.4,0.8,0.4c0.3,0,0.6-0.1,0.8-0.4c0.2-0.3,0.3-0.7,0.3-1.2
		c0-0.6-0.1-1-0.3-1.3s-0.5-0.4-0.9-0.4c-0.3,0-0.6,0.1-0.8,0.4C108.5,60.5,108.4,60.9,108.4,61.5z"/>
	<path d="M117.8,63.7v-0.6c-0.3,0.4-0.7,0.7-1.2,0.7c-0.4,0-0.7-0.1-1-0.3c-0.3-0.2-0.5-0.5-0.7-0.8c-0.2-0.3-0.2-0.7-0.2-1.2
		c0-0.4,0.1-0.8,0.2-1.2c0.1-0.4,0.4-0.6,0.7-0.8c0.3-0.2,0.6-0.3,1-0.3c0.3,0,0.5,0.1,0.7,0.2c0.2,0.1,0.4,0.3,0.5,0.4v-2.2h0.7
		v6.1H117.8z M115.4,61.5c0,0.6,0.1,1,0.4,1.3c0.2,0.3,0.5,0.4,0.8,0.4c0.3,0,0.6-0.1,0.8-0.4c0.2-0.3,0.3-0.7,0.3-1.2
		c0-0.6-0.1-1-0.3-1.3s-0.5-0.4-0.9-0.4c-0.3,0-0.6,0.1-0.8,0.4C115.6,60.5,115.4,60.9,115.4,61.5z"/>
	<path d="M119.7,58.5v-0.9h0.7v0.9H119.7z M119.7,63.7v-4.4h0.7v4.4H119.7z"/>
	<path d="M124.4,63.2c-0.3,0.2-0.5,0.4-0.8,0.5c-0.3,0.1-0.5,0.1-0.8,0.1c-0.5,0-0.9-0.1-1.1-0.4c-0.3-0.2-0.4-0.5-0.4-0.9
		c0-0.2,0-0.4,0.1-0.6c0.1-0.2,0.2-0.3,0.4-0.4s0.3-0.2,0.5-0.2c0.1,0,0.4-0.1,0.7-0.1c0.6-0.1,1-0.2,1.3-0.3c0-0.1,0-0.2,0-0.2
		c0-0.3-0.1-0.5-0.2-0.6c-0.2-0.2-0.5-0.3-0.9-0.3c-0.4,0-0.6,0.1-0.8,0.2s-0.3,0.3-0.4,0.7l-0.7-0.1c0.1-0.3,0.2-0.6,0.3-0.8
		s0.4-0.3,0.7-0.4c0.3-0.1,0.6-0.2,1-0.2c0.4,0,0.7,0,0.9,0.1c0.2,0.1,0.4,0.2,0.5,0.3s0.2,0.3,0.2,0.5c0,0.1,0,0.4,0,0.7v1
		c0,0.7,0,1.1,0,1.3s0.1,0.4,0.2,0.5h-0.8C124.5,63.5,124.5,63.4,124.4,63.2z M124.4,61.5c-0.3,0.1-0.7,0.2-1.2,0.3
		c-0.3,0-0.5,0.1-0.7,0.1c-0.1,0.1-0.2,0.1-0.3,0.2c-0.1,0.1-0.1,0.2-0.1,0.4c0,0.2,0.1,0.4,0.2,0.5s0.4,0.2,0.7,0.2
		c0.3,0,0.5-0.1,0.8-0.2c0.2-0.1,0.4-0.3,0.5-0.5c0.1-0.2,0.1-0.4,0.1-0.7V61.5z"/>
	<path d="M126.3,63.7v-6.1h0.7v6.1H126.3z"/>
	<path d="M130.4,62.3l0.7-0.1c0.1,0.3,0.2,0.6,0.3,0.7c0.2,0.2,0.4,0.2,0.7,0.2c0.2,0,0.4-0.1,0.6-0.2c0.2-0.1,0.3-0.2,0.4-0.4
		s0.2-0.4,0.3-0.7c0.1-0.3,0.1-0.6,0.1-0.9c0,0,0-0.1,0-0.1c-0.1,0.2-0.4,0.4-0.6,0.6s-0.5,0.2-0.8,0.2c-0.5,0-0.9-0.2-1.3-0.5
		s-0.5-0.8-0.5-1.4c0-0.6,0.2-1.1,0.5-1.5s0.8-0.6,1.4-0.6c0.4,0,0.8,0.1,1.1,0.3c0.3,0.2,0.6,0.5,0.7,0.9c0.2,0.4,0.3,1,0.3,1.7
		c0,0.8-0.1,1.4-0.3,1.9c-0.2,0.5-0.4,0.8-0.8,1.1s-0.7,0.4-1.2,0.4c-0.5,0-0.9-0.1-1.2-0.4C130.7,63.1,130.5,62.8,130.4,62.3z
		 M133.5,59.6c0-0.4-0.1-0.8-0.3-1c-0.2-0.3-0.5-0.4-0.8-0.4c-0.3,0-0.6,0.1-0.9,0.4c-0.2,0.3-0.4,0.6-0.4,1.1
		c0,0.4,0.1,0.7,0.4,0.9s0.5,0.4,0.9,0.4c0.3,0,0.6-0.1,0.9-0.4S133.5,60,133.5,59.6z"/>
	<path d="M137.9,63.7h-0.7v-4.8c-0.2,0.2-0.4,0.3-0.7,0.5c-0.3,0.2-0.6,0.3-0.8,0.4v-0.7c0.4-0.2,0.8-0.4,1.1-0.7
		c0.3-0.3,0.5-0.6,0.7-0.8h0.5V63.7z"/>
	<path d="M142,63.7h-0.7v-4.8c-0.2,0.2-0.4,0.3-0.7,0.5c-0.3,0.2-0.6,0.3-0.8,0.4v-0.7c0.4-0.2,0.8-0.4,1.1-0.7
		c0.3-0.3,0.5-0.6,0.7-0.8h0.5V63.7z"/>
	<path d="M144.3,63.7v-0.9h0.9v0.9H144.3z"/>
</g>
<g>
	<defs>
		<rect id="SVGID_1_" y="83.2" width="284.4" height="114.9"/>
	</defs>
	<clipPath id="SVGID_2_">
		<use xlink:href="#SVGID_1_"  style="overflow:visible;"/>
	</clipPath>
	<path class="st1" d="M-32,117.7c25.5,1,66.4-5.7,105.4-23.4 M-32,128.1c21.4-2.2,52.8-13.1,74.9-33.9 M-32,120.5
		c26.1,1.3,62.1-7.7,83.8-26.2"/>
	<path class="st2" d="M-31.8,171.8c107.9,19,239-8.3,346.9,10.7"/>
</g>
<rect x="72.4" y="94.3" class="st3" width="2" height="3.9"/>
<rect x="72.4" y="94.3" class="st4" width="2" height="3.9"/>
<rect x="50.9" y="94.3" class="st3" width="2" height="3.9"/>
<rect x="50.9" y="94.3" class="st4" width="2" height="3.9"/>
<rect x="42" y="94.3" class="st3" width="2" height="3.9"/>
<rect x="42" y="94.3" class="st4" width="2" height="3.9"/>
<rect x="36.6" y="98.2" class="st3" width="47.7" height="3.8"/>
<rect x="36.6" y="98.2" class="st4" width="47.7" height="3.8"/>
<rect x="58.3" y="93.4" class="st3" width="4.3" height="99.3"/>
<rect x="58.3" y="93.4" class="st4" width="4.3" height="99.3"/>
<line class="st4" x1="62.6" y1="107.6" x2="68.2" y2="102"/>
<line class="st4" x1="58.3" y1="107.6" x2="52.7" y2="102"/>
<g>
	<defs>
		<rect id="SVGID_3_" y="83.2" width="284.4" height="114.9"/>
	</defs>
	<clipPath id="SVGID_4_">
		<use xlink:href="#SVGID_3_"  style="overflow:visible;"/>
	</clipPath>
	<path class="st5" d="M61.1,188.3c0-3.7,0-7.4,0.1-11.2"/>
	<path class="st6" d="M61.1,188.3c0-3.7,0-7.4,0.1-11.2c0-0.1-0.2-0.1-0.2,0c0,3.7,0,7.4-0.1,11.2C61,188.4,61.1,188.4,61.1,188.3"
		/>
	<path class="st5" d="M60.2,174.5c0,3.7,0,7.3,0,11"/>
	<path class="st6" d="M60.1,174.5c0,3.7,0,7.3,0,11c0,0.1,0.2,0.1,0.2,0c0-3.7,0-7.3,0-11C60.3,174.4,60.1,174.4,60.1,174.5"/>
</g>
<path class="st3" d="M59.3,189.8V187V189.8z"/>
<g>
	<defs>
		<rect id="SVGID_5_" y="83.2" width="284.4" height="114.9"/>
	</defs>
	<clipPath id="SVGID_6_">
		<use xlink:href="#SVGID_5_"  style="overflow:visible;"/>
	</clipPath>
	<path class="st7" d="M59.2,187v2.8c0,0.1,0.2,0.1,0.2,0V187C59.3,186.9,59.2,186.9,59.2,187"/>
	<path class="st8" d="M60.7,173.3c-0.1-3.3-0.1-6.6-0.2-9.9"/>
	<path class="st7" d="M60.8,173.3c-0.1-3.3-0.1-6.6-0.2-9.9c0-0.1-0.2-0.1-0.2,0c0.1,3.3,0.1,6.6,0.2,9.9
		C60.7,173.4,60.8,173.4,60.8,173.3"/>
	<path class="st8" d="M59.9,160.9c-0.1,1.2-0.3,2.5-0.4,3.7"/>
	<path class="st7" d="M59.8,160.9c-0.1,1.2-0.3,2.5-0.4,3.7c0,0.1,0.2,0.1,0.2,0c0.1-1.2,0.3-2.5,0.4-3.7
		C60,160.8,59.8,160.8,59.8,160.9"/>
	<path class="st8" d="M59.5,167.8c0,0.9,0,1.7-0.1,2.6"/>
	<path class="st7" d="M59.4,167.8c0,0.9,0,1.7-0.1,2.6c0,0.1,0.2,0.1,0.2,0c0-0.9,0-1.7,0.1-2.6C59.6,167.7,59.4,167.7,59.4,167.8"
		/>
	<path class="st8" d="M60.6,150.4c-0.1,3.4,0.1,6.8,0.4,10.1"/>
	<path class="st7" d="M60.5,150.4c-0.1,3.4,0.1,6.8,0.4,10.1c0,0.1,0.2,0.1,0.2,0c-0.3-3.4-0.5-6.7-0.4-10.1
		C60.7,150.3,60.5,150.3,60.5,150.4"/>
	<path class="st8" d="M60.9,133.4c0.1,2.4,0,4.7-0.1,7.1"/>
	<path class="st7" d="M60.8,133.4c0.1,2.4,0,4.7-0.1,7.1c0,0.1,0.2,0.1,0.2,0c0.1-2.4,0.1-4.7,0.1-7.1
		C60.9,133.3,60.8,133.3,60.8,133.4"/>
	<path class="st8" d="M59.7,137.8c0.2,3.5,0.3,7,0.1,10.5"/>
	<path class="st7" d="M59.6,137.8c0.2,3.5,0.3,7,0.1,10.5c0,0.1,0.2,0.1,0.2,0c0.2-3.5,0.2-7-0.1-10.5
		C59.8,137.7,59.6,137.7,59.6,137.8"/>
</g>
<path class="st3" d="M60.7,147.1v-0.8V147.1z"/>
<g>
	<defs>
		<rect id="SVGID_7_" y="83.2" width="284.4" height="114.9"/>
	</defs>
	<clipPath id="SVGID_8_">
		<use xlink:href="#SVGID_7_"  style="overflow:visible;"/>
	</clipPath>
	<path class="st9" d="M60.6,146.3v0.8c0,0.1,0.2,0.1,0.2,0v-0.8C60.8,146.2,60.6,146.2,60.6,146.3"/>
	<path class="st10" d="M59.8,131.3c0.1-2.9,0.2-5.9,0.3-8.8"/>
	<path class="st9" d="M59.9,131.3c0.1-2.9,0.2-5.9,0.3-8.8c0-0.1-0.2-0.1-0.2,0c-0.1,2.9-0.2,5.9-0.3,8.8
		C59.8,131.4,59.9,131.4,59.9,131.3"/>
	<path class="st10" d="M60.4,115.4c0.1,1.6,0.1,3.1,0.2,4.7"/>
	<path class="st9" d="M60.3,115.4c0.1,1.6,0.1,3.1,0.2,4.7c0,0.1,0.2,0.1,0.2,0c-0.1-1.6-0.1-3.1-0.2-4.7
		C60.5,115.3,60.3,115.2,60.3,115.4"/>
	<path class="st10" d="M61,99.5c0.1,2,0.1,4.1,0,6.1"/>
	<path class="st9" d="M60.9,99.5c0.1,2,0.1,4.1,0,6.1c0,0.1,0.2,0.1,0.2,0c0.2-2,0.2-4.1,0-6.1C61.1,99.4,60.9,99.4,60.9,99.5"/>
</g>
<path class="st3" d="M60.4,112.1v-9.6V112.1z"/>
<g>
	<defs>
		<rect id="SVGID_9_" y="83.2" width="284.4" height="114.9"/>
	</defs>
	<clipPath id="SVGID_10_">
		<use xlink:href="#SVGID_9_"  style="overflow:visible;"/>
	</clipPath>
	<path class="st11" d="M60.3,102.5v9.6c0,0.1,0.2,0.1,0.2,0v-9.6C60.5,102.4,60.3,102.4,60.3,102.5"/>
</g>
<path class="st3" d="M61.1,113.4V112V113.4z"/>
<g>
	<defs>
		<rect id="SVGID_11_" y="83.2" width="284.4" height="114.9"/>
	</defs>
	<clipPath id="SVGID_12_">
		<use xlink:href="#SVGID_11_"  style="overflow:visible;"/>
	</clipPath>
	<path class="st12" d="M61,111.9v1.4c0,0.1,0.2,0.1,0.2,0V112C61.1,111.8,61,111.8,61,111.9"/>
	<path class="st13" d="M57.5,99.5c-3.5-0.1-7-0.3-10.5-0.4"/>
	<path class="st12" d="M57.5,99.5c-3.5-0.1-7-0.3-10.5-0.4c-0.1,0-0.1,0.2,0,0.2c3.5,0.1,7,0.3,10.5,0.4
		C57.6,99.6,57.6,99.5,57.5,99.5"/>
</g>
<path class="st3" d="M47.8,100.2h1.9H47.8z"/>
<g>
	<defs>
		<rect id="SVGID_13_" y="83.2" width="284.4" height="114.9"/>
	</defs>
	<clipPath id="SVGID_14_">
		<use xlink:href="#SVGID_13_"  style="overflow:visible;"/>
	</clipPath>
	<path class="st14" d="M49.7,100.1h-1.9c-0.1,0-0.1,0.2,0,0.2h1.9C49.8,100.2,49.8,100.1,49.7,100.1"/>
	<path class="st15" d="M53.8,100.5c-1,0.1-2,0.1-3-0.1"/>
	<path class="st14" d="M53.8,100.4c-1,0.1-2,0.1-3-0.1c-0.1,0-0.1,0.2,0,0.2c1,0.1,2,0.1,3,0.1C53.9,100.5,53.9,100.4,53.8,100.4"/>
	<path class="st15" d="M44,99.5c-1.2,0-2.4,0-3.5-0.1"/>
	<path class="st14" d="M44,99.4c-1.2,0-2.4,0-3.5-0.1c-0.1,0-0.1,0.2,0,0.2c1.2,0,2.4,0,3.5,0.1C44.1,99.6,44.1,99.4,44,99.4"/>
	<path class="st15" d="M40,100.2c1.6,0.3,3.3,0.4,5,0.3"/>
	<path class="st14" d="M40,100.3c1.6,0.3,3.3,0.4,5,0.3c0.1,0,0.1-0.2,0-0.2c-1.7,0.1-3.3,0-4.9-0.3C39.9,100.1,39.9,100.3,40,100.3
		"/>
	<path class="st15" d="M64.7,99.3c2-0.2,4,0,6,0.5"/>
	<path class="st14" d="M64.7,99.4c2-0.1,4,0,5.9,0.5c0.1,0,0.2-0.1,0.1-0.2c-2-0.5-4-0.7-6-0.5C64.6,99.2,64.6,99.4,64.7,99.4"/>
</g>
<path class="st3" d="M66.1,100.1h2.2H66.1z"/>
<g>
	<defs>
		<rect id="SVGID_15_" y="83.2" width="284.4" height="114.9"/>
	</defs>
	<clipPath id="SVGID_16_">
		<use xlink:href="#SVGID_15_"  style="overflow:visible;"/>
	</clipPath>
	<path class="st16" d="M66.1,100.2h2.2c0.1,0,0.1-0.2,0-0.2h-2.2C66,100,66,100.2,66.1,100.2"/>
	<path class="st17" d="M72.1,100.3c0.5,0.1,1.1,0.1,1.6-0.1"/>
	<path class="st16" d="M72.1,100.4c0.5,0.1,1.1,0.1,1.6-0.1c0.1,0,0.1-0.2,0-0.2c-0.5,0.2-1,0.2-1.5,0.1
		C72,100.2,72,100.4,72.1,100.4"/>
	<path class="st17" d="M76.6,99.4c1.4,0,2.9,0,4.3,0.2"/>
	<path class="st16" d="M76.6,99.5c1.5,0,2.9,0,4.3,0.2c0.1,0,0.1-0.2,0-0.2c-1.4-0.2-2.9-0.2-4.3-0.2C76.5,99.3,76.5,99.5,76.6,99.5
		"/>
	<path class="st17" d="M78.1,100.1c1.5,0.1,2.9,0.1,4.4,0.2"/>
	<path class="st16" d="M78.1,100.2c1.5,0.1,2.9,0.1,4.4,0.2c0.1,0,0.1-0.2,0-0.2c-1.5-0.1-2.9-0.1-4.4-0.2
		C78,100,78,100.2,78.1,100.2"/>
	<path class="st17" d="M61.2,126.2c0.1,1.4,0,2.8-0.4,4.2"/>
	<path class="st16" d="M61.1,126.2c0.1,1.4,0,2.8-0.4,4.1c0,0.1,0.1,0.2,0.2,0.1c0.4-1.4,0.5-2.8,0.4-4.2
		C61.3,126.1,61.1,126,61.1,126.2"/>
	<path class="st17" d="M61,190.3c0,0.7,0,1.4-0.1,2.2"/>
	<path class="st16" d="M60.9,190.3c0,0.7,0,1.4-0.1,2.2c0,0.1,0.2,0.1,0.2,0c0-0.7,0-1.4,0.1-2.2C61.1,190.2,60.9,190.2,60.9,190.3"
		/>
	<path class="st18" d="M73.4,94.3c0,0,57.7,48.7,164.8,0 M43,94.3c0,0,87.1,73.1,164.9,0 M51.9,94.3c0,0,104.4,51.5,164.9,0"/>
</g>
<rect x="201.3" y="98.2" class="st3" width="47.7" height="3.8"/>
<rect x="201.3" y="98.2" class="st4" width="47.7" height="3.8"/>
<rect x="237.2" y="94.3" class="st3" width="2" height="3.9"/>
<rect x="237.2" y="94.3" class="st4" width="2" height="3.9"/>
<rect x="215.7" y="94.3" class="st3" width="2" height="3.9"/>
<rect x="215.7" y="94.3" class="st4" width="2" height="3.9"/>
<rect x="206.7" y="94.3" class="st3" width="2" height="3.9"/>
<rect x="206.7" y="94.3" class="st4" width="2" height="3.9"/>
<rect x="223" y="93.4" class="st3" width="4.3" height="99.3"/>
<rect x="223" y="93.4" class="st4" width="4.3" height="99.3"/>
<line class="st4" x1="227.4" y1="107.6" x2="232.9" y2="102"/>
<line class="st4" x1="223" y1="107.6" x2="217.4" y2="102"/>
<path class="st3" d="M226.1,161.1v-7.9V161.1z"/>
<g>
	<defs>
		<rect id="SVGID_17_" y="83.2" width="284.4" height="114.9"/>
	</defs>
	<clipPath id="SVGID_18_">
		<use xlink:href="#SVGID_17_"  style="overflow:visible;"/>
	</clipPath>
	<path class="st19" d="M226,153.2v7.9c0,0.1,0.2,0.1,0.2,0v-7.9C226.2,153.1,226,153.1,226,153.2"/>
	<path class="st20" d="M225.1,162.3c0.6,2.6,0.9,5.3,0.9,7.9"/>
	<path class="st19" d="M225.1,162.3c0.6,2.6,0.9,5.3,0.9,7.9c0,0.1,0.2,0.1,0.2,0c0-2.7-0.3-5.4-0.9-8
		C225.2,162.2,225,162.2,225.1,162.3"/>
	<path class="st20" d="M224.7,167.4c0,3.3,0,6.6,0,9.9"/>
	<path class="st19" d="M224.6,167.4c0,3.3,0,6.6,0,9.9c0,0.1,0.2,0.1,0.2,0c0-3.3,0-6.6,0-9.9C224.8,167.3,224.6,167.3,224.6,167.4"
		/>
	<path class="st20" d="M225.9,174.5c-0.5,4.2-0.9,8.5-1.2,12.8"/>
	<path class="st19" d="M225.8,174.5c-0.5,4.2-0.9,8.5-1.2,12.8c0,0.1,0.2,0.1,0.2,0c0.2-4.3,0.6-8.5,1.2-12.8
		C226,174.4,225.8,174.4,225.8,174.5"/>
</g>
<path class="st3" d="M226.3,189.8v-3.9V189.8z"/>
<g>
	<defs>
		<rect id="SVGID_19_" y="83.2" width="284.4" height="114.9"/>
	</defs>
	<clipPath id="SVGID_20_">
		<use xlink:href="#SVGID_19_"  style="overflow:visible;"/>
	</clipPath>
	<path class="st21" d="M226.2,185.9v3.9c0,0.1,0.2,0.1,0.2,0v-3.9C226.3,185.8,226.2,185.7,226.2,185.9"/>
	<path class="st22" d="M224,156.7c0-3.7,0.3-7.3,0.8-11"/>
	<path class="st21" d="M224,156.7c0-3.7,0.3-7.3,0.8-11c0-0.1-0.2-0.1-0.2,0c-0.4,3.6-0.7,7.3-0.8,11
		C223.9,156.8,224,156.8,224,156.7"/>
	<path class="st22" d="M225.6,150c-0.1-5.4-0.3-10.9-0.4-16.3"/>
	<path class="st21" d="M225.7,150c-0.1-5.4-0.3-10.9-0.4-16.3c0-0.1-0.2-0.1-0.2,0c0.1,5.4,0.3,10.9,0.4,16.3
		C225.5,150.1,225.7,150.1,225.7,150"/>
</g>
<path class="st3" d="M224.3,142.2v-3.8V142.2z"/>
<g>
	<defs>
		<rect id="SVGID_21_" y="83.2" width="284.4" height="114.9"/>
	</defs>
	<clipPath id="SVGID_22_">
		<use xlink:href="#SVGID_21_"  style="overflow:visible;"/>
	</clipPath>
	<path class="st23" d="M224.4,142.2v-3.8c0-0.1-0.2-0.1-0.2,0v3.8C224.2,142.3,224.4,142.4,224.4,142.2"/>
	<path class="st24" d="M225.5,122.4c0.2,2.7,0.2,5.4,0.1,8.1"/>
	<path class="st23" d="M225.4,122.4c0.2,2.7,0.2,5.4,0.1,8.1c0,0.1,0.2,0.1,0.2,0c0.1-2.7,0.1-5.4-0.1-8.1
		C225.6,122.3,225.4,122.3,225.4,122.4"/>
	<path class="st24" d="M224.7,125.3c-0.2,2.6-0.4,5.3-0.6,7.9"/>
	<path class="st23" d="M224.7,125.3c-0.2,2.6-0.4,5.3-0.6,7.9c0,0.1,0.2,0.1,0.2,0c0.2-2.6,0.4-5.3,0.6-7.9
		C224.8,125.2,224.7,125.2,224.7,125.3"/>
	<path class="st24" d="M225.2,106.6c0,3.4,0,6.9-0.1,10.3"/>
	<path class="st23" d="M225.1,106.5c0,3.4,0,6.9-0.1,10.3c0,0.1,0.2,0.1,0.2,0c0-3.4,0-6.9,0.1-10.3
		C225.3,106.4,225.1,106.4,225.1,106.5"/>
</g>
<path class="st3" d="M226.3,118.2v-3V118.2z"/>
<g>
	<defs>
		<rect id="SVGID_23_" y="83.2" width="284.4" height="114.9"/>
	</defs>
	<clipPath id="SVGID_24_">
		<use xlink:href="#SVGID_23_"  style="overflow:visible;"/>
	</clipPath>
	<path class="st25" d="M226.2,115.2v3c0,0.1,0.2,0.1,0.2,0v-3C226.4,115.1,226.2,115.1,226.2,115.2"/>
	<path class="st26" d="M225.4,119.5c-0.2,1-0.3,2-0.5,3"/>
	<path class="st25" d="M225.3,119.5c-0.2,1-0.3,2-0.5,3c0,0.1,0.2,0.1,0.2,0c0.2-1,0.3-2,0.5-3C225.5,119.4,225.3,119.4,225.3,119.5
		"/>
	<path class="st26" d="M225.4,98c0.1,1.9,0.1,3.7,0,5.6"/>
	<path class="st25" d="M225.4,98c0.1,1.9,0.1,3.7,0,5.6c0,0.1,0.2,0.1,0.2,0c0.1-1.9,0.1-3.7,0-5.6C225.5,97.9,225.4,97.9,225.4,98"
		/>
</g>
<path class="st3" d="M224.8,103.3v-6.5V103.3z"/>
<g>
	<defs>
		<rect id="SVGID_25_" y="83.2" width="284.4" height="114.9"/>
	</defs>
	<clipPath id="SVGID_26_">
		<use xlink:href="#SVGID_25_"  style="overflow:visible;"/>
	</clipPath>
	<path class="st27" d="M224.7,96.7v6.5c0,0.1,0.2,0.1,0.2,0v-6.5C224.9,96.6,224.7,96.6,224.7,96.7"/>
	<path class="st28" d="M220.5,99.7c-1.2,0-2.5-0.1-3.7-0.1"/>
	<path class="st27" d="M220.5,99.6c-1.2,0-2.5-0.1-3.7-0.1c-0.1,0-0.1,0.2,0,0.2c1.2,0,2.5,0.1,3.7,0.1
		C220.7,99.8,220.7,99.6,220.5,99.6"/>
	<path class="st28" d="M215,100.5c-3.6,0-7.2,0-10.8,0"/>
	<path class="st27" d="M215,100.4c-3.6,0-7.2,0-10.8,0c-0.1,0-0.1,0.2,0,0.2c3.6,0,7.2,0,10.8,0C215.1,100.6,215.1,100.4,215,100.4"
		/>
	<path class="st28" d="M205.9,99.7c2.6,0.1,5.3,0.1,7.9,0.2"/>
	<path class="st27" d="M205.9,99.8c2.6,0.1,5.3,0.1,7.9,0.2c0.1,0,0.1-0.2,0-0.2c-2.6-0.1-5.3-0.1-7.9-0.2
		C205.8,99.6,205.8,99.8,205.9,99.8"/>
	<path class="st28" d="M231.8,100.4c3.6-0.1,7.2-0.2,10.9-0.1"/>
	<path class="st27" d="M231.8,100.4c3.6-0.1,7.2-0.2,10.9-0.1c0.1,0,0.1-0.2,0-0.2c-3.6-0.1-7.2-0.1-10.9,0.1
		C231.7,100.3,231.7,100.5,231.8,100.4"/>
	<path class="st28" d="M232.9,99.4c1-0.1,2.1-0.2,3.2-0.1"/>
	<path class="st27" d="M232.9,99.5c1-0.1,2.1-0.2,3.1-0.1c0.1,0,0.1-0.2,0-0.2c-1.1,0-2.1,0-3.2,0.1
		C232.8,99.3,232.8,99.5,232.9,99.5"/>
	<path class="st28" d="M229.3,99.6c0.5,0,1.1,0,1.6,0.1"/>
	<path class="st27" d="M229.3,99.7c0.5,0,1.1,0,1.6,0.1c0.1,0,0.1-0.2,0-0.2c-0.5,0-1.1,0-1.6-0.1C229.2,99.5,229.2,99.7,229.3,99.7
		"/>
</g>
<path class="st3" d="M242,99.5h4.7H242z"/>
<g>
	<defs>
		<rect id="SVGID_27_" y="83.2" width="284.4" height="114.9"/>
	</defs>
	<clipPath id="SVGID_28_">
		<use xlink:href="#SVGID_27_"  style="overflow:visible;"/>
	</clipPath>
	<path class="st29" d="M242,99.6h4.7c0.1,0,0.1-0.2,0-0.2H242C241.8,99.5,241.8,99.6,242,99.6"/>
</g>
<path class="st3" d="M245.4,100.4h0.9H245.4z"/>
<g>
	<defs>
		<rect id="SVGID_29_" y="83.2" width="284.4" height="114.9"/>
	</defs>
	<clipPath id="SVGID_30_">
		<use xlink:href="#SVGID_29_"  style="overflow:visible;"/>
	</clipPath>
	<path class="st30" d="M245.4,100.5h0.9c0.1,0,0.1-0.2,0-0.2h-0.9C245.3,100.3,245.3,100.5,245.4,100.5"/>
	<path class="st31" d="M97.8,192.9l44.6-85l5.4,2.8c0,0-42.6,82.1-42.8,82.4C101.8,192,97.8,192.9,97.8,192.9"/>
	<path class="st32" d="M97.8,192.9l44.6-85l5.4,2.8c0,0-42.6,82.1-42.8,82.4C101.8,192,97.8,192.9,97.8,192.9z"/>
</g>
<polygon class="st33" points="102.3,140.5 158.2,84.3 144,162.3 "/>
<g>
	<defs>
		<rect id="SVGID_31_" y="83.2" width="284.4" height="114.9"/>
	</defs>
	<clipPath id="SVGID_32_">
		<use xlink:href="#SVGID_31_"  style="overflow:visible;"/>
	</clipPath>
	<polygon class="st34" points="102.3,140.5 158.2,84.3 144,162.3 	"/>
</g>
<line class="st4" x1="115.8" y1="133.8" x2="141.8" y2="147.4"/>
<line class="st4" x1="130.2" y1="118.7" x2="146" y2="126.9"/>
<line class="st4" x1="142.4" y1="108" x2="147.8" y2="110.8"/>
<g>
	<defs>
		<rect id="SVGID_33_" y="83.2" width="284.4" height="114.9"/>
	</defs>
	<clipPath id="SVGID_34_">
		<use xlink:href="#SVGID_33_"  style="overflow:visible;"/>
	</clipPath>
	<path class="st35" d="M238.2,94.3c0,0,35.4,21.6,78.2,24.1 M207.9,94.3c0,0,55.8,39.7,108.5,35.6 M216.8,94.3
		c0,0,53.9,23.9,99.6,26.9"/>
	<path class="st36" d="M162.6,134.1c0,2.9-2.4,5.3-5.3,5.3c-2.9,0-5.3-2.4-5.3-5.3c0-2.9,2.4-5.3,5.3-5.3
		C160.2,128.8,162.6,131.2,162.6,134.1"/>
	<path class="st37" d="M154.3,136.8c-0.7,0-1-0.5-0.6-1.1l3-5.2c0.4-0.6,0.9-0.6,1.3,0l3,5.2c0.4,0.6,0.1,1.1-0.6,1.1H154.3z"/>
	<path class="st38" d="M157.8,135.7c0,0.3-0.2,0.5-0.5,0.5c-0.3,0-0.5-0.2-0.5-0.5s0.2-0.5,0.5-0.5
		C157.6,135.2,157.8,135.4,157.8,135.7"/>
	<path class="st38" d="M157.1,134.6c0,0.1,0.1,0.2,0.2,0.2c0.1,0,0.2-0.1,0.2-0.2l0.3-3.1c0-0.3-0.2-0.5-0.5-0.5
		c-0.3,0-0.5,0.2-0.5,0.5L157.1,134.6z"/>
</g>
</svg>
