<svg id="Layer_1" data-name="Layer 1" xmlns="http://www.w3.org/2000/svg" xmlns:xlink="http://www.w3.org/1999/xlink" viewBox="0 0 284.4 213.84"><defs><style>.cls-1,.cls-18,.cls-21,.cls-9{fill:none;}.cls-2{clip-path:url(#clip-path);}.cls-3{fill:#10a2c7;}.cls-4{fill:#004f6c;}.cls-5{clip-path:url(#clip-path-2);}.cls-6{fill:#fff;}.cls-7{fill:#eceae9;}.cls-8{fill:#b7b5b4;}.cls-9{stroke:#d2d1d1;}.cls-18,.cls-9{stroke-miterlimit:10;stroke-width:0.2px;}.cls-10{fill:#90cde6;}.cls-11{fill:#d2d1d1;}.cls-12{fill:#25b3da;}.cls-13{opacity:0.26;}.cls-14{clip-path:url(#clip-path-3);}.cls-15{clip-path:url(#clip-path-4);}.cls-16{fill:#c7c6c6;}.cls-17{fill:#b0dbdb;}.cls-18{stroke:#b0dbdb;}.cls-19{clip-path:url(#clip-path-5);}.cls-20{clip-path:url(#clip-path-6);}.cls-21{stroke:#343534;stroke-linecap:round;stroke-linejoin:round;stroke-width:0.4px;}.cls-22{fill:#db5536;}.cls-23{fill:#53ad4a;}.cls-24{fill:#207d44;}.cls-25{opacity:0.19;}.cls-26{clip-path:url(#clip-path-7);}.cls-27{fill:#9e3e3a;}.cls-28{clip-path:url(#clip-path-9);}.cls-29{clip-path:url(#clip-path-11);}.cls-30{clip-path:url(#clip-path-12);}.cls-31{clip-path:url(#clip-path-13);}.cls-32{clip-path:url(#clip-path-14);}</style><clipPath id="clip-path"><rect class="cls-1" width="284.4" height="213.84"/></clipPath><clipPath id="clip-path-2"><rect class="cls-1" x="19.73" y="96.67" width="244.94" height="86.61"/></clipPath><clipPath id="clip-path-3"><rect class="cls-1" x="89.39" y="121.48" width="46.31" height="55.71"/></clipPath><clipPath id="clip-path-4"><rect class="cls-1" x="89.39" y="121.48" width="46.31" height="55.71"/></clipPath><clipPath id="clip-path-5"><rect class="cls-1" x="95.04" y="96.82" width="119.5" height="80.52"/></clipPath><clipPath id="clip-path-6"><rect class="cls-1" x="95.04" y="96.82" width="119.5" height="80.52"/></clipPath><clipPath id="clip-path-7"><rect class="cls-1" x="26.51" y="149.11" width="37.17" height="2.1"/></clipPath><clipPath id="clip-path-9"><rect class="cls-1" x="30.02" y="158.23" width="23.85" height="0.93"/></clipPath><clipPath id="clip-path-11"><rect class="cls-1" x="37.77" y="158.32" width="22.86" height="24.14"/></clipPath><clipPath id="clip-path-12"><rect class="cls-1" x="37.77" y="158.32" width="22.86" height="24.15"/></clipPath><clipPath id="clip-path-13"><rect class="cls-1" x="49.39" y="149.95" width="13.5" height="8.36"/></clipPath><clipPath id="clip-path-14"><rect class="cls-1" x="49.39" y="149.95" width="13.5" height="8.36"/></clipPath></defs><title>Artboard 1@3x-100</title><g class="cls-2"><rect class="cls-3" width="284.4" height="213.84"/><rect class="cls-4" y="183.28" width="284.4" height="15.24"/><g class="cls-5"><path class="cls-6" d="M238.46,183.28c0-5.63,5.87-10.19,13.11-10.19s13.1,4.56,13.1,10.19Z"/><rect class="cls-6" x="95.72" y="102.46" width="112.76" height="69.39"/><path class="cls-6" d="M214.26,177.2a5.48,5.48,0,0,1-5.3,5.64H94.76a5.48,5.48,0,0,1-5.3-5.64V102.32a5.48,5.48,0,0,1,5.3-5.64H209a5.48,5.48,0,0,1,5.3,5.64Z"/><path class="cls-7" d="M223.27,176.73c0,2.49-1.75,6.55-4.4,6.55H86.12c-2.65,0-5.2-4.07-5.2-6.55"/><path class="cls-8" d="M142.69,176.92s-2,1.91,9.82,1.91c0,0,10.77.2,10.36-1.91Z"/><circle class="cls-9" cx="151.37" cy="99.32" r="1.2"/><rect class="cls-10" x="95.24" y="102.46" width="112.76" height="69.39"/><path class="cls-6" d="M182.55,165.37c0,.49-.53.88-1.18.88H104.13c-.65,0-1.18-.4-1.18-.88V108.24c0-.49.53-.88,1.18-.88h77.24c.65,0,1.18.39,1.18.88Z"/><path class="cls-11" d="M82.34,179.69h139.9a6.72,6.72,0,0,1-2.58,3.35h-134a10.65,10.65,0,0,1-3.35-3.35"/><rect class="cls-12" x="201.21" y="109.41" width="4.32" height="2.88"/><rect class="cls-12" x="201.21" y="115.8" width="4.32" height="2.88"/><rect class="cls-12" x="201.21" y="122.18" width="4.32" height="2.88"/><rect class="cls-12" x="201.21" y="128.57" width="4.32" height="2.88"/><rect class="cls-12" x="201.21" y="134.95" width="4.32" height="2.88"/><rect class="cls-12" x="201.21" y="141.34" width="4.32" height="2.88"/><rect class="cls-12" x="193.88" y="109.41" width="4.32" height="2.88"/><rect class="cls-12" x="193.88" y="115.8" width="4.32" height="2.88"/><rect class="cls-12" x="193.88" y="122.18" width="4.32" height="2.88"/><rect class="cls-12" x="193.88" y="128.57" width="4.32" height="2.88"/><rect class="cls-12" x="193.88" y="134.95" width="4.32" height="2.88"/><rect class="cls-12" x="193.88" y="141.34" width="4.32" height="2.88"/><rect class="cls-12" x="201.07" y="147.84" width="4.32" height="2.88"/><rect class="cls-12" x="201.07" y="154.23" width="4.32" height="2.88"/><rect class="cls-12" x="201.07" y="160.61" width="4.32" height="2.88"/><g class="cls-13"><g class="cls-14"><g class="cls-15"><polygon class="cls-6" points="89.39 121.48 135.7 176.71 89.46 177.2 89.39 121.48"/></g></g></g><rect class="cls-16" x="102.95" y="107.32" width="79.78" height="4.36"/><rect class="cls-17" x="111.56" y="119.65" width="42.04" height="37.5"/><rect class="cls-17" x="158.81" y="119.65" width="18.31" height="12.3"/><line class="cls-18" x1="158.78" y1="133.64" x2="176.9" y2="133.64"/><line class="cls-18" x1="158.78" y1="134.72" x2="176.9" y2="134.72"/><line class="cls-18" x1="158.78" y1="135.79" x2="176.9" y2="135.79"/><g class="cls-13"><g class="cls-19"><g class="cls-20"><path class="cls-6" d="M95,96.82h114.2a5.48,5.48,0,0,1,5.3,5.64v74.88"/></g></g></g><line class="cls-21" x1="80.92" y1="176.61" x2="223.24" y2="176.61"/><polygon class="cls-22" points="57.01 183.28 33.18 183.28 28.89 157.07 61.3 157.07 57.01 183.28"/><path class="cls-23" d="M37.5,154.12s-17.77-4.84-15.34-26.65c0,0,14.54,12.11,17.77,17,0,0-11.3-17-7.27-28.26l12.11,30.69s-5.65-34.73.81-38c0,0,10.29,15.93,4.64,30.47,0,0,5.86-14.32,9.09-14.32,0,0,5.65-2.42,8.08-.81,0,0-1.62,10.5-4.85,12.92l-8.08,5.65,12.11-3.23S65,154.93,52,150.89Z"/><path class="cls-24" d="M32.65,116.17S44.51,133,44.51,146.78a129.06,129.06,0,0,1-11.86-30.61"/><path class="cls-24" d="M40.73,150.89s-7.86-12.35-18-19.31c0,0-.7,21.74,18,19.31"/><polygon class="cls-22" points="62.98 157.99 27.21 157.99 26.27 148.94 63.92 148.94 62.98 157.99"/><path class="cls-24" d="M48.8,145.24a93.06,93.06,0,0,0,14.88-9c2.1-1.64,3-5.85,3.69-12Z"/><g class="cls-25"><g class="cls-26"><g class="cls-26"><rect class="cls-27" x="26.51" y="149.11" width="37.17" height="2.1"/></g></g></g><g class="cls-25"><g class="cls-28"><g class="cls-28"><rect class="cls-27" x="30.02" y="158.23" width="23.85" height="0.94"/></g></g></g><g class="cls-25"><g class="cls-29"><g class="cls-30"><polygon class="cls-27" points="37.77 158.41 46.36 170.76 56.22 182.47 60.63 158.32 37.77 158.41"/></g></g></g><g class="cls-25"><g class="cls-31"><g class="cls-32"><polygon class="cls-27" points="52.69 158.31 62.35 158.08 62.88 149.95 49.39 149.95 52.69 158.31"/></g></g></g></g><g class="cls-2"><path class="cls-6" d="M195.72,67.35h-.85v.85h.85Zm-5-2.63a1,1,0,0,1,.83-.41,1.07,1.07,0,0,1,.86.42,2.08,2.08,0,0,1,.35,1.33,1.85,1.85,0,0,1-.34,1.22,1.06,1.06,0,0,1-.83.4,1.07,1.07,0,0,1-.84-.42,1.91,1.91,0,0,1-.36-1.27,2,2,0,0,1,.34-1.28m2.72,3.48V62.12h-.74V64.3a1.47,1.47,0,0,0-1.22-.61,1.76,1.76,0,0,0-1,.29,1.73,1.73,0,0,0-.66.82,3.12,3.12,0,0,0-.22,1.2,2.82,2.82,0,0,0,.24,1.2,1.92,1.92,0,0,0,.68.81,1.73,1.73,0,0,0,1,.29,1.37,1.37,0,0,0,1.23-.66v.56Zm-7.33-3.55a1.19,1.19,0,0,1,.87-.34,1.15,1.15,0,0,1,.93.43,1.5,1.5,0,0,1,.28.83h-2.46a1.36,1.36,0,0,1,.39-.92m1.6,2.82a1.15,1.15,0,0,1-.7.21,1.22,1.22,0,0,1-.92-.39,1.7,1.7,0,0,1-.41-1.11H189c0-.09,0-.16,0-.2a2.39,2.39,0,0,0-.56-1.69,1.88,1.88,0,0,0-1.44-.6,1.94,1.94,0,0,0-1.49.61A2.43,2.43,0,0,0,185,66a2.33,2.33,0,0,0,.57,1.67,2,2,0,0,0,1.53.6,2,2,0,0,0,1.26-.37,1.88,1.88,0,0,0,.68-1.05l-.77-.1a1.44,1.44,0,0,1-.46.69m-3.62.09a.49.49,0,0,1-.25-.05.31.31,0,0,1-.13-.15,1.31,1.31,0,0,1,0-.41V64.37h.75v-.58h-.75V62.25l-.74.45v1.09h-.55v.58H183v2.54a2.67,2.67,0,0,0,.09.88.72.72,0,0,0,.32.34,1.28,1.28,0,0,0,.63.13,2.8,2.8,0,0,0,.57-.07l-.11-.66-.33,0m-3.39.64V65.89a2.91,2.91,0,0,1,.12-.87.8.8,0,0,1,.28-.41.71.71,0,0,1,.44-.15,1.07,1.07,0,0,1,.55.16l.26-.69a1.46,1.46,0,0,0-.77-.24.83.83,0,0,0-.48.15,1.84,1.84,0,0,0-.47.62v-.67H180V68.2Zm-2.65-1.94A1.81,1.81,0,0,1,178,67a1.16,1.16,0,0,1-.49.52,1.54,1.54,0,0,1-.77.19,1,1,0,0,1-.66-.2.66.66,0,0,1-.12-.85.66.66,0,0,1,.29-.24,2.82,2.82,0,0,1,.65-.15A5.45,5.45,0,0,0,178.1,66Zm.21,1.94h.78a1.65,1.65,0,0,1-.19-.53,10.51,10.51,0,0,1,0-1.32v-1a4.2,4.2,0,0,0,0-.69,1.18,1.18,0,0,0-.23-.51,1.2,1.2,0,0,0-.52-.34,2.66,2.66,0,0,0-.92-.13,3,3,0,0,0-1,.15,1.44,1.44,0,0,0-.66.44,1.82,1.82,0,0,0-.33.76l.73.1a1.13,1.13,0,0,1,.37-.65,1.32,1.32,0,0,1,.78-.18,1.25,1.25,0,0,1,.85.25.83.83,0,0,1,.21.64s0,.09,0,.19a6.88,6.88,0,0,1-1.33.26,5.31,5.31,0,0,0-.66.11,1.8,1.8,0,0,0-.54.24,1.23,1.23,0,0,0-.53,1,1.17,1.17,0,0,0,.39.91,1.6,1.6,0,0,0,1.12.35,2.31,2.31,0,0,0,.82-.15,2.75,2.75,0,0,0,.8-.5,1.59,1.59,0,0,0,.15.54m-4.08-.64a.5.5,0,0,1-.25-.05.32.32,0,0,1-.13-.15,1.32,1.32,0,0,1,0-.41V64.37h.75v-.58h-.75V62.25l-.74.45v1.09h-.55v.58h.55v2.54a2.67,2.67,0,0,0,.09.88.71.71,0,0,0,.32.34,1.27,1.27,0,0,0,.63.13,2.78,2.78,0,0,0,.56-.07l-.11-.66-.33,0m-5.28.38a2.07,2.07,0,0,0,1.31.36,2.29,2.29,0,0,0,.93-.18,1.4,1.4,0,0,0,.63-.51,1.26,1.26,0,0,0,.22-.7,1.1,1.1,0,0,0-.18-.64,1.12,1.12,0,0,0-.49-.39,9.16,9.16,0,0,0-1.11-.35l-.66-.19a.66.66,0,0,1-.29-.2.41.41,0,0,1-.09-.26.5.5,0,0,1,.22-.4,1.22,1.22,0,0,1,.74-.17,1.06,1.06,0,0,1,.67.19.8.8,0,0,1,.29.53l.73-.1a1.59,1.59,0,0,0-.26-.68,1.25,1.25,0,0,0-.58-.4,2.55,2.55,0,0,0-.91-.15,2.25,2.25,0,0,0-.65.09A1.53,1.53,0,0,0,169,64a1.22,1.22,0,0,0-.37.42,1.13,1.13,0,0,0-.13.55,1.09,1.09,0,0,0,.64,1,7,7,0,0,0,1.14.36,3.29,3.29,0,0,1,.76.25.45.45,0,0,1,.22.4.63.63,0,0,1-.25.49,1.17,1.17,0,0,1-.76.21,1.21,1.21,0,0,1-.79-.24,1,1,0,0,1-.35-.68l-.74.12a1.66,1.66,0,0,0,.57,1.06m-3.7-.38a.49.49,0,0,1-.26-.05.31.31,0,0,1-.13-.15,1.32,1.32,0,0,1,0-.41V64.37h.75v-.58h-.75V62.25l-.74.45v1.09h-.55v.58h.55v2.54a2.67,2.67,0,0,0,.09.88.71.71,0,0,0,.32.34,1.27,1.27,0,0,0,.63.13,2.78,2.78,0,0,0,.56-.07l-.11-.66-.33,0m-5.08-2.91a1.19,1.19,0,0,1,.87-.34,1.14,1.14,0,0,1,.93.43,1.49,1.49,0,0,1,.28.83h-2.46a1.36,1.36,0,0,1,.39-.92m1.6,2.82a1.15,1.15,0,0,1-.7.21,1.22,1.22,0,0,1-.92-.39,1.69,1.69,0,0,1-.41-1.11H163c0-.09,0-.16,0-.2a2.4,2.4,0,0,0-.56-1.69,1.89,1.89,0,0,0-1.45-.6,1.94,1.94,0,0,0-1.49.61A2.44,2.44,0,0,0,159,66a2.33,2.33,0,0,0,.57,1.67,2.29,2.29,0,0,0,2.79.22,1.88,1.88,0,0,0,.68-1.05l-.77-.1a1.43,1.43,0,0,1-.46.69m-6.45-2.75a1.08,1.08,0,0,1,.85-.4,1.11,1.11,0,0,1,.87.41,1.81,1.81,0,0,1,.36,1.22,1.85,1.85,0,0,1-.35,1.24,1.14,1.14,0,0,1-1.73,0,1.91,1.91,0,0,1-.34-1.27,1.8,1.8,0,0,1,.35-1.2m-.5,4.92a2.11,2.11,0,0,0,1.28.35,2.3,2.3,0,0,0,1.12-.25,1.53,1.53,0,0,0,.66-.68,3.6,3.6,0,0,0,.21-1.46V63.79h-.69v.53a1.58,1.58,0,0,0-1.29-.63,1.79,1.79,0,0,0-1,.29,1.83,1.83,0,0,0-.66.82,2.93,2.93,0,0,0-.23,1.16,2.52,2.52,0,0,0,.5,1.57,1.66,1.66,0,0,0,1.41.66,1.53,1.53,0,0,0,1.22-.58,4.73,4.73,0,0,1-.05,1,1,1,0,0,1-.38.58,1.34,1.34,0,0,1-.8.21,1.24,1.24,0,0,1-.76-.21.69.69,0,0,1-.25-.49l-.73-.11a1.2,1.2,0,0,0,.47,1.07m-6.56-4.9a1.23,1.23,0,0,1,1.85,0,1.83,1.83,0,0,1,.37,1.24,1.92,1.92,0,0,1-.37,1.29,1.23,1.23,0,0,1-1.85,0,2.35,2.35,0,0,1,0-2.53m-.57,3a2,2,0,0,0,1.5.59,2.16,2.16,0,0,0,1.07-.27,1.8,1.8,0,0,0,.74-.76,2.92,2.92,0,0,0,.25-1.34,2.27,2.27,0,0,0-.58-1.65,2,2,0,0,0-1.49-.6,2.05,2.05,0,0,0-1.39.49,2.27,2.27,0,0,0-.68,1.81,2.37,2.37,0,0,0,.57,1.71m-1.35-.15a.49.49,0,0,1-.26-.05.31.31,0,0,1-.13-.15,1.32,1.32,0,0,1,0-.41V64.37h.75v-.58h-.75V62.25l-.74.45v1.09h-.55v.58h.55v2.54a2.67,2.67,0,0,0,.09.88.71.71,0,0,0,.32.34,1.27,1.27,0,0,0,.63.13,2.78,2.78,0,0,0,.56-.07l-.11-.66-.33,0m-8.07.37a2.45,2.45,0,0,0,1.43.37,2.24,2.24,0,0,0,1.5-.44,1.33,1.33,0,0,0,.51-1,1.08,1.08,0,0,0-.37-.87,3.24,3.24,0,0,0-1.3-.52,4.4,4.4,0,0,1-1.09-.33.26.26,0,0,1-.12-.21.27.27,0,0,1,.13-.24,1.27,1.27,0,0,1,.66-.13,1,1,0,0,1,.56.14.68.68,0,0,1,.27.39l1.1-.2A1.51,1.51,0,0,0,141,64a2.45,2.45,0,0,0-1.35-.29,2.11,2.11,0,0,0-1.4.39,1.22,1.22,0,0,0-.45,1,1.14,1.14,0,0,0,.52,1,6.3,6.3,0,0,0,1.79.57.93.93,0,0,1,.39.15.31.31,0,0,1,.08.22.37.37,0,0,1-.15.31,1.15,1.15,0,0,1-.68.17,1,1,0,0,1-.64-.18.86.86,0,0,1-.3-.52l-1.17.18a1.68,1.68,0,0,0,.69,1m-4.73,0a2.45,2.45,0,0,0,1.43.37,2.25,2.25,0,0,0,1.5-.44,1.33,1.33,0,0,0,.51-1,1.08,1.08,0,0,0-.36-.87,3.24,3.24,0,0,0-1.3-.52,4.38,4.38,0,0,1-1.09-.33.26.26,0,0,1-.12-.21.27.27,0,0,1,.13-.24,1.26,1.26,0,0,1,.66-.13,1,1,0,0,1,.56.14.68.68,0,0,1,.27.39l1.1-.2a1.5,1.5,0,0,0-.6-.87,2.46,2.46,0,0,0-1.35-.29,2.11,2.11,0,0,0-1.4.39,1.22,1.22,0,0,0-.45,1,1.14,1.14,0,0,0,.52,1,6.29,6.29,0,0,0,1.79.57.93.93,0,0,1,.39.15.3.3,0,0,1,.08.22.37.37,0,0,1-.15.31,1.15,1.15,0,0,1-.68.17,1,1,0,0,1-.64-.18.86.86,0,0,1-.3-.52l-1.17.18a1.68,1.68,0,0,0,.69,1m-4.13-2.32a1.07,1.07,0,0,1,.25-.76.81.81,0,0,1,.63-.28.8.8,0,0,1,.61.26,1.12,1.12,0,0,1,.26.77Zm1.4,1.66a.72.72,0,0,1-.46.15.88.88,0,0,1-.67-.29,1.19,1.19,0,0,1-.28-.81h2.92a2.87,2.87,0,0,0-.54-2,2,2,0,0,0-1.55-.65,1.89,1.89,0,0,0-1.45.62,2.43,2.43,0,0,0-.57,1.72,2.52,2.52,0,0,0,.44,1.52,2,2,0,0,0,1.7.75,2.08,2.08,0,0,0,1.21-.33,1.91,1.91,0,0,0,.71-1l-1.16-.2a.93.93,0,0,1-.28.48m-3.47-5.16h-1.17V68.2h1.17ZM124,66.84a6.92,6.92,0,0,1,.1-1.48.92.92,0,0,1,.27-.49.65.65,0,0,1,.42-.13,1,1,0,0,1,.55.19l.36-1a1.48,1.48,0,0,0-.77-.22.92.92,0,0,0-.51.14,1.89,1.89,0,0,0-.5.59v-.63h-1.08V68.2H124Zm-5-1.22a1.08,1.08,0,0,1,.24-.76.81.81,0,0,1,.63-.28.8.8,0,0,1,.61.26,1.12,1.12,0,0,1,.26.77Zm1.39,1.66a.72.72,0,0,1-.46.15.88.88,0,0,1-.67-.29,1.18,1.18,0,0,1-.28-.81h2.92a2.87,2.87,0,0,0-.54-2,2,2,0,0,0-1.55-.65,1.89,1.89,0,0,0-1.45.62,2.43,2.43,0,0,0-.57,1.72,2.53,2.53,0,0,0,.44,1.52,2,2,0,0,0,1.7.75,2.09,2.09,0,0,0,1.21-.33,1.91,1.91,0,0,0,.71-1l-1.16-.2a.93.93,0,0,1-.28.48m-6.06-2.34a.9.9,0,0,1,.71-.33.86.86,0,0,1,.69.34,1.6,1.6,0,0,1,.28,1,1.68,1.68,0,0,1-.27,1.07.84.84,0,0,1-.68.33.9.9,0,0,1-.72-.36,1.69,1.69,0,0,1-.3-1.1,1.47,1.47,0,0,1,.28-1m-1.44,4.93h1.17V67.66a2.21,2.21,0,0,0,.63.5,1.49,1.49,0,0,0,.66.15,1.68,1.68,0,0,0,1.31-.61,2.51,2.51,0,0,0,.54-1.72,2.44,2.44,0,0,0-.54-1.68,1.68,1.68,0,0,0-1.3-.6,1.58,1.58,0,0,0-.8.21,1.63,1.63,0,0,0-.57.54v-.65h-1.09Zm-2.26-3.56a2.33,2.33,0,0,1,0,.57.73.73,0,0,1-.28.39,1,1,0,0,1-.6.21.64.64,0,0,1-.47-.18.57.57,0,0,1-.18-.42.49.49,0,0,1,.23-.41,2.14,2.14,0,0,1,.63-.2,7.14,7.14,0,0,0,.71-.18Zm-1.28-1.61a.84.84,0,0,1,.49-.12,1,1,0,0,1,.63.14.6.6,0,0,1,.17.48v.12a6.37,6.37,0,0,1-1.13.29,3.91,3.91,0,0,0-.93.27,1.17,1.17,0,0,0-.5.45,1.25,1.25,0,0,0-.18.67,1.23,1.23,0,0,0,.39.93,1.5,1.5,0,0,0,1.07.37,1.83,1.83,0,0,0,.73-.15,2.11,2.11,0,0,0,.64-.43l0,.14c0,.15.08.27.11.34h1.15a2.54,2.54,0,0,1-.21-.59,4.76,4.76,0,0,1-.06-.86V65.39a2.4,2.4,0,0,0-.16-1,1.17,1.17,0,0,0-.54-.47,2.8,2.8,0,0,0-1.16-.18,2.24,2.24,0,0,0-1.29.31,1.65,1.65,0,0,0-.61.95l1.06.19a.85.85,0,0,1,.28-.43m-4.94.24a.9.9,0,0,1,.71-.33.86.86,0,0,1,.69.34,1.6,1.6,0,0,1,.28,1,1.68,1.68,0,0,1-.27,1.07.84.84,0,0,1-.68.33.9.9,0,0,1-.72-.36,1.7,1.7,0,0,1-.29-1.1,1.47,1.47,0,0,1,.28-1M103,69.88h1.17V67.66a2.21,2.21,0,0,0,.63.5,1.48,1.48,0,0,0,.66.15,1.68,1.68,0,0,0,1.31-.61,2.51,2.51,0,0,0,.54-1.72,2.44,2.44,0,0,0-.54-1.68,1.68,1.68,0,0,0-1.3-.6,1.58,1.58,0,0,0-.8.21,1.63,1.63,0,0,0-.57.54v-.65H103ZM99.09,65a1,1,0,0,1,1.53,0,1.45,1.45,0,0,1,.31,1,1.48,1.48,0,0,1-.31,1,1,1,0,0,1-1.53,0,1.77,1.77,0,0,1,0-2m-1.22,2.23a1.89,1.89,0,0,0,.84.8,2.57,2.57,0,0,0,1.16.27,2.18,2.18,0,0,0,1.63-.66,2.27,2.27,0,0,0,.65-1.66,2.24,2.24,0,0,0-.64-1.64,2.2,2.2,0,0,0-1.64-.65,2.41,2.41,0,0,0-1.17.29,2,2,0,0,0-.81.83,2.4,2.4,0,0,0-.29,1.13,2.69,2.69,0,0,0,.29,1.29m-4-2.31a.86.86,0,0,1,.69-.33.9.9,0,0,1,.71.33,1.54,1.54,0,0,1,.28,1,1.46,1.46,0,0,1-.29,1,.93.93,0,0,1-.72.33.84.84,0,0,1-.67-.33,1.59,1.59,0,0,1-.27-1,1.53,1.53,0,0,1,.27-1m-1.32,3.72a1.2,1.2,0,0,0,.47,1,2.54,2.54,0,0,0,1.59.38,3.27,3.27,0,0,0,1-.12,1.6,1.6,0,0,0,.62-.34,1.44,1.44,0,0,0,.36-.61,3.93,3.93,0,0,0,.13-1.17v-4H95.61v.62a1.61,1.61,0,0,0-1.35-.72,1.72,1.72,0,0,0-1.33.58A2.43,2.43,0,0,0,92.4,66a2.56,2.56,0,0,0,.41,1.48,1.62,1.62,0,0,0,1.41.75,1.58,1.58,0,0,0,1.32-.71v.64a1.78,1.78,0,0,1-.05.54.57.57,0,0,1-.23.29,1.36,1.36,0,0,1-.68.14A.88.88,0,0,1,94,69a.45.45,0,0,1-.15-.32l-1.33-.16c0,.06,0,.1,0,.14m-2-.33L92.06,62h-.88L89.68,68.3Zm-7.88-.1h1.17V66.06a3.12,3.12,0,0,1,.09-.91.8.8,0,0,1,.31-.42.85.85,0,0,1,.49-.15.61.61,0,0,1,.35.09.52.52,0,0,1,.19.28,3.32,3.32,0,0,1,.06.83V68.2h1.17V66.08a3.18,3.18,0,0,1,.1-.91.83.83,0,0,1,.31-.44.8.8,0,0,1,.46-.15.55.55,0,0,1,.5.25,1.86,1.86,0,0,1,.12.85V68.2h1.17V65.38a2.52,2.52,0,0,0-.12-.91,1.2,1.2,0,0,0-.5-.58,1.59,1.59,0,0,0-.82-.2,1.54,1.54,0,0,0-.72.17,2,2,0,0,0-.63.53,1.34,1.34,0,0,0-.51-.53,1.48,1.48,0,0,0-.73-.17,1.73,1.73,0,0,0-1.37.7v-.6H82.65ZM78.79,65a1,1,0,0,1,1.53,0,1.45,1.45,0,0,1,.31,1,1.48,1.48,0,0,1-.31,1,1,1,0,0,1-1.53,0,1.78,1.78,0,0,1,0-2m-1.22,2.23a1.88,1.88,0,0,0,.84.8,2.57,2.57,0,0,0,1.16.27,2.18,2.18,0,0,0,1.63-.66A2.27,2.27,0,0,0,81.83,66a2.24,2.24,0,0,0-.64-1.64,2.2,2.2,0,0,0-1.64-.65,2.41,2.41,0,0,0-1.17.29,2,2,0,0,0-.81.83,2.39,2.39,0,0,0-.29,1.13,2.68,2.68,0,0,0,.29,1.29M76,64a2.13,2.13,0,0,0-1.28-.35,2,2,0,0,0-1.56.61,2.78,2.78,0,0,0,0,3.39,2,2,0,0,0,1.54.61A2.12,2.12,0,0,0,76,67.9a2,2,0,0,0,.68-1.19l-1.14-.2a1.13,1.13,0,0,1-.3.65.79.79,0,0,1-.54.19A.86.86,0,0,1,74,67a1.78,1.78,0,0,1-.26-1.11,1.54,1.54,0,0,1,.26-1,.87.87,0,0,1,.7-.3.8.8,0,0,1,.53.17.83.83,0,0,1,.26.52l1.15-.21A1.92,1.92,0,0,0,76,64m-4.36,3H70.46V68.2h1.17ZM66.5,65A1,1,0,0,1,68,65a1.45,1.45,0,0,1,.31,1A1.48,1.48,0,0,1,68,67a1,1,0,0,1-1.53,0,1.78,1.78,0,0,1,0-2m-1.22,2.23a1.88,1.88,0,0,0,.84.8,2.57,2.57,0,0,0,1.16.27,2.18,2.18,0,0,0,1.63-.66A2.27,2.27,0,0,0,69.55,66a2.24,2.24,0,0,0-.64-1.64,2.2,2.2,0,0,0-1.64-.65A2.41,2.41,0,0,0,66.1,64a2,2,0,0,0-.81.83A2.39,2.39,0,0,0,65,65.93a2.68,2.68,0,0,0,.29,1.29m-2.21-.38a6.94,6.94,0,0,1,.1-1.48.92.92,0,0,1,.27-.49.65.65,0,0,1,.42-.13,1,1,0,0,1,.55.19l.36-1a1.48,1.48,0,0,0-.77-.22.92.92,0,0,0-.5.14,1.88,1.88,0,0,0-.5.59v-.63H61.91V68.2h1.17ZM58,64.91a.9.9,0,0,1,1.4,0A1.73,1.73,0,0,1,59.65,66a1.58,1.58,0,0,1-.28,1,.86.86,0,0,1-.68.34.88.88,0,0,1-.79-.46,2,2,0,0,1-.19-1,1.49,1.49,0,0,1,.28-1m2.83-2.8H59.64v2.19a1.65,1.65,0,0,0-1.28-.61,1.72,1.72,0,0,0-1.33.58,2.46,2.46,0,0,0-.53,1.7A2.49,2.49,0,0,0,57,67.69a1.68,1.68,0,0,0,1.3.61,1.64,1.64,0,0,0,.74-.18,1.76,1.76,0,0,0,.64-.56v.65h1.08Zm-7.64,6.1a1.66,1.66,0,0,1-.3.61.73.73,0,0,1-.6.24,2.58,2.58,0,0,1-.49-.05l.1.91a3.09,3.09,0,0,0,.66.07,2.3,2.3,0,0,0,.6-.07,1.4,1.4,0,0,0,.44-.2,1.26,1.26,0,0,0,.32-.33,3.13,3.13,0,0,0,.29-.59l.28-.77L56,63.79H54.81l-1,3.13-1.05-3.13H51.49Zm-6.32-6.1V68.2H48V66a2.52,2.52,0,0,1,.11-.84.81.81,0,0,1,.33-.43,1,1,0,0,1,.52-.14.76.76,0,0,1,.42.11.57.57,0,0,1,.23.3,3.4,3.4,0,0,1,.07.88V68.2h1.17V65.61a4.61,4.61,0,0,0-.06-.87,1.38,1.38,0,0,0-.22-.51,1.19,1.19,0,0,0-.49-.38,1.75,1.75,0,0,0-2.08.51V62.12ZM45.28,64A2.13,2.13,0,0,0,44,63.69a2,2,0,0,0-1.56.61,2.78,2.78,0,0,0,0,3.39A2,2,0,0,0,44,68.3a2.12,2.12,0,0,0,1.36-.4A2,2,0,0,0,46,66.71l-1.15-.2a1.13,1.13,0,0,1-.3.65.78.78,0,0,1-.54.19.87.87,0,0,1-.71-.32,1.78,1.78,0,0,1-.26-1.11,1.54,1.54,0,0,1,.26-1,.87.87,0,0,1,.69-.3.79.79,0,0,1,.53.17.83.83,0,0,1,.26.52L46,65.1A1.92,1.92,0,0,0,45.28,64m-7,.87a.88.88,0,0,1,.7-.33.86.86,0,0,1,.7.33A1.72,1.72,0,0,1,40,66a1.62,1.62,0,0,1-.27,1,.82.82,0,0,1-.66.33.92.92,0,0,1-.81-.46,1.87,1.87,0,0,1-.22-1,1.49,1.49,0,0,1,.28-1M38,68.2v-.65a1.78,1.78,0,0,0,.63.56,1.61,1.61,0,0,0,.74.19,1.68,1.68,0,0,0,1.31-.61,2.55,2.55,0,0,0,.54-1.74,2.41,2.41,0,0,0-.53-1.67,1.72,1.72,0,0,0-1.33-.58,1.65,1.65,0,0,0-1.28.61V62.12H36.88V68.2Zm-4.5-.64a.5.5,0,0,1-.26-.05.31.31,0,0,1-.13-.15A1.28,1.28,0,0,1,33,67V64.37h.75v-.58H33V62.25l-.74.45v1.09h-.55v.58h.55v2.54a2.66,2.66,0,0,0,.09.88.71.71,0,0,0,.31.34,1.27,1.27,0,0,0,.63.13,2.78,2.78,0,0,0,.56-.07l-.11-.66-.33,0M31,63.79h-.75V68.2H31Zm0-1.68h-.75V63H31Zm-4.73,5.83a2.07,2.07,0,0,0,1.31.36,2.3,2.3,0,0,0,.93-.18,1.4,1.4,0,0,0,.63-.51,1.26,1.26,0,0,0,.22-.7,1.1,1.1,0,0,0-.18-.64,1.12,1.12,0,0,0-.49-.39,9.1,9.1,0,0,0-1.11-.35l-.66-.19a.66.66,0,0,1-.29-.2.41.41,0,0,1-.09-.26.5.5,0,0,1,.22-.4,1.22,1.22,0,0,1,.73-.17,1.06,1.06,0,0,1,.68.19.8.8,0,0,1,.29.53l.73-.1a1.58,1.58,0,0,0-.26-.68,1.24,1.24,0,0,0-.58-.4,2.54,2.54,0,0,0-.91-.15,2.24,2.24,0,0,0-.65.09,1.52,1.52,0,0,0-.48.22,1.22,1.22,0,0,0-.37.42,1.14,1.14,0,0,0-.13.55,1.09,1.09,0,0,0,.65,1,6.93,6.93,0,0,0,1.14.36,3.29,3.29,0,0,1,.76.25.45.45,0,0,1,.22.4.63.63,0,0,1-.25.49,1.17,1.17,0,0,1-.76.21,1.21,1.21,0,0,1-.8-.24,1,1,0,0,1-.35-.68l-.74.12a1.66,1.66,0,0,0,.57,1.06m-1.41-4.15h-.75V68.2h.75Zm0-1.68h-.75V63h.75ZM21.27,68.2l2.38-6.08h-.82l-1.64,4.42q-.19.5-.33,1-.13-.46-.32-1L19,62.12h-.87l2.36,6.08Z"/><path class="cls-6" d="M215.76,50.1h-.85V51h.85Zm-5,.59A2.07,2.07,0,0,0,212,51a2.3,2.3,0,0,0,.93-.18,1.41,1.41,0,0,0,.63-.51,1.26,1.26,0,0,0,.22-.7,1.1,1.1,0,0,0-.18-.64,1.13,1.13,0,0,0-.49-.39,9.15,9.15,0,0,0-1.11-.35l-.66-.19a.66.66,0,0,1-.29-.2.41.41,0,0,1-.09-.26.49.49,0,0,1,.22-.4,1.21,1.21,0,0,1,.73-.17,1.06,1.06,0,0,1,.68.19.8.8,0,0,1,.29.53l.73-.1a1.57,1.57,0,0,0-.26-.68,1.23,1.23,0,0,0-.58-.4,2.54,2.54,0,0,0-.91-.15,2.28,2.28,0,0,0-.65.09,1.56,1.56,0,0,0-.47.22,1.22,1.22,0,0,0-.37.42,1.15,1.15,0,0,0-.13.55,1.09,1.09,0,0,0,.64,1,7,7,0,0,0,1.14.36,3.24,3.24,0,0,1,.76.25.45.45,0,0,1,.22.4.62.62,0,0,1-.25.49,1.17,1.17,0,0,1-.76.21,1.21,1.21,0,0,1-.79-.24,1,1,0,0,1-.35-.68l-.74.12a1.66,1.66,0,0,0,.57,1.06m-1.43-5.83h-.75v6.08h.75Zm-1.87,1.68h-.75V51h.75Zm0-1.68h-.75v.86h.75ZM204.76,49a1.79,1.79,0,0,1-.12.75,1.16,1.16,0,0,1-.49.52,1.54,1.54,0,0,1-.77.19,1,1,0,0,1-.66-.2.66.66,0,0,1-.12-.85.65.65,0,0,1,.29-.24,2.82,2.82,0,0,1,.65-.15,5.48,5.48,0,0,0,1.22-.28Zm.21,1.94h.78a1.66,1.66,0,0,1-.19-.53,10.51,10.51,0,0,1,0-1.32v-1a4.21,4.21,0,0,0,0-.69,1.18,1.18,0,0,0-.23-.51,1.21,1.21,0,0,0-.52-.33,2.64,2.64,0,0,0-.92-.13,2.94,2.94,0,0,0-1,.16,1.44,1.44,0,0,0-.66.44,1.82,1.82,0,0,0-.33.76l.73.1a1.13,1.13,0,0,1,.37-.65,1.32,1.32,0,0,1,.78-.18,1.25,1.25,0,0,1,.85.25.82.82,0,0,1,.21.64s0,.09,0,.19a6.73,6.73,0,0,1-1.33.26,5.5,5.5,0,0,0-.66.11,1.83,1.83,0,0,0-.54.24,1.23,1.23,0,0,0-.53,1,1.17,1.17,0,0,0,.39.91,1.6,1.6,0,0,0,1.12.35,2.31,2.31,0,0,0,.82-.15,2.79,2.79,0,0,0,.8-.5,1.58,1.58,0,0,0,.15.54m-9.36,0V48.66a2.71,2.71,0,0,1,.12-.92.93.93,0,0,1,.39-.49,1.08,1.08,0,0,1,.58-.17.69.69,0,0,1,.6.25,1.26,1.26,0,0,1,.18.75v2.86h.75V48.39a1.36,1.36,0,0,1,.31-1,1,1,0,0,1,.77-.31.83.83,0,0,1,.45.12.62.62,0,0,1,.26.32,2.06,2.06,0,0,1,.07.65v2.78h.74v-3a1.55,1.55,0,0,0-.35-1.12,1.34,1.34,0,0,0-1-.36,1.58,1.58,0,0,0-1.36.77,1.09,1.09,0,0,0-.44-.57,1.45,1.45,0,0,0-.8-.2,1.56,1.56,0,0,0-.79.2,1.59,1.59,0,0,0-.55.52v-.62h-.67v4.41Zm-4.52-3.55a1.19,1.19,0,0,1,.87-.35,1.14,1.14,0,0,1,.93.43,1.5,1.5,0,0,1,.28.83H190.7a1.37,1.37,0,0,1,.39-.92m1.6,2.82a1.14,1.14,0,0,1-.7.22,1.22,1.22,0,0,1-.92-.39,1.69,1.69,0,0,1-.41-1.11H194c0-.09,0-.15,0-.2a2.39,2.39,0,0,0-.56-1.69,1.89,1.89,0,0,0-1.45-.6,1.94,1.94,0,0,0-1.49.61,2.44,2.44,0,0,0-.57,1.73,2.33,2.33,0,0,0,.57,1.67,2.3,2.3,0,0,0,2.8.22,1.88,1.88,0,0,0,.68-1.05l-.77-.1a1.44,1.44,0,0,1-.46.69m-8.9.73V48.54a1.49,1.49,0,0,1,.35-1.15,1.21,1.21,0,0,1,.82-.3,1,1,0,0,1,.52.13.73.73,0,0,1,.31.36,2,2,0,0,1,.09.68v2.68h.75V48.24a4.22,4.22,0,0,0,0-.73,1.43,1.43,0,0,0-.23-.55,1.16,1.16,0,0,0-.5-.38,1.85,1.85,0,0,0-.73-.14,1.59,1.59,0,0,0-1.4.73v-.63h-.67v4.41Zm-4.61-3.47a1.23,1.23,0,0,1,1.85,0,1.82,1.82,0,0,1,.37,1.24A1.92,1.92,0,0,1,181,50a1.23,1.23,0,0,1-1.85,0,2.35,2.35,0,0,1,0-2.53m-.57,3a2,2,0,0,0,1.5.59,2.16,2.16,0,0,0,1.06-.27,1.81,1.81,0,0,0,.74-.76,2.92,2.92,0,0,0,.25-1.34A2.26,2.26,0,0,0,181.6,47a2,2,0,0,0-1.49-.6,2,2,0,0,0-1.39.49,2.27,2.27,0,0,0-.68,1.81,2.37,2.37,0,0,0,.57,1.71m-1.43-3.91h-.75V51h.75Zm0-1.68h-.75v.86h.75Zm-1.81,5.45a.49.49,0,0,1-.26-.05.31.31,0,0,1-.13-.15,1.32,1.32,0,0,1,0-.41V47.12h.75v-.58H175V45l-.74.45v1.09h-.55v.58h.55v2.54a2.68,2.68,0,0,0,.09.88.73.73,0,0,0,.32.34,1.28,1.28,0,0,0,.63.13,2.8,2.8,0,0,0,.56-.07l-.11-.66-.33,0M172.16,49a1.8,1.8,0,0,1-.12.75,1.16,1.16,0,0,1-.49.52,1.54,1.54,0,0,1-.77.19,1,1,0,0,1-.66-.2.65.65,0,0,1,.17-1.1,2.82,2.82,0,0,1,.65-.15,5.48,5.48,0,0,0,1.22-.28Zm.21,1.94h.78a1.64,1.64,0,0,1-.19-.53,10.51,10.51,0,0,1,0-1.32v-1a4.18,4.18,0,0,0,0-.69,1.17,1.17,0,0,0-.23-.51,1.22,1.22,0,0,0-.52-.33,2.64,2.64,0,0,0-.92-.13,2.93,2.93,0,0,0-1,.16,1.44,1.44,0,0,0-.66.44,1.81,1.81,0,0,0-.33.76l.73.1a1.13,1.13,0,0,1,.37-.65,1.32,1.32,0,0,1,.78-.18,1.25,1.25,0,0,1,.85.25.82.82,0,0,1,.21.64s0,.09,0,.19a6.73,6.73,0,0,1-1.33.26,5.5,5.5,0,0,0-.66.11,1.83,1.83,0,0,0-.54.24,1.23,1.23,0,0,0-.53,1,1.17,1.17,0,0,0,.39.91,1.6,1.6,0,0,0,1.12.35,2.31,2.31,0,0,0,.82-.15,2.79,2.79,0,0,0,.8-.5,1.58,1.58,0,0,0,.15.54m-4.77-.78a1,1,0,0,1-.73.27A1.11,1.11,0,0,1,166,50a2,2,0,0,1-.34-1.29,1.92,1.92,0,0,1,.35-1.28,1.16,1.16,0,0,1,.92-.4,1,1,0,0,1,.64.22,1.2,1.2,0,0,1,.37.67l.73-.11a1.67,1.67,0,0,0-.59-1,1.83,1.83,0,0,0-1.17-.36,2.13,2.13,0,0,0-1.05.27,1.64,1.64,0,0,0-.72.8,3.06,3.06,0,0,0-.24,1.25,2.4,2.4,0,0,0,.55,1.7,1.89,1.89,0,0,0,1.46.59,1.8,1.8,0,0,0,1.22-.43,1.9,1.9,0,0,0,.62-1.19l-.73-.1a1.34,1.34,0,0,1-.37.83M164,46.54h-.75V51H164Zm0-1.68h-.75v.86H164Zm-2.17,6.08V47.12h.85v-.58h-.85v-.29a1,1,0,0,1,.14-.65.7.7,0,0,1,.53-.15,2.42,2.42,0,0,1,.4,0l.12-.63a2.86,2.86,0,0,0-.76-.1,1.08,1.08,0,0,0-.89.35,1.56,1.56,0,0,0-.28,1v.43h-.66v.58H161v3.83Zm-2.08-4.41H159V51h.75Zm0-1.68H159v.86h.75Zm-1.81,5.45a.5.5,0,0,1-.26-.05.31.31,0,0,1-.13-.15,1.28,1.28,0,0,1,0-.41V47.12h.75v-.58h-.75V45l-.74.45v1.09h-.55v.58h.55v2.54a2.67,2.67,0,0,0,.09.88.73.73,0,0,0,.32.34,1.28,1.28,0,0,0,.63.13,2.79,2.79,0,0,0,.56-.07l-.11-.66-.33,0m-5.17-2.83a1.23,1.23,0,0,1,1.85,0,1.82,1.82,0,0,1,.37,1.24,1.92,1.92,0,0,1-.37,1.29,1.23,1.23,0,0,1-1.86,0,2.36,2.36,0,0,1,0-2.53m-.57,3a2,2,0,0,0,1.5.59,2.16,2.16,0,0,0,1.07-.27,1.8,1.8,0,0,0,.74-.76,2.9,2.9,0,0,0,.26-1.34,2.27,2.27,0,0,0-.58-1.65,2,2,0,0,0-1.49-.6,2,2,0,0,0-1.39.49,2.27,2.27,0,0,0-.68,1.81,2.37,2.37,0,0,0,.57,1.71m-4.27.49V48.54a1.49,1.49,0,0,1,.35-1.15,1.21,1.21,0,0,1,.82-.3,1,1,0,0,1,.52.13.72.72,0,0,1,.31.36,2,2,0,0,1,.09.68v2.68h.75V48.24a4.22,4.22,0,0,0,0-.73,1.45,1.45,0,0,0-.23-.55,1.16,1.16,0,0,0-.5-.38,1.85,1.85,0,0,0-.73-.14,1.59,1.59,0,0,0-1.4.73v-.63h-.67v4.41Zm-4.27-6.08h-.75v6.08h.75Zm-1.89,0H141v6.08h.75Zm-1.87,1.68h-.75V51h.75Zm0-1.68h-.75v.86h.75Zm-4.44,2.62a1.07,1.07,0,0,1,.85-.43,1,1,0,0,1,.83.41,2,2,0,0,1,.34,1.27,1.93,1.93,0,0,1-.36,1.27,1.07,1.07,0,0,1-1.8-.15,2.29,2.29,0,0,1-.22-1.15,1.87,1.87,0,0,1,.36-1.23m-.35,2.92a1.4,1.4,0,0,0,1.22.65,1.75,1.75,0,0,0,1.35-.62,2.52,2.52,0,0,0,.56-1.75,2.93,2.93,0,0,0-.13-.9,2.22,2.22,0,0,0-.37-.72,1.57,1.57,0,0,0-.6-.46,1.85,1.85,0,0,0-.77-.16,1.48,1.48,0,0,0-1.21.59V44.87h-.75v6.08h.69Zm-6.95-2.93a1,1,0,0,1,.83-.41,1.07,1.07,0,0,1,.86.42,2.07,2.07,0,0,1,.35,1.33,1.84,1.84,0,0,1-.34,1.22,1.06,1.06,0,0,1-.83.4,1.08,1.08,0,0,1-.84-.42,1.92,1.92,0,0,1-.36-1.27,2,2,0,0,1,.33-1.28m2.72,3.48V44.87h-.74V47a1.47,1.47,0,0,0-1.22-.61,1.76,1.76,0,0,0-1,.29,1.73,1.73,0,0,0-.66.82,3.13,3.13,0,0,0-.22,1.2,2.8,2.8,0,0,0,.24,1.2,1.91,1.91,0,0,0,.68.81,1.73,1.73,0,0,0,1,.29,1.37,1.37,0,0,0,1.23-.66v.56Zm-7.33-3.55a1.19,1.19,0,0,1,.86-.35,1.15,1.15,0,0,1,.93.43,1.49,1.49,0,0,1,.28.83h-2.46a1.36,1.36,0,0,1,.39-.92m1.6,2.82a1.14,1.14,0,0,1-.7.22,1.23,1.23,0,0,1-.92-.39,1.7,1.7,0,0,1-.41-1.11h3.29c0-.09,0-.15,0-.2a2.39,2.39,0,0,0-.56-1.69,1.88,1.88,0,0,0-1.44-.6,1.94,1.94,0,0,0-1.49.61,2.44,2.44,0,0,0-.57,1.73,2.33,2.33,0,0,0,.57,1.67,2.29,2.29,0,0,0,2.79.22,1.88,1.88,0,0,0,.68-1.05l-.77-.1a1.44,1.44,0,0,1-.46.69m-3.71-5.35h-.75v6.08h.75Zm-1.87,1.68h-.75V51h.75Zm0-1.68h-.75v.86h.75ZM116.88,49a1.8,1.8,0,0,1-.12.75,1.16,1.16,0,0,1-.49.52,1.54,1.54,0,0,1-.77.19,1,1,0,0,1-.66-.2.65.65,0,0,1,.17-1.1,2.82,2.82,0,0,1,.65-.15,5.48,5.48,0,0,0,1.22-.28Zm.21,1.94h.78a1.66,1.66,0,0,1-.19-.53,10.8,10.8,0,0,1,0-1.32v-1a4.18,4.18,0,0,0,0-.69,1.17,1.17,0,0,0-.23-.51,1.22,1.22,0,0,0-.52-.33,2.64,2.64,0,0,0-.92-.13,2.93,2.93,0,0,0-1,.16,1.44,1.44,0,0,0-.66.44,1.81,1.81,0,0,0-.33.76l.73.1a1.13,1.13,0,0,1,.37-.65,1.32,1.32,0,0,1,.78-.18,1.25,1.25,0,0,1,.85.25.82.82,0,0,1,.21.64s0,.09,0,.19a6.73,6.73,0,0,1-1.33.26,5.5,5.5,0,0,0-.66.11,1.83,1.83,0,0,0-.54.24,1.23,1.23,0,0,0-.53,1,1.17,1.17,0,0,0,.39.91,1.6,1.6,0,0,0,1.12.35,2.31,2.31,0,0,0,.82-.15,2.79,2.79,0,0,0,.8-.5,1.58,1.58,0,0,0,.15.54M113,50.31a.49.49,0,0,1-.25-.05.31.31,0,0,1-.13-.15,1.32,1.32,0,0,1,0-.41V47.12h.75v-.58h-.75V45l-.74.45v1.09h-.55v.58h.55v2.54a2.68,2.68,0,0,0,.09.88.72.72,0,0,0,.32.34,1.27,1.27,0,0,0,.63.13,2.8,2.8,0,0,0,.56-.07l-.11-.66-.33,0m-5.08-2.91a1.19,1.19,0,0,1,.87-.35,1.15,1.15,0,0,1,.93.43,1.49,1.49,0,0,1,.28.83h-2.46a1.36,1.36,0,0,1,.39-.92m1.6,2.82a1.14,1.14,0,0,1-.7.22,1.23,1.23,0,0,1-.92-.39,1.7,1.7,0,0,1-.41-1.11h3.29c0-.09,0-.15,0-.2a2.39,2.39,0,0,0-.56-1.69,1.88,1.88,0,0,0-1.44-.6,1.94,1.94,0,0,0-1.49.61,2.44,2.44,0,0,0-.57,1.73,2.33,2.33,0,0,0,.57,1.67,2.29,2.29,0,0,0,2.79.22,1.88,1.88,0,0,0,.68-1.05l-.77-.1a1.44,1.44,0,0,1-.46.69m-6.45-2.75a1,1,0,0,1,.83-.41,1.07,1.07,0,0,1,.86.42,2.08,2.08,0,0,1,.35,1.33,1.85,1.85,0,0,1-.34,1.22,1.06,1.06,0,0,1-.83.4,1.08,1.08,0,0,1-.84-.42,1.92,1.92,0,0,1-.36-1.27,2,2,0,0,1,.33-1.28m2.72,3.48V44.87h-.74V47a1.47,1.47,0,0,0-1.22-.61,1.77,1.77,0,0,0-1,.29,1.73,1.73,0,0,0-.66.82,3.15,3.15,0,0,0-.22,1.2,2.8,2.8,0,0,0,.24,1.2,1.91,1.91,0,0,0,.69.81,1.73,1.73,0,0,0,1,.29,1.37,1.37,0,0,0,1.23-.66v.56Zm-7-.64a.5.5,0,0,1-.25-.05.32.32,0,0,1-.13-.15,1.32,1.32,0,0,1,0-.41V47.12h.75v-.58h-.75V45l-.74.45v1.09h-.55v.58h.55v2.54a2.68,2.68,0,0,0,.09.88.72.72,0,0,0,.32.34,1.27,1.27,0,0,0,.63.13,2.79,2.79,0,0,0,.56-.07l-.11-.66-.33,0M93.75,47.4a1.19,1.19,0,0,1,.87-.35,1.14,1.14,0,0,1,.92.43,1.49,1.49,0,0,1,.28.83H93.37a1.36,1.36,0,0,1,.39-.92m1.6,2.82a1.14,1.14,0,0,1-.7.22,1.22,1.22,0,0,1-.92-.39,1.69,1.69,0,0,1-.41-1.11h3.29c0-.09,0-.15,0-.2A2.39,2.39,0,0,0,96.06,47a1.89,1.89,0,0,0-1.44-.6,1.94,1.94,0,0,0-1.49.61,2.44,2.44,0,0,0-.57,1.73,2.33,2.33,0,0,0,.57,1.67,2.3,2.3,0,0,0,2.8.22,1.88,1.88,0,0,0,.68-1.05l-.77-.1a1.43,1.43,0,0,1-.46.69M88.9,47.47a1.08,1.08,0,0,1,.85-.4,1.11,1.11,0,0,1,.87.41A1.81,1.81,0,0,1,91,48.69a1.85,1.85,0,0,1-.35,1.24,1.14,1.14,0,0,1-1.73,0,1.92,1.92,0,0,1-.34-1.27,1.8,1.8,0,0,1,.35-1.2m-.5,4.92a2.1,2.1,0,0,0,1.27.35,2.3,2.3,0,0,0,1.12-.25,1.53,1.53,0,0,0,.66-.68,3.61,3.61,0,0,0,.21-1.46V46.54H91v.53a1.58,1.58,0,0,0-1.29-.63,1.79,1.79,0,0,0-1,.29,1.83,1.83,0,0,0-.66.82,2.93,2.93,0,0,0-.23,1.16,2.53,2.53,0,0,0,.5,1.57,1.66,1.66,0,0,0,1.41.65,1.54,1.54,0,0,0,1.22-.58,4.72,4.72,0,0,1-.05,1,1,1,0,0,1-.38.58,1.33,1.33,0,0,1-.8.21,1.24,1.24,0,0,1-.76-.21.69.69,0,0,1-.25-.49l-.73-.11a1.2,1.2,0,0,0,.47,1.07m-6.59-4.92a1,1,0,0,1,.83-.41,1.07,1.07,0,0,1,.86.42,2.07,2.07,0,0,1,.35,1.33A1.84,1.84,0,0,1,83.51,50a1.06,1.06,0,0,1-.83.4,1.08,1.08,0,0,1-.84-.42,1.92,1.92,0,0,1-.36-1.27,2,2,0,0,1,.33-1.28m2.72,3.48V44.87h-.74V47a1.47,1.47,0,0,0-1.22-.61,1.76,1.76,0,0,0-1,.29,1.72,1.72,0,0,0-.66.82,3.13,3.13,0,0,0-.22,1.2,2.8,2.8,0,0,0,.24,1.2,1.92,1.92,0,0,0,.68.81,1.74,1.74,0,0,0,1,.29,1.37,1.37,0,0,0,1.23-.66v.56Zm-7.53,0V48.54a1.49,1.49,0,0,1,.35-1.15,1.21,1.21,0,0,1,.82-.3,1,1,0,0,1,.52.13.72.72,0,0,1,.31.36,2,2,0,0,1,.09.68v2.68h.75V48.24a4.36,4.36,0,0,0,0-.73,1.45,1.45,0,0,0-.23-.55,1.16,1.16,0,0,0-.5-.38,1.85,1.85,0,0,0-.73-.14,1.58,1.58,0,0,0-1.4.73v-.63h-.67v4.41ZM74.34,49a1.8,1.8,0,0,1-.12.75,1.17,1.17,0,0,1-.49.52,1.54,1.54,0,0,1-.77.19,1,1,0,0,1-.66-.2.66.66,0,0,1-.12-.85.65.65,0,0,1,.29-.24,2.83,2.83,0,0,1,.65-.15,5.48,5.48,0,0,0,1.22-.28Zm.21,1.94h.78a1.66,1.66,0,0,1-.19-.53,10.5,10.5,0,0,1,0-1.32v-1a4.21,4.21,0,0,0,0-.69,1.18,1.18,0,0,0-.23-.51,1.22,1.22,0,0,0-.52-.33,2.64,2.64,0,0,0-.92-.13,2.94,2.94,0,0,0-1,.16,1.45,1.45,0,0,0-.66.44,1.81,1.81,0,0,0-.33.76l.73.1a1.13,1.13,0,0,1,.37-.65,1.32,1.32,0,0,1,.78-.18,1.25,1.25,0,0,1,.85.25.82.82,0,0,1,.21.64s0,.09,0,.19a6.73,6.73,0,0,1-1.33.26,5.47,5.47,0,0,0-.66.11,1.82,1.82,0,0,0-.54.24,1.23,1.23,0,0,0-.53,1,1.17,1.17,0,0,0,.39.91,1.6,1.6,0,0,0,1.12.35,2.3,2.3,0,0,0,.82-.15,2.78,2.78,0,0,0,.8-.5,1.56,1.56,0,0,0,.15.54m-9.36-.26A2.07,2.07,0,0,0,66.5,51a2.3,2.3,0,0,0,.93-.18,1.41,1.41,0,0,0,.63-.51,1.25,1.25,0,0,0,.22-.7A1.1,1.1,0,0,0,68.1,49a1.13,1.13,0,0,0-.49-.39,9.21,9.21,0,0,0-1.11-.35l-.66-.19a.65.65,0,0,1-.29-.2.41.41,0,0,1-.09-.26.5.5,0,0,1,.22-.4,1.22,1.22,0,0,1,.74-.17,1.06,1.06,0,0,1,.67.19.8.8,0,0,1,.29.53l.73-.1a1.59,1.59,0,0,0-.26-.68,1.24,1.24,0,0,0-.58-.4,2.54,2.54,0,0,0-.91-.15,2.27,2.27,0,0,0-.65.09,1.58,1.58,0,0,0-.48.22,1.22,1.22,0,0,0-.37.42,1.14,1.14,0,0,0-.14.55,1.12,1.12,0,0,0,.16.59,1.1,1.1,0,0,0,.48.42,7,7,0,0,0,1.14.36,3.22,3.22,0,0,1,.76.25.45.45,0,0,1,.22.4.62.62,0,0,1-.25.49,1.16,1.16,0,0,1-.76.21,1.2,1.2,0,0,1-.79-.24,1,1,0,0,1-.35-.68l-.74.12a1.66,1.66,0,0,0,.57,1.06m-4.25,0a2.07,2.07,0,0,0,1.31.36,2.3,2.3,0,0,0,.93-.18,1.41,1.41,0,0,0,.63-.51,1.25,1.25,0,0,0,.22-.7,1.1,1.1,0,0,0-.18-.64,1.13,1.13,0,0,0-.49-.39,9.21,9.21,0,0,0-1.11-.35l-.66-.19a.65.65,0,0,1-.29-.2.41.41,0,0,1-.09-.26.5.5,0,0,1,.22-.4,1.22,1.22,0,0,1,.74-.17,1.06,1.06,0,0,1,.67.19.8.8,0,0,1,.29.53l.73-.1a1.59,1.59,0,0,0-.26-.68,1.24,1.24,0,0,0-.58-.4,2.54,2.54,0,0,0-.91-.15,2.27,2.27,0,0,0-.65.09,1.58,1.58,0,0,0-.48.22,1.22,1.22,0,0,0-.37.42,1.14,1.14,0,0,0-.13.55,1.12,1.12,0,0,0,.16.59,1.1,1.1,0,0,0,.48.42,7,7,0,0,0,1.14.36,3.22,3.22,0,0,1,.76.25.45.45,0,0,1,.22.4.62.62,0,0,1-.25.49,1.16,1.16,0,0,1-.76.21,1.2,1.2,0,0,1-.79-.24,1,1,0,0,1-.35-.68l-.74.12a1.66,1.66,0,0,0,.57,1.06m-4-3.29a1.18,1.18,0,0,1,.87-.35,1.15,1.15,0,0,1,.93.43,1.5,1.5,0,0,1,.28.83H56.51a1.36,1.36,0,0,1,.39-.92m1.6,2.82a1.14,1.14,0,0,1-.7.22,1.22,1.22,0,0,1-.92-.39,1.7,1.7,0,0,1-.41-1.11h3.29c0-.09,0-.15,0-.2A2.39,2.39,0,0,0,59.2,47a1.88,1.88,0,0,0-1.44-.6,1.94,1.94,0,0,0-1.49.61,2.44,2.44,0,0,0-.57,1.73,2.33,2.33,0,0,0,.57,1.67,2,2,0,0,0,1.53.6,2,2,0,0,0,1.26-.37,1.88,1.88,0,0,0,.68-1.05l-.77-.1a1.44,1.44,0,0,1-.46.69m-3.72-5.35H54v6.08h.75ZM52,50.95V48.64a2.91,2.91,0,0,1,.12-.87.8.8,0,0,1,.28-.41.71.71,0,0,1,.44-.15,1.07,1.07,0,0,1,.55.16l.26-.69a1.45,1.45,0,0,0-.77-.24.83.83,0,0,0-.48.15,1.82,1.82,0,0,0-.47.62v-.67h-.67v4.41ZM47.45,47.4a1.19,1.19,0,0,1,.87-.35,1.14,1.14,0,0,1,.92.43,1.5,1.5,0,0,1,.28.83H47.06a1.37,1.37,0,0,1,.39-.92m1.6,2.82a1.14,1.14,0,0,1-.7.22,1.22,1.22,0,0,1-.92-.39A1.69,1.69,0,0,1,47,48.94h3.29c0-.09,0-.15,0-.2A2.39,2.39,0,0,0,49.75,47a1.89,1.89,0,0,0-1.44-.6,1.94,1.94,0,0,0-1.49.61,2.44,2.44,0,0,0-.57,1.73,2.33,2.33,0,0,0,.57,1.67,2.3,2.3,0,0,0,2.8.22,1.88,1.88,0,0,0,.68-1.05l-.77-.1a1.44,1.44,0,0,1-.46.69m-6.24-2.74a1.08,1.08,0,0,1,.85-.45,1,1,0,0,1,.83.42,2,2,0,0,1,.35,1.26A2,2,0,0,1,44.48,50a1.08,1.08,0,0,1-.85.42,1.06,1.06,0,0,1-.83-.41,1.91,1.91,0,0,1-.35-1.26,2,2,0,0,1,.37-1.3m-.3,5.16V50.49a1.52,1.52,0,0,0,.49.4,1.41,1.41,0,0,0,.67.16,1.84,1.84,0,0,0,1.68-1.12,3,3,0,0,0,.24-1.22,3,3,0,0,0-.22-1.16,1.78,1.78,0,0,0-.65-.82,1.74,1.74,0,0,0-1-.29,1.5,1.5,0,0,0-.74.17,1.68,1.68,0,0,0-.54.5v-.57h-.68v6.1ZM39.85,49a1.8,1.8,0,0,1-.12.75,1.16,1.16,0,0,1-.49.52,1.54,1.54,0,0,1-.77.19,1,1,0,0,1-.66-.2.66.66,0,0,1-.12-.85.64.64,0,0,1,.29-.24,2.85,2.85,0,0,1,.65-.15,5.48,5.48,0,0,0,1.22-.28Zm.21,1.94h.78a1.66,1.66,0,0,1-.19-.53,10.8,10.8,0,0,1,0-1.32v-1a4.18,4.18,0,0,0,0-.69,1.18,1.18,0,0,0-.23-.51,1.22,1.22,0,0,0-.52-.33,2.63,2.63,0,0,0-.92-.13,2.93,2.93,0,0,0-1,.16,1.44,1.44,0,0,0-.66.44,1.79,1.79,0,0,0-.33.76l.73.1a1.12,1.12,0,0,1,.37-.65,1.32,1.32,0,0,1,.78-.18,1.25,1.25,0,0,1,.85.25.82.82,0,0,1,.21.64s0,.09,0,.19a6.73,6.73,0,0,1-1.33.26,5.5,5.5,0,0,0-.66.11,1.85,1.85,0,0,0-.54.24,1.23,1.23,0,0,0-.39.43,1.21,1.21,0,0,0-.15.59,1.17,1.17,0,0,0,.39.91,1.6,1.6,0,0,0,1.12.35,2.31,2.31,0,0,0,.82-.15,2.81,2.81,0,0,0,.8-.5,1.56,1.56,0,0,0,.15.54m-6.71-3.47A1.07,1.07,0,0,1,34.2,47a1,1,0,0,1,.83.42,2,2,0,0,1,.35,1.26A2,2,0,0,1,35,50a1.08,1.08,0,0,1-.85.42,1.06,1.06,0,0,1-.83-.41A1.91,1.91,0,0,1,33,48.77a2,2,0,0,1,.37-1.3m-.3,5.16V50.49a1.53,1.53,0,0,0,.49.4,1.41,1.41,0,0,0,.67.16,1.81,1.81,0,0,0,1-.29,1.83,1.83,0,0,0,.71-.83,3,3,0,0,0,.24-1.22,3,3,0,0,0-.22-1.16,1.78,1.78,0,0,0-.65-.82,1.74,1.74,0,0,0-1-.29,1.5,1.5,0,0,0-.74.17,1.66,1.66,0,0,0-.54.5v-.57h-.68v6.1Zm-7-5.16a1.23,1.23,0,0,1,1.85,0,1.82,1.82,0,0,1,.37,1.24A1.92,1.92,0,0,1,27.94,50a1.17,1.17,0,0,1-.93.42,1.19,1.19,0,0,1-.93-.42,2.36,2.36,0,0,1,0-2.53m-.57,3A2,2,0,0,0,27,51a2.17,2.17,0,0,0,1.07-.27,1.8,1.8,0,0,0,.74-.76,2.9,2.9,0,0,0,.26-1.34A2.27,2.27,0,0,0,28.5,47a2,2,0,0,0-1.49-.6,2,2,0,0,0-1.39.49,2.27,2.27,0,0,0-.68,1.81,2.37,2.37,0,0,0,.57,1.71m-2.17-1.89V49.7a2.66,2.66,0,0,1-.76.43,2.71,2.71,0,0,1-1,.2,2.53,2.53,0,0,1-1.14-.27,1.79,1.79,0,0,1-.81-.81,3,3,0,0,1-.28-1.36,3.18,3.18,0,0,1,.23-1.22,2.11,2.11,0,0,1,.38-.6,1.79,1.79,0,0,1,.65-.44,2.47,2.47,0,0,1,1-.17,2.14,2.14,0,0,1,.84.16A1.41,1.41,0,0,1,23,46a2.27,2.27,0,0,1,.34.73l.73-.2a2.63,2.63,0,0,0-.46-1,2,2,0,0,0-.84-.6,3.19,3.19,0,0,0-1.19-.21,3.35,3.35,0,0,0-1.61.37,2.47,2.47,0,0,0-1.07,1.14,3.76,3.76,0,0,0-.37,1.66,3.49,3.49,0,0,0,.37,1.62A2.54,2.54,0,0,0,20,50.67a3.46,3.46,0,0,0,1.63.38,3.63,3.63,0,0,0,1.3-.24,4.56,4.56,0,0,0,1.23-.71V47.85H21.56v.71Z"/><path class="cls-6" d="M99.63,24.26c0,1.53,1.27,2,2.32,2.21s1.56.32,1.56.71-.42.53-.94.53a2.76,2.76,0,0,1-2.21-.91l-1.08,1.4a3.87,3.87,0,0,0,3.11,1.16c1.86,0,3-.67,3-2.28s-1-1.95-2.24-2.2-1.63-.35-1.63-.7.29-.49.9-.49a2.66,2.66,0,0,1,1.89.71l1-1.34a3.68,3.68,0,0,0-2.78-1c-1.85,0-3,.81-3,2.22m-6.9,0c0,1.53,1.27,2,2.32,2.21s1.55.32,1.55.71-.42.53-.94.53a2.76,2.76,0,0,1-2.21-.91l-1.08,1.4a3.87,3.87,0,0,0,3.11,1.16c1.86,0,3-.67,3-2.28s-1-1.95-2.24-2.2-1.63-.35-1.63-.7.29-.49.9-.49a2.65,2.65,0,0,1,1.89.71l1-1.34a3.68,3.68,0,0,0-2.78-1c-1.85,0-3,.81-3,2.22m-6.29.66a1.56,1.56,0,0,1,1.65-1.32,1.41,1.41,0,0,1,1.5,1.32Zm-1.88.78a3.5,3.5,0,0,0,3.75,3.67,4.11,4.11,0,0,0,2.79-.92l-.77-1.53a2.91,2.91,0,0,1-2,.71,1.8,1.8,0,0,1-1.88-1.35v0h5.15v-.5c0-2.25-1.32-3.72-3.46-3.72a3.47,3.47,0,0,0-3.58,3.67m-3.25,3.5h1.86V19.4H81.32Zm-3.84-7H75.7v7h1.85V26c0-1.34.53-2,1.76-2a2.39,2.39,0,0,1,.84.11v-2a2.62,2.62,0,0,0-.69-.1,2,2,0,0,0-2,1.31Zm-8.31,2.72a1.56,1.56,0,0,1,1.65-1.32,1.41,1.41,0,0,1,1.5,1.32Zm-1.88.78A3.5,3.5,0,0,0,71,29.37a4.11,4.11,0,0,0,2.79-.92l-.77-1.53a2.91,2.91,0,0,1-2,.71,1.8,1.8,0,0,1-1.88-1.35v0h5.15v-.5C74.33,23.5,73,22,70.87,22a3.47,3.47,0,0,0-3.58,3.67M60.81,32V28.19a2.79,2.79,0,0,0,2.35,1.19c1.72,0,3.16-1.33,3.16-3.68S64.87,22,63.13,22a2.74,2.74,0,0,0-2.33,1.16v-1H59V32Zm1.78-4.42a1.88,1.88,0,0,1,0-3.75,1.88,1.88,0,0,1,0,3.75m-10.22-3a1.75,1.75,0,0,1,1.75-.9c.84,0,1.22.29,1.22.7v.11c0,.15-.13.25-.37.28L53.05,25a2.23,2.23,0,0,0-2.24,2.2,2.18,2.18,0,0,0,2.36,2.18,2.48,2.48,0,0,0,2.16-1.09v1h1.85V24.89c0-2-1-2.84-3.07-2.84-1.53,0-2.66.52-3.12,1.58Zm3,1.76a1.5,1.5,0,0,1-1.61,1.44c-.66,0-1-.29-1-.74s.29-.67.87-.77l1.74-.21ZM44.3,32V28.19a2.8,2.8,0,0,0,2.35,1.19c1.72,0,3.16-1.33,3.16-3.68S48.36,22,46.63,22a2.75,2.75,0,0,0-2.33,1.16v-1H42.46V32Zm1.78-4.42a1.88,1.88,0,0,1,0-3.75,1.88,1.88,0,0,1,0,3.75M35,25.7a1.86,1.86,0,1,1-1.86-1.86A1.79,1.79,0,0,1,35,25.7m-5.63,0a3.58,3.58,0,0,0,3.76,3.67,3.67,3.67,0,1,0,0-7.33,3.57,3.57,0,0,0-3.76,3.67M18.67,24.31a4.73,4.73,0,0,0,5,4.89c2.55,0,4.63-1.75,4.63-5V23.6h-5v2H26a2.34,2.34,0,0,1-2.42,1.7,2.82,2.82,0,0,1-3-3,2.8,2.8,0,0,1,2.93-2.94,3.49,3.49,0,0,1,2.74,1.25l1-1.82a5,5,0,0,0-3.6-1.38,4.74,4.74,0,0,0-5,4.91"/></g></g></svg>