<?xml version="1.0" encoding="utf-8"?>
<!-- Generator: Adobe Illustrator 20.1.0, SVG Export Plug-In . SVG Version: 6.00 Build 0)  -->
<svg version="1.1" id="Layer_1" xmlns="http://www.w3.org/2000/svg" xmlns:xlink="http://www.w3.org/1999/xlink" x="0px" y="0px"
	 viewBox="0 0 470 295" style="enable-background:new 0 0 470 295;" xml:space="preserve">
<style type="text/css">
	.st0{clip-path:url(#SVGID_2_);fill:#231F20;}
	.st1{clip-path:url(#SVGID_2_);fill:none;stroke:#FA4616;stroke-width:7.98;stroke-linecap:round;stroke-miterlimit:10;}
	.st2{fill:none;stroke:#51B848;stroke-width:7.98;stroke-linecap:round;stroke-miterlimit:10;}
	.st3{fill:none;stroke:#3E3935;stroke-width:5.32;stroke-miterlimit:10;}
	.st4{clip-path:url(#SVGID_4_);fill:#3E3935;}
</style>
<g>
	<g>
		<defs>
			<rect id="SVGID_1_" width="429.8" height="273.8"/>
		</defs>
		<clipPath id="SVGID_2_">
			<use xlink:href="#SVGID_1_"  style="overflow:visible;"/>
		</clipPath>
		<path class="st0" d="M122.8,140.7h-1.3v1.3h1.3V140.7z M118.2,138.6c0.2,0.2,0.3,0.7,0.3,1.3c0,0.7-0.1,1.1-0.3,1.3
			c-0.2,0.2-0.4,0.4-0.7,0.4c-0.3,0-0.5-0.1-0.7-0.4c-0.2-0.2-0.3-0.7-0.3-1.3c0-0.7,0.1-1.1,0.3-1.4c0.2-0.2,0.4-0.4,0.7-0.4
			C117.8,138.3,118.1,138.4,118.2,138.6 M116.1,141.8c0.4,0.4,0.8,0.6,1.4,0.6c0.6,0,1.1-0.2,1.4-0.6c0.4-0.4,0.6-1,0.6-1.8
			c0-0.8-0.2-1.4-0.6-1.8c-0.4-0.4-0.9-0.6-1.5-0.6c-0.6,0-1.1,0.2-1.5,0.7c-0.3,0.5-0.5,1-0.5,1.7
			C115.5,140.7,115.7,141.3,116.1,141.8 M112.5,142.4l5.1-9.8h-0.9l-5.1,9.8H112.5z M112.2,133.7c0.2,0.2,0.3,0.7,0.3,1.3
			c0,0.7-0.1,1.1-0.3,1.3c-0.2,0.2-0.4,0.4-0.7,0.4c-0.3,0-0.5-0.1-0.7-0.4c-0.2-0.2-0.3-0.7-0.3-1.3c0-0.7,0.1-1.1,0.3-1.4
			c0.2-0.2,0.4-0.4,0.7-0.4C111.8,133.4,112,133.5,112.2,133.7 M110.1,136.9c0.4,0.4,0.8,0.6,1.4,0.6c0.6,0,1-0.2,1.4-0.6
			c0.4-0.4,0.6-1,0.6-1.8c0-0.8-0.2-1.4-0.6-1.8c-0.4-0.4-0.9-0.6-1.5-0.6c-0.6,0-1.1,0.2-1.5,0.7c-0.3,0.5-0.5,1-0.5,1.7
			C109.5,135.8,109.7,136.5,110.1,136.9 M103.8,134.3c0.3-0.4,0.7-0.7,1.3-0.7c0.5,0,1,0.3,1.3,0.8c0.4,0.5,0.5,1.5,0.5,3.1
			c0,1.5-0.2,2.5-0.5,3c-0.4,0.5-0.8,0.8-1.3,0.8c-0.5,0-1-0.3-1.3-0.8c-0.4-0.5-0.5-1.5-0.5-3.1
			C103.3,135.9,103.4,134.9,103.8,134.3 M103,141.2c0.5,0.6,1.2,1,2.1,1c0.7,0,1.2-0.2,1.7-0.5c0.4-0.4,0.8-0.9,1-1.6
			c0.2-0.7,0.3-1.6,0.3-2.6c0-0.9-0.1-1.7-0.2-2.2c-0.1-0.5-0.3-1-0.6-1.4c-0.2-0.4-0.6-0.7-0.9-0.9c-0.4-0.2-0.8-0.3-1.3-0.3
			c-0.7,0-1.2,0.2-1.7,0.5c-0.4,0.4-0.8,0.9-1,1.6c-0.2,0.7-0.3,1.6-0.3,2.7C102.1,139.2,102.4,140.5,103,141.2 M99.2,137.3
			c-0.3,0.4-0.8,0.6-1.3,0.6c-0.5,0-1-0.2-1.3-0.6c-0.4-0.4-0.5-0.9-0.5-1.4c0-0.7,0.2-1.2,0.6-1.6c0.4-0.4,0.8-0.6,1.3-0.6
			c0.5,0,0.9,0.2,1.3,0.6c0.4,0.4,0.5,0.9,0.5,1.6C99.7,136.4,99.5,137,99.2,137.3 M95.9,141.6c0.5,0.4,1.1,0.6,1.8,0.6
			c0.7,0,1.3-0.2,1.8-0.6c0.5-0.4,0.9-0.9,1.2-1.6c0.3-0.7,0.4-1.7,0.4-2.8c0-1.1-0.1-2-0.4-2.6c-0.3-0.6-0.6-1.1-1.1-1.4
			c-0.5-0.3-1.1-0.5-1.7-0.5c-0.8,0-1.5,0.3-2.1,0.9c-0.6,0.6-0.8,1.3-0.8,2.3c0,0.9,0.3,1.7,0.8,2.2c0.5,0.6,1.2,0.8,2,0.8
			c0.5,0,0.9-0.1,1.3-0.3c0.4-0.2,0.7-0.5,0.9-0.9c0,0.1,0,0.2,0,0.2c0,0.5-0.1,0.9-0.2,1.4c-0.1,0.5-0.3,0.8-0.4,1.1
			c-0.2,0.3-0.4,0.5-0.7,0.6c-0.3,0.2-0.6,0.2-0.9,0.2c-0.4,0-0.7-0.1-1-0.3c-0.3-0.2-0.4-0.6-0.5-1.1l-1.1,0.1
			C95.1,140.6,95.4,141.2,95.9,141.6 M84.6,142l1.4-5.2l0.3,1.1l1.1,4h1.2l2.1-6.7h-1.1l-1.2,3.9l-0.4,1.3l-0.3-1.3l-1-3.9h-1.2
			l-1.1,3.9c-0.2,0.9-0.3,1.3-0.3,1.4l-0.4-1.4l-1.1-3.9h-1.2l2.1,6.7H84.6z M76.2,136.7c0.4-0.4,0.8-0.6,1.4-0.6
			c0.6,0,1,0.2,1.4,0.6c0.4,0.4,0.6,1.1,0.6,1.9c0,0.9-0.2,1.5-0.6,2c-0.4,0.4-0.8,0.6-1.4,0.6c-0.6,0-1-0.2-1.4-0.6
			c-0.4-0.4-0.6-1.1-0.6-1.9C75.7,137.8,75.9,137.2,76.2,136.7 M75.4,141.3c0.6,0.6,1.3,0.9,2.3,0.9c0.6,0,1.1-0.1,1.6-0.4
			c0.5-0.3,0.9-0.7,1.1-1.2c0.3-0.5,0.4-1.2,0.4-2c0-1.1-0.3-1.9-0.9-2.5c-0.6-0.6-1.3-0.9-2.3-0.9c-0.8,0-1.5,0.2-2.1,0.7
			c-0.7,0.6-1,1.5-1,2.8C74.5,139.8,74.8,140.7,75.4,141.3 M73.2,132.7H72v9.3h1.1V132.7z M66.3,136.6c0.4-0.4,0.8-0.5,1.3-0.5
			c0.6,0,1.1,0.2,1.4,0.7c0.2,0.3,0.4,0.7,0.4,1.3h-3.8C65.7,137.4,65.9,137,66.3,136.6 M68.7,140.9c-0.3,0.2-0.7,0.3-1.1,0.3
			c-0.6,0-1-0.2-1.4-0.6c-0.4-0.4-0.6-1-0.6-1.7h5c0-0.1,0-0.2,0-0.3c0-1.1-0.3-2-0.9-2.6c-0.6-0.6-1.3-0.9-2.2-0.9
			c-0.9,0-1.7,0.3-2.3,0.9c-0.6,0.6-0.9,1.5-0.9,2.6c0,1.1,0.3,1.9,0.9,2.6c0.6,0.6,1.4,0.9,2.3,0.9c0.8,0,1.4-0.2,1.9-0.6
			c0.5-0.4,0.8-0.9,1-1.6l-1.2-0.1C69.3,140.4,69,140.7,68.7,140.9 M59.2,136.7c0.4-0.4,0.8-0.7,1.3-0.7c0.5,0,0.9,0.2,1.3,0.6
			c0.3,0.4,0.5,1.1,0.5,1.9c0,0.9-0.2,1.5-0.5,1.9c-0.4,0.4-0.8,0.7-1.3,0.7c-0.6,0-1.1-0.3-1.5-0.9c-0.2-0.4-0.3-0.9-0.3-1.8
			C58.6,137.8,58.8,137.2,59.2,136.7 M58.6,141.2c0.5,0.7,1.1,1,1.9,1c0.8,0,1.5-0.3,2.1-0.9c0.6-0.6,0.9-1.5,0.9-2.7
			c0-0.5-0.1-0.9-0.2-1.4c-0.1-0.4-0.3-0.8-0.6-1.1c-0.2-0.3-0.5-0.5-0.9-0.7c-0.4-0.2-0.8-0.3-1.2-0.3c-0.7,0-1.4,0.3-1.8,0.9v-3.3
			h-1.1v9.3h1.1V141.2z M47.9,141.7c0.5,0.4,1.1,0.5,2,0.5c0.5,0,1-0.1,1.4-0.3c0.4-0.2,0.7-0.4,1-0.8c0.2-0.3,0.3-0.7,0.3-1.1
			c0-0.4-0.1-0.7-0.3-1s-0.4-0.5-0.8-0.6c-0.3-0.1-0.9-0.3-1.7-0.5c-0.6-0.2-0.9-0.2-1-0.3c-0.2-0.1-0.3-0.2-0.4-0.3
			c-0.1-0.1-0.1-0.3-0.1-0.4c0-0.2,0.1-0.4,0.3-0.6c0.2-0.2,0.6-0.3,1.1-0.3c0.4,0,0.8,0.1,1,0.3c0.2,0.2,0.4,0.5,0.4,0.8l1.1-0.2
			c-0.1-0.4-0.2-0.8-0.4-1c-0.2-0.3-0.5-0.5-0.9-0.6c-0.4-0.2-0.9-0.2-1.4-0.2c-0.4,0-0.7,0-1,0.1c-0.3,0.1-0.5,0.2-0.7,0.3
			c-0.2,0.2-0.4,0.4-0.6,0.6c-0.1,0.3-0.2,0.5-0.2,0.8c0,0.3,0.1,0.6,0.3,0.9c0.2,0.3,0.4,0.5,0.7,0.6c0.3,0.2,0.9,0.3,1.7,0.6
			c0.6,0.2,1,0.3,1.2,0.4c0.2,0.1,0.3,0.4,0.3,0.6c0,0.3-0.1,0.5-0.4,0.8c-0.3,0.2-0.6,0.3-1.2,0.3c-0.5,0-0.9-0.1-1.2-0.4
			c-0.3-0.2-0.5-0.6-0.5-1L47,140C47.1,140.8,47.4,141.3,47.9,141.7 M45.7,132.7h-1.1v9.3h1.1V132.7z M42.8,132.7h-1.1v9.3h1.1
			V132.7z M38.8,139.1c0,0.5-0.1,0.9-0.2,1.1c-0.2,0.3-0.4,0.6-0.8,0.8c-0.3,0.2-0.7,0.3-1.2,0.3c-0.4,0-0.8-0.1-1-0.3
			c-0.2-0.2-0.3-0.5-0.3-0.8c0-0.2,0.1-0.4,0.2-0.5c0.1-0.2,0.3-0.3,0.5-0.4c0.2-0.1,0.5-0.2,1-0.2c0.8-0.1,1.5-0.3,1.9-0.4V139.1z
			 M39.1,142h1.2c-0.1-0.3-0.2-0.5-0.3-0.8c0-0.3-0.1-1-0.1-2v-1.5c0-0.5,0-0.9-0.1-1.1c-0.1-0.3-0.2-0.6-0.4-0.8
			c-0.2-0.2-0.4-0.4-0.8-0.5c-0.4-0.1-0.8-0.2-1.4-0.2c-0.6,0-1.1,0.1-1.5,0.2c-0.4,0.2-0.8,0.4-1,0.7c-0.2,0.3-0.4,0.7-0.5,1.2
			l1.1,0.2c0.1-0.5,0.3-0.8,0.6-1c0.3-0.2,0.7-0.3,1.2-0.3c0.6,0,1,0.1,1.3,0.4c0.2,0.2,0.3,0.5,0.3,1c0,0,0,0.1,0,0.3
			c-0.4,0.2-1.1,0.3-2,0.4c-0.5,0.1-0.8,0.1-1,0.2c-0.3,0.1-0.6,0.2-0.8,0.4c-0.2,0.2-0.4,0.4-0.6,0.7c-0.1,0.3-0.2,0.6-0.2,0.9
			c0,0.6,0.2,1,0.6,1.4c0.4,0.4,1,0.5,1.7,0.5c0.4,0,0.9-0.1,1.3-0.2c0.4-0.1,0.8-0.4,1.2-0.8C38.9,141.5,39,141.8,39.1,142
			 M32.3,142v-5.9h1.3v-0.9h-1.3v-0.6c0-0.4,0.1-0.7,0.2-0.8c0.1-0.1,0.4-0.2,0.7-0.2c0.2,0,0.4,0,0.7,0.1l0.2-1
			c-0.4-0.1-0.7-0.1-1.1-0.1c-0.5,0-0.9,0.1-1.2,0.3c-0.3,0.2-0.5,0.4-0.6,0.7c-0.1,0.2-0.1,0.6-0.1,1v0.7h-1v0.9h1v5.9H32.3z"/>
		<path class="st0" d="M416,122.5V119c0-0.5,0.1-0.9,0.2-1.3c0.1-0.3,0.2-0.5,0.4-0.6c0.2-0.1,0.4-0.2,0.7-0.2
			c0.3,0,0.6,0.1,0.8,0.2l0.4-1.1c-0.4-0.2-0.8-0.4-1.2-0.4c-0.3,0-0.5,0.1-0.7,0.2c-0.2,0.2-0.5,0.5-0.7,0.9v-1h-1v6.7H416z
			 M408.9,117.2c0.4-0.4,0.9-0.6,1.4-0.6c0.6,0,1,0.2,1.4,0.6c0.4,0.4,0.6,1.1,0.6,1.9c0,0.9-0.2,1.5-0.6,2
			c-0.4,0.4-0.8,0.6-1.4,0.6c-0.6,0-1-0.2-1.4-0.6c-0.4-0.4-0.6-1.1-0.6-1.9C408.4,118.3,408.5,117.7,408.9,117.2 M408.1,121.8
			c0.6,0.6,1.3,0.9,2.3,0.9c0.6,0,1.1-0.1,1.6-0.4c0.5-0.3,0.9-0.7,1.1-1.2c0.3-0.5,0.4-1.2,0.4-2c0-1.1-0.3-1.9-0.9-2.5
			c-0.6-0.6-1.3-0.9-2.3-0.9c-0.8,0-1.5,0.2-2.1,0.7c-0.7,0.6-1,1.5-1,2.8C407.2,120.3,407.5,121.2,408.1,121.8 M406,121.6
			c-0.2,0-0.3,0-0.4-0.1c-0.1-0.1-0.2-0.1-0.2-0.2c0-0.1-0.1-0.3-0.1-0.6v-3.9h1.1v-0.9h-1.1v-2.4l-1.1,0.7v1.7h-0.8v0.9h0.8v3.9
			c0,0.7,0,1.1,0.1,1.3c0.1,0.2,0.3,0.4,0.5,0.5c0.2,0.1,0.6,0.2,1,0.2c0.3,0,0.5,0,0.9-0.1l-0.2-1
			C406.3,121.6,406.1,121.6,406,121.6 M401.3,121.3c-0.3,0.3-0.7,0.4-1.1,0.4c-0.6,0-1-0.2-1.4-0.6c-0.3-0.4-0.5-1.1-0.5-2
			c0-0.9,0.2-1.5,0.5-2c0.4-0.4,0.8-0.6,1.4-0.6c0.4,0,0.7,0.1,1,0.3c0.3,0.2,0.5,0.6,0.6,1l1.1-0.2c-0.1-0.7-0.4-1.2-0.9-1.6
			c-0.5-0.4-1.1-0.6-1.8-0.6c-0.6,0-1.1,0.1-1.6,0.4c-0.5,0.3-0.9,0.7-1.1,1.2c-0.2,0.5-0.4,1.2-0.4,1.9c0,1.1,0.3,2,0.8,2.6
			c0.6,0.6,1.3,0.9,2.2,0.9c0.7,0,1.4-0.2,1.9-0.7c0.5-0.4,0.8-1,0.9-1.8l-1.1-0.1C401.8,120.7,401.6,121.1,401.3,121.3
			 M394.6,119.6c0,0.5-0.1,0.9-0.2,1.1c-0.2,0.3-0.4,0.6-0.8,0.8c-0.3,0.2-0.7,0.3-1.2,0.3c-0.4,0-0.8-0.1-1-0.3
			c-0.2-0.2-0.3-0.5-0.3-0.8c0-0.2,0.1-0.4,0.2-0.5c0.1-0.2,0.3-0.3,0.5-0.4c0.2-0.1,0.5-0.2,1-0.2c0.8-0.1,1.5-0.3,1.9-0.4V119.6z
			 M394.9,122.5h1.2c-0.1-0.3-0.2-0.5-0.3-0.8c0-0.3-0.1-1-0.1-2v-1.5c0-0.5,0-0.9-0.1-1.1c-0.1-0.3-0.2-0.6-0.4-0.8
			c-0.2-0.2-0.4-0.4-0.8-0.5c-0.4-0.1-0.8-0.2-1.4-0.2c-0.6,0-1.1,0.1-1.5,0.2c-0.4,0.2-0.8,0.4-1,0.7c-0.2,0.3-0.4,0.7-0.5,1.2
			l1.1,0.2c0.1-0.5,0.3-0.8,0.6-1c0.3-0.2,0.7-0.3,1.2-0.3c0.6,0,1,0.1,1.3,0.4c0.2,0.2,0.3,0.5,0.3,1c0,0,0,0.1,0,0.3
			c-0.4,0.2-1.1,0.3-2,0.4c-0.5,0.1-0.8,0.1-1,0.2c-0.3,0.1-0.6,0.2-0.8,0.4c-0.2,0.2-0.4,0.4-0.6,0.7c-0.2,0.3-0.2,0.6-0.2,0.9
			c0,0.6,0.2,1,0.6,1.4c0.4,0.4,1,0.5,1.7,0.5c0.4,0,0.9-0.1,1.3-0.2c0.4-0.1,0.8-0.4,1.2-0.8C394.7,122,394.8,122.3,394.9,122.5
			 M388.1,122.5v-5.9h1.3v-0.9h-1.3v-0.6c0-0.4,0.1-0.7,0.2-0.8c0.1-0.1,0.4-0.2,0.7-0.2c0.2,0,0.4,0,0.7,0.1l0.2-1
			c-0.4-0.1-0.7-0.1-1.1-0.1c-0.5,0-0.9,0.1-1.2,0.3c-0.3,0.2-0.5,0.4-0.6,0.7c-0.1,0.2-0.1,0.6-0.1,1v0.7h-1v0.9h1v5.9H388.1z
			 M379.8,122.5V119c0-0.5,0.1-0.9,0.2-1.3c0.1-0.3,0.2-0.5,0.4-0.6c0.2-0.1,0.4-0.2,0.7-0.2c0.3,0,0.6,0.1,0.8,0.2l0.4-1.1
			c-0.4-0.2-0.8-0.4-1.2-0.4c-0.3,0-0.5,0.1-0.7,0.2c-0.2,0.2-0.5,0.5-0.7,0.9v-1h-1v6.7H379.8z M372.9,117.1
			c0.4-0.4,0.8-0.5,1.3-0.5c0.6,0,1.1,0.2,1.4,0.7c0.2,0.3,0.4,0.7,0.4,1.3h-3.8C372.4,117.9,372.6,117.5,372.9,117.1 M375.4,121.4
			c-0.3,0.2-0.7,0.3-1.1,0.3c-0.6,0-1-0.2-1.4-0.6c-0.4-0.4-0.6-1-0.6-1.7h5c0-0.1,0-0.2,0-0.3c0-1.1-0.3-2-0.9-2.6
			c-0.6-0.6-1.3-0.9-2.2-0.9c-0.9,0-1.7,0.3-2.3,0.9c-0.6,0.6-0.9,1.5-0.9,2.6c0,1.1,0.3,1.9,0.9,2.6c0.6,0.6,1.4,0.9,2.3,0.9
			c0.8,0,1.4-0.2,1.9-0.6c0.5-0.4,0.8-0.9,1-1.6l-1.2-0.1C375.9,120.9,375.7,121.2,375.4,121.4 M364.5,122.5l1.4-5.2l0.3,1.1l1.1,4
			h1.2l2.1-6.7h-1.1l-1.2,3.9l-0.4,1.3l-0.3-1.3l-1-3.9h-1.2l-1.1,3.9c-0.2,0.9-0.3,1.3-0.3,1.4l-0.4-1.4l-1.1-3.9h-1.2l2.1,6.7
			H364.5z M356.2,117.2c0.4-0.4,0.8-0.6,1.4-0.6c0.6,0,1,0.2,1.4,0.6c0.4,0.4,0.6,1.1,0.6,1.9c0,0.9-0.2,1.5-0.6,2
			c-0.4,0.4-0.8,0.6-1.4,0.6c-0.6,0-1-0.2-1.4-0.6c-0.4-0.4-0.6-1.1-0.6-1.9C355.6,118.3,355.8,117.7,356.2,117.2 M355.3,121.8
			c0.6,0.6,1.3,0.9,2.3,0.9c0.6,0,1.1-0.1,1.6-0.4c0.5-0.3,0.9-0.7,1.1-1.2c0.3-0.5,0.4-1.2,0.4-2c0-1.1-0.3-1.9-0.9-2.5
			c-0.6-0.6-1.3-0.9-2.3-0.9c-0.8,0-1.5,0.2-2.1,0.7c-0.7,0.6-1,1.5-1,2.8C354.4,120.3,354.7,121.2,355.3,121.8 M349.2,117.2
			c0.4-0.5,0.8-0.7,1.3-0.7c0.5,0,0.9,0.2,1.3,0.6c0.4,0.4,0.5,1.1,0.5,1.9c0,0.9-0.2,1.6-0.5,2c-0.4,0.4-0.8,0.6-1.3,0.6
			c-0.5,0-0.9-0.2-1.3-0.6c-0.4-0.4-0.5-1.1-0.5-1.9C348.7,118.3,348.9,117.7,349.2,117.2 M348.8,125.1v-3.3
			c0.2,0.2,0.4,0.4,0.7,0.6c0.3,0.2,0.6,0.2,1,0.2c0.5,0,1-0.1,1.5-0.4c0.5-0.3,0.8-0.7,1.1-1.3c0.2-0.6,0.4-1.2,0.4-1.9
			c0-0.6-0.1-1.2-0.3-1.8c-0.2-0.5-0.6-1-1-1.3c-0.4-0.3-0.9-0.4-1.5-0.4c-0.4,0-0.8,0.1-1.1,0.3c-0.3,0.2-0.6,0.4-0.8,0.8v-0.9h-1
			v9.3H348.8z M340.8,122.5V119c0-0.5,0.1-0.9,0.2-1.3c0.1-0.3,0.2-0.5,0.4-0.6c0.2-0.1,0.4-0.2,0.7-0.2c0.3,0,0.6,0.1,0.8,0.2
			l0.4-1.1c-0.4-0.2-0.8-0.4-1.2-0.4c-0.3,0-0.5,0.1-0.7,0.2c-0.2,0.2-0.5,0.5-0.7,0.9v-1h-1v6.7H340.8z M337.9,122.5v-6.7h-1.1v3.6
			c0,0.6-0.1,1-0.2,1.3c-0.1,0.3-0.3,0.5-0.6,0.7c-0.3,0.2-0.6,0.3-1,0.3c-0.3,0-0.6-0.1-0.9-0.3c-0.2-0.2-0.4-0.4-0.5-0.7
			c0-0.2-0.1-0.6-0.1-1.2v-3.7h-1.1v4.2c0,0.5,0,0.8,0.1,1.1c0.1,0.3,0.2,0.6,0.4,0.8c0.2,0.2,0.4,0.4,0.8,0.6
			c0.3,0.2,0.7,0.2,1.1,0.2c0.9,0,1.6-0.4,2.1-1.1v1H337.9z M326.5,117.2c0.4-0.4,0.9-0.6,1.4-0.6c0.6,0,1,0.2,1.4,0.6
			c0.4,0.4,0.6,1.1,0.6,1.9c0,0.9-0.2,1.5-0.6,2c-0.4,0.4-0.8,0.6-1.4,0.6c-0.6,0-1-0.2-1.4-0.6c-0.4-0.4-0.6-1.1-0.6-1.9
			C326,118.3,326.2,117.7,326.5,117.2 M325.7,121.8c0.6,0.6,1.3,0.9,2.3,0.9c0.6,0,1.1-0.1,1.6-0.4c0.5-0.3,0.9-0.7,1.1-1.2
			c0.3-0.5,0.4-1.2,0.4-2c0-1.1-0.3-1.9-0.9-2.5c-0.6-0.6-1.3-0.9-2.3-0.9c-0.8,0-1.5,0.2-2.1,0.7c-0.7,0.6-1,1.5-1,2.8
			C324.8,120.3,325.1,121.2,325.7,121.8 M319.4,125.3c0.4,0,0.7-0.1,0.9-0.3c0.3-0.2,0.5-0.5,0.7-0.8c0.2-0.3,0.4-0.8,0.6-1.5
			l2.6-6.9h-1.1l-1.4,3.9c-0.2,0.5-0.3,1-0.5,1.5c-0.1-0.5-0.3-1.1-0.5-1.6l-1.4-3.9h-1.2l2.6,6.8c0,0.1-0.1,0.2-0.1,0.3
			c-0.2,0.5-0.3,0.7-0.3,0.9c-0.1,0.2-0.2,0.3-0.4,0.4c-0.2,0.1-0.4,0.1-0.6,0.1c-0.2,0-0.4,0-0.7-0.1l0.1,1.1
			C319,125.2,319.2,125.3,319.4,125.3 M309,122.5v-3.7c0-0.9,0.2-1.4,0.5-1.8c0.4-0.3,0.8-0.5,1.3-0.5c0.3,0,0.6,0.1,0.8,0.2
			c0.2,0.1,0.4,0.3,0.5,0.6c0.1,0.2,0.1,0.6,0.1,1v4.1h1.1v-4.1c0-0.5,0-0.9-0.1-1.1c-0.1-0.3-0.2-0.6-0.4-0.8
			c-0.2-0.2-0.4-0.4-0.8-0.6c-0.3-0.1-0.7-0.2-1.1-0.2c-0.9,0-1.6,0.4-2.1,1.1v-1h-1v6.7H309z M302.1,117.1c0.4-0.4,0.8-0.5,1.3-0.5
			c0.6,0,1.1,0.2,1.4,0.7c0.2,0.3,0.4,0.7,0.4,1.3h-3.8C301.6,117.9,301.8,117.5,302.1,117.1 M304.6,121.4c-0.3,0.2-0.7,0.3-1.1,0.3
			c-0.6,0-1-0.2-1.4-0.6c-0.4-0.4-0.6-1-0.6-1.7h5c0-0.1,0-0.2,0-0.3c0-1.1-0.3-2-0.9-2.6c-0.6-0.6-1.3-0.9-2.2-0.9
			c-0.9,0-1.7,0.3-2.3,0.9c-0.6,0.6-0.9,1.5-0.9,2.6c0,1.1,0.3,1.9,0.9,2.6c0.6,0.6,1.4,0.9,2.3,0.9c0.8,0,1.4-0.2,1.9-0.6
			c0.5-0.4,0.8-0.9,1-1.6l-1.2-0.1C305.1,120.9,304.9,121.2,304.6,121.4 M294.6,122.5v-3.7c0-0.5,0.1-0.9,0.2-1.2
			c0.1-0.3,0.3-0.5,0.6-0.7c0.3-0.2,0.6-0.3,1-0.3c0.5,0,0.8,0.1,1.1,0.4c0.2,0.3,0.4,0.7,0.4,1.2v4.3h1.1v-4.3
			c0-0.7-0.1-1.2-0.2-1.5s-0.4-0.6-0.8-0.8c-0.4-0.2-0.8-0.3-1.3-0.3c-0.8,0-1.5,0.3-2,0.9v-3.3h-1.1v9.3H294.6z M286.5,122.5
			l1.4-5.2l0.3,1.1l1.1,4h1.2l2.1-6.7h-1.1l-1.2,3.9l-0.4,1.3l-0.3-1.3l-1-3.9h-1.2l-1.1,3.9c-0.2,0.9-0.3,1.3-0.4,1.4l-0.4-1.4
			l-1.1-3.9h-1.2l2.1,6.7H286.5z M278.7,113.2h-1.1v9.3h1.1V113.2z M275.8,115.8h-1.1v6.7h1.1V115.8z M275.8,113.2h-1.1v1.3h1.1
			V113.2z M271.7,119.6c0,0.5-0.1,0.9-0.2,1.1c-0.2,0.3-0.4,0.6-0.8,0.8c-0.3,0.2-0.7,0.3-1.2,0.3c-0.4,0-0.8-0.1-1-0.3
			c-0.2-0.2-0.3-0.5-0.3-0.8c0-0.2,0.1-0.4,0.2-0.5c0.1-0.2,0.3-0.3,0.5-0.4c0.2-0.1,0.5-0.2,1-0.2c0.8-0.1,1.5-0.3,1.9-0.4V119.6z
			 M272.1,122.5h1.2c-0.1-0.3-0.2-0.5-0.3-0.8c0-0.3-0.1-1-0.1-2v-1.5c0-0.5,0-0.9-0.1-1.1c-0.1-0.3-0.2-0.6-0.4-0.8
			c-0.2-0.2-0.4-0.4-0.8-0.5c-0.4-0.1-0.8-0.2-1.4-0.2c-0.6,0-1.1,0.1-1.5,0.2c-0.4,0.2-0.8,0.4-1,0.7c-0.2,0.3-0.4,0.7-0.5,1.2
			l1.1,0.2c0.1-0.5,0.3-0.8,0.6-1c0.3-0.2,0.7-0.3,1.2-0.3c0.6,0,1,0.1,1.3,0.4c0.2,0.2,0.3,0.5,0.3,1c0,0,0,0.1,0,0.3
			c-0.4,0.2-1.1,0.3-2,0.4c-0.5,0.1-0.8,0.1-1,0.2c-0.3,0.1-0.6,0.2-0.8,0.4c-0.2,0.2-0.4,0.4-0.6,0.7c-0.2,0.3-0.2,0.6-0.2,0.9
			c0,0.6,0.2,1,0.6,1.4c0.4,0.4,1,0.5,1.7,0.5c0.4,0,0.9-0.1,1.3-0.2c0.4-0.1,0.8-0.4,1.2-0.8C271.9,122,271.9,122.3,272.1,122.5
			 M257.7,122.5v-3.5c0-0.6,0.1-1.1,0.2-1.4c0.1-0.3,0.3-0.6,0.6-0.7c0.3-0.2,0.6-0.3,0.9-0.3c0.4,0,0.7,0.1,0.9,0.4
			c0.2,0.3,0.3,0.6,0.3,1.1v4.4h1.1v-3.9c0-0.7,0.2-1.2,0.5-1.5c0.3-0.3,0.7-0.5,1.2-0.5c0.3,0,0.5,0.1,0.7,0.2
			c0.2,0.1,0.3,0.3,0.4,0.5c0.1,0.2,0.1,0.5,0.1,1v4.2h1.1v-4.6c0-0.8-0.2-1.3-0.5-1.7c-0.4-0.4-0.9-0.6-1.5-0.6
			c-0.9,0-1.5,0.4-2.1,1.2c-0.1-0.4-0.4-0.7-0.7-0.9c-0.3-0.2-0.7-0.3-1.2-0.3c-0.4,0-0.8,0.1-1.2,0.3c-0.4,0.2-0.6,0.5-0.8,0.8
			v-0.9h-1v6.7H257.7z M250.8,117.1c0.4-0.4,0.8-0.5,1.3-0.5c0.6,0,1.1,0.2,1.4,0.7c0.2,0.3,0.4,0.7,0.4,1.3h-3.8
			C250.3,117.9,250.5,117.5,250.8,117.1 M253.3,121.4c-0.3,0.2-0.7,0.3-1.1,0.3c-0.6,0-1-0.2-1.4-0.6c-0.4-0.4-0.6-1-0.6-1.7h5
			c0-0.1,0-0.2,0-0.3c0-1.1-0.3-2-0.9-2.6c-0.6-0.6-1.3-0.9-2.2-0.9c-0.9,0-1.7,0.3-2.3,0.9c-0.6,0.6-0.9,1.5-0.9,2.6
			c0,1.1,0.3,1.9,0.9,2.6c0.6,0.6,1.4,0.9,2.3,0.9c0.8,0,1.4-0.2,1.9-0.6c0.5-0.4,0.8-0.9,1-1.6l-1.2-0.1
			C253.8,120.9,253.6,121.2,253.3,121.4 M239.9,125.3c0.4,0,0.7-0.1,0.9-0.3c0.3-0.2,0.5-0.5,0.7-0.8c0.2-0.3,0.4-0.8,0.6-1.5
			l2.6-6.9h-1.1l-1.4,3.9c-0.2,0.5-0.3,1-0.5,1.5c-0.1-0.5-0.3-1.1-0.5-1.6l-1.4-3.9h-1.2l2.6,6.8c0,0.1-0.1,0.2-0.1,0.3
			c-0.2,0.5-0.3,0.7-0.3,0.9c-0.1,0.2-0.2,0.3-0.4,0.4c-0.2,0.1-0.4,0.1-0.6,0.1c-0.2,0-0.4,0-0.7-0.1l0.1,1.1
			C239.5,125.2,239.7,125.3,239.9,125.3 M233.6,117.2c0.4-0.4,0.8-0.7,1.3-0.7c0.5,0,0.9,0.2,1.3,0.6c0.3,0.4,0.5,1.1,0.5,1.9
			c0,0.9-0.2,1.5-0.5,1.9c-0.4,0.4-0.8,0.7-1.3,0.7c-0.6,0-1.1-0.3-1.5-0.9c-0.2-0.4-0.3-0.9-0.3-1.8
			C233.1,118.3,233.2,117.7,233.6,117.2 M233.1,121.7c0.5,0.7,1.1,1,1.9,1c0.8,0,1.5-0.3,2.1-0.9c0.6-0.6,0.9-1.5,0.9-2.7
			c0-0.5-0.1-0.9-0.2-1.4c-0.1-0.4-0.3-0.8-0.6-1.1c-0.2-0.3-0.5-0.5-0.9-0.7c-0.4-0.2-0.8-0.3-1.2-0.3c-0.7,0-1.4,0.3-1.8,0.9v-3.3
			H232v9.3h1.1V121.7z M222.5,117.2c0.3-0.4,0.8-0.6,1.3-0.6c0.5,0,1,0.2,1.3,0.6c0.4,0.4,0.5,1.1,0.5,2c0,0.8-0.2,1.5-0.5,1.9
			c-0.3,0.4-0.8,0.6-1.3,0.6c-0.5,0-0.9-0.2-1.3-0.6c-0.4-0.4-0.5-1.1-0.5-1.9C221.9,118.3,222.1,117.6,222.5,117.2 M226.6,122.5
			v-9.3h-1.1v3.3c-0.2-0.3-0.5-0.5-0.8-0.7c-0.3-0.2-0.7-0.3-1.1-0.3c-0.6,0-1.1,0.1-1.5,0.4c-0.4,0.3-0.8,0.7-1,1.3
			c-0.2,0.5-0.3,1.2-0.3,1.8c0,0.7,0.1,1.3,0.4,1.8c0.2,0.5,0.6,0.9,1,1.2c0.5,0.3,0.9,0.4,1.5,0.4c0.8,0,1.5-0.3,1.9-1v0.9H226.6z
			 M215.4,117.1c0.4-0.4,0.8-0.5,1.3-0.5c0.6,0,1.1,0.2,1.4,0.7c0.2,0.3,0.4,0.7,0.4,1.3h-3.8C214.9,117.9,215.1,117.5,215.4,117.1
			 M217.9,121.4c-0.3,0.2-0.7,0.3-1.1,0.3c-0.6,0-1-0.2-1.4-0.6c-0.4-0.4-0.6-1-0.6-1.7h5c0-0.1,0-0.2,0-0.3c0-1.1-0.3-2-0.9-2.6
			c-0.6-0.6-1.3-0.9-2.2-0.9c-0.9,0-1.7,0.3-2.3,0.9c-0.6,0.6-0.9,1.5-0.9,2.6c0,1.1,0.3,1.9,0.9,2.6c0.6,0.6,1.4,0.9,2.3,0.9
			c0.8,0,1.4-0.2,1.9-0.6c0.5-0.4,0.8-0.9,1-1.6l-1.2-0.1C218.4,120.9,218.2,121.2,217.9,121.4 M212.2,115.8h-1.1v6.7h1.1V115.8z
			 M212.2,113.2h-1.1v1.3h1.1V113.2z M208.9,122.5v-5.9h1.3v-0.9h-1.3v-0.4c0-0.5,0.1-0.8,0.2-1c0.1-0.2,0.4-0.2,0.8-0.2
			c0.2,0,0.4,0,0.6,0.1l0.2-1c-0.4-0.1-0.7-0.1-1.2-0.1c-0.6,0-1.1,0.2-1.4,0.5c-0.3,0.4-0.4,0.9-0.4,1.5v0.7h-1v0.9h1v5.9H208.9z
			 M205.7,115.8h-1.1v6.7h1.1V115.8z M205.7,113.2h-1.1v1.3h1.1V113.2z M202.9,121.6c-0.2,0-0.3,0-0.4-0.1c-0.1-0.1-0.2-0.1-0.2-0.2
			c0-0.1-0.1-0.3-0.1-0.6v-3.9h1.1v-0.9h-1.1v-2.4l-1.1,0.7v1.7h-0.8v0.9h0.8v3.9c0,0.7,0,1.1,0.1,1.3c0.1,0.2,0.3,0.4,0.5,0.5
			c0.2,0.1,0.6,0.2,1,0.2c0.3,0,0.5,0,0.9-0.1l-0.2-1C203.2,121.6,203.1,121.6,202.9,121.6 M195,117.2c0.4-0.4,0.9-0.6,1.4-0.6
			c0.6,0,1,0.2,1.4,0.6c0.4,0.4,0.6,1.1,0.6,1.9c0,0.9-0.2,1.5-0.6,2c-0.4,0.4-0.8,0.6-1.4,0.6c-0.6,0-1-0.2-1.4-0.6
			c-0.4-0.4-0.6-1.1-0.6-1.9C194.5,118.3,194.7,117.7,195,117.2 M194.2,121.8c0.6,0.6,1.3,0.9,2.3,0.9c0.6,0,1.1-0.1,1.6-0.4
			c0.5-0.3,0.9-0.7,1.1-1.2c0.3-0.5,0.4-1.2,0.4-2c0-1.1-0.3-1.9-0.9-2.5c-0.6-0.6-1.3-0.9-2.3-0.9c-0.8,0-1.5,0.2-2.1,0.7
			c-0.7,0.6-1,1.5-1,2.8C193.3,120.3,193.6,121.2,194.2,121.8 M187.6,122.5v-3.7c0-0.9,0.2-1.4,0.5-1.8c0.4-0.3,0.8-0.5,1.3-0.5
			c0.3,0,0.6,0.1,0.8,0.2c0.2,0.1,0.4,0.3,0.5,0.6c0.1,0.2,0.1,0.6,0.1,1v4.1h1.1v-4.1c0-0.5,0-0.9-0.1-1.1
			c-0.1-0.3-0.2-0.6-0.4-0.8c-0.2-0.2-0.4-0.4-0.8-0.6c-0.3-0.1-0.7-0.2-1.1-0.2c-0.9,0-1.7,0.4-2.1,1.1v-1h-1v6.7H187.6z
			 M177.1,117.1c0.4-0.4,0.8-0.5,1.3-0.5c0.6,0,1.1,0.2,1.4,0.7c0.2,0.3,0.4,0.7,0.4,1.3h-3.8C176.6,117.9,176.8,117.5,177.1,117.1
			 M179.6,121.4c-0.3,0.2-0.7,0.3-1.1,0.3c-0.6,0-1-0.2-1.4-0.6c-0.4-0.4-0.6-1-0.6-1.7h5c0-0.1,0-0.2,0-0.3c0-1.1-0.3-2-0.9-2.6
			s-1.3-0.9-2.2-0.9c-0.9,0-1.7,0.3-2.3,0.9c-0.6,0.6-0.9,1.5-0.9,2.6c0,1.1,0.3,1.9,0.9,2.6c0.6,0.6,1.4,0.9,2.3,0.9
			c0.8,0,1.4-0.2,1.9-0.6s0.8-0.9,1-1.6l-1.2-0.1C180.1,120.9,179.9,121.2,179.6,121.4 M170,117.2c0.4-0.4,0.8-0.7,1.3-0.7
			c0.5,0,0.9,0.2,1.3,0.6c0.3,0.4,0.5,1.1,0.5,1.9c0,0.9-0.2,1.5-0.5,1.9c-0.4,0.4-0.8,0.7-1.3,0.7c-0.6,0-1.1-0.3-1.5-0.9
			c-0.2-0.4-0.3-0.9-0.3-1.8C169.5,118.3,169.6,117.7,170,117.2 M169.5,121.7c0.5,0.7,1.1,1,1.9,1c0.8,0,1.5-0.3,2.1-0.9
			c0.6-0.6,0.9-1.5,0.9-2.7c0-0.5-0.1-0.9-0.2-1.4c-0.1-0.4-0.3-0.8-0.6-1.1c-0.2-0.3-0.5-0.5-0.9-0.7c-0.4-0.2-0.8-0.3-1.2-0.3
			c-0.7,0-1.4,0.3-1.8,0.9v-3.3h-1.1v9.3h1.1V121.7z M158.9,117.2c0.4-0.4,0.8-0.6,1.4-0.6c0.6,0,1,0.2,1.4,0.6
			c0.4,0.4,0.6,1.1,0.6,1.9c0,0.9-0.2,1.5-0.6,2c-0.4,0.4-0.8,0.6-1.4,0.6c-0.6,0-1-0.2-1.4-0.6c-0.4-0.4-0.6-1.1-0.6-1.9
			C158.3,118.3,158.5,117.7,158.9,117.2 M158,121.8c0.6,0.6,1.3,0.9,2.3,0.9c0.6,0,1.1-0.1,1.6-0.4c0.5-0.3,0.9-0.7,1.1-1.2
			c0.3-0.5,0.4-1.2,0.4-2c0-1.1-0.3-1.9-0.9-2.5c-0.6-0.6-1.3-0.9-2.3-0.9c-0.8,0-1.5,0.2-2.1,0.7c-0.7,0.6-1,1.5-1,2.8
			C157.2,120.3,157.4,121.2,158,121.8 M156,121.6c-0.2,0-0.3,0-0.4-0.1c-0.1-0.1-0.2-0.1-0.2-0.2s-0.1-0.3-0.1-0.6v-3.9h1.1v-0.9
			h-1.1v-2.4l-1.1,0.7v1.7h-0.8v0.9h0.8v3.9c0,0.7,0,1.1,0.1,1.3c0.1,0.2,0.3,0.4,0.5,0.5c0.2,0.1,0.6,0.2,1,0.2
			c0.3,0,0.5,0,0.9-0.1l-0.2-1C156.3,121.6,156.1,121.6,156,121.6 M144.7,117.2c0.4-0.5,0.8-0.7,1.3-0.7c0.5,0,0.9,0.2,1.3,0.6
			c0.4,0.4,0.5,1.1,0.5,1.9c0,0.9-0.2,1.6-0.5,2c-0.4,0.4-0.8,0.6-1.3,0.6c-0.5,0-0.9-0.2-1.3-0.6c-0.4-0.4-0.5-1.1-0.5-1.9
			C144.2,118.3,144.3,117.7,144.7,117.2 M144.3,125.1v-3.3c0.2,0.2,0.4,0.4,0.7,0.6c0.3,0.2,0.6,0.2,1,0.2c0.5,0,1-0.1,1.5-0.4
			c0.5-0.3,0.8-0.7,1.1-1.3c0.2-0.6,0.4-1.2,0.4-1.9c0-0.6-0.1-1.2-0.3-1.8c-0.2-0.5-0.6-1-1-1.3c-0.4-0.3-0.9-0.4-1.5-0.4
			c-0.4,0-0.8,0.1-1.1,0.3c-0.3,0.2-0.6,0.4-0.8,0.8v-0.9h-1v9.3H144.3z M141.3,122.5v-6.7h-1.1v3.6c0,0.6-0.1,1-0.2,1.3
			c-0.1,0.3-0.3,0.5-0.6,0.7c-0.3,0.2-0.6,0.3-1,0.3c-0.3,0-0.6-0.1-0.9-0.3c-0.2-0.2-0.4-0.4-0.5-0.7c0-0.2-0.1-0.6-0.1-1.2v-3.7
			h-1.1v4.2c0,0.5,0,0.8,0.1,1.1c0.1,0.3,0.2,0.6,0.4,0.8c0.2,0.2,0.4,0.4,0.8,0.6c0.3,0.2,0.7,0.2,1.1,0.2c0.9,0,1.6-0.4,2.1-1.1v1
			H141.3z M126.2,122.5v-3.7c0-0.9,0.2-1.4,0.5-1.8c0.4-0.3,0.8-0.5,1.3-0.5c0.3,0,0.6,0.1,0.8,0.2c0.2,0.1,0.4,0.3,0.5,0.6
			c0.1,0.2,0.1,0.6,0.1,1v4.1h1.1v-4.1c0-0.5,0-0.9-0.1-1.1c-0.1-0.3-0.2-0.6-0.4-0.8s-0.4-0.4-0.8-0.6c-0.3-0.1-0.7-0.2-1.1-0.2
			c-0.9,0-1.7,0.4-2.1,1.1v-1h-1v6.7H126.2z M119.1,117.2c0.4-0.4,0.8-0.6,1.3-0.6c0.5,0,1,0.2,1.3,0.6c0.4,0.4,0.5,1,0.5,1.9
			c0,0.9-0.2,1.5-0.5,1.9c-0.4,0.4-0.8,0.6-1.3,0.6c-0.5,0-1-0.2-1.3-0.6c-0.4-0.4-0.5-1.1-0.5-1.9
			C118.6,118.2,118.7,117.6,119.1,117.2 M118.3,124.7c0.5,0.4,1.1,0.5,1.9,0.5c0.7,0,1.2-0.1,1.7-0.4c0.5-0.3,0.8-0.6,1-1
			c0.2-0.4,0.3-1.2,0.3-2.2v-5.8h-1.1v0.8c-0.5-0.6-1.2-1-2-1c-0.6,0-1.1,0.1-1.6,0.4c-0.4,0.3-0.8,0.7-1,1.3
			c-0.2,0.5-0.3,1.1-0.3,1.8c0,0.9,0.3,1.7,0.8,2.4c0.5,0.7,1.2,1,2.2,1c0.7,0,1.4-0.3,1.9-0.9c0,0.7,0,1.2-0.1,1.5
			c-0.1,0.4-0.3,0.7-0.6,0.9c-0.3,0.2-0.7,0.3-1.2,0.3c-0.5,0-0.9-0.1-1.2-0.3c-0.2-0.2-0.3-0.4-0.4-0.7l-1.1-0.2
			C117.6,123.8,117.8,124.4,118.3,124.7 M116.1,115.8h-1.1v6.7h1.1V115.8z M116.1,113.2h-1.1v1.3h1.1V113.2z M108.9,122.2
			c0.5,0.4,1.1,0.5,2,0.5c0.5,0,1-0.1,1.4-0.3s0.7-0.4,1-0.8c0.2-0.3,0.3-0.7,0.3-1.1c0-0.4-0.1-0.7-0.3-1c-0.2-0.3-0.4-0.5-0.8-0.6
			c-0.3-0.1-0.9-0.3-1.7-0.5c-0.6-0.2-0.9-0.2-1-0.3c-0.2-0.1-0.3-0.2-0.4-0.3c-0.1-0.1-0.1-0.3-0.1-0.4c0-0.2,0.1-0.4,0.3-0.6
			c0.2-0.2,0.6-0.3,1.1-0.3c0.4,0,0.8,0.1,1,0.3c0.2,0.2,0.4,0.5,0.4,0.8l1.1-0.2c-0.1-0.4-0.2-0.8-0.4-1c-0.2-0.3-0.5-0.5-0.9-0.6
			c-0.4-0.2-0.9-0.2-1.4-0.2c-0.4,0-0.7,0-1,0.1s-0.5,0.2-0.7,0.3c-0.2,0.2-0.4,0.4-0.6,0.6c-0.1,0.3-0.2,0.5-0.2,0.8
			c0,0.3,0.1,0.6,0.3,0.9c0.2,0.3,0.4,0.5,0.7,0.6c0.3,0.2,0.9,0.3,1.7,0.6c0.6,0.2,1,0.3,1.2,0.4c0.2,0.1,0.3,0.4,0.3,0.6
			c0,0.3-0.1,0.5-0.4,0.8c-0.3,0.2-0.6,0.3-1.2,0.3c-0.5,0-0.9-0.1-1.2-0.4c-0.3-0.2-0.5-0.6-0.5-1l-1.1,0.2
			C108.1,121.3,108.4,121.8,108.9,122.2 M98.9,117.2c0.4-0.4,0.9-0.6,1.4-0.6c0.6,0,1,0.2,1.4,0.6c0.4,0.4,0.6,1.1,0.6,1.9
			c0,0.9-0.2,1.5-0.6,2c-0.4,0.4-0.8,0.6-1.4,0.6c-0.6,0-1-0.2-1.4-0.6c-0.4-0.4-0.6-1.1-0.6-1.9C98.3,118.3,98.5,117.7,98.9,117.2
			 M98,121.8c0.6,0.6,1.3,0.9,2.3,0.9c0.6,0,1.1-0.1,1.6-0.4c0.5-0.3,0.9-0.7,1.1-1.2c0.3-0.5,0.4-1.2,0.4-2c0-1.1-0.3-1.9-0.9-2.5
			c-0.6-0.6-1.3-0.9-2.3-0.9c-0.8,0-1.5,0.2-2.1,0.7c-0.7,0.6-1,1.5-1,2.8C97.2,120.3,97.5,121.2,98,121.8 M91.5,122.2
			c0.5,0.4,1.1,0.5,2,0.5c0.5,0,1-0.1,1.4-0.3c0.4-0.2,0.7-0.4,1-0.8c0.2-0.3,0.3-0.7,0.3-1.1c0-0.4-0.1-0.7-0.3-1s-0.4-0.5-0.8-0.6
			c-0.3-0.1-0.9-0.3-1.7-0.5c-0.6-0.2-0.9-0.2-1-0.3c-0.2-0.1-0.3-0.2-0.4-0.3c-0.1-0.1-0.1-0.3-0.1-0.4c0-0.2,0.1-0.4,0.3-0.6
			c0.2-0.2,0.6-0.3,1.1-0.3c0.4,0,0.8,0.1,1,0.3c0.2,0.2,0.4,0.5,0.4,0.8l1.1-0.2c-0.1-0.4-0.2-0.8-0.4-1c-0.2-0.3-0.5-0.5-0.9-0.6
			c-0.4-0.2-0.9-0.2-1.4-0.2c-0.4,0-0.7,0-1,0.1c-0.3,0.1-0.6,0.2-0.7,0.3c-0.2,0.2-0.4,0.4-0.6,0.6c-0.1,0.3-0.2,0.5-0.2,0.8
			c0,0.3,0.1,0.6,0.2,0.9c0.2,0.3,0.4,0.5,0.7,0.6c0.3,0.2,0.9,0.3,1.7,0.6c0.6,0.2,1,0.3,1.2,0.4c0.2,0.1,0.3,0.4,0.3,0.6
			c0,0.3-0.1,0.5-0.4,0.8c-0.3,0.2-0.6,0.3-1.2,0.3c-0.5,0-0.9-0.1-1.2-0.4c-0.3-0.2-0.5-0.6-0.5-1l-1.1,0.2
			C90.8,121.3,91.1,121.8,91.5,122.2 M89.3,113.2h-1.1v9.3h1.1V113.2z M85.3,119.6c0,0.5-0.1,0.9-0.2,1.1c-0.2,0.3-0.4,0.6-0.8,0.8
			c-0.3,0.2-0.7,0.3-1.2,0.3c-0.4,0-0.8-0.1-1-0.3c-0.2-0.2-0.3-0.5-0.3-0.8c0-0.2,0.1-0.4,0.2-0.5c0.1-0.2,0.3-0.3,0.5-0.4
			s0.5-0.2,1-0.2c0.8-0.1,1.5-0.3,1.9-0.4V119.6z M85.6,122.5h1.2c-0.1-0.3-0.2-0.5-0.3-0.8c0-0.3-0.1-1-0.1-2v-1.5
			c0-0.5,0-0.9-0.1-1.1c-0.1-0.3-0.2-0.6-0.4-0.8c-0.2-0.2-0.4-0.4-0.8-0.5c-0.4-0.1-0.8-0.2-1.4-0.2c-0.6,0-1.1,0.1-1.5,0.2
			c-0.4,0.2-0.8,0.4-1,0.7c-0.2,0.3-0.4,0.7-0.5,1.2l1.1,0.2c0.1-0.5,0.3-0.8,0.6-1c0.3-0.2,0.7-0.3,1.2-0.3c0.6,0,1,0.1,1.3,0.4
			c0.2,0.2,0.3,0.5,0.3,1c0,0,0,0.1,0,0.3c-0.4,0.2-1.1,0.3-2,0.4c-0.5,0.1-0.8,0.1-1,0.2c-0.3,0.1-0.6,0.2-0.8,0.4
			c-0.2,0.2-0.4,0.4-0.6,0.7c-0.1,0.3-0.2,0.6-0.2,0.9c0,0.6,0.2,1,0.6,1.4c0.4,0.4,1,0.5,1.7,0.5c0.4,0,0.9-0.1,1.3-0.2
			s0.8-0.4,1.2-0.8C85.4,122,85.5,122.3,85.6,122.5 M71.3,122.5v-3.7c0-0.9,0.2-1.4,0.5-1.8c0.4-0.3,0.8-0.5,1.3-0.5
			c0.3,0,0.6,0.1,0.8,0.2c0.2,0.1,0.4,0.3,0.5,0.6c0.1,0.2,0.1,0.6,0.1,1v4.1h1.1v-4.1c0-0.5,0-0.9-0.1-1.1
			c-0.1-0.3-0.2-0.6-0.4-0.8c-0.2-0.2-0.4-0.4-0.8-0.6c-0.3-0.1-0.7-0.2-1.1-0.2c-0.9,0-1.7,0.4-2.1,1.1v-1h-1v6.7H71.3z
			 M67.2,119.6c0,0.5-0.1,0.9-0.2,1.1c-0.2,0.3-0.4,0.6-0.8,0.8c-0.3,0.2-0.7,0.3-1.2,0.3c-0.4,0-0.8-0.1-1-0.3
			c-0.2-0.2-0.3-0.5-0.3-0.8c0-0.2,0.1-0.4,0.2-0.5c0.1-0.2,0.3-0.3,0.4-0.4c0.2-0.1,0.5-0.2,1-0.2c0.8-0.1,1.5-0.3,1.9-0.4V119.6z
			 M67.5,122.5h1.2c-0.1-0.3-0.2-0.5-0.3-0.8c0-0.3-0.1-1-0.1-2v-1.5c0-0.5,0-0.9-0.1-1.1c-0.1-0.3-0.2-0.6-0.4-0.8
			c-0.2-0.2-0.4-0.4-0.8-0.5c-0.4-0.1-0.8-0.2-1.4-0.2c-0.6,0-1.1,0.1-1.5,0.2c-0.4,0.2-0.8,0.4-1,0.7c-0.2,0.3-0.4,0.7-0.5,1.2
			l1.1,0.2c0.1-0.5,0.3-0.8,0.6-1c0.3-0.2,0.7-0.3,1.2-0.3c0.6,0,1,0.1,1.3,0.4c0.2,0.2,0.3,0.5,0.3,1c0,0,0,0.1,0,0.3
			c-0.4,0.2-1.1,0.3-2,0.4c-0.5,0.1-0.8,0.1-1,0.2c-0.3,0.1-0.6,0.2-0.8,0.4c-0.2,0.2-0.4,0.4-0.6,0.7c-0.2,0.3-0.2,0.6-0.2,0.9
			c0,0.6,0.2,1,0.6,1.4c0.4,0.4,1,0.5,1.7,0.5c0.4,0,0.9-0.1,1.3-0.2c0.4-0.1,0.8-0.4,1.2-0.8C67.3,122,67.4,122.3,67.5,122.5
			 M60.2,121.3c-0.3,0.3-0.7,0.4-1.1,0.4c-0.6,0-1-0.2-1.4-0.6c-0.3-0.4-0.5-1.1-0.5-2c0-0.9,0.2-1.5,0.5-2c0.4-0.4,0.8-0.6,1.4-0.6
			c0.4,0,0.7,0.1,1,0.3c0.3,0.2,0.5,0.6,0.6,1l1.1-0.2c-0.1-0.7-0.4-1.2-0.9-1.6c-0.5-0.4-1.1-0.6-1.8-0.6c-0.6,0-1.1,0.1-1.6,0.4
			s-0.9,0.7-1.1,1.2c-0.2,0.5-0.4,1.2-0.4,1.9c0,1.1,0.3,2,0.8,2.6c0.6,0.6,1.3,0.9,2.2,0.9c0.7,0,1.4-0.2,1.9-0.7
			c0.5-0.4,0.8-1,0.9-1.8l-1.1-0.1C60.7,120.7,60.5,121.1,60.2,121.3 M51,122.5v-6.7h-1.1v3.6c0,0.6-0.1,1-0.2,1.3
			c-0.1,0.3-0.3,0.5-0.6,0.7c-0.3,0.2-0.6,0.3-1,0.3c-0.3,0-0.6-0.1-0.9-0.3c-0.2-0.2-0.4-0.4-0.5-0.7c0-0.2-0.1-0.6-0.1-1.2v-3.7
			h-1.1v4.2c0,0.5,0,0.8,0.1,1.1c0.1,0.3,0.2,0.6,0.4,0.8c0.2,0.2,0.4,0.4,0.8,0.6c0.3,0.2,0.7,0.2,1.1,0.2c0.9,0,1.6-0.4,2.1-1.1v1
			H51z M39.6,117.2c0.4-0.4,0.9-0.6,1.4-0.6c0.6,0,1,0.2,1.4,0.6c0.4,0.4,0.6,1.1,0.6,1.9c0,0.9-0.2,1.5-0.6,2
			c-0.4,0.4-0.8,0.6-1.4,0.6c-0.6,0-1-0.2-1.4-0.6c-0.4-0.4-0.6-1.1-0.6-1.9C39.1,118.3,39.3,117.7,39.6,117.2 M38.8,121.8
			c0.6,0.6,1.3,0.9,2.3,0.9c0.6,0,1.1-0.1,1.6-0.4c0.5-0.3,0.9-0.7,1.1-1.2c0.3-0.5,0.4-1.2,0.4-2c0-1.1-0.3-1.9-0.9-2.5
			c-0.6-0.6-1.3-0.9-2.3-0.9c-0.8,0-1.5,0.2-2.1,0.7c-0.7,0.6-1,1.5-1,2.8C37.9,120.3,38.2,121.2,38.8,121.8 M34.9,122.5v-3.9
			l3.7-5.4h-1.4l-1.8,2.7c-0.4,0.6-0.7,1.2-1,1.6c-0.3-0.5-0.6-1-0.9-1.6l-1.8-2.8H30l3.6,5.4v3.9H34.9z"/>
		<path class="st0" d="M321.5,92h-1.3v1.3h1.3V92z M317,89.9c0.2,0.2,0.3,0.7,0.3,1.3c0,0.7-0.1,1.1-0.3,1.3
			c-0.2,0.2-0.4,0.4-0.7,0.4c-0.3,0-0.5-0.1-0.7-0.4c-0.2-0.2-0.3-0.7-0.3-1.3c0-0.7,0.1-1.1,0.3-1.4c0.2-0.2,0.4-0.4,0.7-0.4
			C316.5,89.5,316.8,89.6,317,89.9 M314.8,93c0.4,0.4,0.8,0.6,1.4,0.6c0.6,0,1.1-0.2,1.4-0.6c0.4-0.4,0.6-1,0.6-1.8
			c0-0.8-0.2-1.4-0.6-1.8c-0.4-0.4-0.9-0.6-1.4-0.6c-0.6,0-1.1,0.2-1.5,0.7c-0.3,0.5-0.5,1-0.5,1.7C314.3,92,314.4,92.6,314.8,93
			 M311.2,93.6l5.1-9.8h-0.9l-5.1,9.8H311.2z M310.9,85c0.2,0.2,0.3,0.7,0.3,1.3c0,0.7-0.1,1.1-0.3,1.3c-0.2,0.2-0.4,0.4-0.7,0.4
			c-0.3,0-0.5-0.1-0.7-0.4c-0.2-0.2-0.3-0.7-0.3-1.3c0-0.7,0.1-1.1,0.3-1.4c0.2-0.2,0.4-0.4,0.7-0.4C310.5,84.6,310.8,84.7,310.9,85
			 M308.8,88.1c0.4,0.4,0.8,0.6,1.4,0.6c0.6,0,1-0.2,1.4-0.6c0.4-0.4,0.6-1,0.6-1.8c0-0.8-0.2-1.4-0.6-1.8c-0.4-0.4-0.9-0.6-1.5-0.6
			c-0.6,0-1.1,0.2-1.5,0.7c-0.3,0.5-0.5,1-0.5,1.7C308.2,87.1,308.4,87.7,308.8,88.1 M302.6,85.6c0.3-0.4,0.7-0.7,1.3-0.7
			c0.5,0,1,0.3,1.3,0.8c0.4,0.5,0.5,1.5,0.5,3.1c0,1.5-0.2,2.5-0.5,3c-0.4,0.5-0.8,0.8-1.3,0.8c-0.5,0-1-0.3-1.3-0.8
			c-0.4-0.5-0.5-1.5-0.5-3.1C302,87.2,302.2,86.1,302.6,85.6 M301.7,92.5c0.5,0.6,1.2,1,2.1,1c0.7,0,1.2-0.2,1.7-0.5
			c0.4-0.4,0.8-0.9,1-1.6c0.2-0.7,0.3-1.6,0.3-2.6c0-0.9-0.1-1.7-0.2-2.2c-0.1-0.5-0.3-1-0.6-1.4c-0.2-0.4-0.6-0.7-0.9-0.9
			c-0.4-0.2-0.8-0.3-1.3-0.3c-0.7,0-1.2,0.2-1.7,0.5c-0.4,0.4-0.8,0.9-1,1.6c-0.2,0.7-0.3,1.6-0.3,2.7
			C300.8,90.5,301.1,91.7,301.7,92.5 M297.9,88.6c-0.3,0.4-0.8,0.6-1.3,0.6c-0.5,0-1-0.2-1.3-0.6c-0.4-0.4-0.5-0.9-0.5-1.4
			c0-0.7,0.2-1.2,0.6-1.6c0.4-0.4,0.8-0.6,1.3-0.6c0.5,0,0.9,0.2,1.3,0.6s0.5,0.9,0.5,1.6C298.4,87.7,298.2,88.2,297.9,88.6
			 M294.6,92.9c0.5,0.4,1.1,0.6,1.8,0.6c0.7,0,1.3-0.2,1.8-0.6c0.5-0.4,0.9-0.9,1.2-1.6c0.3-0.7,0.4-1.7,0.4-2.8
			c0-1.1-0.1-2-0.4-2.6c-0.3-0.6-0.6-1.1-1.1-1.4c-0.5-0.3-1.1-0.5-1.7-0.5c-0.8,0-1.5,0.3-2.1,0.9c-0.6,0.6-0.8,1.3-0.8,2.3
			c0,0.9,0.3,1.7,0.8,2.2c0.5,0.6,1.2,0.8,2,0.8c0.5,0,0.9-0.1,1.3-0.3c0.4-0.2,0.7-0.5,0.9-0.9c0,0.1,0,0.2,0,0.2
			c0,0.5-0.1,0.9-0.2,1.4c-0.1,0.5-0.3,0.8-0.4,1.1c-0.2,0.3-0.4,0.5-0.6,0.6c-0.3,0.2-0.6,0.2-0.9,0.2c-0.4,0-0.7-0.1-1-0.3
			c-0.3-0.2-0.4-0.6-0.5-1.1l-1.1,0.1C293.8,91.9,294.1,92.4,294.6,92.9 M283.3,93.3l1.4-5.2l0.3,1.1l1.1,4h1.2l2.1-6.7h-1.1
			l-1.2,3.9l-0.4,1.3l-0.3-1.3l-1-3.9h-1.2l-1.1,3.9c-0.2,0.9-0.3,1.3-0.3,1.4l-0.4-1.4l-1.1-3.9h-1.2l2.1,6.7H283.3z M275,88
			c0.4-0.4,0.9-0.6,1.4-0.6c0.6,0,1,0.2,1.4,0.6c0.4,0.4,0.6,1.1,0.6,1.9c0,0.9-0.2,1.5-0.6,2c-0.4,0.4-0.8,0.6-1.4,0.6
			c-0.6,0-1-0.2-1.4-0.6c-0.4-0.4-0.6-1.1-0.6-1.9C274.4,89.1,274.6,88.4,275,88 M274.1,92.5c0.6,0.6,1.3,0.9,2.3,0.9
			c0.6,0,1.1-0.1,1.6-0.4c0.5-0.3,0.9-0.7,1.1-1.2c0.3-0.5,0.4-1.2,0.4-2c0-1.1-0.3-1.9-0.9-2.5c-0.6-0.6-1.3-0.9-2.3-0.9
			c-0.8,0-1.5,0.2-2.1,0.7c-0.7,0.6-1,1.5-1,2.8C273.2,91.1,273.5,91.9,274.1,92.5 M271.9,84h-1.1v9.3h1.1V84z M265,87.9
			c0.4-0.4,0.8-0.5,1.3-0.5c0.6,0,1.1,0.2,1.4,0.7c0.2,0.3,0.4,0.7,0.4,1.3h-3.8C264.4,88.7,264.6,88.2,265,87.9 M267.4,92.2
			c-0.3,0.2-0.7,0.3-1.1,0.3c-0.6,0-1-0.2-1.4-0.6c-0.4-0.4-0.6-1-0.6-1.7h5c0-0.1,0-0.2,0-0.3c0-1.1-0.3-2-0.9-2.6
			c-0.6-0.6-1.3-0.9-2.2-0.9c-0.9,0-1.7,0.3-2.3,0.9c-0.6,0.6-0.9,1.5-0.9,2.6c0,1.1,0.3,1.9,0.9,2.6c0.6,0.6,1.4,0.9,2.3,0.9
			c0.8,0,1.4-0.2,1.9-0.6s0.8-0.9,1-1.6l-1.2-0.1C268,91.6,267.7,92,267.4,92.2 M257.9,88c0.4-0.4,0.8-0.7,1.3-0.7
			c0.5,0,0.9,0.2,1.3,0.6c0.4,0.4,0.5,1.1,0.5,1.9c0,0.9-0.2,1.5-0.5,1.9c-0.4,0.4-0.8,0.7-1.3,0.7c-0.6,0-1.1-0.3-1.5-0.9
			c-0.2-0.4-0.3-0.9-0.3-1.8C257.3,89.1,257.5,88.4,257.9,88 M257.4,92.5c0.5,0.7,1.1,1,1.9,1c0.8,0,1.5-0.3,2.1-0.9
			c0.6-0.6,0.9-1.5,0.9-2.7c0-0.5-0.1-0.9-0.2-1.4c-0.1-0.4-0.3-0.8-0.6-1.1c-0.2-0.3-0.5-0.5-0.9-0.7c-0.4-0.2-0.8-0.3-1.2-0.3
			c-0.7,0-1.4,0.3-1.8,0.9V84h-1.1v9.3h1.1V92.5z M246.6,92.9c0.5,0.4,1.1,0.5,2,0.5c0.5,0,1-0.1,1.4-0.3c0.4-0.2,0.7-0.4,1-0.8
			c0.2-0.3,0.3-0.7,0.3-1.1c0-0.4-0.1-0.7-0.3-1c-0.2-0.3-0.4-0.5-0.8-0.6c-0.3-0.1-0.9-0.3-1.7-0.5c-0.6-0.2-0.9-0.2-1-0.3
			c-0.2-0.1-0.3-0.2-0.4-0.3c-0.1-0.1-0.1-0.3-0.1-0.4c0-0.2,0.1-0.4,0.3-0.6c0.2-0.2,0.6-0.3,1.1-0.3c0.4,0,0.8,0.1,1,0.3
			c0.2,0.2,0.4,0.5,0.4,0.8l1.1-0.2c-0.1-0.4-0.2-0.8-0.4-1c-0.2-0.3-0.5-0.5-0.9-0.6c-0.4-0.2-0.9-0.2-1.4-0.2c-0.4,0-0.7,0-1,0.1
			c-0.3,0.1-0.5,0.2-0.7,0.3c-0.2,0.2-0.4,0.4-0.6,0.6c-0.1,0.3-0.2,0.5-0.2,0.8c0,0.3,0.1,0.6,0.3,0.9c0.2,0.3,0.4,0.5,0.7,0.6
			c0.3,0.2,0.9,0.3,1.7,0.6c0.6,0.2,1,0.3,1.2,0.4c0.2,0.1,0.3,0.4,0.3,0.6c0,0.3-0.1,0.5-0.4,0.8c-0.3,0.2-0.6,0.3-1.2,0.3
			c-0.5,0-0.9-0.1-1.2-0.4c-0.3-0.2-0.5-0.6-0.5-1l-1.1,0.2C245.9,92,246.2,92.5,246.6,92.9 M244.5,86.6h-1.1v6.7h1.1V86.6z
			 M244.5,84h-1.1v1.3h1.1V84z M236.5,93.3v-3.5c0-0.5,0.1-0.9,0.2-1.3c0.1-0.3,0.2-0.5,0.4-0.6c0.2-0.1,0.4-0.2,0.7-0.2
			c0.3,0,0.6,0.1,0.8,0.2l0.4-1.1c-0.4-0.2-0.8-0.4-1.2-0.4c-0.3,0-0.5,0.1-0.7,0.2c-0.2,0.2-0.5,0.5-0.7,0.9v-1h-1v6.7H236.5z
			 M229.4,88c0.4-0.4,0.9-0.6,1.4-0.6c0.6,0,1,0.2,1.4,0.6c0.4,0.4,0.6,1.1,0.6,1.9c0,0.9-0.2,1.5-0.6,2c-0.4,0.4-0.8,0.6-1.4,0.6
			c-0.6,0-1-0.2-1.4-0.6c-0.4-0.4-0.6-1.1-0.6-1.9C228.9,89.1,229.1,88.4,229.4,88 M228.6,92.5c0.6,0.6,1.3,0.9,2.3,0.9
			c0.6,0,1.1-0.1,1.6-0.4c0.5-0.3,0.9-0.7,1.1-1.2c0.3-0.5,0.4-1.2,0.4-2c0-1.1-0.3-1.9-0.9-2.5c-0.6-0.6-1.3-0.9-2.3-0.9
			c-0.8,0-1.5,0.2-2.1,0.7c-0.7,0.6-1,1.5-1,2.8C227.7,91.1,228,91.9,228.6,92.5 M226.5,92.3c-0.2,0-0.3,0-0.4-0.1
			c-0.1-0.1-0.2-0.1-0.2-0.2c0-0.1-0.1-0.3-0.1-0.6v-3.9h1.1v-0.9h-1.1v-2.4l-1.1,0.7v1.7h-0.8v0.9h0.8v3.9c0,0.7,0,1.1,0.1,1.3
			c0.1,0.2,0.3,0.4,0.5,0.5c0.2,0.1,0.6,0.2,1,0.2c0.3,0,0.5,0,0.9-0.1l-0.2-1C226.8,92.3,226.6,92.3,226.5,92.3 M221.9,92.1
			c-0.3,0.3-0.7,0.4-1.1,0.4c-0.6,0-1-0.2-1.4-0.6c-0.3-0.4-0.5-1.1-0.5-2c0-0.9,0.2-1.5,0.5-2c0.4-0.4,0.8-0.6,1.4-0.6
			c0.4,0,0.7,0.1,1,0.3c0.3,0.2,0.5,0.6,0.6,1l1.1-0.2c-0.1-0.7-0.4-1.2-0.9-1.6c-0.5-0.4-1.1-0.6-1.8-0.6c-0.6,0-1.1,0.1-1.6,0.4
			c-0.5,0.3-0.9,0.7-1.1,1.2c-0.2,0.5-0.4,1.2-0.4,1.9c0,1.1,0.3,2,0.8,2.6c0.6,0.6,1.3,0.9,2.2,0.9c0.7,0,1.4-0.2,1.9-0.7
			c0.5-0.4,0.8-1,0.9-1.8l-1.1-0.1C222.3,91.4,222.2,91.8,221.9,92.1 M215.1,90.3c0,0.5-0.1,0.9-0.2,1.1c-0.2,0.3-0.4,0.6-0.8,0.8
			c-0.3,0.2-0.7,0.3-1.2,0.3c-0.4,0-0.8-0.1-1-0.3s-0.3-0.5-0.3-0.8c0-0.2,0.1-0.4,0.2-0.5c0.1-0.2,0.3-0.3,0.4-0.4
			c0.2-0.1,0.5-0.2,1-0.2c0.8-0.1,1.5-0.3,1.9-0.4V90.3z M215.4,93.3h1.2c-0.1-0.3-0.2-0.5-0.3-0.8c0-0.3-0.1-1-0.1-2V89
			c0-0.5,0-0.9-0.1-1.1c-0.1-0.3-0.2-0.6-0.4-0.8c-0.2-0.2-0.4-0.4-0.8-0.5c-0.4-0.1-0.8-0.2-1.4-0.2c-0.6,0-1.1,0.1-1.5,0.2
			c-0.4,0.2-0.8,0.4-1,0.7c-0.2,0.3-0.4,0.7-0.5,1.2l1.1,0.2c0.1-0.5,0.3-0.8,0.6-1c0.3-0.2,0.7-0.3,1.2-0.3c0.6,0,1,0.1,1.3,0.4
			c0.2,0.2,0.3,0.5,0.3,1c0,0,0,0.1,0,0.3c-0.4,0.2-1.1,0.3-2,0.4c-0.5,0.1-0.8,0.1-1,0.2c-0.3,0.1-0.6,0.2-0.8,0.4
			c-0.2,0.2-0.4,0.4-0.6,0.7c-0.2,0.3-0.2,0.6-0.2,0.9c0,0.6,0.2,1,0.6,1.4c0.4,0.4,1,0.5,1.7,0.5c0.4,0,0.9-0.1,1.3-0.2
			c0.4-0.1,0.8-0.4,1.2-0.8C215.2,92.8,215.3,93.1,215.4,93.3 M208.6,93.3v-5.9h1.3v-0.9h-1.3v-0.6c0-0.4,0.1-0.7,0.2-0.8
			s0.4-0.2,0.7-0.2c0.2,0,0.4,0,0.7,0.1l0.2-1c-0.4-0.1-0.7-0.1-1.1-0.1c-0.5,0-0.9,0.1-1.2,0.3c-0.3,0.2-0.5,0.4-0.6,0.7
			c-0.1,0.2-0.1,0.6-0.1,1v0.7h-1v0.9h1v5.9H208.6z M200.4,93.3v-3.5c0-0.5,0.1-0.9,0.2-1.3c0.1-0.3,0.2-0.5,0.4-0.6
			c0.2-0.1,0.4-0.2,0.7-0.2c0.3,0,0.6,0.1,0.8,0.2l0.4-1.1c-0.4-0.2-0.8-0.4-1.2-0.4c-0.3,0-0.5,0.1-0.7,0.2
			c-0.2,0.2-0.5,0.5-0.7,0.9v-1h-1v6.7H200.4z M193.5,87.9c0.4-0.4,0.8-0.5,1.3-0.5c0.6,0,1.1,0.2,1.4,0.7c0.2,0.3,0.4,0.7,0.4,1.3
			h-3.8C192.9,88.7,193.1,88.2,193.5,87.9 M195.9,92.2c-0.3,0.2-0.7,0.3-1.1,0.3c-0.6,0-1-0.2-1.4-0.6c-0.4-0.4-0.6-1-0.6-1.7h5
			c0-0.1,0-0.2,0-0.3c0-1.1-0.3-2-0.9-2.6c-0.6-0.6-1.3-0.9-2.2-0.9c-0.9,0-1.7,0.3-2.3,0.9c-0.6,0.6-0.9,1.5-0.9,2.6
			c0,1.1,0.3,1.9,0.9,2.6c0.6,0.6,1.4,0.9,2.3,0.9c0.8,0,1.4-0.2,1.9-0.6c0.5-0.4,0.8-0.9,1-1.6l-1.2-0.1
			C196.5,91.6,196.2,92,195.9,92.2 M185.1,93.3l1.4-5.2l0.3,1.1l1.1,4h1.2l2.1-6.7h-1.1l-1.2,3.9l-0.4,1.3l-0.3-1.3l-1-3.9h-1.2
			l-1.1,3.9c-0.2,0.9-0.3,1.3-0.3,1.4l-0.4-1.4l-1.1-3.9h-1.2l2.1,6.7H185.1z M176.7,88c0.4-0.4,0.8-0.6,1.4-0.6
			c0.6,0,1,0.2,1.4,0.6c0.4,0.4,0.6,1.1,0.6,1.9c0,0.9-0.2,1.5-0.6,2c-0.4,0.4-0.8,0.6-1.4,0.6c-0.6,0-1-0.2-1.4-0.6
			c-0.4-0.4-0.6-1.1-0.6-1.9C176.1,89.1,176.3,88.4,176.7,88 M175.8,92.5c0.6,0.6,1.3,0.9,2.3,0.9c0.6,0,1.1-0.1,1.6-0.4
			c0.5-0.3,0.9-0.7,1.1-1.2c0.3-0.5,0.4-1.2,0.4-2c0-1.1-0.3-1.9-0.9-2.5c-0.6-0.6-1.3-0.9-2.3-0.9c-0.8,0-1.5,0.2-2.1,0.7
			c-0.7,0.6-1,1.5-1,2.8C175,91.1,175.3,91.9,175.8,92.5 M169.8,88c0.4-0.5,0.8-0.7,1.3-0.7c0.5,0,0.9,0.2,1.3,0.6
			c0.4,0.4,0.5,1.1,0.5,1.9c0,0.9-0.2,1.6-0.5,2c-0.4,0.4-0.8,0.6-1.3,0.6c-0.5,0-0.9-0.2-1.3-0.6c-0.4-0.4-0.5-1.1-0.5-1.9
			C169.2,89.1,169.4,88.4,169.8,88 M169.3,95.9v-3.3c0.2,0.2,0.4,0.4,0.7,0.6c0.3,0.2,0.6,0.2,1,0.2c0.5,0,1-0.1,1.5-0.4
			c0.5-0.3,0.8-0.7,1.1-1.3c0.2-0.6,0.4-1.2,0.4-1.9c0-0.6-0.1-1.2-0.3-1.8c-0.2-0.5-0.6-1-1-1.3c-0.4-0.3-0.9-0.4-1.5-0.4
			c-0.4,0-0.8,0.1-1.1,0.3c-0.3,0.2-0.6,0.4-0.8,0.8v-0.9h-1v9.3H169.3z M161.4,93.3v-3.5c0-0.5,0.1-0.9,0.2-1.3
			c0.1-0.3,0.2-0.5,0.4-0.6c0.2-0.1,0.4-0.2,0.7-0.2c0.3,0,0.6,0.1,0.8,0.2l0.4-1.1c-0.4-0.2-0.8-0.4-1.2-0.4
			c-0.3,0-0.5,0.1-0.7,0.2c-0.2,0.2-0.5,0.5-0.7,0.9v-1h-1v6.7H161.4z M158.5,86.6h-1.1v6.7h1.1V86.6z M158.5,84h-1.1v1.3h1.1V84z
			 M151.6,87.9c0.4-0.4,0.8-0.5,1.3-0.5c0.6,0,1.1,0.2,1.4,0.7c0.2,0.3,0.4,0.7,0.4,1.3H151C151,88.7,151.2,88.2,151.6,87.9
			 M154,92.2c-0.3,0.2-0.7,0.3-1.1,0.3c-0.6,0-1-0.2-1.4-0.6c-0.4-0.4-0.6-1-0.6-1.7h5c0-0.1,0-0.2,0-0.3c0-1.1-0.3-2-0.9-2.6
			s-1.3-0.9-2.2-0.9c-0.9,0-1.7,0.3-2.3,0.9c-0.6,0.6-0.9,1.5-0.9,2.6c0,1.1,0.3,1.9,0.9,2.6c0.6,0.6,1.4,0.9,2.3,0.9
			c0.8,0,1.4-0.2,1.9-0.6c0.5-0.4,0.8-0.9,1-1.6l-1.2-0.1C154.5,91.6,154.3,92,154,92.2 M144,93.3v-3.7c0-0.5,0.1-0.9,0.2-1.2
			c0.1-0.3,0.3-0.5,0.6-0.7c0.3-0.2,0.6-0.3,1-0.3c0.5,0,0.8,0.1,1,0.4c0.2,0.3,0.4,0.7,0.4,1.2v4.3h1.1V89c0-0.7-0.1-1.2-0.2-1.5
			c-0.2-0.3-0.4-0.6-0.8-0.8c-0.4-0.2-0.8-0.3-1.3-0.3c-0.8,0-1.5,0.3-2,0.9V84h-1.1v9.3H144z M141.3,92.3c-0.2,0-0.3,0-0.4-0.1
			c-0.1-0.1-0.2-0.1-0.2-0.2c0-0.1-0.1-0.3-0.1-0.6v-3.9h1.1v-0.9h-1.1v-2.4l-1.1,0.7v1.7h-0.8v0.9h0.8v3.9c0,0.7,0,1.1,0.1,1.3
			c0.1,0.2,0.3,0.4,0.5,0.5c0.2,0.1,0.5,0.2,1,0.2c0.3,0,0.5,0,0.9-0.1l-0.2-1C141.5,92.3,141.4,92.3,141.3,92.3 M129.9,87.9
			c0.4-0.4,0.8-0.5,1.3-0.5c0.6,0,1.1,0.2,1.4,0.7c0.2,0.3,0.4,0.7,0.4,1.3h-3.8C129.3,88.7,129.5,88.2,129.9,87.9 M132.3,92.2
			c-0.3,0.2-0.7,0.3-1.1,0.3c-0.6,0-1-0.2-1.4-0.6c-0.4-0.4-0.6-1-0.6-1.7h5c0-0.1,0-0.2,0-0.3c0-1.1-0.3-2-0.9-2.6
			c-0.6-0.6-1.3-0.9-2.2-0.9c-0.9,0-1.7,0.3-2.3,0.9c-0.6,0.6-0.9,1.5-0.9,2.6c0,1.1,0.3,1.9,0.9,2.6c0.6,0.6,1.4,0.9,2.3,0.9
			c0.8,0,1.4-0.2,1.9-0.6c0.5-0.4,0.8-0.9,1-1.6l-1.2-0.1C132.9,91.6,132.6,92,132.3,92.2 M122.3,92.9c0.5,0.4,1.1,0.5,2,0.5
			c0.5,0,1-0.1,1.4-0.3c0.4-0.2,0.7-0.4,1-0.8c0.2-0.3,0.3-0.7,0.3-1.1c0-0.4-0.1-0.7-0.3-1s-0.4-0.5-0.8-0.6
			c-0.3-0.1-0.9-0.3-1.7-0.5c-0.6-0.2-0.9-0.2-1-0.3c-0.2-0.1-0.3-0.2-0.4-0.3c-0.1-0.1-0.1-0.3-0.1-0.4c0-0.2,0.1-0.4,0.3-0.6
			c0.2-0.2,0.6-0.3,1.1-0.3c0.4,0,0.8,0.1,1,0.3c0.2,0.2,0.4,0.5,0.4,0.8l1.1-0.2c-0.1-0.4-0.2-0.8-0.4-1c-0.2-0.3-0.5-0.5-0.9-0.6
			c-0.4-0.2-0.9-0.2-1.4-0.2c-0.4,0-0.7,0-1,0.1s-0.5,0.2-0.7,0.3c-0.2,0.2-0.4,0.4-0.6,0.6c-0.1,0.3-0.2,0.5-0.2,0.8
			c0,0.3,0.1,0.6,0.3,0.9c0.2,0.3,0.4,0.5,0.7,0.6c0.3,0.2,0.9,0.3,1.7,0.6c0.6,0.2,1,0.3,1.2,0.4c0.2,0.1,0.3,0.4,0.3,0.6
			c0,0.3-0.1,0.5-0.4,0.8c-0.3,0.2-0.6,0.3-1.2,0.3c-0.5,0-0.9-0.1-1.2-0.4c-0.3-0.2-0.5-0.6-0.5-1l-1.1,0.2
			C121.6,92,121.9,92.5,122.3,92.9 M120.1,93.3v-6.7H119v3.6c0,0.6-0.1,1-0.2,1.3c-0.1,0.3-0.3,0.5-0.6,0.7c-0.3,0.2-0.6,0.3-1,0.3
			c-0.3,0-0.6-0.1-0.9-0.3c-0.2-0.2-0.4-0.4-0.5-0.7c0-0.2-0.1-0.6-0.1-1.2v-3.7h-1.1v4.2c0,0.5,0,0.8,0.1,1.1
			c0.1,0.3,0.2,0.6,0.4,0.8c0.2,0.2,0.4,0.4,0.8,0.6c0.3,0.2,0.7,0.2,1.1,0.2c0.9,0,1.6-0.4,2.1-1.1v1H120.1z M111.8,90.3
			c0,0.5-0.1,0.9-0.2,1.1c-0.2,0.3-0.4,0.6-0.8,0.8c-0.3,0.2-0.7,0.3-1.2,0.3c-0.4,0-0.8-0.1-1-0.3c-0.2-0.2-0.3-0.5-0.3-0.8
			c0-0.2,0.1-0.4,0.2-0.5c0.1-0.2,0.3-0.3,0.5-0.4s0.5-0.2,1-0.2c0.8-0.1,1.5-0.3,1.9-0.4V90.3z M112.1,93.3h1.2
			c-0.1-0.3-0.2-0.5-0.3-0.8c0-0.3-0.1-1-0.1-2V89c0-0.5,0-0.9-0.1-1.1c-0.1-0.3-0.2-0.6-0.4-0.8c-0.2-0.2-0.4-0.4-0.8-0.5
			c-0.4-0.1-0.8-0.2-1.4-0.2c-0.6,0-1.1,0.1-1.5,0.2c-0.4,0.2-0.8,0.4-1,0.7c-0.2,0.3-0.4,0.7-0.5,1.2l1.1,0.2
			c0.1-0.5,0.3-0.8,0.6-1c0.3-0.2,0.7-0.3,1.2-0.3c0.6,0,1,0.1,1.3,0.4c0.2,0.2,0.3,0.5,0.3,1c0,0,0,0.1,0,0.3
			c-0.4,0.2-1.1,0.3-2,0.4c-0.5,0.1-0.8,0.1-1,0.2c-0.3,0.1-0.6,0.2-0.8,0.4c-0.2,0.2-0.4,0.4-0.6,0.7c-0.2,0.3-0.2,0.6-0.2,0.9
			c0,0.6,0.2,1,0.6,1.4c0.4,0.4,1,0.5,1.7,0.5c0.4,0,0.9-0.1,1.3-0.2s0.8-0.4,1.2-0.8C111.9,92.8,112,93.1,112.1,93.3 M104.8,92.1
			c-0.3,0.3-0.7,0.4-1.1,0.4c-0.6,0-1-0.2-1.4-0.6c-0.3-0.4-0.5-1.1-0.5-2c0-0.9,0.2-1.5,0.5-2c0.4-0.4,0.8-0.6,1.4-0.6
			c0.4,0,0.7,0.1,1,0.3c0.3,0.2,0.5,0.6,0.6,1l1.1-0.2c-0.1-0.7-0.4-1.2-0.9-1.6c-0.5-0.4-1.1-0.6-1.8-0.6c-0.6,0-1.1,0.1-1.6,0.4
			c-0.5,0.3-0.9,0.7-1.1,1.2c-0.2,0.5-0.4,1.2-0.4,1.9c0,1.1,0.3,2,0.8,2.6c0.6,0.6,1.3,0.9,2.2,0.9c0.7,0,1.4-0.2,1.9-0.7
			s0.8-1,0.9-1.8l-1.1-0.1C105.3,91.4,105.1,91.8,104.8,92.1 M95.2,87.9c0.4-0.4,0.8-0.5,1.3-0.5c0.6,0,1.1,0.2,1.4,0.7
			c0.2,0.3,0.4,0.7,0.4,1.3h-3.8C94.6,88.7,94.8,88.2,95.2,87.9 M97.6,92.2c-0.3,0.2-0.7,0.3-1.1,0.3c-0.6,0-1-0.2-1.4-0.6
			c-0.4-0.4-0.6-1-0.6-1.7h5c0-0.1,0-0.2,0-0.3c0-1.1-0.3-2-0.9-2.6c-0.6-0.6-1.3-0.9-2.2-0.9c-0.9,0-1.7,0.3-2.3,0.9
			c-0.6,0.6-0.9,1.5-0.9,2.6c0,1.1,0.3,1.9,0.9,2.6c0.6,0.6,1.4,0.9,2.3,0.9c0.8,0,1.4-0.2,1.9-0.6c0.5-0.4,0.8-0.9,1-1.6l-1.2-0.1
			C98.2,91.6,97.9,92,97.6,92.2 M88.1,88c0.4-0.4,0.8-0.7,1.3-0.7c0.5,0,0.9,0.2,1.3,0.6c0.3,0.4,0.5,1.1,0.5,1.9
			c0,0.9-0.2,1.5-0.5,1.9c-0.4,0.4-0.8,0.7-1.3,0.7c-0.6,0-1.1-0.3-1.5-0.9c-0.2-0.4-0.3-0.9-0.3-1.8C87.5,89.1,87.7,88.4,88.1,88
			 M87.6,92.5c0.5,0.7,1.1,1,1.9,1c0.8,0,1.5-0.3,2.1-0.9c0.6-0.6,0.9-1.5,0.9-2.7c0-0.5-0.1-0.9-0.2-1.4c-0.1-0.4-0.3-0.8-0.6-1.1
			c-0.2-0.3-0.5-0.5-0.9-0.7c-0.4-0.2-0.8-0.3-1.2-0.3c-0.8,0-1.4,0.3-1.8,0.9V84h-1.1v9.3h1.1V92.5z M76.8,92.9
			c0.5,0.4,1.1,0.5,2,0.5c0.5,0,1-0.1,1.4-0.3s0.7-0.4,1-0.8c0.2-0.3,0.3-0.7,0.3-1.1c0-0.4-0.1-0.7-0.3-1s-0.4-0.5-0.8-0.6
			c-0.3-0.1-0.9-0.3-1.7-0.5c-0.6-0.2-0.9-0.2-1-0.3c-0.2-0.1-0.3-0.2-0.4-0.3c-0.1-0.1-0.1-0.3-0.1-0.4c0-0.2,0.1-0.4,0.3-0.6
			c0.2-0.2,0.6-0.3,1.1-0.3c0.4,0,0.8,0.1,1,0.3c0.2,0.2,0.4,0.5,0.4,0.8l1.1-0.2c-0.1-0.4-0.2-0.8-0.4-1c-0.2-0.3-0.5-0.5-0.9-0.6
			c-0.4-0.2-0.9-0.2-1.4-0.2c-0.4,0-0.7,0-1,0.1c-0.3,0.1-0.6,0.2-0.7,0.3c-0.2,0.2-0.4,0.4-0.6,0.6c-0.1,0.3-0.2,0.5-0.2,0.8
			c0,0.3,0.1,0.6,0.2,0.9c0.2,0.3,0.4,0.5,0.7,0.6c0.3,0.2,0.9,0.3,1.7,0.6c0.6,0.2,1,0.3,1.2,0.4c0.2,0.1,0.3,0.4,0.3,0.6
			c0,0.3-0.1,0.5-0.4,0.8c-0.3,0.2-0.6,0.3-1.2,0.3c-0.5,0-0.9-0.1-1.2-0.4c-0.3-0.2-0.5-0.6-0.5-1l-1.1,0.2
			C76.1,92,76.4,92.5,76.8,92.9 M74.8,92.3c-0.2,0-0.3,0-0.4-0.1c-0.1-0.1-0.2-0.1-0.2-0.2c0-0.1-0.1-0.3-0.1-0.6v-3.9h1.1v-0.9
			h-1.1v-2.4L73,84.9v1.7h-0.8v0.9H73v3.9c0,0.7,0,1.1,0.1,1.3c0.1,0.2,0.3,0.4,0.5,0.5c0.2,0.1,0.6,0.2,1,0.2c0.3,0,0.5,0,0.9-0.1
			l-0.2-1C75.1,92.3,74.9,92.3,74.8,92.3 M66.7,93.3v-3.7c0-0.9,0.2-1.4,0.5-1.8c0.4-0.3,0.8-0.5,1.3-0.5c0.3,0,0.6,0.1,0.8,0.2
			c0.2,0.1,0.4,0.3,0.5,0.6c0.1,0.2,0.1,0.6,0.1,1v4.1H71v-4.1c0-0.5,0-0.9-0.1-1.1c-0.1-0.3-0.2-0.6-0.4-0.8
			c-0.2-0.2-0.4-0.4-0.8-0.6c-0.3-0.1-0.7-0.2-1.1-0.2c-0.9,0-1.7,0.4-2.1,1.1v-1h-1v6.7H66.7z M63.8,93.3v-6.7h-1.1v3.6
			c0,0.6-0.1,1-0.2,1.3c-0.1,0.3-0.3,0.5-0.6,0.7c-0.3,0.2-0.6,0.3-1,0.3c-0.3,0-0.6-0.1-0.9-0.3c-0.2-0.2-0.4-0.4-0.5-0.7
			c0-0.2-0.1-0.6-0.1-1.2v-3.7h-1.1v4.2c0,0.5,0,0.8,0.1,1.1c0.1,0.3,0.2,0.6,0.4,0.8c0.2,0.2,0.4,0.4,0.8,0.6
			c0.3,0.2,0.7,0.2,1.1,0.2c0.9,0,1.6-0.4,2.1-1.1v1H63.8z M52.4,88c0.4-0.4,0.8-0.6,1.4-0.6c0.6,0,1,0.2,1.4,0.6
			c0.4,0.4,0.6,1.1,0.6,1.9c0,0.9-0.2,1.5-0.6,2c-0.4,0.4-0.8,0.6-1.4,0.6c-0.6,0-1-0.2-1.4-0.6c-0.4-0.4-0.6-1.1-0.6-1.9
			C51.8,89.1,52,88.4,52.4,88 M51.5,92.5c0.6,0.6,1.3,0.9,2.3,0.9c0.6,0,1.1-0.1,1.6-0.4c0.5-0.3,0.9-0.7,1.1-1.2
			c0.3-0.5,0.4-1.2,0.4-2c0-1.1-0.3-1.9-0.9-2.5c-0.6-0.6-1.3-0.9-2.3-0.9c-0.8,0-1.5,0.2-2.1,0.7c-0.7,0.6-1,1.5-1,2.8
			C50.7,91.1,51,91.9,51.5,92.5 M48.4,92.1c-0.3,0.3-0.7,0.4-1.1,0.4c-0.6,0-1-0.2-1.4-0.6c-0.3-0.4-0.5-1.1-0.5-2
			c0-0.9,0.2-1.5,0.5-2c0.4-0.4,0.8-0.6,1.4-0.6c0.4,0,0.7,0.1,1,0.3c0.3,0.2,0.5,0.6,0.6,1l1.1-0.2c-0.1-0.7-0.4-1.2-0.9-1.6
			c-0.5-0.4-1.1-0.6-1.8-0.6c-0.6,0-1.1,0.1-1.6,0.4c-0.5,0.3-0.9,0.7-1.1,1.2c-0.2,0.5-0.4,1.2-0.4,1.9c0,1.1,0.3,2,0.8,2.6
			c0.6,0.6,1.3,0.9,2.2,0.9c0.7,0,1.4-0.2,1.9-0.7c0.5-0.4,0.8-1,0.9-1.8L49,90.8C48.9,91.4,48.7,91.8,48.4,92.1 M41.9,92.1
			c-0.3,0.3-0.7,0.4-1.1,0.4c-0.6,0-1-0.2-1.4-0.6c-0.3-0.4-0.5-1.1-0.5-2c0-0.9,0.2-1.5,0.5-2c0.4-0.4,0.8-0.6,1.4-0.6
			c0.4,0,0.7,0.1,1,0.3c0.3,0.2,0.5,0.6,0.6,1l1.1-0.2c-0.1-0.7-0.4-1.2-0.9-1.6c-0.5-0.4-1.1-0.6-1.8-0.6c-0.6,0-1.1,0.1-1.6,0.4
			c-0.5,0.3-0.9,0.7-1.1,1.2c-0.2,0.5-0.4,1.2-0.4,1.9c0,1.1,0.3,2,0.8,2.6c0.6,0.6,1.3,0.9,2.2,0.9c0.7,0,1.4-0.2,1.9-0.7
			c0.5-0.4,0.8-1,0.9-1.8l-1.1-0.1C42.4,91.4,42.2,91.8,41.9,92.1 M35.2,90.3c0,0.5-0.1,0.9-0.2,1.1c-0.2,0.3-0.4,0.6-0.8,0.8
			c-0.3,0.2-0.7,0.3-1.2,0.3c-0.4,0-0.8-0.1-1-0.3c-0.2-0.2-0.3-0.5-0.3-0.8c0-0.2,0.1-0.4,0.2-0.5c0.1-0.2,0.3-0.3,0.5-0.4
			c0.2-0.1,0.5-0.2,1-0.2c0.8-0.1,1.5-0.3,1.9-0.4V90.3z M35.5,93.3h1.2c-0.1-0.3-0.2-0.5-0.3-0.8c0-0.3-0.1-1-0.1-2V89
			c0-0.5,0-0.9-0.1-1.1c-0.1-0.3-0.2-0.6-0.4-0.8c-0.2-0.2-0.4-0.4-0.8-0.5c-0.4-0.1-0.8-0.2-1.4-0.2c-0.6,0-1.1,0.1-1.5,0.2
			c-0.4,0.2-0.8,0.4-1,0.7c-0.2,0.3-0.4,0.7-0.5,1.2l1.1,0.2c0.1-0.5,0.3-0.8,0.6-1c0.3-0.2,0.7-0.3,1.2-0.3c0.6,0,1,0.1,1.3,0.4
			c0.2,0.2,0.3,0.5,0.3,1c0,0,0,0.1,0,0.3c-0.4,0.2-1.1,0.3-2,0.4c-0.5,0.1-0.8,0.1-1,0.2c-0.3,0.1-0.6,0.2-0.8,0.4
			c-0.2,0.2-0.4,0.4-0.6,0.7c-0.2,0.3-0.2,0.6-0.2,0.9c0,0.6,0.2,1,0.6,1.4c0.4,0.4,1,0.5,1.7,0.5c0.4,0,0.9-0.1,1.3-0.2
			c0.4-0.1,0.8-0.4,1.2-0.8C35.3,92.8,35.4,93.1,35.5,93.3"/>
		<path class="st0" d="M427.2,73.8v-3.5c0-0.5,0.1-0.9,0.2-1.3c0.1-0.3,0.2-0.5,0.4-0.6c0.2-0.1,0.4-0.2,0.7-0.2
			c0.3,0,0.6,0.1,0.8,0.2l0.4-1.1c-0.4-0.2-0.8-0.4-1.2-0.4c-0.3,0-0.5,0.1-0.7,0.2c-0.2,0.2-0.5,0.5-0.7,0.9v-1h-1v6.7H427.2z
			 M420.3,68.4c0.4-0.4,0.8-0.5,1.3-0.5c0.6,0,1.1,0.2,1.4,0.7c0.2,0.3,0.4,0.7,0.4,1.3h-3.8C419.8,69.2,420,68.7,420.3,68.4
			 M422.8,72.7c-0.3,0.2-0.7,0.3-1.1,0.3c-0.6,0-1-0.2-1.4-0.6c-0.4-0.4-0.6-1-0.6-1.7h5c0-0.1,0-0.2,0-0.3c0-1.1-0.3-2-0.9-2.6
			c-0.6-0.6-1.3-0.9-2.2-0.9c-0.9,0-1.7,0.3-2.3,0.9c-0.6,0.6-0.9,1.5-0.9,2.6c0,1.1,0.3,1.9,0.9,2.6c0.6,0.6,1.4,0.9,2.3,0.9
			c0.8,0,1.4-0.2,1.9-0.6s0.8-0.9,1-1.6l-1.2-0.1C423.3,72.1,423.1,72.5,422.8,72.7 M413.2,68.5c0.4-0.4,0.8-0.7,1.3-0.7
			c0.5,0,0.9,0.2,1.3,0.6c0.4,0.4,0.5,1.1,0.5,1.9c0,0.9-0.2,1.5-0.5,1.9c-0.4,0.4-0.8,0.7-1.3,0.7c-0.6,0-1.1-0.3-1.5-0.9
			c-0.2-0.4-0.3-0.9-0.3-1.8C412.7,69.6,412.9,68.9,413.2,68.5 M412.7,73c0.5,0.7,1.1,1,1.9,1c0.8,0,1.5-0.3,2.1-0.9
			c0.6-0.6,0.9-1.5,0.9-2.7c0-0.5-0.1-0.9-0.2-1.4c-0.1-0.4-0.3-0.8-0.6-1.1c-0.2-0.3-0.5-0.5-0.9-0.7c-0.4-0.2-0.8-0.3-1.2-0.3
			c-0.7,0-1.4,0.3-1.8,0.9v-3.3h-1.1v9.3h1.1V73z M402,73.8v-3.5c0-0.6,0.1-1.1,0.2-1.4c0.1-0.3,0.3-0.6,0.6-0.7
			c0.3-0.2,0.6-0.3,0.9-0.3c0.4,0,0.7,0.1,0.9,0.4c0.2,0.3,0.3,0.6,0.3,1.1v4.4h1.1v-3.9c0-0.7,0.2-1.2,0.5-1.5
			c0.3-0.3,0.7-0.5,1.2-0.5c0.3,0,0.5,0.1,0.7,0.2c0.2,0.1,0.3,0.3,0.4,0.5s0.1,0.5,0.1,1v4.2h1.1v-4.6c0-0.8-0.2-1.3-0.5-1.7
			c-0.4-0.4-0.9-0.6-1.5-0.6c-0.9,0-1.5,0.4-2.1,1.2c-0.1-0.4-0.4-0.7-0.7-0.9c-0.3-0.2-0.7-0.3-1.2-0.3c-0.4,0-0.8,0.1-1.2,0.3
			c-0.4,0.2-0.6,0.5-0.8,0.8v-0.9h-1v6.7H402z M395.1,68.4c0.4-0.4,0.8-0.5,1.3-0.5c0.6,0,1.1,0.2,1.4,0.7c0.2,0.3,0.4,0.7,0.4,1.3
			h-3.8C394.5,69.2,394.7,68.7,395.1,68.4 M397.5,72.7c-0.3,0.2-0.7,0.3-1.1,0.3c-0.6,0-1-0.2-1.4-0.6c-0.4-0.4-0.6-1-0.6-1.7h5
			c0-0.1,0-0.2,0-0.3c0-1.1-0.3-2-0.9-2.6c-0.6-0.6-1.3-0.9-2.2-0.9c-0.9,0-1.7,0.3-2.3,0.9c-0.6,0.6-0.9,1.5-0.9,2.6
			c0,1.1,0.3,1.9,0.9,2.6c0.6,0.6,1.4,0.9,2.3,0.9c0.8,0,1.4-0.2,1.9-0.6c0.5-0.4,0.8-0.9,1-1.6l-1.2-0.1
			C398,72.1,397.8,72.5,397.5,72.7 M383.9,73.8v-3.5c0-0.6,0.1-1.1,0.2-1.4c0.1-0.3,0.3-0.6,0.6-0.7c0.3-0.2,0.6-0.3,0.9-0.3
			c0.4,0,0.7,0.1,0.9,0.4c0.2,0.3,0.3,0.6,0.3,1.1v4.4h1.1v-3.9c0-0.7,0.2-1.2,0.5-1.5c0.3-0.3,0.7-0.5,1.2-0.5
			c0.3,0,0.5,0.1,0.7,0.2c0.2,0.1,0.3,0.3,0.4,0.5s0.1,0.5,0.1,1v4.2h1.1v-4.6c0-0.8-0.2-1.3-0.5-1.7c-0.4-0.4-0.9-0.6-1.5-0.6
			c-0.9,0-1.5,0.4-2.1,1.2c-0.1-0.4-0.4-0.7-0.7-0.9c-0.3-0.2-0.7-0.3-1.2-0.3c-0.4,0-0.8,0.1-1.2,0.3c-0.4,0.2-0.6,0.5-0.8,0.8
			v-0.9h-1v6.7H383.9z M376,73.8v-3.5c0-0.5,0.1-0.9,0.2-1.3c0.1-0.3,0.2-0.5,0.4-0.6c0.2-0.1,0.4-0.2,0.7-0.2
			c0.3,0,0.6,0.1,0.8,0.2l0.4-1.1c-0.4-0.2-0.8-0.4-1.2-0.4c-0.3,0-0.5,0.1-0.7,0.2c-0.2,0.2-0.5,0.5-0.7,0.9v-1h-1v6.7H376z
			 M373,73.8v-6.7h-1.1v3.6c0,0.6-0.1,1-0.2,1.3c-0.1,0.3-0.3,0.5-0.6,0.7c-0.3,0.2-0.6,0.3-1,0.3c-0.3,0-0.6-0.1-0.9-0.3
			c-0.2-0.2-0.4-0.4-0.5-0.7c0-0.2-0.1-0.6-0.1-1.2v-3.7h-1.1v4.2c0,0.5,0,0.8,0.1,1.1c0.1,0.3,0.2,0.6,0.4,0.8
			c0.2,0.2,0.4,0.4,0.8,0.6c0.3,0.2,0.7,0.2,1.1,0.2c0.9,0,1.6-0.4,2.1-1.1v1H373z M361.7,68.5c0.4-0.4,0.9-0.6,1.4-0.6
			c0.6,0,1,0.2,1.4,0.6c0.4,0.4,0.6,1.1,0.6,1.9c0,0.9-0.2,1.5-0.6,2c-0.4,0.4-0.8,0.6-1.4,0.6c-0.6,0-1-0.2-1.4-0.6
			c-0.4-0.4-0.6-1.1-0.6-1.9C361.1,69.6,361.3,68.9,361.7,68.5 M360.8,73c0.6,0.6,1.3,0.9,2.3,0.9c0.6,0,1.1-0.1,1.6-0.4
			c0.5-0.3,0.9-0.7,1.1-1.2c0.3-0.5,0.4-1.2,0.4-2c0-1.1-0.3-1.9-0.9-2.5c-0.6-0.6-1.3-0.9-2.3-0.9c-0.8,0-1.5,0.2-2.1,0.7
			c-0.7,0.6-1,1.5-1,2.8C359.9,71.6,360.2,72.4,360.8,73 M354.5,76.5c0.4,0,0.7-0.1,0.9-0.3c0.3-0.2,0.5-0.5,0.7-0.8
			c0.2-0.3,0.4-0.8,0.6-1.5l2.6-6.9h-1.1l-1.4,3.9c-0.2,0.5-0.3,1-0.5,1.5c-0.1-0.5-0.3-1.1-0.5-1.6l-1.4-3.9h-1.2l2.6,6.8
			c0,0.1-0.1,0.2-0.1,0.3c-0.2,0.5-0.3,0.7-0.3,0.9c-0.1,0.2-0.2,0.3-0.4,0.4c-0.2,0.1-0.4,0.1-0.6,0.1c-0.2,0-0.4,0-0.7-0.1
			l0.1,1.1C354.1,76.5,354.3,76.5,354.5,76.5 M348,73.8v-5.9h1.3v-0.9H348v-0.6c0-0.4,0.1-0.7,0.2-0.8c0.1-0.1,0.4-0.2,0.7-0.2
			c0.2,0,0.4,0,0.7,0.1l0.2-1c-0.4-0.1-0.7-0.1-1.1-0.1c-0.5,0-0.9,0.1-1.2,0.3c-0.3,0.2-0.5,0.4-0.6,0.7c-0.1,0.2-0.1,0.6-0.1,1
			v0.7h-1v0.9h1v5.9H348z M340.7,68.5c0.4-0.4,0.9-0.6,1.4-0.6c0.6,0,1,0.2,1.4,0.6c0.4,0.4,0.6,1.1,0.6,1.9c0,0.9-0.2,1.5-0.6,2
			c-0.4,0.4-0.8,0.6-1.4,0.6c-0.6,0-1-0.2-1.4-0.6c-0.4-0.4-0.6-1.1-0.6-1.9C340.2,69.6,340.3,68.9,340.7,68.5 M339.9,73
			c0.6,0.6,1.3,0.9,2.3,0.9c0.6,0,1.1-0.1,1.6-0.4c0.5-0.3,0.9-0.7,1.1-1.2c0.3-0.5,0.4-1.2,0.4-2c0-1.1-0.3-1.9-0.9-2.5
			c-0.6-0.6-1.3-0.9-2.3-0.9c-0.8,0-1.5,0.2-2.1,0.7c-0.7,0.6-1,1.5-1,2.8C339,71.6,339.3,72.4,339.9,73 M330,68.4
			c0.4-0.4,0.8-0.5,1.3-0.5c0.6,0,1.1,0.2,1.4,0.7c0.2,0.3,0.4,0.7,0.4,1.3h-3.8C329.5,69.2,329.7,68.7,330,68.4 M332.5,72.7
			c-0.3,0.2-0.7,0.3-1.1,0.3c-0.6,0-1-0.2-1.4-0.6c-0.4-0.4-0.6-1-0.6-1.7h5c0-0.1,0-0.2,0-0.3c0-1.1-0.3-2-0.9-2.6
			c-0.6-0.6-1.3-0.9-2.2-0.9c-0.9,0-1.7,0.3-2.3,0.9c-0.6,0.6-0.9,1.5-0.9,2.6c0,1.1,0.3,1.9,0.9,2.6c0.6,0.6,1.4,0.9,2.3,0.9
			c0.8,0,1.4-0.2,1.9-0.6c0.5-0.4,0.8-0.9,1-1.6l-1.2-0.1C333,72.1,332.8,72.5,332.5,72.7 M325.4,73.8v-3.5c0-0.5,0.1-0.9,0.2-1.3
			c0.1-0.3,0.2-0.5,0.4-0.6c0.2-0.1,0.4-0.2,0.7-0.2c0.3,0,0.6,0.1,0.8,0.2l0.4-1.1c-0.4-0.2-0.8-0.4-1.2-0.4
			c-0.3,0-0.5,0.1-0.7,0.2c-0.2,0.2-0.5,0.5-0.7,0.9v-1h-1v6.7H325.4z M318.3,68.5c0.4-0.4,0.9-0.6,1.4-0.6c0.6,0,1,0.2,1.4,0.6
			c0.4,0.4,0.6,1.1,0.6,1.9c0,0.9-0.2,1.5-0.6,2c-0.4,0.4-0.8,0.6-1.4,0.6c-0.6,0-1-0.2-1.4-0.6c-0.4-0.4-0.6-1.1-0.6-1.9
			C317.8,69.6,317.9,68.9,318.3,68.5 M317.5,73c0.6,0.6,1.3,0.9,2.3,0.9c0.6,0,1.1-0.1,1.6-0.4c0.5-0.3,0.9-0.7,1.1-1.2
			c0.3-0.5,0.4-1.2,0.4-2c0-1.1-0.3-1.9-0.9-2.5c-0.6-0.6-1.3-0.9-2.3-0.9c-0.8,0-1.5,0.2-2.1,0.7c-0.7,0.6-1,1.5-1,2.8
			C316.6,71.6,316.9,72.4,317.5,73 M307.3,73.8v-3.5c0-0.6,0.1-1.1,0.2-1.4c0.1-0.3,0.3-0.6,0.6-0.7c0.3-0.2,0.6-0.3,0.9-0.3
			c0.4,0,0.7,0.1,0.9,0.4c0.2,0.3,0.3,0.6,0.3,1.1v4.4h1.1v-3.9c0-0.7,0.2-1.2,0.5-1.5c0.3-0.3,0.7-0.5,1.2-0.5
			c0.3,0,0.5,0.1,0.7,0.2c0.2,0.1,0.3,0.3,0.4,0.5c0.1,0.2,0.1,0.5,0.1,1v4.2h1.1v-4.6c0-0.8-0.2-1.3-0.5-1.7
			c-0.4-0.4-0.9-0.6-1.5-0.6c-0.9,0-1.5,0.4-2.1,1.2c-0.1-0.4-0.4-0.7-0.7-0.9c-0.3-0.2-0.7-0.3-1.2-0.3c-0.4,0-0.8,0.1-1.2,0.3
			c-0.4,0.2-0.6,0.5-0.8,0.8v-0.9h-1v6.7H307.3z M299.4,73.8v-3.5c0-0.5,0.1-0.9,0.2-1.3c0.1-0.3,0.2-0.5,0.4-0.6
			c0.2-0.1,0.4-0.2,0.7-0.2c0.3,0,0.6,0.1,0.8,0.2l0.4-1.1c-0.4-0.2-0.8-0.4-1.2-0.4c-0.3,0-0.5,0.1-0.7,0.2
			c-0.2,0.2-0.5,0.5-0.7,0.9v-1h-1v6.7H299.4z M292.3,68.5c0.4-0.4,0.9-0.6,1.4-0.6c0.6,0,1,0.2,1.4,0.6c0.4,0.4,0.6,1.1,0.6,1.9
			c0,0.9-0.2,1.5-0.6,2c-0.4,0.4-0.8,0.6-1.4,0.6c-0.6,0-1-0.2-1.4-0.6c-0.4-0.4-0.6-1.1-0.6-1.9C291.8,69.6,291.9,68.9,292.3,68.5
			 M291.5,73c0.6,0.6,1.3,0.9,2.3,0.9c0.6,0,1.1-0.1,1.6-0.4c0.5-0.3,0.9-0.7,1.1-1.2c0.3-0.5,0.4-1.2,0.4-2c0-1.1-0.3-1.9-0.9-2.5
			c-0.6-0.6-1.3-0.9-2.3-0.9c-0.8,0-1.5,0.2-2.1,0.7c-0.7,0.6-1,1.5-1,2.8C290.6,71.6,290.9,72.4,291.5,73 M281.6,68.4
			c0.4-0.4,0.8-0.5,1.3-0.5c0.6,0,1.1,0.2,1.4,0.7c0.2,0.3,0.4,0.7,0.4,1.3H281C281.1,69.2,281.3,68.7,281.6,68.4 M284.1,72.7
			c-0.3,0.2-0.7,0.3-1.1,0.3c-0.6,0-1-0.2-1.4-0.6c-0.4-0.4-0.6-1-0.6-1.7h5c0-0.1,0-0.2,0-0.3c0-1.1-0.3-2-0.9-2.6
			c-0.6-0.6-1.3-0.9-2.2-0.9c-0.9,0-1.7,0.3-2.3,0.9c-0.6,0.6-0.9,1.5-0.9,2.6c0,1.1,0.3,1.9,0.9,2.6c0.6,0.6,1.4,0.9,2.3,0.9
			c0.8,0,1.4-0.2,1.9-0.6c0.5-0.4,0.8-0.9,1-1.6l-1.2-0.1C284.6,72.1,284.4,72.5,284.1,72.7 M274.1,73.8v-3.7c0-0.9,0.2-1.4,0.5-1.8
			c0.4-0.3,0.8-0.5,1.3-0.5c0.3,0,0.6,0.1,0.8,0.2c0.2,0.1,0.4,0.3,0.5,0.6c0.1,0.2,0.1,0.6,0.1,1v4.1h1.1v-4.1c0-0.5,0-0.9-0.1-1.1
			c-0.1-0.3-0.2-0.6-0.4-0.8s-0.4-0.4-0.8-0.6c-0.3-0.1-0.7-0.2-1.1-0.2c-0.9,0-1.7,0.4-2.1,1.1v-1h-1v6.7H274.1z M267,68.5
			c0.4-0.4,0.9-0.6,1.4-0.6c0.6,0,1,0.2,1.4,0.6c0.4,0.4,0.6,1.1,0.6,1.9c0,0.9-0.2,1.5-0.6,2c-0.4,0.4-0.8,0.6-1.4,0.6
			c-0.6,0-1-0.2-1.4-0.6c-0.4-0.4-0.6-1.1-0.6-1.9C266.5,69.6,266.6,68.9,267,68.5 M266.2,73c0.6,0.6,1.3,0.9,2.3,0.9
			c0.6,0,1.1-0.1,1.6-0.4c0.5-0.3,0.9-0.7,1.1-1.2c0.3-0.5,0.4-1.2,0.4-2c0-1.1-0.3-1.9-0.9-2.5c-0.6-0.6-1.3-0.9-2.3-0.9
			c-0.8,0-1.5,0.2-2.1,0.7c-0.7,0.6-1,1.5-1,2.8C265.3,71.6,265.6,72.4,266.2,73 M256.2,68.5c0.4-0.4,0.9-0.6,1.4-0.6
			c0.6,0,1,0.2,1.4,0.6c0.4,0.4,0.6,1.1,0.6,1.9c0,0.9-0.2,1.5-0.6,2c-0.4,0.4-0.8,0.6-1.4,0.6c-0.6,0-1-0.2-1.4-0.6
			c-0.4-0.4-0.6-1.1-0.6-1.9C255.6,69.6,255.8,68.9,256.2,68.5 M255.3,73c0.6,0.6,1.3,0.9,2.3,0.9c0.6,0,1.1-0.1,1.6-0.4
			c0.5-0.3,0.9-0.7,1.1-1.2c0.3-0.5,0.4-1.2,0.4-2c0-1.1-0.3-1.9-0.9-2.5c-0.6-0.6-1.3-0.9-2.3-0.9c-0.8,0-1.5,0.2-2.1,0.7
			c-0.7,0.6-1,1.5-1,2.8C254.4,71.6,254.7,72.4,255.3,73 M253.2,72.8c-0.2,0-0.3,0-0.4-0.1c-0.1-0.1-0.2-0.1-0.2-0.2
			c0-0.1-0.1-0.3-0.1-0.6v-3.9h1.1v-0.9h-1.1v-2.4l-1.1,0.7v1.7h-0.8v0.9h0.8v3.9c0,0.7,0,1.1,0.1,1.3c0.1,0.2,0.3,0.4,0.5,0.5
			c0.2,0.1,0.6,0.2,1,0.2c0.3,0,0.5,0,0.9-0.1l-0.2-1C253.5,72.8,253.4,72.8,253.2,72.8 M241.7,68.5c0.3-0.4,0.8-0.6,1.3-0.6
			c0.5,0,1,0.2,1.3,0.6c0.4,0.4,0.5,1.1,0.5,2c0,0.8-0.2,1.5-0.5,1.9c-0.3,0.4-0.8,0.6-1.3,0.6c-0.5,0-0.9-0.2-1.3-0.6
			c-0.4-0.4-0.5-1.1-0.5-1.9C241.2,69.5,241.3,68.9,241.7,68.5 M245.8,73.8v-9.3h-1.1v3.3c-0.2-0.3-0.5-0.5-0.8-0.7
			c-0.3-0.2-0.7-0.3-1.1-0.3c-0.6,0-1.1,0.1-1.5,0.4c-0.4,0.3-0.8,0.7-1,1.3c-0.2,0.5-0.3,1.2-0.3,1.8c0,0.7,0.1,1.3,0.4,1.8
			c0.2,0.5,0.6,0.9,1,1.2c0.4,0.3,0.9,0.4,1.5,0.4c0.8,0,1.5-0.3,1.9-1v0.9H245.8z M234.6,68.4c0.4-0.4,0.8-0.5,1.3-0.5
			c0.6,0,1.1,0.2,1.4,0.7c0.2,0.3,0.4,0.7,0.4,1.3H234C234.1,69.2,234.3,68.7,234.6,68.4 M237.1,72.7c-0.3,0.2-0.7,0.3-1.1,0.3
			c-0.6,0-1-0.2-1.4-0.6c-0.4-0.4-0.6-1-0.6-1.7h5c0-0.1,0-0.2,0-0.3c0-1.1-0.3-2-0.9-2.6s-1.3-0.9-2.2-0.9c-0.9,0-1.7,0.3-2.3,0.9
			c-0.6,0.6-0.9,1.5-0.9,2.6c0,1.1,0.3,1.9,0.9,2.6c0.6,0.6,1.4,0.9,2.3,0.9c0.8,0,1.4-0.2,1.9-0.6c0.5-0.4,0.8-0.9,1-1.6l-1.2-0.1
			C237.6,72.1,237.4,72.5,237.1,72.7 M231.4,67.1h-1.1v6.7h1.1V67.1z M231.4,64.5h-1.1v1.3h1.1V64.5z M228.5,64.5h-1.1v9.3h1.1V64.5
			z M221.8,68.5c0.4-0.5,0.8-0.7,1.3-0.7c0.5,0,0.9,0.2,1.3,0.6c0.4,0.4,0.5,1.1,0.5,1.9c0,0.9-0.2,1.6-0.5,2
			c-0.4,0.4-0.8,0.6-1.3,0.6c-0.5,0-0.9-0.2-1.3-0.6c-0.4-0.4-0.5-1.1-0.5-1.9C221.2,69.6,221.4,68.9,221.8,68.5 M221.3,76.4v-3.3
			c0.2,0.2,0.4,0.4,0.7,0.6c0.3,0.2,0.6,0.2,1,0.2c0.5,0,1-0.1,1.5-0.4c0.5-0.3,0.8-0.7,1.1-1.3c0.2-0.6,0.4-1.2,0.4-1.9
			c0-0.6-0.1-1.2-0.3-1.8c-0.2-0.5-0.6-1-1-1.3c-0.4-0.3-0.9-0.4-1.5-0.4c-0.4,0-0.8,0.1-1.1,0.3c-0.3,0.2-0.6,0.4-0.8,0.8v-0.9h-1
			v9.3H221.3z M214.5,68.5c0.4-0.5,0.8-0.7,1.3-0.7c0.5,0,0.9,0.2,1.3,0.6c0.4,0.4,0.5,1.1,0.5,1.9c0,0.9-0.2,1.6-0.5,2
			c-0.4,0.4-0.8,0.6-1.3,0.6c-0.5,0-0.9-0.2-1.3-0.6c-0.4-0.4-0.5-1.1-0.5-1.9C214,69.6,214.2,68.9,214.5,68.5 M214.1,76.4v-3.3
			c0.2,0.2,0.4,0.4,0.7,0.6c0.3,0.2,0.6,0.2,1,0.2c0.5,0,1-0.1,1.5-0.4c0.5-0.3,0.8-0.7,1.1-1.3c0.2-0.6,0.4-1.2,0.4-1.9
			c0-0.6-0.1-1.2-0.3-1.8c-0.2-0.5-0.6-1-1-1.3c-0.4-0.3-0.9-0.4-1.5-0.4c-0.4,0-0.8,0.1-1.1,0.3c-0.3,0.2-0.6,0.4-0.8,0.8v-0.9h-1
			v9.3H214.1z M210,70.8c0,0.5-0.1,0.9-0.2,1.1c-0.2,0.3-0.4,0.6-0.8,0.8c-0.3,0.2-0.7,0.3-1.2,0.3c-0.4,0-0.8-0.1-1-0.3
			c-0.2-0.2-0.3-0.5-0.3-0.8c0-0.2,0.1-0.4,0.2-0.5c0.1-0.2,0.3-0.3,0.5-0.4c0.2-0.1,0.5-0.2,1-0.2c0.8-0.1,1.5-0.3,1.9-0.4V70.8z
			 M210.3,73.8h1.2c-0.1-0.3-0.2-0.5-0.3-0.8c0-0.3-0.1-1-0.1-2v-1.5c0-0.5,0-0.9-0.1-1.1c-0.1-0.3-0.2-0.6-0.4-0.8
			c-0.2-0.2-0.4-0.4-0.8-0.5c-0.4-0.1-0.8-0.2-1.4-0.2c-0.6,0-1.1,0.1-1.5,0.2c-0.4,0.2-0.8,0.4-1,0.7c-0.2,0.3-0.4,0.7-0.5,1.2
			l1.1,0.2c0.1-0.5,0.3-0.8,0.6-1c0.3-0.2,0.7-0.3,1.2-0.3c0.6,0,1,0.1,1.3,0.4c0.2,0.2,0.3,0.5,0.3,1c0,0,0,0.1,0,0.3
			c-0.4,0.2-1.1,0.3-2,0.4c-0.5,0.1-0.8,0.1-1,0.2c-0.3,0.1-0.6,0.2-0.8,0.4c-0.2,0.2-0.4,0.4-0.6,0.7c-0.1,0.3-0.2,0.6-0.2,0.9
			c0,0.6,0.2,1,0.6,1.4c0.4,0.4,1,0.5,1.7,0.5c0.4,0,0.9-0.1,1.3-0.2c0.4-0.1,0.8-0.4,1.2-0.8C210.1,73.3,210.2,73.6,210.3,73.8
			 M196,73.4c0.5,0.4,1.1,0.5,2,0.5c0.5,0,1-0.1,1.4-0.3c0.4-0.2,0.7-0.4,1-0.8c0.2-0.3,0.3-0.7,0.3-1.1c0-0.4-0.1-0.7-0.3-1
			c-0.2-0.3-0.4-0.5-0.8-0.6c-0.3-0.1-0.9-0.3-1.7-0.5c-0.6-0.2-0.9-0.2-1-0.3c-0.2-0.1-0.3-0.2-0.4-0.3c-0.1-0.1-0.1-0.3-0.1-0.4
			c0-0.2,0.1-0.4,0.3-0.6c0.2-0.2,0.6-0.3,1.1-0.3c0.4,0,0.8,0.1,1,0.3c0.2,0.2,0.4,0.5,0.4,0.8l1.1-0.2c-0.1-0.4-0.2-0.8-0.4-1
			c-0.2-0.3-0.5-0.5-0.9-0.6c-0.4-0.2-0.9-0.2-1.4-0.2c-0.4,0-0.7,0-1,0.1c-0.3,0.1-0.5,0.2-0.7,0.3c-0.2,0.2-0.4,0.4-0.6,0.6
			c-0.1,0.3-0.2,0.5-0.2,0.8c0,0.3,0.1,0.6,0.3,0.9c0.2,0.3,0.4,0.5,0.7,0.6c0.3,0.2,0.9,0.3,1.7,0.6c0.6,0.2,1,0.3,1.2,0.4
			c0.2,0.1,0.3,0.4,0.3,0.6c0,0.3-0.1,0.5-0.4,0.8c-0.3,0.2-0.6,0.3-1.2,0.3c-0.5,0-0.9-0.1-1.2-0.4c-0.3-0.2-0.5-0.6-0.5-1
			l-1.1,0.2C195.3,72.5,195.6,73,196,73.4 M192.7,70.8c0,0.5-0.1,0.9-0.2,1.1c-0.2,0.3-0.4,0.6-0.8,0.8c-0.3,0.2-0.7,0.3-1.2,0.3
			c-0.4,0-0.8-0.1-1-0.3s-0.3-0.5-0.3-0.8c0-0.2,0.1-0.4,0.2-0.5c0.1-0.2,0.3-0.3,0.4-0.4c0.2-0.1,0.5-0.2,1-0.2
			c0.8-0.1,1.5-0.3,1.9-0.4V70.8z M193,73.8h1.2c-0.1-0.3-0.2-0.5-0.3-0.8c0-0.3-0.1-1-0.1-2v-1.5c0-0.5,0-0.9-0.1-1.1
			c-0.1-0.3-0.2-0.6-0.4-0.8c-0.2-0.2-0.4-0.4-0.8-0.5c-0.4-0.1-0.8-0.2-1.4-0.2c-0.6,0-1.1,0.1-1.5,0.2c-0.4,0.2-0.8,0.4-1,0.7
			c-0.2,0.3-0.4,0.7-0.5,1.2l1.1,0.2c0.1-0.5,0.3-0.8,0.6-1c0.3-0.2,0.7-0.3,1.2-0.3c0.6,0,1,0.1,1.3,0.4c0.2,0.2,0.3,0.5,0.3,1
			c0,0,0,0.1,0,0.3c-0.4,0.2-1.1,0.3-2,0.4c-0.5,0.1-0.8,0.1-1,0.2c-0.3,0.1-0.6,0.2-0.8,0.4c-0.2,0.2-0.4,0.4-0.6,0.7
			c-0.2,0.3-0.2,0.6-0.2,0.9c0,0.6,0.2,1,0.6,1.4c0.4,0.4,1,0.5,1.7,0.5c0.4,0,0.9-0.1,1.3-0.2c0.4-0.1,0.8-0.4,1.2-0.8
			C192.8,73.3,192.9,73.6,193,73.8 M181.4,73.8l1.4-5.2l0.3,1.1l1.1,4h1.2l2.1-6.7h-1.1l-1.2,3.9l-0.4,1.3l-0.3-1.3l-1-3.9h-1.2
			l-1.1,3.9c-0.2,0.9-0.3,1.3-0.3,1.4l-0.4-1.4l-1.1-3.9h-1.2l2.1,6.7H181.4z M169.6,68.4c0.4-0.4,0.8-0.5,1.3-0.5
			c0.6,0,1.1,0.2,1.4,0.7c0.2,0.3,0.4,0.7,0.4,1.3H169C169,69.2,169.2,68.7,169.6,68.4 M172.1,72.7c-0.3,0.2-0.7,0.3-1.1,0.3
			c-0.6,0-1-0.2-1.4-0.6c-0.4-0.4-0.6-1-0.6-1.7h5c0-0.1,0-0.2,0-0.3c0-1.1-0.3-2-0.9-2.6s-1.3-0.9-2.2-0.9c-0.9,0-1.7,0.3-2.3,0.9
			c-0.6,0.6-0.9,1.5-0.9,2.6c0,1.1,0.3,1.9,0.9,2.6c0.6,0.6,1.4,0.9,2.3,0.9c0.8,0,1.4-0.2,1.9-0.6c0.5-0.4,0.8-0.9,1-1.6l-1.2-0.1
			C172.6,72.1,172.4,72.5,172.1,72.7 M162.2,68.5c0.4-0.4,0.8-0.6,1.3-0.6c0.5,0,1,0.2,1.3,0.6c0.4,0.4,0.5,1,0.5,1.9
			c0,0.9-0.2,1.5-0.5,1.9c-0.4,0.4-0.8,0.6-1.3,0.6c-0.5,0-1-0.2-1.3-0.6c-0.4-0.4-0.5-1.1-0.5-1.9
			C161.7,69.5,161.8,68.9,162.2,68.5 M161.4,76c0.5,0.4,1.1,0.5,1.9,0.5c0.7,0,1.2-0.1,1.7-0.4c0.5-0.3,0.8-0.6,1-1
			c0.2-0.4,0.3-1.2,0.3-2.2v-5.8h-1.1v0.8c-0.5-0.6-1.2-1-2-1c-0.6,0-1.1,0.1-1.6,0.4c-0.4,0.3-0.8,0.7-1,1.3
			c-0.2,0.5-0.4,1.1-0.4,1.8c0,0.9,0.3,1.7,0.8,2.4c0.5,0.7,1.2,1,2.2,1c0.7,0,1.4-0.3,1.9-0.9c0,0.7,0,1.2-0.1,1.5
			c-0.1,0.4-0.3,0.7-0.6,0.9c-0.3,0.2-0.7,0.3-1.2,0.3c-0.5,0-0.9-0.1-1.2-0.3c-0.2-0.2-0.3-0.4-0.4-0.7l-1.1-0.2
			C160.7,75.1,160.9,75.6,161.4,76 M157.7,73.8v-3.5c0-0.5,0.1-0.9,0.2-1.3c0.1-0.3,0.2-0.5,0.4-0.6c0.2-0.1,0.4-0.2,0.7-0.2
			c0.3,0,0.6,0.1,0.8,0.2l0.4-1.1c-0.4-0.2-0.8-0.4-1.2-0.4c-0.3,0-0.5,0.1-0.7,0.2c-0.2,0.2-0.5,0.5-0.7,0.9v-1h-1v6.7H157.7z
			 M153.7,70.8c0,0.5-0.1,0.9-0.2,1.1c-0.2,0.3-0.4,0.6-0.8,0.8c-0.3,0.2-0.7,0.3-1.2,0.3c-0.4,0-0.8-0.1-1-0.3
			c-0.2-0.2-0.3-0.5-0.3-0.8c0-0.2,0.1-0.4,0.2-0.5c0.1-0.2,0.3-0.3,0.4-0.4c0.2-0.1,0.5-0.2,1-0.2c0.8-0.1,1.5-0.3,1.9-0.4V70.8z
			 M154,73.8h1.2c-0.1-0.3-0.2-0.5-0.3-0.8c0-0.3-0.1-1-0.1-2v-1.5c0-0.5,0-0.9-0.1-1.1c-0.1-0.3-0.2-0.6-0.4-0.8
			c-0.2-0.2-0.4-0.4-0.8-0.5c-0.4-0.1-0.8-0.2-1.4-0.2c-0.6,0-1.1,0.1-1.5,0.2c-0.4,0.2-0.8,0.4-1,0.7c-0.2,0.3-0.4,0.7-0.5,1.2
			l1.1,0.2c0.1-0.5,0.3-0.8,0.6-1c0.3-0.2,0.7-0.3,1.2-0.3c0.6,0,1,0.1,1.3,0.4c0.2,0.2,0.3,0.5,0.3,1c0,0,0,0.1,0,0.3
			c-0.4,0.2-1.1,0.3-2,0.4c-0.5,0.1-0.8,0.1-1,0.2c-0.3,0.1-0.6,0.2-0.8,0.4c-0.2,0.2-0.4,0.4-0.6,0.7c-0.2,0.3-0.2,0.6-0.2,0.9
			c0,0.6,0.2,1,0.6,1.4c0.4,0.4,1,0.5,1.7,0.5c0.4,0,0.9-0.1,1.3-0.2c0.4-0.1,0.8-0.4,1.2-0.8C153.8,73.3,153.9,73.6,154,73.8
			 M143.3,73.8v-3.7c0-0.5,0.1-0.9,0.2-1.2c0.1-0.3,0.3-0.5,0.6-0.7c0.3-0.2,0.6-0.3,1-0.3c0.5,0,0.8,0.1,1.1,0.4
			c0.2,0.3,0.4,0.7,0.4,1.2v4.3h1.1v-4.3c0-0.7-0.1-1.2-0.2-1.5s-0.4-0.6-0.8-0.8c-0.4-0.2-0.8-0.3-1.3-0.3c-0.8,0-1.5,0.3-2,0.9
			v-3.3h-1.1v9.3H143.3z M139.5,72.6c-0.3,0.3-0.7,0.4-1.1,0.4c-0.6,0-1-0.2-1.4-0.6c-0.3-0.4-0.5-1.1-0.5-2c0-0.9,0.2-1.5,0.5-2
			c0.4-0.4,0.8-0.6,1.4-0.6c0.4,0,0.7,0.1,1,0.3c0.3,0.2,0.5,0.6,0.6,1L141,69c-0.1-0.7-0.4-1.2-0.9-1.6c-0.5-0.4-1.1-0.6-1.8-0.6
			c-0.6,0-1.1,0.1-1.6,0.4c-0.5,0.3-0.9,0.7-1.1,1.2c-0.2,0.5-0.4,1.2-0.4,1.9c0,1.1,0.3,2,0.8,2.6c0.6,0.6,1.3,0.9,2.2,0.9
			c0.7,0,1.4-0.2,1.9-0.7c0.5-0.4,0.8-1,0.9-1.8l-1.1-0.1C139.9,71.9,139.8,72.3,139.5,72.6 M132.4,73.8v-3.5c0-0.5,0.1-0.9,0.2-1.3
			c0.1-0.3,0.2-0.5,0.4-0.6c0.2-0.1,0.4-0.2,0.7-0.2c0.3,0,0.6,0.1,0.8,0.2l0.4-1.1c-0.4-0.2-0.8-0.4-1.2-0.4
			c-0.3,0-0.5,0.1-0.7,0.2c-0.2,0.2-0.5,0.5-0.7,0.9v-1h-1v6.7H132.4z M129.5,73.8v-6.7h-1.1v3.6c0,0.6-0.1,1-0.2,1.3
			c-0.1,0.3-0.3,0.5-0.6,0.7c-0.3,0.2-0.6,0.3-1,0.3c-0.3,0-0.6-0.1-0.9-0.3c-0.2-0.2-0.4-0.4-0.5-0.7c0-0.2-0.1-0.6-0.1-1.2v-3.7
			H124v4.2c0,0.5,0,0.8,0.1,1.1c0.1,0.3,0.2,0.6,0.4,0.8c0.2,0.2,0.4,0.4,0.8,0.6c0.3,0.2,0.7,0.2,1.1,0.2c0.9,0,1.6-0.4,2.1-1.1v1
			H129.5z M118,73.4c0.5,0.4,1.1,0.5,2,0.5c0.5,0,1-0.1,1.4-0.3s0.7-0.4,1-0.8c0.2-0.3,0.3-0.7,0.3-1.1c0-0.4-0.1-0.7-0.3-1
			c-0.2-0.3-0.4-0.5-0.8-0.6c-0.3-0.1-0.9-0.3-1.7-0.5c-0.6-0.2-0.9-0.2-1-0.3c-0.2-0.1-0.3-0.2-0.4-0.3c-0.1-0.1-0.1-0.3-0.1-0.4
			c0-0.2,0.1-0.4,0.3-0.6c0.2-0.2,0.6-0.3,1.1-0.3c0.4,0,0.8,0.1,1,0.3c0.2,0.2,0.4,0.5,0.4,0.8l1.1-0.2c-0.1-0.4-0.2-0.8-0.4-1
			c-0.2-0.3-0.5-0.5-0.9-0.6c-0.4-0.2-0.9-0.2-1.4-0.2c-0.4,0-0.7,0-1,0.1c-0.3,0.1-0.5,0.2-0.7,0.3c-0.2,0.2-0.4,0.4-0.6,0.6
			s-0.2,0.5-0.2,0.8c0,0.3,0.1,0.6,0.2,0.9c0.2,0.3,0.4,0.5,0.7,0.6c0.3,0.2,0.9,0.3,1.7,0.6c0.6,0.2,1,0.3,1.2,0.4
			c0.2,0.1,0.3,0.4,0.3,0.6c0,0.3-0.1,0.5-0.4,0.8c-0.3,0.2-0.6,0.3-1.2,0.3c-0.5,0-0.9-0.1-1.2-0.4c-0.3-0.2-0.5-0.6-0.5-1
			l-1.1,0.2C117.2,72.5,117.5,73,118,73.4 M110.8,73.8v-3.5c0-0.5,0.1-0.9,0.2-1.3c0.1-0.3,0.2-0.5,0.4-0.6c0.2-0.1,0.4-0.2,0.7-0.2
			c0.3,0,0.6,0.1,0.8,0.2l0.4-1.1c-0.4-0.2-0.8-0.4-1.2-0.4c-0.3,0-0.5,0.1-0.7,0.2c-0.2,0.2-0.5,0.5-0.7,0.9v-1h-1v6.7H110.8z
			 M103.7,68.5c0.4-0.4,0.9-0.6,1.4-0.6c0.6,0,1,0.2,1.4,0.6c0.4,0.4,0.6,1.1,0.6,1.9c0,0.9-0.2,1.5-0.6,2c-0.4,0.4-0.8,0.6-1.4,0.6
			c-0.6,0-1-0.2-1.4-0.6c-0.4-0.4-0.6-1.1-0.6-1.9C103.1,69.6,103.3,68.9,103.7,68.5 M102.8,73c0.6,0.6,1.3,0.9,2.3,0.9
			c0.6,0,1.1-0.1,1.6-0.4c0.5-0.3,0.9-0.7,1.1-1.2c0.3-0.5,0.4-1.2,0.4-2c0-1.1-0.3-1.9-0.9-2.5c-0.6-0.6-1.3-0.9-2.3-0.9
			c-0.8,0-1.5,0.2-2.1,0.7c-0.7,0.6-1,1.5-1,2.8C102,71.6,102.3,72.4,102.8,73 M100.8,72.8c-0.2,0-0.3,0-0.4-0.1
			c-0.1-0.1-0.2-0.1-0.2-0.2c0-0.1-0.1-0.3-0.1-0.6v-3.9h1.1v-0.9h-1.1v-2.4L99,65.4v1.7h-0.8v0.9H99v3.9c0,0.7,0,1.1,0.1,1.3
			c0.1,0.2,0.3,0.4,0.5,0.5c0.2,0.1,0.6,0.2,1,0.2c0.3,0,0.5,0,0.9-0.1l-0.2-1C101.1,72.8,100.9,72.8,100.8,72.8 M96.1,72.6
			C95.8,72.9,95.4,73,95,73c-0.6,0-1-0.2-1.4-0.6c-0.3-0.4-0.5-1.1-0.5-2c0-0.9,0.2-1.5,0.5-2c0.4-0.4,0.8-0.6,1.4-0.6
			c0.4,0,0.7,0.1,1,0.3c0.3,0.2,0.5,0.6,0.6,1l1.1-0.2c-0.1-0.7-0.4-1.2-0.9-1.6c-0.5-0.4-1.1-0.6-1.8-0.6c-0.6,0-1.1,0.1-1.6,0.4
			c-0.5,0.3-0.9,0.7-1.1,1.2c-0.2,0.5-0.4,1.2-0.4,1.9c0,1.1,0.3,2,0.8,2.6c0.6,0.6,1.3,0.9,2.2,0.9c0.7,0,1.4-0.2,1.9-0.7
			c0.5-0.4,0.8-1,0.9-1.8l-1.1-0.1C96.6,71.9,96.4,72.3,96.1,72.6 M89.4,70.8c0,0.5-0.1,0.9-0.2,1.1c-0.2,0.3-0.4,0.6-0.8,0.8
			c-0.3,0.2-0.7,0.3-1.2,0.3c-0.4,0-0.8-0.1-1-0.3s-0.3-0.5-0.3-0.8c0-0.2,0.1-0.4,0.2-0.5c0.1-0.2,0.3-0.3,0.5-0.4
			c0.2-0.1,0.5-0.2,1-0.2c0.8-0.1,1.5-0.3,1.9-0.4V70.8z M89.7,73.8h1.2c-0.1-0.3-0.2-0.5-0.3-0.8c0-0.3-0.1-1-0.1-2v-1.5
			c0-0.5,0-0.9-0.1-1.1c-0.1-0.3-0.2-0.6-0.4-0.8c-0.2-0.2-0.4-0.4-0.8-0.5c-0.4-0.1-0.8-0.2-1.4-0.2c-0.6,0-1.1,0.1-1.5,0.2
			c-0.4,0.2-0.8,0.4-1,0.7c-0.2,0.3-0.4,0.7-0.5,1.2l1.1,0.2c0.1-0.5,0.3-0.8,0.6-1c0.3-0.2,0.7-0.3,1.2-0.3c0.6,0,1,0.1,1.3,0.4
			c0.2,0.2,0.3,0.5,0.3,1c0,0,0,0.1,0,0.3c-0.4,0.2-1.1,0.3-2,0.4c-0.5,0.1-0.8,0.1-1,0.2c-0.3,0.1-0.6,0.2-0.8,0.4
			c-0.2,0.2-0.4,0.4-0.6,0.7c-0.2,0.3-0.2,0.6-0.2,0.9c0,0.6,0.2,1,0.6,1.4c0.4,0.4,1,0.5,1.7,0.5c0.4,0,0.9-0.1,1.3-0.2
			c0.4-0.1,0.8-0.4,1.2-0.8C89.5,73.3,89.6,73.6,89.7,73.8 M82.9,73.8v-5.9h1.3v-0.9h-1.3v-0.6c0-0.4,0.1-0.7,0.2-0.8
			c0.1-0.1,0.4-0.2,0.7-0.2c0.2,0,0.4,0,0.7,0.1l0.2-1c-0.4-0.1-0.7-0.1-1.1-0.1c-0.5,0-0.9,0.1-1.2,0.3c-0.3,0.2-0.5,0.4-0.6,0.7
			c-0.1,0.2-0.1,0.6-0.1,1v0.7h-1v0.9h1v5.9H82.9z M74.6,73.8v-3.5c0-0.5,0.1-0.9,0.2-1.3c0.1-0.3,0.2-0.5,0.4-0.6
			c0.2-0.1,0.4-0.2,0.7-0.2c0.3,0,0.6,0.1,0.8,0.2l0.4-1.1c-0.4-0.2-0.8-0.4-1.2-0.4c-0.3,0-0.5,0.1-0.7,0.2
			c-0.2,0.2-0.5,0.5-0.7,0.9v-1h-1v6.7H74.6z M67.7,68.4c0.4-0.4,0.8-0.5,1.3-0.5c0.6,0,1.1,0.2,1.4,0.7c0.2,0.3,0.4,0.7,0.4,1.3
			h-3.8C67.2,69.2,67.4,68.7,67.7,68.4 M70.2,72.7c-0.3,0.2-0.7,0.3-1.1,0.3c-0.6,0-1-0.2-1.4-0.6c-0.4-0.4-0.6-1-0.6-1.7h5
			c0-0.1,0-0.2,0-0.3c0-1.1-0.3-2-0.9-2.6c-0.6-0.6-1.3-0.9-2.2-0.9c-0.9,0-1.7,0.3-2.3,0.9c-0.6,0.6-0.9,1.5-0.9,2.6
			c0,1.1,0.3,1.9,0.9,2.6c0.6,0.6,1.4,0.9,2.3,0.9c0.8,0,1.4-0.2,1.9-0.6c0.5-0.4,0.8-0.9,1-1.6l-1.2-0.1
			C70.7,72.1,70.5,72.5,70.2,72.7 M59.3,73.8l1.4-5.2l0.3,1.1l1.1,4h1.2l2.1-6.7h-1.1L63,71l-0.4,1.3L62.3,71l-1-3.9h-1.2L59.1,71
			c-0.2,0.9-0.3,1.3-0.3,1.4l-0.4-1.4l-1.1-3.9h-1.2l2.1,6.7H59.3z M51,68.5c0.4-0.4,0.9-0.6,1.4-0.6c0.6,0,1,0.2,1.4,0.6
			c0.4,0.4,0.6,1.1,0.6,1.9c0,0.9-0.2,1.5-0.6,2C53.4,72.8,53,73,52.4,73c-0.6,0-1-0.2-1.4-0.6c-0.4-0.4-0.6-1.1-0.6-1.9
			C50.4,69.6,50.6,68.9,51,68.5 M50.1,73c0.6,0.6,1.3,0.9,2.3,0.9c0.6,0,1.1-0.1,1.6-0.4c0.5-0.3,0.9-0.7,1.1-1.2
			c0.3-0.5,0.4-1.2,0.4-2c0-1.1-0.3-1.9-0.9-2.5c-0.6-0.6-1.3-0.9-2.3-0.9c-0.8,0-1.5,0.2-2.1,0.7c-0.7,0.6-1,1.5-1,2.8
			C49.2,71.6,49.5,72.4,50.1,73 M44,68.5c0.4-0.5,0.8-0.7,1.3-0.7c0.5,0,0.9,0.2,1.3,0.6c0.4,0.4,0.5,1.1,0.5,1.9
			c0,0.9-0.2,1.6-0.5,2c-0.4,0.4-0.8,0.6-1.3,0.6c-0.5,0-0.9-0.2-1.3-0.6c-0.4-0.4-0.5-1.1-0.5-1.9C43.5,69.6,43.6,68.9,44,68.5
			 M43.6,76.4v-3.3c0.2,0.2,0.4,0.4,0.7,0.6c0.3,0.2,0.6,0.2,1,0.2c0.5,0,1-0.1,1.5-0.4c0.5-0.3,0.8-0.7,1.1-1.3
			c0.2-0.6,0.4-1.2,0.4-1.9c0-0.6-0.1-1.2-0.3-1.8c-0.2-0.5-0.6-1-1-1.3c-0.4-0.3-0.9-0.4-1.5-0.4c-0.4,0-0.8,0.1-1.1,0.3
			c-0.3,0.2-0.6,0.4-0.8,0.8v-0.9h-1v9.3H43.6z M33.7,67.2c0.2-0.6,0.4-1.2,0.5-1.8c0.1,0.5,0.4,1.1,0.7,1.9l1,2.6h-3.2L33.7,67.2z
			 M31.3,73.8l1-2.8h3.9l1.1,2.8h1.4l-3.8-9.3h-1.3L30,73.8H31.3z"/>
		<path class="st0" d="M249.4,44.4h2.4V31.8h-2.4V44.4z M244.7,44.4h2.4V31.8h-2.4V44.4z M239.8,44.4h2.4v-9h-2.4V44.4z M239.5,32.8
			c0,0.9,0.6,1.5,1.5,1.5s1.5-0.6,1.5-1.5c0-0.9-0.7-1.5-1.5-1.5S239.5,32,239.5,32.8 M235.5,39.9c0,1.5-1,2.4-2.4,2.4
			s-2.4-0.9-2.4-2.4c0-1.5,1-2.4,2.4-2.4S235.5,38.4,235.5,39.9 M228.4,31.8v12.6h2.4v-1.3c0.6,0.9,1.7,1.5,3,1.5
			c2.2,0,4.1-1.7,4.1-4.7s-1.9-4.7-4.1-4.7c-1.4,0-2.4,0.7-3,1.5v-4.9H228.4z M218.1,35.4h-2.3v9h2.4v-4.1c0-1.7,0.7-2.6,2.3-2.6
			c0.4,0,0.7,0,1.1,0.1v-2.6c-0.3-0.1-0.5-0.1-0.9-0.1c-1.3,0-2.1,0.6-2.6,1.7V35.4z M211.1,35.4v4.3c0,1.6-0.6,2.6-1.9,2.6
			c-1.1,0-1.5-0.6-1.5-1.9v-5h-2.4V41c0,2.2,1,3.6,3.1,3.6c1.4,0,2.2-0.7,2.9-1.6v1.4h2.3v-9H211.1z M200.9,39.9
			c0,1.4-1,2.4-2.4,2.4c-1.4,0-2.4-1-2.4-2.4s1-2.4,2.4-2.4C199.9,37.5,200.9,38.5,200.9,39.9 M193.7,39.9c0,2.8,2.1,4.7,4.8,4.7
			s4.8-1.9,4.8-4.7s-2.1-4.7-4.8-4.7S193.7,37.1,193.7,39.9 M187.8,48l5.7-12.6H191l-2.2,4.9l-2.3-4.9h-2.8l3.8,7.7l-2.2,4.9H187.8z
			 M174.7,31.8v4.9c-0.6-0.9-1.6-1.5-3-1.5c-2.2,0-4.1,1.7-4.1,4.7s1.9,4.7,4.1,4.7c1.3,0,2.3-0.6,3-1.5v1.3h2.4V31.8H174.7z
			 M172.4,37.5c1.3,0,2.4,0.9,2.4,2.4c0,1.5-1,2.4-2.4,2.4c-1.4,0-2.4-1-2.4-2.4C170,38.4,171,37.5,172.4,37.5 M159.7,35.4h-2.3v9
			h2.4v-4.3c0-1.6,0.6-2.6,2-2.6c1,0,1.6,0.6,1.6,1.9v5h2.4v-5.6c0-2.3-1.1-3.6-3.2-3.6c-1.3,0-2.3,0.6-2.9,1.5V35.4z M148.9,38.5
			c0.3-0.8,1.3-1.2,2.2-1.2c1.1,0,1.6,0.4,1.6,0.9v0.1c0,0.2-0.2,0.3-0.5,0.4l-2.5,0.2c-1.7,0.1-2.9,1.2-2.9,2.8
			c0,1.7,1.3,2.8,3,2.8c1.4,0,2.3-0.7,2.8-1.4v1.2h2.4v-5.6c0-2.5-1.3-3.7-3.9-3.7c-2,0-3.4,0.7-4,2L148.9,38.5z M152.7,40.8
			c0,1-0.8,1.9-2.1,1.9c-0.8,0-1.3-0.4-1.3-1c0-0.5,0.4-0.9,1.1-1l2.2-0.3V40.8z M137.1,35.4h-2.3v9h2.4v-4.1c0-1.7,0.7-2.6,2.3-2.6
			c0.4,0,0.7,0,1.1,0.1v-2.6c-0.3-0.1-0.5-0.1-0.9-0.1c-1.3,0-2.1,0.6-2.6,1.7V35.4z M130.5,39.9c0,1.4-1,2.4-2.4,2.4
			c-1.4,0-2.4-1-2.4-2.4s1-2.4,2.4-2.4C129.5,37.5,130.5,38.5,130.5,39.9 M123.3,39.9c0,2.8,2.1,4.7,4.8,4.7c2.8,0,4.8-1.9,4.8-4.7
			s-2.1-4.7-4.8-4.7C125.4,35.2,123.3,37.1,123.3,39.9 M122.2,42c-0.6,0.1-1,0.1-1.3,0.1c-0.6,0-0.9-0.2-0.9-0.8v-3.9h2.3v-2H120V33
			h-2.4v2.4h-1.6v2h1.6v4.2c0,2.1,1,2.8,2.6,2.8c0.6,0,1.3-0.1,1.9-0.3V42z M106.9,39.9c0,2.9,2,4.7,4.8,4.7c1.5,0,2.7-0.6,3.5-1.3
			l-1.3-1.9c-0.5,0.5-1.2,0.9-2.1,0.9c-1.3,0-2.4-1-2.4-2.4s1-2.4,2.4-2.4c0.9,0,1.6,0.4,2.1,0.9l1.3-1.9c-0.8-0.8-2-1.3-3.4-1.3
			C108.9,35.2,106.9,37.1,106.9,39.9 M99,38.5c0.3-0.8,1.3-1.2,2.2-1.2c1.1,0,1.6,0.4,1.6,0.9v0.1c0,0.2-0.2,0.3-0.5,0.4L99.9,39
			c-1.7,0.1-2.9,1.2-2.9,2.8c0,1.7,1.3,2.8,3,2.8c1.4,0,2.3-0.7,2.8-1.4v1.2h2.4v-5.6c0-2.5-1.3-3.7-3.9-3.7c-2,0-3.4,0.7-4,2
			L99,38.5z M102.9,40.8c0,1-0.8,1.9-2.1,1.9c-0.8,0-1.3-0.4-1.3-1c0-0.5,0.4-0.9,1.1-1l2.2-0.3V40.8z M96.2,37.4v-2h-2.6v-0.2
			c0-0.9,0.3-1.4,1.3-1.4c0.4,0,0.8,0.1,1.4,0.1v-2.2c-0.6-0.1-1.1-0.2-1.8-0.2c-1.9,0-3.3,1-3.3,3.3v0.4h-1.8v2h1.8v7h2.4v-7H96.2z
			 M80,35.4h-2.3v9h2.4v-4.1c0-1.7,0.7-2.6,2.3-2.6c0.4,0,0.7,0,1.1,0.1v-2.6c-0.3-0.1-0.5-0.1-0.9-0.1c-1.3,0-2.1,0.6-2.6,1.7V35.4
			z M69.3,38.9c0.2-1.1,1-1.7,2.1-1.7s1.8,0.7,1.9,1.7H69.3z M66.9,39.9c0,2.7,1.8,4.7,4.8,4.7c1.7,0,2.8-0.6,3.6-1.2l-1-2
			c-0.6,0.6-1.5,0.9-2.6,0.9c-1.1,0-2.1-0.5-2.4-1.7l0,0h6.6V40c0-2.9-1.7-4.8-4.4-4.8C68.7,35.2,66.9,37.2,66.9,39.9 M56.7,44.4
			l2.3-5.3l2.2,5.3H63l3.7-9h-2.6l-2,5.4l-2.2-5.4H58l-2.1,5.4l-2-5.4h-2.6l3.7,9H56.7z M48.6,39.9c0,1.4-1,2.4-2.4,2.4
			c-1.4,0-2.4-1-2.4-2.4s1-2.4,2.4-2.4C47.6,37.5,48.6,38.5,48.6,39.9 M41.4,39.9c0,2.8,2.1,4.7,4.8,4.7c2.8,0,4.8-1.9,4.8-4.7
			s-2.1-4.7-4.8-4.7C43.5,35.2,41.4,37.1,41.4,39.9 M38.2,36.2c0,1.1-0.7,1.9-1.9,1.9h-2.4v-3.8h2.4C37.5,34.3,38.2,35.1,38.2,36.2
			 M31.3,31.8v12.6h2.5v-3.8h2.4c2.6,0,4.4-1.9,4.4-4.4c0-2.5-1.9-4.4-4.4-4.4H31.3z"/>
		<polyline class="st1" points="271.3,213.3 263.6,227.3 219.2,226.7 178.5,268.5 143.4,242.8 		"/>
	</g>
	<polyline class="st2" points="326.6,175.5 291.9,175.5 270.5,215.1 	"/>
	<path class="st3" d="M271,216.6H143.5 M271,216.6h55.6"/>
	<g>
		<defs>
			<rect id="SVGID_3_" width="429.8" height="273.8"/>
		</defs>
		<clipPath id="SVGID_4_">
			<use xlink:href="#SVGID_3_"  style="overflow:visible;"/>
		</clipPath>
		<path class="st4" d="M150.6,186.9c-2.3,0-3.9,1.5-3.9,3.8c0,2.2,1.6,3.7,3.9,3.7c2.3,0,4-1.5,4-3.8
			C154.5,188.3,152.8,186.9,150.6,186.9 M150.7,181.4c3.3,0,5.7,1.3,7.3,3.5c1.6,2.2,2.3,5.3,2.3,9.3c0,8-2.9,14.5-11.2,14.5
			c-2.4,0-4.6-0.5-6.9-1.6l1.9-4.9c1.6,0.7,3.5,1.1,5,1.1c3.4,0,5-2.3,5.2-4.6v0c-1.2,0.7-2.5,1.2-4.3,1.2c-4.8,0-8.8-3.4-8.8-9
			C141.2,185.2,145.1,181.4,150.7,181.4"/>
		<path class="st4" d="M176.9,186.9c-4.4,0-7.6,3.2-7.6,8.2c0,5,3.2,8.2,7.6,8.2c4.4,0,7.6-3.2,7.6-8.2
			C184.5,190,181.3,186.9,176.9,186.9 M176.9,181.4c7.3,0,13,5.5,13,13.6c0,8.1-5.7,13.6-13,13.6c-7.3,0-13-5.5-13-13.6
			C163.9,186.9,169.6,181.4,176.9,181.4"/>
		<path class="st4" d="M213.8,202.4c0,1.6,1.2,2.8,2.8,2.8c1.6,0,2.8-1.2,2.8-2.8c0-1.6-1.2-2.8-2.8-2.8
			C214.9,199.6,213.8,200.8,213.8,202.4 M216.5,196.1c3.6,0,6.3,2.7,6.3,6.3c0,3.6-2.7,6.3-6.3,6.3c-3.6,0-6.3-2.7-6.3-6.3
			C210.2,198.8,212.9,196.1,216.5,196.1 M199.8,185c-1.6,0-2.8,1.2-2.8,2.8c0,1.6,1.2,2.8,2.8,2.8c1.6,0,2.8-1.2,2.8-2.8
			C202.5,186.1,201.4,185,199.8,185 M217.7,180.4l2.5,2.1l-21.9,27.1l-2.5-2.1L217.7,180.4z M206.1,187.7c0,3.6-2.7,6.3-6.3,6.3
			c-3.6,0-6.3-2.7-6.3-6.3c0-3.6,2.7-6.3,6.3-6.3C203.3,181.4,206.1,184.1,206.1,187.7"/>
	</g>
</g>
</svg>
