<?xml version="1.0" encoding="utf-8"?>
<!-- Generator: Adobe Illustrator 20.1.0, SVG Export Plug-In . SVG Version: 6.00 Build 0)  -->
<svg version="1.1" id="Layer_1" xmlns="http://www.w3.org/2000/svg" xmlns:xlink="http://www.w3.org/1999/xlink" x="0px" y="0px"
	 viewBox="0 0 284.4 213.8" style="enable-background:new 0 0 284.4 213.8;" xml:space="preserve">
<style type="text/css">
	.st0{fill:#F5F4F2;}
	.st1{fill:none;stroke:#01506D;stroke-width:2;stroke-linecap:round;stroke-linejoin:round;stroke-miterlimit:10;}
	.st2{clip-path:url(#SVGID_2_);fill:#01506D;}
</style>
<rect class="st0" width="284.4" height="213.8"/>
<g>
	<path d="M19,29.2v-9.8h4.2c1.9,0,3.3,1.4,3.3,3.3c0,1.4-0.9,2.6-2.1,3.1l2.3,3.5h-2.4l-2.1-3.3H21v3.3H19z M23.2,21.4H21V24h2.2
		c0.8,0,1.3-0.6,1.3-1.3S24,21.4,23.2,21.4z"/>
	<path d="M27.8,23.6c0.5-1.1,1.6-1.6,3.1-1.6c2.1,0,3.1,0.9,3.1,2.8v4.3h-1.8v-1c-0.4,0.6-1.1,1.1-2.2,1.1c-1.4,0-2.4-0.9-2.4-2.2
		c0-1.3,1-2.1,2.2-2.2l1.9-0.2c0.2,0,0.4-0.1,0.4-0.3v-0.1c0-0.4-0.4-0.7-1.2-0.7c-0.7,0-1.5,0.2-1.8,0.9L27.8,23.6z M32.2,26.1
		l-1.7,0.2c-0.6,0.1-0.9,0.4-0.9,0.8c0,0.4,0.3,0.7,1,0.7c1,0,1.6-0.7,1.6-1.4V26.1z"/>
	<path d="M40,29.1c-0.5,0.1-1.1,0.2-1.5,0.2c-1.3,0-2.1-0.6-2.1-2.2v-3.3h-1.3v-1.6h1.3v-1.9h1.8v1.9H40v1.6h-1.8v3
		c0,0.4,0.2,0.6,0.7,0.6c0.3,0,0.5,0,1-0.1V29.1z"/>
	<path d="M44.4,22c2.1,0,3.5,1.5,3.5,3.7v0.5h-5.2l0,0c0.2,0.9,1.1,1.3,1.9,1.3c0.8,0,1.5-0.3,2-0.7l0.8,1.5
		c-0.6,0.5-1.4,0.9-2.8,0.9c-2.4,0-3.8-1.6-3.8-3.7C40.8,23.6,42.2,22,44.4,22z M45.9,24.9c-0.1-0.8-0.6-1.3-1.5-1.3
		s-1.5,0.5-1.7,1.3H45.9z"/>
	<path d="M54.4,19c0.7,0,1.2,0.5,1.2,1.2s-0.5,1.2-1.2,1.2s-1.2-0.5-1.2-1.2S53.8,19,54.4,19z M55.4,22.2v7h-1.8v-7H55.4z"/>
	<path d="M59.1,23.2c0.5-0.7,1.2-1.2,2.3-1.2c1.6,0,2.5,1.1,2.5,2.8v4.3h-1.9v-3.9c0-1.1-0.5-1.5-1.3-1.5c-1.1,0-1.5,0.8-1.5,2v3.3
		h-1.8v-7h1.8V23.2z"/>
	<path d="M69,22c1.1,0,2,0.4,2.7,1l-1.1,1.5c-0.4-0.4-0.9-0.7-1.6-0.7c-1.1,0-1.8,0.7-1.8,1.9s0.8,1.9,1.8,1.9
		c0.7,0,1.3-0.3,1.7-0.7l1,1.5c-0.6,0.6-1.5,1-2.7,1c-2.1,0-3.7-1.4-3.7-3.7C65.2,23.5,66.8,22,69,22z"/>
	<path d="M74.7,23.3c0.4-0.8,1-1.3,2-1.3c0.3,0,0.5,0,0.7,0.1v2C77.1,24,76.8,24,76.5,24c-1.2,0-1.8,0.7-1.8,2v3.2h-1.8v-7h1.8V23.3
		z"/>
	<path d="M81.4,22c2.1,0,3.5,1.5,3.5,3.7v0.5h-5.2l0,0c0.2,0.9,1.1,1.3,1.9,1.3c0.8,0,1.5-0.3,2-0.7l0.8,1.5
		c-0.6,0.5-1.4,0.9-2.8,0.9c-2.4,0-3.8-1.6-3.8-3.7C77.8,23.6,79.2,22,81.4,22z M82.9,24.9c-0.1-0.8-0.6-1.3-1.5-1.3
		s-1.5,0.5-1.7,1.3H82.9z"/>
	<path d="M86,23.6c0.5-1.1,1.6-1.6,3.1-1.6c2.1,0,3.1,0.9,3.1,2.8v4.3h-1.8v-1c-0.4,0.6-1.1,1.1-2.2,1.1c-1.4,0-2.4-0.9-2.4-2.2
		c0-1.3,1-2.1,2.2-2.2l1.9-0.2c0.2,0,0.4-0.1,0.4-0.3v-0.1c0-0.4-0.4-0.7-1.2-0.7c-0.7,0-1.5,0.2-1.8,0.9L86,23.6z M90.4,26.1
		l-1.7,0.2c-0.6,0.1-0.9,0.4-0.9,0.8c0,0.4,0.3,0.7,1,0.7c1,0,1.6-0.7,1.6-1.4V26.1z"/>
	<path d="M96.8,22c1.3,0,2.2,0.4,2.8,1l-1,1.3c-0.4-0.4-1.1-0.7-1.9-0.7c-0.6,0-0.9,0.2-0.9,0.5c0,0.4,0.4,0.4,1.6,0.7
		c1.2,0.3,2.2,0.7,2.2,2.2c0,1.6-1.2,2.3-3,2.3c-1.3,0-2.5-0.4-3.1-1.2l1.1-1.4c0.5,0.6,1.2,0.9,2.2,0.9c0.5,0,0.9-0.1,0.9-0.5
		s-0.4-0.4-1.6-0.7c-1.1-0.2-2.3-0.7-2.3-2.2C93.8,22.8,94.9,22,96.8,22z"/>
	<path d="M104,22c2.1,0,3.5,1.5,3.5,3.7v0.5h-5.2l0,0c0.2,0.9,1.1,1.3,1.9,1.3c0.8,0,1.5-0.3,2-0.7l0.8,1.5
		c-0.6,0.5-1.4,0.9-2.8,0.9c-2.4,0-3.8-1.6-3.8-3.7C100.4,23.6,101.8,22,104,22z M105.4,24.9c-0.1-0.8-0.6-1.3-1.5-1.3
		s-1.5,0.5-1.7,1.3H105.4z"/>
	<path d="M111.5,22c1.3,0,2.2,0.4,2.8,1l-1,1.3c-0.4-0.4-1.1-0.7-1.9-0.7c-0.6,0-0.9,0.2-0.9,0.5c0,0.4,0.4,0.4,1.6,0.7
		c1.2,0.3,2.2,0.7,2.2,2.2c0,1.6-1.2,2.3-3,2.3c-1.3,0-2.5-0.4-3.1-1.2l1.1-1.4c0.5,0.6,1.2,0.9,2.2,0.9c0.5,0,0.9-0.1,0.9-0.5
		s-0.4-0.4-1.6-0.7c-1.1-0.2-2.3-0.7-2.3-2.2C108.6,22.8,109.7,22,111.5,22z"/>
</g>
<g>
	<path d="M19.7,50.9l-1.6-6.1h0.8l0.9,4c0.1,0.4,0.2,0.8,0.3,1.2c0.2-0.7,0.2-1,0.3-1.1l1.2-4.1h1l0.9,3.1c0.2,0.8,0.4,1.5,0.5,2.2
		c0.1-0.4,0.2-0.8,0.3-1.3l1-3.9h0.8l-1.7,6.1h-0.8l-1.3-4.6c-0.1-0.4-0.2-0.6-0.2-0.7c-0.1,0.3-0.1,0.5-0.2,0.7l-1.3,4.6H19.7z"/>
	<path d="M29.4,49.5l0.8,0.1c-0.1,0.5-0.3,0.8-0.7,1.1c-0.3,0.2-0.7,0.4-1.3,0.4c-0.6,0-1.2-0.2-1.5-0.6c-0.4-0.4-0.6-1-0.6-1.7
		c0-0.7,0.2-1.3,0.6-1.7s0.9-0.6,1.5-0.6c0.6,0,1.1,0.2,1.4,0.6c0.4,0.4,0.6,1,0.6,1.7c0,0,0,0.1,0,0.2H27c0,0.5,0.2,0.9,0.4,1.1
		c0.2,0.3,0.6,0.4,0.9,0.4c0.3,0,0.5-0.1,0.7-0.2C29.2,50.1,29.3,49.8,29.4,49.5z M27,48.3h2.5c0-0.4-0.1-0.6-0.3-0.8
		c-0.2-0.3-0.5-0.4-0.9-0.4c-0.3,0-0.6,0.1-0.9,0.3C27.1,47.6,27,47.9,27,48.3z"/>
	<path d="M31.1,45.7v-0.9h0.8v0.7c0,0.4,0,0.6-0.1,0.8c-0.1,0.2-0.3,0.4-0.6,0.5L31,46.5c0.1-0.1,0.3-0.2,0.3-0.3s0.1-0.3,0.1-0.5
		H31.1z"/>
	<path d="M33,50.9v-4.4h0.7v0.7c0.2-0.3,0.3-0.5,0.5-0.6c0.1-0.1,0.3-0.1,0.5-0.1c0.3,0,0.5,0.1,0.8,0.2l-0.3,0.7
		c-0.2-0.1-0.4-0.2-0.5-0.2c-0.2,0-0.3,0-0.4,0.1s-0.2,0.2-0.3,0.4c-0.1,0.3-0.1,0.6-0.1,0.9v2.3H33z"/>
	<path d="M38.9,49.5l0.8,0.1c-0.1,0.5-0.3,0.8-0.7,1.1c-0.3,0.2-0.7,0.4-1.3,0.4c-0.6,0-1.2-0.2-1.5-0.6c-0.4-0.4-0.6-1-0.6-1.7
		c0-0.7,0.2-1.3,0.6-1.7s0.9-0.6,1.5-0.6c0.6,0,1.1,0.2,1.4,0.6c0.4,0.4,0.6,1,0.6,1.7c0,0,0,0.1,0,0.2h-3.3c0,0.5,0.2,0.9,0.4,1.1
		c0.2,0.3,0.6,0.4,0.9,0.4c0.3,0,0.5-0.1,0.7-0.2C38.6,50.1,38.8,49.8,38.9,49.5z M36.4,48.3h2.5c0-0.4-0.1-0.6-0.3-0.8
		c-0.2-0.3-0.5-0.4-0.9-0.4c-0.3,0-0.6,0.1-0.9,0.3C36.6,47.6,36.5,47.9,36.4,48.3z"/>
	<path d="M43.8,50.9l-1.3-4.4h0.8l0.7,2.5l0.3,0.9c0,0,0.1-0.4,0.2-0.9l0.7-2.6h0.8l0.7,2.6l0.2,0.8l0.3-0.9l0.8-2.5h0.7l-1.4,4.4
		h-0.8l-0.7-2.6l-0.2-0.8l-0.9,3.4H43.8z"/>
	<path d="M48.8,48.7c0-0.8,0.2-1.4,0.7-1.8c0.4-0.3,0.8-0.5,1.4-0.5c0.6,0,1.1,0.2,1.5,0.6S53,48,53,48.7c0,0.6-0.1,1-0.3,1.3
		c-0.2,0.3-0.4,0.6-0.7,0.8C51.6,51,51.3,51,50.9,51c-0.6,0-1.1-0.2-1.5-0.6C49,50.1,48.8,49.5,48.8,48.7z M49.6,48.7
		c0,0.6,0.1,1,0.4,1.3s0.6,0.4,0.9,0.4c0.4,0,0.7-0.1,0.9-0.4c0.2-0.3,0.4-0.7,0.4-1.3c0-0.5-0.1-1-0.4-1.2s-0.6-0.4-0.9-0.4
		c-0.4,0-0.7,0.1-0.9,0.4S49.6,48.2,49.6,48.7z"/>
	<path d="M53.8,50.9v-4.4h0.7v0.7c0.2-0.3,0.3-0.5,0.5-0.6c0.1-0.1,0.3-0.1,0.5-0.1c0.3,0,0.5,0.1,0.8,0.2L56,47.4
		c-0.2-0.1-0.4-0.2-0.5-0.2c-0.2,0-0.3,0-0.4,0.1s-0.2,0.2-0.3,0.4c-0.1,0.3-0.1,0.6-0.1,0.9v2.3H53.8z"/>
	<path d="M56.7,50.9v-6.1h0.7v3.5l1.8-1.8h1l-1.7,1.6l1.9,2.8h-0.9l-1.5-2.3l-0.5,0.5v1.7H56.7z"/>
	<path d="M60.9,45.7v-0.9h0.7v0.9H60.9z M60.9,50.9v-4.4h0.7v4.4H60.9z"/>
	<path d="M62.8,50.9v-4.4h0.7v0.6c0.3-0.5,0.8-0.7,1.4-0.7c0.3,0,0.5,0,0.7,0.1c0.2,0.1,0.4,0.2,0.5,0.4c0.1,0.2,0.2,0.3,0.2,0.6
		c0,0.1,0,0.4,0,0.7v2.7h-0.7v-2.7c0-0.3,0-0.5-0.1-0.7c-0.1-0.2-0.2-0.3-0.3-0.4s-0.3-0.1-0.5-0.1c-0.3,0-0.6,0.1-0.8,0.3
		c-0.2,0.2-0.3,0.6-0.3,1.1v2.4H62.8z"/>
	<path d="M67.4,51.3l0.7,0.1c0,0.2,0.1,0.4,0.3,0.5c0.2,0.1,0.4,0.2,0.8,0.2c0.3,0,0.6-0.1,0.8-0.2s0.3-0.3,0.4-0.6
		c0-0.2,0.1-0.5,0.1-1c-0.3,0.4-0.7,0.6-1.2,0.6c-0.6,0-1.1-0.2-1.4-0.7s-0.5-1-0.5-1.6c0-0.4,0.1-0.8,0.2-1.2
		c0.2-0.4,0.4-0.6,0.7-0.8s0.6-0.3,1-0.3c0.5,0,0.9,0.2,1.3,0.6v-0.5h0.7v3.8c0,0.7-0.1,1.2-0.2,1.5c-0.1,0.3-0.4,0.5-0.7,0.7
		c-0.3,0.2-0.7,0.2-1.1,0.2c-0.5,0-1-0.1-1.3-0.4C67.5,52.1,67.4,51.8,67.4,51.3z M68,48.7c0,0.6,0.1,1,0.3,1.3s0.5,0.4,0.9,0.4
		c0.3,0,0.6-0.1,0.9-0.4s0.3-0.7,0.3-1.2c0-0.5-0.1-0.9-0.4-1.2s-0.5-0.4-0.9-0.4c-0.3,0-0.6,0.1-0.8,0.4C68.1,47.7,68,48.1,68,48.7
		z"/>
	<path d="M74.6,50.9v-6.1h0.7V47c0.3-0.4,0.8-0.6,1.3-0.6c0.3,0,0.6,0.1,0.9,0.2c0.2,0.1,0.4,0.3,0.5,0.5c0.1,0.2,0.2,0.6,0.2,1v2.8
		h-0.7v-2.8c0-0.4-0.1-0.6-0.2-0.8c-0.2-0.2-0.4-0.3-0.7-0.3c-0.2,0-0.4,0.1-0.6,0.2c-0.2,0.1-0.3,0.3-0.4,0.5
		c-0.1,0.2-0.1,0.5-0.1,0.8v2.4H74.6z"/>
	<path d="M82.2,50.4c-0.3,0.2-0.5,0.4-0.8,0.5C81.2,51,80.9,51,80.6,51c-0.5,0-0.9-0.1-1.1-0.4c-0.3-0.2-0.4-0.5-0.4-0.9
		c0-0.2,0-0.4,0.1-0.6c0.1-0.2,0.2-0.3,0.4-0.4s0.3-0.2,0.5-0.2c0.1,0,0.4-0.1,0.7-0.1c0.6-0.1,1-0.2,1.3-0.3c0-0.1,0-0.2,0-0.2
		c0-0.3-0.1-0.5-0.2-0.6c-0.2-0.2-0.5-0.3-0.9-0.3c-0.4,0-0.6,0.1-0.8,0.2s-0.3,0.3-0.4,0.7l-0.7-0.1c0.1-0.3,0.2-0.6,0.3-0.8
		s0.4-0.3,0.7-0.4c0.3-0.1,0.6-0.2,1-0.2c0.4,0,0.7,0,0.9,0.1c0.2,0.1,0.4,0.2,0.5,0.3s0.2,0.3,0.2,0.5c0,0.1,0,0.4,0,0.7v1
		c0,0.7,0,1.1,0,1.3s0.1,0.4,0.2,0.5h-0.8C82.3,50.8,82.2,50.6,82.2,50.4z M82.2,48.7c-0.3,0.1-0.7,0.2-1.2,0.3
		c-0.3,0-0.5,0.1-0.7,0.1c-0.1,0.1-0.2,0.1-0.3,0.2c-0.1,0.1-0.1,0.2-0.1,0.4c0,0.2,0.1,0.4,0.2,0.5s0.4,0.2,0.7,0.2
		c0.3,0,0.5-0.1,0.8-0.2c0.2-0.1,0.4-0.3,0.5-0.5c0.1-0.2,0.1-0.4,0.1-0.7V48.7z"/>
	<path d="M84.1,50.9v-4.4h0.7v0.7c0.2-0.3,0.3-0.5,0.5-0.6c0.1-0.1,0.3-0.1,0.5-0.1c0.3,0,0.5,0.1,0.8,0.2l-0.3,0.7
		c-0.2-0.1-0.4-0.2-0.5-0.2c-0.2,0-0.3,0-0.4,0.1s-0.2,0.2-0.3,0.4c-0.1,0.3-0.1,0.6-0.1,0.9v2.3H84.1z"/>
	<path d="M89.8,50.9v-0.6c-0.3,0.4-0.7,0.7-1.2,0.7c-0.4,0-0.7-0.1-1-0.3c-0.3-0.2-0.5-0.5-0.7-0.8c-0.2-0.3-0.2-0.7-0.2-1.2
		c0-0.4,0.1-0.8,0.2-1.2c0.1-0.4,0.4-0.6,0.7-0.8c0.3-0.2,0.6-0.3,1-0.3c0.3,0,0.5,0.1,0.7,0.2c0.2,0.1,0.4,0.3,0.5,0.4v-2.2h0.7
		v6.1H89.8z M87.4,48.8c0,0.6,0.1,1,0.4,1.3c0.2,0.3,0.5,0.4,0.8,0.4c0.3,0,0.6-0.1,0.8-0.4c0.2-0.3,0.3-0.7,0.3-1.2
		c0-0.6-0.1-1-0.3-1.3s-0.5-0.4-0.9-0.4c-0.3,0-0.6,0.1-0.8,0.4C87.5,47.7,87.4,48.2,87.4,48.8z"/>
	<path d="M95.6,50.3l0.1,0.7c-0.2,0-0.4,0.1-0.6,0.1c-0.3,0-0.5,0-0.6-0.1c-0.1-0.1-0.3-0.2-0.3-0.3s-0.1-0.4-0.1-0.9v-2.5h-0.5
		v-0.6h0.5v-1.1l0.7-0.4v1.5h0.8v0.6h-0.8v2.6c0,0.2,0,0.3,0,0.4s0.1,0.1,0.1,0.1c0.1,0,0.1,0.1,0.3,0.1
		C95.4,50.3,95.5,50.3,95.6,50.3z"/>
	<path d="M96.1,48.7c0-0.8,0.2-1.4,0.7-1.8c0.4-0.3,0.8-0.5,1.4-0.5c0.6,0,1.1,0.2,1.5,0.6s0.6,0.9,0.6,1.6c0,0.6-0.1,1-0.3,1.3
		c-0.2,0.3-0.4,0.6-0.7,0.8C98.9,51,98.5,51,98.1,51c-0.6,0-1.1-0.2-1.5-0.6C96.3,50.1,96.1,49.5,96.1,48.7z M96.8,48.7
		c0,0.6,0.1,1,0.4,1.3s0.6,0.4,0.9,0.4c0.4,0,0.7-0.1,0.9-0.4c0.2-0.3,0.4-0.7,0.4-1.3c0-0.5-0.1-1-0.4-1.2s-0.6-0.4-0.9-0.4
		c-0.4,0-0.7,0.1-0.9,0.4S96.8,48.2,96.8,48.7z"/>
	<path d="M103.4,50.9v-6.1h0.7v3.5l1.8-1.8h1l-1.7,1.6l1.9,2.8h-0.9l-1.5-2.3l-0.5,0.5v1.7H103.4z"/>
	<path d="M110.7,49.5l0.8,0.1c-0.1,0.5-0.3,0.8-0.7,1.1c-0.3,0.2-0.7,0.4-1.3,0.4c-0.6,0-1.2-0.2-1.5-0.6c-0.4-0.4-0.6-1-0.6-1.7
		c0-0.7,0.2-1.3,0.6-1.7s0.9-0.6,1.5-0.6c0.6,0,1.1,0.2,1.4,0.6c0.4,0.4,0.6,1,0.6,1.7c0,0,0,0.1,0,0.2h-3.3c0,0.5,0.2,0.9,0.4,1.1
		c0.2,0.3,0.6,0.4,0.9,0.4c0.3,0,0.5-0.1,0.7-0.2C110.4,50.1,110.6,49.8,110.7,49.5z M108.3,48.3h2.5c0-0.4-0.1-0.6-0.3-0.8
		c-0.2-0.3-0.5-0.4-0.9-0.4c-0.3,0-0.6,0.1-0.9,0.3C108.4,47.6,108.3,47.9,108.3,48.3z"/>
	<path d="M115.4,49.5l0.8,0.1c-0.1,0.5-0.3,0.8-0.7,1.1c-0.3,0.2-0.7,0.4-1.3,0.4c-0.6,0-1.2-0.2-1.5-0.6c-0.4-0.4-0.6-1-0.6-1.7
		c0-0.7,0.2-1.3,0.6-1.7s0.9-0.6,1.5-0.6c0.6,0,1.1,0.2,1.4,0.6c0.4,0.4,0.6,1,0.6,1.7c0,0,0,0.1,0,0.2h-3.3c0,0.5,0.2,0.9,0.4,1.1
		c0.2,0.3,0.6,0.4,0.9,0.4c0.3,0,0.5-0.1,0.7-0.2C115.2,50.1,115.3,49.8,115.4,49.5z M113,48.3h2.5c0-0.4-0.1-0.6-0.3-0.8
		c-0.2-0.3-0.5-0.4-0.9-0.4c-0.3,0-0.6,0.1-0.9,0.3C113.1,47.6,113,47.9,113,48.3z"/>
	<path d="M117.1,52.6v-6.1h0.7v0.6c0.2-0.2,0.3-0.4,0.5-0.5c0.2-0.1,0.4-0.2,0.7-0.2c0.4,0,0.7,0.1,1,0.3c0.3,0.2,0.5,0.5,0.7,0.8
		c0.1,0.4,0.2,0.7,0.2,1.2c0,0.5-0.1,0.9-0.2,1.2c-0.2,0.4-0.4,0.6-0.7,0.8s-0.6,0.3-1,0.3c-0.2,0-0.5-0.1-0.7-0.2s-0.4-0.2-0.5-0.4
		v2.1H117.1z M117.8,48.8c0,0.6,0.1,1,0.3,1.3c0.2,0.3,0.5,0.4,0.8,0.4c0.3,0,0.6-0.1,0.9-0.4c0.2-0.3,0.4-0.7,0.4-1.3
		c0-0.6-0.1-1-0.3-1.3S119.4,47,119,47c-0.3,0-0.6,0.1-0.8,0.4C117.9,47.8,117.8,48.2,117.8,48.8z"/>
	<path d="M124.2,50.9v-4.4h0.7v0.7c0.2-0.3,0.3-0.5,0.5-0.6c0.1-0.1,0.3-0.1,0.5-0.1c0.3,0,0.5,0.1,0.8,0.2l-0.3,0.7
		c-0.2-0.1-0.4-0.2-0.5-0.2c-0.2,0-0.3,0-0.4,0.1s-0.2,0.2-0.3,0.4c-0.1,0.3-0.1,0.6-0.1,0.9v2.3H124.2z"/>
	<path d="M129.9,50.4c-0.3,0.2-0.5,0.4-0.8,0.5c-0.3,0.1-0.5,0.1-0.8,0.1c-0.5,0-0.9-0.1-1.1-0.4c-0.3-0.2-0.4-0.5-0.4-0.9
		c0-0.2,0-0.4,0.1-0.6c0.1-0.2,0.2-0.3,0.4-0.4s0.3-0.2,0.5-0.2c0.1,0,0.4-0.1,0.7-0.1c0.6-0.1,1-0.2,1.3-0.3c0-0.1,0-0.2,0-0.2
		c0-0.3-0.1-0.5-0.2-0.6c-0.2-0.2-0.5-0.3-0.9-0.3c-0.4,0-0.6,0.1-0.8,0.2s-0.3,0.3-0.4,0.7l-0.7-0.1c0.1-0.3,0.2-0.6,0.3-0.8
		s0.4-0.3,0.7-0.4c0.3-0.1,0.6-0.2,1-0.2c0.4,0,0.7,0,0.9,0.1c0.2,0.1,0.4,0.2,0.5,0.3s0.2,0.3,0.2,0.5c0,0.1,0,0.4,0,0.7v1
		c0,0.7,0,1.1,0,1.3s0.1,0.4,0.2,0.5h-0.8C130,50.8,130,50.6,129.9,50.4z M129.9,48.7c-0.3,0.1-0.7,0.2-1.2,0.3
		c-0.3,0-0.5,0.1-0.7,0.1c-0.1,0.1-0.2,0.1-0.3,0.2c-0.1,0.1-0.1,0.2-0.1,0.4c0,0.2,0.1,0.4,0.2,0.5s0.4,0.2,0.7,0.2
		c0.3,0,0.5-0.1,0.8-0.2c0.2-0.1,0.4-0.3,0.5-0.5c0.1-0.2,0.1-0.4,0.1-0.7V48.7z"/>
	<path d="M133.4,50.3l0.1,0.7c-0.2,0-0.4,0.1-0.6,0.1c-0.3,0-0.5,0-0.6-0.1c-0.1-0.1-0.3-0.2-0.3-0.3s-0.1-0.4-0.1-0.9v-2.5h-0.5
		v-0.6h0.5v-1.1l0.7-0.4v1.5h0.8v0.6h-0.8v2.6c0,0.2,0,0.3,0,0.4s0.1,0.1,0.1,0.1c0.1,0,0.1,0.1,0.3,0.1
		C133.2,50.3,133.3,50.3,133.4,50.3z"/>
	<path d="M137.2,49.5l0.8,0.1c-0.1,0.5-0.3,0.8-0.7,1.1c-0.3,0.2-0.7,0.4-1.3,0.4c-0.6,0-1.2-0.2-1.5-0.6c-0.4-0.4-0.6-1-0.6-1.7
		c0-0.7,0.2-1.3,0.6-1.7s0.9-0.6,1.5-0.6c0.6,0,1.1,0.2,1.4,0.6c0.4,0.4,0.6,1,0.6,1.7c0,0,0,0.1,0,0.2h-3.3c0,0.5,0.2,0.9,0.4,1.1
		c0.2,0.3,0.6,0.4,0.9,0.4c0.3,0,0.5-0.1,0.7-0.2C136.9,50.1,137.1,49.8,137.2,49.5z M134.7,48.3h2.5c0-0.4-0.1-0.6-0.3-0.8
		c-0.2-0.3-0.5-0.4-0.9-0.4c-0.3,0-0.6,0.1-0.9,0.3C134.9,47.6,134.7,47.9,134.7,48.3z"/>
	<path d="M138.6,49.6l0.7-0.1c0,0.3,0.2,0.5,0.3,0.7c0.2,0.2,0.5,0.2,0.8,0.2c0.3,0,0.6-0.1,0.8-0.2s0.2-0.3,0.2-0.5
		c0-0.2-0.1-0.3-0.2-0.4c-0.1-0.1-0.4-0.2-0.8-0.3c-0.5-0.1-0.9-0.3-1.1-0.4c-0.2-0.1-0.4-0.2-0.5-0.4c-0.1-0.2-0.2-0.4-0.2-0.6
		c0-0.2,0-0.4,0.1-0.5s0.2-0.3,0.4-0.4c0.1-0.1,0.3-0.2,0.5-0.2s0.4-0.1,0.6-0.1c0.3,0,0.6,0,0.9,0.1c0.3,0.1,0.5,0.2,0.6,0.4
		c0.1,0.2,0.2,0.4,0.3,0.7l-0.7,0.1c0-0.2-0.1-0.4-0.3-0.5s-0.4-0.2-0.7-0.2c-0.3,0-0.6,0.1-0.7,0.2c-0.1,0.1-0.2,0.2-0.2,0.4
		c0,0.1,0,0.2,0.1,0.3c0.1,0.1,0.2,0.1,0.3,0.2c0.1,0,0.3,0.1,0.7,0.2c0.5,0.1,0.9,0.3,1.1,0.3s0.4,0.2,0.5,0.4
		c0.1,0.2,0.2,0.4,0.2,0.6c0,0.2-0.1,0.5-0.2,0.7c-0.1,0.2-0.4,0.4-0.6,0.5c-0.3,0.1-0.6,0.2-0.9,0.2c-0.6,0-1-0.1-1.3-0.4
		S138.7,50.1,138.6,49.6z"/>
</g>
<g>
	<path d="M21.4,63.2c-0.3,0.2-0.5,0.4-0.8,0.5c-0.3,0.1-0.5,0.1-0.8,0.1c-0.5,0-0.9-0.1-1.1-0.4c-0.3-0.2-0.4-0.5-0.4-0.9
		c0-0.2,0-0.4,0.1-0.6c0.1-0.2,0.2-0.3,0.4-0.4s0.3-0.2,0.5-0.2c0.1,0,0.4-0.1,0.7-0.1c0.6-0.1,1-0.2,1.3-0.3c0-0.1,0-0.2,0-0.2
		c0-0.3-0.1-0.5-0.2-0.6c-0.2-0.2-0.5-0.3-0.9-0.3c-0.4,0-0.6,0.1-0.8,0.2s-0.3,0.3-0.4,0.7l-0.7-0.1c0.1-0.3,0.2-0.6,0.3-0.8
		s0.4-0.3,0.7-0.4c0.3-0.1,0.6-0.2,1-0.2c0.4,0,0.7,0,0.9,0.1c0.2,0.1,0.4,0.2,0.5,0.3s0.2,0.3,0.2,0.5c0,0.1,0,0.4,0,0.7v1
		c0,0.7,0,1.1,0,1.3s0.1,0.4,0.2,0.5h-0.8C21.5,63.5,21.5,63.4,21.4,63.2z M21.4,61.5c-0.3,0.1-0.7,0.2-1.2,0.3
		c-0.3,0-0.5,0.1-0.7,0.1c-0.1,0.1-0.2,0.1-0.3,0.2c-0.1,0.1-0.1,0.2-0.1,0.4c0,0.2,0.1,0.4,0.2,0.5s0.4,0.2,0.7,0.2
		c0.3,0,0.5-0.1,0.8-0.2c0.2-0.1,0.4-0.3,0.5-0.5c0.1-0.2,0.1-0.4,0.1-0.7V61.5z"/>
	<path d="M23.5,63.7v-3.8h-0.7v-0.6h0.7v-0.5c0-0.3,0-0.5,0.1-0.7c0.1-0.2,0.2-0.4,0.4-0.5c0.2-0.1,0.4-0.2,0.8-0.2
		c0.2,0,0.4,0,0.7,0.1l-0.1,0.7c-0.2,0-0.3,0-0.4,0c-0.2,0-0.4,0-0.5,0.1c-0.1,0.1-0.1,0.3-0.1,0.5v0.4h0.9v0.6h-0.9v3.8H23.5z"/>
	<path d="M25.7,63.7v-3.8H25v-0.6h0.7v-0.5c0-0.3,0-0.5,0.1-0.7c0.1-0.2,0.2-0.4,0.4-0.5c0.2-0.1,0.4-0.2,0.8-0.2
		c0.2,0,0.4,0,0.7,0.1l-0.1,0.7c-0.2,0-0.3,0-0.4,0c-0.2,0-0.4,0-0.5,0.1c-0.1,0.1-0.1,0.3-0.1,0.5v0.4h0.9v0.6h-0.9v3.8H25.7z"/>
	<path d="M27.6,61.5c0-0.8,0.2-1.4,0.7-1.8c0.4-0.3,0.8-0.5,1.4-0.5c0.6,0,1.1,0.2,1.5,0.6s0.6,0.9,0.6,1.6c0,0.6-0.1,1-0.3,1.3
		c-0.2,0.3-0.4,0.6-0.7,0.8c-0.3,0.2-0.7,0.3-1.1,0.3c-0.6,0-1.1-0.2-1.5-0.6C27.8,62.8,27.6,62.2,27.6,61.5z M28.4,61.5
		c0,0.6,0.1,1,0.4,1.3s0.6,0.4,0.9,0.4c0.4,0,0.7-0.1,0.9-0.4c0.2-0.3,0.4-0.7,0.4-1.3c0-0.5-0.1-1-0.4-1.2s-0.6-0.4-0.9-0.4
		c-0.4,0-0.7,0.1-0.9,0.4S28.4,60.9,28.4,61.5z"/>
	<path d="M32.6,63.7v-4.4h0.7V60c0.2-0.3,0.3-0.5,0.5-0.6c0.1-0.1,0.3-0.1,0.5-0.1c0.3,0,0.5,0.1,0.8,0.2l-0.3,0.7
		C34.5,60,34.4,60,34.2,60c-0.2,0-0.3,0-0.4,0.1s-0.2,0.2-0.3,0.4c-0.1,0.3-0.1,0.6-0.1,0.9v2.3H32.6z"/>
	<path d="M38.3,63.7v-0.6c-0.3,0.4-0.7,0.7-1.2,0.7c-0.4,0-0.7-0.1-1-0.3c-0.3-0.2-0.5-0.5-0.7-0.8c-0.2-0.3-0.2-0.7-0.2-1.2
		c0-0.4,0.1-0.8,0.2-1.2c0.1-0.4,0.4-0.6,0.7-0.8c0.3-0.2,0.6-0.3,1-0.3c0.3,0,0.5,0.1,0.7,0.2c0.2,0.1,0.4,0.3,0.5,0.4v-2.2H39v6.1
		H38.3z M35.9,61.5c0,0.6,0.1,1,0.4,1.3c0.2,0.3,0.5,0.4,0.8,0.4c0.3,0,0.6-0.1,0.8-0.4c0.2-0.3,0.3-0.7,0.3-1.2
		c0-0.6-0.1-1-0.3-1.3s-0.5-0.4-0.9-0.4c-0.3,0-0.6,0.1-0.8,0.4C36,60.5,35.9,60.9,35.9,61.5z"/>
	<path d="M43,63.2c-0.3,0.2-0.5,0.4-0.8,0.5c-0.3,0.1-0.5,0.1-0.8,0.1c-0.5,0-0.9-0.1-1.1-0.4c-0.3-0.2-0.4-0.5-0.4-0.9
		c0-0.2,0-0.4,0.1-0.6c0.1-0.2,0.2-0.3,0.4-0.4s0.3-0.2,0.5-0.2c0.1,0,0.4-0.1,0.7-0.1c0.6-0.1,1-0.2,1.3-0.3c0-0.1,0-0.2,0-0.2
		c0-0.3-0.1-0.5-0.2-0.6c-0.2-0.2-0.5-0.3-0.9-0.3c-0.4,0-0.6,0.1-0.8,0.2s-0.3,0.3-0.4,0.7L40,60.5c0.1-0.3,0.2-0.6,0.3-0.8
		s0.4-0.3,0.7-0.4c0.3-0.1,0.6-0.2,1-0.2c0.4,0,0.7,0,0.9,0.1c0.2,0.1,0.4,0.2,0.5,0.3s0.2,0.3,0.2,0.5c0,0.1,0,0.4,0,0.7v1
		c0,0.7,0,1.1,0,1.3s0.1,0.4,0.2,0.5h-0.8C43.1,63.5,43,63.4,43,63.2z M43,61.5c-0.3,0.1-0.7,0.2-1.2,0.3c-0.3,0-0.5,0.1-0.7,0.1
		c-0.1,0.1-0.2,0.1-0.3,0.2c-0.1,0.1-0.1,0.2-0.1,0.4c0,0.2,0.1,0.4,0.2,0.5s0.4,0.2,0.7,0.2c0.3,0,0.5-0.1,0.8-0.2
		c0.2-0.1,0.4-0.3,0.5-0.5c0.1-0.2,0.1-0.4,0.1-0.7V61.5z"/>
	<path d="M45.6,63.7h-0.7v-6.1h0.7v2.2c0.3-0.4,0.7-0.6,1.2-0.6c0.3,0,0.5,0.1,0.8,0.2s0.4,0.3,0.6,0.5s0.3,0.4,0.4,0.7
		c0.1,0.3,0.1,0.6,0.1,0.9c0,0.8-0.2,1.3-0.6,1.8c-0.4,0.4-0.8,0.6-1.3,0.6c-0.5,0-0.9-0.2-1.2-0.7V63.7z M45.6,61.5
		c0,0.5,0.1,0.9,0.2,1.1c0.2,0.4,0.6,0.6,1,0.6c0.3,0,0.6-0.1,0.8-0.4c0.2-0.3,0.4-0.7,0.4-1.3c0-0.6-0.1-1-0.3-1.3
		c-0.2-0.3-0.5-0.4-0.8-0.4c-0.3,0-0.6,0.1-0.8,0.4C45.7,60.5,45.6,60.9,45.6,61.5z"/>
	<path d="M49.6,63.7v-6.1h0.7v6.1H49.6z"/>
	<path d="M54.5,62.3l0.8,0.1c-0.1,0.5-0.3,0.8-0.7,1.1c-0.3,0.2-0.7,0.4-1.3,0.4c-0.6,0-1.2-0.2-1.5-0.6c-0.4-0.4-0.6-1-0.6-1.7
		c0-0.7,0.2-1.3,0.6-1.7s0.9-0.6,1.5-0.6c0.6,0,1.1,0.2,1.4,0.6c0.4,0.4,0.6,1,0.6,1.7c0,0,0,0.1,0,0.2H52c0,0.5,0.2,0.9,0.4,1.1
		c0.2,0.3,0.6,0.4,0.9,0.4c0.3,0,0.5-0.1,0.7-0.2C54.2,62.8,54.4,62.6,54.5,62.3z M52.1,61.1h2.5c0-0.4-0.1-0.6-0.3-0.8
		c-0.2-0.3-0.5-0.4-0.9-0.4c-0.3,0-0.6,0.1-0.9,0.3C52.2,60.4,52.1,60.7,52.1,61.1z"/>
	<path d="M61.4,63.2c-0.3,0.2-0.5,0.4-0.8,0.5c-0.3,0.1-0.5,0.1-0.8,0.1c-0.5,0-0.9-0.1-1.1-0.4c-0.3-0.2-0.4-0.5-0.4-0.9
		c0-0.2,0-0.4,0.1-0.6c0.1-0.2,0.2-0.3,0.4-0.4s0.3-0.2,0.5-0.2c0.1,0,0.4-0.1,0.7-0.1c0.6-0.1,1-0.2,1.3-0.3c0-0.1,0-0.2,0-0.2
		c0-0.3-0.1-0.5-0.2-0.6c-0.2-0.2-0.5-0.3-0.9-0.3c-0.4,0-0.6,0.1-0.8,0.2s-0.3,0.3-0.4,0.7l-0.7-0.1c0.1-0.3,0.2-0.6,0.3-0.8
		s0.4-0.3,0.7-0.4c0.3-0.1,0.6-0.2,1-0.2c0.4,0,0.7,0,0.9,0.1c0.2,0.1,0.4,0.2,0.5,0.3s0.2,0.3,0.2,0.5c0,0.1,0,0.4,0,0.7v1
		c0,0.7,0,1.1,0,1.3s0.1,0.4,0.2,0.5h-0.8C61.5,63.5,61.4,63.4,61.4,63.2z M61.4,61.5c-0.3,0.1-0.7,0.2-1.2,0.3
		c-0.3,0-0.5,0.1-0.7,0.1c-0.1,0.1-0.2,0.1-0.3,0.2c-0.1,0.1-0.1,0.2-0.1,0.4c0,0.2,0.1,0.4,0.2,0.5s0.4,0.2,0.7,0.2
		c0.3,0,0.5-0.1,0.8-0.2c0.2-0.1,0.4-0.3,0.5-0.5c0.1-0.2,0.1-0.4,0.1-0.7V61.5z"/>
	<path d="M63,62.4l0.7-0.1c0,0.3,0.2,0.5,0.3,0.7c0.2,0.2,0.5,0.2,0.8,0.2c0.3,0,0.6-0.1,0.8-0.2s0.2-0.3,0.2-0.5
		c0-0.2-0.1-0.3-0.2-0.4c-0.1-0.1-0.4-0.2-0.8-0.3c-0.5-0.1-0.9-0.3-1.1-0.4c-0.2-0.1-0.4-0.2-0.5-0.4c-0.1-0.2-0.2-0.4-0.2-0.6
		c0-0.2,0-0.4,0.1-0.5s0.2-0.3,0.4-0.4c0.1-0.1,0.3-0.2,0.5-0.2s0.4-0.1,0.6-0.1c0.3,0,0.6,0,0.9,0.1c0.3,0.1,0.5,0.2,0.6,0.4
		c0.1,0.2,0.2,0.4,0.3,0.7l-0.7,0.1c0-0.2-0.1-0.4-0.3-0.5s-0.4-0.2-0.7-0.2c-0.3,0-0.6,0.1-0.7,0.2c-0.1,0.1-0.2,0.2-0.2,0.4
		c0,0.1,0,0.2,0.1,0.3c0.1,0.1,0.2,0.1,0.3,0.2c0.1,0,0.3,0.1,0.7,0.2c0.5,0.1,0.9,0.3,1.1,0.3s0.4,0.2,0.5,0.4s0.2,0.4,0.2,0.6
		c0,0.2-0.1,0.5-0.2,0.7c-0.1,0.2-0.4,0.4-0.6,0.5c-0.3,0.1-0.6,0.2-0.9,0.2c-0.6,0-1-0.1-1.3-0.4S63.1,62.9,63,62.4z"/>
	<path d="M70.7,63.7l-1.3-4.4h0.8l0.7,2.5l0.3,0.9c0,0,0.1-0.4,0.2-0.9l0.7-2.6h0.8l0.7,2.6l0.2,0.8l0.3-0.9l0.8-2.5h0.7L74,63.7
		h-0.8l-0.7-2.6l-0.2-0.8l-0.9,3.4H70.7z"/>
	<path d="M79,62.3l0.8,0.1c-0.1,0.5-0.3,0.8-0.7,1.1c-0.3,0.2-0.7,0.4-1.3,0.4c-0.6,0-1.2-0.2-1.5-0.6c-0.4-0.4-0.6-1-0.6-1.7
		c0-0.7,0.2-1.3,0.6-1.7s0.9-0.6,1.5-0.6c0.6,0,1.1,0.2,1.4,0.6c0.4,0.4,0.6,1,0.6,1.7c0,0,0,0.1,0,0.2h-3.3c0,0.5,0.2,0.9,0.4,1.1
		c0.2,0.3,0.6,0.4,0.9,0.4c0.3,0,0.5-0.1,0.7-0.2C78.7,62.8,78.9,62.6,79,62.3z M76.5,61.1H79c0-0.4-0.1-0.6-0.3-0.8
		c-0.2-0.3-0.5-0.4-0.9-0.4c-0.3,0-0.6,0.1-0.9,0.3C76.7,60.4,76.6,60.7,76.5,61.1z"/>
	<path d="M85.9,63.7v-0.6c-0.3,0.5-0.8,0.7-1.4,0.7c-0.3,0-0.5,0-0.7-0.1s-0.4-0.2-0.5-0.4s-0.2-0.3-0.2-0.6c0-0.1,0-0.4,0-0.7v-2.7
		h0.7v2.4c0,0.4,0,0.7,0,0.8c0,0.2,0.1,0.4,0.3,0.5c0.2,0.1,0.3,0.2,0.6,0.2s0.4-0.1,0.6-0.2s0.3-0.3,0.4-0.5s0.1-0.5,0.1-0.9v-2.4
		h0.7v4.4H85.9z"/>
	<path d="M87.7,65.4v-6.1h0.7v0.6c0.2-0.2,0.3-0.4,0.5-0.5c0.2-0.1,0.4-0.2,0.7-0.2c0.4,0,0.7,0.1,1,0.3c0.3,0.2,0.5,0.5,0.7,0.8
		c0.1,0.4,0.2,0.7,0.2,1.2c0,0.5-0.1,0.9-0.2,1.2c-0.2,0.4-0.4,0.6-0.7,0.8s-0.6,0.3-1,0.3c-0.2,0-0.5-0.1-0.7-0.2s-0.4-0.2-0.5-0.4
		v2.1H87.7z M88.4,61.5c0,0.6,0.1,1,0.3,1.3c0.2,0.3,0.5,0.4,0.8,0.4c0.3,0,0.6-0.1,0.9-0.4c0.2-0.3,0.4-0.7,0.4-1.3
		c0-0.6-0.1-1-0.3-1.3s-0.5-0.4-0.8-0.4c-0.3,0-0.6,0.1-0.8,0.4C88.5,60.5,88.4,61,88.4,61.5z"/>
	<path d="M92.3,64.1l0.7,0.1c0,0.2,0.1,0.4,0.3,0.5c0.2,0.1,0.4,0.2,0.8,0.2c0.3,0,0.6-0.1,0.8-0.2s0.3-0.3,0.4-0.6
		c0-0.2,0.1-0.5,0.1-1c-0.3,0.4-0.7,0.6-1.2,0.6c-0.6,0-1.1-0.2-1.4-0.7s-0.5-1-0.5-1.6c0-0.4,0.1-0.8,0.2-1.2
		c0.2-0.4,0.4-0.6,0.7-0.8s0.6-0.3,1-0.3c0.5,0,0.9,0.2,1.3,0.6v-0.5h0.7v3.8c0,0.7-0.1,1.2-0.2,1.5c-0.1,0.3-0.4,0.5-0.7,0.7
		c-0.3,0.2-0.7,0.2-1.1,0.2c-0.5,0-1-0.1-1.3-0.4C92.5,64.9,92.3,64.5,92.3,64.1z M93,61.4c0,0.6,0.1,1,0.3,1.3s0.5,0.4,0.9,0.4
		c0.3,0,0.6-0.1,0.9-0.4s0.3-0.7,0.3-1.2c0-0.5-0.1-0.9-0.4-1.2s-0.5-0.4-0.9-0.4c-0.3,0-0.6,0.1-0.8,0.4C93.1,60.5,93,60.9,93,61.4
		z"/>
	<path d="M97.2,63.7v-4.4h0.7V60c0.2-0.3,0.3-0.5,0.5-0.6c0.1-0.1,0.3-0.1,0.5-0.1c0.3,0,0.5,0.1,0.8,0.2l-0.3,0.7
		C99.2,60,99,60,98.8,60c-0.2,0-0.3,0-0.4,0.1s-0.2,0.2-0.3,0.4c-0.1,0.3-0.1,0.6-0.1,0.9v2.3H97.2z"/>
	<path d="M102.9,63.2c-0.3,0.2-0.5,0.4-0.8,0.5c-0.3,0.1-0.5,0.1-0.8,0.1c-0.5,0-0.9-0.1-1.1-0.4c-0.3-0.2-0.4-0.5-0.4-0.9
		c0-0.2,0-0.4,0.1-0.6c0.1-0.2,0.2-0.3,0.4-0.4s0.3-0.2,0.5-0.2c0.1,0,0.4-0.1,0.7-0.1c0.6-0.1,1-0.2,1.3-0.3c0-0.1,0-0.2,0-0.2
		c0-0.3-0.1-0.5-0.2-0.6c-0.2-0.2-0.5-0.3-0.9-0.3c-0.4,0-0.6,0.1-0.8,0.2s-0.3,0.3-0.4,0.7l-0.7-0.1c0.1-0.3,0.2-0.6,0.3-0.8
		s0.4-0.3,0.7-0.4c0.3-0.1,0.6-0.2,1-0.2c0.4,0,0.7,0,0.9,0.1c0.2,0.1,0.4,0.2,0.5,0.3s0.2,0.3,0.2,0.5c0,0.1,0,0.4,0,0.7v1
		c0,0.7,0,1.1,0,1.3s0.1,0.4,0.2,0.5h-0.8C103,63.5,102.9,63.4,102.9,63.2z M102.8,61.5c-0.3,0.1-0.7,0.2-1.2,0.3
		c-0.3,0-0.5,0.1-0.7,0.1c-0.1,0.1-0.2,0.1-0.3,0.2c-0.1,0.1-0.1,0.2-0.1,0.4c0,0.2,0.1,0.4,0.2,0.5s0.4,0.2,0.7,0.2
		c0.3,0,0.5-0.1,0.8-0.2c0.2-0.1,0.4-0.3,0.5-0.5c0.1-0.2,0.1-0.4,0.1-0.7V61.5z"/>
	<path d="M107.6,63.7v-0.6c-0.3,0.4-0.7,0.7-1.2,0.7c-0.4,0-0.7-0.1-1-0.3c-0.3-0.2-0.5-0.5-0.7-0.8c-0.2-0.3-0.2-0.7-0.2-1.2
		c0-0.4,0.1-0.8,0.2-1.2c0.1-0.4,0.4-0.6,0.7-0.8c0.3-0.2,0.6-0.3,1-0.3c0.3,0,0.5,0.1,0.7,0.2c0.2,0.1,0.4,0.3,0.5,0.4v-2.2h0.7
		v6.1H107.6z M105.3,61.5c0,0.6,0.1,1,0.4,1.3c0.2,0.3,0.5,0.4,0.8,0.4c0.3,0,0.6-0.1,0.8-0.4c0.2-0.3,0.3-0.7,0.3-1.2
		c0-0.6-0.1-1-0.3-1.3s-0.5-0.4-0.9-0.4c-0.3,0-0.6,0.1-0.8,0.4C105.4,60.5,105.3,60.9,105.3,61.5z"/>
	<path d="M112.5,62.3l0.8,0.1c-0.1,0.5-0.3,0.8-0.7,1.1c-0.3,0.2-0.7,0.4-1.3,0.4c-0.6,0-1.2-0.2-1.5-0.6c-0.4-0.4-0.6-1-0.6-1.7
		c0-0.7,0.2-1.3,0.6-1.7s0.9-0.6,1.5-0.6c0.6,0,1.1,0.2,1.4,0.6c0.4,0.4,0.6,1,0.6,1.7c0,0,0,0.1,0,0.2H110c0,0.5,0.2,0.9,0.4,1.1
		c0.2,0.3,0.6,0.4,0.9,0.4c0.3,0,0.5-0.1,0.7-0.2C112.2,62.8,112.4,62.6,112.5,62.3z M110.1,61.1h2.5c0-0.4-0.1-0.6-0.3-0.8
		c-0.2-0.3-0.5-0.4-0.9-0.4c-0.3,0-0.6,0.1-0.9,0.3C110.2,60.4,110.1,60.7,110.1,61.1z"/>
	<path d="M118.2,63l0.1,0.7c-0.2,0-0.4,0.1-0.6,0.1c-0.3,0-0.5,0-0.6-0.1c-0.1-0.1-0.3-0.2-0.3-0.3s-0.1-0.4-0.1-0.9v-2.5h-0.5v-0.6
		h0.5v-1.1l0.7-0.4v1.5h0.8v0.6h-0.8v2.6c0,0.2,0,0.3,0,0.4s0.1,0.1,0.1,0.1c0.1,0,0.1,0.1,0.3,0.1C117.9,63.1,118,63.1,118.2,63z"
		/>
	<path d="M118.9,63.7v-6.1h0.7v2.2c0.3-0.4,0.8-0.6,1.3-0.6c0.3,0,0.6,0.1,0.9,0.2c0.2,0.1,0.4,0.3,0.5,0.5c0.1,0.2,0.2,0.6,0.2,1
		v2.8h-0.7v-2.8c0-0.4-0.1-0.6-0.2-0.8c-0.2-0.2-0.4-0.3-0.7-0.3c-0.2,0-0.4,0.1-0.6,0.2c-0.2,0.1-0.3,0.3-0.4,0.5
		c-0.1,0.2-0.1,0.5-0.1,0.8v2.4H118.9z"/>
	<path d="M126.6,62.3l0.8,0.1c-0.1,0.5-0.3,0.8-0.7,1.1c-0.3,0.2-0.7,0.4-1.3,0.4c-0.6,0-1.2-0.2-1.5-0.6c-0.4-0.4-0.6-1-0.6-1.7
		c0-0.7,0.2-1.3,0.6-1.7s0.9-0.6,1.5-0.6c0.6,0,1.1,0.2,1.4,0.6c0.4,0.4,0.6,1,0.6,1.7c0,0,0,0.1,0,0.2h-3.3c0,0.5,0.2,0.9,0.4,1.1
		c0.2,0.3,0.6,0.4,0.9,0.4c0.3,0,0.5-0.1,0.7-0.2C126.4,62.8,126.5,62.6,126.6,62.3z M124.2,61.1h2.5c0-0.4-0.1-0.6-0.3-0.8
		c-0.2-0.3-0.5-0.4-0.9-0.4c-0.3,0-0.6,0.1-0.9,0.3C124.3,60.4,124.2,60.7,124.2,61.1z"/>
	<path d="M133.7,62.3l0.8,0.1c-0.1,0.5-0.3,0.8-0.7,1.1c-0.3,0.2-0.7,0.4-1.3,0.4c-0.6,0-1.2-0.2-1.5-0.6c-0.4-0.4-0.6-1-0.6-1.7
		c0-0.7,0.2-1.3,0.6-1.7s0.9-0.6,1.5-0.6c0.6,0,1.1,0.2,1.4,0.6c0.4,0.4,0.6,1,0.6,1.7c0,0,0,0.1,0,0.2h-3.3c0,0.5,0.2,0.9,0.4,1.1
		c0.2,0.3,0.6,0.4,0.9,0.4c0.3,0,0.5-0.1,0.7-0.2C133.4,62.8,133.6,62.6,133.7,62.3z M131.2,61.1h2.5c0-0.4-0.1-0.6-0.3-0.8
		c-0.2-0.3-0.5-0.4-0.9-0.4c-0.3,0-0.6,0.1-0.9,0.3C131.4,60.4,131.3,60.7,131.2,61.1z"/>
	<path d="M135.4,63.7v-6.1h0.7v6.1H135.4z"/>
	<path d="M140.3,62.3l0.8,0.1c-0.1,0.5-0.3,0.8-0.7,1.1c-0.3,0.2-0.7,0.4-1.3,0.4c-0.6,0-1.2-0.2-1.5-0.6c-0.4-0.4-0.6-1-0.6-1.7
		c0-0.7,0.2-1.3,0.6-1.7s0.9-0.6,1.5-0.6c0.6,0,1.1,0.2,1.4,0.6c0.4,0.4,0.6,1,0.6,1.7c0,0,0,0.1,0,0.2h-3.3c0,0.5,0.2,0.9,0.4,1.1
		c0.2,0.3,0.6,0.4,0.9,0.4c0.3,0,0.5-0.1,0.7-0.2C140,62.8,140.2,62.6,140.3,62.3z M137.9,61.1h2.5c0-0.4-0.1-0.6-0.3-0.8
		c-0.2-0.3-0.5-0.4-0.9-0.4c-0.3,0-0.6,0.1-0.9,0.3C138,60.4,137.9,60.7,137.9,61.1z"/>
	<path d="M144.9,62.1l0.7,0.1c-0.1,0.5-0.3,0.9-0.6,1.2c-0.3,0.3-0.7,0.4-1.2,0.4c-0.6,0-1.1-0.2-1.5-0.6c-0.4-0.4-0.5-1-0.5-1.7
		c0-0.5,0.1-0.9,0.2-1.2c0.2-0.4,0.4-0.6,0.7-0.8c0.3-0.2,0.7-0.3,1.1-0.3c0.5,0,0.9,0.1,1.2,0.4c0.3,0.2,0.5,0.6,0.6,1l-0.7,0.1
		c-0.1-0.3-0.2-0.5-0.4-0.7s-0.4-0.2-0.6-0.2c-0.4,0-0.7,0.1-0.9,0.4c-0.2,0.3-0.4,0.7-0.4,1.3c0,0.6,0.1,1,0.3,1.3
		c0.2,0.3,0.5,0.4,0.9,0.4c0.3,0,0.5-0.1,0.7-0.3C144.7,62.7,144.8,62.5,144.9,62.1z"/>
	<path d="M147.9,63l0.1,0.7c-0.2,0-0.4,0.1-0.6,0.1c-0.3,0-0.5,0-0.6-0.1c-0.1-0.1-0.3-0.2-0.3-0.3c-0.1-0.1-0.1-0.4-0.1-0.9v-2.5
		h-0.5v-0.6h0.5v-1.1l0.7-0.4v1.5h0.8v0.6h-0.8v2.6c0,0.2,0,0.3,0,0.4s0.1,0.1,0.1,0.1c0.1,0,0.1,0.1,0.3,0.1
		C147.6,63.1,147.8,63.1,147.9,63z"/>
	<path d="M148.6,63.7v-4.4h0.7V60c0.2-0.3,0.3-0.5,0.5-0.6c0.1-0.1,0.3-0.1,0.5-0.1c0.3,0,0.5,0.1,0.8,0.2l-0.3,0.7
		c-0.2-0.1-0.4-0.2-0.5-0.2c-0.2,0-0.3,0-0.4,0.1c-0.1,0.1-0.2,0.2-0.3,0.4c-0.1,0.3-0.1,0.6-0.1,0.9v2.3H148.6z"/>
	<path d="M151.5,58.5v-0.9h0.7v0.9H151.5z M151.5,63.7v-4.4h0.7v4.4H151.5z"/>
	<path d="M156.2,62.1l0.7,0.1c-0.1,0.5-0.3,0.9-0.6,1.2c-0.3,0.3-0.7,0.4-1.2,0.4c-0.6,0-1.1-0.2-1.5-0.6c-0.4-0.4-0.5-1-0.5-1.7
		c0-0.5,0.1-0.9,0.2-1.2c0.2-0.4,0.4-0.6,0.7-0.8c0.3-0.2,0.7-0.3,1.1-0.3c0.5,0,0.9,0.1,1.2,0.4c0.3,0.2,0.5,0.6,0.6,1l-0.7,0.1
		c-0.1-0.3-0.2-0.5-0.4-0.7s-0.4-0.2-0.6-0.2c-0.4,0-0.7,0.1-0.9,0.4c-0.2,0.3-0.4,0.7-0.4,1.3c0,0.6,0.1,1,0.3,1.3
		c0.2,0.3,0.5,0.4,0.9,0.4c0.3,0,0.5-0.1,0.7-0.3C156,62.7,156.2,62.5,156.2,62.1z"/>
	<path d="M157.6,58.5v-0.9h0.7v0.9H157.6z M157.6,63.7v-4.4h0.7v4.4H157.6z"/>
	<path d="M161.1,63l0.1,0.7c-0.2,0-0.4,0.1-0.6,0.1c-0.3,0-0.5,0-0.6-0.1c-0.1-0.1-0.3-0.2-0.3-0.3c-0.1-0.1-0.1-0.4-0.1-0.9v-2.5
		h-0.5v-0.6h0.5v-1.1l0.7-0.4v1.5h0.8v0.6h-0.8v2.6c0,0.2,0,0.3,0,0.4s0.1,0.1,0.1,0.1c0.1,0,0.1,0.1,0.3,0.1
		C160.9,63.1,161,63.1,161.1,63z"/>
	<path d="M161.8,65.4l-0.1-0.7c0.2,0,0.3,0.1,0.4,0.1c0.2,0,0.3,0,0.4-0.1s0.2-0.1,0.2-0.2c0-0.1,0.1-0.3,0.2-0.6c0,0,0-0.1,0.1-0.2
		l-1.7-4.4h0.8l0.9,2.6c0.1,0.3,0.2,0.7,0.3,1c0.1-0.3,0.2-0.7,0.3-1l0.9-2.6h0.7l-1.7,4.5c-0.2,0.5-0.3,0.8-0.4,1
		c-0.1,0.2-0.3,0.4-0.5,0.5c-0.2,0.1-0.4,0.2-0.6,0.2C162.1,65.5,162,65.5,161.8,65.4z"/>
</g>
<g>
	<path d="M18.3,75.1L19,75c0,0.3,0.2,0.5,0.3,0.7c0.2,0.2,0.5,0.2,0.8,0.2c0.3,0,0.6-0.1,0.8-0.2s0.2-0.3,0.2-0.5
		c0-0.2-0.1-0.3-0.2-0.4c-0.1-0.1-0.4-0.2-0.8-0.3c-0.5-0.1-0.9-0.3-1.1-0.4c-0.2-0.1-0.4-0.2-0.5-0.4c-0.1-0.2-0.2-0.4-0.2-0.6
		c0-0.2,0-0.4,0.1-0.5s0.2-0.3,0.4-0.4c0.1-0.1,0.3-0.2,0.5-0.2s0.4-0.1,0.6-0.1c0.3,0,0.6,0,0.9,0.1c0.3,0.1,0.5,0.2,0.6,0.4
		c0.1,0.2,0.2,0.4,0.3,0.7L21,73.3c0-0.2-0.1-0.4-0.3-0.5s-0.4-0.2-0.7-0.2c-0.3,0-0.6,0.1-0.7,0.2c-0.1,0.1-0.2,0.2-0.2,0.4
		c0,0.1,0,0.2,0.1,0.3c0.1,0.1,0.2,0.1,0.3,0.2c0.1,0,0.3,0.1,0.7,0.2c0.5,0.1,0.9,0.3,1.1,0.3s0.4,0.2,0.5,0.4s0.2,0.4,0.2,0.6
		c0,0.2-0.1,0.5-0.2,0.7c-0.1,0.2-0.4,0.4-0.6,0.5c-0.3,0.1-0.6,0.2-0.9,0.2c-0.6,0-1-0.1-1.3-0.4S18.3,75.6,18.3,75.1z"/>
	<path d="M22.8,78.1l-0.1-0.7c0.2,0,0.3,0.1,0.4,0.1c0.2,0,0.3,0,0.4-0.1s0.2-0.1,0.2-0.2c0-0.1,0.1-0.3,0.2-0.6c0,0,0-0.1,0.1-0.2
		L22.4,72h0.8l0.9,2.6c0.1,0.3,0.2,0.7,0.3,1c0.1-0.3,0.2-0.7,0.3-1l0.9-2.6h0.7l-1.7,4.5c-0.2,0.5-0.3,0.8-0.4,1
		c-0.1,0.2-0.3,0.4-0.5,0.5c-0.2,0.1-0.4,0.2-0.6,0.2C23.1,78.2,23,78.2,22.8,78.1z"/>
	<path d="M26.8,75.1l0.7-0.1c0,0.3,0.2,0.5,0.3,0.7c0.2,0.2,0.5,0.2,0.8,0.2c0.3,0,0.6-0.1,0.8-0.2s0.2-0.3,0.2-0.5
		c0-0.2-0.1-0.3-0.2-0.4c-0.1-0.1-0.4-0.2-0.8-0.3c-0.5-0.1-0.9-0.3-1.1-0.4c-0.2-0.1-0.4-0.2-0.5-0.4c-0.1-0.2-0.2-0.4-0.2-0.6
		c0-0.2,0-0.4,0.1-0.5s0.2-0.3,0.4-0.4c0.1-0.1,0.3-0.2,0.5-0.2s0.4-0.1,0.6-0.1c0.3,0,0.6,0,0.9,0.1c0.3,0.1,0.5,0.2,0.6,0.4
		c0.1,0.2,0.2,0.4,0.3,0.7l-0.7,0.1c0-0.2-0.1-0.4-0.3-0.5s-0.4-0.2-0.7-0.2c-0.3,0-0.6,0.1-0.7,0.2c-0.1,0.1-0.2,0.2-0.2,0.4
		c0,0.1,0,0.2,0.1,0.3c0.1,0.1,0.2,0.1,0.3,0.2c0.1,0,0.3,0.1,0.7,0.2c0.5,0.1,0.9,0.3,1.1,0.3s0.4,0.2,0.5,0.4s0.2,0.4,0.2,0.6
		c0,0.2-0.1,0.5-0.2,0.7c-0.1,0.2-0.4,0.4-0.6,0.5c-0.3,0.1-0.6,0.2-0.9,0.2c-0.6,0-1-0.1-1.3-0.4S26.8,75.6,26.8,75.1z"/>
	<path d="M32.9,75.8l0.1,0.7c-0.2,0-0.4,0.1-0.6,0.1c-0.3,0-0.5,0-0.6-0.1c-0.1-0.1-0.3-0.2-0.3-0.3s-0.1-0.4-0.1-0.9v-2.5h-0.5V72
		h0.5V71l0.7-0.4V72h0.8v0.6h-0.8v2.6c0,0.2,0,0.3,0,0.4s0.1,0.1,0.1,0.1c0.1,0,0.1,0.1,0.3,0.1C32.7,75.8,32.8,75.8,32.9,75.8z"/>
	<path d="M36.7,75l0.8,0.1c-0.1,0.5-0.3,0.8-0.7,1.1c-0.3,0.2-0.7,0.4-1.3,0.4c-0.6,0-1.2-0.2-1.5-0.6c-0.4-0.4-0.6-1-0.6-1.7
		c0-0.7,0.2-1.3,0.6-1.7s0.9-0.6,1.5-0.6c0.6,0,1.1,0.2,1.4,0.6c0.4,0.4,0.6,1,0.6,1.7c0,0,0,0.1,0,0.2h-3.3c0,0.5,0.2,0.9,0.4,1.1
		c0.2,0.3,0.6,0.4,0.9,0.4c0.3,0,0.5-0.1,0.7-0.2C36.4,75.6,36.6,75.3,36.7,75z M34.2,73.8h2.5c0-0.4-0.1-0.6-0.3-0.8
		c-0.2-0.3-0.5-0.4-0.9-0.4c-0.3,0-0.6,0.1-0.9,0.3C34.4,73.1,34.3,73.4,34.2,73.8z"/>
	<path d="M38.4,76.4V72h0.7v0.6c0.1-0.2,0.3-0.4,0.6-0.5c0.2-0.1,0.5-0.2,0.8-0.2c0.3,0,0.6,0.1,0.8,0.2c0.2,0.1,0.4,0.3,0.4,0.6
		c0.3-0.5,0.8-0.8,1.4-0.8c0.4,0,0.8,0.1,1,0.4c0.2,0.2,0.4,0.6,0.4,1.1v3h-0.7v-2.8c0-0.3,0-0.5-0.1-0.6s-0.1-0.2-0.3-0.3
		c-0.1-0.1-0.3-0.1-0.4-0.1c-0.3,0-0.6,0.1-0.8,0.3s-0.3,0.5-0.3,1v2.6H41v-2.9c0-0.3-0.1-0.6-0.2-0.7s-0.3-0.2-0.6-0.2
		c-0.2,0-0.4,0.1-0.6,0.2c-0.2,0.1-0.3,0.3-0.4,0.5c-0.1,0.2-0.1,0.5-0.1,0.9v2.3H38.4z"/>
	<path d="M49.5,75.8l0.1,0.7c-0.2,0-0.4,0.1-0.6,0.1c-0.3,0-0.5,0-0.6-0.1c-0.1-0.1-0.3-0.2-0.3-0.3S48,75.6,48,75.2v-2.5h-0.5V72
		H48V71l0.7-0.4V72h0.8v0.6h-0.8v2.6c0,0.2,0,0.3,0,0.4s0.1,0.1,0.1,0.1c0.1,0,0.1,0.1,0.3,0.1C49.2,75.8,49.3,75.8,49.5,75.8z"/>
	<path d="M49.9,74.2c0-0.8,0.2-1.4,0.7-1.8c0.4-0.3,0.8-0.5,1.4-0.5c0.6,0,1.1,0.2,1.5,0.6s0.6,0.9,0.6,1.6c0,0.6-0.1,1-0.3,1.3
		c-0.2,0.3-0.4,0.6-0.7,0.8c-0.3,0.2-0.7,0.3-1.1,0.3c-0.6,0-1.1-0.2-1.5-0.6C50.1,75.6,49.9,75,49.9,74.2z M50.7,74.2
		c0,0.6,0.1,1,0.4,1.3s0.6,0.4,0.9,0.4c0.4,0,0.7-0.1,0.9-0.4c0.2-0.3,0.4-0.7,0.4-1.3c0-0.5-0.1-1-0.4-1.2s-0.6-0.4-0.9-0.4
		c-0.4,0-0.7,0.1-0.9,0.4S50.7,73.7,50.7,74.2z"/>
	<path d="M60.2,74.8l0.7,0.1c-0.1,0.5-0.3,0.9-0.6,1.2c-0.3,0.3-0.7,0.4-1.2,0.4c-0.6,0-1.1-0.2-1.5-0.6c-0.4-0.4-0.5-1-0.5-1.7
		c0-0.5,0.1-0.9,0.2-1.2c0.2-0.4,0.4-0.6,0.7-0.8c0.3-0.2,0.7-0.3,1.1-0.3c0.5,0,0.9,0.1,1.2,0.4c0.3,0.2,0.5,0.6,0.6,1l-0.7,0.1
		c-0.1-0.3-0.2-0.5-0.4-0.7s-0.4-0.2-0.6-0.2c-0.4,0-0.7,0.1-0.9,0.4c-0.2,0.3-0.4,0.7-0.4,1.3c0,0.6,0.1,1,0.3,1.3
		c0.2,0.3,0.5,0.4,0.9,0.4c0.3,0,0.5-0.1,0.7-0.3C60,75.5,60.1,75.2,60.2,74.8z"/>
	<path d="M61.3,74.2c0-0.8,0.2-1.4,0.7-1.8c0.4-0.3,0.8-0.5,1.4-0.5c0.6,0,1.1,0.2,1.5,0.6s0.6,0.9,0.6,1.6c0,0.6-0.1,1-0.3,1.3
		c-0.2,0.3-0.4,0.6-0.7,0.8c-0.3,0.2-0.7,0.3-1.1,0.3c-0.6,0-1.1-0.2-1.5-0.6C61.5,75.6,61.3,75,61.3,74.2z M62,74.2
		c0,0.6,0.1,1,0.4,1.3s0.6,0.4,0.9,0.4c0.4,0,0.7-0.1,0.9-0.4c0.2-0.3,0.4-0.7,0.4-1.3c0-0.5-0.1-1-0.4-1.2s-0.6-0.4-0.9-0.4
		c-0.4,0-0.7,0.1-0.9,0.4S62,73.7,62,74.2z"/>
	<path d="M66.3,76.4V72h0.7v0.6c0.3-0.5,0.8-0.7,1.4-0.7c0.3,0,0.5,0,0.7,0.1c0.2,0.1,0.4,0.2,0.5,0.4c0.1,0.2,0.2,0.3,0.2,0.6
		c0,0.1,0,0.4,0,0.7v2.7h-0.7v-2.7c0-0.3,0-0.5-0.1-0.7c-0.1-0.2-0.2-0.3-0.3-0.4s-0.3-0.1-0.5-0.1c-0.3,0-0.6,0.1-0.8,0.3
		C67.1,73.1,67,73.5,67,74v2.4H66.3z"/>
	<path d="M72.6,75.8l0.1,0.7c-0.2,0-0.4,0.1-0.6,0.1c-0.3,0-0.5,0-0.6-0.1c-0.1-0.1-0.3-0.2-0.3-0.3s-0.1-0.4-0.1-0.9v-2.5h-0.5V72
		h0.5V71l0.7-0.4V72h0.8v0.6h-0.8v2.6c0,0.2,0,0.3,0,0.4s0.1,0.1,0.1,0.1c0.1,0,0.1,0.1,0.3,0.1C72.4,75.8,72.5,75.8,72.6,75.8z"/>
	<path d="M73.4,71.2v-0.9h0.7v0.9H73.4z M73.4,76.4V72h0.7v4.4H73.4z"/>
	<path d="M75.2,76.4V72h0.7v0.6c0.3-0.5,0.8-0.7,1.4-0.7c0.3,0,0.5,0,0.7,0.1c0.2,0.1,0.4,0.2,0.5,0.4c0.1,0.2,0.2,0.3,0.2,0.6
		c0,0.1,0,0.4,0,0.7v2.7h-0.7v-2.7c0-0.3,0-0.5-0.1-0.7c-0.1-0.2-0.2-0.3-0.3-0.4s-0.3-0.1-0.5-0.1c-0.3,0-0.6,0.1-0.8,0.3
		C76.1,73.1,76,73.5,76,74v2.4H75.2z"/>
	<path d="M82.9,76.4v-0.6c-0.3,0.5-0.8,0.7-1.4,0.7c-0.3,0-0.5,0-0.7-0.1s-0.4-0.2-0.5-0.4S80,75.7,80,75.5c0-0.1,0-0.4,0-0.7V72
		h0.7v2.4c0,0.4,0,0.7,0,0.8c0,0.2,0.1,0.4,0.3,0.5c0.2,0.1,0.3,0.2,0.6,0.2s0.4-0.1,0.6-0.2s0.3-0.3,0.4-0.5s0.1-0.5,0.1-0.9V72
		h0.7v4.4H82.9z"/>
	<path d="M87.7,75l0.8,0.1c-0.1,0.5-0.3,0.8-0.7,1.1c-0.3,0.2-0.7,0.4-1.3,0.4c-0.6,0-1.2-0.2-1.5-0.6c-0.4-0.4-0.6-1-0.6-1.7
		c0-0.7,0.2-1.3,0.6-1.7s0.9-0.6,1.5-0.6c0.6,0,1.1,0.2,1.4,0.6c0.4,0.4,0.6,1,0.6,1.7c0,0,0,0.1,0,0.2h-3.3c0,0.5,0.2,0.9,0.4,1.1
		c0.2,0.3,0.6,0.4,0.9,0.4c0.3,0,0.5-0.1,0.7-0.2C87.5,75.6,87.6,75.3,87.7,75z M85.3,73.8h2.5c0-0.4-0.1-0.6-0.3-0.8
		c-0.2-0.3-0.5-0.4-0.9-0.4c-0.3,0-0.6,0.1-0.9,0.3C85.4,73.1,85.3,73.4,85.3,73.8z"/>
	<path d="M93.4,75.8l0.1,0.7c-0.2,0-0.4,0.1-0.6,0.1c-0.3,0-0.5,0-0.6-0.1c-0.1-0.1-0.3-0.2-0.3-0.3s-0.1-0.4-0.1-0.9v-2.5h-0.5V72
		h0.5V71l0.7-0.4V72h0.8v0.6h-0.8v2.6c0,0.2,0,0.3,0,0.4s0.1,0.1,0.1,0.1c0.1,0,0.1,0.1,0.3,0.1C93.2,75.8,93.3,75.8,93.4,75.8z"/>
	<path d="M93.9,74.2c0-0.8,0.2-1.4,0.7-1.8c0.4-0.3,0.8-0.5,1.4-0.5c0.6,0,1.1,0.2,1.5,0.6s0.6,0.9,0.6,1.6c0,0.6-0.1,1-0.3,1.3
		c-0.2,0.3-0.4,0.6-0.7,0.8c-0.3,0.2-0.7,0.3-1.1,0.3c-0.6,0-1.1-0.2-1.5-0.6C94.1,75.6,93.9,75,93.9,74.2z M94.6,74.2
		c0,0.6,0.1,1,0.4,1.3s0.6,0.4,0.9,0.4c0.4,0,0.7-0.1,0.9-0.4c0.2-0.3,0.4-0.7,0.4-1.3c0-0.5-0.1-1-0.4-1.2s-0.6-0.4-0.9-0.4
		c-0.4,0-0.7,0.1-0.9,0.4S94.6,73.7,94.6,74.2z"/>
	<path d="M101.2,78.1V72h0.7v0.6c0.2-0.2,0.3-0.4,0.5-0.5c0.2-0.1,0.4-0.2,0.7-0.2c0.4,0,0.7,0.1,1,0.3c0.3,0.2,0.5,0.5,0.7,0.8
		c0.1,0.4,0.2,0.7,0.2,1.2c0,0.5-0.1,0.9-0.2,1.2c-0.2,0.4-0.4,0.6-0.7,0.8s-0.6,0.3-1,0.3c-0.2,0-0.5-0.1-0.7-0.2s-0.4-0.2-0.5-0.4
		v2.1H101.2z M101.9,74.3c0,0.6,0.1,1,0.3,1.3c0.2,0.3,0.5,0.4,0.8,0.4c0.3,0,0.6-0.1,0.9-0.4c0.2-0.3,0.4-0.7,0.4-1.3
		c0-0.6-0.1-1-0.3-1.3s-0.5-0.4-0.8-0.4c-0.3,0-0.6,0.1-0.8,0.4C102,73.3,101.9,73.7,101.9,74.3z"/>
	<path d="M106,76.4V72h0.7v0.7c0.2-0.3,0.3-0.5,0.5-0.6c0.1-0.1,0.3-0.1,0.5-0.1c0.3,0,0.5,0.1,0.8,0.2l-0.3,0.7
		c-0.2-0.1-0.4-0.2-0.5-0.2c-0.2,0-0.3,0-0.4,0.1s-0.2,0.2-0.3,0.4c-0.1,0.3-0.1,0.6-0.1,0.9v2.3H106z"/>
	<path d="M108.5,74.2c0-0.8,0.2-1.4,0.7-1.8c0.4-0.3,0.8-0.5,1.4-0.5c0.6,0,1.1,0.2,1.5,0.6s0.6,0.9,0.6,1.6c0,0.6-0.1,1-0.3,1.3
		c-0.2,0.3-0.4,0.6-0.7,0.8c-0.3,0.2-0.7,0.3-1.1,0.3c-0.6,0-1.1-0.2-1.5-0.6C108.7,75.6,108.5,75,108.5,74.2z M109.3,74.2
		c0,0.6,0.1,1,0.4,1.3s0.6,0.4,0.9,0.4c0.4,0,0.7-0.1,0.9-0.4c0.2-0.3,0.4-0.7,0.4-1.3c0-0.5-0.1-1-0.4-1.2s-0.6-0.4-0.9-0.4
		c-0.4,0-0.7,0.1-0.9,0.4S109.3,73.7,109.3,74.2z"/>
	<path d="M114.7,76.4l-1.7-4.4h0.8l0.9,2.6c0.1,0.3,0.2,0.6,0.3,0.9c0.1-0.2,0.2-0.5,0.3-0.8l1-2.7h0.8l-1.7,4.4H114.7z"/>
	<path d="M117.8,71.2v-0.9h0.7v0.9H117.8z M117.8,76.4V72h0.7v4.4H117.8z"/>
	<path d="M122.5,76.4v-0.6c-0.3,0.4-0.7,0.7-1.2,0.7c-0.4,0-0.7-0.1-1-0.3c-0.3-0.2-0.5-0.5-0.7-0.8c-0.2-0.3-0.2-0.7-0.2-1.2
		c0-0.4,0.1-0.8,0.2-1.2c0.1-0.4,0.4-0.6,0.7-0.8c0.3-0.2,0.6-0.3,1-0.3c0.3,0,0.5,0.1,0.7,0.2c0.2,0.1,0.4,0.3,0.5,0.4v-2.2h0.7
		v6.1H122.5z M120.2,74.3c0,0.6,0.1,1,0.4,1.3c0.2,0.3,0.5,0.4,0.8,0.4c0.3,0,0.6-0.1,0.8-0.4c0.2-0.3,0.3-0.7,0.3-1.2
		c0-0.6-0.1-1-0.3-1.3s-0.5-0.4-0.9-0.4c-0.3,0-0.6,0.1-0.8,0.4C120.3,73.2,120.2,73.7,120.2,74.3z"/>
	<path d="M127.4,75l0.8,0.1c-0.1,0.5-0.3,0.8-0.7,1.1c-0.3,0.2-0.7,0.4-1.3,0.4c-0.6,0-1.2-0.2-1.5-0.6c-0.4-0.4-0.6-1-0.6-1.7
		c0-0.7,0.2-1.3,0.6-1.7s0.9-0.6,1.5-0.6c0.6,0,1.1,0.2,1.4,0.6c0.4,0.4,0.6,1,0.6,1.7c0,0,0,0.1,0,0.2h-3.3c0,0.5,0.2,0.9,0.4,1.1
		c0.2,0.3,0.6,0.4,0.9,0.4c0.3,0,0.5-0.1,0.7-0.2C127.1,75.6,127.3,75.3,127.4,75z M125,73.8h2.5c0-0.4-0.1-0.6-0.3-0.8
		c-0.2-0.3-0.5-0.4-0.9-0.4c-0.3,0-0.6,0.1-0.9,0.3C125.1,73.1,125,73.4,125,73.8z"/>
	<path d="M131.5,76.4V72h0.7v0.7c0.2-0.3,0.3-0.5,0.5-0.6c0.1-0.1,0.3-0.1,0.5-0.1c0.3,0,0.5,0.1,0.8,0.2l-0.3,0.7
		c-0.2-0.1-0.4-0.2-0.5-0.2c-0.2,0-0.3,0-0.4,0.1s-0.2,0.2-0.3,0.4c-0.1,0.3-0.1,0.6-0.1,0.9v2.3H131.5z"/>
	<path d="M137.3,75l0.8,0.1c-0.1,0.5-0.3,0.8-0.7,1.1c-0.3,0.2-0.7,0.4-1.3,0.4c-0.6,0-1.2-0.2-1.5-0.6c-0.4-0.4-0.6-1-0.6-1.7
		c0-0.7,0.2-1.3,0.6-1.7s0.9-0.6,1.5-0.6c0.6,0,1.1,0.2,1.4,0.6c0.4,0.4,0.6,1,0.6,1.7c0,0,0,0.1,0,0.2h-3.3c0,0.5,0.2,0.9,0.4,1.1
		c0.2,0.3,0.6,0.4,0.9,0.4c0.3,0,0.5-0.1,0.7-0.2C137.1,75.6,137.2,75.3,137.3,75z M134.9,73.8h2.5c0-0.4-0.1-0.6-0.3-0.8
		c-0.2-0.3-0.5-0.4-0.9-0.4c-0.3,0-0.6,0.1-0.9,0.3C135,73.1,134.9,73.4,134.9,73.8z"/>
	<path d="M139,76.4v-6.1h0.7v6.1H139z"/>
	<path d="M140.9,71.2v-0.9h0.7v0.9H140.9z M140.9,76.4V72h0.7v4.4H140.9z"/>
	<path d="M145.7,75.9c-0.3,0.2-0.5,0.4-0.8,0.5c-0.3,0.1-0.5,0.1-0.8,0.1c-0.5,0-0.9-0.1-1.1-0.4c-0.3-0.2-0.4-0.5-0.4-0.9
		c0-0.2,0-0.4,0.1-0.6c0.1-0.2,0.2-0.3,0.4-0.4s0.3-0.2,0.5-0.2c0.1,0,0.4-0.1,0.7-0.1c0.6-0.1,1-0.2,1.3-0.3c0-0.1,0-0.2,0-0.2
		c0-0.3-0.1-0.5-0.2-0.6c-0.2-0.2-0.5-0.3-0.9-0.3c-0.4,0-0.6,0.1-0.8,0.2c-0.2,0.1-0.3,0.3-0.4,0.7l-0.7-0.1
		c0.1-0.3,0.2-0.6,0.3-0.8s0.4-0.3,0.7-0.4c0.3-0.1,0.6-0.2,1-0.2c0.4,0,0.7,0,0.9,0.1s0.4,0.2,0.5,0.3c0.1,0.1,0.2,0.3,0.2,0.5
		c0,0.1,0,0.4,0,0.7v1c0,0.7,0,1.1,0,1.3c0,0.2,0.1,0.4,0.2,0.5h-0.8C145.8,76.3,145.7,76.1,145.7,75.9z M145.6,74.2
		c-0.3,0.1-0.7,0.2-1.2,0.3c-0.3,0-0.5,0.1-0.7,0.1c-0.1,0.1-0.2,0.1-0.3,0.2s-0.1,0.2-0.1,0.4c0,0.2,0.1,0.4,0.2,0.5
		c0.2,0.1,0.4,0.2,0.7,0.2c0.3,0,0.5-0.1,0.8-0.2c0.2-0.1,0.4-0.3,0.5-0.5c0.1-0.2,0.1-0.4,0.1-0.7V74.2z"/>
	<path d="M148.2,76.4h-0.7v-6.1h0.7v2.2c0.3-0.4,0.7-0.6,1.2-0.6c0.3,0,0.5,0.1,0.8,0.2s0.4,0.3,0.6,0.5s0.3,0.4,0.4,0.7
		c0.1,0.3,0.1,0.6,0.1,0.9c0,0.8-0.2,1.3-0.6,1.8c-0.4,0.4-0.8,0.6-1.3,0.6c-0.5,0-0.9-0.2-1.2-0.7V76.4z M148.2,74.2
		c0,0.5,0.1,0.9,0.2,1.1c0.2,0.4,0.6,0.6,1,0.6c0.3,0,0.6-0.1,0.8-0.4c0.2-0.3,0.4-0.7,0.4-1.3c0-0.6-0.1-1-0.3-1.3
		c-0.2-0.3-0.5-0.4-0.8-0.4c-0.3,0-0.6,0.1-0.8,0.4C148.3,73.3,148.2,73.7,148.2,74.2z"/>
	<path d="M152.3,76.4v-6.1h0.7v6.1H152.3z"/>
	<path d="M157.2,75l0.8,0.1c-0.1,0.5-0.3,0.8-0.7,1.1s-0.8,0.4-1.3,0.4c-0.6,0-1.2-0.2-1.5-0.6s-0.6-1-0.6-1.7
		c0-0.7,0.2-1.3,0.6-1.7s0.9-0.6,1.5-0.6c0.6,0,1.1,0.2,1.4,0.6c0.4,0.4,0.6,1,0.6,1.7c0,0,0,0.1,0,0.2h-3.3c0,0.5,0.2,0.9,0.4,1.1
		c0.2,0.3,0.6,0.4,0.9,0.4c0.3,0,0.5-0.1,0.7-0.2C156.9,75.6,157.1,75.3,157.2,75z M154.7,73.8h2.5c0-0.4-0.1-0.6-0.3-0.8
		c-0.2-0.3-0.5-0.4-0.9-0.4c-0.3,0-0.6,0.1-0.9,0.3C154.9,73.1,154.7,73.4,154.7,73.8z"/>
</g>
<g>
	<path d="M18.6,90.9v-6.1h0.7v0.6c0.2-0.2,0.3-0.4,0.5-0.5c0.2-0.1,0.4-0.2,0.7-0.2c0.4,0,0.7,0.1,1,0.3c0.3,0.2,0.5,0.5,0.7,0.8
		c0.1,0.4,0.2,0.7,0.2,1.2c0,0.5-0.1,0.9-0.2,1.2c-0.2,0.4-0.4,0.6-0.7,0.8s-0.6,0.3-1,0.3c-0.2,0-0.5-0.1-0.7-0.2s-0.4-0.2-0.5-0.4
		v2.1H18.6z M19.2,87c0,0.6,0.1,1,0.3,1.3c0.2,0.3,0.5,0.4,0.8,0.4c0.3,0,0.6-0.1,0.9-0.4c0.2-0.3,0.4-0.7,0.4-1.3
		c0-0.6-0.1-1-0.3-1.3s-0.5-0.4-0.8-0.4c-0.3,0-0.6,0.1-0.8,0.4C19.4,86,19.2,86.5,19.2,87z"/>
	<path d="M23,87c0-0.8,0.2-1.4,0.7-1.8c0.4-0.3,0.8-0.5,1.4-0.5c0.6,0,1.1,0.2,1.5,0.6s0.6,0.9,0.6,1.6c0,0.6-0.1,1-0.3,1.3
		c-0.2,0.3-0.4,0.6-0.7,0.8c-0.3,0.2-0.7,0.3-1.1,0.3c-0.6,0-1.1-0.2-1.5-0.6C23.2,88.3,23,87.7,23,87z M23.8,87
		c0,0.6,0.1,1,0.4,1.3s0.6,0.4,0.9,0.4c0.4,0,0.7-0.1,0.9-0.4c0.2-0.3,0.4-0.7,0.4-1.3c0-0.5-0.1-1-0.4-1.2s-0.6-0.4-0.9-0.4
		c-0.4,0-0.7,0.1-0.9,0.4S23.8,86.4,23.8,87z"/>
	<path d="M28.8,89.2l-1.3-4.4h0.8l0.7,2.5l0.3,0.9c0,0,0.1-0.4,0.2-0.9l0.7-2.6h0.8l0.7,2.6l0.2,0.8l0.3-0.9l0.8-2.5h0.7l-1.4,4.4
		h-0.8l-0.7-2.6l-0.2-0.8l-0.9,3.4H28.8z"/>
	<path d="M37.2,87.8l0.8,0.1c-0.1,0.5-0.3,0.8-0.7,1.1c-0.3,0.2-0.7,0.4-1.3,0.4c-0.6,0-1.2-0.2-1.5-0.6c-0.4-0.4-0.6-1-0.6-1.7
		c0-0.7,0.2-1.3,0.6-1.7s0.9-0.6,1.5-0.6c0.6,0,1.1,0.2,1.4,0.6c0.4,0.4,0.6,1,0.6,1.7c0,0,0,0.1,0,0.2h-3.3c0,0.5,0.2,0.9,0.4,1.1
		c0.2,0.3,0.6,0.4,0.9,0.4c0.3,0,0.5-0.1,0.7-0.2C36.9,88.3,37.1,88.1,37.2,87.8z M34.7,86.6h2.5c0-0.4-0.1-0.6-0.3-0.8
		c-0.2-0.3-0.5-0.4-0.9-0.4c-0.3,0-0.6,0.1-0.9,0.3C34.9,85.9,34.7,86.2,34.7,86.6z"/>
	<path d="M38.9,89.2v-4.4h0.7v0.7c0.2-0.3,0.3-0.5,0.5-0.6c0.1-0.1,0.3-0.1,0.5-0.1c0.3,0,0.5,0.1,0.8,0.2L41,85.6
		c-0.2-0.1-0.4-0.2-0.5-0.2c-0.2,0-0.3,0-0.4,0.1s-0.2,0.2-0.3,0.4c-0.1,0.3-0.1,0.6-0.1,0.9v2.3H38.9z"/>
	<path d="M43.8,87.9l0.7-0.1c0,0.3,0.2,0.5,0.3,0.7c0.2,0.2,0.5,0.2,0.8,0.2c0.3,0,0.6-0.1,0.8-0.2s0.2-0.3,0.2-0.5
		c0-0.2-0.1-0.3-0.2-0.4c-0.1-0.1-0.4-0.2-0.8-0.3c-0.5-0.1-0.9-0.3-1.1-0.4c-0.2-0.1-0.4-0.2-0.5-0.4c-0.1-0.2-0.2-0.4-0.2-0.6
		c0-0.2,0-0.4,0.1-0.5s0.2-0.3,0.4-0.4c0.1-0.1,0.3-0.2,0.5-0.2s0.4-0.1,0.6-0.1c0.3,0,0.6,0,0.9,0.1c0.3,0.1,0.5,0.2,0.6,0.4
		c0.1,0.2,0.2,0.4,0.3,0.7L46.5,86c0-0.2-0.1-0.4-0.3-0.5s-0.4-0.2-0.7-0.2c-0.3,0-0.6,0.1-0.7,0.2c-0.1,0.1-0.2,0.2-0.2,0.4
		c0,0.1,0,0.2,0.1,0.3c0.1,0.1,0.2,0.1,0.3,0.2c0.1,0,0.3,0.1,0.7,0.2c0.5,0.1,0.9,0.3,1.1,0.3s0.4,0.2,0.5,0.4s0.2,0.4,0.2,0.6
		c0,0.2-0.1,0.5-0.2,0.7c-0.1,0.2-0.4,0.4-0.6,0.5c-0.3,0.1-0.6,0.2-0.9,0.2c-0.6,0-1-0.1-1.3-0.4S43.9,88.4,43.8,87.9z"/>
	<path d="M51.2,88.7c-0.3,0.2-0.5,0.4-0.8,0.5c-0.3,0.1-0.5,0.1-0.8,0.1c-0.5,0-0.9-0.1-1.1-0.4c-0.3-0.2-0.4-0.5-0.4-0.9
		c0-0.2,0-0.4,0.1-0.6c0.1-0.2,0.2-0.3,0.4-0.4s0.3-0.2,0.5-0.2c0.1,0,0.4-0.1,0.7-0.1c0.6-0.1,1-0.2,1.3-0.3c0-0.1,0-0.2,0-0.2
		c0-0.3-0.1-0.5-0.2-0.6c-0.2-0.2-0.5-0.3-0.9-0.3c-0.4,0-0.6,0.1-0.8,0.2s-0.3,0.3-0.4,0.7L48.2,86c0.1-0.3,0.2-0.6,0.3-0.8
		s0.4-0.3,0.7-0.4c0.3-0.1,0.6-0.2,1-0.2c0.4,0,0.7,0,0.9,0.1c0.2,0.1,0.4,0.2,0.5,0.3s0.2,0.3,0.2,0.5c0,0.1,0,0.4,0,0.7v1
		c0,0.7,0,1.1,0,1.3s0.1,0.4,0.2,0.5h-0.8C51.3,89,51.2,88.9,51.2,88.7z M51.1,87c-0.3,0.1-0.7,0.2-1.2,0.3c-0.3,0-0.5,0.1-0.7,0.1
		c-0.1,0.1-0.2,0.1-0.3,0.2c-0.1,0.1-0.1,0.2-0.1,0.4c0,0.2,0.1,0.4,0.2,0.5s0.4,0.2,0.7,0.2c0.3,0,0.5-0.1,0.8-0.2
		c0.2-0.1,0.4-0.3,0.5-0.5c0.1-0.2,0.1-0.4,0.1-0.7V87z"/>
	<path d="M53.2,89.2v-3.8h-0.7v-0.6h0.7v-0.5c0-0.3,0-0.5,0.1-0.7c0.1-0.2,0.2-0.4,0.4-0.5c0.2-0.1,0.4-0.2,0.8-0.2
		c0.2,0,0.4,0,0.7,0.1L55,83.7c-0.2,0-0.3,0-0.4,0c-0.2,0-0.4,0-0.5,0.1C54,83.9,54,84.1,54,84.4v0.4h0.9v0.6H54v3.8H53.2z"/>
	<path d="M58.4,87.8l0.8,0.1c-0.1,0.5-0.3,0.8-0.7,1.1c-0.3,0.2-0.7,0.4-1.3,0.4c-0.6,0-1.2-0.2-1.5-0.6c-0.4-0.4-0.6-1-0.6-1.7
		c0-0.7,0.2-1.3,0.6-1.7s0.9-0.6,1.5-0.6c0.6,0,1.1,0.2,1.4,0.6c0.4,0.4,0.6,1,0.6,1.7c0,0,0,0.1,0,0.2h-3.3c0,0.5,0.2,0.9,0.4,1.1
		c0.2,0.3,0.6,0.4,0.9,0.4c0.3,0,0.5-0.1,0.7-0.2C58.2,88.3,58.3,88.1,58.4,87.8z M56,86.6h2.5c0-0.4-0.1-0.6-0.3-0.8
		c-0.2-0.3-0.5-0.4-0.9-0.4c-0.3,0-0.6,0.1-0.9,0.3C56.1,85.9,56,86.2,56,86.6z"/>
	<path d="M60.1,89.2v-6.1h0.7v6.1H60.1z"/>
	<path d="M62,90.9l-0.1-0.7c0.2,0,0.3,0.1,0.4,0.1c0.2,0,0.3,0,0.4-0.1s0.2-0.1,0.2-0.2c0-0.1,0.1-0.3,0.2-0.6c0,0,0-0.1,0.1-0.2
		l-1.7-4.4h0.8l0.9,2.6c0.1,0.3,0.2,0.7,0.3,1c0.1-0.3,0.2-0.7,0.3-1l0.9-2.6h0.7L64,89.3c-0.2,0.5-0.3,0.8-0.4,1
		c-0.1,0.2-0.3,0.4-0.5,0.5c-0.2,0.1-0.4,0.2-0.6,0.2C62.3,91,62.2,91,62,90.9z"/>
	<path d="M65.9,89.2v-0.9h0.9v0.9H65.9z"/>
	<path d="M69.3,89.2l2.3-6.1h0.9l2.5,6.1h-0.9l-0.7-1.8h-2.5l-0.7,1.8H69.3z M71.1,86.7h2.1L72.5,85c-0.2-0.5-0.3-0.9-0.4-1.3
		c-0.1,0.4-0.2,0.8-0.3,1.2L71.1,86.7z"/>
	<path d="M75.3,87.9l0.7-0.1c0,0.3,0.2,0.5,0.3,0.7c0.2,0.2,0.5,0.2,0.8,0.2c0.3,0,0.6-0.1,0.8-0.2s0.2-0.3,0.2-0.5
		c0-0.2-0.1-0.3-0.2-0.4c-0.1-0.1-0.4-0.2-0.8-0.3c-0.5-0.1-0.9-0.3-1.1-0.4c-0.2-0.1-0.4-0.2-0.5-0.4c-0.1-0.2-0.2-0.4-0.2-0.6
		c0-0.2,0-0.4,0.1-0.5s0.2-0.3,0.4-0.4c0.1-0.1,0.3-0.2,0.5-0.2s0.4-0.1,0.6-0.1c0.3,0,0.6,0,0.9,0.1c0.3,0.1,0.5,0.2,0.6,0.4
		c0.1,0.2,0.2,0.4,0.3,0.7L78,86c0-0.2-0.1-0.4-0.3-0.5s-0.4-0.2-0.7-0.2c-0.3,0-0.6,0.1-0.7,0.2c-0.1,0.1-0.2,0.2-0.2,0.4
		c0,0.1,0,0.2,0.1,0.3c0.1,0.1,0.2,0.1,0.3,0.2c0.1,0,0.3,0.1,0.7,0.2c0.5,0.1,0.9,0.3,1.1,0.3s0.4,0.2,0.5,0.4s0.2,0.4,0.2,0.6
		c0,0.2-0.1,0.5-0.2,0.7c-0.1,0.2-0.4,0.4-0.6,0.5c-0.3,0.1-0.6,0.2-0.9,0.2c-0.6,0-1-0.1-1.3-0.4S75.4,88.4,75.3,87.9z"/>
	<path d="M82.2,90.9v-6.1h0.7v0.6c0.2-0.2,0.3-0.4,0.5-0.5c0.2-0.1,0.4-0.2,0.7-0.2c0.4,0,0.7,0.1,1,0.3c0.3,0.2,0.5,0.5,0.7,0.8
		c0.1,0.4,0.2,0.7,0.2,1.2c0,0.5-0.1,0.9-0.2,1.2c-0.2,0.4-0.4,0.6-0.7,0.8s-0.6,0.3-1,0.3c-0.2,0-0.5-0.1-0.7-0.2s-0.4-0.2-0.5-0.4
		v2.1H82.2z M82.9,87c0,0.6,0.1,1,0.3,1.3c0.2,0.3,0.5,0.4,0.8,0.4c0.3,0,0.6-0.1,0.9-0.4c0.2-0.3,0.4-0.7,0.4-1.3
		c0-0.6-0.1-1-0.3-1.3s-0.5-0.4-0.8-0.4c-0.3,0-0.6,0.1-0.8,0.4C83,86,82.9,86.5,82.9,87z"/>
	<path d="M89.8,88.7c-0.3,0.2-0.5,0.4-0.8,0.5c-0.3,0.1-0.5,0.1-0.8,0.1c-0.5,0-0.9-0.1-1.1-0.4c-0.3-0.2-0.4-0.5-0.4-0.9
		c0-0.2,0-0.4,0.1-0.6c0.1-0.2,0.2-0.3,0.4-0.4s0.3-0.2,0.5-0.2c0.1,0,0.4-0.1,0.7-0.1c0.6-0.1,1-0.2,1.3-0.3c0-0.1,0-0.2,0-0.2
		c0-0.3-0.1-0.5-0.2-0.6c-0.2-0.2-0.5-0.3-0.9-0.3c-0.4,0-0.6,0.1-0.8,0.2s-0.3,0.3-0.4,0.7L86.8,86c0.1-0.3,0.2-0.6,0.3-0.8
		s0.4-0.3,0.7-0.4c0.3-0.1,0.6-0.2,1-0.2c0.4,0,0.7,0,0.9,0.1c0.2,0.1,0.4,0.2,0.5,0.3s0.2,0.3,0.2,0.5c0,0.1,0,0.4,0,0.7v1
		c0,0.7,0,1.1,0,1.3s0.1,0.4,0.2,0.5h-0.8C89.9,89,89.8,88.9,89.8,88.7z M89.7,87c-0.3,0.1-0.7,0.2-1.2,0.3c-0.3,0-0.5,0.1-0.7,0.1
		c-0.1,0.1-0.2,0.1-0.3,0.2c-0.1,0.1-0.1,0.2-0.1,0.4c0,0.2,0.1,0.4,0.2,0.5s0.4,0.2,0.7,0.2c0.3,0,0.5-0.1,0.8-0.2
		c0.2-0.1,0.4-0.3,0.5-0.5c0.1-0.2,0.1-0.4,0.1-0.7V87z"/>
	<path d="M91.6,89.2v-4.4h0.7v0.7c0.2-0.3,0.3-0.5,0.5-0.6c0.1-0.1,0.3-0.1,0.5-0.1c0.3,0,0.5,0.1,0.8,0.2l-0.3,0.7
		c-0.2-0.1-0.4-0.2-0.5-0.2c-0.2,0-0.3,0-0.4,0.1s-0.2,0.2-0.3,0.4c-0.1,0.3-0.1,0.6-0.1,0.9v2.3H91.6z"/>
	<path d="M96.1,88.5l0.1,0.7c-0.2,0-0.4,0.1-0.6,0.1c-0.3,0-0.5,0-0.6-0.1c-0.1-0.1-0.3-0.2-0.3-0.3s-0.1-0.4-0.1-0.9v-2.5h-0.5
		v-0.6h0.5v-1.1l0.7-0.4v1.5h0.8v0.6h-0.8V88c0,0.2,0,0.3,0,0.4s0.1,0.1,0.1,0.1c0.1,0,0.1,0.1,0.3,0.1C95.9,88.6,96,88.6,96.1,88.5
		z"/>
	<path d="M98.9,87c0-0.8,0.2-1.4,0.7-1.8c0.4-0.3,0.8-0.5,1.4-0.5c0.6,0,1.1,0.2,1.5,0.6s0.6,0.9,0.6,1.6c0,0.6-0.1,1-0.3,1.3
		c-0.2,0.3-0.4,0.6-0.7,0.8c-0.3,0.2-0.7,0.3-1.1,0.3c-0.6,0-1.1-0.2-1.5-0.6C99.1,88.3,98.9,87.7,98.9,87z M99.7,87
		c0,0.6,0.1,1,0.4,1.3s0.6,0.4,0.9,0.4c0.4,0,0.7-0.1,0.9-0.4c0.2-0.3,0.4-0.7,0.4-1.3c0-0.5-0.1-1-0.4-1.2s-0.6-0.4-0.9-0.4
		c-0.4,0-0.7,0.1-0.9,0.4S99.7,86.4,99.7,87z"/>
	<path d="M104.1,89.2v-3.8h-0.7v-0.6h0.7v-0.5c0-0.3,0-0.5,0.1-0.7c0.1-0.2,0.2-0.4,0.4-0.5c0.2-0.1,0.4-0.2,0.8-0.2
		c0.2,0,0.4,0,0.7,0.1l-0.1,0.7c-0.2,0-0.3,0-0.4,0c-0.2,0-0.4,0-0.5,0.1c-0.1,0.1-0.1,0.3-0.1,0.5v0.4h0.9v0.6h-0.9v3.8H104.1z"/>
	<path d="M110.3,88.5l0.1,0.7c-0.2,0-0.4,0.1-0.6,0.1c-0.3,0-0.5,0-0.6-0.1c-0.1-0.1-0.3-0.2-0.3-0.3s-0.1-0.4-0.1-0.9v-2.5h-0.5
		v-0.6h0.5v-1.1l0.7-0.4v1.5h0.8v0.6h-0.8V88c0,0.2,0,0.3,0,0.4s0.1,0.1,0.1,0.1c0.1,0,0.1,0.1,0.3,0.1
		C110,88.6,110.1,88.6,110.3,88.5z"/>
	<path d="M111,89.2v-6.1h0.7v2.2c0.3-0.4,0.8-0.6,1.3-0.6c0.3,0,0.6,0.1,0.9,0.2c0.2,0.1,0.4,0.3,0.5,0.5c0.1,0.2,0.2,0.6,0.2,1v2.8
		h-0.7v-2.8c0-0.4-0.1-0.6-0.2-0.8c-0.2-0.2-0.4-0.3-0.7-0.3c-0.2,0-0.4,0.1-0.6,0.2c-0.2,0.1-0.3,0.3-0.4,0.5
		c-0.1,0.2-0.1,0.5-0.1,0.8v2.4H111z"/>
	<path d="M118.8,87.8l0.8,0.1c-0.1,0.5-0.3,0.8-0.7,1.1c-0.3,0.2-0.7,0.4-1.3,0.4c-0.6,0-1.2-0.2-1.5-0.6c-0.4-0.4-0.6-1-0.6-1.7
		c0-0.7,0.2-1.3,0.6-1.7s0.9-0.6,1.5-0.6c0.6,0,1.1,0.2,1.4,0.6c0.4,0.4,0.6,1,0.6,1.7c0,0,0,0.1,0,0.2h-3.3c0,0.5,0.2,0.9,0.4,1.1
		c0.2,0.3,0.6,0.4,0.9,0.4c0.3,0,0.5-0.1,0.7-0.2C118.5,88.3,118.6,88.1,118.8,87.8z M116.3,86.6h2.5c0-0.4-0.1-0.6-0.3-0.8
		c-0.2-0.3-0.5-0.4-0.9-0.4c-0.3,0-0.6,0.1-0.9,0.3C116.5,85.9,116.3,86.2,116.3,86.6z"/>
	<path d="M125.4,89.2h-0.7v-4.8c-0.2,0.2-0.4,0.3-0.7,0.5c-0.3,0.2-0.6,0.3-0.8,0.4v-0.7c0.4-0.2,0.8-0.4,1.1-0.7
		c0.3-0.3,0.5-0.6,0.7-0.8h0.5V89.2z"/>
	<path d="M127.3,86.2c0-0.7,0.1-1.3,0.2-1.7s0.4-0.8,0.7-1s0.7-0.4,1.1-0.4c0.3,0,0.6,0.1,0.9,0.2s0.4,0.3,0.6,0.6
		c0.2,0.2,0.3,0.5,0.4,0.9s0.1,0.8,0.1,1.4c0,0.7-0.1,1.3-0.2,1.7s-0.4,0.8-0.7,1s-0.7,0.4-1.1,0.4c-0.6,0-1-0.2-1.4-0.6
		C127.6,88.2,127.3,87.3,127.3,86.2z M128.1,86.2c0,1,0.1,1.7,0.4,2s0.5,0.5,0.9,0.5c0.3,0,0.6-0.2,0.9-0.5s0.4-1,0.4-2
		c0-1-0.1-1.7-0.4-2s-0.5-0.5-0.9-0.5c-0.3,0-0.6,0.1-0.8,0.4C128.2,84.5,128.1,85.2,128.1,86.2z"/>
	<path d="M132,87.4v-0.8h2.3v0.8H132z"/>
	<path d="M135.1,90.9l-0.1-0.7c0.2,0,0.3,0.1,0.4,0.1c0.2,0,0.3,0,0.4-0.1s0.2-0.1,0.2-0.2c0-0.1,0.1-0.3,0.2-0.6c0,0,0-0.1,0.1-0.2
		l-1.7-4.4h0.8l0.9,2.6c0.1,0.3,0.2,0.7,0.3,1c0.1-0.3,0.2-0.7,0.3-1l0.9-2.6h0.7l-1.7,4.5c-0.2,0.5-0.3,0.8-0.4,1
		c-0.1,0.2-0.3,0.4-0.5,0.5c-0.2,0.1-0.4,0.2-0.6,0.2C135.4,91,135.3,91,135.1,90.9z"/>
	<path d="M142.4,87.8l0.8,0.1c-0.1,0.5-0.3,0.8-0.7,1.1s-0.7,0.4-1.3,0.4c-0.6,0-1.2-0.2-1.5-0.6c-0.4-0.4-0.6-1-0.6-1.7
		c0-0.7,0.2-1.3,0.6-1.7s0.9-0.6,1.5-0.6c0.6,0,1.1,0.2,1.4,0.6c0.4,0.4,0.6,1,0.6,1.7c0,0,0,0.1,0,0.2h-3.3c0,0.5,0.2,0.9,0.4,1.1
		c0.2,0.3,0.6,0.4,0.9,0.4c0.3,0,0.5-0.1,0.7-0.2C142.1,88.3,142.3,88.1,142.4,87.8z M139.9,86.6h2.5c0-0.4-0.1-0.6-0.3-0.8
		c-0.2-0.3-0.5-0.4-0.9-0.4c-0.3,0-0.6,0.1-0.9,0.3C140.1,85.9,140,86.2,139.9,86.6z"/>
	<path d="M147,88.7c-0.3,0.2-0.5,0.4-0.8,0.5c-0.3,0.1-0.5,0.1-0.8,0.1c-0.5,0-0.9-0.1-1.1-0.4c-0.3-0.2-0.4-0.5-0.4-0.9
		c0-0.2,0-0.4,0.1-0.6c0.1-0.2,0.2-0.3,0.4-0.4s0.3-0.2,0.5-0.2c0.1,0,0.4-0.1,0.7-0.1c0.6-0.1,1-0.2,1.3-0.3c0-0.1,0-0.2,0-0.2
		c0-0.3-0.1-0.5-0.2-0.6c-0.2-0.2-0.5-0.3-0.9-0.3c-0.4,0-0.6,0.1-0.8,0.2c-0.2,0.1-0.3,0.3-0.4,0.7L144,86c0.1-0.3,0.2-0.6,0.3-0.8
		s0.4-0.3,0.7-0.4c0.3-0.1,0.6-0.2,1-0.2c0.4,0,0.7,0,0.9,0.1s0.4,0.2,0.5,0.3c0.1,0.1,0.2,0.3,0.2,0.5c0,0.1,0,0.4,0,0.7v1
		c0,0.7,0,1.1,0,1.3c0,0.2,0.1,0.4,0.2,0.5h-0.8C147,89,147,88.9,147,88.7z M146.9,87c-0.3,0.1-0.7,0.2-1.2,0.3
		c-0.3,0-0.5,0.1-0.7,0.1c-0.1,0.1-0.2,0.1-0.3,0.2s-0.1,0.2-0.1,0.4c0,0.2,0.1,0.4,0.2,0.5c0.2,0.1,0.4,0.2,0.7,0.2
		c0.3,0,0.5-0.1,0.8-0.2c0.2-0.1,0.4-0.3,0.5-0.5c0.1-0.2,0.1-0.4,0.1-0.7V87z"/>
	<path d="M148.8,89.2v-4.4h0.7v0.7c0.2-0.3,0.3-0.5,0.5-0.6c0.1-0.1,0.3-0.1,0.5-0.1c0.3,0,0.5,0.1,0.8,0.2l-0.3,0.7
		c-0.2-0.1-0.4-0.2-0.5-0.2c-0.2,0-0.3,0-0.4,0.1c-0.1,0.1-0.2,0.2-0.3,0.4c-0.1,0.3-0.1,0.6-0.1,0.9v2.3H148.8z"/>
</g>
<g>
	<path d="M18.6,101.9v-4.4h0.7v0.7c0.2-0.3,0.3-0.5,0.5-0.6c0.1-0.1,0.3-0.1,0.5-0.1c0.3,0,0.5,0.1,0.8,0.2l-0.3,0.7
		c-0.2-0.1-0.4-0.2-0.5-0.2c-0.2,0-0.3,0-0.4,0.1s-0.2,0.2-0.3,0.4c-0.1,0.3-0.1,0.6-0.1,0.9v2.3H18.6z"/>
	<path d="M24.3,101.4c-0.3,0.2-0.5,0.4-0.8,0.5c-0.3,0.1-0.5,0.1-0.8,0.1c-0.5,0-0.9-0.1-1.1-0.4c-0.3-0.2-0.4-0.5-0.4-0.9
		c0-0.2,0-0.4,0.1-0.6c0.1-0.2,0.2-0.3,0.4-0.4s0.3-0.2,0.5-0.2c0.1,0,0.4-0.1,0.7-0.1c0.6-0.1,1-0.2,1.3-0.3c0-0.1,0-0.2,0-0.2
		c0-0.3-0.1-0.5-0.2-0.6c-0.2-0.2-0.5-0.3-0.9-0.3c-0.4,0-0.6,0.1-0.8,0.2s-0.3,0.3-0.4,0.7l-0.7-0.1c0.1-0.3,0.2-0.6,0.3-0.8
		s0.4-0.3,0.7-0.4c0.3-0.1,0.6-0.2,1-0.2c0.4,0,0.7,0,0.9,0.1c0.2,0.1,0.4,0.2,0.5,0.3s0.2,0.3,0.2,0.5c0,0.1,0,0.4,0,0.7v1
		c0,0.7,0,1.1,0,1.3s0.1,0.4,0.2,0.5h-0.8C24.3,101.8,24.3,101.6,24.3,101.4z M24.2,99.7c-0.3,0.1-0.7,0.2-1.2,0.3
		c-0.3,0-0.5,0.1-0.7,0.1c-0.1,0.1-0.2,0.1-0.3,0.2c-0.1,0.1-0.1,0.2-0.1,0.4c0,0.2,0.1,0.4,0.2,0.5s0.4,0.2,0.7,0.2
		c0.3,0,0.5-0.1,0.8-0.2c0.2-0.1,0.4-0.3,0.5-0.5c0.1-0.2,0.1-0.4,0.1-0.7V99.7z"/>
	<path d="M27.7,101.3l0.1,0.7c-0.2,0-0.4,0.1-0.6,0.1c-0.3,0-0.5,0-0.6-0.1c-0.1-0.1-0.3-0.2-0.3-0.3s-0.1-0.4-0.1-0.9v-2.5h-0.5
		v-0.6h0.5v-1.1L27,96v1.5h0.8v0.6H27v2.6c0,0.2,0,0.3,0,0.4s0.1,0.1,0.1,0.1c0.1,0,0.1,0.1,0.3,0.1
		C27.5,101.3,27.6,101.3,27.7,101.3z"/>
	<path d="M31.5,100.5l0.8,0.1c-0.1,0.5-0.3,0.8-0.7,1.1c-0.3,0.2-0.7,0.4-1.3,0.4c-0.6,0-1.2-0.2-1.5-0.6c-0.4-0.4-0.6-1-0.6-1.7
		c0-0.7,0.2-1.3,0.6-1.7s0.9-0.6,1.5-0.6c0.6,0,1.1,0.2,1.4,0.6c0.4,0.4,0.6,1,0.6,1.7c0,0,0,0.1,0,0.2H29c0,0.5,0.2,0.9,0.4,1.1
		c0.2,0.3,0.6,0.4,0.9,0.4c0.3,0,0.5-0.1,0.7-0.2C31.2,101.1,31.4,100.8,31.5,100.5z M29,99.3h2.5c0-0.4-0.1-0.6-0.3-0.8
		c-0.2-0.3-0.5-0.4-0.9-0.4c-0.3,0-0.6,0.1-0.9,0.3C29.2,98.6,29.1,98.9,29,99.3z"/>
	<path d="M32.9,100.6l0.7-0.1c0,0.3,0.2,0.5,0.3,0.7c0.2,0.2,0.5,0.2,0.8,0.2c0.3,0,0.6-0.1,0.8-0.2s0.2-0.3,0.2-0.5
		c0-0.2-0.1-0.3-0.2-0.4c-0.1-0.1-0.4-0.2-0.8-0.3c-0.5-0.1-0.9-0.3-1.1-0.4c-0.2-0.1-0.4-0.2-0.5-0.4c-0.1-0.2-0.2-0.4-0.2-0.6
		c0-0.2,0-0.4,0.1-0.5s0.2-0.3,0.4-0.4c0.1-0.1,0.3-0.2,0.5-0.2s0.4-0.1,0.6-0.1c0.3,0,0.6,0,0.9,0.1c0.3,0.1,0.5,0.2,0.6,0.4
		c0.1,0.2,0.2,0.4,0.3,0.7l-0.7,0.1c0-0.2-0.1-0.4-0.3-0.5s-0.4-0.2-0.7-0.2c-0.3,0-0.6,0.1-0.7,0.2c-0.1,0.1-0.2,0.2-0.2,0.4
		c0,0.1,0,0.2,0.1,0.3c0.1,0.1,0.2,0.1,0.3,0.2c0.1,0,0.3,0.1,0.7,0.2c0.5,0.1,0.9,0.3,1.1,0.3s0.4,0.2,0.5,0.4s0.2,0.4,0.2,0.6
		c0,0.2-0.1,0.5-0.2,0.7c-0.1,0.2-0.4,0.4-0.6,0.5c-0.3,0.1-0.6,0.2-0.9,0.2c-0.6,0-1-0.1-1.3-0.4S33,101.1,32.9,100.6z"/>
	<path d="M39.8,103.6v-6.1h0.7v0.6c0.2-0.2,0.3-0.4,0.5-0.5c0.2-0.1,0.4-0.2,0.7-0.2c0.4,0,0.7,0.1,1,0.3c0.3,0.2,0.5,0.5,0.7,0.8
		c0.1,0.4,0.2,0.7,0.2,1.2c0,0.5-0.1,0.9-0.2,1.2c-0.2,0.4-0.4,0.6-0.7,0.8s-0.6,0.3-1,0.3c-0.2,0-0.5-0.1-0.7-0.2s-0.4-0.2-0.5-0.4
		v2.1H39.8z M40.5,99.8c0,0.6,0.1,1,0.3,1.3c0.2,0.3,0.5,0.4,0.8,0.4c0.3,0,0.6-0.1,0.9-0.4c0.2-0.3,0.4-0.7,0.4-1.3
		c0-0.6-0.1-1-0.3-1.3S42,98,41.7,98c-0.3,0-0.6,0.1-0.8,0.4C40.6,98.8,40.5,99.2,40.5,99.8z"/>
	<path d="M44.5,101.9v-6.1h0.7v6.1H44.5z"/>
	<path d="M49.3,101.4c-0.3,0.2-0.5,0.4-0.8,0.5c-0.3,0.1-0.5,0.1-0.8,0.1c-0.5,0-0.9-0.1-1.1-0.4c-0.3-0.2-0.4-0.5-0.4-0.9
		c0-0.2,0-0.4,0.1-0.6c0.1-0.2,0.2-0.3,0.4-0.4s0.3-0.2,0.5-0.2c0.1,0,0.4-0.1,0.7-0.1c0.6-0.1,1-0.2,1.3-0.3c0-0.1,0-0.2,0-0.2
		c0-0.3-0.1-0.5-0.2-0.6c-0.2-0.2-0.5-0.3-0.9-0.3c-0.4,0-0.6,0.1-0.8,0.2s-0.3,0.3-0.4,0.7l-0.7-0.1c0.1-0.3,0.2-0.6,0.3-0.8
		s0.4-0.3,0.7-0.4c0.3-0.1,0.6-0.2,1-0.2c0.4,0,0.7,0,0.9,0.1c0.2,0.1,0.4,0.2,0.5,0.3s0.2,0.3,0.2,0.5c0,0.1,0,0.4,0,0.7v1
		c0,0.7,0,1.1,0,1.3s0.1,0.4,0.2,0.5h-0.8C49.4,101.8,49.3,101.6,49.3,101.4z M49.2,99.7c-0.3,0.1-0.7,0.2-1.2,0.3
		c-0.3,0-0.5,0.1-0.7,0.1c-0.1,0.1-0.2,0.1-0.3,0.2c-0.1,0.1-0.1,0.2-0.1,0.4c0,0.2,0.1,0.4,0.2,0.5s0.4,0.2,0.7,0.2
		c0.3,0,0.5-0.1,0.8-0.2c0.2-0.1,0.4-0.3,0.5-0.5c0.1-0.2,0.1-0.4,0.1-0.7V99.7z"/>
	<path d="M51.2,101.9v-4.4h0.7v0.6c0.3-0.5,0.8-0.7,1.4-0.7c0.3,0,0.5,0,0.7,0.1c0.2,0.1,0.4,0.2,0.5,0.4c0.1,0.2,0.2,0.3,0.2,0.6
		c0,0.1,0,0.4,0,0.7v2.7H54v-2.7c0-0.3,0-0.5-0.1-0.7c-0.1-0.2-0.2-0.3-0.3-0.4s-0.3-0.1-0.5-0.1c-0.3,0-0.6,0.1-0.8,0.3
		c-0.2,0.2-0.3,0.6-0.3,1.1v2.4H51.2z"/>
	<path d="M56.1,101.9v-0.9h0.9v0.9c0,0.3-0.1,0.6-0.2,0.8c-0.1,0.2-0.3,0.3-0.5,0.4l-0.2-0.3c0.2-0.1,0.3-0.2,0.3-0.3
		s0.1-0.3,0.1-0.6H56.1z"/>
	<path d="M63.5,101.4c-0.3,0.2-0.5,0.4-0.8,0.5c-0.3,0.1-0.5,0.1-0.8,0.1c-0.5,0-0.9-0.1-1.1-0.4c-0.3-0.2-0.4-0.5-0.4-0.9
		c0-0.2,0-0.4,0.1-0.6c0.1-0.2,0.2-0.3,0.4-0.4s0.3-0.2,0.5-0.2c0.1,0,0.4-0.1,0.7-0.1c0.6-0.1,1-0.2,1.3-0.3c0-0.1,0-0.2,0-0.2
		c0-0.3-0.1-0.5-0.2-0.6c-0.2-0.2-0.5-0.3-0.9-0.3c-0.4,0-0.6,0.1-0.8,0.2s-0.3,0.3-0.4,0.7l-0.7-0.1c0.1-0.3,0.2-0.6,0.3-0.8
		s0.4-0.3,0.7-0.4c0.3-0.1,0.6-0.2,1-0.2c0.4,0,0.7,0,0.9,0.1c0.2,0.1,0.4,0.2,0.5,0.3s0.2,0.3,0.2,0.5c0,0.1,0,0.4,0,0.7v1
		c0,0.7,0,1.1,0,1.3s0.1,0.4,0.2,0.5h-0.8C63.6,101.8,63.5,101.6,63.5,101.4z M63.4,99.7c-0.3,0.1-0.7,0.2-1.2,0.3
		c-0.3,0-0.5,0.1-0.7,0.1c-0.1,0.1-0.2,0.1-0.3,0.2c-0.1,0.1-0.1,0.2-0.1,0.4c0,0.2,0.1,0.4,0.2,0.5s0.4,0.2,0.7,0.2
		c0.3,0,0.5-0.1,0.8-0.2c0.2-0.1,0.4-0.3,0.5-0.5c0.1-0.2,0.1-0.4,0.1-0.7V99.7z"/>
	<path d="M65.3,101.9v-4.4H66v0.6c0.3-0.5,0.8-0.7,1.4-0.7c0.3,0,0.5,0,0.7,0.1c0.2,0.1,0.4,0.2,0.5,0.4c0.1,0.2,0.2,0.3,0.2,0.6
		c0,0.1,0,0.4,0,0.7v2.7h-0.7v-2.7c0-0.3,0-0.5-0.1-0.7c-0.1-0.2-0.2-0.3-0.3-0.4s-0.3-0.1-0.5-0.1c-0.3,0-0.6,0.1-0.8,0.3
		c-0.2,0.2-0.3,0.6-0.3,1.1v2.4H65.3z"/>
	<path d="M72.4,96.7v-0.9h0.7v0.9H72.4z M72.4,101.9v-4.4h0.7v4.4H72.4z"/>
	<path d="M74.3,101.9v-4.4H75v0.6c0.3-0.5,0.8-0.7,1.4-0.7c0.3,0,0.5,0,0.7,0.1c0.2,0.1,0.4,0.2,0.5,0.4c0.1,0.2,0.2,0.3,0.2,0.6
		c0,0.1,0,0.4,0,0.7v2.7h-0.7v-2.7c0-0.3,0-0.5-0.1-0.7c-0.1-0.2-0.2-0.3-0.3-0.4s-0.3-0.1-0.5-0.1c-0.3,0-0.6,0.1-0.8,0.3
		c-0.2,0.2-0.3,0.6-0.3,1.1v2.4H74.3z"/>
	<path d="M80.7,101.3l0.1,0.7c-0.2,0-0.4,0.1-0.6,0.1c-0.3,0-0.5,0-0.6-0.1c-0.1-0.1-0.3-0.2-0.3-0.3s-0.1-0.4-0.1-0.9v-2.5h-0.5
		v-0.6h0.5v-1.1l0.7-0.4v1.5h0.8v0.6h-0.8v2.6c0,0.2,0,0.3,0,0.4s0.1,0.1,0.1,0.1c0.1,0,0.1,0.1,0.3,0.1
		C80.4,101.3,80.5,101.3,80.7,101.3z"/>
	<path d="M84.4,100.5l0.8,0.1c-0.1,0.5-0.3,0.8-0.7,1.1c-0.3,0.2-0.7,0.4-1.3,0.4c-0.6,0-1.2-0.2-1.5-0.6c-0.4-0.4-0.6-1-0.6-1.7
		c0-0.7,0.2-1.3,0.6-1.7s0.9-0.6,1.5-0.6c0.6,0,1.1,0.2,1.4,0.6c0.4,0.4,0.6,1,0.6,1.7c0,0,0,0.1,0,0.2h-3.3c0,0.5,0.2,0.9,0.4,1.1
		c0.2,0.3,0.6,0.4,0.9,0.4c0.3,0,0.5-0.1,0.7-0.2C84.2,101.1,84.3,100.8,84.4,100.5z M82,99.3h2.5c0-0.4-0.1-0.6-0.3-0.8
		c-0.2-0.3-0.5-0.4-0.9-0.4c-0.3,0-0.6,0.1-0.9,0.3C82.1,98.6,82,98.9,82,99.3z"/>
	<path d="M86.1,101.9v-4.4h0.7v0.7c0.2-0.3,0.3-0.5,0.5-0.6c0.1-0.1,0.3-0.1,0.5-0.1c0.3,0,0.5,0.1,0.8,0.2l-0.3,0.7
		c-0.2-0.1-0.4-0.2-0.5-0.2c-0.2,0-0.3,0-0.4,0.1s-0.2,0.2-0.3,0.4c-0.1,0.3-0.1,0.6-0.1,0.9v2.3H86.1z"/>
	<path d="M89,96.7v-0.9h0.7v0.9H89z M89,101.9v-4.4h0.7v4.4H89z"/>
	<path d="M90.9,101.9v-4.4h0.7v0.6c0.1-0.2,0.3-0.4,0.6-0.5c0.2-0.1,0.5-0.2,0.8-0.2c0.3,0,0.6,0.1,0.8,0.2c0.2,0.1,0.4,0.3,0.4,0.6
		c0.3-0.5,0.8-0.8,1.4-0.8c0.4,0,0.8,0.1,1,0.4c0.2,0.2,0.4,0.6,0.4,1.1v3h-0.7v-2.8c0-0.3,0-0.5-0.1-0.6s-0.1-0.2-0.3-0.3
		c-0.1-0.1-0.3-0.1-0.4-0.1c-0.3,0-0.6,0.1-0.8,0.3s-0.3,0.5-0.3,1v2.6h-0.7v-2.9c0-0.3-0.1-0.6-0.2-0.7s-0.3-0.2-0.6-0.2
		c-0.2,0-0.4,0.1-0.6,0.2c-0.2,0.1-0.3,0.3-0.4,0.5c-0.1,0.2-0.1,0.5-0.1,0.9v2.3H90.9z"/>
	<path d="M100.3,101.9v-4.4h0.7v0.7c0.2-0.3,0.3-0.5,0.5-0.6c0.1-0.1,0.3-0.1,0.5-0.1c0.3,0,0.5,0.1,0.8,0.2l-0.3,0.7
		c-0.2-0.1-0.4-0.2-0.5-0.2c-0.2,0-0.3,0-0.4,0.1s-0.2,0.2-0.3,0.4c-0.1,0.3-0.1,0.6-0.1,0.9v2.3H100.3z"/>
	<path d="M106,101.4c-0.3,0.2-0.5,0.4-0.8,0.5c-0.3,0.1-0.5,0.1-0.8,0.1c-0.5,0-0.9-0.1-1.1-0.4c-0.3-0.2-0.4-0.5-0.4-0.9
		c0-0.2,0-0.4,0.1-0.6c0.1-0.2,0.2-0.3,0.4-0.4s0.3-0.2,0.5-0.2c0.1,0,0.4-0.1,0.7-0.1c0.6-0.1,1-0.2,1.3-0.3c0-0.1,0-0.2,0-0.2
		c0-0.3-0.1-0.5-0.2-0.6c-0.2-0.2-0.5-0.3-0.9-0.3c-0.4,0-0.6,0.1-0.8,0.2s-0.3,0.3-0.4,0.7l-0.7-0.1c0.1-0.3,0.2-0.6,0.3-0.8
		s0.4-0.3,0.7-0.4c0.3-0.1,0.6-0.2,1-0.2c0.4,0,0.7,0,0.9,0.1c0.2,0.1,0.4,0.2,0.5,0.3s0.2,0.3,0.2,0.5c0,0.1,0,0.4,0,0.7v1
		c0,0.7,0,1.1,0,1.3s0.1,0.4,0.2,0.5h-0.8C106.1,101.8,106,101.6,106,101.4z M105.9,99.7c-0.3,0.1-0.7,0.2-1.2,0.3
		c-0.3,0-0.5,0.1-0.7,0.1c-0.1,0.1-0.2,0.1-0.3,0.2c-0.1,0.1-0.1,0.2-0.1,0.4c0,0.2,0.1,0.4,0.2,0.5s0.4,0.2,0.7,0.2
		c0.3,0,0.5-0.1,0.8-0.2c0.2-0.1,0.4-0.3,0.5-0.5c0.1-0.2,0.1-0.4,0.1-0.7V99.7z"/>
	<path d="M109.5,101.3l0.1,0.7c-0.2,0-0.4,0.1-0.6,0.1c-0.3,0-0.5,0-0.6-0.1c-0.1-0.1-0.3-0.2-0.3-0.3s-0.1-0.4-0.1-0.9v-2.5h-0.5
		v-0.6h0.5v-1.1l0.7-0.4v1.5h0.8v0.6h-0.8v2.6c0,0.2,0,0.3,0,0.4s0.1,0.1,0.1,0.1c0.1,0,0.1,0.1,0.3,0.1
		C109.2,101.3,109.3,101.3,109.5,101.3z"/>
	<path d="M113.2,100.5l0.8,0.1c-0.1,0.5-0.3,0.8-0.7,1.1c-0.3,0.2-0.7,0.4-1.3,0.4c-0.6,0-1.2-0.2-1.5-0.6c-0.4-0.4-0.6-1-0.6-1.7
		c0-0.7,0.2-1.3,0.6-1.7s0.9-0.6,1.5-0.6c0.6,0,1.1,0.2,1.4,0.6c0.4,0.4,0.6,1,0.6,1.7c0,0,0,0.1,0,0.2h-3.3c0,0.5,0.2,0.9,0.4,1.1
		c0.2,0.3,0.6,0.4,0.9,0.4c0.3,0,0.5-0.1,0.7-0.2C113,101.1,113.1,100.8,113.2,100.5z M110.8,99.3h2.5c0-0.4-0.1-0.6-0.3-0.8
		c-0.2-0.3-0.5-0.4-0.9-0.4c-0.3,0-0.6,0.1-0.9,0.3C110.9,98.6,110.8,98.9,110.8,99.3z"/>
	<path d="M117.3,96.7v-0.9h0.7v0.9H117.3z M117.3,101.9v-4.4h0.7v4.4H117.3z"/>
	<path d="M119.2,101.9v-4.4h0.7v0.6c0.3-0.5,0.8-0.7,1.4-0.7c0.3,0,0.5,0,0.7,0.1c0.2,0.1,0.4,0.2,0.5,0.4c0.1,0.2,0.2,0.3,0.2,0.6
		c0,0.1,0,0.4,0,0.7v2.7H122v-2.7c0-0.3,0-0.5-0.1-0.7c-0.1-0.2-0.2-0.3-0.3-0.4s-0.3-0.1-0.5-0.1c-0.3,0-0.6,0.1-0.8,0.3
		c-0.2,0.2-0.3,0.6-0.3,1.1v2.4H119.2z"/>
	<path d="M126.8,100.3l0.7,0.1c-0.1,0.5-0.3,0.9-0.6,1.2c-0.3,0.3-0.7,0.4-1.2,0.4c-0.6,0-1.1-0.2-1.5-0.6c-0.4-0.4-0.5-1-0.5-1.7
		c0-0.5,0.1-0.9,0.2-1.2c0.2-0.4,0.4-0.6,0.7-0.8c0.3-0.2,0.7-0.3,1.1-0.3c0.5,0,0.9,0.1,1.2,0.4c0.3,0.2,0.5,0.6,0.6,1l-0.7,0.1
		c-0.1-0.3-0.2-0.5-0.4-0.7s-0.4-0.2-0.6-0.2c-0.4,0-0.7,0.1-0.9,0.4c-0.2,0.3-0.4,0.7-0.4,1.3c0,0.6,0.1,1,0.3,1.3
		c0.2,0.3,0.5,0.4,0.9,0.4c0.3,0,0.5-0.1,0.7-0.3C126.6,101,126.7,100.7,126.8,100.3z"/>
	<path d="M128.2,101.9v-4.4h0.7v0.7c0.2-0.3,0.3-0.5,0.5-0.6c0.1-0.1,0.3-0.1,0.5-0.1c0.3,0,0.5,0.1,0.8,0.2l-0.3,0.7
		c-0.2-0.1-0.4-0.2-0.5-0.2c-0.2,0-0.3,0-0.4,0.1s-0.2,0.2-0.3,0.4c-0.1,0.3-0.1,0.6-0.1,0.9v2.3H128.2z"/>
	<path d="M134,100.5l0.8,0.1c-0.1,0.5-0.3,0.8-0.7,1.1c-0.3,0.2-0.7,0.4-1.3,0.4c-0.6,0-1.2-0.2-1.5-0.6c-0.4-0.4-0.6-1-0.6-1.7
		c0-0.7,0.2-1.3,0.6-1.7s0.9-0.6,1.5-0.6c0.6,0,1.1,0.2,1.4,0.6c0.4,0.4,0.6,1,0.6,1.7c0,0,0,0.1,0,0.2h-3.3c0,0.5,0.2,0.9,0.4,1.1
		c0.2,0.3,0.6,0.4,0.9,0.4c0.3,0,0.5-0.1,0.7-0.2C133.7,101.1,133.9,100.8,134,100.5z M131.6,99.3h2.5c0-0.4-0.1-0.6-0.3-0.8
		c-0.2-0.3-0.5-0.4-0.9-0.4c-0.3,0-0.6,0.1-0.9,0.3C131.7,98.6,131.6,98.9,131.6,99.3z"/>
	<path d="M138.6,101.4c-0.3,0.2-0.5,0.4-0.8,0.5c-0.3,0.1-0.5,0.1-0.8,0.1c-0.5,0-0.9-0.1-1.1-0.4c-0.3-0.2-0.4-0.5-0.4-0.9
		c0-0.2,0-0.4,0.1-0.6c0.1-0.2,0.2-0.3,0.4-0.4s0.3-0.2,0.5-0.2c0.1,0,0.4-0.1,0.7-0.1c0.6-0.1,1-0.2,1.3-0.3c0-0.1,0-0.2,0-0.2
		c0-0.3-0.1-0.5-0.2-0.6c-0.2-0.2-0.5-0.3-0.9-0.3c-0.4,0-0.6,0.1-0.8,0.2s-0.3,0.3-0.4,0.7l-0.7-0.1c0.1-0.3,0.2-0.6,0.3-0.8
		s0.4-0.3,0.7-0.4c0.3-0.1,0.6-0.2,1-0.2c0.4,0,0.7,0,0.9,0.1c0.2,0.1,0.4,0.2,0.5,0.3s0.2,0.3,0.2,0.5c0,0.1,0,0.4,0,0.7v1
		c0,0.7,0,1.1,0,1.3s0.1,0.4,0.2,0.5h-0.8C138.7,101.8,138.6,101.6,138.6,101.4z M138.5,99.7c-0.3,0.1-0.7,0.2-1.2,0.3
		c-0.3,0-0.5,0.1-0.7,0.1c-0.1,0.1-0.2,0.1-0.3,0.2c-0.1,0.1-0.1,0.2-0.1,0.4c0,0.2,0.1,0.4,0.2,0.5s0.4,0.2,0.7,0.2
		c0.3,0,0.5-0.1,0.8-0.2c0.2-0.1,0.4-0.3,0.5-0.5c0.1-0.2,0.1-0.4,0.1-0.7V99.7z"/>
	<path d="M140.2,100.6l0.7-0.1c0,0.3,0.2,0.5,0.3,0.7c0.2,0.2,0.5,0.2,0.8,0.2c0.3,0,0.6-0.1,0.8-0.2s0.2-0.3,0.2-0.5
		c0-0.2-0.1-0.3-0.2-0.4c-0.1-0.1-0.4-0.2-0.8-0.3c-0.5-0.1-0.9-0.3-1.1-0.4c-0.2-0.1-0.4-0.2-0.5-0.4c-0.1-0.2-0.2-0.4-0.2-0.6
		c0-0.2,0-0.4,0.1-0.5s0.2-0.3,0.4-0.4c0.1-0.1,0.3-0.2,0.5-0.2s0.4-0.1,0.6-0.1c0.3,0,0.6,0,0.9,0.1s0.5,0.2,0.6,0.4
		c0.1,0.2,0.2,0.4,0.3,0.7l-0.7,0.1c0-0.2-0.1-0.4-0.3-0.5s-0.4-0.2-0.7-0.2c-0.3,0-0.6,0.1-0.7,0.2c-0.1,0.1-0.2,0.2-0.2,0.4
		c0,0.1,0,0.2,0.1,0.3c0.1,0.1,0.2,0.1,0.3,0.2c0.1,0,0.3,0.1,0.7,0.2c0.5,0.1,0.9,0.3,1.1,0.3s0.4,0.2,0.5,0.4
		c0.1,0.2,0.2,0.4,0.2,0.6c0,0.2-0.1,0.5-0.2,0.7c-0.1,0.2-0.4,0.4-0.6,0.5c-0.3,0.1-0.6,0.2-0.9,0.2c-0.6,0-1-0.1-1.3-0.4
		S140.2,101.1,140.2,100.6z"/>
	<path d="M147.7,100.5l0.8,0.1c-0.1,0.5-0.3,0.8-0.7,1.1s-0.8,0.4-1.3,0.4c-0.6,0-1.2-0.2-1.5-0.6s-0.6-1-0.6-1.7
		c0-0.7,0.2-1.3,0.6-1.7s0.9-0.6,1.5-0.6c0.6,0,1.1,0.2,1.4,0.6c0.4,0.4,0.6,1,0.6,1.7c0,0,0,0.1,0,0.2h-3.3c0,0.5,0.2,0.9,0.4,1.1
		c0.2,0.3,0.6,0.4,0.9,0.4c0.3,0,0.5-0.1,0.7-0.2C147.5,101.1,147.6,100.8,147.7,100.5z M145.3,99.3h2.5c0-0.4-0.1-0.6-0.3-0.8
		c-0.2-0.3-0.5-0.4-0.9-0.4c-0.3,0-0.6,0.1-0.9,0.3C145.4,98.6,145.3,98.9,145.3,99.3z"/>
	<path d="M151.5,99.7c0-0.8,0.2-1.4,0.7-1.8c0.4-0.3,0.8-0.5,1.4-0.5c0.6,0,1.1,0.2,1.5,0.6s0.6,0.9,0.6,1.6c0,0.6-0.1,1-0.3,1.3
		c-0.2,0.3-0.4,0.6-0.7,0.8c-0.3,0.2-0.7,0.3-1.1,0.3c-0.6,0-1.1-0.2-1.5-0.6C151.7,101.1,151.5,100.5,151.5,99.7z M152.3,99.7
		c0,0.6,0.1,1,0.4,1.3c0.2,0.3,0.6,0.4,0.9,0.4c0.4,0,0.7-0.1,0.9-0.4s0.4-0.7,0.4-1.3c0-0.5-0.1-1-0.4-1.2
		c-0.2-0.3-0.6-0.4-0.9-0.4c-0.4,0-0.7,0.1-0.9,0.4C152.4,98.8,152.3,99.2,152.3,99.7z"/>
	<path d="M156.7,101.9v-3.8H156v-0.6h0.7v-0.5c0-0.3,0-0.5,0.1-0.7c0.1-0.2,0.2-0.4,0.4-0.5c0.2-0.1,0.4-0.2,0.8-0.2
		c0.2,0,0.4,0,0.7,0.1l-0.1,0.7c-0.2,0-0.3,0-0.4,0c-0.2,0-0.4,0-0.5,0.1c-0.1,0.1-0.1,0.3-0.1,0.5v0.4h0.9v0.6h-0.9v3.8H156.7z"/>
</g>
<g>
	<path d="M18.4,113.1l0.7-0.1c0.1,0.4,0.2,0.7,0.4,0.9c0.2,0.2,0.5,0.3,0.8,0.3c0.4,0,0.6-0.1,0.9-0.4c0.2-0.2,0.4-0.5,0.4-0.9
		c0-0.3-0.1-0.6-0.3-0.8s-0.5-0.3-0.9-0.3c-0.1,0-0.3,0-0.5,0.1l0.1-0.7c0,0,0.1,0,0.1,0c0.3,0,0.6-0.1,0.9-0.2
		c0.3-0.2,0.4-0.4,0.4-0.8c0-0.3-0.1-0.5-0.3-0.7s-0.4-0.3-0.7-0.3c-0.3,0-0.5,0.1-0.7,0.3c-0.2,0.2-0.3,0.5-0.4,0.8l-0.7-0.1
		c0.1-0.5,0.3-0.9,0.6-1.2s0.7-0.4,1.2-0.4c0.3,0,0.6,0.1,0.9,0.2s0.5,0.3,0.6,0.6s0.2,0.5,0.2,0.8c0,0.3-0.1,0.5-0.2,0.7
		c-0.1,0.2-0.4,0.4-0.6,0.5c0.4,0.1,0.6,0.3,0.8,0.5c0.2,0.3,0.3,0.6,0.3,1c0,0.5-0.2,1-0.6,1.4s-0.9,0.6-1.5,0.6
		c-0.5,0-1-0.2-1.3-0.5C18.6,114,18.4,113.6,18.4,113.1z"/>
	<path d="M23.2,110.1c0-0.4,0.1-0.8,0.3-1.1c0.2-0.3,0.5-0.5,1-0.5c0.4,0,0.7,0.1,0.9,0.4s0.4,0.7,0.4,1.2c0,0.5-0.1,0.9-0.4,1.2
		c-0.3,0.3-0.6,0.4-0.9,0.4c-0.4,0-0.7-0.1-0.9-0.4C23.3,111,23.2,110.6,23.2,110.1z M24.5,109c-0.2,0-0.3,0.1-0.5,0.2
		c-0.1,0.2-0.2,0.5-0.2,0.9c0,0.4,0.1,0.7,0.2,0.8c0.1,0.2,0.3,0.2,0.5,0.2c0.2,0,0.3-0.1,0.5-0.2c0.1-0.2,0.2-0.5,0.2-0.9
		c0-0.4-0.1-0.7-0.2-0.8S24.7,109,24.5,109z M24.5,114.9l3.3-6.4h0.6l-3.3,6.4H24.5z M27.2,113.3c0-0.4,0.1-0.8,0.3-1.1
		s0.5-0.5,1-0.5c0.4,0,0.7,0.1,0.9,0.4s0.4,0.7,0.4,1.2c0,0.5-0.1,0.9-0.4,1.2c-0.3,0.3-0.6,0.4-0.9,0.4c-0.4,0-0.7-0.1-0.9-0.4
		C27.3,114.2,27.2,113.8,27.2,113.3z M28.5,112.2c-0.2,0-0.3,0.1-0.5,0.2c-0.1,0.2-0.2,0.5-0.2,0.9c0,0.4,0.1,0.7,0.2,0.8
		c0.1,0.2,0.3,0.2,0.5,0.2c0.2,0,0.3-0.1,0.5-0.2s0.2-0.5,0.2-0.9c0-0.4-0.1-0.7-0.2-0.8C28.8,112.3,28.6,112.2,28.5,112.2z"/>
	<path d="M36.1,113.1l0.7,0.1c-0.1,0.5-0.3,0.9-0.6,1.2s-0.7,0.4-1.2,0.4c-0.6,0-1.1-0.2-1.5-0.6c-0.4-0.4-0.5-1-0.5-1.7
		c0-0.5,0.1-0.9,0.2-1.2c0.2-0.4,0.4-0.6,0.7-0.8c0.3-0.2,0.7-0.3,1.1-0.3c0.5,0,0.9,0.1,1.2,0.4c0.3,0.2,0.5,0.6,0.6,1l-0.7,0.1
		c-0.1-0.3-0.2-0.5-0.4-0.7s-0.4-0.2-0.6-0.2c-0.4,0-0.7,0.1-0.9,0.4s-0.4,0.7-0.4,1.3c0,0.6,0.1,1,0.3,1.3c0.2,0.3,0.5,0.4,0.9,0.4
		c0.3,0,0.5-0.1,0.7-0.3S36,113.5,36.1,113.1z"/>
	<path d="M40.3,114.2c-0.3,0.2-0.5,0.4-0.8,0.5s-0.5,0.1-0.8,0.1c-0.5,0-0.9-0.1-1.1-0.4c-0.3-0.2-0.4-0.5-0.4-0.9
		c0-0.2,0-0.4,0.1-0.6c0.1-0.2,0.2-0.3,0.4-0.4c0.2-0.1,0.3-0.2,0.5-0.2c0.1,0,0.4-0.1,0.7-0.1c0.6-0.1,1-0.2,1.3-0.3
		c0-0.1,0-0.2,0-0.2c0-0.3-0.1-0.5-0.2-0.6c-0.2-0.2-0.5-0.3-0.9-0.3c-0.4,0-0.6,0.1-0.8,0.2s-0.3,0.3-0.4,0.7l-0.7-0.1
		c0.1-0.3,0.2-0.6,0.3-0.8s0.4-0.3,0.7-0.4c0.3-0.1,0.6-0.2,1-0.2c0.4,0,0.7,0,0.9,0.1c0.2,0.1,0.4,0.2,0.5,0.3
		c0.1,0.1,0.2,0.3,0.2,0.5c0,0.1,0,0.4,0,0.7v1c0,0.7,0,1.1,0,1.3c0,0.2,0.1,0.4,0.2,0.5h-0.8C40.4,114.5,40.4,114.4,40.3,114.2z
		 M40.3,112.5c-0.3,0.1-0.7,0.2-1.2,0.3c-0.3,0-0.5,0.1-0.7,0.1c-0.1,0.1-0.2,0.1-0.3,0.2c-0.1,0.1-0.1,0.2-0.1,0.4
		c0,0.2,0.1,0.4,0.2,0.5s0.4,0.2,0.7,0.2c0.3,0,0.5-0.1,0.8-0.2c0.2-0.1,0.4-0.3,0.5-0.5c0.1-0.2,0.1-0.4,0.1-0.7V112.5z"/>
	<path d="M42.2,114.7v-4.4h0.7v0.6c0.1-0.2,0.3-0.4,0.6-0.5c0.2-0.1,0.5-0.2,0.8-0.2c0.3,0,0.6,0.1,0.8,0.2s0.4,0.3,0.4,0.6
		c0.3-0.5,0.8-0.8,1.4-0.8c0.4,0,0.8,0.1,1,0.4c0.2,0.2,0.4,0.6,0.4,1.1v3h-0.7v-2.8c0-0.3,0-0.5-0.1-0.6c0-0.1-0.1-0.2-0.3-0.3
		s-0.3-0.1-0.4-0.1c-0.3,0-0.6,0.1-0.8,0.3s-0.3,0.5-0.3,1v2.6h-0.7v-2.9c0-0.3-0.1-0.6-0.2-0.7s-0.3-0.2-0.6-0.2
		c-0.2,0-0.4,0.1-0.6,0.2c-0.2,0.1-0.3,0.3-0.4,0.5s-0.1,0.5-0.1,0.9v2.3H42.2z"/>
	<path d="M52.3,113.3l0.8,0.1c-0.1,0.5-0.3,0.8-0.7,1.1c-0.3,0.2-0.7,0.4-1.3,0.4c-0.6,0-1.2-0.2-1.5-0.6c-0.4-0.4-0.6-1-0.6-1.7
		c0-0.7,0.2-1.3,0.6-1.7c0.4-0.4,0.9-0.6,1.5-0.6c0.6,0,1.1,0.2,1.4,0.6c0.4,0.4,0.6,1,0.6,1.7c0,0,0,0.1,0,0.2h-3.3
		c0,0.5,0.2,0.9,0.4,1.1c0.2,0.3,0.6,0.4,0.9,0.4c0.3,0,0.5-0.1,0.7-0.2C52,113.8,52.2,113.6,52.3,113.3z M49.8,112.1h2.5
		c0-0.4-0.1-0.6-0.3-0.8c-0.2-0.3-0.5-0.4-0.9-0.4c-0.3,0-0.6,0.1-0.9,0.3S49.9,111.7,49.8,112.1z"/>
	<path d="M56.4,109.5v-0.9h0.7v0.9H56.4z M56.4,114.7v-4.4h0.7v4.4H56.4z"/>
	<path d="M58.2,114.7v-4.4h0.7v0.6c0.3-0.5,0.8-0.7,1.4-0.7c0.3,0,0.5,0,0.7,0.1s0.4,0.2,0.5,0.4c0.1,0.2,0.2,0.3,0.2,0.6
		c0,0.1,0,0.4,0,0.7v2.7h-0.7V112c0-0.3,0-0.5-0.1-0.7c-0.1-0.2-0.2-0.3-0.3-0.4s-0.3-0.1-0.5-0.1c-0.3,0-0.6,0.1-0.8,0.3
		s-0.3,0.6-0.3,1.1v2.4H58.2z"/>
	<path d="M64.6,114l0.1,0.7c-0.2,0-0.4,0.1-0.6,0.1c-0.3,0-0.5,0-0.6-0.1s-0.3-0.2-0.3-0.3s-0.1-0.4-0.1-0.9v-2.5h-0.5v-0.6h0.5
		v-1.1l0.7-0.4v1.5h0.8v0.6h-0.8v2.6c0,0.2,0,0.3,0,0.4c0,0.1,0.1,0.1,0.1,0.1s0.1,0.1,0.3,0.1C64.4,114.1,64.5,114.1,64.6,114z"/>
	<path d="M65.1,112.5c0-0.8,0.2-1.4,0.7-1.8c0.4-0.3,0.8-0.5,1.4-0.5c0.6,0,1.1,0.2,1.5,0.6c0.4,0.4,0.6,0.9,0.6,1.6
		c0,0.6-0.1,1-0.3,1.3c-0.2,0.3-0.4,0.6-0.7,0.8s-0.7,0.3-1.1,0.3c-0.6,0-1.1-0.2-1.5-0.6S65.1,113.2,65.1,112.5z M65.8,112.5
		c0,0.6,0.1,1,0.4,1.3c0.2,0.3,0.6,0.4,0.9,0.4c0.4,0,0.7-0.1,0.9-0.4c0.2-0.3,0.4-0.7,0.4-1.3c0-0.5-0.1-1-0.4-1.2
		c-0.2-0.3-0.6-0.4-0.9-0.4c-0.4,0-0.7,0.1-0.9,0.4S65.8,111.9,65.8,112.5z"/>
	<path d="M75.4,113.3l0.8,0.1c-0.1,0.5-0.3,0.8-0.7,1.1c-0.3,0.2-0.7,0.4-1.3,0.4c-0.6,0-1.2-0.2-1.5-0.6c-0.4-0.4-0.6-1-0.6-1.7
		c0-0.7,0.2-1.3,0.6-1.7c0.4-0.4,0.9-0.6,1.5-0.6c0.6,0,1.1,0.2,1.4,0.6c0.4,0.4,0.6,1,0.6,1.7c0,0,0,0.1,0,0.2h-3.3
		c0,0.5,0.2,0.9,0.4,1.1c0.2,0.3,0.6,0.4,0.9,0.4c0.3,0,0.5-0.1,0.7-0.2C75.2,113.8,75.3,113.6,75.4,113.3z M73,112.1h2.5
		c0-0.4-0.1-0.6-0.3-0.8c-0.2-0.3-0.5-0.4-0.9-0.4c-0.3,0-0.6,0.1-0.9,0.3S73,111.7,73,112.1z"/>
	<path d="M77.3,114.7v-3.8h-0.7v-0.6h0.7v-0.5c0-0.3,0-0.5,0.1-0.7c0.1-0.2,0.2-0.4,0.4-0.5s0.4-0.2,0.8-0.2c0.2,0,0.4,0,0.7,0.1
		l-0.1,0.7c-0.2,0-0.3,0-0.4,0c-0.2,0-0.4,0-0.5,0.1c-0.1,0.1-0.1,0.3-0.1,0.5v0.4h0.9v0.6h-0.9v3.8H77.3z"/>
	<path d="M79.5,114.7v-3.8h-0.7v-0.6h0.7v-0.5c0-0.3,0-0.5,0.1-0.7c0.1-0.2,0.2-0.4,0.4-0.5s0.4-0.2,0.8-0.2c0.2,0,0.4,0,0.7,0.1
		l-0.1,0.7c-0.2,0-0.3,0-0.4,0c-0.2,0-0.4,0-0.5,0.1c-0.1,0.1-0.1,0.3-0.1,0.5v0.4h0.9v0.6h-0.9v3.8H79.5z"/>
	<path d="M84.7,113.3l0.8,0.1c-0.1,0.5-0.3,0.8-0.7,1.1c-0.3,0.2-0.7,0.4-1.3,0.4c-0.6,0-1.2-0.2-1.5-0.6c-0.4-0.4-0.6-1-0.6-1.7
		c0-0.7,0.2-1.3,0.6-1.7c0.4-0.4,0.9-0.6,1.5-0.6c0.6,0,1.1,0.2,1.4,0.6c0.4,0.4,0.6,1,0.6,1.7c0,0,0,0.1,0,0.2h-3.3
		c0,0.5,0.2,0.9,0.4,1.1c0.2,0.3,0.6,0.4,0.9,0.4c0.3,0,0.5-0.1,0.7-0.2C84.5,113.8,84.6,113.6,84.7,113.3z M82.3,112.1h2.5
		c0-0.4-0.1-0.6-0.3-0.8c-0.2-0.3-0.5-0.4-0.9-0.4c-0.3,0-0.6,0.1-0.9,0.3S82.3,111.7,82.3,112.1z"/>
	<path d="M89.3,113.1l0.7,0.1c-0.1,0.5-0.3,0.9-0.6,1.2s-0.7,0.4-1.2,0.4c-0.6,0-1.1-0.2-1.5-0.6c-0.4-0.4-0.5-1-0.5-1.7
		c0-0.5,0.1-0.9,0.2-1.2c0.2-0.4,0.4-0.6,0.7-0.8c0.3-0.2,0.7-0.3,1.1-0.3c0.5,0,0.9,0.1,1.2,0.4c0.3,0.2,0.5,0.6,0.6,1l-0.7,0.1
		c-0.1-0.3-0.2-0.5-0.4-0.7s-0.4-0.2-0.6-0.2c-0.4,0-0.7,0.1-0.9,0.4s-0.4,0.7-0.4,1.3c0,0.6,0.1,1,0.3,1.3c0.2,0.3,0.5,0.4,0.9,0.4
		c0.3,0,0.5-0.1,0.7-0.3S89.3,113.5,89.3,113.1z"/>
	<path d="M92.3,114l0.1,0.7c-0.2,0-0.4,0.1-0.6,0.1c-0.3,0-0.5,0-0.6-0.1s-0.3-0.2-0.3-0.3s-0.1-0.4-0.1-0.9v-2.5h-0.5v-0.6h0.5
		v-1.1l0.7-0.4v1.5h0.8v0.6h-0.8v2.6c0,0.2,0,0.3,0,0.4c0,0.1,0.1,0.1,0.1,0.1s0.1,0.1,0.3,0.1C92.1,114.1,92.2,114.1,92.3,114z"/>
	<path d="M94.4,114.7l2.3-6.1h0.9l2.5,6.1h-0.9l-0.7-1.8h-2.5l-0.7,1.8H94.4z M96.1,112.2h2.1l-0.6-1.7c-0.2-0.5-0.3-0.9-0.4-1.3
		c-0.1,0.4-0.2,0.8-0.3,1.2L96.1,112.2z"/>
	<path d="M100.6,116.4v-6.1h0.7v0.6c0.2-0.2,0.3-0.4,0.5-0.5c0.2-0.1,0.4-0.2,0.7-0.2c0.4,0,0.7,0.1,1,0.3c0.3,0.2,0.5,0.5,0.7,0.8
		c0.1,0.4,0.2,0.7,0.2,1.2c0,0.5-0.1,0.9-0.2,1.2c-0.2,0.4-0.4,0.6-0.7,0.8s-0.6,0.3-1,0.3c-0.2,0-0.5-0.1-0.7-0.2
		c-0.2-0.1-0.4-0.2-0.5-0.4v2.1H100.6z M101.3,112.5c0,0.6,0.1,1,0.3,1.3c0.2,0.3,0.5,0.4,0.8,0.4c0.3,0,0.6-0.1,0.9-0.4
		c0.2-0.3,0.4-0.7,0.4-1.3c0-0.6-0.1-1-0.3-1.3s-0.5-0.4-0.8-0.4c-0.3,0-0.6,0.1-0.8,0.4C101.4,111.5,101.3,112,101.3,112.5z"/>
	<path d="M105.3,114.7v-4.4h0.7v0.7c0.2-0.3,0.3-0.5,0.5-0.6c0.1-0.1,0.3-0.2,0.5-0.2c0.3,0,0.5,0.1,0.8,0.2l-0.3,0.7
		c-0.2-0.1-0.4-0.2-0.5-0.2c-0.2,0-0.3,0-0.4,0.1c-0.1,0.1-0.2,0.2-0.3,0.4c-0.1,0.3-0.1,0.6-0.1,0.9v2.3H105.3z"/>
	<path d="M108.2,109.5v-0.9h0.7v0.9H108.2z M108.2,114.7v-4.4h0.7v4.4H108.2z"/>
	<path d="M110.1,114.7v-6.1h0.7v6.1H110.1z"/>
	<path d="M116.9,114.7h-0.7v-4.8c-0.2,0.2-0.4,0.3-0.7,0.5c-0.3,0.2-0.6,0.3-0.8,0.4v-0.7c0.4-0.2,0.8-0.4,1.1-0.7
		c0.3-0.3,0.5-0.6,0.7-0.8h0.5V114.7z"/>
	<path d="M119.2,114.7v-0.9h0.9v0.9c0,0.3-0.1,0.6-0.2,0.8c-0.1,0.2-0.3,0.3-0.5,0.4l-0.2-0.3c0.2-0.1,0.3-0.2,0.3-0.3
		c0.1-0.1,0.1-0.3,0.1-0.6H119.2z"/>
	<path d="M127.5,114v0.7h-4c0-0.2,0-0.4,0.1-0.5c0.1-0.3,0.3-0.5,0.5-0.8s0.6-0.6,1-0.9c0.7-0.5,1.1-1,1.3-1.3
		c0.2-0.3,0.3-0.6,0.3-0.9c0-0.3-0.1-0.5-0.3-0.7c-0.2-0.2-0.5-0.3-0.8-0.3c-0.4,0-0.6,0.1-0.9,0.3s-0.3,0.5-0.3,0.9l-0.8-0.1
		c0.1-0.6,0.3-1,0.6-1.3c0.3-0.3,0.8-0.5,1.4-0.5c0.6,0,1,0.2,1.4,0.5c0.3,0.3,0.5,0.7,0.5,1.2c0,0.2,0,0.5-0.1,0.7
		s-0.3,0.5-0.5,0.7c-0.2,0.3-0.6,0.6-1.2,1.1c-0.4,0.4-0.7,0.6-0.9,0.8c-0.1,0.1-0.2,0.3-0.3,0.4H127.5z"/>
	<path d="M128.3,111.7c0-0.7,0.1-1.3,0.2-1.7s0.4-0.8,0.7-1c0.3-0.2,0.7-0.4,1.1-0.4c0.3,0,0.6,0.1,0.9,0.2s0.4,0.3,0.6,0.6
		c0.2,0.2,0.3,0.5,0.4,0.9s0.1,0.8,0.1,1.4c0,0.7-0.1,1.3-0.2,1.7s-0.4,0.8-0.7,1s-0.7,0.4-1.1,0.4c-0.6,0-1-0.2-1.4-0.6
		C128.5,113.7,128.3,112.8,128.3,111.7z M129.1,111.7c0,1,0.1,1.7,0.4,2c0.2,0.3,0.5,0.5,0.9,0.5c0.3,0,0.6-0.2,0.9-0.5s0.4-1,0.4-2
		c0-1-0.1-1.7-0.4-2s-0.5-0.5-0.9-0.5c-0.3,0-0.6,0.1-0.8,0.4C129.2,110,129.1,110.7,129.1,111.7z"/>
	<path d="M135.8,114.7h-0.7v-4.8c-0.2,0.2-0.4,0.3-0.7,0.5c-0.3,0.2-0.6,0.3-0.8,0.4v-0.7c0.4-0.2,0.8-0.4,1.1-0.7
		c0.3-0.3,0.5-0.6,0.7-0.8h0.5V114.7z"/>
	<path d="M138.9,111.4c-0.3-0.1-0.5-0.3-0.7-0.5s-0.2-0.5-0.2-0.8c0-0.4,0.2-0.8,0.5-1.1c0.3-0.3,0.7-0.5,1.3-0.5
		c0.5,0,1,0.2,1.3,0.5s0.5,0.7,0.5,1.1c0,0.3-0.1,0.5-0.2,0.7s-0.4,0.4-0.7,0.5c0.4,0.1,0.7,0.3,0.9,0.6c0.2,0.3,0.3,0.6,0.3,1
		c0,0.5-0.2,1-0.6,1.3c-0.4,0.4-0.9,0.5-1.5,0.5s-1.1-0.2-1.5-0.5s-0.6-0.8-0.6-1.3c0-0.4,0.1-0.7,0.3-1
		C138.2,111.7,138.5,111.5,138.9,111.4z M138.5,112.9c0,0.2,0.1,0.4,0.2,0.6s0.3,0.4,0.5,0.5s0.4,0.2,0.6,0.2c0.4,0,0.7-0.1,0.9-0.3
		c0.2-0.2,0.3-0.5,0.3-0.9c0-0.4-0.1-0.7-0.4-0.9s-0.5-0.4-0.9-0.4c-0.4,0-0.6,0.1-0.9,0.3S138.5,112.6,138.5,112.9z M138.7,110.1
		c0,0.3,0.1,0.5,0.3,0.7c0.2,0.2,0.4,0.3,0.7,0.3c0.3,0,0.5-0.1,0.7-0.3c0.2-0.2,0.3-0.4,0.3-0.7c0-0.3-0.1-0.5-0.3-0.7
		s-0.4-0.3-0.7-0.3c-0.3,0-0.5,0.1-0.7,0.3C138.8,109.7,138.7,109.9,138.7,110.1z"/>
	<path d="M147.9,114.2c-0.3,0.2-0.5,0.4-0.8,0.5s-0.5,0.1-0.8,0.1c-0.5,0-0.9-0.1-1.1-0.4c-0.3-0.2-0.4-0.5-0.4-0.9
		c0-0.2,0-0.4,0.1-0.6c0.1-0.2,0.2-0.3,0.4-0.4c0.2-0.1,0.3-0.2,0.5-0.2c0.1,0,0.4-0.1,0.7-0.1c0.6-0.1,1-0.2,1.3-0.3
		c0-0.1,0-0.2,0-0.2c0-0.3-0.1-0.5-0.2-0.6c-0.2-0.2-0.5-0.3-0.9-0.3c-0.4,0-0.6,0.1-0.8,0.2c-0.2,0.1-0.3,0.3-0.4,0.7l-0.7-0.1
		c0.1-0.3,0.2-0.6,0.3-0.8s0.4-0.3,0.7-0.4c0.3-0.1,0.6-0.2,1-0.2c0.4,0,0.7,0,0.9,0.1c0.2,0.1,0.4,0.2,0.5,0.3
		c0.1,0.1,0.2,0.3,0.2,0.5c0,0.1,0,0.4,0,0.7v1c0,0.7,0,1.1,0,1.3c0,0.2,0.1,0.4,0.2,0.5h-0.8C148,114.5,147.9,114.4,147.9,114.2z
		 M147.9,112.5c-0.3,0.1-0.7,0.2-1.2,0.3c-0.3,0-0.5,0.1-0.7,0.1c-0.1,0.1-0.2,0.1-0.3,0.2s-0.1,0.2-0.1,0.4c0,0.2,0.1,0.4,0.2,0.5
		c0.2,0.1,0.4,0.2,0.7,0.2c0.3,0,0.5-0.1,0.8-0.2c0.2-0.1,0.4-0.3,0.5-0.5c0.1-0.2,0.1-0.4,0.1-0.7V112.5z"/>
	<path d="M149.8,114.7v-4.4h0.7v0.6c0.3-0.5,0.8-0.7,1.4-0.7c0.3,0,0.5,0,0.7,0.1s0.4,0.2,0.5,0.4c0.1,0.2,0.2,0.3,0.2,0.6
		c0,0.1,0,0.4,0,0.7v2.7h-0.7V112c0-0.3,0-0.5-0.1-0.7c-0.1-0.2-0.2-0.3-0.3-0.4c-0.1-0.1-0.3-0.1-0.5-0.1c-0.3,0-0.6,0.1-0.8,0.3
		c-0.2,0.2-0.3,0.6-0.3,1.1v2.4H149.8z"/>
	<path d="M157.4,114.7v-0.6c-0.3,0.4-0.7,0.7-1.2,0.7c-0.4,0-0.7-0.1-1-0.3c-0.3-0.2-0.5-0.5-0.7-0.8c-0.2-0.3-0.2-0.7-0.2-1.2
		c0-0.4,0.1-0.8,0.2-1.2s0.4-0.6,0.7-0.8c0.3-0.2,0.6-0.3,1-0.3c0.3,0,0.5,0.1,0.7,0.2c0.2,0.1,0.4,0.3,0.5,0.4v-2.2h0.7v6.1H157.4z
		 M155,112.5c0,0.6,0.1,1,0.4,1.3c0.2,0.3,0.5,0.4,0.8,0.4c0.3,0,0.6-0.1,0.8-0.4c0.2-0.3,0.3-0.7,0.3-1.2c0-0.6-0.1-1-0.3-1.3
		s-0.5-0.4-0.9-0.4c-0.3,0-0.6,0.1-0.8,0.4C155.1,111.5,155,111.9,155,112.5z"/>
</g>
<path d="M18.6,127.4V123h0.7v0.6c0.1-0.2,0.3-0.4,0.6-0.5c0.2-0.1,0.5-0.2,0.8-0.2c0.3,0,0.6,0.1,0.8,0.2c0.2,0.1,0.4,0.3,0.4,0.6
	c0.3-0.5,0.8-0.8,1.4-0.8c0.4,0,0.8,0.1,1,0.4c0.2,0.2,0.4,0.6,0.4,1.1v3h-0.7v-2.8c0-0.3,0-0.5-0.1-0.6c0-0.1-0.1-0.2-0.3-0.3
	c-0.1-0.1-0.3-0.1-0.4-0.1c-0.3,0-0.6,0.1-0.8,0.3c-0.2,0.2-0.3,0.5-0.3,1v2.6h-0.7v-2.9c0-0.3-0.1-0.6-0.2-0.7
	c-0.1-0.2-0.3-0.2-0.6-0.2c-0.2,0-0.4,0.1-0.6,0.2c-0.2,0.1-0.3,0.3-0.4,0.5c-0.1,0.2-0.1,0.5-0.1,0.9v2.3H18.6z M28.7,127.4
	c-0.1-0.2-0.1-0.3-0.1-0.5c-0.3,0.2-0.5,0.4-0.8,0.5c-0.3,0.1-0.5,0.1-0.8,0.1c-0.5,0-0.9-0.1-1.1-0.4c-0.3-0.2-0.4-0.5-0.4-0.9
	c0-0.2,0-0.4,0.1-0.6c0.1-0.2,0.2-0.3,0.4-0.4c0.2-0.1,0.3-0.2,0.5-0.2c0.1,0,0.4-0.1,0.7-0.1c0.6-0.1,1-0.2,1.3-0.3
	c0-0.1,0-0.2,0-0.2c0-0.3-0.1-0.5-0.2-0.6c-0.2-0.2-0.5-0.3-0.9-0.3c-0.4,0-0.6,0.1-0.8,0.2c-0.2,0.1-0.3,0.3-0.4,0.7l-0.7-0.1
	c0.1-0.3,0.2-0.6,0.3-0.8c0.2-0.2,0.4-0.3,0.7-0.4c0.3-0.1,0.6-0.2,1-0.2c0.4,0,0.7,0,0.9,0.1c0.2,0.1,0.4,0.2,0.5,0.3
	c0.1,0.1,0.2,0.3,0.2,0.5c0,0.1,0,0.4,0,0.7v1c0,0.7,0,1.1,0,1.3c0,0.2,0.1,0.4,0.2,0.5H28.7L28.7,127.4z M28.5,125.2
	c-0.3,0.1-0.7,0.2-1.2,0.3c-0.3,0-0.5,0.1-0.7,0.1c-0.1,0.1-0.2,0.1-0.3,0.2c-0.1,0.1-0.1,0.2-0.1,0.4c0,0.2,0.1,0.4,0.2,0.5
	c0.2,0.1,0.4,0.2,0.7,0.2c0.3,0,0.5-0.1,0.8-0.2c0.2-0.1,0.4-0.3,0.5-0.5c0.1-0.2,0.1-0.4,0.1-0.7V125.2z M30.8,129.2
	c-0.1,0-0.3,0-0.5-0.1l-0.1-0.7c0.2,0,0.3,0.1,0.4,0.1c0.2,0,0.3,0,0.4-0.1c0.1-0.1,0.2-0.1,0.2-0.2c0-0.1,0.1-0.3,0.2-0.6
	c0,0,0-0.1,0.1-0.2l-1.7-4.4h0.8l0.9,2.6c0.1,0.3,0.2,0.7,0.3,1c0.1-0.3,0.2-0.7,0.3-1l0.9-2.6H34l-1.7,4.5c-0.2,0.5-0.3,0.8-0.4,1
	c-0.1,0.2-0.3,0.4-0.5,0.5C31.3,129.2,31.1,129.2,30.8,129.2L30.8,129.2z M37.7,127.4H37v-6.1h0.7v2.2c0.3-0.4,0.7-0.6,1.2-0.6
	c0.3,0,0.5,0.1,0.8,0.2c0.2,0.1,0.4,0.3,0.6,0.5c0.2,0.2,0.3,0.4,0.4,0.7c0.1,0.3,0.1,0.6,0.1,0.9c0,0.8-0.2,1.3-0.6,1.8
	c-0.4,0.4-0.8,0.6-1.3,0.6c-0.5,0-0.9-0.2-1.2-0.7V127.4z M37.7,125.2c0,0.5,0.1,0.9,0.2,1.1c0.2,0.4,0.6,0.6,1,0.6
	c0.3,0,0.6-0.1,0.8-0.4c0.2-0.3,0.4-0.7,0.4-1.3c0-0.6-0.1-1-0.3-1.3s-0.5-0.4-0.8-0.4c-0.3,0-0.6,0.1-0.8,0.4
	C37.8,124.3,37.7,124.7,37.7,125.2z M44.7,126l0.8,0.1c-0.1,0.5-0.3,0.8-0.7,1.1c-0.3,0.2-0.7,0.4-1.3,0.4c-0.6,0-1.2-0.2-1.5-0.6
	c-0.4-0.4-0.6-1-0.6-1.7c0-0.7,0.2-1.3,0.6-1.7c0.4-0.4,0.9-0.6,1.5-0.6c0.6,0,1.1,0.2,1.4,0.6c0.4,0.4,0.6,1,0.6,1.7
	c0,0,0,0.1,0,0.2h-3.3c0,0.5,0.2,0.9,0.4,1.1c0.2,0.3,0.6,0.4,0.9,0.4c0.3,0,0.5-0.1,0.7-0.2C44.5,126.6,44.6,126.3,44.7,126z
	 M42.3,124.8h2.5c0-0.4-0.1-0.6-0.3-0.8c-0.2-0.3-0.5-0.4-0.9-0.4c-0.3,0-0.6,0.1-0.9,0.3C42.4,124.1,42.3,124.4,42.3,124.8z
	 M48.8,127.4V123h0.7v0.7c0.2-0.3,0.3-0.5,0.5-0.6s0.3-0.1,0.5-0.1c0.3,0,0.5,0.1,0.8,0.2l-0.3,0.7c-0.2-0.1-0.4-0.2-0.5-0.2
	c-0.2,0-0.3,0-0.4,0.1c-0.1,0.1-0.2,0.2-0.3,0.4c-0.1,0.3-0.1,0.6-0.1,0.9v2.3H48.8z M54.6,126l0.8,0.1c-0.1,0.5-0.3,0.8-0.7,1.1
	c-0.3,0.2-0.7,0.4-1.3,0.4c-0.6,0-1.2-0.2-1.5-0.6c-0.4-0.4-0.6-1-0.6-1.7c0-0.7,0.2-1.3,0.6-1.7c0.4-0.4,0.9-0.6,1.5-0.6
	c0.6,0,1.1,0.2,1.4,0.6c0.4,0.4,0.6,1,0.6,1.7c0,0,0,0.1,0,0.2h-3.3c0,0.5,0.2,0.9,0.4,1.1c0.2,0.3,0.6,0.4,0.9,0.4
	c0.3,0,0.5-0.1,0.7-0.2C54.4,126.6,54.5,126.3,54.6,126z M52.2,124.8h2.5c0-0.4-0.1-0.6-0.3-0.8c-0.2-0.3-0.5-0.4-0.9-0.4
	c-0.3,0-0.6,0.1-0.9,0.3C52.3,124.1,52.2,124.4,52.2,124.8z M56.6,127.4v-3.8h-0.7V123h0.7v-0.4c0-0.4,0.1-0.8,0.3-1
	c0.2-0.2,0.5-0.3,0.9-0.3c0.3,0,0.5,0,0.8,0.1l-0.1,0.6c-0.1,0-0.3,0-0.4,0c-0.3,0-0.4,0.1-0.5,0.2c-0.1,0.1-0.1,0.3-0.1,0.7v0.3
	h0.9v0.6h-0.9v3.8H56.6z M58.7,127.4v-6.1h0.7v6.1H58.7z M63.6,126l0.8,0.1c-0.1,0.5-0.3,0.8-0.7,1.1c-0.3,0.2-0.7,0.4-1.3,0.4
	c-0.6,0-1.2-0.2-1.5-0.6c-0.4-0.4-0.6-1-0.6-1.7c0-0.7,0.2-1.3,0.6-1.7c0.4-0.4,0.9-0.6,1.5-0.6c0.6,0,1.1,0.2,1.4,0.6
	c0.4,0.4,0.6,1,0.6,1.7c0,0,0,0.1,0,0.2h-3.3c0,0.5,0.2,0.9,0.4,1.1c0.2,0.3,0.6,0.4,0.9,0.4c0.3,0,0.5-0.1,0.7-0.2
	C63.4,126.6,63.5,126.3,63.6,126z M61.2,124.8h2.5c0-0.4-0.1-0.6-0.3-0.8c-0.2-0.3-0.5-0.4-0.9-0.4c-0.3,0-0.6,0.1-0.9,0.3
	C61.3,124.1,61.2,124.4,61.2,124.8z M68.2,125.8l0.7,0.1c-0.1,0.5-0.3,0.9-0.6,1.2c-0.3,0.3-0.7,0.4-1.2,0.4c-0.6,0-1.1-0.2-1.5-0.6
	c-0.4-0.4-0.5-1-0.5-1.7c0-0.5,0.1-0.9,0.2-1.2s0.4-0.6,0.7-0.8c0.3-0.2,0.7-0.3,1.1-0.3c0.5,0,0.9,0.1,1.2,0.4
	c0.3,0.2,0.5,0.6,0.6,1l-0.7,0.1c-0.1-0.3-0.2-0.5-0.4-0.7c-0.2-0.1-0.4-0.2-0.6-0.2c-0.4,0-0.7,0.1-0.9,0.4
	c-0.2,0.3-0.4,0.7-0.4,1.3c0,0.6,0.1,1,0.3,1.3c0.2,0.3,0.5,0.4,0.9,0.4c0.3,0,0.5-0.1,0.7-0.3C68,126.5,68.2,126.2,68.2,125.8z
	 M70.9,126.8c0.1,0,0.2,0,0.3,0l0.1,0.7c-0.2,0-0.4,0.1-0.6,0.1c-0.3,0-0.5,0-0.6-0.1s-0.3-0.2-0.3-0.3c-0.1-0.1-0.1-0.4-0.1-0.9
	v-2.5h-0.5V123h0.5V122l0.7-0.4v1.5h0.8v0.6h-0.8v2.6c0,0.2,0,0.4,0,0.4c0,0.1,0.1,0.1,0.1,0.1C70.7,126.8,70.8,126.8,70.9,126.8
	L70.9,126.8z M75,126l0.8,0.1c-0.1,0.5-0.3,0.8-0.7,1.1c-0.3,0.2-0.7,0.4-1.3,0.4c-0.6,0-1.2-0.2-1.5-0.6c-0.4-0.4-0.6-1-0.6-1.7
	c0-0.7,0.2-1.3,0.6-1.7c0.4-0.4,0.9-0.6,1.5-0.6c0.6,0,1.1,0.2,1.4,0.6c0.4,0.4,0.6,1,0.6,1.7c0,0,0,0.1,0,0.2h-3.3
	c0,0.5,0.2,0.9,0.4,1.1c0.2,0.3,0.6,0.4,0.9,0.4c0.3,0,0.5-0.1,0.7-0.2C74.7,126.6,74.8,126.3,75,126z M72.5,124.8H75
	c0-0.4-0.1-0.6-0.3-0.8c-0.2-0.3-0.5-0.4-0.9-0.4c-0.3,0-0.6,0.1-0.9,0.3C72.7,124.1,72.5,124.4,72.5,124.8z M79.5,127.4v-0.6
	c-0.3,0.4-0.7,0.7-1.2,0.7c-0.4,0-0.7-0.1-1-0.3s-0.5-0.5-0.7-0.8c-0.2-0.3-0.2-0.7-0.2-1.2c0-0.4,0.1-0.8,0.2-1.2
	c0.1-0.4,0.4-0.6,0.7-0.8c0.3-0.2,0.6-0.3,1-0.3c0.3,0,0.5,0.1,0.7,0.2s0.4,0.3,0.5,0.4v-2.2h0.7v6.1H79.5z M77.2,125.3
	c0,0.6,0.1,1,0.4,1.3c0.2,0.3,0.5,0.4,0.8,0.4c0.3,0,0.6-0.1,0.8-0.4c0.2-0.3,0.3-0.7,0.3-1.2c0-0.6-0.1-1-0.3-1.3s-0.5-0.4-0.9-0.4
	c-0.3,0-0.6,0.1-0.8,0.4C77.3,124.2,77.2,124.7,77.2,125.3z M83.5,125.2c0-0.8,0.2-1.4,0.7-1.8c0.4-0.3,0.8-0.5,1.4-0.5
	c0.6,0,1.1,0.2,1.5,0.6c0.4,0.4,0.6,0.9,0.6,1.6c0,0.6-0.1,1-0.3,1.3c-0.2,0.3-0.4,0.6-0.7,0.8c-0.3,0.2-0.7,0.3-1.1,0.3
	c-0.6,0-1.1-0.2-1.5-0.6C83.7,126.6,83.5,126,83.5,125.2z M84.2,125.2c0,0.6,0.1,1,0.4,1.3c0.2,0.3,0.6,0.4,0.9,0.4
	c0.4,0,0.7-0.1,0.9-0.4c0.2-0.3,0.4-0.7,0.4-1.3c0-0.5-0.1-1-0.4-1.2c-0.2-0.3-0.6-0.4-0.9-0.4c-0.4,0-0.7,0.1-0.9,0.4
	C84.4,124.3,84.2,124.7,84.2,125.2z M88.5,127.4V123h0.7v0.6c0.3-0.5,0.8-0.7,1.4-0.7c0.3,0,0.5,0,0.7,0.1c0.2,0.1,0.4,0.2,0.5,0.4
	c0.1,0.2,0.2,0.3,0.2,0.6c0,0.1,0,0.4,0,0.7v2.7h-0.7v-2.7c0-0.3,0-0.5-0.1-0.7c-0.1-0.2-0.2-0.3-0.3-0.4c-0.1-0.1-0.3-0.1-0.5-0.1
	c-0.3,0-0.6,0.1-0.8,0.3c-0.2,0.2-0.3,0.6-0.3,1.1v2.4H88.5z M96.9,126.8c0.1,0,0.2,0,0.3,0l0.1,0.7c-0.2,0-0.4,0.1-0.6,0.1
	c-0.3,0-0.5,0-0.6-0.1s-0.3-0.2-0.3-0.3c-0.1-0.1-0.1-0.4-0.1-0.9v-2.5h-0.5V123h0.5V122l0.7-0.4v1.5h0.8v0.6h-0.8v2.6
	c0,0.2,0,0.4,0,0.4c0,0.1,0.1,0.1,0.1,0.1C96.7,126.8,96.8,126.8,96.9,126.8L96.9,126.8z M97.9,127.4v-6.1h0.7v2.2
	c0.3-0.4,0.8-0.6,1.3-0.6c0.3,0,0.6,0.1,0.9,0.2s0.4,0.3,0.5,0.5c0.1,0.2,0.2,0.6,0.2,1v2.8h-0.7v-2.8c0-0.4-0.1-0.6-0.2-0.8
	s-0.4-0.3-0.7-0.3c-0.2,0-0.4,0.1-0.6,0.2c-0.2,0.1-0.3,0.3-0.4,0.5c-0.1,0.2-0.1,0.5-0.1,0.8v2.4H97.9z M102.7,122.2v-0.9h0.7v0.9
	H102.7z M102.7,127.4V123h0.7v4.4H102.7z M104.2,126.1l0.7-0.1c0,0.3,0.2,0.5,0.3,0.7c0.2,0.2,0.5,0.2,0.8,0.2
	c0.3,0,0.6-0.1,0.8-0.2c0.2-0.1,0.2-0.3,0.2-0.5c0-0.2-0.1-0.3-0.2-0.4c-0.1-0.1-0.4-0.2-0.8-0.3c-0.5-0.1-0.9-0.3-1.1-0.4
	c-0.2-0.1-0.4-0.2-0.5-0.4c-0.1-0.2-0.2-0.4-0.2-0.6c0-0.2,0-0.4,0.1-0.5c0.1-0.2,0.2-0.3,0.4-0.4c0.1-0.1,0.3-0.2,0.5-0.2
	c0.2-0.1,0.4-0.1,0.6-0.1c0.3,0,0.6,0,0.9,0.1s0.5,0.2,0.6,0.4s0.2,0.4,0.3,0.7l-0.7,0.1c0-0.2-0.1-0.4-0.3-0.5
	c-0.2-0.1-0.4-0.2-0.7-0.2c-0.3,0-0.6,0.1-0.7,0.2c-0.1,0.1-0.2,0.2-0.2,0.4c0,0.1,0,0.2,0.1,0.3c0.1,0.1,0.2,0.1,0.3,0.2
	c0.1,0,0.3,0.1,0.7,0.2c0.5,0.1,0.9,0.3,1.1,0.3c0.2,0.1,0.4,0.2,0.5,0.4c0.1,0.2,0.2,0.4,0.2,0.6c0,0.2-0.1,0.5-0.2,0.7
	s-0.4,0.4-0.6,0.5s-0.6,0.2-0.9,0.2c-0.6,0-1-0.1-1.3-0.4C104.5,127,104.3,126.6,104.2,126.1z M111.8,127.4h-0.7v-6.1h0.7v2.2
	c0.3-0.4,0.7-0.6,1.2-0.6c0.3,0,0.5,0.1,0.8,0.2c0.2,0.1,0.4,0.3,0.6,0.5c0.2,0.2,0.3,0.4,0.4,0.7c0.1,0.3,0.1,0.6,0.1,0.9
	c0,0.8-0.2,1.3-0.6,1.8c-0.4,0.4-0.8,0.6-1.3,0.6c-0.5,0-0.9-0.2-1.2-0.7V127.4z M111.8,125.2c0,0.5,0.1,0.9,0.2,1.1
	c0.2,0.4,0.6,0.6,1,0.6c0.3,0,0.6-0.1,0.8-0.4c0.2-0.3,0.4-0.7,0.4-1.3c0-0.6-0.1-1-0.3-1.3s-0.5-0.4-0.8-0.4
	c-0.3,0-0.6,0.1-0.8,0.4C112,124.3,111.8,124.7,111.8,125.2z M115.9,122.2v-0.9h0.7v0.9H115.9z M115.9,127.4V123h0.7v4.4H115.9z
	 M117.8,127.4v-6.1h0.7v6.1H117.8z M119.6,127.4v-6.1h0.7v6.1H119.6z M121.8,127.4v-0.9h0.9v0.9H121.8z"/>
<path class="st1" d="M190.8,38.3h28.5 M190.8,44.9h28.5 M190.8,82h66 M190.8,89.6h66 M190.8,98.3h66v25.7h-66V98.3z M227.2,27h30.2
	v22h-30.2V27z M265.3,131.2h-81.5V19.1h81.5V131.2z"/>
<g>
	<defs>
		<rect id="SVGID_1_" width="284.4" height="213.8"/>
	</defs>
	<clipPath id="SVGID_2_">
		<use xlink:href="#SVGID_1_"  style="overflow:visible;"/>
	</clipPath>
	<path class="st2" d="M242.8,38.7v3.4c0,0.1,0.1,0.2,0.2,0.2c1-0.2,1.7-0.8,1.7-1.9c0-1.1-0.8-1.6-1.6-1.9
		C243,38.5,242.8,38.6,242.8,38.7 M242.1,36.9v-3.4c0-0.1-0.1-0.2-0.2-0.2c-1,0.2-1.7,0.9-1.7,1.9c0,1.1,0.7,1.5,1.6,1.9
		C242,37.1,242.1,37,242.1,36.9 M242.1,44.5v-0.9c0-0.1-0.1-0.2-0.2-0.2c-1.1-0.2-2.3-0.8-2.8-2.3c0-0.1,0-0.2,0.1-0.2l0.6-0.3
		c0.1-0.1,0.2,0,0.3,0.1c0.3,1,1,1.5,1.8,1.7c0.1,0,0.2-0.1,0.2-0.2v-3.8c0-0.1-0.1-0.2-0.1-0.2c-1.4-0.5-2.8-1.2-2.8-3
		c0-1.7,1.2-2.7,2.7-2.9c0.1,0,0.2-0.1,0.2-0.2v-0.9c0-0.1,0.1-0.2,0.2-0.2h0.2c0.2,0,0.3,0.1,0.3,0.3v0.8c0,0.1,0.1,0.2,0.2,0.2
		c1.3,0.2,2.3,0.9,2.8,2.3c0,0.1,0,0.2-0.1,0.2l-0.6,0.2c-0.1,0-0.2,0-0.3-0.1c-0.3-1-1-1.5-1.8-1.6c-0.1,0-0.2,0.1-0.2,0.2v3.8
		c0,0.1,0.1,0.2,0.1,0.2c1.5,0.5,2.8,1.2,2.8,3c0,1.8-1.2,2.8-2.7,3c-0.1,0-0.2,0.1-0.2,0.2v0.9c0,0.1-0.1,0.2-0.2,0.2h-0.4
		C242.2,44.7,242.1,44.6,242.1,44.5"/>
	<path class="st2" d="M242.8,38.7v3.4c0,0.1,0.1,0.2,0.2,0.2c1-0.2,1.7-0.8,1.7-1.9c0-1.1-0.8-1.6-1.6-1.9
		C243,38.5,242.8,38.6,242.8,38.7 M242.1,36.9v-3.4c0-0.1-0.1-0.2-0.2-0.2c-1,0.2-1.7,0.9-1.7,1.9c0,1.1,0.7,1.5,1.6,1.9
		C242,37.1,242.1,37,242.1,36.9 M242.1,44.5v-0.9c0-0.1-0.1-0.2-0.2-0.2c-1.1-0.2-2.3-0.8-2.8-2.3c0-0.1,0-0.2,0.1-0.2l0.6-0.3
		c0.1-0.1,0.2,0,0.3,0.1c0.3,1,1,1.5,1.8,1.7c0.1,0,0.2-0.1,0.2-0.2v-3.8c0-0.1-0.1-0.2-0.1-0.2c-1.4-0.5-2.8-1.2-2.8-3
		c0-1.7,1.2-2.7,2.7-2.9c0.1,0,0.2-0.1,0.2-0.2v-0.9c0-0.1,0.1-0.2,0.2-0.2h0.2c0.2,0,0.3,0.1,0.3,0.3v0.8c0,0.1,0.1,0.2,0.2,0.2
		c1.3,0.2,2.3,0.9,2.8,2.3c0,0.1,0,0.2-0.1,0.2l-0.6,0.2c-0.1,0-0.2,0-0.3-0.1c-0.3-1-1-1.5-1.8-1.6c-0.1,0-0.2,0.1-0.2,0.2v3.8
		c0,0.1,0.1,0.2,0.1,0.2c1.5,0.5,2.8,1.2,2.8,3c0,1.8-1.2,2.8-2.7,3c-0.1,0-0.2,0.1-0.2,0.2v0.9c0,0.1-0.1,0.2-0.2,0.2h-0.4
		C242.2,44.7,242.1,44.6,242.1,44.5"/>
</g>
</svg>
