<?xml version="1.0" encoding="utf-8"?>
<!-- Generator: Adobe Illustrator 20.1.0, SVG Export Plug-In . SVG Version: 6.00 Build 0)  -->
<svg version="1.1" id="Layer_1" xmlns="http://www.w3.org/2000/svg" xmlns:xlink="http://www.w3.org/1999/xlink" x="0px" y="0px"
	 viewBox="0 0 284.4 213.8" style="enable-background:new 0 0 284.4 213.8;" xml:space="preserve">
<style type="text/css">
	.st0{fill:#F5F3F1;}
	.st1{clip-path:url(#SVGID_2_);fill:#231F20;}
	.st2{fill:none;stroke:#FA4616;stroke-width:4.56;stroke-linecap:round;stroke-miterlimit:10;}
	.st3{fill:none;stroke:#51B848;stroke-width:4.56;stroke-linecap:round;stroke-miterlimit:10;}
	.st4{fill:none;stroke:#3E3935;stroke-width:3.04;stroke-miterlimit:10;}
	.st5{clip-path:url(#SVGID_4_);fill:#3E3935;}
</style>
<g>
	<rect class="st0" width="284.4" height="213.8"/>
	<g>
		<defs>
			<rect id="SVGID_1_" width="284.4" height="213.8"/>
		</defs>
		<clipPath id="SVGID_2_">
			<use xlink:href="#SVGID_1_"  style="overflow:visible;"/>
		</clipPath>
		<path class="st1" d="M218,105.6h-0.9v0.9h0.9V105.6z M215.8,103.7c0-0.3,0-0.6-0.1-0.8c0-0.2-0.1-0.3-0.2-0.5
			c-0.1-0.1-0.3-0.3-0.5-0.4c-0.2-0.1-0.4-0.1-0.7-0.1c-0.6,0-1.1,0.2-1.5,0.7V102h-1.1v4.4h1.2v-2c0-0.5,0-0.8,0.1-1
			c0.1-0.2,0.2-0.3,0.3-0.4c0.2-0.1,0.3-0.2,0.5-0.2c0.2,0,0.3,0,0.4,0.1c0.1,0.1,0.2,0.2,0.2,0.3s0.1,0.4,0.1,0.9v2.2h1.2V103.7z
			 M210.6,102h-1.2v4.4h1.2V102z M210.6,100.4h-1.2v1.1h1.2V100.4z M205.5,103.2c0.2-0.2,0.4-0.3,0.7-0.3c0.3,0,0.5,0.1,0.7,0.3
			c0.2,0.2,0.3,0.6,0.3,1c0,0.4-0.1,0.8-0.3,1c-0.2,0.2-0.4,0.3-0.7,0.3c-0.3,0-0.5-0.1-0.7-0.3c-0.2-0.2-0.3-0.6-0.3-1
			C205.2,103.7,205.3,103.4,205.5,103.2 M204.2,106.9c0,0.4,0.2,0.7,0.5,1c0.3,0.3,0.8,0.4,1.6,0.4c0.4,0,0.7,0,1-0.1
			s0.5-0.2,0.6-0.3c0.2-0.1,0.3-0.3,0.4-0.6c0.1-0.3,0.1-0.6,0.1-1.2v-4h-1.1v0.6c-0.4-0.5-0.8-0.7-1.3-0.7c-0.5,0-1,0.2-1.3,0.6
			c-0.4,0.4-0.5,1-0.5,1.7c0,0.6,0.1,1.1,0.4,1.5c0.3,0.5,0.8,0.8,1.4,0.8c0.5,0,1-0.2,1.3-0.7v0.6c0,0.3,0,0.4-0.1,0.5
			c-0.1,0.1-0.1,0.2-0.2,0.3c-0.2,0.1-0.4,0.1-0.7,0.1c-0.2,0-0.4,0-0.5-0.1c-0.1-0.1-0.1-0.2-0.2-0.3l-1.3-0.2
			C204.2,106.8,204.2,106.8,204.2,106.9 M200.3,103.2c0.2-0.2,0.5-0.3,0.8-0.3c0.3,0,0.6,0.1,0.8,0.3c0.2,0.2,0.3,0.6,0.3,1
			c0,0.4-0.1,0.8-0.3,1c-0.2,0.2-0.5,0.3-0.8,0.3c-0.3,0-0.6-0.1-0.8-0.3c-0.2-0.2-0.3-0.6-0.3-1C200,103.8,200.1,103.5,200.3,103.2
			 M199.1,105.5c0.2,0.4,0.5,0.6,0.8,0.8c0.4,0.2,0.8,0.3,1.2,0.3c0.7,0,1.2-0.2,1.6-0.7c0.4-0.4,0.6-1,0.6-1.7
			c0-0.7-0.2-1.2-0.6-1.6c-0.4-0.4-1-0.6-1.6-0.6c-0.4,0-0.8,0.1-1.2,0.3c-0.3,0.2-0.6,0.5-0.8,0.8c-0.2,0.4-0.3,0.7-0.3,1.1
			C198.8,104.7,198.9,105.1,199.1,105.5 M197.9,100.4h-1.2v6.1h1.2V100.4z M194.6,106.6l1.5-6.3h-0.9l-1.5,6.3H194.6z M186.7,106.4
			h1.2v-2.1c0-0.4,0-0.7,0.1-0.9c0.1-0.2,0.2-0.3,0.3-0.4c0.1-0.1,0.3-0.1,0.5-0.1c0.1,0,0.3,0,0.4,0.1c0.1,0.1,0.2,0.2,0.2,0.3
			c0,0.1,0.1,0.4,0.1,0.8v2.4h1.2v-2.1c0-0.4,0-0.7,0.1-0.9c0.1-0.2,0.2-0.3,0.3-0.4c0.1-0.1,0.3-0.1,0.5-0.1c0.2,0,0.4,0.1,0.5,0.2
			c0.1,0.1,0.1,0.4,0.1,0.8v2.5h1.2v-2.8c0-0.4,0-0.7-0.1-0.9c-0.1-0.3-0.3-0.4-0.5-0.6c-0.2-0.1-0.5-0.2-0.8-0.2
			c-0.3,0-0.5,0.1-0.7,0.2c-0.2,0.1-0.4,0.3-0.6,0.5c-0.1-0.2-0.3-0.4-0.5-0.5c-0.2-0.1-0.5-0.2-0.7-0.2c-0.5,0-1,0.2-1.4,0.7V102
			h-1.1V106.4z M182.8,103.2c0.2-0.2,0.5-0.3,0.8-0.3c0.3,0,0.6,0.1,0.8,0.3c0.2,0.2,0.3,0.6,0.3,1c0,0.4-0.1,0.8-0.3,1
			c-0.2,0.2-0.5,0.3-0.8,0.3c-0.3,0-0.6-0.1-0.8-0.3c-0.2-0.2-0.3-0.6-0.3-1C182.5,103.8,182.6,103.5,182.8,103.2 M181.6,105.5
			c0.2,0.4,0.5,0.6,0.8,0.8c0.4,0.2,0.8,0.3,1.2,0.3c0.7,0,1.2-0.2,1.6-0.7c0.4-0.4,0.6-1,0.6-1.7c0-0.7-0.2-1.2-0.6-1.6
			c-0.4-0.4-1-0.6-1.6-0.6c-0.4,0-0.8,0.1-1.2,0.3c-0.4,0.2-0.6,0.5-0.8,0.8c-0.2,0.4-0.3,0.7-0.3,1.1
			C181.3,104.7,181.4,105.1,181.6,105.5 M180,102.3c-0.3-0.2-0.7-0.3-1.3-0.3c-0.7,0-1.2,0.2-1.6,0.6c-0.4,0.4-0.6,1-0.6,1.7
			c0,0.7,0.2,1.3,0.6,1.7c0.4,0.4,0.9,0.6,1.5,0.6c0.6,0,1-0.1,1.4-0.4c0.3-0.3,0.6-0.7,0.7-1.2l-1.1-0.2c-0.1,0.3-0.2,0.5-0.3,0.6
			c-0.1,0.1-0.3,0.2-0.5,0.2c-0.3,0-0.5-0.1-0.7-0.3c-0.2-0.2-0.3-0.6-0.3-1.1c0-0.5,0.1-0.8,0.3-1c0.2-0.2,0.4-0.3,0.7-0.3
			c0.2,0,0.4,0.1,0.5,0.2c0.1,0.1,0.2,0.3,0.3,0.5l1.1-0.2C180.6,102.9,180.4,102.5,180,102.3 M175.7,105.3h-1.2v1.2h1.2V105.3z
			 M170.6,103.2c0.2-0.2,0.5-0.3,0.8-0.3c0.3,0,0.6,0.1,0.8,0.3c0.2,0.2,0.3,0.6,0.3,1c0,0.4-0.1,0.8-0.3,1
			c-0.2,0.2-0.5,0.3-0.8,0.3c-0.3,0-0.6-0.1-0.8-0.3c-0.2-0.2-0.3-0.6-0.3-1C170.2,103.8,170.4,103.5,170.6,103.2 M169.3,105.5
			c0.2,0.4,0.5,0.6,0.8,0.8c0.4,0.2,0.8,0.3,1.2,0.3c0.7,0,1.2-0.2,1.6-0.7c0.4-0.4,0.6-1,0.6-1.7c0-0.7-0.2-1.2-0.6-1.6
			c-0.4-0.4-1-0.6-1.6-0.6c-0.4,0-0.8,0.1-1.2,0.3c-0.4,0.2-0.6,0.5-0.8,0.8c-0.2,0.4-0.3,0.7-0.3,1.1
			C169.1,104.7,169.1,105.1,169.3,105.5 M167.1,105.1c0-0.8,0-1.2,0.1-1.5s0.2-0.4,0.3-0.5c0.1-0.1,0.3-0.1,0.4-0.1
			c0.2,0,0.4,0.1,0.5,0.2l0.4-1c-0.2-0.1-0.5-0.2-0.8-0.2c-0.2,0-0.4,0-0.5,0.1s-0.3,0.3-0.5,0.6V102H166v4.4h1.2V105.1z M162,103.2
			c0.2-0.2,0.4-0.3,0.7-0.3c0.3,0,0.5,0.1,0.7,0.3s0.3,0.6,0.3,1.1c0,0.5-0.1,0.8-0.3,1c-0.2,0.2-0.4,0.3-0.7,0.3
			c-0.3,0-0.6-0.2-0.8-0.5c-0.1-0.2-0.2-0.6-0.2-1C161.8,103.7,161.8,103.4,162,103.2 M164.9,100.4h-1.2v2.2
			c-0.4-0.4-0.8-0.6-1.3-0.6c-0.5,0-1,0.2-1.3,0.6c-0.4,0.4-0.5,1-0.5,1.7c0,0.7,0.2,1.3,0.5,1.7c0.4,0.4,0.8,0.6,1.3,0.6
			c0.2,0,0.5-0.1,0.7-0.2c0.2-0.1,0.5-0.3,0.6-0.6v0.6h1.1V100.4z M157.2,106.5c-0.1,0.2-0.2,0.4-0.3,0.6c-0.1,0.2-0.3,0.2-0.6,0.2
			c-0.1,0-0.3,0-0.5-0.1l0.1,0.9c0.2,0,0.4,0.1,0.7,0.1c0.2,0,0.4,0,0.6-0.1c0.2,0,0.3-0.1,0.4-0.2c0.1-0.1,0.2-0.2,0.3-0.3
			c0.1-0.1,0.2-0.3,0.3-0.6l0.3-0.8l1.6-4.2h-1.2l-1,3.1l-1.1-3.1h-1.2L157.2,106.5z M150.9,100.4v6.1h1.2v-2.2c0-0.4,0-0.7,0.1-0.8
			c0.1-0.2,0.2-0.3,0.3-0.4c0.2-0.1,0.3-0.1,0.5-0.1c0.2,0,0.3,0,0.4,0.1s0.2,0.2,0.2,0.3c0,0.1,0.1,0.4,0.1,0.9v2.3h1.2v-2.6
			c0-0.4,0-0.7-0.1-0.9c0-0.2-0.1-0.4-0.2-0.5c-0.1-0.2-0.3-0.3-0.5-0.4c-0.2-0.1-0.5-0.1-0.7-0.1c-0.5,0-1,0.2-1.3,0.7v-2.2H150.9z
			 M149.3,102.3c-0.3-0.2-0.7-0.3-1.3-0.3c-0.7,0-1.2,0.2-1.6,0.6c-0.4,0.4-0.6,1-0.6,1.7c0,0.7,0.2,1.3,0.6,1.7
			c0.4,0.4,0.9,0.6,1.5,0.6c0.6,0,1-0.1,1.4-0.4c0.3-0.3,0.6-0.7,0.7-1.2l-1.1-0.2c-0.1,0.3-0.2,0.5-0.3,0.6
			c-0.1,0.1-0.3,0.2-0.5,0.2c-0.3,0-0.5-0.1-0.7-0.3c-0.2-0.2-0.3-0.6-0.3-1.1c0-0.5,0.1-0.8,0.3-1c0.2-0.2,0.4-0.3,0.7-0.3
			c0.2,0,0.4,0.1,0.5,0.2c0.1,0.1,0.2,0.3,0.3,0.5l1.1-0.2C149.9,102.9,149.7,102.5,149.3,102.3 M142.4,103.2
			c0.2-0.2,0.4-0.3,0.7-0.3c0.3,0,0.5,0.1,0.7,0.3c0.2,0.2,0.3,0.6,0.3,1.1c0,0.5-0.1,0.8-0.3,1c-0.2,0.2-0.4,0.3-0.7,0.3
			c-0.3,0-0.6-0.2-0.8-0.5c-0.1-0.2-0.2-0.6-0.2-1C142.1,103.7,142.2,103.4,142.4,103.2 M142,106.4v-0.6c0.2,0.2,0.4,0.4,0.6,0.6
			s0.5,0.2,0.7,0.2c0.5,0,0.9-0.2,1.3-0.6c0.4-0.4,0.5-1,0.5-1.7c0-0.7-0.2-1.3-0.5-1.7c-0.4-0.4-0.8-0.6-1.3-0.6
			c-0.5,0-0.9,0.2-1.3,0.6v-2.2h-1.2v6.1H142z M137.5,105.8c-0.1,0-0.2,0-0.3-0.1c-0.1,0-0.1-0.1-0.1-0.1c0-0.1,0-0.2,0-0.4v-2.6
			h0.8V102h-0.8v-1.5l-0.7,0.4v1.1h-0.5v0.6h0.5v2.5c0,0.4,0,0.7,0.1,0.9c0.1,0.1,0.2,0.3,0.3,0.3c0.1,0.1,0.4,0.1,0.6,0.1
			c0.2,0,0.4,0,0.6-0.1l-0.1-0.7C137.7,105.8,137.6,105.8,137.5,105.8 M134.3,104.5c0,0.3,0,0.6-0.1,0.7c-0.1,0.2-0.3,0.4-0.5,0.5
			c-0.2,0.1-0.5,0.2-0.8,0.2c-0.3,0-0.5-0.1-0.7-0.2c-0.2-0.1-0.2-0.3-0.2-0.5c0-0.1,0-0.2,0.1-0.4c0.1-0.1,0.2-0.2,0.3-0.2
			c0.1-0.1,0.3-0.1,0.7-0.1c0.5-0.1,0.9-0.2,1.2-0.3V104.5z M134.5,106.4h0.8c-0.1-0.2-0.2-0.3-0.2-0.5c0-0.2,0-0.6,0-1.3v-1
			c0-0.3,0-0.6,0-0.7c0-0.2-0.1-0.4-0.2-0.5c-0.1-0.1-0.3-0.2-0.5-0.3c-0.2-0.1-0.5-0.1-0.9-0.1c-0.4,0-0.7,0.1-1,0.2
			c-0.3,0.1-0.5,0.3-0.7,0.4c-0.2,0.2-0.3,0.4-0.3,0.8l0.7,0.1c0.1-0.3,0.2-0.5,0.4-0.7c0.2-0.1,0.4-0.2,0.8-0.2
			c0.4,0,0.7,0.1,0.9,0.3c0.1,0.1,0.2,0.3,0.2,0.6c0,0,0,0.1,0,0.2c-0.3,0.1-0.7,0.2-1.3,0.3c-0.3,0-0.5,0.1-0.7,0.1
			c-0.2,0.1-0.4,0.1-0.5,0.2c-0.2,0.1-0.3,0.3-0.4,0.4c-0.1,0.2-0.1,0.4-0.1,0.6c0,0.4,0.1,0.7,0.4,0.9c0.3,0.2,0.6,0.4,1.1,0.4
			c0.3,0,0.6,0,0.8-0.1c0.3-0.1,0.5-0.3,0.8-0.5C134.4,106.1,134.4,106.3,134.5,106.4 M125.1,106.4V104c0-0.6,0.1-0.9,0.3-1.2
			c0.2-0.2,0.5-0.3,0.8-0.3c0.2,0,0.4,0,0.5,0.1c0.1,0.1,0.3,0.2,0.3,0.4c0.1,0.2,0.1,0.4,0.1,0.7v2.7h0.7v-2.7c0-0.3,0-0.6,0-0.7
			c0-0.2-0.1-0.4-0.2-0.6c-0.1-0.2-0.3-0.3-0.5-0.4c-0.2-0.1-0.5-0.1-0.7-0.1c-0.6,0-1.1,0.2-1.4,0.7V102h-0.7v4.4H125.1z
			 M123.3,102h-0.7v4.4h0.7V102z M123.3,100.4h-0.7v0.9h0.7V100.4z M116.2,103c0.2-0.3,0.5-0.4,0.8-0.4c0.3,0,0.6,0.1,0.9,0.4
			c0.2,0.3,0.4,0.7,0.4,1.2c0,0.6-0.1,1-0.3,1.2c-0.2,0.3-0.5,0.4-0.9,0.4c-0.3,0-0.6-0.1-0.9-0.4c-0.2-0.3-0.3-0.7-0.3-1.3
			C115.9,103.6,116,103.2,116.2,103 M115.7,107.9c0.3,0.2,0.7,0.4,1.3,0.4c0.4,0,0.8-0.1,1.1-0.2c0.3-0.2,0.5-0.4,0.7-0.7
			c0.1-0.3,0.2-0.8,0.2-1.5V102h-0.7v0.5c-0.3-0.4-0.8-0.6-1.3-0.6c-0.4,0-0.7,0.1-1,0.3c-0.3,0.2-0.5,0.5-0.7,0.8
			c-0.2,0.4-0.2,0.7-0.2,1.2c0,0.6,0.2,1.1,0.5,1.6c0.3,0.4,0.8,0.7,1.4,0.7c0.5,0,0.9-0.2,1.2-0.6c0,0.5,0,0.8-0.1,1
			c-0.1,0.2-0.2,0.4-0.4,0.6c-0.2,0.1-0.5,0.2-0.8,0.2c-0.3,0-0.6-0.1-0.8-0.2c-0.1-0.1-0.2-0.3-0.3-0.5l-0.7-0.1
			C115.3,107.3,115.4,107.6,115.7,107.9 M111.5,103c0.2-0.3,0.6-0.4,0.9-0.4c0.4,0,0.7,0.1,0.9,0.4c0.2,0.3,0.4,0.7,0.4,1.2
			c0,0.6-0.1,1-0.4,1.3c-0.2,0.3-0.6,0.4-0.9,0.4c-0.4,0-0.7-0.1-0.9-0.4s-0.4-0.7-0.4-1.3C111.2,103.7,111.3,103.3,111.5,103
			 M111,106c0.4,0.4,0.9,0.6,1.5,0.6c0.4,0,0.7-0.1,1.1-0.3c0.3-0.2,0.6-0.4,0.7-0.8c0.2-0.3,0.3-0.8,0.3-1.3c0-0.7-0.2-1.2-0.6-1.6
			c-0.4-0.4-0.9-0.6-1.5-0.6c-0.5,0-1,0.2-1.4,0.5c-0.5,0.4-0.7,1-0.7,1.8C110.4,105,110.6,105.6,111,106 M109.8,106.4v-0.7h-3v-5.4
			H106v6.1H109.8z M102.3,105.6h-0.9v0.9h0.9V105.6z M99.3,104.2c0.1,0.2,0.2,0.4,0.2,0.8c0,0.4-0.1,0.7-0.2,0.9
			c-0.1,0.2-0.3,0.2-0.5,0.2c-0.2,0-0.3-0.1-0.5-0.2c-0.1-0.2-0.2-0.4-0.2-0.8c0-0.4,0.1-0.7,0.2-0.9c0.1-0.2,0.3-0.2,0.5-0.2
			C99,104,99.2,104.1,99.3,104.2 M97.9,106.3c0.2,0.3,0.6,0.4,0.9,0.4c0.4,0,0.7-0.1,0.9-0.4c0.3-0.3,0.4-0.7,0.4-1.2
			c0-0.5-0.1-0.9-0.4-1.2c-0.3-0.3-0.6-0.4-0.9-0.4c-0.4,0-0.7,0.2-1,0.5c-0.2,0.3-0.3,0.7-0.3,1.1C97.6,105.6,97.7,106,97.9,106.3
			 M95.5,106.7l3.3-6.4h-0.6l-3.3,6.4H95.5z M95.4,101c0.1,0.2,0.2,0.4,0.2,0.8c0,0.4-0.1,0.7-0.2,0.9c-0.1,0.2-0.3,0.2-0.5,0.2
			c-0.2,0-0.3-0.1-0.5-0.2c-0.1-0.2-0.2-0.4-0.2-0.8c0-0.4,0.1-0.7,0.2-0.9c0.1-0.2,0.3-0.2,0.5-0.2C95.1,100.8,95.3,100.9,95.4,101
			 M94,103.1c0.2,0.3,0.6,0.4,0.9,0.4c0.4,0,0.7-0.1,0.9-0.4c0.3-0.3,0.4-0.7,0.4-1.2c0-0.5-0.1-0.9-0.4-1.2
			c-0.2-0.3-0.6-0.4-0.9-0.4c-0.4,0-0.7,0.2-1,0.5c-0.2,0.3-0.3,0.7-0.3,1.1C93.6,102.4,93.7,102.8,94,103.1 M89.9,101.4
			c0.2-0.3,0.5-0.4,0.8-0.4c0.3,0,0.6,0.2,0.9,0.5c0.2,0.3,0.4,1,0.4,2c0,1-0.1,1.7-0.4,2s-0.5,0.5-0.9,0.5s-0.6-0.2-0.9-0.5
			c-0.2-0.3-0.4-1-0.4-2S89.6,101.8,89.9,101.4 M89.3,105.9c0.3,0.4,0.8,0.6,1.4,0.6c0.4,0,0.8-0.1,1.1-0.4c0.3-0.2,0.5-0.6,0.7-1
			c0.1-0.4,0.2-1,0.2-1.7c0-0.6,0-1.1-0.1-1.4c-0.1-0.4-0.2-0.7-0.4-0.9c-0.2-0.2-0.4-0.4-0.6-0.6c-0.2-0.1-0.5-0.2-0.9-0.2
			c-0.4,0-0.8,0.1-1.1,0.4s-0.5,0.6-0.7,1c-0.1,0.4-0.2,1-0.2,1.7C88.7,104.6,88.9,105.4,89.3,105.9 M86.9,103.4
			c-0.2,0.2-0.5,0.4-0.9,0.4c-0.3,0-0.6-0.1-0.9-0.4c-0.2-0.2-0.4-0.6-0.4-0.9c0-0.4,0.1-0.8,0.4-1.1c0.2-0.3,0.5-0.4,0.9-0.4
			c0.3,0,0.6,0.1,0.8,0.4c0.2,0.3,0.3,0.6,0.3,1S87.1,103.1,86.9,103.4 M84.7,106.2c0.3,0.3,0.7,0.4,1.2,0.4c0.4,0,0.8-0.1,1.2-0.4
			c0.3-0.2,0.6-0.6,0.8-1.1c0.2-0.5,0.3-1.1,0.3-1.9c0-0.7-0.1-1.3-0.3-1.7c-0.2-0.4-0.4-0.7-0.7-0.9c-0.3-0.2-0.7-0.3-1.1-0.3
			c-0.5,0-1,0.2-1.4,0.6s-0.5,0.9-0.5,1.5c0,0.6,0.2,1.1,0.5,1.4c0.3,0.4,0.8,0.5,1.3,0.5c0.3,0,0.6-0.1,0.8-0.2
			c0.3-0.1,0.5-0.3,0.6-0.6c0,0.1,0,0.1,0,0.2c0,0.3,0,0.6-0.1,0.9c-0.1,0.3-0.2,0.5-0.3,0.7c-0.1,0.2-0.3,0.3-0.4,0.4
			c-0.2,0.1-0.4,0.2-0.6,0.2c-0.3,0-0.5-0.1-0.7-0.2c-0.2-0.2-0.3-0.4-0.3-0.7l-0.7,0.1C84.2,105.5,84.4,105.9,84.7,106.2
			 M77.3,106.4l0.9-3.4l0.2,0.8l0.7,2.6h0.8l1.4-4.4h-0.7l-0.8,2.5l-0.3,0.8l-0.2-0.8l-0.7-2.6h-0.8l-0.7,2.6
			c-0.1,0.6-0.2,0.9-0.2,0.9l-0.3-0.9L76,102h-0.8l1.3,4.4H77.3z M71.9,103c0.2-0.3,0.6-0.4,0.9-0.4c0.4,0,0.7,0.1,0.9,0.4
			c0.2,0.3,0.4,0.7,0.4,1.2c0,0.6-0.1,1-0.4,1.3s-0.6,0.4-0.9,0.4c-0.4,0-0.7-0.1-0.9-0.4c-0.2-0.3-0.4-0.7-0.4-1.3
			C71.5,103.7,71.6,103.3,71.9,103 M71.3,106c0.4,0.4,0.9,0.6,1.5,0.6c0.4,0,0.7-0.1,1.1-0.3s0.6-0.4,0.7-0.8
			c0.2-0.3,0.3-0.8,0.3-1.3c0-0.7-0.2-1.2-0.6-1.6c-0.4-0.4-0.9-0.6-1.5-0.6c-0.5,0-1,0.2-1.4,0.5c-0.5,0.4-0.7,1-0.7,1.8
			C70.7,105,70.9,105.6,71.3,106 M69.8,100.4h-0.7v6.1h0.7V100.4z M65.3,102.9c0.2-0.2,0.5-0.3,0.9-0.3c0.4,0,0.7,0.1,0.9,0.4
			c0.2,0.2,0.2,0.5,0.3,0.8h-2.5C65,103.4,65.1,103.1,65.3,102.9 M66.9,105.7c-0.2,0.1-0.4,0.2-0.7,0.2c-0.4,0-0.7-0.1-0.9-0.4
			c-0.2-0.3-0.4-0.6-0.4-1.1h3.3c0-0.1,0-0.2,0-0.2c0-0.7-0.2-1.3-0.6-1.7c-0.4-0.4-0.9-0.6-1.4-0.6c-0.6,0-1.1,0.2-1.5,0.6
			c-0.4,0.4-0.6,1-0.6,1.7c0,0.7,0.2,1.3,0.6,1.7c0.4,0.4,0.9,0.6,1.5,0.6c0.5,0,0.9-0.1,1.3-0.4c0.3-0.2,0.6-0.6,0.7-1.1l-0.8-0.1
			C67.3,105.3,67.1,105.6,66.9,105.7 M60.7,103c0.2-0.3,0.5-0.4,0.8-0.4c0.3,0,0.6,0.1,0.8,0.4s0.3,0.7,0.3,1.3c0,0.6-0.1,1-0.4,1.3
			c-0.2,0.3-0.5,0.4-0.8,0.4c-0.4,0-0.7-0.2-1-0.6c-0.1-0.2-0.2-0.6-0.2-1.1C60.3,103.7,60.5,103.3,60.7,103 M60.3,105.9
			c0.3,0.4,0.7,0.7,1.2,0.7c0.5,0,1-0.2,1.3-0.6c0.4-0.4,0.6-1,0.6-1.8c0-0.3,0-0.6-0.1-0.9c-0.1-0.3-0.2-0.5-0.4-0.7
			c-0.2-0.2-0.4-0.4-0.6-0.5c-0.2-0.1-0.5-0.2-0.8-0.2c-0.5,0-0.9,0.2-1.2,0.6v-2.2h-0.7v6.1h0.7V105.9z M53.3,106.2
			c0.3,0.2,0.7,0.4,1.3,0.4c0.3,0,0.7-0.1,0.9-0.2c0.3-0.1,0.5-0.3,0.6-0.5s0.2-0.5,0.2-0.7c0-0.3-0.1-0.5-0.2-0.6
			c-0.1-0.2-0.3-0.3-0.5-0.4s-0.6-0.2-1.1-0.3c-0.4-0.1-0.6-0.2-0.7-0.2c-0.1-0.1-0.2-0.1-0.3-0.2c-0.1-0.1-0.1-0.2-0.1-0.3
			c0-0.2,0.1-0.3,0.2-0.4c0.1-0.1,0.4-0.2,0.7-0.2c0.3,0,0.5,0.1,0.7,0.2s0.3,0.3,0.3,0.5l0.7-0.1c0-0.3-0.1-0.5-0.3-0.7
			c-0.1-0.2-0.3-0.3-0.6-0.4c-0.3-0.1-0.6-0.1-0.9-0.1c-0.2,0-0.4,0-0.6,0.1c-0.2,0.1-0.4,0.1-0.5,0.2c-0.2,0.1-0.3,0.2-0.4,0.4
			s-0.1,0.3-0.1,0.5c0,0.2,0.1,0.4,0.2,0.6c0.1,0.2,0.3,0.3,0.5,0.4c0.2,0.1,0.6,0.2,1.1,0.4c0.4,0.1,0.7,0.2,0.8,0.3
			c0.1,0.1,0.2,0.2,0.2,0.4c0,0.2-0.1,0.4-0.2,0.5s-0.4,0.2-0.8,0.2c-0.3,0-0.6-0.1-0.8-0.2c-0.2-0.2-0.3-0.4-0.3-0.7l-0.7,0.1
			C52.8,105.6,53,106,53.3,106.2 M51.9,100.4h-0.7v6.1h0.7V100.4z M50,100.4h-0.7v6.1H50V100.4z M47.4,104.5c0,0.3,0,0.6-0.1,0.7
			c-0.1,0.2-0.3,0.4-0.5,0.5c-0.2,0.1-0.5,0.2-0.8,0.2c-0.3,0-0.5-0.1-0.7-0.2c-0.2-0.1-0.2-0.3-0.2-0.5c0-0.1,0-0.2,0.1-0.4
			c0.1-0.1,0.2-0.2,0.3-0.2c0.1-0.1,0.3-0.1,0.7-0.1c0.5-0.1,0.9-0.2,1.2-0.3V104.5z M47.6,106.4h0.8c-0.1-0.2-0.2-0.3-0.2-0.5
			c0-0.2,0-0.6,0-1.3v-1c0-0.3,0-0.6,0-0.7c0-0.2-0.1-0.4-0.2-0.5c-0.1-0.1-0.3-0.2-0.5-0.3c-0.2-0.1-0.5-0.1-0.9-0.1
			c-0.4,0-0.7,0.1-1,0.2c-0.3,0.1-0.5,0.3-0.7,0.4c-0.2,0.2-0.3,0.4-0.3,0.8l0.7,0.1c0.1-0.3,0.2-0.5,0.4-0.7
			c0.2-0.1,0.4-0.2,0.8-0.2c0.4,0,0.7,0.1,0.9,0.3c0.1,0.1,0.2,0.3,0.2,0.6c0,0,0,0.1,0,0.2c-0.3,0.1-0.7,0.2-1.3,0.3
			c-0.3,0-0.5,0.1-0.7,0.1c-0.2,0.1-0.4,0.1-0.5,0.2c-0.2,0.1-0.3,0.3-0.4,0.4c-0.1,0.2-0.1,0.4-0.1,0.6c0,0.4,0.1,0.7,0.4,0.9
			c0.3,0.2,0.6,0.4,1.1,0.4c0.3,0,0.6,0,0.8-0.1c0.3-0.1,0.5-0.3,0.8-0.5C47.4,106.1,47.5,106.3,47.6,106.4 M43.1,106.4v-3.8H44V102
			h-0.9v-0.4c0-0.3,0-0.4,0.1-0.5c0.1-0.1,0.3-0.1,0.5-0.1c0.1,0,0.3,0,0.4,0l0.1-0.7c-0.3,0-0.5-0.1-0.7-0.1
			c-0.3,0-0.6,0.1-0.8,0.2c-0.2,0.1-0.3,0.3-0.4,0.5c-0.1,0.1-0.1,0.4-0.1,0.7v0.5h-0.7v0.6h0.7v3.8H43.1z M37.7,106.4v-2.3
			c0-0.3,0-0.6,0.1-0.9c0.1-0.2,0.1-0.3,0.3-0.4s0.3-0.1,0.4-0.1c0.2,0,0.4,0.1,0.5,0.2l0.3-0.7c-0.3-0.2-0.5-0.2-0.8-0.2
			c-0.2,0-0.3,0-0.5,0.1c-0.1,0.1-0.3,0.3-0.5,0.6V102H37v4.4H37.7z M33.1,103c0.2-0.3,0.6-0.4,0.9-0.4c0.4,0,0.7,0.1,0.9,0.4
			c0.2,0.3,0.4,0.7,0.4,1.2c0,0.6-0.1,1-0.4,1.3c-0.2,0.3-0.6,0.4-0.9,0.4c-0.4,0-0.7-0.1-0.9-0.4c-0.2-0.3-0.4-0.7-0.4-1.3
			C32.8,103.7,32.9,103.3,33.1,103 M32.6,106c0.4,0.4,0.9,0.6,1.5,0.6c0.4,0,0.7-0.1,1.1-0.3c0.3-0.2,0.6-0.4,0.7-0.8
			c0.2-0.3,0.3-0.8,0.3-1.3c0-0.7-0.2-1.2-0.6-1.6c-0.4-0.4-0.9-0.6-1.5-0.6c-0.5,0-1,0.2-1.4,0.5c-0.5,0.4-0.7,1-0.7,1.8
			C32,105,32.2,105.6,32.6,106 M31.2,105.8c-0.1,0-0.2,0-0.3-0.1c-0.1,0-0.1-0.1-0.1-0.1c0-0.1,0-0.2,0-0.4v-2.6h0.8V102h-0.8v-1.5
			L30,101v1.1h-0.5v0.6H30v2.5c0,0.4,0,0.7,0.1,0.9c0.1,0.1,0.2,0.3,0.3,0.3c0.1,0.1,0.4,0.1,0.6,0.1c0.2,0,0.4,0,0.6-0.1l-0.1-0.7
			C31.4,105.8,31.3,105.8,31.2,105.8 M28.2,105.7c-0.2,0.2-0.4,0.3-0.7,0.3c-0.4,0-0.7-0.1-0.9-0.4c-0.2-0.3-0.3-0.7-0.3-1.3
			c0-0.6,0.1-1,0.4-1.3c0.2-0.3,0.5-0.4,0.9-0.4c0.2,0,0.5,0.1,0.6,0.2c0.2,0.1,0.3,0.4,0.4,0.7l0.7-0.1c-0.1-0.4-0.3-0.8-0.6-1
			c-0.3-0.2-0.7-0.4-1.2-0.4c-0.4,0-0.7,0.1-1.1,0.3c-0.3,0.2-0.6,0.4-0.7,0.8c-0.2,0.4-0.2,0.8-0.2,1.2c0,0.7,0.2,1.3,0.5,1.7
			c0.4,0.4,0.9,0.6,1.5,0.6c0.5,0,0.9-0.1,1.2-0.4c0.3-0.3,0.5-0.7,0.6-1.2l-0.7-0.1C28.5,105.2,28.3,105.5,28.2,105.7 M23.7,104.5
			c0,0.3,0,0.6-0.1,0.7c-0.1,0.2-0.3,0.4-0.5,0.5c-0.2,0.1-0.5,0.2-0.8,0.2c-0.3,0-0.5-0.1-0.7-0.2c-0.2-0.1-0.2-0.3-0.2-0.5
			c0-0.1,0-0.2,0.1-0.4c0.1-0.1,0.2-0.2,0.3-0.2c0.1-0.1,0.3-0.1,0.7-0.1c0.5-0.1,0.9-0.2,1.2-0.3V104.5z M23.9,106.4h0.8
			c-0.1-0.2-0.2-0.3-0.2-0.5c0-0.2,0-0.6,0-1.3v-1c0-0.3,0-0.6,0-0.7c0-0.2-0.1-0.4-0.2-0.5c-0.1-0.1-0.3-0.2-0.5-0.3
			c-0.2-0.1-0.5-0.1-0.9-0.1c-0.4,0-0.7,0.1-1,0.2c-0.3,0.1-0.5,0.3-0.7,0.4c-0.2,0.2-0.3,0.4-0.3,0.8l0.7,0.1
			c0.1-0.3,0.2-0.5,0.4-0.7c0.2-0.1,0.4-0.2,0.8-0.2c0.4,0,0.7,0.1,0.9,0.3c0.1,0.1,0.2,0.3,0.2,0.6c0,0,0,0.1,0,0.2
			c-0.3,0.1-0.7,0.2-1.3,0.3c-0.3,0-0.5,0.1-0.7,0.1c-0.2,0.1-0.4,0.1-0.5,0.2c-0.2,0.1-0.3,0.3-0.4,0.4c-0.1,0.2-0.1,0.4-0.1,0.6
			c0,0.4,0.1,0.7,0.4,0.9c0.3,0.2,0.6,0.4,1.1,0.4c0.3,0,0.6,0,0.8-0.1c0.3-0.1,0.5-0.3,0.8-0.5C23.8,106.1,23.9,106.3,23.9,106.4
			 M19.5,106.4v-3.8h0.9V102h-0.9v-0.4c0-0.3,0-0.4,0.1-0.5s0.3-0.1,0.5-0.1c0.1,0,0.3,0,0.4,0l0.1-0.7c-0.3,0-0.5-0.1-0.7-0.1
			c-0.3,0-0.6,0.1-0.8,0.2c-0.2,0.1-0.3,0.3-0.4,0.5c-0.1,0.1-0.1,0.4-0.1,0.7v0.5h-0.7v0.6h0.7v3.8H19.5z"/>
		<path class="st1" d="M246.7,93.7v-2.3c0-0.3,0-0.6,0.1-0.9c0.1-0.2,0.1-0.3,0.3-0.4s0.3-0.1,0.4-0.1c0.2,0,0.4,0.1,0.5,0.2
			l0.3-0.7c-0.3-0.2-0.5-0.2-0.8-0.2c-0.2,0-0.3,0-0.5,0.1c-0.1,0.1-0.3,0.3-0.5,0.6v-0.7H246v4.4H246.7z M242.2,90.2
			c0.2-0.2,0.5-0.3,0.9-0.3c0.4,0,0.7,0.1,0.9,0.4c0.2,0.2,0.2,0.5,0.3,0.8h-2.5C241.9,90.7,242,90.4,242.2,90.2 M243.8,93
			c-0.2,0.1-0.4,0.2-0.7,0.2c-0.4,0-0.7-0.1-0.9-0.4c-0.2-0.3-0.4-0.6-0.4-1.1h3.3c0-0.1,0-0.2,0-0.2c0-0.7-0.2-1.3-0.6-1.7
			c-0.4-0.4-0.9-0.6-1.4-0.6c-0.6,0-1.1,0.2-1.5,0.6c-0.4,0.4-0.6,1-0.6,1.7c0,0.7,0.2,1.3,0.6,1.7c0.4,0.4,0.9,0.6,1.5,0.6
			c0.5,0,0.9-0.1,1.3-0.4c0.3-0.2,0.6-0.6,0.7-1.1l-0.8-0.1C244.2,92.6,244,92.8,243.8,93 M236.7,93.7l0.9-3.4l0.2,0.8l0.7,2.6h0.8
			l1.4-4.4h-0.7l-0.8,2.5l-0.3,0.8l-0.2-0.8l-0.7-2.6h-0.8l-0.7,2.6c-0.1,0.6-0.2,0.9-0.2,0.9l-0.3-0.9l-0.7-2.5h-0.8l1.3,4.4H236.7
			z M231.3,90.2c0.2-0.3,0.6-0.4,0.9-0.4c0.4,0,0.7,0.1,0.9,0.4c0.2,0.3,0.4,0.7,0.4,1.2c0,0.6-0.1,1-0.4,1.3s-0.6,0.4-0.9,0.4
			c-0.4,0-0.7-0.1-0.9-0.4s-0.4-0.7-0.4-1.3C230.9,90.9,231,90.5,231.3,90.2 M230.7,93.2c0.4,0.4,0.9,0.6,1.5,0.6
			c0.4,0,0.7-0.1,1.1-0.3s0.6-0.4,0.7-0.8c0.2-0.3,0.3-0.8,0.3-1.3c0-0.7-0.2-1.2-0.6-1.6c-0.4-0.4-0.9-0.6-1.5-0.6
			c-0.5,0-1,0.2-1.4,0.5c-0.5,0.4-0.7,1-0.7,1.8C230.1,92.2,230.3,92.8,230.7,93.2 M226.7,90.2c0.2-0.3,0.5-0.4,0.8-0.4
			c0.3,0,0.6,0.1,0.8,0.4c0.2,0.3,0.3,0.7,0.3,1.3c0,0.6-0.1,1-0.4,1.3c-0.2,0.3-0.5,0.4-0.9,0.4c-0.3,0-0.6-0.1-0.8-0.4
			c-0.2-0.3-0.3-0.7-0.3-1.3C226.4,91,226.5,90.5,226.7,90.2 M226.4,95.4v-2.1c0.1,0.2,0.3,0.3,0.5,0.4c0.2,0.1,0.4,0.2,0.7,0.2
			c0.3,0,0.7-0.1,1-0.3c0.3-0.2,0.5-0.5,0.7-0.8c0.2-0.4,0.2-0.8,0.2-1.2c0-0.4-0.1-0.8-0.2-1.2c-0.1-0.4-0.4-0.6-0.7-0.8
			c-0.3-0.2-0.6-0.3-1-0.3c-0.3,0-0.5,0.1-0.7,0.2s-0.4,0.3-0.5,0.5v-0.6h-0.7v6.1H226.4z M221.2,93.7v-2.3c0-0.3,0-0.6,0.1-0.9
			c0.1-0.2,0.1-0.3,0.3-0.4c0.1-0.1,0.3-0.1,0.4-0.1c0.2,0,0.4,0.1,0.5,0.2l0.3-0.7c-0.3-0.2-0.5-0.2-0.8-0.2c-0.2,0-0.3,0-0.5,0.1
			c-0.1,0.1-0.3,0.3-0.5,0.6v-0.7h-0.7v4.4H221.2z M219.3,93.7v-4.4h-0.7v2.4c0,0.4,0,0.7-0.1,0.9c-0.1,0.2-0.2,0.4-0.4,0.5
			c-0.2,0.1-0.4,0.2-0.6,0.2c-0.2,0-0.4-0.1-0.6-0.2s-0.3-0.3-0.3-0.5c0-0.1,0-0.4,0-0.8v-2.4h-0.7V92c0,0.3,0,0.6,0,0.7
			c0,0.2,0.1,0.4,0.2,0.6c0.1,0.2,0.3,0.3,0.5,0.4c0.2,0.1,0.5,0.2,0.7,0.2c0.6,0,1.1-0.2,1.4-0.7v0.6H219.3z M211.9,90.2
			c0.2-0.3,0.6-0.4,0.9-0.4c0.4,0,0.7,0.1,0.9,0.4c0.2,0.3,0.4,0.7,0.4,1.2c0,0.6-0.1,1-0.4,1.3s-0.6,0.4-0.9,0.4
			c-0.4,0-0.7-0.1-0.9-0.4c-0.2-0.3-0.4-0.7-0.4-1.3C211.5,90.9,211.7,90.5,211.9,90.2 M211.3,93.2c0.4,0.4,0.9,0.6,1.5,0.6
			c0.4,0,0.7-0.1,1.1-0.3c0.3-0.2,0.6-0.4,0.7-0.8c0.2-0.3,0.3-0.8,0.3-1.3c0-0.7-0.2-1.2-0.6-1.6c-0.4-0.4-0.9-0.6-1.5-0.6
			c-0.5,0-1,0.2-1.4,0.5c-0.5,0.4-0.7,1-0.7,1.8C210.8,92.2,211,92.8,211.3,93.2 M207.2,95.5c0.2,0,0.4-0.1,0.6-0.2
			c0.2-0.1,0.3-0.3,0.5-0.5c0.1-0.2,0.2-0.5,0.4-1l1.7-4.5h-0.7l-0.9,2.6c-0.1,0.3-0.2,0.7-0.3,1c-0.1-0.4-0.2-0.7-0.3-1l-0.9-2.6
			h-0.8l1.7,4.4c0,0.1-0.1,0.1-0.1,0.2c-0.1,0.3-0.2,0.5-0.2,0.6c-0.1,0.1-0.1,0.2-0.2,0.2c-0.1,0.1-0.2,0.1-0.4,0.1
			c-0.1,0-0.3,0-0.4-0.1l0.1,0.7C206.9,95.5,207.1,95.5,207.2,95.5 M200.4,93.7v-2.4c0-0.6,0.1-0.9,0.3-1.2c0.2-0.2,0.5-0.3,0.8-0.3
			c0.2,0,0.4,0,0.5,0.1c0.1,0.1,0.3,0.2,0.3,0.4c0.1,0.2,0.1,0.4,0.1,0.7v2.7h0.7V91c0-0.3,0-0.6,0-0.7c0-0.2-0.1-0.4-0.2-0.6
			c-0.1-0.2-0.3-0.3-0.5-0.4c-0.2-0.1-0.5-0.1-0.7-0.1c-0.6,0-1.1,0.2-1.4,0.7v-0.6h-0.7v4.4H200.4z M195.9,90.2
			c0.2-0.2,0.5-0.3,0.9-0.3c0.4,0,0.7,0.1,0.9,0.4c0.2,0.2,0.2,0.5,0.3,0.8h-2.5C195.6,90.7,195.7,90.4,195.9,90.2 M197.5,93
			c-0.2,0.1-0.4,0.2-0.7,0.2c-0.4,0-0.7-0.1-0.9-0.4c-0.2-0.3-0.4-0.6-0.4-1.1h3.3c0-0.1,0-0.2,0-0.2c0-0.7-0.2-1.3-0.6-1.7
			c-0.4-0.4-0.9-0.6-1.4-0.6c-0.6,0-1.1,0.2-1.5,0.6c-0.4,0.4-0.6,1-0.6,1.7c0,0.7,0.2,1.3,0.6,1.7c0.4,0.4,0.9,0.6,1.5,0.6
			c0.5,0,0.9-0.1,1.3-0.4c0.3-0.2,0.6-0.6,0.7-1.1l-0.8-0.1C197.9,92.6,197.7,92.8,197.5,93 M191,93.7v-2.4c0-0.3,0-0.6,0.1-0.8
			c0.1-0.2,0.2-0.4,0.4-0.5c0.2-0.1,0.4-0.2,0.6-0.2c0.3,0,0.5,0.1,0.7,0.3c0.2,0.2,0.2,0.4,0.2,0.8v2.8h0.7v-2.8
			c0-0.4-0.1-0.8-0.2-1c-0.1-0.2-0.3-0.4-0.5-0.5c-0.2-0.1-0.5-0.2-0.9-0.2c-0.5,0-1,0.2-1.3,0.6v-2.2h-0.7v6.1H191z M185.7,93.7
			l0.9-3.4l0.2,0.8l0.7,2.6h0.8l1.4-4.4h-0.7l-0.8,2.5l-0.3,0.8l-0.2-0.8l-0.7-2.6h-0.8l-0.7,2.6c-0.1,0.6-0.2,0.9-0.2,0.9l-0.3-0.9
			l-0.7-2.5h-0.8l1.3,4.4H185.7z M180.6,87.6h-0.7v6.1h0.7V87.6z M178.7,89.3H178v4.4h0.7V89.3z M178.7,87.6H178v0.9h0.7V87.6z
			 M176.1,91.8c0,0.3,0,0.6-0.1,0.7c-0.1,0.2-0.3,0.4-0.5,0.5c-0.2,0.1-0.5,0.2-0.8,0.2c-0.3,0-0.5-0.1-0.7-0.2
			c-0.2-0.1-0.2-0.3-0.2-0.5c0-0.1,0-0.2,0.1-0.4c0.1-0.1,0.2-0.2,0.3-0.2c0.1-0.1,0.3-0.1,0.7-0.1c0.5-0.1,0.9-0.2,1.2-0.3V91.8z
			 M176.3,93.7h0.8c-0.1-0.2-0.2-0.3-0.2-0.5c0-0.2,0-0.6,0-1.3v-1c0-0.3,0-0.6,0-0.7c0-0.2-0.1-0.4-0.2-0.5
			c-0.1-0.1-0.3-0.2-0.5-0.3c-0.2-0.1-0.5-0.1-0.9-0.1c-0.4,0-0.7,0.1-1,0.2c-0.3,0.1-0.5,0.3-0.7,0.4c-0.2,0.2-0.3,0.4-0.3,0.8
			l0.7,0.1c0.1-0.3,0.2-0.5,0.4-0.7c0.2-0.1,0.4-0.2,0.8-0.2c0.4,0,0.7,0.1,0.9,0.3c0.1,0.1,0.2,0.3,0.2,0.6c0,0,0,0.1,0,0.2
			c-0.3,0.1-0.7,0.2-1.3,0.3c-0.3,0-0.5,0.1-0.7,0.1c-0.2,0.1-0.4,0.1-0.5,0.2c-0.2,0.1-0.3,0.3-0.4,0.4c-0.1,0.2-0.1,0.4-0.1,0.6
			c0,0.4,0.1,0.7,0.4,0.9c0.3,0.2,0.6,0.4,1.1,0.4c0.3,0,0.6,0,0.8-0.1c0.3-0.1,0.5-0.3,0.8-0.5C176.1,93.4,176.2,93.5,176.3,93.7
			 M166.9,93.7v-2.3c0-0.4,0-0.7,0.1-0.9c0.1-0.2,0.2-0.4,0.4-0.5c0.2-0.1,0.4-0.2,0.6-0.2c0.3,0,0.5,0.1,0.6,0.2
			c0.1,0.2,0.2,0.4,0.2,0.7v2.9h0.7v-2.6c0-0.5,0.1-0.8,0.3-1c0.2-0.2,0.5-0.3,0.8-0.3c0.2,0,0.3,0,0.4,0.1c0.1,0.1,0.2,0.2,0.3,0.3
			c0,0.1,0.1,0.3,0.1,0.6v2.8h0.7v-3c0-0.5-0.1-0.9-0.4-1.1c-0.2-0.2-0.6-0.4-1-0.4c-0.6,0-1,0.3-1.4,0.8c-0.1-0.2-0.2-0.4-0.4-0.6
			c-0.2-0.1-0.5-0.2-0.8-0.2c-0.3,0-0.6,0.1-0.8,0.2c-0.2,0.1-0.4,0.3-0.6,0.5v-0.6h-0.7v4.4H166.9z M162.4,90.2
			c0.2-0.2,0.5-0.3,0.9-0.3c0.4,0,0.7,0.1,0.9,0.4c0.2,0.2,0.2,0.5,0.3,0.8H162C162,90.7,162.2,90.4,162.4,90.2 M164,93
			c-0.2,0.1-0.4,0.2-0.7,0.2c-0.4,0-0.7-0.1-0.9-0.4c-0.2-0.3-0.4-0.6-0.4-1.1h3.3c0-0.1,0-0.2,0-0.2c0-0.7-0.2-1.3-0.6-1.7
			c-0.4-0.4-0.9-0.6-1.4-0.6c-0.6,0-1.1,0.2-1.5,0.6c-0.4,0.4-0.6,1-0.6,1.7c0,0.7,0.2,1.3,0.6,1.7c0.4,0.4,0.9,0.6,1.5,0.6
			c0.5,0,0.9-0.1,1.3-0.4s0.6-0.6,0.7-1.1l-0.8-0.1C164.3,92.6,164.2,92.8,164,93 M155.3,95.5c0.2,0,0.4-0.1,0.6-0.2
			c0.2-0.1,0.3-0.3,0.5-0.5c0.1-0.2,0.2-0.5,0.4-1l1.7-4.5h-0.7l-0.9,2.6c-0.1,0.3-0.2,0.7-0.3,1c-0.1-0.4-0.2-0.7-0.3-1l-0.9-2.6
			h-0.8l1.7,4.4c0,0.1-0.1,0.1-0.1,0.2c-0.1,0.3-0.2,0.5-0.2,0.6c-0.1,0.1-0.1,0.2-0.2,0.2c-0.1,0.1-0.2,0.1-0.4,0.1
			c-0.1,0-0.3,0-0.4-0.1l0.1,0.7C155,95.5,155.1,95.5,155.3,95.5 M151.1,90.2c0.2-0.3,0.5-0.4,0.8-0.4c0.3,0,0.6,0.1,0.8,0.4
			c0.2,0.3,0.3,0.7,0.3,1.3c0,0.6-0.1,1-0.4,1.3c-0.2,0.3-0.5,0.4-0.8,0.4c-0.4,0-0.7-0.2-1-0.6c-0.1-0.2-0.2-0.6-0.2-1.1
			C150.8,90.9,150.9,90.5,151.1,90.2 M150.8,93.1c0.3,0.4,0.7,0.7,1.2,0.7c0.5,0,1-0.2,1.3-0.6c0.4-0.4,0.6-1,0.6-1.8
			c0-0.3,0-0.6-0.1-0.9c-0.1-0.3-0.2-0.5-0.4-0.7c-0.2-0.2-0.4-0.4-0.6-0.5c-0.2-0.1-0.5-0.2-0.8-0.2c-0.5,0-0.9,0.2-1.2,0.6v-2.2
			h-0.7v6.1h0.7V93.1z M143.8,90.2c0.2-0.3,0.5-0.4,0.8-0.4c0.3,0,0.6,0.1,0.9,0.4c0.2,0.3,0.3,0.7,0.3,1.3c0,0.5-0.1,1-0.3,1.2
			c-0.2,0.3-0.5,0.4-0.8,0.4c-0.3,0-0.6-0.1-0.8-0.4c-0.2-0.3-0.4-0.7-0.4-1.3C143.5,90.9,143.6,90.5,143.8,90.2 M146.6,93.7v-6.1
			h-0.7v2.2c-0.1-0.2-0.3-0.3-0.5-0.4c-0.2-0.1-0.4-0.2-0.7-0.2c-0.4,0-0.7,0.1-1,0.3c-0.3,0.2-0.5,0.5-0.7,0.8
			c-0.1,0.4-0.2,0.8-0.2,1.2c0,0.5,0.1,0.8,0.2,1.2c0.2,0.3,0.4,0.6,0.7,0.8c0.3,0.2,0.6,0.3,1,0.3c0.5,0,1-0.2,1.2-0.7v0.6H146.6z
			 M139.2,90.2c0.2-0.2,0.5-0.3,0.9-0.3c0.4,0,0.7,0.1,0.9,0.4c0.2,0.2,0.2,0.5,0.3,0.8h-2.5C138.9,90.7,139,90.4,139.2,90.2
			 M140.8,93c-0.2,0.1-0.4,0.2-0.7,0.2c-0.4,0-0.7-0.1-0.9-0.4c-0.2-0.3-0.4-0.6-0.4-1.1h3.3c0-0.1,0-0.2,0-0.2
			c0-0.7-0.2-1.3-0.6-1.7c-0.4-0.4-0.9-0.6-1.4-0.6c-0.6,0-1.1,0.2-1.5,0.6c-0.4,0.4-0.6,1-0.6,1.7c0,0.7,0.2,1.3,0.6,1.7
			c0.4,0.4,0.9,0.6,1.5,0.6c0.5,0,0.9-0.1,1.3-0.4s0.6-0.6,0.7-1.1l-0.8-0.1C141.2,92.6,141,92.8,140.8,93 M137.1,89.3h-0.7v4.4h0.7
			V89.3z M137.1,87.6h-0.7v0.9h0.7V87.6z M135,93.7v-3.8h0.9v-0.6H135V89c0-0.3,0-0.5,0.1-0.7c0.1-0.1,0.3-0.2,0.5-0.2
			c0.1,0,0.3,0,0.4,0l0.1-0.6c-0.2-0.1-0.5-0.1-0.8-0.1c-0.4,0-0.7,0.1-0.9,0.3c-0.2,0.2-0.3,0.6-0.3,1v0.4h-0.7v0.6h0.7v3.8H135z
			 M132.9,89.3h-0.7v4.4h0.7V89.3z M132.9,87.6h-0.7v0.9h0.7V87.6z M131.1,93.1c-0.1,0-0.2,0-0.3-0.1c-0.1,0-0.1-0.1-0.1-0.1
			c0-0.1,0-0.2,0-0.4v-2.6h0.8v-0.6h-0.8v-1.5l-0.7,0.4v1.1h-0.5v0.6h0.5v2.5c0,0.4,0,0.7,0.1,0.9c0.1,0.1,0.2,0.3,0.3,0.3
			c0.1,0.1,0.4,0.1,0.6,0.1c0.2,0,0.4,0,0.6-0.1l-0.1-0.7C131.3,93.1,131.2,93.1,131.1,93.1 M125.9,90.2c0.2-0.3,0.6-0.4,0.9-0.4
			c0.4,0,0.7,0.1,0.9,0.4c0.2,0.3,0.4,0.7,0.4,1.2c0,0.6-0.1,1-0.4,1.3c-0.2,0.3-0.6,0.4-0.9,0.4c-0.4,0-0.7-0.1-0.9-0.4
			s-0.4-0.7-0.4-1.3C125.5,90.9,125.7,90.5,125.9,90.2 M125.3,93.2c0.4,0.4,0.9,0.6,1.5,0.6c0.4,0,0.7-0.1,1.1-0.3s0.6-0.4,0.7-0.8
			c0.2-0.3,0.3-0.8,0.3-1.3c0-0.7-0.2-1.2-0.6-1.6c-0.4-0.4-0.9-0.6-1.5-0.6c-0.5,0-1,0.2-1.4,0.5c-0.5,0.4-0.7,1-0.7,1.8
			C124.8,92.2,125,92.8,125.3,93.2 M121.1,93.7v-2.4c0-0.6,0.1-0.9,0.3-1.2c0.2-0.2,0.5-0.3,0.8-0.3c0.2,0,0.4,0,0.5,0.1
			c0.1,0.1,0.3,0.2,0.3,0.4c0.1,0.2,0.1,0.4,0.1,0.7v2.7h0.7V91c0-0.3,0-0.6,0-0.7c0-0.2-0.1-0.4-0.2-0.6c-0.1-0.2-0.3-0.3-0.5-0.4
			c-0.2-0.1-0.5-0.1-0.7-0.1c-0.6,0-1.1,0.2-1.4,0.7v-0.6h-0.7v4.4H121.1z M114.2,90.2c0.2-0.2,0.5-0.3,0.9-0.3
			c0.4,0,0.7,0.1,0.9,0.4c0.2,0.2,0.2,0.5,0.3,0.8h-2.5C113.8,90.7,114,90.4,114.2,90.2 M115.8,93c-0.2,0.1-0.4,0.2-0.7,0.2
			c-0.4,0-0.7-0.1-0.9-0.4c-0.2-0.3-0.4-0.6-0.4-1.1h3.3c0-0.1,0-0.2,0-0.2c0-0.7-0.2-1.3-0.6-1.7c-0.4-0.4-0.9-0.6-1.4-0.6
			c-0.6,0-1.1,0.2-1.5,0.6c-0.4,0.4-0.6,1-0.6,1.7c0,0.7,0.2,1.3,0.6,1.7c0.4,0.4,0.9,0.6,1.5,0.6c0.5,0,0.9-0.1,1.3-0.4
			c0.3-0.2,0.6-0.6,0.7-1.1l-0.8-0.1C116.1,92.6,116,92.8,115.8,93 M109.5,90.2c0.2-0.3,0.5-0.4,0.8-0.4c0.3,0,0.6,0.1,0.8,0.4
			c0.2,0.3,0.3,0.7,0.3,1.3c0,0.6-0.1,1-0.4,1.3c-0.2,0.3-0.5,0.4-0.8,0.4c-0.4,0-0.7-0.2-1-0.6c-0.1-0.2-0.2-0.6-0.2-1.1
			C109.2,90.9,109.3,90.5,109.5,90.2 M109.2,93.1c0.3,0.4,0.7,0.7,1.2,0.7c0.5,0,1-0.2,1.3-0.6c0.4-0.4,0.6-1,0.6-1.8
			c0-0.3,0-0.6-0.1-0.9c-0.1-0.3-0.2-0.5-0.4-0.7c-0.2-0.2-0.4-0.4-0.6-0.5c-0.2-0.1-0.5-0.2-0.8-0.2c-0.5,0-0.9,0.2-1.2,0.6v-2.2
			h-0.7v6.1h0.7V93.1z M102.3,90.2c0.2-0.3,0.6-0.4,0.9-0.4c0.4,0,0.7,0.1,0.9,0.4c0.2,0.3,0.4,0.7,0.4,1.2c0,0.6-0.1,1-0.4,1.3
			s-0.6,0.4-0.9,0.4c-0.4,0-0.7-0.1-0.9-0.4c-0.2-0.3-0.4-0.7-0.4-1.3C101.9,90.9,102,90.5,102.3,90.2 M101.7,93.2
			c0.4,0.4,0.9,0.6,1.5,0.6c0.4,0,0.7-0.1,1.1-0.3s0.6-0.4,0.7-0.8c0.2-0.3,0.3-0.8,0.3-1.3c0-0.7-0.2-1.2-0.6-1.6
			c-0.4-0.4-0.9-0.6-1.5-0.6c-0.5,0-1,0.2-1.4,0.5c-0.5,0.4-0.7,1-0.7,1.8C101.1,92.2,101.3,92.8,101.7,93.2 M100.4,93.1
			c-0.1,0-0.2,0-0.3-0.1c-0.1,0-0.1-0.1-0.1-0.1c0-0.1,0-0.2,0-0.4v-2.6h0.8v-0.6h-0.8v-1.5l-0.7,0.4v1.1h-0.5v0.6h0.5v2.5
			c0,0.4,0,0.7,0.1,0.9s0.2,0.3,0.3,0.3c0.1,0.1,0.4,0.1,0.6,0.1c0.2,0,0.4,0,0.6-0.1l-0.1-0.7C100.6,93.1,100.4,93.1,100.4,93.1
			 M93,90.2c0.2-0.3,0.5-0.4,0.8-0.4c0.3,0,0.6,0.1,0.8,0.4c0.2,0.3,0.3,0.7,0.3,1.3c0,0.6-0.1,1-0.4,1.3c-0.2,0.3-0.5,0.4-0.9,0.4
			c-0.3,0-0.6-0.1-0.8-0.4c-0.2-0.3-0.3-0.7-0.3-1.3C92.6,91,92.8,90.5,93,90.2 M92.7,95.4v-2.1c0.1,0.2,0.3,0.3,0.5,0.4
			c0.2,0.1,0.4,0.2,0.7,0.2c0.3,0,0.7-0.1,1-0.3c0.3-0.2,0.5-0.5,0.7-0.8s0.2-0.8,0.2-1.2c0-0.4-0.1-0.8-0.2-1.2
			c-0.1-0.4-0.4-0.6-0.7-0.8c-0.3-0.2-0.6-0.3-1-0.3c-0.3,0-0.5,0.1-0.7,0.2c-0.2,0.1-0.4,0.3-0.5,0.5v-0.6H92v6.1H92.7z M90.8,93.7
			v-4.4h-0.7v2.4c0,0.4,0,0.7-0.1,0.9c-0.1,0.2-0.2,0.4-0.4,0.5c-0.2,0.1-0.4,0.2-0.6,0.2s-0.4-0.1-0.6-0.2s-0.3-0.3-0.3-0.5
			c0-0.1,0-0.4,0-0.8v-2.4h-0.7V92c0,0.3,0,0.6,0,0.7c0,0.2,0.1,0.4,0.2,0.6c0.1,0.2,0.3,0.3,0.5,0.4c0.2,0.1,0.5,0.2,0.7,0.2
			c0.6,0,1.1-0.2,1.4-0.7v0.6H90.8z M80.9,93.7v-2.4c0-0.6,0.1-0.9,0.3-1.2c0.2-0.2,0.5-0.3,0.8-0.3c0.2,0,0.4,0,0.5,0.1
			c0.1,0.1,0.3,0.2,0.3,0.4C83,90.5,83,90.7,83,91v2.7h0.7V91c0-0.3,0-0.6,0-0.7c0-0.2-0.1-0.4-0.2-0.6c-0.1-0.2-0.3-0.3-0.5-0.4
			c-0.2-0.1-0.5-0.1-0.7-0.1c-0.6,0-1.1,0.2-1.4,0.7v-0.6h-0.7v4.4H80.9z M76.3,90.2c0.2-0.3,0.5-0.4,0.8-0.4c0.3,0,0.6,0.1,0.9,0.4
			s0.4,0.7,0.4,1.2c0,0.6-0.1,1-0.3,1.2c-0.2,0.3-0.5,0.4-0.9,0.4c-0.3,0-0.6-0.1-0.9-0.4c-0.2-0.3-0.3-0.7-0.3-1.3
			C75.9,90.9,76,90.5,76.3,90.2 M75.8,95.1c0.3,0.2,0.7,0.4,1.3,0.4c0.4,0,0.8-0.1,1.1-0.2c0.3-0.2,0.5-0.4,0.7-0.7
			c0.1-0.3,0.2-0.8,0.2-1.5v-3.8h-0.7v0.5c-0.3-0.4-0.8-0.6-1.3-0.6c-0.4,0-0.7,0.1-1,0.3c-0.3,0.2-0.5,0.5-0.7,0.8
			c-0.2,0.4-0.2,0.7-0.2,1.2c0,0.6,0.2,1.1,0.5,1.6c0.3,0.4,0.8,0.7,1.4,0.7c0.5,0,0.9-0.2,1.2-0.6c0,0.5,0,0.8-0.1,1
			c-0.1,0.2-0.2,0.4-0.4,0.6c-0.2,0.1-0.5,0.2-0.8,0.2c-0.3,0-0.6-0.1-0.8-0.2c-0.1-0.1-0.2-0.3-0.3-0.5l-0.7-0.1
			C75.3,94.5,75.4,94.9,75.8,95.1 M74.3,89.3h-0.7v4.4h0.7V89.3z M74.3,87.6h-0.7v0.9h0.7V87.6z M69.6,93.4c0.3,0.2,0.7,0.4,1.3,0.4
			c0.3,0,0.7-0.1,0.9-0.2c0.3-0.1,0.5-0.3,0.6-0.5c0.1-0.2,0.2-0.5,0.2-0.7c0-0.3-0.1-0.5-0.2-0.6c-0.1-0.2-0.3-0.3-0.5-0.4
			s-0.6-0.2-1.1-0.3c-0.4-0.1-0.6-0.2-0.7-0.2c-0.1-0.1-0.2-0.1-0.3-0.2c-0.1-0.1-0.1-0.2-0.1-0.3c0-0.2,0.1-0.3,0.2-0.4
			c0.1-0.1,0.4-0.2,0.7-0.2c0.3,0,0.5,0.1,0.7,0.2s0.3,0.3,0.3,0.5l0.7-0.1c0-0.3-0.1-0.5-0.3-0.7c-0.1-0.2-0.3-0.3-0.6-0.4
			c-0.3-0.1-0.6-0.1-0.9-0.1c-0.2,0-0.4,0-0.6,0.1c-0.2,0.1-0.4,0.1-0.5,0.2c-0.2,0.1-0.3,0.2-0.4,0.4c-0.1,0.2-0.1,0.3-0.1,0.5
			c0,0.2,0.1,0.4,0.2,0.6c0.1,0.2,0.3,0.3,0.5,0.4c0.2,0.1,0.6,0.2,1.1,0.4c0.4,0.1,0.7,0.2,0.8,0.3c0.1,0.1,0.2,0.2,0.2,0.4
			c0,0.2-0.1,0.4-0.2,0.5s-0.4,0.2-0.8,0.2c-0.3,0-0.6-0.1-0.8-0.2c-0.2-0.2-0.3-0.4-0.3-0.7L69,92.4C69.1,92.9,69.3,93.2,69.6,93.4
			 M63.1,90.2c0.2-0.3,0.6-0.4,0.9-0.4c0.4,0,0.7,0.1,0.9,0.4c0.2,0.3,0.4,0.7,0.4,1.2c0,0.6-0.1,1-0.4,1.3
			c-0.2,0.3-0.6,0.4-0.9,0.4c-0.4,0-0.7-0.1-0.9-0.4c-0.2-0.3-0.4-0.7-0.4-1.3C62.7,90.9,62.8,90.5,63.1,90.2 M62.5,93.2
			c0.4,0.4,0.9,0.6,1.5,0.6c0.4,0,0.7-0.1,1.1-0.3c0.3-0.2,0.6-0.4,0.7-0.8C66,92.4,66,92,66,91.4c0-0.7-0.2-1.2-0.6-1.6
			c-0.4-0.4-0.9-0.6-1.5-0.6c-0.5,0-1,0.2-1.4,0.5c-0.5,0.4-0.7,1-0.7,1.8C61.9,92.2,62.1,92.8,62.5,93.2 M58.2,93.4
			c0.3,0.2,0.7,0.4,1.3,0.4c0.3,0,0.7-0.1,0.9-0.2c0.3-0.1,0.5-0.3,0.6-0.5c0.1-0.2,0.2-0.5,0.2-0.7c0-0.3-0.1-0.5-0.2-0.6
			c-0.1-0.2-0.3-0.3-0.5-0.4s-0.6-0.2-1.1-0.3c-0.4-0.1-0.6-0.2-0.7-0.2c-0.1-0.1-0.2-0.1-0.3-0.2c-0.1-0.1-0.1-0.2-0.1-0.3
			c0-0.2,0.1-0.3,0.2-0.4c0.1-0.1,0.4-0.2,0.7-0.2c0.3,0,0.5,0.1,0.7,0.2s0.3,0.3,0.3,0.5l0.7-0.1c0-0.3-0.1-0.5-0.3-0.7
			c-0.1-0.2-0.3-0.3-0.6-0.4c-0.3-0.1-0.6-0.1-0.9-0.1c-0.2,0-0.4,0-0.6,0.1c-0.2,0.1-0.4,0.1-0.5,0.2c-0.2,0.1-0.3,0.2-0.4,0.4
			s-0.1,0.3-0.1,0.5c0,0.2,0.1,0.4,0.2,0.6c0.1,0.2,0.3,0.3,0.5,0.4c0.2,0.1,0.6,0.2,1.1,0.4c0.4,0.1,0.7,0.2,0.8,0.3
			c0.1,0.1,0.2,0.2,0.2,0.4c0,0.2-0.1,0.4-0.2,0.5s-0.4,0.2-0.8,0.2c-0.3,0-0.6-0.1-0.8-0.2c-0.2-0.2-0.3-0.4-0.3-0.7l-0.7,0.1
			C57.7,92.9,57.9,93.2,58.2,93.4 M56.8,87.6H56v6.1h0.7V87.6z M54.1,91.8c0,0.3,0,0.6-0.1,0.7c-0.1,0.2-0.3,0.4-0.5,0.5
			c-0.2,0.1-0.5,0.2-0.8,0.2c-0.3,0-0.5-0.1-0.7-0.2c-0.2-0.1-0.2-0.3-0.2-0.5c0-0.1,0-0.2,0.1-0.4c0.1-0.1,0.2-0.2,0.3-0.2
			c0.1-0.1,0.3-0.1,0.7-0.1c0.5-0.1,1-0.2,1.2-0.3V91.8z M54.4,93.7h0.8c-0.1-0.2-0.2-0.3-0.2-0.5c0-0.2,0-0.6,0-1.3v-1
			c0-0.3,0-0.6,0-0.7c0-0.2-0.1-0.4-0.2-0.5c-0.1-0.1-0.3-0.2-0.5-0.3c-0.2-0.1-0.5-0.1-0.9-0.1c-0.4,0-0.7,0.1-1,0.2
			c-0.3,0.1-0.5,0.3-0.7,0.4c-0.2,0.2-0.3,0.4-0.3,0.8l0.7,0.1c0.1-0.3,0.2-0.5,0.4-0.7c0.2-0.1,0.4-0.2,0.8-0.2
			c0.4,0,0.7,0.1,0.9,0.3c0.1,0.1,0.2,0.3,0.2,0.6c0,0,0,0.1,0,0.2c-0.3,0.1-0.7,0.2-1.3,0.3c-0.3,0-0.5,0.1-0.7,0.1
			c-0.2,0.1-0.4,0.1-0.5,0.2c-0.2,0.1-0.3,0.3-0.4,0.4c-0.1,0.2-0.1,0.4-0.1,0.6c0,0.4,0.1,0.7,0.4,0.9c0.3,0.2,0.6,0.4,1.1,0.4
			c0.3,0,0.6,0,0.8-0.1c0.3-0.1,0.5-0.3,0.8-0.5C54.2,93.4,54.3,93.5,54.4,93.7 M45,93.7v-2.4c0-0.6,0.1-0.9,0.3-1.2
			c0.2-0.2,0.5-0.3,0.8-0.3c0.2,0,0.4,0,0.5,0.1c0.1,0.1,0.3,0.2,0.3,0.4c0.1,0.2,0.1,0.4,0.1,0.7v2.7h0.7V91c0-0.3,0-0.6,0-0.7
			c0-0.2-0.1-0.4-0.2-0.6c-0.1-0.2-0.3-0.3-0.5-0.4c-0.2-0.1-0.5-0.1-0.7-0.1c-0.6,0-1.1,0.2-1.4,0.7v-0.6h-0.7v4.4H45z M42.3,91.8
			c0,0.3,0,0.6-0.1,0.7c-0.1,0.2-0.3,0.4-0.5,0.5c-0.2,0.1-0.5,0.2-0.8,0.2c-0.3,0-0.5-0.1-0.7-0.2c-0.2-0.1-0.2-0.3-0.2-0.5
			c0-0.1,0-0.2,0.1-0.4c0.1-0.1,0.2-0.2,0.3-0.2c0.1-0.1,0.3-0.1,0.7-0.1c0.5-0.1,0.9-0.2,1.2-0.3V91.8z M42.5,93.7h0.8
			c-0.1-0.2-0.2-0.3-0.2-0.5c0-0.2,0-0.6,0-1.3v-1c0-0.3,0-0.6,0-0.7c0-0.2-0.1-0.4-0.2-0.5c-0.1-0.1-0.3-0.2-0.5-0.3
			c-0.2-0.1-0.5-0.1-0.9-0.1c-0.4,0-0.7,0.1-1,0.2c-0.3,0.1-0.5,0.3-0.7,0.4c-0.2,0.2-0.3,0.4-0.3,0.8l0.7,0.1
			c0.1-0.3,0.2-0.5,0.4-0.7c0.2-0.1,0.4-0.2,0.8-0.2c0.4,0,0.7,0.1,0.9,0.3c0.1,0.1,0.2,0.3,0.2,0.6c0,0,0,0.1,0,0.2
			C42,91,41.6,91.1,41,91.2c-0.3,0-0.5,0.1-0.7,0.1c-0.2,0.1-0.4,0.1-0.5,0.2c-0.2,0.1-0.3,0.3-0.4,0.4c-0.1,0.2-0.1,0.4-0.1,0.6
			c0,0.4,0.1,0.7,0.4,0.9c0.3,0.2,0.6,0.4,1.1,0.4c0.3,0,0.6,0,0.8-0.1c0.3-0.1,0.5-0.3,0.8-0.5C42.4,93.4,42.5,93.5,42.5,93.7
			 M37.8,92.9c-0.2,0.2-0.4,0.3-0.7,0.3c-0.4,0-0.7-0.1-0.9-0.4c-0.2-0.3-0.3-0.7-0.3-1.3c0-0.6,0.1-1,0.4-1.3
			c0.2-0.3,0.5-0.4,0.9-0.4c0.2,0,0.5,0.1,0.6,0.2c0.2,0.1,0.3,0.4,0.4,0.7l0.7-0.1c-0.1-0.4-0.3-0.8-0.6-1
			c-0.3-0.2-0.7-0.4-1.2-0.4c-0.4,0-0.7,0.1-1.1,0.3c-0.3,0.2-0.6,0.4-0.7,0.8C35.1,90.6,35,91,35,91.5c0,0.7,0.2,1.3,0.5,1.7
			c0.4,0.4,0.9,0.6,1.5,0.6c0.5,0,0.9-0.1,1.2-0.4c0.3-0.3,0.5-0.7,0.6-1.2l-0.7-0.1C38.1,92.5,38,92.7,37.8,92.9 M31.7,93.7v-4.4
			H31v2.4c0,0.4,0,0.7-0.1,0.9c-0.1,0.2-0.2,0.4-0.4,0.5c-0.2,0.1-0.4,0.2-0.6,0.2c-0.2,0-0.4-0.1-0.6-0.2c-0.2-0.1-0.3-0.3-0.3-0.5
			c0-0.1,0-0.4,0-0.8v-2.4h-0.7V92c0,0.3,0,0.6,0,0.7c0,0.2,0.1,0.4,0.2,0.6c0.1,0.2,0.3,0.3,0.5,0.4c0.2,0.1,0.5,0.2,0.7,0.2
			c0.6,0,1.1-0.2,1.4-0.7v0.6H31.7z M24.3,90.2c0.2-0.3,0.6-0.4,0.9-0.4c0.4,0,0.7,0.1,0.9,0.4c0.2,0.3,0.4,0.7,0.4,1.2
			c0,0.6-0.1,1-0.4,1.3c-0.2,0.3-0.6,0.4-0.9,0.4c-0.4,0-0.7-0.1-0.9-0.4c-0.2-0.3-0.4-0.7-0.4-1.3C23.9,90.9,24.1,90.5,24.3,90.2
			 M23.7,93.2c0.4,0.4,0.9,0.6,1.5,0.6c0.4,0,0.7-0.1,1.1-0.3c0.3-0.2,0.6-0.4,0.7-0.8c0.2-0.3,0.3-0.8,0.3-1.3
			c0-0.7-0.2-1.2-0.6-1.6c-0.4-0.4-0.9-0.6-1.5-0.6c-0.5,0-1,0.2-1.4,0.5c-0.5,0.4-0.7,1-0.7,1.8C23.2,92.2,23.4,92.8,23.7,93.2
			 M21.2,93.7v-2.6l2.4-3.5h-0.9l-1.2,1.8c-0.3,0.4-0.5,0.8-0.7,1.1c-0.2-0.3-0.4-0.7-0.6-1L19,87.6h-1l2.3,3.5v2.6H21.2z"/>
		<path class="st1" d="M222.3,75.6h-0.9v0.9h0.9V75.6z M219.1,75.1c0-0.8,0-1.2,0.1-1.5s0.2-0.4,0.3-0.5c0.1-0.1,0.3-0.1,0.4-0.1
			c0.2,0,0.4,0.1,0.5,0.2l0.4-1c-0.2-0.1-0.5-0.2-0.8-0.2c-0.2,0-0.4,0-0.5,0.1c-0.1,0.1-0.3,0.3-0.5,0.6V72h-1.1v4.4h1.2V75.1z
			 M214,73.2c0.2-0.2,0.5-0.3,0.8-0.3c0.3,0,0.6,0.1,0.8,0.3c0.2,0.2,0.3,0.6,0.3,1c0,0.4-0.1,0.8-0.3,1c-0.2,0.2-0.5,0.3-0.8,0.3
			c-0.3,0-0.6-0.1-0.8-0.3c-0.2-0.2-0.3-0.6-0.3-1S213.8,73.5,214,73.2 M212.8,75.5c0.2,0.4,0.5,0.6,0.8,0.8
			c0.4,0.2,0.8,0.3,1.2,0.3c0.7,0,1.2-0.2,1.6-0.7c0.4-0.4,0.6-1,0.6-1.7c0-0.7-0.2-1.2-0.6-1.6c-0.4-0.4-1-0.6-1.6-0.6
			c-0.4,0-0.8,0.1-1.2,0.3c-0.3,0.2-0.6,0.5-0.8,0.8c-0.2,0.4-0.3,0.7-0.3,1.1C212.5,74.7,212.6,75.1,212.8,75.5 M211.1,72v-1.6
			l-1.2,0.7V72h-0.5V73h0.5v1.9c0,0.4,0,0.7,0,0.8c0,0.2,0.1,0.3,0.2,0.5c0.1,0.1,0.2,0.2,0.4,0.3c0.2,0.1,0.4,0.1,0.6,0.1
			c0.3,0,0.6-0.1,0.9-0.2l-0.1-0.9c-0.2,0.1-0.4,0.1-0.5,0.1c-0.1,0-0.1,0-0.2-0.1c-0.1,0-0.1-0.1-0.1-0.1c0-0.1,0-0.3,0-0.6V73h0.8
			V72H211.1z M208.4,72.3c-0.3-0.2-0.7-0.3-1.3-0.3c-0.7,0-1.2,0.2-1.6,0.6c-0.4,0.4-0.6,1-0.6,1.7c0,0.7,0.2,1.3,0.6,1.7
			c0.4,0.4,0.9,0.6,1.5,0.6c0.6,0,1-0.1,1.4-0.4c0.3-0.3,0.6-0.7,0.7-1.2l-1.1-0.2c-0.1,0.3-0.2,0.5-0.3,0.6
			c-0.1,0.1-0.3,0.2-0.5,0.2c-0.3,0-0.5-0.1-0.7-0.3c-0.2-0.2-0.3-0.6-0.3-1.1c0-0.5,0.1-0.8,0.3-1c0.2-0.2,0.4-0.3,0.7-0.3
			c0.2,0,0.4,0.1,0.5,0.2c0.1,0.1,0.2,0.3,0.3,0.5l1.1-0.2C208.9,72.9,208.7,72.5,208.4,72.3 M202.9,74.6c0,0.3,0,0.5,0,0.6
			c0,0.2-0.1,0.3-0.3,0.4c-0.2,0.1-0.4,0.2-0.6,0.2c-0.2,0-0.3-0.1-0.5-0.2c-0.1-0.1-0.2-0.3-0.2-0.4c0-0.2,0.1-0.3,0.2-0.4
			c0.1-0.1,0.3-0.1,0.6-0.2c0.3-0.1,0.6-0.1,0.7-0.2V74.6z M201.6,73c0.1-0.1,0.3-0.1,0.5-0.1c0.3,0,0.5,0,0.6,0.1
			c0.1,0.1,0.2,0.3,0.2,0.5v0.1c-0.2,0.1-0.6,0.2-1.1,0.3c-0.4,0.1-0.7,0.2-0.9,0.3c-0.2,0.1-0.4,0.3-0.5,0.4
			c-0.1,0.2-0.2,0.4-0.2,0.7c0,0.4,0.1,0.7,0.4,0.9c0.3,0.2,0.6,0.4,1.1,0.4c0.3,0,0.5,0,0.7-0.1c0.2-0.1,0.4-0.2,0.6-0.4
			c0,0,0,0.1,0,0.1c0,0.2,0.1,0.3,0.1,0.3h1.2c-0.1-0.2-0.2-0.4-0.2-0.6c0-0.2-0.1-0.5-0.1-0.9l0-1.4c0-0.5-0.1-0.9-0.2-1
			c-0.1-0.2-0.3-0.3-0.5-0.5c-0.3-0.1-0.6-0.2-1.2-0.2c-0.6,0-1,0.1-1.3,0.3c-0.3,0.2-0.5,0.5-0.6,0.9l1.1,0.2
			C201.4,73.2,201.5,73,201.6,73 M197.1,73h0.6v3.5h1.2V73h0.9V72h-0.9v-0.3c0-0.2,0-0.4,0.1-0.5c0.1-0.1,0.2-0.1,0.4-0.1
			c0.2,0,0.4,0,0.5,0.1l0.2-0.8c-0.3-0.1-0.6-0.1-1-0.1c-0.3,0-0.6,0.1-0.8,0.2c-0.2,0.1-0.4,0.3-0.4,0.4c-0.1,0.2-0.1,0.5-0.1,0.8
			V72h-0.6V73z M195.4,75.1c0-0.8,0-1.2,0.1-1.5s0.2-0.4,0.3-0.5c0.1-0.1,0.3-0.1,0.4-0.1c0.2,0,0.4,0.1,0.5,0.2l0.4-1
			c-0.2-0.1-0.5-0.2-0.8-0.2c-0.2,0-0.4,0-0.5,0.1c-0.1,0.1-0.3,0.3-0.5,0.6V72h-1.1v4.4h1.2V75.1z M190.5,73.9
			c0-0.3,0.1-0.6,0.2-0.8s0.4-0.3,0.6-0.3c0.2,0,0.4,0.1,0.6,0.3c0.2,0.2,0.3,0.4,0.3,0.8H190.5z M191.9,75.5
			c-0.1,0.1-0.3,0.1-0.5,0.1c-0.3,0-0.5-0.1-0.7-0.3c-0.2-0.2-0.3-0.5-0.3-0.8h2.9c0-0.9-0.2-1.6-0.5-2s-0.9-0.6-1.6-0.6
			c-0.6,0-1.1,0.2-1.4,0.6c-0.4,0.4-0.6,1-0.6,1.7c0,0.6,0.1,1.1,0.4,1.5c0.4,0.5,0.9,0.8,1.7,0.8c0.5,0,0.9-0.1,1.2-0.3
			c0.3-0.2,0.6-0.5,0.7-1l-1.2-0.2C192.1,75.3,192,75.4,191.9,75.5 M184.9,76.4l0.7-2.8l0.8,2.8h1.1L189,72h-1.1l-0.8,2.9l-0.7-2.9
			h-1.1l-0.8,2.9l-0.8-2.9h-1.1l1.4,4.4H184.9z M179,73.2c0.2-0.2,0.5-0.3,0.8-0.3c0.3,0,0.6,0.1,0.8,0.3c0.2,0.2,0.3,0.6,0.3,1
			c0,0.4-0.1,0.8-0.3,1c-0.2,0.2-0.5,0.3-0.8,0.3c-0.3,0-0.6-0.1-0.8-0.3c-0.2-0.2-0.3-0.6-0.3-1S178.8,73.5,179,73.2 M177.8,75.5
			c0.2,0.4,0.5,0.6,0.8,0.8c0.4,0.2,0.8,0.3,1.2,0.3c0.7,0,1.2-0.2,1.6-0.7c0.4-0.4,0.6-1,0.6-1.7c0-0.7-0.2-1.2-0.6-1.6
			c-0.4-0.4-1-0.6-1.6-0.6c-0.4,0-0.8,0.1-1.2,0.3c-0.3,0.2-0.6,0.5-0.8,0.8c-0.2,0.4-0.3,0.7-0.3,1.1
			C177.5,74.7,177.6,75.1,177.8,75.5 M174,73.2c0.2-0.2,0.4-0.3,0.7-0.3c0.3,0,0.5,0.1,0.7,0.3c0.2,0.2,0.3,0.6,0.3,1
			c0,0.5-0.1,0.9-0.3,1.1c-0.2,0.2-0.4,0.3-0.7,0.3c-0.3,0-0.5-0.1-0.7-0.4c-0.2-0.2-0.3-0.6-0.3-1.1
			C173.7,73.7,173.8,73.4,174,73.2 M172.6,78.1h1.2v-2.2c0.2,0.2,0.4,0.4,0.6,0.5c0.2,0.1,0.4,0.1,0.7,0.1c0.5,0,0.9-0.2,1.3-0.6
			c0.4-0.4,0.5-1,0.5-1.7c0-0.7-0.2-1.3-0.5-1.7c-0.4-0.4-0.8-0.6-1.3-0.6c-0.3,0-0.6,0.1-0.8,0.2c-0.2,0.1-0.4,0.3-0.6,0.5V72h-1.1
			V78.1z M170.5,76.6l1.5-6.3h-0.9l-1.5,6.3H170.5z M162.6,76.4h1.2v-2.1c0-0.4,0-0.7,0.1-0.9c0.1-0.2,0.2-0.3,0.3-0.4
			s0.3-0.1,0.5-0.1c0.1,0,0.3,0,0.4,0.1c0.1,0.1,0.2,0.2,0.2,0.3c0,0.1,0.1,0.4,0.1,0.8v2.4h1.2v-2.1c0-0.4,0-0.7,0.1-0.9
			c0.1-0.2,0.2-0.3,0.3-0.4c0.1-0.1,0.3-0.1,0.5-0.1c0.2,0,0.4,0.1,0.5,0.2c0.1,0.1,0.1,0.4,0.1,0.8v2.5h1.2v-2.8
			c0-0.4,0-0.7-0.1-0.9c-0.1-0.3-0.3-0.4-0.5-0.6c-0.2-0.1-0.5-0.2-0.8-0.2c-0.3,0-0.5,0.1-0.7,0.2s-0.4,0.3-0.6,0.5
			c-0.1-0.2-0.3-0.4-0.5-0.5c-0.2-0.1-0.5-0.2-0.7-0.2c-0.5,0-1,0.2-1.4,0.7V72h-1.1V76.4z M158.7,73.2c0.2-0.2,0.5-0.3,0.8-0.3
			c0.3,0,0.6,0.1,0.8,0.3c0.2,0.2,0.3,0.6,0.3,1c0,0.4-0.1,0.8-0.3,1c-0.2,0.2-0.5,0.3-0.8,0.3c-0.3,0-0.6-0.1-0.8-0.3
			c-0.2-0.2-0.3-0.6-0.3-1S158.5,73.5,158.7,73.2 M157.5,75.5c0.2,0.4,0.5,0.6,0.8,0.8c0.4,0.2,0.8,0.3,1.2,0.3
			c0.7,0,1.2-0.2,1.6-0.7c0.4-0.4,0.6-1,0.6-1.7c0-0.7-0.2-1.2-0.6-1.6c-0.4-0.4-1-0.6-1.6-0.6c-0.4,0-0.8,0.1-1.2,0.3
			c-0.4,0.2-0.6,0.5-0.8,0.8c-0.2,0.4-0.3,0.7-0.3,1.1C157.2,74.7,157.3,75.1,157.5,75.5 M155.9,72.3c-0.3-0.2-0.7-0.3-1.3-0.3
			c-0.7,0-1.2,0.2-1.6,0.6c-0.4,0.4-0.6,1-0.6,1.7c0,0.7,0.2,1.3,0.6,1.7c0.4,0.4,0.9,0.6,1.5,0.6c0.6,0,1-0.1,1.4-0.4
			c0.3-0.3,0.6-0.7,0.7-1.2l-1.1-0.2c-0.1,0.3-0.2,0.5-0.3,0.6c-0.1,0.1-0.3,0.2-0.5,0.2c-0.3,0-0.5-0.1-0.7-0.3
			c-0.2-0.2-0.3-0.6-0.3-1.1c0-0.5,0.1-0.8,0.3-1c0.2-0.2,0.4-0.3,0.7-0.3c0.2,0,0.4,0.1,0.5,0.2c0.1,0.1,0.2,0.3,0.3,0.5l1.1-0.2
			C156.5,72.9,156.2,72.5,155.9,72.3 M151.6,75.3h-1.2v1.2h1.2V75.3z M146.4,73.2c0.2-0.2,0.5-0.3,0.8-0.3c0.3,0,0.6,0.1,0.8,0.3
			c0.2,0.2,0.3,0.6,0.3,1c0,0.4-0.1,0.8-0.3,1c-0.2,0.2-0.5,0.3-0.8,0.3c-0.3,0-0.6-0.1-0.8-0.3c-0.2-0.2-0.3-0.6-0.3-1
			S146.2,73.5,146.4,73.2 M145.2,75.5c0.2,0.4,0.5,0.6,0.8,0.8c0.4,0.2,0.8,0.3,1.2,0.3c0.7,0,1.2-0.2,1.6-0.7
			c0.4-0.4,0.6-1,0.6-1.7c0-0.7-0.2-1.2-0.6-1.6c-0.4-0.4-1-0.6-1.6-0.6c-0.4,0-0.8,0.1-1.2,0.3c-0.4,0.2-0.6,0.5-0.8,0.8
			c-0.2,0.4-0.3,0.7-0.3,1.1C144.9,74.7,145,75.1,145.2,75.5 M143,75.1c0-0.8,0-1.2,0.1-1.5s0.2-0.4,0.3-0.5
			c0.1-0.1,0.3-0.1,0.4-0.1c0.2,0,0.4,0.1,0.5,0.2l0.4-1c-0.2-0.1-0.5-0.2-0.8-0.2c-0.2,0-0.4,0-0.5,0.1c-0.1,0.1-0.3,0.3-0.5,0.6
			V72h-1.1v4.4h1.2V75.1z M137.9,73.2c0.2-0.2,0.4-0.3,0.7-0.3c0.3,0,0.5,0.1,0.7,0.3c0.2,0.2,0.3,0.6,0.3,1.1c0,0.5-0.1,0.8-0.3,1
			c-0.2,0.2-0.4,0.3-0.7,0.3c-0.3,0-0.6-0.2-0.8-0.5c-0.1-0.2-0.2-0.6-0.2-1C137.6,73.7,137.7,73.4,137.9,73.2 M140.8,70.4h-1.2v2.2
			c-0.4-0.4-0.8-0.6-1.3-0.6c-0.5,0-1,0.2-1.3,0.6c-0.4,0.4-0.5,1-0.5,1.7c0,0.7,0.2,1.3,0.5,1.7c0.4,0.4,0.8,0.6,1.3,0.6
			c0.2,0,0.5-0.1,0.7-0.2c0.2-0.1,0.5-0.3,0.6-0.6v0.6h1.1V70.4z M133.1,76.5c-0.1,0.2-0.2,0.4-0.3,0.6c-0.1,0.2-0.3,0.2-0.6,0.2
			c-0.1,0-0.3,0-0.5-0.1l0.1,0.9c0.2,0,0.4,0.1,0.7,0.1c0.2,0,0.4,0,0.6-0.1c0.2,0,0.3-0.1,0.4-0.2c0.1-0.1,0.2-0.2,0.3-0.3
			c0.1-0.1,0.2-0.3,0.3-0.6l0.3-0.8L136,72h-1.2l-1,3.1l-1.1-3.1h-1.2L133.1,76.5z M126.8,70.4v6.1h1.2v-2.2c0-0.4,0-0.7,0.1-0.8
			c0.1-0.2,0.2-0.3,0.3-0.4c0.2-0.1,0.3-0.1,0.5-0.1c0.2,0,0.3,0,0.4,0.1s0.2,0.2,0.2,0.3c0,0.1,0.1,0.4,0.1,0.9v2.3h1.2v-2.6
			c0-0.4,0-0.7-0.1-0.9c0-0.2-0.1-0.4-0.2-0.5c-0.1-0.2-0.3-0.3-0.5-0.4c-0.2-0.1-0.5-0.1-0.7-0.1c-0.5,0-1,0.2-1.3,0.7v-2.2H126.8z
			 M125.2,72.3c-0.3-0.2-0.7-0.3-1.3-0.3c-0.7,0-1.2,0.2-1.6,0.6c-0.4,0.4-0.6,1-0.6,1.7c0,0.7,0.2,1.3,0.6,1.7
			c0.4,0.4,0.9,0.6,1.5,0.6c0.6,0,1-0.1,1.4-0.4c0.3-0.3,0.6-0.7,0.7-1.2l-1.1-0.2c-0.1,0.3-0.2,0.5-0.3,0.6
			c-0.1,0.1-0.3,0.2-0.5,0.2c-0.3,0-0.5-0.1-0.7-0.3c-0.2-0.2-0.3-0.6-0.3-1.1c0-0.5,0.1-0.8,0.3-1c0.2-0.2,0.4-0.3,0.7-0.3
			c0.2,0,0.4,0.1,0.5,0.2c0.1,0.1,0.2,0.3,0.3,0.5l1.2-0.2C125.8,72.9,125.5,72.5,125.2,72.3 M118.3,73.2c0.2-0.2,0.4-0.3,0.7-0.3
			c0.3,0,0.5,0.1,0.7,0.3c0.2,0.2,0.3,0.6,0.3,1.1c0,0.5-0.1,0.8-0.3,1c-0.2,0.2-0.4,0.3-0.7,0.3c-0.3,0-0.6-0.2-0.8-0.5
			c-0.1-0.2-0.2-0.6-0.2-1C118,73.7,118.1,73.4,118.3,73.2 M117.9,76.4v-0.6c0.2,0.2,0.4,0.4,0.6,0.6c0.2,0.1,0.5,0.2,0.7,0.2
			c0.5,0,0.9-0.2,1.3-0.6c0.4-0.4,0.5-1,0.5-1.7c0-0.7-0.2-1.3-0.5-1.7c-0.4-0.4-0.8-0.6-1.3-0.6c-0.5,0-0.9,0.2-1.3,0.6v-2.2h-1.2
			v6.1H117.9z M113.4,75.8c-0.1,0-0.2,0-0.3-0.1c-0.1,0-0.1-0.1-0.1-0.1c0-0.1,0-0.2,0-0.4v-2.6h0.8V72H113v-1.5l-0.7,0.4V72h-0.5
			v0.6h0.5v2.5c0,0.4,0,0.7,0.1,0.9c0.1,0.1,0.2,0.3,0.3,0.3c0.2,0.1,0.4,0.1,0.6,0.1c0.2,0,0.4,0,0.6-0.1l-0.1-0.7
			C113.6,75.8,113.5,75.8,113.4,75.8 M111,72h-0.7v4.4h0.7V72z M111,70.4h-0.7v0.9h0.7V70.4z M106.2,76.2c0.3,0.2,0.7,0.4,1.3,0.4
			c0.3,0,0.7-0.1,0.9-0.2c0.3-0.1,0.5-0.3,0.6-0.5c0.1-0.2,0.2-0.5,0.2-0.7c0-0.3-0.1-0.5-0.2-0.6c-0.1-0.2-0.3-0.3-0.5-0.4
			s-0.6-0.2-1.1-0.3c-0.4-0.1-0.6-0.2-0.7-0.2c-0.1-0.1-0.2-0.1-0.3-0.2c-0.1-0.1-0.1-0.2-0.1-0.3c0-0.2,0.1-0.3,0.2-0.4
			c0.1-0.1,0.4-0.2,0.7-0.2c0.3,0,0.5,0.1,0.7,0.2c0.2,0.1,0.3,0.3,0.3,0.5l0.7-0.1c0-0.3-0.1-0.5-0.3-0.7c-0.1-0.2-0.3-0.3-0.6-0.4
			c-0.3-0.1-0.6-0.1-0.9-0.1c-0.2,0-0.4,0-0.6,0.1c-0.2,0.1-0.4,0.1-0.5,0.2c-0.2,0.1-0.3,0.2-0.4,0.4c-0.1,0.2-0.1,0.3-0.1,0.5
			c0,0.2,0.1,0.4,0.2,0.6c0.1,0.2,0.3,0.3,0.5,0.4c0.2,0.1,0.6,0.2,1.1,0.4c0.4,0.1,0.7,0.2,0.8,0.3c0.1,0.1,0.2,0.2,0.2,0.4
			c0,0.2-0.1,0.4-0.2,0.5s-0.4,0.2-0.8,0.2c-0.3,0-0.6-0.1-0.8-0.2c-0.2-0.2-0.3-0.4-0.3-0.7l-0.7,0.1
			C105.7,75.6,105.9,76,106.2,76.2 M104.8,72h-0.7v4.4h0.7V72z M104.8,70.4h-0.7v0.9h0.7V70.4z M101.7,76.4l1.7-4.4h-0.8l-1,2.7
			c-0.1,0.3-0.2,0.6-0.3,0.8c-0.1-0.3-0.2-0.6-0.3-0.9l-0.9-2.6h-0.8l1.7,4.4H101.7z M95.7,76.4c0,0.3,0,0.4-0.1,0.6
			c-0.1,0.1-0.2,0.2-0.3,0.3l0.2,0.3c0.2-0.1,0.4-0.3,0.5-0.4c0.1-0.2,0.2-0.4,0.2-0.8v-0.9h-0.9v0.9H95.7z M94,75.8
			c-0.1,0-0.2,0-0.3-0.1c-0.1,0-0.1-0.1-0.1-0.1c0-0.1,0-0.2,0-0.4v-2.6h0.8V72h-0.8v-1.5L92.9,71V72h-0.5v0.6h0.5v2.5
			c0,0.4,0,0.7,0.1,0.9c0.1,0.1,0.2,0.3,0.3,0.3c0.1,0.1,0.4,0.1,0.6,0.1c0.2,0,0.4,0,0.6-0.1l-0.1-0.7C94.2,75.8,94.1,75.8,94,75.8
			 M91.6,72h-0.7v4.4h0.7V72z M91.6,70.4h-0.7v0.9h0.7V70.4z M87.4,75.8c-0.1,0-0.2,0-0.3-0.1c-0.1,0-0.1-0.1-0.1-0.1
			c0-0.1,0-0.2,0-0.4v-2.6h0.8V72H87v-1.5L86.3,71V72h-0.5v0.6h0.5v2.5c0,0.4,0,0.7,0.1,0.9c0.1,0.1,0.2,0.3,0.3,0.3
			c0.2,0.1,0.4,0.1,0.6,0.1c0.2,0,0.4,0,0.6-0.1l-0.1-0.7C87.6,75.8,87.5,75.8,87.4,75.8 M84.4,75.7c-0.2,0.2-0.4,0.3-0.7,0.3
			c-0.4,0-0.7-0.1-0.9-0.4c-0.2-0.3-0.3-0.7-0.3-1.3c0-0.6,0.1-1,0.4-1.3c0.2-0.3,0.5-0.4,0.9-0.4c0.2,0,0.5,0.1,0.6,0.2
			c0.2,0.1,0.3,0.4,0.4,0.7l0.7-0.1c-0.1-0.4-0.3-0.8-0.6-1c-0.3-0.2-0.7-0.4-1.2-0.4c-0.4,0-0.7,0.1-1.1,0.3
			c-0.3,0.2-0.6,0.4-0.7,0.8c-0.2,0.4-0.2,0.8-0.2,1.2c0,0.7,0.2,1.3,0.6,1.7c0.4,0.4,0.9,0.6,1.5,0.6c0.5,0,0.9-0.1,1.2-0.4
			c0.3-0.3,0.5-0.7,0.6-1.2l-0.7-0.1C84.7,75.2,84.6,75.5,84.4,75.7 M78.1,72.9c0.2-0.2,0.5-0.3,0.9-0.3c0.4,0,0.7,0.1,0.9,0.4
			c0.2,0.2,0.2,0.5,0.3,0.8h-2.5C77.7,73.4,77.9,73.1,78.1,72.9 M79.7,75.7c-0.2,0.1-0.4,0.2-0.7,0.2c-0.4,0-0.7-0.1-0.9-0.4
			c-0.2-0.3-0.4-0.6-0.4-1.1H81c0-0.1,0-0.2,0-0.2c0-0.7-0.2-1.3-0.6-1.7c-0.4-0.4-0.9-0.6-1.4-0.6c-0.6,0-1.1,0.2-1.5,0.6
			c-0.4,0.4-0.6,1-0.6,1.7c0,0.7,0.2,1.3,0.6,1.7c0.4,0.4,0.9,0.6,1.5,0.6c0.5,0,0.9-0.1,1.3-0.4c0.3-0.2,0.6-0.6,0.7-1.1L80.2,75
			C80.1,75.3,79.9,75.6,79.7,75.7 M75.1,76.4v-2.3c0-0.3,0-0.6,0.1-0.9c0.1-0.2,0.1-0.3,0.3-0.4c0.1-0.1,0.3-0.1,0.4-0.1
			c0.2,0,0.4,0.1,0.5,0.2l0.3-0.7c-0.3-0.2-0.5-0.2-0.8-0.2c-0.2,0-0.3,0-0.5,0.1c-0.1,0.1-0.3,0.3-0.5,0.6V72h-0.7v4.4H75.1z
			 M72.2,76.4v-2.3c0-0.3,0-0.6,0.1-0.9c0.1-0.2,0.1-0.3,0.3-0.4c0.1-0.1,0.3-0.1,0.4-0.1c0.2,0,0.4,0.1,0.5,0.2l0.3-0.7
			c-0.3-0.2-0.5-0.2-0.8-0.2c-0.2,0-0.3,0-0.5,0.1c-0.1,0.1-0.3,0.3-0.5,0.6V72h-0.7v4.4H72.2z M67.6,73c0.2-0.3,0.6-0.4,0.9-0.4
			c0.4,0,0.7,0.1,0.9,0.4c0.2,0.3,0.4,0.7,0.4,1.2c0,0.6-0.1,1-0.4,1.3c-0.2,0.3-0.6,0.4-0.9,0.4c-0.4,0-0.7-0.1-0.9-0.4
			c-0.2-0.3-0.4-0.7-0.4-1.3C67.2,73.7,67.4,73.3,67.6,73 M67.1,76c0.4,0.4,0.9,0.6,1.5,0.6c0.4,0,0.7-0.1,1.1-0.3
			c0.3-0.2,0.6-0.4,0.7-0.8c0.2-0.3,0.3-0.8,0.3-1.3c0-0.7-0.2-1.2-0.6-1.6c-0.4-0.4-0.9-0.6-1.5-0.6c-0.5,0-1,0.2-1.4,0.5
			c-0.5,0.4-0.7,1-0.7,1.8C66.5,75,66.7,75.6,67.1,76 M65,75.7c-0.2,0.2-0.4,0.3-0.7,0.3c-0.4,0-0.7-0.1-0.9-0.4
			c-0.2-0.3-0.3-0.7-0.3-1.3c0-0.6,0.1-1,0.4-1.3c0.2-0.3,0.5-0.4,0.9-0.4c0.2,0,0.5,0.1,0.6,0.2c0.2,0.1,0.3,0.4,0.4,0.7l0.7-0.1
			c-0.1-0.4-0.3-0.8-0.6-1c-0.3-0.2-0.7-0.4-1.2-0.4c-0.4,0-0.7,0.1-1.1,0.3c-0.3,0.2-0.6,0.4-0.7,0.8c-0.2,0.4-0.2,0.8-0.2,1.2
			c0,0.7,0.2,1.3,0.5,1.7c0.4,0.4,0.9,0.6,1.5,0.6c0.5,0,0.9-0.1,1.2-0.4c0.3-0.3,0.5-0.7,0.6-1.2l-0.7-0.1
			C65.3,75.2,65.2,75.5,65,75.7 M56.3,73c0.2-0.3,0.6-0.4,0.9-0.4c0.4,0,0.7,0.1,0.9,0.4c0.2,0.3,0.4,0.7,0.4,1.2
			c0,0.6-0.1,1-0.4,1.3c-0.2,0.3-0.6,0.4-0.9,0.4c-0.4,0-0.7-0.1-0.9-0.4c-0.2-0.3-0.4-0.7-0.4-1.3C55.9,73.7,56,73.3,56.3,73
			 M55.7,76c0.4,0.4,0.9,0.6,1.5,0.6c0.4,0,0.7-0.1,1.1-0.3c0.3-0.2,0.6-0.4,0.7-0.8c0.2-0.3,0.3-0.8,0.3-1.3c0-0.7-0.2-1.2-0.6-1.6
			c-0.4-0.4-0.9-0.6-1.5-0.6c-0.5,0-1,0.2-1.4,0.5c-0.5,0.4-0.7,1-0.7,1.8C55.1,75,55.3,75.6,55.7,76 M54.4,75.8
			c-0.1,0-0.2,0-0.3-0.1c-0.1,0-0.1-0.1-0.1-0.1c0-0.1,0-0.2,0-0.4v-2.6h0.8V72h-0.8v-1.5L53.2,71V72h-0.5v0.6h0.5v2.5
			c0,0.4,0,0.7,0.1,0.9c0.1,0.1,0.2,0.3,0.3,0.3c0.2,0.1,0.4,0.1,0.6,0.1c0.2,0,0.4,0,0.6-0.1l-0.1-0.7
			C54.6,75.8,54.4,75.8,54.4,75.8 M46.2,76.4l0.9-3.4l0.2,0.8l0.7,2.6h0.8l1.4-4.4h-0.7l-0.8,2.5l-0.3,0.9l-0.2-0.8L47.5,72h-0.8
			L46,74.6c-0.1,0.6-0.2,0.9-0.2,0.9l-0.3-0.9L44.8,72H44l1.3,4.4H46.2z M40.7,73c0.2-0.3,0.6-0.4,0.9-0.4c0.4,0,0.7,0.1,0.9,0.4
			c0.2,0.3,0.4,0.7,0.4,1.2c0,0.6-0.1,1-0.4,1.3c-0.2,0.3-0.6,0.4-0.9,0.4c-0.4,0-0.7-0.1-0.9-0.4c-0.2-0.3-0.4-0.7-0.4-1.3
			C40.3,73.7,40.4,73.3,40.7,73 M40.1,76c0.4,0.4,0.9,0.6,1.5,0.6c0.4,0,0.7-0.1,1.1-0.3c0.3-0.2,0.6-0.4,0.7-0.8
			c0.2-0.3,0.3-0.8,0.3-1.3c0-0.7-0.2-1.2-0.6-1.6c-0.4-0.4-0.9-0.6-1.5-0.6c-0.5,0-1,0.2-1.4,0.5c-0.5,0.4-0.7,1-0.7,1.8
			C39.6,75,39.7,75.6,40.1,76 M35.9,76.4V74c0-0.3,0-0.6,0.1-0.8c0.1-0.2,0.2-0.4,0.4-0.5c0.2-0.1,0.4-0.2,0.6-0.2
			c0.3,0,0.5,0.1,0.7,0.3c0.2,0.2,0.2,0.4,0.2,0.8v2.8h0.7v-2.8c0-0.4-0.1-0.8-0.2-1c-0.1-0.2-0.3-0.4-0.5-0.5
			c-0.2-0.1-0.5-0.2-0.9-0.2c-0.5,0-1,0.2-1.3,0.6v-2.2h-0.7v6.1H35.9z M28.8,73c0.2-0.3,0.5-0.4,0.8-0.4c0.3,0,0.6,0.1,0.9,0.4
			c0.2,0.3,0.3,0.7,0.3,1.3c0,0.5-0.1,1-0.3,1.2c-0.2,0.3-0.5,0.4-0.8,0.4c-0.3,0-0.6-0.1-0.8-0.4c-0.2-0.3-0.4-0.7-0.4-1.3
			C28.5,73.7,28.6,73.2,28.8,73 M31.6,76.4v-6.1h-0.7v2.2c-0.1-0.2-0.3-0.3-0.5-0.4c-0.2-0.1-0.4-0.2-0.7-0.2c-0.4,0-0.7,0.1-1,0.3
			c-0.3,0.2-0.5,0.5-0.7,0.8c-0.1,0.4-0.2,0.8-0.2,1.2c0,0.5,0.1,0.9,0.2,1.2c0.2,0.3,0.4,0.6,0.7,0.8c0.3,0.2,0.6,0.3,1,0.3
			c0.5,0,1-0.2,1.2-0.7v0.6H31.6z M24,76.4V74c0-0.6,0.1-0.9,0.3-1.1c0.2-0.2,0.5-0.3,0.8-0.3c0.2,0,0.4,0,0.5,0.1s0.3,0.2,0.3,0.4
			s0.1,0.4,0.1,0.7v2.7h0.7v-2.7c0-0.3,0-0.6,0-0.7c0-0.2-0.1-0.4-0.2-0.6c-0.1-0.2-0.3-0.3-0.5-0.4c-0.2-0.1-0.5-0.1-0.7-0.1
			c-0.6,0-1.1,0.2-1.4,0.7V72h-0.7v4.4H24z M21.4,74.5c0,0.3,0,0.6-0.1,0.7c-0.1,0.2-0.3,0.4-0.5,0.5C20.5,75.9,20.3,76,20,76
			c-0.3,0-0.5-0.1-0.7-0.2c-0.2-0.1-0.2-0.3-0.2-0.5c0-0.1,0-0.2,0.1-0.4c0.1-0.1,0.2-0.2,0.3-0.2c0.1-0.1,0.3-0.1,0.7-0.1
			c0.5-0.1,0.9-0.2,1.2-0.3V74.5z M21.6,76.4h0.8c-0.1-0.2-0.2-0.3-0.2-0.5c0-0.2,0-0.6,0-1.3v-1c0-0.3,0-0.6,0-0.7
			c0-0.2-0.1-0.4-0.2-0.5c-0.1-0.1-0.3-0.2-0.5-0.3c-0.2-0.1-0.5-0.1-0.9-0.1c-0.4,0-0.7,0.1-1,0.2c-0.3,0.1-0.5,0.3-0.7,0.4
			c-0.2,0.2-0.3,0.4-0.3,0.8l0.7,0.1c0.1-0.3,0.2-0.5,0.4-0.7c0.2-0.1,0.4-0.2,0.8-0.2c0.4,0,0.7,0.1,0.9,0.3
			c0.1,0.1,0.2,0.3,0.2,0.6c0,0,0,0.1,0,0.2c-0.3,0.1-0.7,0.2-1.3,0.3c-0.3,0-0.5,0.1-0.7,0.1c-0.2,0.1-0.4,0.1-0.5,0.2
			c-0.2,0.1-0.3,0.3-0.4,0.4c-0.1,0.2-0.1,0.4-0.1,0.6c0,0.4,0.1,0.7,0.4,0.9c0.3,0.2,0.6,0.4,1.1,0.4c0.3,0,0.6,0,0.8-0.1
			c0.3-0.1,0.5-0.3,0.8-0.5C21.5,76.1,21.5,76.3,21.6,76.4"/>
		<path class="st1" d="M263.9,63.7v-2.3c0-0.3,0-0.6,0.1-0.9c0.1-0.2,0.1-0.3,0.3-0.4c0.1-0.1,0.3-0.1,0.4-0.1
			c0.2,0,0.4,0.1,0.5,0.2l0.3-0.7c-0.3-0.2-0.5-0.2-0.8-0.2c-0.2,0-0.3,0.1-0.5,0.1c-0.1,0.1-0.3,0.3-0.5,0.6v-0.7h-0.7v4.4H263.9z
			 M259.3,60.2c0.2-0.3,0.6-0.4,0.9-0.4c0.4,0,0.7,0.1,0.9,0.4c0.2,0.3,0.4,0.7,0.4,1.2c0,0.6-0.1,1-0.4,1.3
			c-0.2,0.3-0.6,0.4-0.9,0.4c-0.4,0-0.7-0.1-0.9-0.4c-0.2-0.3-0.4-0.7-0.4-1.3C258.9,60.9,259,60.5,259.3,60.2 M258.7,63.2
			c0.4,0.4,0.9,0.6,1.5,0.6c0.4,0,0.7-0.1,1.1-0.3c0.3-0.2,0.6-0.4,0.7-0.8c0.2-0.3,0.3-0.8,0.3-1.3c0-0.7-0.2-1.2-0.6-1.6
			c-0.4-0.4-0.9-0.6-1.5-0.6c-0.5,0-1,0.2-1.4,0.5c-0.5,0.4-0.7,1-0.7,1.8C258.1,62.2,258.3,62.8,258.7,63.2 M257.4,63.1
			c-0.1,0-0.2,0-0.3-0.1c-0.1,0-0.1-0.1-0.1-0.1c0-0.1,0-0.2,0-0.4v-2.6h0.8v-0.6h-0.8v-1.5l-0.7,0.4v1.1h-0.5v0.6h0.5v2.5
			c0,0.4,0,0.7,0.1,0.9c0.1,0.1,0.2,0.3,0.3,0.3c0.1,0.1,0.4,0.1,0.6,0.1c0.2,0,0.4,0,0.6-0.1l-0.1-0.7
			C257.5,63.1,257.4,63.1,257.4,63.1 M254.3,62.9c-0.2,0.2-0.4,0.3-0.7,0.3c-0.4,0-0.7-0.1-0.9-0.4c-0.2-0.3-0.3-0.7-0.3-1.3
			c0-0.6,0.1-1,0.4-1.3s0.5-0.4,0.9-0.4c0.2,0,0.5,0.1,0.6,0.2c0.2,0.1,0.3,0.4,0.4,0.7l0.7-0.1c-0.1-0.4-0.3-0.8-0.6-1
			c-0.3-0.2-0.7-0.4-1.2-0.4c-0.4,0-0.7,0.1-1.1,0.3c-0.3,0.2-0.6,0.4-0.7,0.8c-0.2,0.4-0.2,0.8-0.2,1.2c0,0.7,0.2,1.3,0.6,1.7
			c0.4,0.4,0.9,0.6,1.5,0.6c0.5,0,0.9-0.1,1.2-0.4c0.3-0.3,0.5-0.7,0.6-1.2l-0.7-0.1C254.6,62.5,254.5,62.7,254.3,62.9 M249.9,61.8
			c0,0.3,0,0.6-0.1,0.7c-0.1,0.2-0.3,0.4-0.5,0.5c-0.2,0.1-0.5,0.2-0.8,0.2c-0.3,0-0.5-0.1-0.7-0.2c-0.2-0.1-0.2-0.3-0.2-0.5
			c0-0.1,0-0.2,0.1-0.4c0.1-0.1,0.2-0.2,0.3-0.2c0.1-0.1,0.3-0.1,0.7-0.2c0.5-0.1,0.9-0.2,1.2-0.3V61.8z M250.1,63.7h0.8
			c-0.1-0.2-0.2-0.3-0.2-0.5s0-0.6,0-1.3v-1c0-0.3,0-0.6,0-0.7c0-0.2-0.1-0.4-0.2-0.5c-0.1-0.1-0.3-0.2-0.5-0.3
			c-0.2-0.1-0.5-0.1-0.9-0.1c-0.4,0-0.7,0.1-1,0.2c-0.3,0.1-0.5,0.3-0.7,0.4c-0.2,0.2-0.3,0.4-0.3,0.8l0.7,0.1
			c0.1-0.3,0.2-0.5,0.4-0.7c0.2-0.1,0.4-0.2,0.8-0.2c0.4,0,0.7,0.1,0.9,0.3c0.1,0.1,0.2,0.3,0.2,0.6c0,0,0,0.1,0,0.2
			c-0.3,0.1-0.7,0.2-1.3,0.3c-0.3,0-0.5,0.1-0.7,0.1c-0.2,0.1-0.4,0.1-0.5,0.2c-0.2,0.1-0.3,0.3-0.4,0.4c-0.1,0.2-0.1,0.4-0.1,0.6
			c0,0.4,0.1,0.7,0.4,0.9s0.6,0.4,1.1,0.4c0.3,0,0.6,0,0.8-0.1c0.3-0.1,0.5-0.3,0.8-0.5C250,63.4,250,63.5,250.1,63.7 M245.6,63.7
			v-3.8h0.9v-0.6h-0.9v-0.4c0-0.3,0-0.4,0.1-0.5c0.1-0.1,0.3-0.1,0.5-0.1c0.1,0,0.3,0,0.4,0l0.1-0.7c-0.3-0.1-0.5-0.1-0.7-0.1
			c-0.3,0-0.6,0.1-0.8,0.2c-0.2,0.1-0.3,0.3-0.4,0.5c-0.1,0.1-0.1,0.4-0.1,0.7v0.5h-0.7v0.6h0.7v3.8H245.6z M240.3,63.7v-2.3
			c0-0.3,0-0.6,0.1-0.9c0.1-0.2,0.1-0.3,0.3-0.4c0.1-0.1,0.3-0.1,0.4-0.1c0.2,0,0.4,0.1,0.5,0.2l0.3-0.7c-0.3-0.2-0.5-0.2-0.8-0.2
			c-0.2,0-0.3,0.1-0.5,0.1c-0.1,0.1-0.3,0.3-0.5,0.6v-0.7h-0.7v4.4H240.3z M235.7,60.2c0.2-0.2,0.5-0.3,0.9-0.3
			c0.4,0,0.7,0.1,0.9,0.4c0.2,0.2,0.2,0.5,0.3,0.8h-2.5C235.4,60.7,235.5,60.4,235.7,60.2 M237.4,63c-0.2,0.1-0.4,0.2-0.7,0.2
			c-0.4,0-0.7-0.1-0.9-0.4c-0.2-0.3-0.4-0.6-0.4-1.1h3.3c0-0.1,0-0.2,0-0.2c0-0.7-0.2-1.3-0.6-1.7c-0.4-0.4-0.9-0.6-1.4-0.6
			c-0.6,0-1.1,0.2-1.5,0.6c-0.4,0.4-0.6,1-0.6,1.7c0,0.7,0.2,1.3,0.6,1.7c0.4,0.4,0.9,0.6,1.5,0.6c0.5,0,0.9-0.1,1.3-0.4
			c0.3-0.2,0.6-0.6,0.7-1.1l-0.8-0.1C237.7,62.6,237.5,62.8,237.4,63 M230.3,63.7l0.9-3.4l0.2,0.8l0.7,2.6h0.8l1.4-4.4h-0.7
			l-0.8,2.5l-0.3,0.9l-0.2-0.8l-0.7-2.6h-0.8l-0.7,2.6c-0.1,0.6-0.2,0.9-0.2,0.9l-0.3-0.9l-0.7-2.5h-0.8l1.3,4.4H230.3z M224.8,60.2
			c0.2-0.3,0.6-0.4,0.9-0.4c0.4,0,0.7,0.1,0.9,0.4c0.2,0.3,0.4,0.7,0.4,1.2c0,0.6-0.1,1-0.4,1.3c-0.2,0.3-0.6,0.4-0.9,0.4
			c-0.4,0-0.7-0.1-0.9-0.4c-0.2-0.3-0.4-0.7-0.4-1.3C224.4,60.9,224.5,60.5,224.8,60.2 M224.2,63.2c0.4,0.4,0.9,0.6,1.5,0.6
			c0.4,0,0.7-0.1,1.1-0.3c0.3-0.2,0.6-0.4,0.7-0.8c0.2-0.3,0.3-0.8,0.3-1.3c0-0.7-0.2-1.2-0.6-1.6c-0.4-0.4-0.9-0.6-1.5-0.6
			c-0.5,0-1,0.2-1.4,0.5c-0.5,0.4-0.7,1-0.7,1.8C223.7,62.2,223.8,62.8,224.2,63.2 M220.2,60.2c0.2-0.3,0.5-0.4,0.8-0.4
			c0.3,0,0.6,0.1,0.8,0.4c0.2,0.3,0.3,0.7,0.3,1.3c0,0.6-0.1,1-0.4,1.3c-0.2,0.3-0.5,0.4-0.9,0.4c-0.3,0-0.6-0.1-0.8-0.4
			c-0.2-0.3-0.3-0.7-0.3-1.3S220,60.5,220.2,60.2 M219.9,65.4v-2.1c0.1,0.2,0.3,0.3,0.5,0.4c0.2,0.1,0.4,0.2,0.7,0.2
			c0.3,0,0.7-0.1,1-0.3c0.3-0.2,0.5-0.5,0.7-0.8c0.2-0.4,0.2-0.8,0.2-1.2c0-0.4-0.1-0.8-0.2-1.2c-0.1-0.4-0.4-0.6-0.7-0.8
			c-0.3-0.2-0.6-0.3-1-0.3c-0.3,0-0.5,0.1-0.7,0.2s-0.4,0.3-0.5,0.5v-0.6h-0.7v6.1H219.9z M215.8,63.1c-0.1,0-0.2,0-0.3-0.1
			c-0.1,0-0.1-0.1-0.1-0.1c0-0.1,0-0.2,0-0.4v-2.6h0.8v-0.6h-0.8v-1.5l-0.7,0.4v1.1h-0.5v0.6h0.5v2.5c0,0.4,0,0.7,0.1,0.9
			c0.1,0.1,0.2,0.3,0.3,0.3c0.1,0.1,0.4,0.1,0.6,0.1c0.2,0,0.4,0,0.6-0.1l-0.1-0.7C216,63.1,215.9,63.1,215.8,63.1 M213.3,63.7v-4.4
			h-0.7v2.4c0,0.4,0,0.7-0.1,0.9c-0.1,0.2-0.2,0.4-0.4,0.5c-0.2,0.1-0.4,0.2-0.6,0.2s-0.4-0.1-0.6-0.2c-0.2-0.1-0.3-0.3-0.3-0.5
			c0-0.1,0-0.4,0-0.8v-2.4h-0.7V62c0,0.3,0,0.6,0,0.7c0,0.2,0.1,0.4,0.2,0.6c0.1,0.2,0.3,0.3,0.5,0.4c0.2,0.1,0.5,0.1,0.7,0.1
			c0.6,0,1.1-0.2,1.4-0.7v0.6H213.3z M205.9,60.2c0.2-0.3,0.6-0.4,0.9-0.4c0.4,0,0.7,0.1,0.9,0.4c0.2,0.3,0.4,0.7,0.4,1.2
			c0,0.6-0.1,1-0.4,1.3c-0.2,0.3-0.6,0.4-0.9,0.4c-0.4,0-0.7-0.1-0.9-0.4c-0.2-0.3-0.4-0.7-0.4-1.3
			C205.5,60.9,205.6,60.5,205.9,60.2 M205.3,63.2c0.4,0.4,0.9,0.6,1.5,0.6c0.4,0,0.7-0.1,1.1-0.3c0.3-0.2,0.6-0.4,0.7-0.8
			c0.2-0.3,0.3-0.8,0.3-1.3c0-0.7-0.2-1.2-0.6-1.6c-0.4-0.4-0.9-0.6-1.5-0.6c-0.5,0-1,0.2-1.4,0.5c-0.5,0.4-0.7,1-0.7,1.8
			C204.7,62.2,204.9,62.8,205.3,63.2 M201.3,60.2c0.2-0.3,0.5-0.4,0.8-0.4c0.3,0,0.6,0.1,0.8,0.4c0.2,0.3,0.3,0.7,0.3,1.3
			c0,0.6-0.1,1-0.4,1.3c-0.2,0.3-0.5,0.4-0.8,0.4c-0.4,0-0.7-0.2-1-0.6c-0.1-0.2-0.2-0.6-0.2-1.1C201,60.9,201.1,60.5,201.3,60.2
			 M201,63.1c0.3,0.4,0.7,0.7,1.2,0.7c0.5,0,1-0.2,1.3-0.6c0.4-0.4,0.6-1,0.6-1.8c0-0.3,0-0.6-0.1-0.9c-0.1-0.3-0.2-0.5-0.4-0.7
			c-0.2-0.2-0.4-0.4-0.6-0.5c-0.2-0.1-0.5-0.2-0.8-0.2c-0.5,0-0.9,0.2-1.2,0.6v-2.2h-0.7v6.1h0.7V63.1z M198.4,61.8
			c0,0.3,0,0.6-0.1,0.7c-0.1,0.2-0.3,0.4-0.5,0.5c-0.2,0.1-0.5,0.2-0.8,0.2c-0.3,0-0.5-0.1-0.7-0.2c-0.2-0.1-0.2-0.3-0.2-0.5
			c0-0.1,0-0.2,0.1-0.4c0.1-0.1,0.2-0.2,0.3-0.2c0.1-0.1,0.3-0.1,0.7-0.2c0.5-0.1,0.9-0.2,1.2-0.3V61.8z M198.6,63.7h0.8
			c-0.1-0.2-0.2-0.3-0.2-0.5s0-0.6,0-1.3v-1c0-0.3,0-0.6,0-0.7c0-0.2-0.1-0.4-0.2-0.5c-0.1-0.1-0.3-0.2-0.5-0.3
			c-0.2-0.1-0.5-0.1-0.9-0.1c-0.4,0-0.7,0.1-1,0.2c-0.3,0.1-0.5,0.3-0.7,0.4c-0.2,0.2-0.3,0.4-0.3,0.8l0.7,0.1
			c0.1-0.3,0.2-0.5,0.4-0.7c0.2-0.1,0.4-0.2,0.8-0.2c0.4,0,0.7,0.1,0.9,0.3c0.1,0.1,0.2,0.3,0.2,0.6c0,0,0,0.1,0,0.2
			c-0.3,0.1-0.7,0.2-1.3,0.3c-0.3,0-0.5,0.1-0.7,0.1c-0.2,0.1-0.4,0.1-0.5,0.2c-0.2,0.1-0.3,0.3-0.4,0.4c-0.1,0.2-0.1,0.4-0.1,0.6
			c0,0.4,0.1,0.7,0.4,0.9c0.3,0.2,0.6,0.4,1.1,0.4c0.3,0,0.6,0,0.8-0.1c0.3-0.1,0.5-0.3,0.8-0.5C198.5,63.4,198.5,63.5,198.6,63.7
			 M189.4,60.2c0.2-0.2,0.5-0.3,0.9-0.3c0.4,0,0.7,0.1,0.9,0.4c0.2,0.2,0.2,0.5,0.3,0.8H189C189.1,60.7,189.2,60.4,189.4,60.2
			 M191,63c-0.2,0.1-0.4,0.2-0.7,0.2c-0.4,0-0.7-0.1-0.9-0.4c-0.2-0.3-0.4-0.6-0.4-1.1h3.3c0-0.1,0-0.2,0-0.2c0-0.7-0.2-1.3-0.6-1.7
			c-0.4-0.4-0.9-0.6-1.4-0.6c-0.6,0-1.1,0.2-1.5,0.6c-0.4,0.4-0.6,1-0.6,1.7c0,0.7,0.2,1.3,0.6,1.7c0.4,0.4,0.9,0.6,1.5,0.6
			c0.5,0,0.9-0.1,1.3-0.4c0.3-0.2,0.6-0.6,0.7-1.1l-0.8-0.1C191.4,62.6,191.2,62.8,191,63 M186.4,63.7v-2.3c0-0.3,0-0.6,0.1-0.9
			c0.1-0.2,0.1-0.3,0.3-0.4c0.1-0.1,0.3-0.1,0.4-0.1c0.2,0,0.4,0.1,0.5,0.2l0.3-0.7c-0.3-0.2-0.5-0.2-0.8-0.2
			c-0.2,0-0.3,0.1-0.5,0.1c-0.1,0.1-0.3,0.3-0.5,0.6v-0.7h-0.7v4.4H186.4z M181.8,60.2c0.2-0.3,0.6-0.4,0.9-0.4
			c0.4,0,0.7,0.1,0.9,0.4c0.2,0.3,0.4,0.7,0.4,1.2c0,0.6-0.1,1-0.4,1.3c-0.2,0.3-0.6,0.4-0.9,0.4c-0.4,0-0.7-0.1-0.9-0.4
			s-0.4-0.7-0.4-1.3C181.4,60.9,181.5,60.5,181.8,60.2 M181.2,63.2c0.4,0.4,0.9,0.6,1.5,0.6c0.4,0,0.7-0.1,1.1-0.3
			c0.3-0.2,0.6-0.4,0.7-0.8c0.2-0.3,0.3-0.8,0.3-1.3c0-0.7-0.2-1.2-0.6-1.6c-0.4-0.4-0.9-0.6-1.5-0.6c-0.5,0-1,0.2-1.4,0.5
			c-0.5,0.4-0.7,1-0.7,1.8C180.6,62.2,180.8,62.8,181.2,63.2 M174.6,63.7v-2.3c0-0.4,0-0.7,0.1-0.9s0.2-0.4,0.4-0.5
			c0.2-0.1,0.4-0.2,0.6-0.2c0.3,0,0.5,0.1,0.6,0.2c0.1,0.2,0.2,0.4,0.2,0.7v2.9h0.7v-2.6c0-0.5,0.1-0.8,0.3-1
			c0.2-0.2,0.5-0.3,0.8-0.3c0.2,0,0.3,0,0.4,0.1c0.1,0.1,0.2,0.2,0.3,0.3c0,0.1,0.1,0.3,0.1,0.6v2.8h0.7v-3c0-0.5-0.1-0.9-0.4-1.1
			c-0.2-0.2-0.6-0.4-1-0.4c-0.6,0-1,0.3-1.4,0.8c-0.1-0.2-0.2-0.4-0.4-0.6c-0.2-0.1-0.5-0.2-0.8-0.2c-0.3,0-0.6,0.1-0.8,0.2
			c-0.2,0.1-0.4,0.3-0.6,0.5v-0.6h-0.7v4.4H174.6z M167.5,63.7v-2.4c0-0.6,0.1-0.9,0.3-1.1s0.5-0.3,0.8-0.3c0.2,0,0.4,0,0.5,0.1
			c0.1,0.1,0.3,0.2,0.3,0.4c0.1,0.2,0.1,0.4,0.1,0.7v2.7h0.7V61c0-0.3,0-0.6,0-0.7c0-0.2-0.1-0.4-0.2-0.6c-0.1-0.2-0.3-0.3-0.5-0.4
			c-0.2-0.1-0.5-0.1-0.7-0.1c-0.6,0-1.1,0.2-1.4,0.7v-0.6h-0.7v4.4H167.5z M164.7,63.7v-2.3c0-0.3,0-0.6,0.1-0.9
			c0.1-0.2,0.1-0.3,0.3-0.4c0.1-0.1,0.3-0.1,0.4-0.1c0.2,0,0.4,0.1,0.5,0.2l0.3-0.7c-0.3-0.2-0.5-0.2-0.8-0.2
			c-0.2,0-0.3,0.1-0.5,0.1c-0.1,0.1-0.3,0.3-0.5,0.6v-0.7h-0.7v4.4H164.7z M162,61.8c0,0.3,0,0.6-0.1,0.7c-0.1,0.2-0.3,0.4-0.5,0.5
			c-0.2,0.1-0.5,0.2-0.8,0.2c-0.3,0-0.5-0.1-0.7-0.2c-0.2-0.1-0.2-0.3-0.2-0.5c0-0.1,0-0.2,0.1-0.4c0.1-0.1,0.2-0.2,0.3-0.2
			c0.1-0.1,0.3-0.1,0.7-0.2c0.5-0.1,0.9-0.2,1.2-0.3V61.8z M162.2,63.7h0.8c-0.1-0.2-0.2-0.3-0.2-0.5c0-0.2,0-0.6,0-1.3v-1
			c0-0.3,0-0.6,0-0.7c0-0.2-0.1-0.4-0.2-0.5c-0.1-0.1-0.3-0.2-0.5-0.3c-0.2-0.1-0.5-0.1-0.9-0.1c-0.4,0-0.7,0.1-1,0.2
			c-0.3,0.1-0.5,0.3-0.7,0.4c-0.2,0.2-0.3,0.4-0.3,0.8l0.7,0.1c0.1-0.3,0.2-0.5,0.4-0.7c0.2-0.1,0.4-0.2,0.8-0.2
			c0.4,0,0.7,0.1,0.9,0.3c0.1,0.1,0.2,0.3,0.2,0.6c0,0,0,0.1,0,0.2c-0.3,0.1-0.7,0.2-1.3,0.3c-0.3,0-0.5,0.1-0.7,0.1
			c-0.2,0.1-0.4,0.1-0.5,0.2c-0.2,0.1-0.3,0.3-0.4,0.4c-0.1,0.2-0.1,0.4-0.1,0.6c0,0.4,0.1,0.7,0.4,0.9c0.3,0.2,0.6,0.4,1.1,0.4
			c0.3,0,0.6,0,0.8-0.1c0.3-0.1,0.5-0.3,0.8-0.5C162.1,63.4,162.1,63.5,162.2,63.7 M155.4,60.2c0.2-0.2,0.5-0.3,0.9-0.3
			c0.4,0,0.7,0.1,0.9,0.4c0.2,0.2,0.2,0.5,0.3,0.8H155C155.1,60.7,155.2,60.4,155.4,60.2 M157,63c-0.2,0.1-0.4,0.2-0.7,0.2
			c-0.4,0-0.7-0.1-0.9-0.4c-0.2-0.3-0.4-0.6-0.4-1.1h3.3c0-0.1,0-0.2,0-0.2c0-0.7-0.2-1.3-0.6-1.7c-0.4-0.4-0.9-0.6-1.4-0.6
			c-0.6,0-1.1,0.2-1.5,0.6c-0.4,0.4-0.6,1-0.6,1.7c0,0.7,0.2,1.3,0.6,1.7s0.9,0.6,1.5,0.6c0.5,0,0.9-0.1,1.3-0.4
			c0.3-0.2,0.6-0.6,0.7-1.1l-0.8-0.1C157.4,62.6,157.2,62.8,157,63 M153.3,57.6h-0.7v6.1h0.7V57.6z M146.4,60.2
			c0.2-0.3,0.6-0.4,0.9-0.4c0.4,0,0.7,0.1,0.9,0.4c0.2,0.3,0.4,0.7,0.4,1.2c0,0.6-0.1,1-0.4,1.3c-0.2,0.3-0.6,0.4-0.9,0.4
			c-0.4,0-0.7-0.1-0.9-0.4c-0.2-0.3-0.4-0.7-0.4-1.3C146,60.9,146.1,60.5,146.4,60.2 M145.8,63.2c0.4,0.4,0.9,0.6,1.5,0.6
			c0.4,0,0.7-0.1,1.1-0.3c0.3-0.2,0.6-0.4,0.7-0.8c0.2-0.3,0.3-0.8,0.3-1.3c0-0.7-0.2-1.2-0.6-1.6c-0.4-0.4-0.9-0.6-1.5-0.6
			c-0.5,0-1,0.2-1.4,0.5c-0.5,0.4-0.7,1-0.7,1.8C145.2,62.2,145.4,62.8,145.8,63.2 M143.7,63.7v-5.4h2v-0.7h-4.8v0.7h2v5.4H143.7z
			 M137.7,62.8h-0.9v0.9h0.9V62.8z M134.8,61.5c0.1,0.2,0.2,0.4,0.2,0.8c0,0.4-0.1,0.7-0.2,0.9c-0.1,0.2-0.3,0.2-0.5,0.2
			c-0.2,0-0.3-0.1-0.5-0.2c-0.1-0.2-0.2-0.4-0.2-0.8c0-0.4,0.1-0.7,0.2-0.9c0.1-0.2,0.3-0.2,0.5-0.2
			C134.5,61.2,134.6,61.3,134.8,61.5 M133.3,63.5c0.2,0.3,0.6,0.4,0.9,0.4c0.4,0,0.7-0.1,0.9-0.4c0.3-0.3,0.4-0.7,0.4-1.2
			c0-0.5-0.1-0.9-0.4-1.2c-0.3-0.3-0.6-0.4-0.9-0.4c-0.4,0-0.7,0.2-1,0.5c-0.2,0.3-0.3,0.7-0.3,1.1C133,62.8,133.1,63.2,133.3,63.5
			 M131,63.9l3.3-6.4h-0.6l-3.3,6.4H131z M130.8,58.3c0.1,0.2,0.2,0.4,0.2,0.8c0,0.4-0.1,0.7-0.2,0.9c-0.1,0.2-0.3,0.2-0.5,0.2
			c-0.2,0-0.3-0.1-0.5-0.2c-0.1-0.2-0.2-0.4-0.2-0.8c0-0.4,0.1-0.7,0.2-0.9c0.1-0.2,0.3-0.2,0.5-0.2C130.5,58,130.7,58.1,130.8,58.3
			 M129.4,60.3c0.2,0.3,0.6,0.4,0.9,0.4c0.4,0,0.7-0.1,0.9-0.4c0.3-0.3,0.4-0.7,0.4-1.2c0-0.5-0.1-0.9-0.4-1.2
			c-0.2-0.3-0.6-0.4-0.9-0.4c-0.4,0-0.7,0.2-1,0.5c-0.2,0.3-0.3,0.7-0.3,1.1C129,59.6,129.2,60,129.4,60.3 M125.3,58.6
			c0.2-0.3,0.5-0.4,0.8-0.4c0.3,0,0.6,0.2,0.9,0.5c0.2,0.3,0.4,1,0.4,2c0,1-0.1,1.7-0.4,2c-0.2,0.3-0.5,0.5-0.9,0.5
			s-0.6-0.2-0.9-0.5c-0.2-0.3-0.3-1-0.3-2C124.9,59.7,125.1,59,125.3,58.6 M124.8,63.2c0.3,0.4,0.8,0.6,1.4,0.6
			c0.4,0,0.8-0.1,1.1-0.4s0.5-0.6,0.7-1c0.1-0.4,0.2-1,0.2-1.7c0-0.6,0-1.1-0.1-1.4c-0.1-0.4-0.2-0.7-0.4-0.9
			c-0.2-0.2-0.4-0.4-0.6-0.6s-0.5-0.2-0.9-0.2c-0.4,0-0.8,0.1-1.1,0.4c-0.3,0.2-0.5,0.6-0.7,1c-0.1,0.4-0.2,1-0.2,1.7
			C124.2,61.8,124.4,62.7,124.8,63.2 M122.3,60.6c-0.2,0.2-0.5,0.4-0.9,0.4c-0.3,0-0.6-0.1-0.9-0.4c-0.2-0.2-0.4-0.6-0.4-0.9
			c0-0.4,0.1-0.8,0.4-1.1c0.2-0.3,0.5-0.4,0.9-0.4c0.3,0,0.6,0.1,0.8,0.4c0.2,0.3,0.3,0.6,0.3,1S122.5,60.4,122.3,60.6 M120.1,63.4
			c0.3,0.3,0.7,0.4,1.2,0.4c0.4,0,0.8-0.1,1.2-0.4s0.6-0.6,0.8-1.1c0.2-0.5,0.3-1.1,0.3-1.9c0-0.7-0.1-1.3-0.3-1.7
			c-0.2-0.4-0.4-0.7-0.7-0.9c-0.3-0.2-0.7-0.3-1.1-0.3c-0.5,0-1,0.2-1.4,0.6c-0.4,0.4-0.5,0.9-0.5,1.5c0,0.6,0.2,1.1,0.5,1.4
			c0.3,0.4,0.8,0.5,1.3,0.5c0.3,0,0.6-0.1,0.8-0.2c0.3-0.1,0.5-0.3,0.6-0.6c0,0.1,0,0.1,0,0.2c0,0.3,0,0.6-0.1,0.9
			c-0.1,0.3-0.2,0.5-0.3,0.7c-0.1,0.2-0.3,0.3-0.4,0.4c-0.2,0.1-0.4,0.2-0.6,0.2c-0.3,0-0.5-0.1-0.7-0.2c-0.2-0.2-0.3-0.4-0.3-0.7
			l-0.7,0.1C119.6,62.8,119.8,63.1,120.1,63.4 M112.8,63.7l0.9-3.4l0.2,0.8l0.7,2.6h0.8l1.4-4.4h-0.7l-0.8,2.5l-0.3,0.9l-0.2-0.8
			l-0.7-2.6h-0.8l-0.7,2.6c-0.1,0.6-0.2,0.9-0.2,0.9l-0.3-0.9l-0.7-2.5h-0.8l1.3,4.4H112.8z M107.3,60.2c0.2-0.3,0.6-0.4,0.9-0.4
			c0.4,0,0.7,0.1,0.9,0.4c0.2,0.3,0.4,0.7,0.4,1.2c0,0.6-0.1,1-0.4,1.3s-0.6,0.4-0.9,0.4c-0.4,0-0.7-0.1-0.9-0.4
			c-0.2-0.3-0.4-0.7-0.4-1.3C106.9,60.9,107,60.5,107.3,60.2 M106.7,63.2c0.4,0.4,0.9,0.6,1.5,0.6c0.4,0,0.7-0.1,1.1-0.3
			c0.3-0.2,0.6-0.4,0.7-0.8c0.2-0.3,0.3-0.8,0.3-1.3c0-0.7-0.2-1.2-0.6-1.6c-0.4-0.4-0.9-0.6-1.5-0.6c-0.5,0-1,0.2-1.4,0.5
			c-0.5,0.4-0.7,1-0.7,1.8C106.2,62.2,106.3,62.8,106.7,63.2 M105.3,57.6h-0.7v6.1h0.7V57.6z M100.8,60.2c0.2-0.2,0.5-0.3,0.9-0.3
			c0.4,0,0.7,0.1,0.9,0.4c0.2,0.2,0.2,0.5,0.3,0.8h-2.5C100.4,60.7,100.5,60.4,100.8,60.2 M102.4,63c-0.2,0.1-0.4,0.2-0.7,0.2
			c-0.4,0-0.7-0.1-0.9-0.4c-0.2-0.3-0.4-0.6-0.4-1.1h3.3c0-0.1,0-0.2,0-0.2c0-0.7-0.2-1.3-0.6-1.7c-0.4-0.4-0.9-0.6-1.4-0.6
			c-0.6,0-1.1,0.2-1.5,0.6c-0.4,0.4-0.6,1-0.6,1.7c0,0.7,0.2,1.3,0.6,1.7c0.4,0.4,0.9,0.6,1.5,0.6c0.5,0,0.9-0.1,1.3-0.4
			c0.3-0.2,0.6-0.6,0.7-1.1l-0.8-0.1C102.7,62.6,102.6,62.8,102.4,63 M96.1,60.2c0.2-0.3,0.5-0.4,0.8-0.4c0.3,0,0.6,0.1,0.8,0.4
			c0.2,0.3,0.3,0.7,0.3,1.3c0,0.6-0.1,1-0.4,1.3c-0.2,0.3-0.5,0.4-0.8,0.4c-0.4,0-0.7-0.2-1-0.6c-0.1-0.2-0.2-0.6-0.2-1.1
			C95.8,60.9,95.9,60.5,96.1,60.2 M95.8,63.1c0.3,0.4,0.7,0.7,1.2,0.7c0.5,0,1-0.2,1.3-0.6c0.4-0.4,0.6-1,0.6-1.8
			c0-0.3,0-0.6-0.1-0.9c-0.1-0.3-0.2-0.5-0.4-0.7c-0.2-0.2-0.4-0.4-0.6-0.5c-0.2-0.1-0.5-0.2-0.8-0.2c-0.5,0-0.9,0.2-1.2,0.6v-2.2
			h-0.7v6.1h0.7V63.1z M88.8,63.4c0.3,0.2,0.7,0.4,1.3,0.4c0.3,0,0.7-0.1,0.9-0.2c0.3-0.1,0.5-0.3,0.6-0.5c0.1-0.2,0.2-0.5,0.2-0.7
			c0-0.3-0.1-0.5-0.2-0.6c-0.1-0.2-0.3-0.3-0.5-0.4s-0.6-0.2-1.1-0.3c-0.4-0.1-0.6-0.2-0.7-0.2c-0.1-0.1-0.2-0.1-0.3-0.2
			c-0.1-0.1-0.1-0.2-0.1-0.3c0-0.2,0.1-0.3,0.2-0.4c0.1-0.1,0.4-0.2,0.7-0.2c0.3,0,0.5,0.1,0.7,0.2c0.2,0.1,0.3,0.3,0.3,0.5l0.7-0.1
			c0-0.3-0.1-0.5-0.3-0.7c-0.1-0.2-0.3-0.3-0.6-0.4c-0.3-0.1-0.6-0.1-0.9-0.1c-0.2,0-0.4,0-0.6,0.1c-0.2,0.1-0.4,0.1-0.5,0.2
			c-0.2,0.1-0.3,0.2-0.4,0.4c-0.1,0.2-0.1,0.3-0.1,0.5c0,0.2,0.1,0.4,0.2,0.6c0.1,0.2,0.3,0.3,0.5,0.4c0.2,0.1,0.6,0.2,1.1,0.4
			c0.4,0.1,0.7,0.2,0.8,0.3c0.1,0.1,0.2,0.2,0.2,0.4c0,0.2-0.1,0.4-0.2,0.5c-0.2,0.1-0.4,0.2-0.8,0.2c-0.3,0-0.6-0.1-0.8-0.2
			c-0.2-0.2-0.3-0.4-0.3-0.7l-0.7,0.1C88.3,62.9,88.5,63.2,88.8,63.4 M87.3,59.3h-0.7v4.4h0.7V59.3z M87.3,57.6h-0.7v0.9h0.7V57.6z
			 M82.1,63.7v-2.3c0-0.3,0-0.6,0.1-0.9c0.1-0.2,0.1-0.3,0.3-0.4C82.7,60,82.8,60,83,60c0.2,0,0.4,0.1,0.5,0.2l0.3-0.7
			c-0.3-0.2-0.5-0.2-0.8-0.2c-0.2,0-0.3,0.1-0.5,0.1c-0.1,0.1-0.3,0.3-0.5,0.6v-0.7h-0.7v4.4H82.1z M77.5,60.2
			c0.2-0.3,0.6-0.4,0.9-0.4c0.4,0,0.7,0.1,0.9,0.4c0.2,0.3,0.4,0.7,0.4,1.2c0,0.6-0.1,1-0.4,1.3c-0.2,0.3-0.6,0.4-0.9,0.4
			c-0.4,0-0.7-0.1-0.9-0.4c-0.2-0.3-0.4-0.7-0.4-1.3C77.2,60.9,77.3,60.5,77.5,60.2 M77,63.2c0.4,0.4,0.9,0.6,1.5,0.6
			c0.4,0,0.7-0.1,1.1-0.3c0.3-0.2,0.6-0.4,0.7-0.8c0.2-0.3,0.3-0.8,0.3-1.3c0-0.7-0.2-1.2-0.6-1.6c-0.4-0.4-0.9-0.6-1.5-0.6
			c-0.5,0-1,0.2-1.4,0.5c-0.5,0.4-0.7,1-0.7,1.8C76.4,62.2,76.6,62.8,77,63.2 M75.6,63.1c-0.1,0-0.2,0-0.3-0.1
			c-0.1,0-0.1-0.1-0.1-0.1c0-0.1,0-0.2,0-0.4v-2.6h0.8v-0.6h-0.8v-1.5l-0.7,0.4v1.1h-0.5v0.6h0.5v2.5c0,0.4,0,0.7,0.1,0.9
			c0.1,0.1,0.2,0.3,0.3,0.3c0.1,0.1,0.4,0.1,0.6,0.1c0.2,0,0.4,0,0.6-0.1L75.9,63C75.8,63.1,75.7,63.1,75.6,63.1 M72.6,62.9
			c-0.2,0.2-0.4,0.3-0.7,0.3c-0.4,0-0.7-0.1-0.9-0.4c-0.2-0.3-0.3-0.7-0.3-1.3c0-0.6,0.1-1,0.4-1.3c0.2-0.3,0.5-0.4,0.9-0.4
			c0.2,0,0.5,0.1,0.6,0.2c0.2,0.1,0.3,0.4,0.4,0.7l0.7-0.1c-0.1-0.4-0.3-0.8-0.6-1c-0.3-0.2-0.7-0.4-1.2-0.4c-0.4,0-0.7,0.1-1.1,0.3
			c-0.3,0.2-0.6,0.4-0.7,0.8s-0.2,0.8-0.2,1.2c0,0.7,0.2,1.3,0.5,1.7c0.4,0.4,0.9,0.6,1.5,0.6c0.5,0,0.9-0.1,1.2-0.4
			c0.3-0.3,0.5-0.7,0.6-1.2l-0.7-0.1C72.9,62.5,72.8,62.7,72.6,62.9 M68.1,61.8c0,0.3,0,0.6-0.1,0.7c-0.1,0.2-0.3,0.4-0.5,0.5
			c-0.2,0.1-0.5,0.2-0.8,0.2c-0.3,0-0.5-0.1-0.7-0.2c-0.1-0.1-0.2-0.3-0.2-0.5c0-0.1,0-0.2,0.1-0.4c0.1-0.1,0.2-0.2,0.3-0.2
			c0.1-0.1,0.3-0.1,0.7-0.2c0.5-0.1,0.9-0.2,1.2-0.3V61.8z M68.4,63.7h0.8c-0.1-0.2-0.2-0.3-0.2-0.5c0-0.2,0-0.6,0-1.3v-1
			c0-0.3,0-0.6,0-0.7c0-0.2-0.1-0.4-0.2-0.5s-0.3-0.2-0.5-0.3c-0.2-0.1-0.5-0.1-0.9-0.1c-0.4,0-0.7,0.1-1,0.2
			c-0.3,0.1-0.5,0.3-0.7,0.4c-0.2,0.2-0.3,0.4-0.3,0.8l0.7,0.1c0.1-0.3,0.2-0.5,0.4-0.7c0.2-0.1,0.4-0.2,0.8-0.2
			c0.4,0,0.7,0.1,0.9,0.3c0.1,0.1,0.2,0.3,0.2,0.6c0,0,0,0.1,0,0.2c-0.3,0.1-0.7,0.2-1.3,0.3c-0.3,0-0.5,0.1-0.7,0.1
			c-0.2,0.1-0.4,0.1-0.5,0.2c-0.2,0.1-0.3,0.3-0.4,0.4c-0.1,0.2-0.1,0.4-0.1,0.6c0,0.4,0.1,0.7,0.4,0.9c0.3,0.2,0.6,0.4,1.1,0.4
			c0.3,0,0.6,0,0.8-0.1c0.3-0.1,0.5-0.3,0.8-0.5C68.2,63.4,68.3,63.5,68.4,63.7 M63.9,63.7v-3.8h0.9v-0.6h-0.9v-0.4
			c0-0.3,0-0.4,0.1-0.5c0.1-0.1,0.3-0.1,0.5-0.1c0.1,0,0.3,0,0.4,0l0.1-0.7c-0.3-0.1-0.5-0.1-0.7-0.1c-0.3,0-0.6,0.1-0.8,0.2
			c-0.2,0.1-0.3,0.3-0.4,0.5c-0.1,0.1-0.1,0.4-0.1,0.7v0.5h-0.7v0.6h0.7v3.8H63.9z M58.5,63.7v-2.3c0-0.3,0-0.6,0.1-0.9
			c0.1-0.2,0.1-0.3,0.3-0.4C59,60,59.2,60,59.4,60c0.2,0,0.4,0.1,0.5,0.2l0.3-0.7c-0.3-0.2-0.5-0.2-0.8-0.2c-0.2,0-0.3,0.1-0.5,0.1
			c-0.1,0.1-0.3,0.3-0.5,0.6v-0.7h-0.7v4.4H58.5z M54,60.2c0.2-0.2,0.5-0.3,0.9-0.3c0.4,0,0.7,0.1,0.9,0.4c0.2,0.2,0.2,0.5,0.3,0.8
			h-2.5C53.6,60.7,53.8,60.4,54,60.2 M55.6,63c-0.2,0.1-0.4,0.2-0.7,0.2c-0.4,0-0.7-0.1-0.9-0.4c-0.2-0.3-0.4-0.6-0.4-1.1h3.3
			c0-0.1,0-0.2,0-0.2c0-0.7-0.2-1.3-0.6-1.7c-0.4-0.4-0.9-0.6-1.4-0.6c-0.6,0-1.1,0.2-1.5,0.6c-0.4,0.4-0.6,1-0.6,1.7
			c0,0.7,0.2,1.3,0.6,1.7c0.4,0.4,0.9,0.6,1.5,0.6c0.5,0,0.9-0.1,1.3-0.4c0.3-0.2,0.6-0.6,0.7-1.1l-0.8-0.1
			C56,62.6,55.8,62.8,55.6,63 M48.5,63.7l0.9-3.4l0.2,0.8l0.7,2.6H51l1.4-4.4h-0.7l-0.8,2.5l-0.3,0.9l-0.2-0.8l-0.7-2.6H49l-0.7,2.6
			c-0.1,0.6-0.2,0.9-0.2,0.9l-0.3-0.9l-0.7-2.5h-0.8l1.3,4.4H48.5z M43,60.2c0.2-0.3,0.6-0.4,0.9-0.4c0.4,0,0.7,0.1,0.9,0.4
			c0.2,0.3,0.4,0.7,0.4,1.2c0,0.6-0.1,1-0.4,1.3c-0.2,0.3-0.6,0.4-0.9,0.4c-0.4,0-0.7-0.1-0.9-0.4c-0.2-0.3-0.4-0.7-0.4-1.3
			C42.7,60.9,42.8,60.5,43,60.2 M42.5,63.2c0.4,0.4,0.9,0.6,1.5,0.6c0.4,0,0.7-0.1,1.1-0.3c0.3-0.2,0.6-0.4,0.7-0.8
			C46,62.4,46,62,46,61.4c0-0.7-0.2-1.2-0.6-1.6c-0.4-0.4-0.9-0.6-1.5-0.6c-0.5,0-1,0.2-1.4,0.5c-0.5,0.4-0.7,1-0.7,1.8
			C41.9,62.2,42.1,62.8,42.5,63.2 M38.5,60.2c0.2-0.3,0.5-0.4,0.8-0.4c0.3,0,0.6,0.1,0.8,0.4c0.2,0.3,0.3,0.7,0.3,1.3
			c0,0.6-0.1,1-0.4,1.3c-0.2,0.3-0.5,0.4-0.9,0.4c-0.3,0-0.6-0.1-0.8-0.4c-0.2-0.3-0.3-0.7-0.3-1.3S38.3,60.5,38.5,60.2 M38.2,65.4
			v-2.1c0.1,0.2,0.3,0.3,0.5,0.4c0.2,0.1,0.4,0.2,0.7,0.2c0.3,0,0.7-0.1,1-0.3c0.3-0.2,0.5-0.5,0.7-0.8c0.2-0.4,0.2-0.8,0.2-1.2
			c0-0.4-0.1-0.8-0.2-1.2s-0.4-0.6-0.7-0.8c-0.3-0.2-0.6-0.3-1-0.3c-0.3,0-0.5,0.1-0.7,0.2s-0.4,0.3-0.5,0.5v-0.6h-0.7v6.1H38.2z
			 M33,63.7v-2.3c0-0.3,0-0.6,0.1-0.9c0.1-0.2,0.1-0.3,0.3-0.4c0.1-0.1,0.3-0.1,0.4-0.1c0.2,0,0.4,0.1,0.5,0.2l0.3-0.7
			c-0.3-0.2-0.5-0.2-0.8-0.2c-0.2,0-0.3,0.1-0.5,0.1c-0.1,0.1-0.3,0.3-0.5,0.6v-0.7h-0.7v4.4H33z M31.1,63.7v-4.4h-0.7v2.4
			c0,0.4,0,0.7-0.1,0.9c-0.1,0.2-0.2,0.4-0.4,0.5c-0.2,0.1-0.4,0.2-0.6,0.2c-0.2,0-0.4-0.1-0.6-0.2c-0.2-0.1-0.3-0.3-0.3-0.5
			c0-0.1,0-0.4,0-0.8v-2.4h-0.7V62c0,0.3,0,0.6,0,0.7c0,0.2,0.1,0.4,0.2,0.6c0.1,0.2,0.3,0.3,0.5,0.4c0.2,0.1,0.5,0.1,0.7,0.1
			c0.6,0,1.1-0.2,1.4-0.7v0.6H31.1z M23.7,60.2c0.2-0.3,0.6-0.4,0.9-0.4c0.4,0,0.7,0.1,0.9,0.4c0.2,0.3,0.4,0.7,0.4,1.2
			c0,0.6-0.1,1-0.4,1.3s-0.6,0.4-0.9,0.4c-0.4,0-0.7-0.1-0.9-0.4s-0.4-0.7-0.4-1.3C23.3,60.9,23.4,60.5,23.7,60.2 M23.1,63.2
			c0.4,0.4,0.9,0.6,1.5,0.6c0.4,0,0.7-0.1,1.1-0.3c0.3-0.2,0.6-0.4,0.7-0.8c0.2-0.3,0.3-0.8,0.3-1.3c0-0.7-0.2-1.2-0.6-1.6
			c-0.4-0.4-0.9-0.6-1.5-0.6c-0.5,0-1,0.2-1.4,0.5c-0.5,0.4-0.7,1-0.7,1.8C22.5,62.2,22.7,62.8,23.1,63.2 M19,65.5
			c0.2,0,0.4-0.1,0.6-0.2c0.2-0.1,0.3-0.3,0.5-0.5c0.1-0.2,0.2-0.5,0.4-1l1.7-4.5h-0.7l-0.9,2.6c-0.1,0.3-0.2,0.7-0.3,1
			c-0.1-0.4-0.2-0.7-0.3-1l-0.9-2.6h-0.8l1.7,4.4c0,0.1-0.1,0.1-0.1,0.2c-0.1,0.3-0.2,0.5-0.2,0.6c-0.1,0.1-0.1,0.2-0.2,0.2
			c-0.1,0.1-0.2,0.1-0.4,0.1c-0.1,0-0.3,0-0.4-0.1l0.1,0.7C18.7,65.5,18.9,65.5,19,65.5"/>
		<path class="st1" d="M251.5,47.4c0.2-0.2,0.5-0.3,0.9-0.3c0.4,0,0.7,0.1,0.9,0.4c0.2,0.2,0.2,0.5,0.3,0.8h-2.5
			C251.1,47.9,251.3,47.6,251.5,47.4 M253.1,50.2c-0.2,0.1-0.4,0.2-0.7,0.2c-0.4,0-0.7-0.1-0.9-0.4c-0.2-0.3-0.4-0.6-0.4-1.1h3.3
			c0-0.1,0-0.2,0-0.2c0-0.7-0.2-1.3-0.6-1.7c-0.4-0.4-0.9-0.6-1.4-0.6c-0.6,0-1.1,0.2-1.5,0.6c-0.4,0.4-0.6,1-0.6,1.7
			c0,0.7,0.2,1.3,0.6,1.7c0.4,0.4,0.9,0.6,1.5,0.6c0.5,0,0.9-0.1,1.3-0.4c0.3-0.2,0.6-0.6,0.7-1.1l-0.8-0.1
			C253.5,49.8,253.3,50.1,253.1,50.2 M246.6,50.7c0.3,0.2,0.7,0.4,1.3,0.4c0.3,0,0.7-0.1,0.9-0.2s0.5-0.3,0.6-0.5s0.2-0.5,0.2-0.7
			c0-0.3-0.1-0.5-0.2-0.6c-0.1-0.2-0.3-0.3-0.5-0.4s-0.6-0.2-1.1-0.3c-0.4-0.1-0.6-0.2-0.7-0.2c-0.1-0.1-0.2-0.1-0.3-0.2
			c-0.1-0.1-0.1-0.2-0.1-0.3c0-0.2,0.1-0.3,0.2-0.4c0.1-0.1,0.4-0.2,0.7-0.2c0.3,0,0.5,0.1,0.7,0.2c0.2,0.1,0.3,0.3,0.3,0.5l0.7-0.1
			c0-0.3-0.1-0.5-0.3-0.7c-0.1-0.2-0.3-0.3-0.6-0.4c-0.3-0.1-0.6-0.1-0.9-0.1c-0.2,0-0.4,0-0.6,0.1c-0.2,0.1-0.4,0.1-0.5,0.2
			c-0.2,0.1-0.3,0.2-0.4,0.4c-0.1,0.2-0.1,0.3-0.1,0.5c0,0.2,0.1,0.4,0.2,0.6c0.1,0.2,0.3,0.3,0.5,0.4c0.2,0.1,0.6,0.2,1.1,0.4
			c0.4,0.1,0.7,0.2,0.8,0.3c0.1,0.1,0.2,0.2,0.2,0.4c0,0.2-0.1,0.4-0.2,0.5s-0.4,0.2-0.8,0.2c-0.3,0-0.6-0.1-0.8-0.2
			c-0.2-0.2-0.3-0.4-0.3-0.7l-0.7,0.1C246.1,50.1,246.3,50.5,246.6,50.7 M245.1,50.9v-4.4h-0.7v2.4c0,0.4,0,0.7-0.1,0.9
			c-0.1,0.2-0.2,0.4-0.4,0.5c-0.2,0.1-0.4,0.2-0.6,0.2c-0.2,0-0.4-0.1-0.6-0.2c-0.2-0.1-0.3-0.3-0.3-0.5c0-0.1,0-0.4,0-0.8v-2.4
			h-0.7v2.7c0,0.3,0,0.6,0,0.7c0,0.2,0.1,0.4,0.2,0.6c0.1,0.1,0.3,0.3,0.5,0.4c0.2,0.1,0.5,0.1,0.7,0.1c0.6,0,1.1-0.2,1.4-0.7v0.6
			H245.1z M239.7,49c0,0.3,0,0.6-0.1,0.7c-0.1,0.2-0.3,0.4-0.5,0.5c-0.2,0.1-0.5,0.2-0.8,0.2c-0.3,0-0.5-0.1-0.7-0.2
			c-0.1-0.1-0.2-0.3-0.2-0.5c0-0.1,0-0.2,0.1-0.4c0.1-0.1,0.2-0.2,0.3-0.2c0.1-0.1,0.3-0.1,0.7-0.1c0.5-0.1,0.9-0.2,1.2-0.3V49z
			 M239.9,50.9h0.8c-0.1-0.2-0.2-0.3-0.2-0.5c0-0.2,0-0.6,0-1.3v-1c0-0.3,0-0.6,0-0.7c0-0.2-0.1-0.4-0.2-0.5
			c-0.1-0.1-0.3-0.2-0.5-0.3c-0.2-0.1-0.5-0.1-0.9-0.1c-0.4,0-0.7,0.1-1,0.2c-0.3,0.1-0.5,0.3-0.7,0.4c-0.2,0.2-0.3,0.4-0.3,0.8
			l0.7,0.1c0.1-0.3,0.2-0.5,0.4-0.7c0.2-0.1,0.4-0.2,0.8-0.2c0.4,0,0.7,0.1,0.9,0.3c0.1,0.1,0.2,0.3,0.2,0.6c0,0,0,0.1,0,0.2
			c-0.3,0.1-0.7,0.2-1.3,0.3c-0.3,0-0.5,0.1-0.7,0.1c-0.2,0.1-0.4,0.1-0.5,0.2c-0.2,0.1-0.3,0.3-0.4,0.4c-0.1,0.2-0.1,0.4-0.1,0.6
			c0,0.4,0.1,0.7,0.4,0.9c0.3,0.2,0.6,0.4,1.1,0.4c0.3,0,0.6,0,0.8-0.1c0.3-0.1,0.5-0.3,0.8-0.5C239.7,50.6,239.8,50.8,239.9,50.9
			 M235.1,50.2c-0.2,0.2-0.4,0.3-0.7,0.3c-0.4,0-0.7-0.1-0.9-0.4c-0.2-0.3-0.3-0.7-0.3-1.3c0-0.6,0.1-1,0.4-1.3
			c0.2-0.3,0.5-0.4,0.9-0.4c0.2,0,0.5,0.1,0.6,0.2c0.2,0.1,0.3,0.4,0.4,0.7l0.7-0.1c-0.1-0.4-0.3-0.8-0.6-1
			c-0.3-0.2-0.7-0.4-1.2-0.4c-0.4,0-0.7,0.1-1.1,0.3c-0.3,0.2-0.6,0.4-0.7,0.8c-0.2,0.4-0.2,0.8-0.2,1.2c0,0.7,0.2,1.3,0.5,1.7
			c0.4,0.4,0.9,0.6,1.5,0.6c0.5,0,0.9-0.1,1.2-0.4c0.3-0.3,0.5-0.7,0.6-1.2l-0.7-0.1C235.4,49.7,235.3,50,235.1,50.2 M228.8,47.4
			c0.2-0.2,0.5-0.3,0.9-0.3c0.4,0,0.7,0.1,0.9,0.4c0.2,0.2,0.2,0.5,0.3,0.8h-2.5C228.5,47.9,228.6,47.6,228.8,47.4 M230.4,50.2
			c-0.2,0.1-0.4,0.2-0.7,0.2c-0.4,0-0.7-0.1-0.9-0.4c-0.2-0.3-0.4-0.6-0.4-1.1h3.3c0-0.1,0-0.2,0-0.2c0-0.7-0.2-1.3-0.6-1.7
			c-0.4-0.4-0.9-0.6-1.4-0.6c-0.6,0-1.1,0.2-1.5,0.6c-0.4,0.4-0.6,1-0.6,1.7c0,0.7,0.2,1.3,0.6,1.7c0.4,0.4,0.9,0.6,1.5,0.6
			c0.5,0,0.9-0.1,1.3-0.4c0.3-0.2,0.6-0.6,0.7-1.1l-0.8-0.1C230.8,49.8,230.6,50.1,230.4,50.2 M224.2,47.5c0.2-0.3,0.5-0.4,0.8-0.4
			c0.3,0,0.6,0.1,0.8,0.4c0.2,0.3,0.3,0.7,0.3,1.3c0,0.6-0.1,1-0.4,1.3c-0.2,0.3-0.5,0.4-0.8,0.4c-0.4,0-0.7-0.2-1-0.6
			c-0.1-0.2-0.2-0.6-0.2-1.1C223.8,48.2,223.9,47.8,224.2,47.5 M223.8,50.4c0.3,0.4,0.7,0.7,1.2,0.7c0.5,0,1-0.2,1.3-0.6
			c0.4-0.4,0.6-1,0.6-1.8c0-0.3,0-0.6-0.1-0.9c-0.1-0.3-0.2-0.5-0.4-0.7c-0.2-0.2-0.4-0.4-0.6-0.5c-0.2-0.1-0.5-0.2-0.8-0.2
			c-0.5,0-0.9,0.2-1.2,0.6v-2.2h-0.7v6.1h0.7V50.4z M219.7,50.3c-0.1,0-0.2,0-0.3-0.1c-0.1,0-0.1-0.1-0.1-0.1c0-0.1,0-0.2,0-0.4
			v-2.6h0.8v-0.6h-0.8V45l-0.7,0.4v1.1H218v0.6h0.5v2.5c0,0.4,0,0.7,0.1,0.9c0.1,0.1,0.2,0.3,0.3,0.3c0.1,0.1,0.4,0.1,0.6,0.1
			c0.2,0,0.4,0,0.6-0.1l-0.1-0.7C219.9,50.3,219.8,50.3,219.7,50.3 M214.4,50.9v-2.4c0-0.6,0.1-0.9,0.3-1.1s0.5-0.3,0.8-0.3
			c0.2,0,0.4,0,0.5,0.1s0.3,0.2,0.3,0.4s0.1,0.4,0.1,0.7v2.7h0.7v-2.7c0-0.3,0-0.6,0-0.7c0-0.2-0.1-0.4-0.2-0.6
			c-0.1-0.2-0.3-0.3-0.5-0.4c-0.2-0.1-0.5-0.1-0.7-0.1c-0.6,0-1.1,0.2-1.4,0.7v-0.6h-0.7v4.4H214.4z M212.5,50.9v-4.4h-0.7v2.4
			c0,0.4,0,0.7-0.1,0.9c-0.1,0.2-0.2,0.4-0.4,0.5c-0.2,0.1-0.4,0.2-0.6,0.2s-0.4-0.1-0.6-0.2c-0.2-0.1-0.3-0.3-0.3-0.5
			c0-0.1,0-0.4,0-0.8v-2.4H209v2.7c0,0.3,0,0.6,0,0.7c0,0.2,0.1,0.4,0.2,0.6c0.1,0.1,0.3,0.3,0.5,0.4c0.2,0.1,0.5,0.1,0.7,0.1
			c0.6,0,1.1-0.2,1.4-0.7v0.6H212.5z M205.1,47.5c0.2-0.3,0.6-0.4,0.9-0.4c0.4,0,0.7,0.1,0.9,0.4c0.2,0.3,0.4,0.7,0.4,1.2
			c0,0.6-0.1,1-0.4,1.3c-0.2,0.3-0.6,0.4-0.9,0.4c-0.4,0-0.7-0.1-0.9-0.4c-0.2-0.3-0.4-0.7-0.4-1.3
			C204.7,48.2,204.9,47.8,205.1,47.5 M204.5,50.5c0.4,0.4,0.9,0.6,1.5,0.6c0.4,0,0.7-0.1,1.1-0.3c0.3-0.2,0.6-0.4,0.7-0.8
			c0.2-0.3,0.3-0.8,0.3-1.3c0-0.7-0.2-1.2-0.6-1.6c-0.4-0.4-0.9-0.6-1.5-0.6c-0.5,0-1,0.2-1.4,0.5c-0.5,0.4-0.7,1-0.7,1.8
			C204,49.5,204.2,50.1,204.5,50.5 M202.5,50.2c-0.2,0.2-0.4,0.3-0.7,0.3c-0.4,0-0.7-0.1-0.9-0.4c-0.2-0.3-0.3-0.7-0.3-1.3
			c0-0.6,0.1-1,0.4-1.3c0.2-0.3,0.5-0.4,0.9-0.4c0.2,0,0.5,0.1,0.6,0.2c0.2,0.1,0.3,0.4,0.4,0.7l0.7-0.1c-0.1-0.4-0.3-0.8-0.6-1
			c-0.3-0.2-0.7-0.4-1.2-0.4c-0.4,0-0.7,0.1-1.1,0.3c-0.3,0.2-0.6,0.4-0.7,0.8c-0.2,0.4-0.2,0.8-0.2,1.2c0,0.7,0.2,1.3,0.6,1.7
			c0.4,0.4,0.9,0.6,1.5,0.6c0.5,0,0.9-0.1,1.2-0.4c0.3-0.3,0.5-0.7,0.6-1.2l-0.7-0.1C202.8,49.7,202.7,50,202.5,50.2 M198.2,50.2
			c-0.2,0.2-0.4,0.3-0.7,0.3c-0.4,0-0.7-0.1-0.9-0.4c-0.2-0.3-0.3-0.7-0.3-1.3c0-0.6,0.1-1,0.4-1.3c0.2-0.3,0.5-0.4,0.9-0.4
			c0.2,0,0.5,0.1,0.6,0.2c0.2,0.1,0.3,0.4,0.4,0.7l0.7-0.1c-0.1-0.4-0.3-0.8-0.6-1c-0.3-0.2-0.7-0.4-1.2-0.4c-0.4,0-0.7,0.1-1.1,0.3
			c-0.3,0.2-0.6,0.4-0.7,0.8c-0.2,0.4-0.2,0.8-0.2,1.2c0,0.7,0.2,1.3,0.6,1.7c0.4,0.4,0.9,0.6,1.5,0.6c0.5,0,0.9-0.1,1.2-0.4
			c0.3-0.3,0.5-0.7,0.6-1.2l-0.7-0.1C198.6,49.7,198.4,50,198.2,50.2 M193.8,49c0,0.3,0,0.6-0.1,0.7c-0.1,0.2-0.3,0.4-0.5,0.5
			c-0.2,0.1-0.5,0.2-0.8,0.2c-0.3,0-0.5-0.1-0.7-0.2c-0.2-0.1-0.2-0.3-0.2-0.5c0-0.1,0-0.2,0.1-0.4c0.1-0.1,0.2-0.2,0.3-0.2
			c0.1-0.1,0.3-0.1,0.7-0.1c0.5-0.1,0.9-0.2,1.2-0.3V49z M194,50.9h0.8c-0.1-0.2-0.2-0.3-0.2-0.5c0-0.2,0-0.6,0-1.3v-1
			c0-0.3,0-0.6,0-0.7c0-0.2-0.1-0.4-0.2-0.5c-0.1-0.1-0.3-0.2-0.5-0.3c-0.2-0.1-0.5-0.1-0.9-0.1c-0.4,0-0.7,0.1-1,0.2
			c-0.3,0.1-0.5,0.3-0.7,0.4c-0.2,0.2-0.3,0.4-0.3,0.8l0.7,0.1c0.1-0.3,0.2-0.5,0.4-0.7c0.2-0.1,0.4-0.2,0.8-0.2
			c0.4,0,0.7,0.1,0.9,0.3c0.1,0.1,0.2,0.3,0.2,0.6c0,0,0,0.1,0,0.2c-0.3,0.1-0.7,0.2-1.3,0.3c-0.3,0-0.5,0.1-0.7,0.1
			c-0.2,0.1-0.4,0.1-0.5,0.2c-0.2,0.1-0.3,0.3-0.4,0.4c-0.1,0.2-0.1,0.4-0.1,0.6c0,0.4,0.1,0.7,0.4,0.9c0.3,0.2,0.6,0.4,1.1,0.4
			c0.3,0,0.6,0,0.8-0.1c0.3-0.1,0.5-0.3,0.8-0.5C193.9,50.6,194,50.8,194,50.9 M186.6,50.9v-2.3c0-0.3,0-0.6,0.1-0.9
			c0.1-0.2,0.1-0.3,0.3-0.4c0.1-0.1,0.3-0.1,0.4-0.1c0.2,0,0.4,0.1,0.5,0.2l0.3-0.7c-0.3-0.2-0.5-0.2-0.8-0.2c-0.2,0-0.3,0-0.5,0.1
			c-0.1,0.1-0.3,0.3-0.5,0.6v-0.7h-0.7v4.4H186.6z M184.7,50.9v-4.4h-0.7v2.4c0,0.4,0,0.7-0.1,0.9c-0.1,0.2-0.2,0.4-0.4,0.5
			c-0.2,0.1-0.4,0.2-0.6,0.2s-0.4-0.1-0.6-0.2c-0.2-0.1-0.3-0.3-0.3-0.5c0-0.1,0-0.4,0-0.8v-2.4h-0.7v2.7c0,0.3,0,0.6,0,0.7
			c0,0.2,0.1,0.4,0.2,0.6c0.1,0.1,0.3,0.3,0.5,0.4c0.2,0.1,0.5,0.1,0.7,0.1c0.6,0,1.1-0.2,1.4-0.7v0.6H184.7z M177.2,47.5
			c0.2-0.3,0.6-0.4,0.9-0.4c0.4,0,0.7,0.1,0.9,0.4c0.2,0.3,0.4,0.7,0.4,1.2c0,0.6-0.1,1-0.4,1.3c-0.2,0.3-0.6,0.4-0.9,0.4
			c-0.4,0-0.7-0.1-0.9-0.4c-0.2-0.3-0.4-0.7-0.4-1.3C176.9,48.2,177,47.8,177.2,47.5 M176.7,50.5c0.4,0.4,0.9,0.6,1.5,0.6
			c0.4,0,0.7-0.1,1.1-0.3c0.3-0.2,0.6-0.4,0.7-0.8c0.2-0.3,0.3-0.8,0.3-1.3c0-0.7-0.2-1.2-0.6-1.6c-0.4-0.4-0.9-0.6-1.5-0.6
			c-0.5,0-1,0.2-1.4,0.5c-0.5,0.4-0.7,1-0.7,1.8C176.1,49.5,176.3,50.1,176.7,50.5 M172.6,52.7c0.2,0,0.4-0.1,0.6-0.2
			c0.2-0.1,0.3-0.3,0.5-0.5c0.1-0.2,0.2-0.5,0.4-1l1.7-4.5H175l-0.9,2.6c-0.1,0.3-0.2,0.7-0.3,1c-0.1-0.4-0.2-0.7-0.3-1l-0.9-2.6
			h-0.8l1.7,4.4c0,0.1-0.1,0.1-0.1,0.2c-0.1,0.3-0.2,0.5-0.2,0.6c-0.1,0.1-0.1,0.2-0.2,0.2c-0.1,0.1-0.2,0.1-0.4,0.1
			c-0.1,0-0.3,0-0.4-0.1l0.1,0.7C172.3,52.7,172.4,52.7,172.6,52.7 M165.9,47.5c0.2-0.3,0.6-0.4,0.9-0.4c0.4,0,0.7,0.1,0.9,0.4
			c0.2,0.3,0.4,0.7,0.4,1.2c0,0.6-0.1,1-0.4,1.3c-0.2,0.3-0.6,0.4-0.9,0.4c-0.4,0-0.7-0.1-0.9-0.4c-0.2-0.3-0.4-0.7-0.4-1.3
			C165.5,48.2,165.6,47.8,165.9,47.5 M165.3,50.5c0.4,0.4,0.9,0.6,1.5,0.6c0.4,0,0.7-0.1,1.1-0.3c0.3-0.2,0.6-0.4,0.7-0.8
			c0.2-0.3,0.3-0.8,0.3-1.3c0-0.7-0.2-1.2-0.6-1.6c-0.4-0.4-0.9-0.6-1.5-0.6c-0.5,0-1,0.2-1.4,0.5c-0.5,0.4-0.7,1-0.7,1.8
			C164.7,49.5,164.9,50.1,165.3,50.5 M164,50.3c-0.1,0-0.2,0-0.3-0.1c-0.1,0-0.1-0.1-0.1-0.1c0-0.1,0-0.2,0-0.4v-2.6h0.8v-0.6h-0.8
			V45l-0.7,0.4v1.1h-0.5v0.6h0.5v2.5c0,0.4,0,0.7,0.1,0.9c0.1,0.1,0.2,0.3,0.3,0.3c0.1,0.1,0.4,0.1,0.6,0.1c0.2,0,0.4,0,0.6-0.1
			l-0.1-0.7C164.2,50.3,164.1,50.3,164,50.3 M156.4,47.5c0.2-0.3,0.5-0.4,0.8-0.4c0.3,0,0.6,0.1,0.9,0.4c0.2,0.3,0.3,0.7,0.3,1.3
			c0,0.5-0.1,1-0.3,1.2c-0.2,0.3-0.5,0.4-0.8,0.4c-0.3,0-0.6-0.1-0.8-0.4c-0.2-0.3-0.4-0.7-0.4-1.3
			C156.1,48.2,156.2,47.7,156.4,47.5 M159.1,50.9v-6.1h-0.7V47c-0.1-0.2-0.3-0.3-0.5-0.4c-0.2-0.1-0.4-0.2-0.7-0.2
			c-0.4,0-0.7,0.1-1,0.3c-0.3,0.2-0.5,0.5-0.7,0.8c-0.1,0.4-0.2,0.8-0.2,1.2c0,0.5,0.1,0.9,0.2,1.2c0.2,0.3,0.4,0.6,0.7,0.8
			c0.3,0.2,0.6,0.3,1,0.3c0.5,0,1-0.2,1.2-0.7v0.6H159.1z M151.8,47.4c0.2-0.2,0.5-0.3,0.9-0.3c0.4,0,0.7,0.1,0.9,0.4
			c0.2,0.2,0.2,0.5,0.3,0.8h-2.5C151.4,47.9,151.6,47.6,151.8,47.4 M153.4,50.2c-0.2,0.1-0.4,0.2-0.7,0.2c-0.4,0-0.7-0.1-0.9-0.4
			c-0.2-0.3-0.4-0.6-0.4-1.1h3.3c0-0.1,0-0.2,0-0.2c0-0.7-0.2-1.3-0.6-1.7c-0.4-0.4-0.9-0.6-1.4-0.6c-0.6,0-1.1,0.2-1.5,0.6
			c-0.4,0.4-0.6,1-0.6,1.7c0,0.7,0.2,1.3,0.6,1.7c0.4,0.4,0.9,0.6,1.5,0.6c0.5,0,0.9-0.1,1.3-0.4c0.3-0.2,0.6-0.6,0.7-1.1l-0.8-0.1
			C153.8,49.8,153.6,50.1,153.4,50.2 M149.7,46.5H149v4.4h0.7V46.5z M149.7,44.9H149v0.9h0.7V44.9z M147.8,44.9h-0.7v6.1h0.7V44.9z
			 M143.4,47.5c0.2-0.3,0.5-0.4,0.8-0.4c0.3,0,0.6,0.1,0.8,0.4c0.2,0.3,0.3,0.7,0.3,1.3c0,0.6-0.1,1-0.4,1.3
			c-0.2,0.3-0.5,0.4-0.9,0.4c-0.3,0-0.6-0.1-0.8-0.4c-0.2-0.3-0.3-0.7-0.3-1.3C143,48.2,143.1,47.8,143.4,47.5 M143.1,52.6v-2.1
			c0.1,0.2,0.3,0.3,0.5,0.4c0.2,0.1,0.4,0.2,0.7,0.2c0.3,0,0.7-0.1,1-0.3c0.3-0.2,0.5-0.5,0.7-0.8c0.2-0.4,0.2-0.8,0.2-1.2
			c0-0.4-0.1-0.8-0.2-1.2c-0.1-0.4-0.4-0.6-0.7-0.8c-0.3-0.2-0.6-0.3-1-0.3c-0.3,0-0.5,0.1-0.7,0.2c-0.2,0.1-0.4,0.3-0.5,0.5v-0.6
			h-0.7v6.1H143.1z M138.7,47.5c0.2-0.3,0.5-0.4,0.8-0.4c0.3,0,0.6,0.1,0.8,0.4c0.2,0.3,0.3,0.7,0.3,1.3c0,0.6-0.1,1-0.4,1.3
			c-0.2,0.3-0.5,0.4-0.9,0.4c-0.3,0-0.6-0.1-0.8-0.4c-0.2-0.3-0.3-0.7-0.3-1.3C138.3,48.2,138.4,47.8,138.7,47.5 M138.4,52.6v-2.1
			c0.1,0.2,0.3,0.3,0.5,0.4c0.2,0.1,0.4,0.2,0.7,0.2c0.3,0,0.7-0.1,1-0.3c0.3-0.2,0.5-0.5,0.7-0.8c0.2-0.4,0.2-0.8,0.2-1.2
			c0-0.4-0.1-0.8-0.2-1.2c-0.1-0.4-0.4-0.6-0.7-0.8c-0.3-0.2-0.6-0.3-1-0.3c-0.3,0-0.5,0.1-0.7,0.2c-0.2,0.1-0.4,0.3-0.5,0.5v-0.6
			h-0.7v6.1H138.4z M135.7,49c0,0.3,0,0.6-0.1,0.7c-0.1,0.2-0.3,0.4-0.5,0.5c-0.2,0.1-0.5,0.2-0.8,0.2c-0.3,0-0.5-0.1-0.7-0.2
			c-0.1-0.1-0.2-0.3-0.2-0.5c0-0.1,0-0.2,0.1-0.4c0.1-0.1,0.2-0.2,0.3-0.2c0.1-0.1,0.3-0.1,0.7-0.1c0.5-0.1,0.9-0.2,1.2-0.3V49z
			 M135.9,50.9h0.8c-0.1-0.2-0.2-0.3-0.2-0.5c0-0.2,0-0.6,0-1.3v-1c0-0.3,0-0.6,0-0.7c0-0.2-0.1-0.4-0.2-0.5
			c-0.1-0.1-0.3-0.2-0.5-0.3c-0.2-0.1-0.5-0.1-0.9-0.1c-0.4,0-0.7,0.1-1,0.2c-0.3,0.1-0.5,0.3-0.7,0.4c-0.2,0.2-0.3,0.4-0.3,0.8
			l0.7,0.1c0.1-0.3,0.2-0.5,0.4-0.7c0.2-0.1,0.4-0.2,0.8-0.2c0.4,0,0.7,0.1,0.9,0.3c0.1,0.1,0.2,0.3,0.2,0.6c0,0,0,0.1,0,0.2
			c-0.3,0.1-0.7,0.2-1.3,0.3c-0.3,0-0.5,0.1-0.7,0.1c-0.2,0.1-0.4,0.1-0.5,0.2c-0.2,0.1-0.3,0.3-0.4,0.4c-0.1,0.2-0.1,0.4-0.1,0.6
			c0,0.4,0.1,0.7,0.4,0.9c0.3,0.2,0.6,0.4,1.1,0.4c0.3,0,0.6,0,0.8-0.1c0.3-0.1,0.5-0.3,0.8-0.5C135.8,50.6,135.8,50.8,135.9,50.9
			 M126.6,50.7c0.3,0.2,0.7,0.4,1.3,0.4c0.3,0,0.7-0.1,0.9-0.2s0.5-0.3,0.6-0.5s0.2-0.5,0.2-0.7c0-0.3-0.1-0.5-0.2-0.6
			s-0.3-0.3-0.5-0.4c-0.2-0.1-0.6-0.2-1.1-0.3c-0.4-0.1-0.6-0.2-0.7-0.2c-0.1-0.1-0.2-0.1-0.3-0.2c-0.1-0.1-0.1-0.2-0.1-0.3
			c0-0.2,0.1-0.3,0.2-0.4c0.1-0.1,0.4-0.2,0.7-0.2c0.3,0,0.5,0.1,0.7,0.2s0.3,0.3,0.3,0.5l0.7-0.1c0-0.3-0.1-0.5-0.3-0.7
			c-0.1-0.2-0.3-0.3-0.6-0.4c-0.3-0.1-0.6-0.1-0.9-0.1c-0.2,0-0.4,0-0.6,0.1c-0.2,0.1-0.4,0.1-0.5,0.2c-0.2,0.1-0.3,0.2-0.4,0.4
			c-0.1,0.2-0.1,0.3-0.1,0.5c0,0.2,0.1,0.4,0.2,0.6c0.1,0.2,0.3,0.3,0.5,0.4c0.2,0.1,0.6,0.2,1.1,0.4c0.4,0.1,0.7,0.2,0.8,0.3
			c0.1,0.1,0.2,0.2,0.2,0.4c0,0.2-0.1,0.4-0.2,0.5s-0.4,0.2-0.8,0.2c-0.3,0-0.6-0.1-0.8-0.2c-0.2-0.2-0.3-0.4-0.3-0.7l-0.7,0.1
			C126.1,50.1,126.3,50.5,126.6,50.7 M124.4,49c0,0.3,0,0.6-0.1,0.7c-0.1,0.2-0.3,0.4-0.5,0.5c-0.2,0.1-0.5,0.2-0.8,0.2
			c-0.3,0-0.5-0.1-0.7-0.2c-0.2-0.1-0.2-0.3-0.2-0.5c0-0.1,0-0.2,0.1-0.4c0.1-0.1,0.2-0.2,0.3-0.2c0.1-0.1,0.3-0.1,0.7-0.1
			c0.5-0.1,0.9-0.2,1.2-0.3V49z M124.6,50.9h0.8c-0.1-0.2-0.2-0.3-0.2-0.5c0-0.2,0-0.6,0-1.3v-1c0-0.3,0-0.6,0-0.7
			c0-0.2-0.1-0.4-0.2-0.5c-0.1-0.1-0.3-0.2-0.5-0.3c-0.2-0.1-0.5-0.1-0.9-0.1c-0.4,0-0.7,0.1-1,0.2c-0.3,0.1-0.5,0.3-0.7,0.4
			c-0.2,0.2-0.3,0.4-0.3,0.8l0.7,0.1c0.1-0.3,0.2-0.5,0.4-0.7c0.2-0.1,0.4-0.2,0.8-0.2c0.4,0,0.7,0.1,0.9,0.3
			c0.1,0.1,0.2,0.3,0.2,0.6c0,0,0,0.1,0,0.2c-0.3,0.1-0.7,0.2-1.3,0.3c-0.3,0-0.5,0.1-0.7,0.1c-0.2,0.1-0.4,0.1-0.5,0.2
			c-0.2,0.1-0.3,0.3-0.4,0.4c-0.1,0.2-0.1,0.4-0.1,0.6c0,0.4,0.1,0.7,0.4,0.9c0.3,0.2,0.6,0.4,1.1,0.4c0.3,0,0.6,0,0.8-0.1
			c0.3-0.1,0.5-0.3,0.8-0.5C124.5,50.6,124.5,50.8,124.6,50.9 M117,50.9l0.9-3.4l0.2,0.8l0.7,2.6h0.8l1.4-4.4h-0.7l-0.8,2.5
			l-0.3,0.9l-0.2-0.8l-0.7-2.6h-0.8l-0.7,2.6c-0.1,0.6-0.2,0.9-0.2,0.9l-0.3-0.9l-0.7-2.5h-0.8l1.3,4.4H117z M109.3,47.4
			c0.2-0.2,0.5-0.3,0.9-0.3c0.4,0,0.7,0.1,0.9,0.4c0.2,0.2,0.2,0.5,0.3,0.8h-2.5C108.9,47.9,109,47.6,109.3,47.4 M110.9,50.2
			c-0.2,0.1-0.4,0.2-0.7,0.2c-0.4,0-0.7-0.1-0.9-0.4c-0.2-0.3-0.4-0.6-0.4-1.1h3.3c0-0.1,0-0.2,0-0.2c0-0.7-0.2-1.3-0.6-1.7
			c-0.4-0.4-0.9-0.6-1.4-0.6c-0.6,0-1.1,0.2-1.5,0.6c-0.4,0.4-0.6,1-0.6,1.7c0,0.7,0.2,1.3,0.6,1.7c0.4,0.4,0.9,0.6,1.5,0.6
			c0.5,0,0.9-0.1,1.3-0.4c0.3-0.2,0.6-0.6,0.7-1.1l-0.8-0.1C111.2,49.8,111.1,50.1,110.9,50.2 M104.4,47.5c0.2-0.3,0.5-0.4,0.8-0.4
			c0.3,0,0.6,0.1,0.9,0.4c0.2,0.3,0.4,0.7,0.4,1.2c0,0.6-0.1,1-0.3,1.2c-0.2,0.3-0.5,0.4-0.9,0.4c-0.3,0-0.6-0.1-0.9-0.4
			c-0.2-0.3-0.3-0.7-0.3-1.3C104.1,48.1,104.2,47.7,104.4,47.5 M103.9,52.4c0.3,0.2,0.7,0.4,1.3,0.4c0.4,0,0.8-0.1,1.1-0.2
			c0.3-0.2,0.5-0.4,0.7-0.7c0.1-0.3,0.2-0.8,0.2-1.5v-3.8h-0.7v0.5c-0.3-0.4-0.8-0.6-1.3-0.6c-0.4,0-0.7,0.1-1,0.3
			c-0.3,0.2-0.5,0.5-0.7,0.8c-0.2,0.4-0.2,0.7-0.2,1.2c0,0.6,0.2,1.1,0.5,1.6s0.8,0.7,1.4,0.7c0.5,0,0.9-0.2,1.2-0.6
			c0,0.5,0,0.8-0.1,1c-0.1,0.2-0.2,0.4-0.4,0.6c-0.2,0.1-0.5,0.2-0.8,0.2c-0.3,0-0.6-0.1-0.8-0.2c-0.1-0.1-0.2-0.3-0.3-0.5l-0.7-0.1
			C103.4,51.8,103.6,52.1,103.9,52.4 M101.5,50.9v-2.3c0-0.3,0-0.6,0.1-0.9c0.1-0.2,0.1-0.3,0.3-0.4c0.1-0.1,0.3-0.1,0.4-0.1
			c0.2,0,0.4,0.1,0.5,0.2l0.3-0.7c-0.3-0.2-0.5-0.2-0.8-0.2c-0.2,0-0.3,0-0.5,0.1c-0.1,0.1-0.3,0.3-0.5,0.6v-0.7h-0.7v4.4H101.5z
			 M98.9,49c0,0.3,0,0.6-0.1,0.7c-0.1,0.2-0.3,0.4-0.5,0.5c-0.2,0.1-0.5,0.2-0.8,0.2c-0.3,0-0.5-0.1-0.7-0.2
			c-0.2-0.1-0.2-0.3-0.2-0.5c0-0.1,0-0.2,0.1-0.4c0.1-0.1,0.2-0.2,0.3-0.2c0.1-0.1,0.3-0.1,0.7-0.1c0.5-0.1,0.9-0.2,1.2-0.3V49z
			 M99.1,50.9h0.8c-0.1-0.2-0.2-0.3-0.2-0.5c0-0.2,0-0.6,0-1.3v-1c0-0.3,0-0.6,0-0.7c0-0.2-0.1-0.4-0.2-0.5
			c-0.1-0.1-0.3-0.2-0.5-0.3c-0.2-0.1-0.5-0.1-0.9-0.1c-0.4,0-0.7,0.1-1,0.2c-0.3,0.1-0.5,0.3-0.7,0.4c-0.2,0.2-0.3,0.4-0.3,0.8
			l0.7,0.1c0.1-0.3,0.2-0.5,0.4-0.7c0.2-0.1,0.4-0.2,0.8-0.2c0.4,0,0.7,0.1,0.9,0.3c0.1,0.1,0.2,0.3,0.2,0.6c0,0,0,0.1,0,0.2
			c-0.3,0.1-0.7,0.2-1.3,0.3c-0.3,0-0.5,0.1-0.7,0.1c-0.2,0.1-0.4,0.1-0.5,0.2c-0.2,0.1-0.3,0.3-0.4,0.4c-0.1,0.2-0.1,0.4-0.1,0.6
			c0,0.4,0.1,0.7,0.4,0.9c0.3,0.2,0.6,0.4,1.1,0.4c0.3,0,0.6,0,0.8-0.1c0.3-0.1,0.5-0.3,0.8-0.5C98.9,50.6,99,50.8,99.1,50.9
			 M92.1,50.9v-2.4c0-0.3,0-0.6,0.1-0.8c0.1-0.2,0.2-0.4,0.4-0.5c0.2-0.1,0.4-0.2,0.6-0.2c0.3,0,0.5,0.1,0.7,0.3s0.2,0.4,0.2,0.8
			v2.8h0.7v-2.8c0-0.4-0.1-0.8-0.2-1c-0.1-0.2-0.3-0.4-0.5-0.5c-0.2-0.1-0.5-0.2-0.9-0.2c-0.5,0-1,0.2-1.3,0.6v-2.2h-0.7v6.1H92.1z
			 M89.6,50.2c-0.2,0.2-0.4,0.3-0.7,0.3c-0.4,0-0.7-0.1-0.9-0.4c-0.2-0.3-0.3-0.7-0.3-1.3c0-0.6,0.1-1,0.4-1.3
			c0.2-0.3,0.5-0.4,0.9-0.4c0.2,0,0.5,0.1,0.6,0.2c0.2,0.1,0.3,0.4,0.4,0.7l0.7-0.1c-0.1-0.4-0.3-0.8-0.6-1
			c-0.3-0.2-0.7-0.4-1.2-0.4c-0.4,0-0.7,0.1-1.1,0.3c-0.3,0.2-0.6,0.4-0.7,0.8c-0.2,0.4-0.2,0.8-0.2,1.2c0,0.7,0.2,1.3,0.6,1.7
			c0.4,0.4,0.9,0.6,1.5,0.6c0.5,0,0.9-0.1,1.2-0.4c0.3-0.3,0.5-0.7,0.6-1.2l-0.7-0.1C89.9,49.7,89.8,50,89.6,50.2 M85,50.9v-2.3
			c0-0.3,0-0.6,0.1-0.9c0.1-0.2,0.1-0.3,0.3-0.4c0.1-0.1,0.3-0.1,0.4-0.1c0.2,0,0.4,0.1,0.5,0.2l0.3-0.7c-0.3-0.2-0.5-0.2-0.8-0.2
			c-0.2,0-0.3,0-0.5,0.1c-0.1,0.1-0.3,0.3-0.5,0.6v-0.7h-0.7v4.4H85z M83.1,50.9v-4.4h-0.7v2.4c0,0.4,0,0.7-0.1,0.9
			c-0.1,0.2-0.2,0.4-0.4,0.5c-0.2,0.1-0.4,0.2-0.6,0.2c-0.2,0-0.4-0.1-0.6-0.2s-0.3-0.3-0.3-0.5c0-0.1,0-0.4,0-0.8v-2.4h-0.7v2.7
			c0,0.3,0,0.6,0,0.7c0,0.2,0.1,0.4,0.2,0.6c0.1,0.1,0.3,0.3,0.5,0.4C80.5,51,80.7,51,81,51c0.6,0,1.1-0.2,1.4-0.7v0.6H83.1z
			 M75.5,50.7c0.3,0.2,0.7,0.4,1.3,0.4c0.3,0,0.7-0.1,0.9-0.2c0.3-0.1,0.5-0.3,0.6-0.5c0.1-0.2,0.2-0.5,0.2-0.7
			c0-0.3-0.1-0.5-0.2-0.6c-0.1-0.2-0.3-0.3-0.5-0.4s-0.6-0.2-1.1-0.3c-0.4-0.1-0.6-0.2-0.7-0.2C76.1,48,76,48,75.9,47.9
			c-0.1-0.1-0.1-0.2-0.1-0.3c0-0.2,0.1-0.3,0.2-0.4c0.1-0.1,0.4-0.2,0.7-0.2c0.3,0,0.5,0.1,0.7,0.2c0.2,0.1,0.3,0.3,0.3,0.5l0.7-0.1
			c0-0.3-0.1-0.5-0.3-0.7c-0.1-0.2-0.3-0.3-0.6-0.4c-0.3-0.1-0.6-0.1-0.9-0.1c-0.2,0-0.4,0-0.6,0.1c-0.2,0.1-0.4,0.1-0.5,0.2
			c-0.2,0.1-0.3,0.2-0.4,0.4c-0.1,0.2-0.1,0.3-0.1,0.5c0,0.2,0.1,0.4,0.2,0.6c0.1,0.2,0.3,0.3,0.5,0.4c0.2,0.1,0.6,0.2,1.1,0.4
			c0.4,0.1,0.7,0.2,0.8,0.3c0.1,0.1,0.2,0.2,0.2,0.4c0,0.2-0.1,0.4-0.2,0.5s-0.4,0.2-0.8,0.2c-0.3,0-0.6-0.1-0.8-0.2
			c-0.2-0.2-0.3-0.4-0.3-0.7L75,49.6C75,50.1,75.2,50.5,75.5,50.7 M70.8,50.9v-2.3c0-0.3,0-0.6,0.1-0.9c0.1-0.2,0.1-0.3,0.3-0.4
			c0.1-0.1,0.3-0.1,0.4-0.1c0.2,0,0.4,0.1,0.5,0.2l0.3-0.7c-0.3-0.2-0.5-0.2-0.8-0.2c-0.2,0-0.3,0-0.5,0.1c-0.1,0.1-0.3,0.3-0.5,0.6
			v-0.7h-0.7v4.4H70.8z M66.2,47.5c0.2-0.3,0.6-0.4,0.9-0.4c0.4,0,0.7,0.1,0.9,0.4c0.2,0.3,0.4,0.7,0.4,1.2c0,0.6-0.1,1-0.4,1.3
			c-0.2,0.3-0.6,0.4-0.9,0.4c-0.4,0-0.7-0.1-0.9-0.4c-0.2-0.3-0.4-0.7-0.4-1.3C65.8,48.2,65.9,47.8,66.2,47.5 M65.6,50.5
			c0.4,0.4,0.9,0.6,1.5,0.6c0.4,0,0.7-0.1,1.1-0.3c0.3-0.2,0.6-0.4,0.7-0.8c0.2-0.3,0.3-0.8,0.3-1.3c0-0.7-0.2-1.2-0.6-1.6
			c-0.4-0.4-0.9-0.6-1.5-0.6c-0.5,0-1,0.2-1.4,0.5c-0.5,0.4-0.7,1-0.7,1.8C65.1,49.5,65.2,50.1,65.6,50.5 M64.3,50.3
			c-0.1,0-0.2,0-0.3-0.1c-0.1,0-0.1-0.1-0.1-0.1c0-0.1,0-0.2,0-0.4v-2.6h0.8v-0.6h-0.8V45l-0.7,0.4v1.1h-0.5v0.6h0.5v2.5
			c0,0.4,0,0.7,0.1,0.9c0.1,0.1,0.2,0.3,0.3,0.3c0.1,0.1,0.4,0.1,0.6,0.1c0.2,0,0.4,0,0.6-0.1l-0.1-0.7
			C64.5,50.3,64.4,50.3,64.3,50.3 M61.2,50.2c-0.2,0.2-0.4,0.3-0.7,0.3c-0.4,0-0.7-0.1-0.9-0.4c-0.2-0.3-0.3-0.7-0.3-1.3
			c0-0.6,0.1-1,0.4-1.3c0.2-0.3,0.5-0.4,0.9-0.4c0.2,0,0.5,0.1,0.6,0.2c0.2,0.1,0.3,0.4,0.4,0.7l0.7-0.1c-0.1-0.4-0.3-0.8-0.6-1
			c-0.3-0.2-0.7-0.4-1.2-0.4c-0.4,0-0.7,0.1-1.1,0.3c-0.3,0.2-0.6,0.4-0.7,0.8c-0.2,0.4-0.2,0.8-0.2,1.2c0,0.7,0.2,1.3,0.5,1.7
			c0.4,0.4,0.9,0.6,1.5,0.6c0.5,0,0.9-0.1,1.2-0.4c0.3-0.3,0.5-0.7,0.6-1.2l-0.7-0.1C61.5,49.7,61.4,50,61.2,50.2 M56.8,49
			c0,0.3,0,0.6-0.1,0.7c-0.1,0.2-0.3,0.4-0.5,0.5c-0.2,0.1-0.5,0.2-0.8,0.2c-0.3,0-0.5-0.1-0.7-0.2c-0.2-0.1-0.2-0.3-0.2-0.5
			c0-0.1,0-0.2,0.1-0.4c0.1-0.1,0.2-0.2,0.3-0.2c0.1-0.1,0.3-0.1,0.7-0.1c0.5-0.1,0.9-0.2,1.2-0.3V49z M57,50.9h0.8
			c-0.1-0.2-0.2-0.3-0.2-0.5s0-0.6,0-1.3v-1c0-0.3,0-0.6,0-0.7c0-0.2-0.1-0.4-0.2-0.5c-0.1-0.1-0.3-0.2-0.5-0.3
			c-0.2-0.1-0.5-0.1-0.9-0.1c-0.4,0-0.7,0.1-1,0.2c-0.3,0.1-0.5,0.3-0.7,0.4c-0.2,0.2-0.3,0.4-0.3,0.8l0.7,0.1
			c0.1-0.3,0.2-0.5,0.4-0.7c0.2-0.1,0.4-0.2,0.8-0.2c0.4,0,0.7,0.1,0.9,0.3c0.1,0.1,0.2,0.3,0.2,0.6c0,0,0,0.1,0,0.2
			c-0.3,0.1-0.7,0.2-1.3,0.3c-0.3,0-0.5,0.1-0.7,0.1c-0.2,0.1-0.4,0.1-0.5,0.2c-0.2,0.1-0.3,0.3-0.4,0.4c-0.1,0.2-0.1,0.4-0.1,0.6
			c0,0.4,0.1,0.7,0.4,0.9c0.3,0.2,0.6,0.4,1.1,0.4c0.3,0,0.6,0,0.8-0.1c0.3-0.1,0.5-0.3,0.8-0.5C56.9,50.6,56.9,50.8,57,50.9
			 M52.6,50.9v-3.8h0.9v-0.6h-0.9v-0.4c0-0.3,0-0.4,0.1-0.5c0.1-0.1,0.3-0.1,0.5-0.1c0.1,0,0.3,0,0.4,0l0.1-0.7
			c-0.3,0-0.5-0.1-0.7-0.1c-0.3,0-0.6,0.1-0.8,0.2c-0.2,0.1-0.3,0.3-0.4,0.5c-0.1,0.1-0.1,0.4-0.1,0.7v0.5h-0.7v0.6h0.7v3.8H52.6z
			 M47.2,50.9v-2.3c0-0.3,0-0.6,0.1-0.9c0.1-0.2,0.1-0.3,0.3-0.4c0.1-0.1,0.3-0.1,0.4-0.1c0.2,0,0.4,0.1,0.5,0.2l0.3-0.7
			c-0.3-0.2-0.5-0.2-0.8-0.2c-0.2,0-0.3,0-0.5,0.1c-0.1,0.1-0.3,0.3-0.5,0.6v-0.7h-0.7v4.4H47.2z M42.7,47.4
			c0.2-0.2,0.5-0.3,0.9-0.3c0.4,0,0.7,0.1,0.9,0.4c0.2,0.2,0.2,0.5,0.3,0.8h-2.5C42.3,47.9,42.4,47.6,42.7,47.4 M44.3,50.2
			c-0.2,0.1-0.4,0.2-0.7,0.2c-0.4,0-0.7-0.1-0.9-0.4c-0.2-0.3-0.4-0.6-0.4-1.1h3.3c0-0.1,0-0.2,0-0.2c0-0.7-0.2-1.3-0.6-1.7
			c-0.4-0.4-0.9-0.6-1.4-0.6c-0.6,0-1.1,0.2-1.5,0.6c-0.4,0.4-0.6,1-0.6,1.7c0,0.7,0.2,1.3,0.6,1.7c0.4,0.4,0.9,0.6,1.5,0.6
			c0.5,0,0.9-0.1,1.3-0.4c0.3-0.2,0.6-0.6,0.7-1.1l-0.8-0.1C44.6,49.8,44.5,50.1,44.3,50.2 M37.2,50.9l0.9-3.4l0.2,0.8l0.7,2.6h0.8
			l1.4-4.4h-0.7l-0.8,2.5l-0.3,0.9l-0.2-0.8l-0.7-2.6h-0.8L37,49.1c-0.1,0.6-0.2,0.9-0.2,0.9l-0.3-0.9l-0.7-2.5H35l1.3,4.4H37.2z
			 M31.7,47.5c0.2-0.3,0.6-0.4,0.9-0.4c0.4,0,0.7,0.1,0.9,0.4c0.2,0.3,0.4,0.7,0.4,1.2c0,0.6-0.1,1-0.4,1.3
			c-0.2,0.3-0.6,0.4-0.9,0.4c-0.4,0-0.7-0.1-0.9-0.4c-0.2-0.3-0.4-0.7-0.4-1.3C31.3,48.2,31.5,47.8,31.7,47.5 M31.1,50.5
			c0.4,0.4,0.9,0.6,1.5,0.6c0.4,0,0.7-0.1,1.1-0.3c0.3-0.2,0.6-0.4,0.7-0.8c0.2-0.3,0.3-0.8,0.3-1.3c0-0.7-0.2-1.2-0.6-1.6
			c-0.4-0.4-0.9-0.6-1.5-0.6c-0.5,0-1,0.2-1.4,0.5c-0.5,0.4-0.7,1-0.7,1.8C30.6,49.5,30.8,50.1,31.1,50.5 M27.2,47.5
			c0.2-0.3,0.5-0.4,0.8-0.4c0.3,0,0.6,0.1,0.8,0.4c0.2,0.3,0.3,0.7,0.3,1.3c0,0.6-0.1,1-0.4,1.3c-0.2,0.3-0.5,0.4-0.9,0.4
			c-0.3,0-0.6-0.1-0.8-0.4c-0.2-0.3-0.3-0.7-0.3-1.3C26.8,48.2,26.9,47.8,27.2,47.5 M26.9,52.6v-2.1c0.1,0.2,0.3,0.3,0.5,0.4
			C27.6,51,27.8,51,28,51c0.3,0,0.7-0.1,1-0.3c0.3-0.2,0.5-0.5,0.7-0.8c0.2-0.4,0.2-0.8,0.2-1.2c0-0.4-0.1-0.8-0.2-1.2
			c-0.1-0.4-0.4-0.6-0.7-0.8c-0.3-0.2-0.6-0.3-1-0.3c-0.3,0-0.5,0.1-0.7,0.2s-0.4,0.3-0.5,0.5v-0.6h-0.7v6.1H26.9z M20.4,46.7
			c0.1-0.4,0.2-0.8,0.3-1.2c0.1,0.3,0.2,0.8,0.4,1.3l0.6,1.7h-2.1L20.4,46.7z M18.8,50.9l0.7-1.8h2.5l0.7,1.8h0.9l-2.5-6.1h-0.9
			L18,50.9H18.8z"/>
		<path class="st1" d="M188.7,29.2h1.9v-9.8h-1.9V29.2z M185,29.2h1.9v-9.8H185V29.2z M181.2,29.2h1.8v-7h-1.8V29.2z M181,20.2
			c0,0.7,0.5,1.2,1.2,1.2c0.7,0,1.2-0.5,1.2-1.2c0-0.7-0.5-1.2-1.2-1.2C181.5,19,181,19.5,181,20.2 M177.8,25.7
			c0,1.1-0.8,1.9-1.8,1.9c-1.1,0-1.8-0.7-1.8-1.9c0-1.2,0.8-1.9,1.8-1.9C177,23.8,177.8,24.6,177.8,25.7 M172.3,19.4v9.8h1.8v-1
			c0.5,0.7,1.3,1.2,2.3,1.2c1.7,0,3.2-1.3,3.2-3.7c0-2.4-1.4-3.7-3.2-3.7c-1.1,0-1.9,0.5-2.4,1.2v-3.8H172.3z M164.3,22.2h-1.8v7
			h1.8V26c0-1.3,0.5-2,1.8-2c0.3,0,0.6,0,0.8,0.1v-2c-0.2-0.1-0.4-0.1-0.7-0.1c-1,0-1.6,0.5-2,1.3V22.2z M158.8,22.2v3.3
			c0,1.2-0.5,2-1.5,2c-0.8,0-1.2-0.5-1.2-1.5v-3.9h-1.9v4.4c0,1.7,0.8,2.8,2.4,2.8c1.1,0,1.7-0.5,2.2-1.2v1.1h1.8v-7H158.8z
			 M150.9,25.7c0,1.1-0.8,1.9-1.9,1.9c-1.1,0-1.9-0.7-1.9-1.9c0-1.1,0.8-1.9,1.9-1.9C150.1,23.8,150.9,24.6,150.9,25.7 M145.3,25.7
			c0,2.2,1.6,3.7,3.8,3.7c2.2,0,3.8-1.5,3.8-3.7c0-2.2-1.6-3.7-3.8-3.7C146.9,22,145.3,23.5,145.3,25.7 M140.8,32l4.4-9.8h-2
			l-1.7,3.8l-1.8-3.8h-2.2l3,6l-1.7,3.8H140.8z M130.5,19.4v3.8c-0.5-0.7-1.2-1.2-2.4-1.2c-1.7,0-3.2,1.3-3.2,3.7
			c0,2.4,1.5,3.7,3.2,3.7c1,0,1.8-0.4,2.3-1.2v1h1.8v-9.8H130.5z M128.8,23.8c1.1,0,1.8,0.7,1.8,1.9c0,1.2-0.8,1.9-1.8,1.9
			c-1.1,0-1.8-0.7-1.8-1.9C126.9,24.6,127.7,23.8,128.8,23.8 M118.8,22.2H117v7h1.8v-3.3c0-1.2,0.4-2,1.5-2c0.8,0,1.3,0.4,1.3,1.5
			v3.9h1.9v-4.3c0-1.8-0.8-2.8-2.5-2.8c-1,0-1.8,0.5-2.3,1.2V22.2z M110.5,24.6c0.3-0.7,1-0.9,1.8-0.9c0.8,0,1.2,0.3,1.2,0.7v0.1
			c0,0.2-0.1,0.3-0.4,0.3l-1.9,0.2c-1.3,0.1-2.2,0.9-2.2,2.2c0,1.3,1,2.2,2.4,2.2c1.1,0,1.8-0.5,2.2-1.1v1h1.8v-4.3
			c0-2-1-2.8-3.1-2.8c-1.5,0-2.7,0.5-3.1,1.6L110.5,24.6z M113.4,26.4c0,0.8-0.6,1.4-1.6,1.4c-0.7,0-1-0.3-1-0.7
			c0-0.4,0.3-0.7,0.9-0.8l1.7-0.2V26.4z M101.3,22.2h-1.8v7h1.8V26c0-1.3,0.5-2,1.8-2c0.3,0,0.6,0,0.8,0.1v-2
			c-0.2-0.1-0.4-0.1-0.7-0.1c-1,0-1.6,0.5-2,1.3V22.2z M96.2,25.7c0,1.1-0.8,1.9-1.9,1.9c-1.1,0-1.9-0.7-1.9-1.9
			c0-1.1,0.8-1.9,1.9-1.9C95.4,23.8,96.2,24.6,96.2,25.7 M90.6,25.7c0,2.2,1.6,3.7,3.8,3.7c2.2,0,3.8-1.5,3.8-3.7
			c0-2.2-1.6-3.7-3.8-3.7C92.2,22,90.6,23.5,90.6,25.7 M89.7,27.3c-0.5,0.1-0.7,0.1-1,0.1c-0.5,0-0.7-0.2-0.7-0.6v-3h1.8v-1.6H88
			v-1.9h-1.8v1.9h-1.3v1.6h1.3v3.3c0,1.6,0.8,2.2,2.1,2.2c0.5,0,1-0.1,1.5-0.2V27.3z M77.8,25.7c0,2.2,1.6,3.7,3.7,3.7
			c1.2,0,2.1-0.4,2.7-1l-1-1.5c-0.4,0.4-0.9,0.7-1.7,0.7c-1.1,0-1.8-0.7-1.8-1.9c0-1.1,0.8-1.9,1.8-1.9c0.7,0,1.2,0.3,1.6,0.7l1-1.5
			c-0.6-0.6-1.5-1-2.7-1C79.4,22,77.8,23.5,77.8,25.7 M71.7,24.6c0.3-0.7,1-0.9,1.8-0.9c0.8,0,1.2,0.3,1.2,0.7v0.1
			c0,0.2-0.1,0.3-0.4,0.3L72.4,25c-1.3,0.1-2.2,0.9-2.2,2.2c0,1.3,1,2.2,2.4,2.2c1.1,0,1.8-0.5,2.2-1.1v1h1.8v-4.3
			c0-2-1-2.8-3.1-2.8c-1.5,0-2.7,0.5-3.1,1.6L71.7,24.6z M74.7,26.4c0,0.8-0.6,1.4-1.6,1.4c-0.7,0-1-0.3-1-0.7
			c0-0.4,0.3-0.7,0.9-0.8l1.7-0.2V26.4z M69.5,23.8v-1.6h-2V22c0-0.7,0.3-1.1,1-1.1c0.3,0,0.6,0,1.1,0.1v-1.7
			c-0.5-0.1-0.9-0.1-1.4-0.1c-1.4,0-2.5,0.8-2.5,2.6v0.3h-1.4v1.6h1.4v5.4h1.8v-5.4H69.5z M56.9,22.2h-1.8v7h1.8V26
			c0-1.3,0.5-2,1.8-2c0.3,0,0.6,0,0.8,0.1v-2c-0.2-0.1-0.4-0.1-0.7-0.1c-1,0-1.6,0.5-2,1.3V22.2z M48.6,24.9
			c0.2-0.8,0.8-1.3,1.7-1.3c0.9,0,1.4,0.5,1.5,1.3H48.6z M46.7,25.7c0,2.1,1.4,3.7,3.8,3.7c1.3,0,2.2-0.4,2.8-0.9l-0.8-1.5
			c-0.5,0.4-1.1,0.7-2,0.7c-0.8,0-1.7-0.4-1.9-1.3l0,0h5.2v-0.5c0-2.3-1.3-3.7-3.5-3.7C48.1,22,46.7,23.6,46.7,25.7 M38.8,29.2
			l1.8-4.2l1.8,4.2h1.4l2.8-7h-2L43,26.4l-1.7-4.2h-1.5l-1.7,4.2l-1.6-4.2h-2l2.8,7H38.8z M32.5,25.7c0,1.1-0.8,1.9-1.9,1.9
			c-1.1,0-1.9-0.7-1.9-1.9c0-1.1,0.8-1.9,1.9-1.9C31.7,23.8,32.5,24.6,32.5,25.7 M26.9,25.7c0,2.2,1.6,3.7,3.8,3.7
			c2.2,0,3.8-1.5,3.8-3.7c0-2.2-1.6-3.7-3.8-3.7C28.5,22,26.9,23.5,26.9,25.7 M24.4,22.8c0,0.8-0.5,1.5-1.5,1.5H21v-2.9h1.9
			C23.8,21.4,24.4,22,24.4,22.8 M19,19.4v9.8h2v-3h1.9c2,0,3.4-1.5,3.4-3.4c0-2-1.4-3.4-3.4-3.4H19z"/>
	</g>
	<polyline class="st2" points="157.3,152.4 152.9,160.5 127.5,160.1 104.3,184 84.2,169.3 	"/>
	<polyline class="st3" points="188.9,130.8 169.1,130.8 156.9,153.5 	"/>
	<path class="st4" d="M157.1,154.3H84.3 M157.1,154.3h31.8"/>
	<g>
		<defs>
			<rect id="SVGID_3_" width="284.4" height="213.8"/>
		</defs>
		<clipPath id="SVGID_4_">
			<use xlink:href="#SVGID_3_"  style="overflow:visible;"/>
		</clipPath>
		<path class="st5" d="M88.3,137.3c-1.3,0-2.3,0.9-2.3,2.2c0,1.3,0.9,2.1,2.3,2.1c1.3,0,2.3-0.9,2.3-2.2
			C90.6,138.1,89.6,137.3,88.3,137.3 M88.4,134.2c1.9,0,3.3,0.8,4.2,2c0.9,1.3,1.3,3.1,1.3,5.3c0,4.6-1.6,8.3-6.4,8.3
			c-1.4,0-2.6-0.3-3.9-0.9l1.1-2.8c0.9,0.4,2,0.6,2.9,0.6c1.9,0,2.9-1.3,3-2.6v0c-0.7,0.4-1.4,0.7-2.5,0.7c-2.8,0-5-1.9-5-5.1
			C83,136.4,85.2,134.2,88.4,134.2"/>
		<path class="st5" d="M103.4,137.3c-2.5,0-4.3,1.8-4.3,4.7c0,2.9,1.8,4.7,4.3,4.7c2.5,0,4.3-1.8,4.3-4.7
			C107.7,139.1,105.9,137.3,103.4,137.3 M103.4,134.2c4.2,0,7.4,3.1,7.4,7.8c0,4.7-3.3,7.8-7.4,7.8c-4.2,0-7.4-3.1-7.4-7.8
			C95.9,137.4,99.2,134.2,103.4,134.2"/>
		<path class="st5" d="M124.4,146.2c0,0.9,0.7,1.6,1.6,1.6c0.9,0,1.6-0.7,1.6-1.6s-0.7-1.6-1.6-1.6
			C125.1,144.6,124.4,145.3,124.4,146.2 M126,142.6c2,0,3.6,1.6,3.6,3.6c0,2-1.6,3.6-3.6,3.6c-2,0-3.6-1.6-3.6-3.6
			C122.4,144.2,124,142.6,126,142.6 M116.4,136.3c-0.9,0-1.6,0.7-1.6,1.6c0,0.9,0.7,1.6,1.6,1.6c0.9,0,1.6-0.7,1.6-1.6
			C118,136.9,117.3,136.3,116.4,136.3 M126.7,133.7l1.4,1.2l-12.5,15.5l-1.4-1.2L126.7,133.7z M120,137.8c0,2-1.6,3.6-3.6,3.6
			c-2.1,0-3.6-1.6-3.6-3.6c0-2,1.6-3.6,3.6-3.6C118.5,134.2,120,135.8,120,137.8"/>
	</g>
</g>
</svg>
