<?xml version="1.0" encoding="utf-8"?>
<!-- Generator: Adobe Illustrator 20.1.0, SVG Export Plug-In . SVG Version: 6.00 Build 0)  -->
<svg version="1.1" id="Layer_1" xmlns="http://www.w3.org/2000/svg" xmlns:xlink="http://www.w3.org/1999/xlink" x="0px" y="0px"
	 viewBox="0 0 284.4 213.8" style="enable-background:new 0 0 284.4 213.8;" xml:space="preserve">
<style type="text/css">
	.st0{fill:#F5F4F2;}
	.st1{fill:none;stroke:#F04923;stroke-width:4.56;stroke-linecap:round;stroke-miterlimit:10;}
	.st2{fill:none;stroke:#51B848;stroke-width:4.56;stroke-linecap:round;stroke-miterlimit:10;}
	.st3{fill:none;stroke:#3E3935;stroke-width:3.04;stroke-miterlimit:10;}
	.st4{clip-path:url(#SVGID_2_);fill:#3E3935;}
</style>
<g>
	<rect class="st0" width="284.4" height="213.8"/>
	<polyline class="st1" points="157.3,152.4 152.9,160.5 127.5,160.1 104.3,184 84.2,169.3 	"/>
	<polyline class="st2" points="188.9,130.8 169.1,130.8 156.9,153.5 	"/>
	<path class="st3" d="M157.1,154.3H84.3 M157.1,154.3h31.8"/>
	<g>
		<defs>
			<rect id="SVGID_1_" width="284.4" height="213.8"/>
		</defs>
		<clipPath id="SVGID_2_">
			<use xlink:href="#SVGID_1_"  style="overflow:visible;"/>
		</clipPath>
		<path class="st4" d="M88.3,137.3c-1.3,0-2.3,0.9-2.3,2.2c0,1.3,0.9,2.1,2.3,2.1c1.3,0,2.3-0.9,2.3-2.2
			C90.6,138.1,89.6,137.3,88.3,137.3 M88.4,134.2c1.9,0,3.3,0.8,4.2,2c0.9,1.3,1.3,3.1,1.3,5.3c0,4.6-1.6,8.3-6.4,8.3
			c-1.4,0-2.6-0.3-3.9-0.9l1.1-2.8c0.9,0.4,2,0.6,2.9,0.6c1.9,0,2.9-1.3,3-2.6v0c-0.7,0.4-1.4,0.7-2.5,0.7c-2.8,0-5-1.9-5-5.1
			C83,136.4,85.2,134.2,88.4,134.2"/>
		<path class="st4" d="M103.4,137.3c-2.5,0-4.3,1.8-4.3,4.7c0,2.9,1.8,4.7,4.3,4.7c2.5,0,4.3-1.8,4.3-4.7
			C107.7,139.1,105.9,137.3,103.4,137.3 M103.4,134.2c4.2,0,7.4,3.1,7.4,7.8c0,4.7-3.3,7.8-7.4,7.8c-4.2,0-7.4-3.1-7.4-7.8
			C95.9,137.4,99.2,134.2,103.4,134.2"/>
		<path class="st4" d="M124.4,146.2c0,0.9,0.7,1.6,1.6,1.6c0.9,0,1.6-0.7,1.6-1.6s-0.7-1.6-1.6-1.6
			C125.1,144.6,124.4,145.3,124.4,146.2 M126,142.6c2,0,3.6,1.6,3.6,3.6c0,2-1.6,3.6-3.6,3.6c-2,0-3.6-1.6-3.6-3.6
			C122.4,144.2,124,142.6,126,142.6 M116.4,136.3c-0.9,0-1.6,0.7-1.6,1.6c0,0.9,0.7,1.6,1.6,1.6c0.9,0,1.6-0.7,1.6-1.6
			C118,136.9,117.3,136.3,116.4,136.3 M126.7,133.7l1.4,1.2l-12.5,15.5l-1.4-1.2L126.7,133.7z M120,137.8c0,2-1.6,3.6-3.6,3.6
			c-2.1,0-3.6-1.6-3.6-3.6c0-2,1.6-3.6,3.6-3.6C118.5,134.2,120,135.8,120,137.8"/>
	</g>
	<g>
		<path d="M22.9,19.4c2,0,3.4,1.5,3.4,3.4c0,2-1.4,3.4-3.4,3.4H21v3h-2v-9.8H22.9z M22.9,21.4H21v2.9h1.9c1,0,1.5-0.6,1.5-1.5
			C24.4,22,23.8,21.4,22.9,21.4z"/>
		<path d="M30.7,22c2.2,0,3.8,1.5,3.8,3.7s-1.6,3.7-3.8,3.7c-2.2,0-3.8-1.5-3.8-3.7S28.5,22,30.7,22z M30.7,23.8
			c-1.1,0-1.9,0.7-1.9,1.9s0.8,1.9,1.9,1.9c1.1,0,1.9-0.7,1.9-1.9S31.7,23.8,30.7,23.8z"/>
		<path d="M37.4,29.2l-2.8-7h2l1.6,4.2l1.7-4.2h1.5l1.7,4.2l1.6-4.2h2l-2.8,7h-1.4L40.6,25l-1.8,4.2H37.4z"/>
		<path d="M50.3,22c2.1,0,3.5,1.5,3.5,3.7v0.5h-5.2l0,0c0.2,0.9,1.1,1.3,1.9,1.3c0.8,0,1.5-0.3,2-0.7l0.8,1.5
			c-0.6,0.5-1.4,0.9-2.8,0.9c-2.4,0-3.8-1.6-3.8-3.7C46.7,23.6,48.1,22,50.3,22z M51.7,24.9c-0.1-0.8-0.6-1.3-1.5-1.3
			s-1.5,0.5-1.7,1.3H51.7z"/>
		<path d="M56.9,23.3c0.4-0.8,1-1.3,2-1.3c0.3,0,0.5,0,0.7,0.1v2C59.3,24,59,24,58.7,24c-1.2,0-1.8,0.7-1.8,2v3.2h-1.8v-7h1.8V23.3z
			"/>
		<path d="M67.5,23.8v5.4h-1.8v-5.4h-1.4v-1.6h1.4v-0.4c0-1.8,1.1-2.6,2.5-2.6c0.5,0,0.9,0.1,1.4,0.1v1.7C69.1,21,68.8,21,68.5,21
			c-0.7,0-1,0.4-1,1.1v0.2h2v1.6H67.5z"/>
		<path d="M70.3,23.6c0.5-1.1,1.6-1.6,3.1-1.6c2.1,0,3.1,0.9,3.1,2.8v4.3h-1.8v-1c-0.4,0.6-1.1,1.1-2.2,1.1c-1.4,0-2.4-0.9-2.4-2.2
			c0-1.3,1-2.1,2.2-2.2l1.9-0.2c0.2,0,0.4-0.1,0.4-0.3v-0.1c0-0.4-0.4-0.7-1.2-0.7c-0.7,0-1.5,0.2-1.8,0.9L70.3,23.6z M74.7,26.1
			l-1.7,0.2c-0.6,0.1-0.9,0.4-0.9,0.8c0,0.4,0.3,0.7,1,0.7c1,0,1.6-0.7,1.6-1.4V26.1z"/>
		<path d="M81.6,22c1.1,0,2,0.4,2.7,1l-1.1,1.5c-0.4-0.4-0.9-0.7-1.6-0.7c-1.1,0-1.8,0.7-1.8,1.9s0.8,1.9,1.8,1.9
			c0.7,0,1.3-0.3,1.7-0.7l1,1.5c-0.6,0.6-1.5,1-2.7,1c-2.1,0-3.7-1.4-3.7-3.7C77.8,23.5,79.4,22,81.6,22z"/>
		<path d="M89.7,29.1c-0.5,0.1-1.1,0.2-1.5,0.2c-1.3,0-2.1-0.6-2.1-2.2v-3.3h-1.3v-1.6h1.3v-1.9H88v1.9h1.8v1.6H88v3
			c0,0.4,0.2,0.6,0.7,0.6c0.3,0,0.5,0,1-0.1V29.1z"/>
		<path d="M94.3,22c2.2,0,3.8,1.5,3.8,3.7s-1.6,3.7-3.8,3.7c-2.2,0-3.8-1.5-3.8-3.7S92.2,22,94.3,22z M94.3,23.8
			c-1.1,0-1.9,0.7-1.9,1.9s0.8,1.9,1.9,1.9c1.1,0,1.9-0.7,1.9-1.9S95.4,23.8,94.3,23.8z"/>
		<path d="M101.3,23.3c0.4-0.8,1-1.3,2-1.3c0.3,0,0.5,0,0.7,0.1v2c-0.3-0.1-0.5-0.1-0.8-0.1c-1.2,0-1.8,0.7-1.8,2v3.2h-1.8v-7h1.8
			V23.3z"/>
		<path d="M109,23.6c0.5-1.1,1.6-1.6,3.1-1.6c2.1,0,3.1,0.9,3.1,2.8v4.3h-1.8v-1c-0.4,0.6-1.1,1.1-2.2,1.1c-1.4,0-2.4-0.9-2.4-2.2
			c0-1.3,1-2.1,2.2-2.2l1.9-0.2c0.2,0,0.4-0.1,0.4-0.3v-0.1c0-0.4-0.4-0.7-1.2-0.7c-0.7,0-1.5,0.2-1.8,0.9L109,23.6z M113.4,26.1
			l-1.7,0.2c-0.6,0.1-0.9,0.4-0.9,0.8c0,0.4,0.3,0.7,1,0.7c1,0,1.6-0.7,1.6-1.4V26.1z"/>
		<path d="M118.8,23.2c0.5-0.7,1.2-1.2,2.3-1.2c1.6,0,2.5,1.1,2.5,2.8v4.3h-1.9v-3.9c0-1.1-0.5-1.5-1.3-1.5c-1.1,0-1.5,0.8-1.5,2
			v3.3H117v-7h1.8V23.2z"/>
		<path d="M132.3,19.4v9.8h-1.8v-1c-0.5,0.7-1.3,1.2-2.3,1.2c-1.7,0-3.2-1.3-3.2-3.7c0-2.4,1.4-3.7,3.2-3.7c1.1,0,1.9,0.5,2.4,1.2
			v-3.8H132.3z M126.9,25.7c0,1.1,0.8,1.9,1.8,1.9c1.1,0,1.8-0.7,1.8-1.9c0-1.2-0.8-1.9-1.8-1.9C127.6,23.8,126.9,24.6,126.9,25.7z"
			/>
		<path d="M138.7,32l1.7-3.8l-3-6h2.2l1.8,3.8l1.7-3.8h2l-4.4,9.8H138.7z"/>
		<path d="M149,22c2.2,0,3.8,1.5,3.8,3.7s-1.6,3.7-3.8,3.7s-3.8-1.5-3.8-3.7S146.9,22,149,22z M149,23.8c-1.1,0-1.9,0.7-1.9,1.9
			s0.8,1.9,1.9,1.9s1.9-0.7,1.9-1.9S150.1,23.8,149,23.8z"/>
		<path d="M160.6,22.2v7h-1.8v-1.1c-0.5,0.7-1.2,1.2-2.2,1.2c-1.6,0-2.4-1.1-2.4-2.8v-4.4h1.9v3.9c0,1,0.4,1.5,1.2,1.5
			c1.1,0,1.5-0.8,1.5-2v-3.3H160.6z"/>
		<path d="M164.3,23.3c0.4-0.8,1-1.3,2-1.3c0.3,0,0.5,0,0.7,0.1v2c-0.3-0.1-0.5-0.1-0.8-0.1c-1.2,0-1.8,0.7-1.8,2v3.2h-1.8v-7h1.8
			V23.3z"/>
		<path d="M174.1,19.4v3.8c0.5-0.7,1.2-1.2,2.4-1.2c1.7,0,3.2,1.3,3.2,3.7c0,2.4-1.5,3.7-3.2,3.7c-1,0-1.8-0.4-2.3-1.2v1h-1.8v-9.8
			H174.1z M175.9,23.8c-1.1,0-1.8,0.7-1.8,1.9c0,1.2,0.8,1.9,1.8,1.9s1.8-0.7,1.8-1.9S177,23.8,175.9,23.8z"/>
		<path d="M182.1,19c0.7,0,1.2,0.5,1.2,1.2s-0.5,1.2-1.2,1.2c-0.7,0-1.2-0.5-1.2-1.2S181.4,19,182.1,19z M183,22.2v7h-1.8v-7H183z"
			/>
		<path d="M186.8,19.4v9.8h-1.9v-9.8H186.8z"/>
		<path d="M190.5,19.4v9.8h-1.9v-9.8H190.5z"/>
	</g>
	<g>
		<path d="M18,50.9l2.3-6.1h0.9l2.5,6.1h-0.9l-0.7-1.8h-2.5l-0.7,1.8H18z M19.7,48.5h2.1l-0.6-1.7c-0.2-0.5-0.3-0.9-0.4-1.3
			c-0.1,0.4-0.2,0.8-0.3,1.2L19.7,48.5z"/>
		<path d="M26.1,52.6v-6.1h0.7v0.6c0.2-0.2,0.3-0.4,0.5-0.5c0.2-0.1,0.4-0.2,0.7-0.2c0.4,0,0.7,0.1,1,0.3c0.3,0.2,0.5,0.5,0.7,0.8
			c0.1,0.4,0.2,0.7,0.2,1.2c0,0.5-0.1,0.9-0.2,1.2c-0.2,0.4-0.4,0.6-0.7,0.8S28.4,51,28,51c-0.2,0-0.5-0.1-0.7-0.2s-0.4-0.2-0.5-0.4
			v2.1H26.1z M26.8,48.8c0,0.6,0.1,1,0.3,1.3c0.2,0.3,0.5,0.4,0.8,0.4c0.3,0,0.6-0.1,0.9-0.4c0.2-0.3,0.4-0.7,0.4-1.3
			c0-0.6-0.1-1-0.3-1.3S28.3,47,28,47c-0.3,0-0.6,0.1-0.8,0.4C26.9,47.8,26.8,48.2,26.8,48.8z"/>
		<path d="M30.6,48.7c0-0.8,0.2-1.4,0.7-1.8c0.4-0.3,0.8-0.5,1.4-0.5c0.6,0,1.1,0.2,1.5,0.6s0.6,0.9,0.6,1.6c0,0.6-0.1,1-0.3,1.3
			c-0.2,0.3-0.4,0.6-0.7,0.8C33.4,51,33,51,32.6,51c-0.6,0-1.1-0.2-1.5-0.6C30.8,50.1,30.6,49.5,30.6,48.7z M31.3,48.7
			c0,0.6,0.1,1,0.4,1.3s0.6,0.4,0.9,0.4c0.4,0,0.7-0.1,0.9-0.4c0.2-0.3,0.4-0.7,0.4-1.3c0-0.5-0.1-1-0.4-1.2s-0.6-0.4-0.9-0.4
			c-0.4,0-0.7,0.1-0.9,0.4S31.3,48.2,31.3,48.7z"/>
		<path d="M36.4,50.9L35,46.5h0.8l0.7,2.5l0.3,0.9c0,0,0.1-0.4,0.2-0.9l0.7-2.6h0.8l0.7,2.6l0.2,0.8l0.3-0.9l0.8-2.5h0.7l-1.4,4.4
			h-0.8l-0.7-2.6l-0.2-0.8l-0.9,3.4H36.4z"/>
		<path d="M44.7,49.5l0.8,0.1c-0.1,0.5-0.3,0.8-0.7,1.1c-0.3,0.2-0.7,0.4-1.3,0.4c-0.6,0-1.2-0.2-1.5-0.6c-0.4-0.4-0.6-1-0.6-1.7
			c0-0.7,0.2-1.3,0.6-1.7s0.9-0.6,1.5-0.6c0.6,0,1.1,0.2,1.4,0.6c0.4,0.4,0.6,1,0.6,1.7c0,0,0,0.1,0,0.2h-3.3c0,0.5,0.2,0.9,0.4,1.1
			c0.2,0.3,0.6,0.4,0.9,0.4c0.3,0,0.5-0.1,0.7-0.2C44.5,50.1,44.6,49.8,44.7,49.5z M42.3,48.3h2.5c0-0.4-0.1-0.6-0.3-0.8
			c-0.2-0.3-0.5-0.4-0.9-0.4c-0.3,0-0.6,0.1-0.9,0.3C42.4,47.6,42.3,47.9,42.3,48.3z"/>
		<path d="M46.4,50.9v-4.4h0.7v0.7c0.2-0.3,0.3-0.5,0.5-0.6c0.1-0.1,0.3-0.1,0.5-0.1c0.3,0,0.5,0.1,0.8,0.2l-0.3,0.7
			c-0.2-0.1-0.4-0.2-0.5-0.2c-0.2,0-0.3,0-0.4,0.1s-0.2,0.2-0.3,0.4c-0.1,0.3-0.1,0.6-0.1,0.9v2.3H46.4z"/>
		<path d="M51.8,50.9v-3.8h-0.7v-0.6h0.7v-0.5c0-0.3,0-0.5,0.1-0.7c0.1-0.2,0.2-0.4,0.4-0.5c0.2-0.1,0.4-0.2,0.8-0.2
			c0.2,0,0.4,0,0.7,0.1l-0.1,0.7c-0.2,0-0.3,0-0.4,0c-0.2,0-0.4,0-0.5,0.1c-0.1,0.1-0.1,0.3-0.1,0.5v0.4h0.9v0.6h-0.9v3.8H51.8z"/>
		<path d="M56.9,50.4c-0.3,0.2-0.5,0.4-0.8,0.5C55.8,51,55.5,51,55.3,51c-0.5,0-0.9-0.1-1.1-0.4c-0.3-0.2-0.4-0.5-0.4-0.9
			c0-0.2,0-0.4,0.1-0.6c0.1-0.2,0.2-0.3,0.4-0.4s0.3-0.2,0.5-0.2c0.1,0,0.4-0.1,0.7-0.1c0.6-0.1,1-0.2,1.3-0.3c0-0.1,0-0.2,0-0.2
			c0-0.3-0.1-0.5-0.2-0.6c-0.2-0.2-0.5-0.3-0.9-0.3c-0.4,0-0.6,0.1-0.8,0.2s-0.3,0.3-0.4,0.7l-0.7-0.1c0.1-0.3,0.2-0.6,0.3-0.8
			s0.4-0.3,0.7-0.4c0.3-0.1,0.6-0.2,1-0.2c0.4,0,0.7,0,0.9,0.1c0.2,0.1,0.4,0.2,0.5,0.3s0.2,0.3,0.2,0.5c0,0.1,0,0.4,0,0.7v1
			c0,0.7,0,1.1,0,1.3s0.1,0.4,0.2,0.5H57C56.9,50.8,56.9,50.6,56.9,50.4z M56.8,48.7c-0.3,0.1-0.7,0.2-1.2,0.3
			c-0.3,0-0.5,0.1-0.7,0.1c-0.1,0.1-0.2,0.1-0.3,0.2c-0.1,0.1-0.1,0.2-0.1,0.4c0,0.2,0.1,0.4,0.2,0.5s0.4,0.2,0.7,0.2
			c0.3,0,0.5-0.1,0.8-0.2c0.2-0.1,0.4-0.3,0.5-0.5c0.1-0.2,0.1-0.4,0.1-0.7V48.7z"/>
		<path d="M61.6,49.3l0.7,0.1c-0.1,0.5-0.3,0.9-0.6,1.2C61.4,50.9,61,51,60.5,51c-0.6,0-1.1-0.2-1.5-0.6c-0.4-0.4-0.5-1-0.5-1.7
			c0-0.5,0.1-0.9,0.2-1.2c0.2-0.4,0.4-0.6,0.7-0.8c0.3-0.2,0.7-0.3,1.1-0.3c0.5,0,0.9,0.1,1.2,0.4c0.3,0.2,0.5,0.6,0.6,1l-0.7,0.1
			c-0.1-0.3-0.2-0.5-0.4-0.7s-0.4-0.2-0.6-0.2c-0.4,0-0.7,0.1-0.9,0.4c-0.2,0.3-0.4,0.7-0.4,1.3c0,0.6,0.1,1,0.3,1.3
			c0.2,0.3,0.5,0.4,0.9,0.4c0.3,0,0.5-0.1,0.7-0.3C61.4,50,61.5,49.7,61.6,49.3z"/>
		<path d="M64.6,50.3l0.1,0.7c-0.2,0-0.4,0.1-0.6,0.1c-0.3,0-0.5,0-0.6-0.1c-0.1-0.1-0.3-0.2-0.3-0.3s-0.1-0.4-0.1-0.9v-2.5h-0.5
			v-0.6h0.5v-1.1l0.7-0.4v1.5h0.8v0.6h-0.8v2.6c0,0.2,0,0.3,0,0.4s0.1,0.1,0.1,0.1c0.1,0,0.1,0.1,0.3,0.1
			C64.4,50.3,64.5,50.3,64.6,50.3z"/>
		<path d="M65.1,48.7c0-0.8,0.2-1.4,0.7-1.8c0.4-0.3,0.8-0.5,1.4-0.5c0.6,0,1.1,0.2,1.5,0.6s0.6,0.9,0.6,1.6c0,0.6-0.1,1-0.3,1.3
			c-0.2,0.3-0.4,0.6-0.7,0.8C67.9,51,67.5,51,67.1,51c-0.6,0-1.1-0.2-1.5-0.6C65.2,50.1,65.1,49.5,65.1,48.7z M65.8,48.7
			c0,0.6,0.1,1,0.4,1.3s0.6,0.4,0.9,0.4c0.4,0,0.7-0.1,0.9-0.4c0.2-0.3,0.4-0.7,0.4-1.3c0-0.5-0.1-1-0.4-1.2s-0.6-0.4-0.9-0.4
			c-0.4,0-0.7,0.1-0.9,0.4S65.8,48.2,65.8,48.7z"/>
		<path d="M70.1,50.9v-4.4h0.7v0.7c0.2-0.3,0.3-0.5,0.5-0.6c0.1-0.1,0.3-0.1,0.5-0.1c0.3,0,0.5,0.1,0.8,0.2l-0.3,0.7
			c-0.2-0.1-0.4-0.2-0.5-0.2c-0.2,0-0.3,0-0.4,0.1s-0.2,0.2-0.3,0.4c-0.1,0.3-0.1,0.6-0.1,0.9v2.3H70.1z"/>
		<path d="M75,49.6l0.7-0.1c0,0.3,0.2,0.5,0.3,0.7c0.2,0.2,0.5,0.2,0.8,0.2c0.3,0,0.6-0.1,0.8-0.2s0.2-0.3,0.2-0.5
			c0-0.2-0.1-0.3-0.2-0.4c-0.1-0.1-0.4-0.2-0.8-0.3c-0.5-0.1-0.9-0.3-1.1-0.4c-0.2-0.1-0.4-0.2-0.5-0.4c-0.1-0.2-0.2-0.4-0.2-0.6
			c0-0.2,0-0.4,0.1-0.5s0.2-0.3,0.4-0.4c0.1-0.1,0.3-0.2,0.5-0.2s0.4-0.1,0.6-0.1c0.3,0,0.6,0,0.9,0.1c0.3,0.1,0.5,0.2,0.6,0.4
			c0.1,0.2,0.2,0.4,0.3,0.7l-0.7,0.1c0-0.2-0.1-0.4-0.3-0.5s-0.4-0.2-0.7-0.2c-0.3,0-0.6,0.1-0.7,0.2c-0.1,0.1-0.2,0.2-0.2,0.4
			c0,0.1,0,0.2,0.1,0.3c0.1,0.1,0.2,0.1,0.3,0.2c0.1,0,0.3,0.1,0.7,0.2c0.5,0.1,0.9,0.3,1.1,0.3s0.4,0.2,0.5,0.4s0.2,0.4,0.2,0.6
			c0,0.2-0.1,0.5-0.2,0.7c-0.1,0.2-0.4,0.4-0.6,0.5C77.5,51,77.2,51,76.8,51c-0.6,0-1-0.1-1.3-0.4S75,50.1,75,49.6z"/>
		<path d="M82.4,50.9v-0.6C82.1,50.8,81.6,51,81,51c-0.3,0-0.5,0-0.7-0.1s-0.4-0.2-0.5-0.4s-0.2-0.3-0.2-0.6c0-0.1,0-0.4,0-0.7v-2.7
			h0.7V49c0,0.4,0,0.7,0,0.8c0,0.2,0.1,0.4,0.3,0.5c0.2,0.1,0.3,0.2,0.6,0.2s0.4-0.1,0.6-0.2s0.3-0.3,0.4-0.5s0.1-0.5,0.1-0.9v-2.4
			h0.7v4.4H82.4z"/>
		<path d="M84.2,50.9v-4.4h0.7v0.7c0.2-0.3,0.3-0.5,0.5-0.6c0.1-0.1,0.3-0.1,0.5-0.1c0.3,0,0.5,0.1,0.8,0.2l-0.3,0.7
			c-0.2-0.1-0.4-0.2-0.5-0.2c-0.2,0-0.3,0-0.4,0.1s-0.2,0.2-0.3,0.4C85,48,85,48.3,85,48.6v2.3H84.2z"/>
		<path d="M89.9,49.3l0.7,0.1c-0.1,0.5-0.3,0.9-0.6,1.2c-0.3,0.3-0.7,0.4-1.2,0.4c-0.6,0-1.1-0.2-1.5-0.6c-0.4-0.4-0.5-1-0.5-1.7
			c0-0.5,0.1-0.9,0.2-1.2c0.2-0.4,0.4-0.6,0.7-0.8c0.3-0.2,0.7-0.3,1.1-0.3c0.5,0,0.9,0.1,1.2,0.4c0.3,0.2,0.5,0.6,0.6,1l-0.7,0.1
			c-0.1-0.3-0.2-0.5-0.4-0.7s-0.4-0.2-0.6-0.2c-0.4,0-0.7,0.1-0.9,0.4c-0.2,0.3-0.4,0.7-0.4,1.3c0,0.6,0.1,1,0.3,1.3
			c0.2,0.3,0.5,0.4,0.9,0.4c0.3,0,0.5-0.1,0.7-0.3C89.8,50,89.9,49.7,89.9,49.3z"/>
		<path d="M91.3,50.9v-6.1h0.7V47c0.3-0.4,0.8-0.6,1.3-0.6c0.3,0,0.6,0.1,0.9,0.2c0.2,0.1,0.4,0.3,0.5,0.5c0.1,0.2,0.2,0.6,0.2,1
			v2.8h-0.7v-2.8c0-0.4-0.1-0.6-0.2-0.8c-0.2-0.2-0.4-0.3-0.7-0.3c-0.2,0-0.4,0.1-0.6,0.2c-0.2,0.1-0.3,0.3-0.4,0.5
			c-0.1,0.2-0.1,0.5-0.1,0.8v2.4H91.3z"/>
		<path d="M98.9,50.4c-0.3,0.2-0.5,0.4-0.8,0.5C97.9,51,97.6,51,97.3,51c-0.5,0-0.9-0.1-1.1-0.4c-0.3-0.2-0.4-0.5-0.4-0.9
			c0-0.2,0-0.4,0.1-0.6c0.1-0.2,0.2-0.3,0.4-0.4s0.3-0.2,0.5-0.2c0.1,0,0.4-0.1,0.7-0.1c0.6-0.1,1-0.2,1.3-0.3c0-0.1,0-0.2,0-0.2
			c0-0.3-0.1-0.5-0.2-0.6c-0.2-0.2-0.5-0.3-0.9-0.3c-0.4,0-0.6,0.1-0.8,0.2s-0.3,0.3-0.4,0.7l-0.7-0.1c0.1-0.3,0.2-0.6,0.3-0.8
			s0.4-0.3,0.7-0.4c0.3-0.1,0.6-0.2,1-0.2c0.4,0,0.7,0,0.9,0.1c0.2,0.1,0.4,0.2,0.5,0.3s0.2,0.3,0.2,0.5c0,0.1,0,0.4,0,0.7v1
			c0,0.7,0,1.1,0,1.3s0.1,0.4,0.2,0.5h-0.8C99,50.8,98.9,50.6,98.9,50.4z M98.9,48.7c-0.3,0.1-0.7,0.2-1.2,0.3
			c-0.3,0-0.5,0.1-0.7,0.1c-0.1,0.1-0.2,0.1-0.3,0.2c-0.1,0.1-0.1,0.2-0.1,0.4c0,0.2,0.1,0.4,0.2,0.5s0.4,0.2,0.7,0.2
			c0.3,0,0.5-0.1,0.8-0.2c0.2-0.1,0.4-0.3,0.5-0.5c0.1-0.2,0.1-0.4,0.1-0.7V48.7z"/>
		<path d="M100.8,50.9v-4.4h0.7v0.7c0.2-0.3,0.3-0.5,0.5-0.6c0.1-0.1,0.3-0.1,0.5-0.1c0.3,0,0.5,0.1,0.8,0.2l-0.3,0.7
			c-0.2-0.1-0.4-0.2-0.5-0.2c-0.2,0-0.3,0-0.4,0.1s-0.2,0.2-0.3,0.4c-0.1,0.3-0.1,0.6-0.1,0.9v2.3H100.8z"/>
		<path d="M103.5,51.3l0.7,0.1c0,0.2,0.1,0.4,0.3,0.5c0.2,0.1,0.4,0.2,0.8,0.2c0.3,0,0.6-0.1,0.8-0.2s0.3-0.3,0.4-0.6
			c0-0.2,0.1-0.5,0.1-1c-0.3,0.4-0.7,0.6-1.2,0.6c-0.6,0-1.1-0.2-1.4-0.7s-0.5-1-0.5-1.6c0-0.4,0.1-0.8,0.2-1.2
			c0.2-0.4,0.4-0.6,0.7-0.8s0.6-0.3,1-0.3c0.5,0,0.9,0.2,1.3,0.6v-0.5h0.7v3.8c0,0.7-0.1,1.2-0.2,1.5c-0.1,0.3-0.4,0.5-0.7,0.7
			c-0.3,0.2-0.7,0.2-1.1,0.2c-0.5,0-1-0.1-1.3-0.4C103.6,52.1,103.5,51.8,103.5,51.3z M104.1,48.7c0,0.6,0.1,1,0.3,1.3
			s0.5,0.4,0.9,0.4c0.3,0,0.6-0.1,0.9-0.4s0.3-0.7,0.3-1.2c0-0.5-0.1-0.9-0.4-1.2s-0.5-0.4-0.9-0.4c-0.3,0-0.6,0.1-0.8,0.4
			C104.2,47.7,104.1,48.1,104.1,48.7z"/>
		<path d="M111.3,49.5l0.8,0.1c-0.1,0.5-0.3,0.8-0.7,1.1c-0.3,0.2-0.7,0.4-1.3,0.4c-0.6,0-1.2-0.2-1.5-0.6c-0.4-0.4-0.6-1-0.6-1.7
			c0-0.7,0.2-1.3,0.6-1.7s0.9-0.6,1.5-0.6c0.6,0,1.1,0.2,1.4,0.6c0.4,0.4,0.6,1,0.6,1.7c0,0,0,0.1,0,0.2h-3.3c0,0.5,0.2,0.9,0.4,1.1
			c0.2,0.3,0.6,0.4,0.9,0.4c0.3,0,0.5-0.1,0.7-0.2C111.1,50.1,111.2,49.8,111.3,49.5z M108.9,48.3h2.5c0-0.4-0.1-0.6-0.3-0.8
			c-0.2-0.3-0.5-0.4-0.9-0.4c-0.3,0-0.6,0.1-0.9,0.3C109,47.6,108.9,47.9,108.9,48.3z"/>
		<path d="M116.2,50.9l-1.3-4.4h0.8l0.7,2.5l0.3,0.9c0,0,0.1-0.4,0.2-0.9l0.7-2.6h0.8l0.7,2.6l0.2,0.8l0.3-0.9l0.8-2.5h0.7l-1.4,4.4
			h-0.8l-0.7-2.6l-0.2-0.8l-0.9,3.4H116.2z"/>
		<path d="M124.4,50.4c-0.3,0.2-0.5,0.4-0.8,0.5c-0.3,0.1-0.5,0.1-0.8,0.1c-0.5,0-0.9-0.1-1.1-0.4c-0.3-0.2-0.4-0.5-0.4-0.9
			c0-0.2,0-0.4,0.1-0.6c0.1-0.2,0.2-0.3,0.4-0.4s0.3-0.2,0.5-0.2c0.1,0,0.4-0.1,0.7-0.1c0.6-0.1,1-0.2,1.3-0.3c0-0.1,0-0.2,0-0.2
			c0-0.3-0.1-0.5-0.2-0.6c-0.2-0.2-0.5-0.3-0.9-0.3c-0.4,0-0.6,0.1-0.8,0.2s-0.3,0.3-0.4,0.7l-0.7-0.1c0.1-0.3,0.2-0.6,0.3-0.8
			s0.4-0.3,0.7-0.4c0.3-0.1,0.6-0.2,1-0.2c0.4,0,0.7,0,0.9,0.1c0.2,0.1,0.4,0.2,0.5,0.3s0.2,0.3,0.2,0.5c0,0.1,0,0.4,0,0.7v1
			c0,0.7,0,1.1,0,1.3s0.1,0.4,0.2,0.5h-0.8C124.5,50.8,124.5,50.6,124.4,50.4z M124.4,48.7c-0.3,0.1-0.7,0.2-1.2,0.3
			c-0.3,0-0.5,0.1-0.7,0.1c-0.1,0.1-0.2,0.1-0.3,0.2c-0.1,0.1-0.1,0.2-0.1,0.4c0,0.2,0.1,0.4,0.2,0.5s0.4,0.2,0.7,0.2
			c0.3,0,0.5-0.1,0.8-0.2c0.2-0.1,0.4-0.3,0.5-0.5c0.1-0.2,0.1-0.4,0.1-0.7V48.7z"/>
		<path d="M126,49.6l0.7-0.1c0,0.3,0.2,0.5,0.3,0.7c0.2,0.2,0.5,0.2,0.8,0.2c0.3,0,0.6-0.1,0.8-0.2s0.2-0.3,0.2-0.5
			c0-0.2-0.1-0.3-0.2-0.4c-0.1-0.1-0.4-0.2-0.8-0.3c-0.5-0.1-0.9-0.3-1.1-0.4c-0.2-0.1-0.4-0.2-0.5-0.4c-0.1-0.2-0.2-0.4-0.2-0.6
			c0-0.2,0-0.4,0.1-0.5s0.2-0.3,0.4-0.4c0.1-0.1,0.3-0.2,0.5-0.2s0.4-0.1,0.6-0.1c0.3,0,0.6,0,0.9,0.1c0.3,0.1,0.5,0.2,0.6,0.4
			c0.1,0.2,0.2,0.4,0.3,0.7l-0.7,0.1c0-0.2-0.1-0.4-0.3-0.5s-0.4-0.2-0.7-0.2c-0.3,0-0.6,0.1-0.7,0.2c-0.1,0.1-0.2,0.2-0.2,0.4
			c0,0.1,0,0.2,0.1,0.3c0.1,0.1,0.2,0.1,0.3,0.2c0.1,0,0.3,0.1,0.7,0.2c0.5,0.1,0.9,0.3,1.1,0.3s0.4,0.2,0.5,0.4s0.2,0.4,0.2,0.6
			c0,0.2-0.1,0.5-0.2,0.7c-0.1,0.2-0.4,0.4-0.6,0.5c-0.3,0.1-0.6,0.2-0.9,0.2c-0.6,0-1-0.1-1.3-0.4S126.1,50.1,126,49.6z"/>
		<path d="M135.8,50.4c-0.3,0.2-0.5,0.4-0.8,0.5c-0.3,0.1-0.5,0.1-0.8,0.1c-0.5,0-0.9-0.1-1.1-0.4c-0.3-0.2-0.4-0.5-0.4-0.9
			c0-0.2,0-0.4,0.1-0.6c0.1-0.2,0.2-0.3,0.4-0.4s0.3-0.2,0.5-0.2c0.1,0,0.4-0.1,0.7-0.1c0.6-0.1,1-0.2,1.3-0.3c0-0.1,0-0.2,0-0.2
			c0-0.3-0.1-0.5-0.2-0.6c-0.2-0.2-0.5-0.3-0.9-0.3c-0.4,0-0.6,0.1-0.8,0.2s-0.3,0.3-0.4,0.7l-0.7-0.1c0.1-0.3,0.2-0.6,0.3-0.8
			s0.4-0.3,0.7-0.4c0.3-0.1,0.6-0.2,1-0.2c0.4,0,0.7,0,0.9,0.1c0.2,0.1,0.4,0.2,0.5,0.3s0.2,0.3,0.2,0.5c0,0.1,0,0.4,0,0.7v1
			c0,0.7,0,1.1,0,1.3s0.1,0.4,0.2,0.5h-0.8C135.8,50.8,135.8,50.6,135.8,50.4z M135.7,48.7c-0.3,0.1-0.7,0.2-1.2,0.3
			c-0.3,0-0.5,0.1-0.7,0.1c-0.1,0.1-0.2,0.1-0.3,0.2c-0.1,0.1-0.1,0.2-0.1,0.4c0,0.2,0.1,0.4,0.2,0.5s0.4,0.2,0.7,0.2
			c0.3,0,0.5-0.1,0.8-0.2c0.2-0.1,0.4-0.3,0.5-0.5c0.1-0.2,0.1-0.4,0.1-0.7V48.7z"/>
		<path d="M137.6,52.6v-6.1h0.7v0.6c0.2-0.2,0.3-0.4,0.5-0.5c0.2-0.1,0.4-0.2,0.7-0.2c0.4,0,0.7,0.1,1,0.3c0.3,0.2,0.5,0.5,0.7,0.8
			c0.1,0.4,0.2,0.7,0.2,1.2c0,0.5-0.1,0.9-0.2,1.2c-0.2,0.4-0.4,0.6-0.7,0.8s-0.6,0.3-1,0.3c-0.2,0-0.5-0.1-0.7-0.2
			s-0.4-0.2-0.5-0.4v2.1H137.6z M138.3,48.8c0,0.6,0.1,1,0.3,1.3c0.2,0.3,0.5,0.4,0.8,0.4c0.3,0,0.6-0.1,0.9-0.4
			c0.2-0.3,0.4-0.7,0.4-1.3c0-0.6-0.1-1-0.3-1.3s-0.5-0.4-0.8-0.4c-0.3,0-0.6,0.1-0.8,0.4C138.4,47.8,138.3,48.2,138.3,48.8z"/>
		<path d="M142.3,52.6v-6.1h0.7v0.6c0.2-0.2,0.3-0.4,0.5-0.5c0.2-0.1,0.4-0.2,0.7-0.2c0.4,0,0.7,0.1,1,0.3c0.3,0.2,0.5,0.5,0.7,0.8
			c0.1,0.4,0.2,0.7,0.2,1.2c0,0.5-0.1,0.9-0.2,1.2c-0.2,0.4-0.4,0.6-0.7,0.8s-0.6,0.3-1,0.3c-0.2,0-0.5-0.1-0.7-0.2
			c-0.2-0.1-0.4-0.2-0.5-0.4v2.1H142.3z M143,48.8c0,0.6,0.1,1,0.3,1.3s0.5,0.4,0.8,0.4c0.3,0,0.6-0.1,0.9-0.4s0.4-0.7,0.4-1.3
			c0-0.6-0.1-1-0.3-1.3c-0.2-0.3-0.5-0.4-0.8-0.4c-0.3,0-0.6,0.1-0.8,0.4C143.1,47.8,143,48.2,143,48.8z"/>
		<path d="M147.1,50.9v-6.1h0.7v6.1H147.1z"/>
		<path d="M149,45.7v-0.9h0.7v0.9H149z M149,50.9v-4.4h0.7v4.4H149z"/>
		<path d="M153.9,49.5l0.8,0.1c-0.1,0.5-0.3,0.8-0.7,1.1s-0.8,0.4-1.3,0.4c-0.6,0-1.2-0.2-1.5-0.6s-0.6-1-0.6-1.7
			c0-0.7,0.2-1.3,0.6-1.7s0.9-0.6,1.5-0.6c0.6,0,1.1,0.2,1.4,0.6c0.4,0.4,0.6,1,0.6,1.7c0,0,0,0.1,0,0.2h-3.3c0,0.5,0.2,0.9,0.4,1.1
			c0.2,0.3,0.6,0.4,0.9,0.4c0.3,0,0.5-0.1,0.7-0.2C153.6,50.1,153.8,49.8,153.9,49.5z M151.4,48.3h2.5c0-0.4-0.1-0.6-0.3-0.8
			c-0.2-0.3-0.5-0.4-0.9-0.4c-0.3,0-0.6,0.1-0.9,0.3C151.6,47.6,151.4,47.9,151.4,48.3z"/>
		<path d="M158.4,50.9v-0.6c-0.3,0.4-0.7,0.7-1.2,0.7c-0.4,0-0.7-0.1-1-0.3c-0.3-0.2-0.5-0.5-0.7-0.8s-0.2-0.7-0.2-1.2
			c0-0.4,0.1-0.8,0.2-1.2s0.4-0.6,0.7-0.8c0.3-0.2,0.6-0.3,1-0.3c0.3,0,0.5,0.1,0.7,0.2c0.2,0.1,0.4,0.3,0.5,0.4v-2.2h0.7v6.1H158.4
			z M156.1,48.8c0,0.6,0.1,1,0.4,1.3c0.2,0.3,0.5,0.4,0.8,0.4c0.3,0,0.6-0.1,0.8-0.4s0.3-0.7,0.3-1.2c0-0.6-0.1-1-0.3-1.3
			s-0.5-0.4-0.9-0.4c-0.3,0-0.6,0.1-0.8,0.4C156.2,47.7,156.1,48.2,156.1,48.8z"/>
		<path d="M164.3,50.3l0.1,0.7c-0.2,0-0.4,0.1-0.6,0.1c-0.3,0-0.5,0-0.6-0.1c-0.1-0.1-0.3-0.2-0.3-0.3c-0.1-0.1-0.1-0.4-0.1-0.9
			v-2.5h-0.5v-0.6h0.5v-1.1l0.7-0.4v1.5h0.8v0.6h-0.8v2.6c0,0.2,0,0.3,0,0.4s0.1,0.1,0.1,0.1c0.1,0,0.1,0.1,0.3,0.1
			C164.1,50.3,164.2,50.3,164.3,50.3z"/>
		<path d="M164.8,48.7c0-0.8,0.2-1.4,0.7-1.8c0.4-0.3,0.8-0.5,1.4-0.5c0.6,0,1.1,0.2,1.5,0.6s0.6,0.9,0.6,1.6c0,0.6-0.1,1-0.3,1.3
			c-0.2,0.3-0.4,0.6-0.7,0.8c-0.3,0.2-0.7,0.3-1.1,0.3c-0.6,0-1.1-0.2-1.5-0.6C164.9,50.1,164.8,49.5,164.8,48.7z M165.5,48.7
			c0,0.6,0.1,1,0.4,1.3c0.2,0.3,0.6,0.4,0.9,0.4c0.4,0,0.7-0.1,0.9-0.4s0.4-0.7,0.4-1.3c0-0.5-0.1-1-0.4-1.2
			c-0.2-0.3-0.6-0.4-0.9-0.4c-0.4,0-0.7,0.1-0.9,0.4C165.6,47.8,165.5,48.2,165.5,48.7z"/>
		<path d="M171.8,48.7c0-0.8,0.2-1.4,0.7-1.8c0.4-0.3,0.8-0.5,1.4-0.5c0.6,0,1.1,0.2,1.5,0.6s0.6,0.9,0.6,1.6c0,0.6-0.1,1-0.3,1.3
			c-0.2,0.3-0.4,0.6-0.7,0.8c-0.3,0.2-0.7,0.3-1.1,0.3c-0.6,0-1.1-0.2-1.5-0.6C172,50.1,171.8,49.5,171.8,48.7z M172.6,48.7
			c0,0.6,0.1,1,0.4,1.3c0.2,0.3,0.6,0.4,0.9,0.4c0.4,0,0.7-0.1,0.9-0.4s0.4-0.7,0.4-1.3c0-0.5-0.1-1-0.4-1.2
			c-0.2-0.3-0.6-0.4-0.9-0.4c-0.4,0-0.7,0.1-0.9,0.4C172.7,47.8,172.6,48.2,172.6,48.7z"/>
		<path d="M176.8,50.9v-4.4h0.7v0.6c0.3-0.5,0.8-0.7,1.4-0.7c0.3,0,0.5,0,0.7,0.1c0.2,0.1,0.4,0.2,0.5,0.4c0.1,0.2,0.2,0.3,0.2,0.6
			c0,0.1,0,0.4,0,0.7v2.7h-0.7v-2.7c0-0.3,0-0.5-0.1-0.7c-0.1-0.2-0.2-0.3-0.3-0.4c-0.1-0.1-0.3-0.1-0.5-0.1c-0.3,0-0.6,0.1-0.8,0.3
			c-0.2,0.2-0.3,0.6-0.3,1.1v2.4H176.8z"/>
		<path d="M184.6,49.5l0.8,0.1c-0.1,0.5-0.3,0.8-0.7,1.1s-0.8,0.4-1.3,0.4c-0.6,0-1.2-0.2-1.5-0.6s-0.6-1-0.6-1.7
			c0-0.7,0.2-1.3,0.6-1.7s0.9-0.6,1.5-0.6c0.6,0,1.1,0.2,1.4,0.6c0.4,0.4,0.6,1,0.6,1.7c0,0,0,0.1,0,0.2h-3.3c0,0.5,0.2,0.9,0.4,1.1
			c0.2,0.3,0.6,0.4,0.9,0.4c0.3,0,0.5-0.1,0.7-0.2C184.3,50.1,184.5,49.8,184.6,49.5z M182.1,48.3h2.5c0-0.4-0.1-0.6-0.3-0.8
			c-0.2-0.3-0.5-0.4-0.9-0.4c-0.3,0-0.6,0.1-0.9,0.3C182.3,47.6,182.2,47.9,182.1,48.3z"/>
		<path d="M188.4,48.7c0-0.8,0.2-1.4,0.7-1.8c0.4-0.3,0.8-0.5,1.4-0.5c0.6,0,1.1,0.2,1.5,0.6s0.6,0.9,0.6,1.6c0,0.6-0.1,1-0.3,1.3
			c-0.2,0.3-0.4,0.6-0.7,0.8c-0.3,0.2-0.7,0.3-1.1,0.3c-0.6,0-1.1-0.2-1.5-0.6C188.6,50.1,188.4,49.5,188.4,48.7z M189.2,48.7
			c0,0.6,0.1,1,0.4,1.3c0.2,0.3,0.6,0.4,0.9,0.4c0.4,0,0.7-0.1,0.9-0.4s0.4-0.7,0.4-1.3c0-0.5-0.1-1-0.4-1.2
			c-0.2-0.3-0.6-0.4-0.9-0.4c-0.4,0-0.7,0.1-0.9,0.4C189.3,47.8,189.2,48.2,189.2,48.7z"/>
		<path d="M193.4,50.9v-4.4h0.7v0.7c0.2-0.3,0.3-0.5,0.5-0.6c0.1-0.1,0.3-0.1,0.5-0.1c0.3,0,0.5,0.1,0.8,0.2l-0.3,0.7
			c-0.2-0.1-0.4-0.2-0.5-0.2c-0.2,0-0.3,0-0.4,0.1c-0.1,0.1-0.2,0.2-0.3,0.4c-0.1,0.3-0.1,0.6-0.1,0.9v2.3H193.4z"/>
		<path d="M198.6,50.9v-4.4h0.7v0.6c0.1-0.2,0.3-0.4,0.6-0.5s0.5-0.2,0.8-0.2c0.3,0,0.6,0.1,0.8,0.2c0.2,0.1,0.4,0.3,0.4,0.6
			c0.3-0.5,0.8-0.8,1.4-0.8c0.4,0,0.8,0.1,1,0.4s0.4,0.6,0.4,1.1v3h-0.7v-2.8c0-0.3,0-0.5-0.1-0.6c0-0.1-0.1-0.2-0.3-0.3
			c-0.1-0.1-0.3-0.1-0.4-0.1c-0.3,0-0.6,0.1-0.8,0.3s-0.3,0.5-0.3,1v2.6h-0.7v-2.9c0-0.3-0.1-0.6-0.2-0.7c-0.1-0.2-0.3-0.2-0.6-0.2
			c-0.2,0-0.4,0.1-0.6,0.2c-0.2,0.1-0.3,0.3-0.4,0.5c-0.1,0.2-0.1,0.5-0.1,0.9v2.3H198.6z"/>
		<path d="M205.4,48.7c0-0.8,0.2-1.4,0.7-1.8c0.4-0.3,0.8-0.5,1.4-0.5c0.6,0,1.1,0.2,1.5,0.6s0.6,0.9,0.6,1.6c0,0.6-0.1,1-0.3,1.3
			c-0.2,0.3-0.4,0.6-0.7,0.8c-0.3,0.2-0.7,0.3-1.1,0.3c-0.6,0-1.1-0.2-1.5-0.6C205.6,50.1,205.4,49.5,205.4,48.7z M206.2,48.7
			c0,0.6,0.1,1,0.4,1.3c0.2,0.3,0.6,0.4,0.9,0.4c0.4,0,0.7-0.1,0.9-0.4s0.4-0.7,0.4-1.3c0-0.5-0.1-1-0.4-1.2
			c-0.2-0.3-0.6-0.4-0.9-0.4c-0.4,0-0.7,0.1-0.9,0.4C206.3,47.8,206.2,48.2,206.2,48.7z"/>
		<path d="M210.4,50.9v-4.4h0.7v0.7c0.2-0.3,0.3-0.5,0.5-0.6c0.1-0.1,0.3-0.1,0.5-0.1c0.3,0,0.5,0.1,0.8,0.2l-0.3,0.7
			c-0.2-0.1-0.4-0.2-0.5-0.2c-0.2,0-0.3,0-0.4,0.1c-0.1,0.1-0.2,0.2-0.3,0.4c-0.1,0.3-0.1,0.6-0.1,0.9v2.3H210.4z"/>
		<path d="M216.2,49.5l0.8,0.1c-0.1,0.5-0.3,0.8-0.7,1.1s-0.8,0.4-1.3,0.4c-0.6,0-1.2-0.2-1.5-0.6s-0.6-1-0.6-1.7
			c0-0.7,0.2-1.3,0.6-1.7s0.9-0.6,1.5-0.6c0.6,0,1.1,0.2,1.4,0.6c0.4,0.4,0.6,1,0.6,1.7c0,0,0,0.1,0,0.2h-3.3c0,0.5,0.2,0.9,0.4,1.1
			c0.2,0.3,0.6,0.4,0.9,0.4c0.3,0,0.5-0.1,0.7-0.2C216,50.1,216.1,49.8,216.2,49.5z M213.8,48.3h2.5c0-0.4-0.1-0.6-0.3-0.8
			c-0.2-0.3-0.5-0.4-0.9-0.4c-0.3,0-0.6,0.1-0.9,0.3C213.9,47.6,213.8,47.9,213.8,48.3z"/>
		<path d="M220,48.7c0-0.8,0.2-1.4,0.7-1.8c0.4-0.3,0.8-0.5,1.4-0.5c0.6,0,1.1,0.2,1.5,0.6s0.6,0.9,0.6,1.6c0,0.6-0.1,1-0.3,1.3
			c-0.2,0.3-0.4,0.6-0.7,0.8c-0.3,0.2-0.7,0.3-1.1,0.3c-0.6,0-1.1-0.2-1.5-0.6C220.2,50.1,220,49.5,220,48.7z M220.8,48.7
			c0,0.6,0.1,1,0.4,1.3c0.2,0.3,0.6,0.4,0.9,0.4c0.4,0,0.7-0.1,0.9-0.4s0.4-0.7,0.4-1.3c0-0.5-0.1-1-0.4-1.2
			c-0.2-0.3-0.6-0.4-0.9-0.4c-0.4,0-0.7,0.1-0.9,0.4C220.9,47.8,220.8,48.2,220.8,48.7z"/>
		<path d="M225.2,50.9v-3.8h-0.7v-0.6h0.7v-0.5c0-0.3,0-0.5,0.1-0.7c0.1-0.2,0.2-0.4,0.4-0.5c0.2-0.1,0.4-0.2,0.8-0.2
			c0.2,0,0.4,0,0.7,0.1l-0.1,0.7c-0.2,0-0.3,0-0.4,0c-0.2,0-0.4,0-0.5,0.1c-0.1,0.1-0.1,0.3-0.1,0.5v0.4h0.9v0.6H226v3.8H225.2z"/>
		<path d="M229.7,52.6l-0.1-0.7c0.2,0,0.3,0.1,0.4,0.1c0.2,0,0.3,0,0.4-0.1s0.2-0.1,0.2-0.2c0-0.1,0.1-0.3,0.2-0.6
			c0,0,0-0.1,0.1-0.2l-1.7-4.4h0.8l0.9,2.6c0.1,0.3,0.2,0.7,0.3,1c0.1-0.3,0.2-0.7,0.3-1l0.9-2.6h0.7l-1.7,4.5
			c-0.2,0.5-0.3,0.8-0.4,1c-0.1,0.2-0.3,0.4-0.5,0.5c-0.2,0.1-0.4,0.2-0.6,0.2C230.1,52.7,229.9,52.7,229.7,52.6z"/>
		<path d="M233.7,48.7c0-0.8,0.2-1.4,0.7-1.8c0.4-0.3,0.8-0.5,1.4-0.5c0.6,0,1.1,0.2,1.5,0.6s0.6,0.9,0.6,1.6c0,0.6-0.1,1-0.3,1.3
			c-0.2,0.3-0.4,0.6-0.7,0.8c-0.3,0.2-0.7,0.3-1.1,0.3c-0.6,0-1.1-0.2-1.5-0.6C233.9,50.1,233.7,49.5,233.7,48.7z M234.5,48.7
			c0,0.6,0.1,1,0.4,1.3c0.2,0.3,0.6,0.4,0.9,0.4c0.4,0,0.7-0.1,0.9-0.4s0.4-0.7,0.4-1.3c0-0.5-0.1-1-0.4-1.2
			c-0.2-0.3-0.6-0.4-0.9-0.4c-0.4,0-0.7,0.1-0.9,0.4C234.6,47.8,234.5,48.2,234.5,48.7z"/>
		<path d="M241.6,50.9v-0.6c-0.3,0.5-0.8,0.7-1.4,0.7c-0.3,0-0.5,0-0.7-0.1s-0.4-0.2-0.5-0.4s-0.2-0.3-0.2-0.6c0-0.1,0-0.4,0-0.7
			v-2.7h0.7V49c0,0.4,0,0.7,0,0.8c0,0.2,0.1,0.4,0.3,0.5c0.2,0.1,0.3,0.2,0.6,0.2c0.2,0,0.4-0.1,0.6-0.2c0.2-0.1,0.3-0.3,0.4-0.5
			c0.1-0.2,0.1-0.5,0.1-0.9v-2.4h0.7v4.4H241.6z"/>
		<path d="M243.5,50.9v-4.4h0.7v0.7c0.2-0.3,0.3-0.5,0.5-0.6c0.1-0.1,0.3-0.1,0.5-0.1c0.3,0,0.5,0.1,0.8,0.2l-0.3,0.7
			c-0.2-0.1-0.4-0.2-0.5-0.2c-0.2,0-0.3,0-0.4,0.1c-0.1,0.1-0.2,0.2-0.3,0.4c-0.1,0.3-0.1,0.6-0.1,0.9v2.3H243.5z"/>
	</g>
	<g>
		<path d="M18.6,63.7v-4.4h0.7v0.6c0.1-0.2,0.3-0.4,0.6-0.5c0.2-0.1,0.5-0.2,0.8-0.2c0.3,0,0.6,0.1,0.8,0.2c0.2,0.1,0.4,0.3,0.4,0.6
			c0.3-0.5,0.8-0.8,1.4-0.8c0.4,0,0.8,0.1,1,0.4c0.2,0.2,0.4,0.6,0.4,1.1v3h-0.7v-2.8c0-0.3,0-0.5-0.1-0.6S23.6,60,23.5,60
			c-0.1-0.1-0.3-0.1-0.4-0.1c-0.3,0-0.6,0.1-0.8,0.3s-0.3,0.5-0.3,1v2.6h-0.7v-2.9c0-0.3-0.1-0.6-0.2-0.7s-0.3-0.2-0.6-0.2
			c-0.2,0-0.4,0.1-0.6,0.2c-0.2,0.1-0.3,0.3-0.4,0.5c-0.1,0.2-0.1,0.5-0.1,0.9v2.3H18.6z"/>
		<path d="M28.7,62.3l0.8,0.1c-0.1,0.5-0.3,0.8-0.7,1.1c-0.3,0.2-0.7,0.4-1.3,0.4c-0.6,0-1.2-0.2-1.5-0.6c-0.4-0.4-0.6-1-0.6-1.7
			c0-0.7,0.2-1.3,0.6-1.7s0.9-0.6,1.5-0.6c0.6,0,1.1,0.2,1.4,0.6c0.4,0.4,0.6,1,0.6,1.7c0,0,0,0.1,0,0.2h-3.3c0,0.5,0.2,0.9,0.4,1.1
			c0.2,0.3,0.6,0.4,0.9,0.4c0.3,0,0.5-0.1,0.7-0.2C28.4,62.8,28.5,62.6,28.7,62.3z M26.2,61.1h2.5c0-0.4-0.1-0.6-0.3-0.8
			c-0.2-0.3-0.5-0.4-0.9-0.4c-0.3,0-0.6,0.1-0.9,0.3C26.4,60.4,26.2,60.7,26.2,61.1z"/>
		<path d="M30.4,63.7v-4.4H31v0.6c0.1-0.2,0.3-0.4,0.6-0.5c0.2-0.1,0.5-0.2,0.8-0.2c0.3,0,0.6,0.1,0.8,0.2c0.2,0.1,0.4,0.3,0.4,0.6
			c0.3-0.5,0.8-0.8,1.4-0.8c0.4,0,0.8,0.1,1,0.4c0.2,0.2,0.4,0.6,0.4,1.1v3h-0.7v-2.8c0-0.3,0-0.5-0.1-0.6S35.4,60,35.3,60
			c-0.1-0.1-0.3-0.1-0.4-0.1c-0.3,0-0.6,0.1-0.8,0.3s-0.3,0.5-0.3,1v2.6H33v-2.9c0-0.3-0.1-0.6-0.2-0.7s-0.3-0.2-0.6-0.2
			c-0.2,0-0.4,0.1-0.6,0.2c-0.2,0.1-0.3,0.3-0.4,0.5c-0.1,0.2-0.1,0.5-0.1,0.9v2.3H30.4z"/>
		<path d="M38.1,63.7h-0.7v-6.1h0.7v2.2c0.3-0.4,0.7-0.6,1.2-0.6c0.3,0,0.5,0.1,0.8,0.2s0.4,0.3,0.6,0.5s0.3,0.4,0.4,0.7
			c0.1,0.3,0.1,0.6,0.1,0.9c0,0.8-0.2,1.3-0.6,1.8c-0.4,0.4-0.8,0.6-1.3,0.6c-0.5,0-0.9-0.2-1.2-0.7V63.7z M38.1,61.5
			c0,0.5,0.1,0.9,0.2,1.1c0.2,0.4,0.6,0.6,1,0.6c0.3,0,0.6-0.1,0.8-0.4c0.2-0.3,0.4-0.7,0.4-1.3c0-0.6-0.1-1-0.3-1.3
			c-0.2-0.3-0.5-0.4-0.8-0.4c-0.3,0-0.6,0.1-0.8,0.4C38.2,60.5,38.1,60.9,38.1,61.5z"/>
		<path d="M45.2,62.3l0.8,0.1c-0.1,0.5-0.3,0.8-0.7,1.1c-0.3,0.2-0.7,0.4-1.3,0.4c-0.6,0-1.2-0.2-1.5-0.6c-0.4-0.4-0.6-1-0.6-1.7
			c0-0.7,0.2-1.3,0.6-1.7s0.9-0.6,1.5-0.6c0.6,0,1.1,0.2,1.4,0.6c0.4,0.4,0.6,1,0.6,1.7c0,0,0,0.1,0,0.2h-3.3c0,0.5,0.2,0.9,0.4,1.1
			c0.2,0.3,0.6,0.4,0.9,0.4c0.3,0,0.5-0.1,0.7-0.2C44.9,62.8,45.1,62.6,45.2,62.3z M42.7,61.1h2.5c0-0.4-0.1-0.6-0.3-0.8
			c-0.2-0.3-0.5-0.4-0.9-0.4c-0.3,0-0.6,0.1-0.9,0.3C42.9,60.4,42.8,60.7,42.7,61.1z"/>
		<path d="M46.9,63.7v-4.4h0.7V60c0.2-0.3,0.3-0.5,0.5-0.6c0.1-0.1,0.3-0.1,0.5-0.1c0.3,0,0.5,0.1,0.8,0.2L49,60.1
			C48.8,60,48.7,60,48.5,60c-0.2,0-0.3,0-0.4,0.1s-0.2,0.2-0.3,0.4c-0.1,0.3-0.1,0.6-0.1,0.9v2.3H46.9z"/>
		<path d="M55,63.2c-0.3,0.2-0.5,0.4-0.8,0.5c-0.3,0.1-0.5,0.1-0.8,0.1c-0.5,0-0.9-0.1-1.1-0.4c-0.3-0.2-0.4-0.5-0.4-0.9
			c0-0.2,0-0.4,0.1-0.6c0.1-0.2,0.2-0.3,0.4-0.4s0.3-0.2,0.5-0.2c0.1,0,0.4-0.1,0.7-0.1c0.6-0.1,1-0.2,1.3-0.3c0-0.1,0-0.2,0-0.2
			c0-0.3-0.1-0.5-0.2-0.6c-0.2-0.2-0.5-0.3-0.9-0.3c-0.4,0-0.6,0.1-0.8,0.2s-0.3,0.3-0.4,0.7L52,60.5c0.1-0.3,0.2-0.6,0.3-0.8
			s0.4-0.3,0.7-0.4c0.3-0.1,0.6-0.2,1-0.2c0.4,0,0.7,0,0.9,0.1c0.2,0.1,0.4,0.2,0.5,0.3s0.2,0.3,0.2,0.5c0,0.1,0,0.4,0,0.7v1
			c0,0.7,0,1.1,0,1.3s0.1,0.4,0.2,0.5h-0.8C55,63.5,55,63.4,55,63.2z M54.9,61.5c-0.3,0.1-0.7,0.2-1.2,0.3c-0.3,0-0.5,0.1-0.7,0.1
			c-0.1,0.1-0.2,0.1-0.3,0.2c-0.1,0.1-0.1,0.2-0.1,0.4c0,0.2,0.1,0.4,0.2,0.5s0.4,0.2,0.7,0.2c0.3,0,0.5-0.1,0.8-0.2
			c0.2-0.1,0.4-0.3,0.5-0.5c0.1-0.2,0.1-0.4,0.1-0.7V61.5z"/>
		<path d="M59.7,62.1l0.7,0.1c-0.1,0.5-0.3,0.9-0.6,1.2c-0.3,0.3-0.7,0.4-1.2,0.4c-0.6,0-1.1-0.2-1.5-0.6c-0.4-0.4-0.5-1-0.5-1.7
			c0-0.5,0.1-0.9,0.2-1.2c0.2-0.4,0.4-0.6,0.7-0.8c0.3-0.2,0.7-0.3,1.1-0.3c0.5,0,0.9,0.1,1.2,0.4c0.3,0.2,0.5,0.6,0.6,1l-0.7,0.1
			c-0.1-0.3-0.2-0.5-0.4-0.7s-0.4-0.2-0.6-0.2c-0.4,0-0.7,0.1-0.9,0.4c-0.2,0.3-0.4,0.7-0.4,1.3c0,0.6,0.1,1,0.3,1.3
			c0.2,0.3,0.5,0.4,0.9,0.4c0.3,0,0.5-0.1,0.7-0.3C59.5,62.7,59.6,62.5,59.7,62.1z"/>
		<path d="M63.9,62.1l0.7,0.1c-0.1,0.5-0.3,0.9-0.6,1.2c-0.3,0.3-0.7,0.4-1.2,0.4c-0.6,0-1.1-0.2-1.5-0.6c-0.4-0.4-0.5-1-0.5-1.7
			c0-0.5,0.1-0.9,0.2-1.2c0.2-0.4,0.4-0.6,0.7-0.8c0.3-0.2,0.7-0.3,1.1-0.3c0.5,0,0.9,0.1,1.2,0.4c0.3,0.2,0.5,0.6,0.6,1l-0.7,0.1
			c-0.1-0.3-0.2-0.5-0.4-0.7s-0.4-0.2-0.6-0.2c-0.4,0-0.7,0.1-0.9,0.4c-0.2,0.3-0.4,0.7-0.4,1.3c0,0.6,0.1,1,0.3,1.3
			c0.2,0.3,0.5,0.4,0.9,0.4c0.3,0,0.5-0.1,0.7-0.3C63.8,62.7,63.9,62.5,63.9,62.1z"/>
		<path d="M65,61.5c0-0.8,0.2-1.4,0.7-1.8c0.4-0.3,0.8-0.5,1.4-0.5c0.6,0,1.1,0.2,1.5,0.6s0.6,0.9,0.6,1.6c0,0.6-0.1,1-0.3,1.3
			c-0.2,0.3-0.4,0.6-0.7,0.8c-0.3,0.2-0.7,0.3-1.1,0.3c-0.6,0-1.1-0.2-1.5-0.6C65.2,62.8,65,62.2,65,61.5z M65.8,61.5
			c0,0.6,0.1,1,0.4,1.3s0.6,0.4,0.9,0.4c0.4,0,0.7-0.1,0.9-0.4c0.2-0.3,0.4-0.7,0.4-1.3c0-0.5-0.1-1-0.4-1.2s-0.6-0.4-0.9-0.4
			c-0.4,0-0.7,0.1-0.9,0.4S65.8,60.9,65.8,61.5z"/>
		<path d="M72.9,63.7v-0.6c-0.3,0.5-0.8,0.7-1.4,0.7c-0.3,0-0.5,0-0.7-0.1s-0.4-0.2-0.5-0.4s-0.2-0.3-0.2-0.6c0-0.1,0-0.4,0-0.7
			v-2.7h0.7v2.4c0,0.4,0,0.7,0,0.8c0,0.2,0.1,0.4,0.3,0.5c0.2,0.1,0.3,0.2,0.6,0.2s0.4-0.1,0.6-0.2s0.3-0.3,0.4-0.5s0.1-0.5,0.1-0.9
			v-2.4h0.7v4.4H72.9z"/>
		<path d="M74.8,63.7v-4.4h0.7v0.6c0.3-0.5,0.8-0.7,1.4-0.7c0.3,0,0.5,0,0.7,0.1c0.2,0.1,0.4,0.2,0.5,0.4c0.1,0.2,0.2,0.3,0.2,0.6
			c0,0.1,0,0.4,0,0.7v2.7h-0.7V61c0-0.3,0-0.5-0.1-0.7c-0.1-0.2-0.2-0.3-0.3-0.4s-0.3-0.1-0.5-0.1c-0.3,0-0.6,0.1-0.8,0.3
			c-0.2,0.2-0.3,0.6-0.3,1.1v2.4H74.8z"/>
		<path d="M81.1,63l0.1,0.7c-0.2,0-0.4,0.1-0.6,0.1c-0.3,0-0.5,0-0.6-0.1c-0.1-0.1-0.3-0.2-0.3-0.3s-0.1-0.4-0.1-0.9v-2.5h-0.5v-0.6
			h0.5v-1.1l0.7-0.4v1.5h0.8v0.6h-0.8v2.6c0,0.2,0,0.3,0,0.4s0.1,0.1,0.1,0.1c0.1,0,0.1,0.1,0.3,0.1C80.9,63.1,81,63.1,81.1,63z"/>
		<path d="M81.6,62.4l0.7-0.1c0,0.3,0.2,0.5,0.3,0.7c0.2,0.2,0.5,0.2,0.8,0.2c0.3,0,0.6-0.1,0.8-0.2s0.2-0.3,0.2-0.5
			c0-0.2-0.1-0.3-0.2-0.4c-0.1-0.1-0.4-0.2-0.8-0.3c-0.5-0.1-0.9-0.3-1.1-0.4c-0.2-0.1-0.4-0.2-0.5-0.4c-0.1-0.2-0.2-0.4-0.2-0.6
			c0-0.2,0-0.4,0.1-0.5s0.2-0.3,0.4-0.4c0.1-0.1,0.3-0.2,0.5-0.2s0.4-0.1,0.6-0.1c0.3,0,0.6,0,0.9,0.1c0.3,0.1,0.5,0.2,0.6,0.4
			c0.1,0.2,0.2,0.4,0.3,0.7l-0.7,0.1c0-0.2-0.1-0.4-0.3-0.5s-0.4-0.2-0.7-0.2c-0.3,0-0.6,0.1-0.7,0.2c-0.1,0.1-0.2,0.2-0.2,0.4
			c0,0.1,0,0.2,0.1,0.3c0.1,0.1,0.2,0.1,0.3,0.2c0.1,0,0.3,0.1,0.7,0.2c0.5,0.1,0.9,0.3,1.1,0.3s0.4,0.2,0.5,0.4s0.2,0.4,0.2,0.6
			c0,0.2-0.1,0.5-0.2,0.7c-0.1,0.2-0.4,0.4-0.6,0.5c-0.3,0.1-0.6,0.2-0.9,0.2c-0.6,0-1-0.1-1.3-0.4S81.7,62.9,81.6,62.4z"/>
		<path d="M89.2,63.7h-0.7v-6.1h0.7v2.2c0.3-0.4,0.7-0.6,1.2-0.6c0.3,0,0.5,0.1,0.8,0.2s0.4,0.3,0.6,0.5s0.3,0.4,0.4,0.7
			c0.1,0.3,0.1,0.6,0.1,0.9c0,0.8-0.2,1.3-0.6,1.8c-0.4,0.4-0.8,0.6-1.3,0.6c-0.5,0-0.9-0.2-1.2-0.7V63.7z M89.2,61.5
			c0,0.5,0.1,0.9,0.2,1.1c0.2,0.4,0.6,0.6,1,0.6c0.3,0,0.6-0.1,0.8-0.4c0.2-0.3,0.4-0.7,0.4-1.3c0-0.6-0.1-1-0.3-1.3
			c-0.2-0.3-0.5-0.4-0.8-0.4c-0.3,0-0.6,0.1-0.8,0.4C89.3,60.5,89.2,60.9,89.2,61.5z"/>
		<path d="M96.2,62.3l0.8,0.1c-0.1,0.5-0.3,0.8-0.7,1.1c-0.3,0.2-0.7,0.4-1.3,0.4c-0.6,0-1.2-0.2-1.5-0.6c-0.4-0.4-0.6-1-0.6-1.7
			c0-0.7,0.2-1.3,0.6-1.7s0.9-0.6,1.5-0.6c0.6,0,1.1,0.2,1.4,0.6c0.4,0.4,0.6,1,0.6,1.7c0,0,0,0.1,0,0.2h-3.3c0,0.5,0.2,0.9,0.4,1.1
			c0.2,0.3,0.6,0.4,0.9,0.4c0.3,0,0.5-0.1,0.7-0.2C96,62.8,96.1,62.6,96.2,62.3z M93.8,61.1h2.5c0-0.4-0.1-0.6-0.3-0.8
			c-0.2-0.3-0.5-0.4-0.9-0.4c-0.3,0-0.6,0.1-0.9,0.3C93.9,60.4,93.8,60.7,93.8,61.1z"/>
		<path d="M100.8,62.1l0.7,0.1c-0.1,0.5-0.3,0.9-0.6,1.2c-0.3,0.3-0.7,0.4-1.2,0.4c-0.6,0-1.1-0.2-1.5-0.6c-0.4-0.4-0.5-1-0.5-1.7
			c0-0.5,0.1-0.9,0.2-1.2c0.2-0.4,0.4-0.6,0.7-0.8c0.3-0.2,0.7-0.3,1.1-0.3c0.5,0,0.9,0.1,1.2,0.4c0.3,0.2,0.5,0.6,0.6,1l-0.7,0.1
			c-0.1-0.3-0.2-0.5-0.4-0.7s-0.4-0.2-0.6-0.2c-0.4,0-0.7,0.1-0.9,0.4c-0.2,0.3-0.4,0.7-0.4,1.3c0,0.6,0.1,1,0.3,1.3
			c0.2,0.3,0.5,0.4,0.9,0.4c0.3,0,0.5-0.1,0.7-0.3C100.6,62.7,100.8,62.5,100.8,62.1z"/>
		<path d="M105.1,63.2c-0.3,0.2-0.5,0.4-0.8,0.5c-0.3,0.1-0.5,0.1-0.8,0.1c-0.5,0-0.9-0.1-1.1-0.4c-0.3-0.2-0.4-0.5-0.4-0.9
			c0-0.2,0-0.4,0.1-0.6c0.1-0.2,0.2-0.3,0.4-0.4s0.3-0.2,0.5-0.2c0.1,0,0.4-0.1,0.7-0.1c0.6-0.1,1-0.2,1.3-0.3c0-0.1,0-0.2,0-0.2
			c0-0.3-0.1-0.5-0.2-0.6c-0.2-0.2-0.5-0.3-0.9-0.3c-0.4,0-0.6,0.1-0.8,0.2s-0.3,0.3-0.4,0.7l-0.7-0.1c0.1-0.3,0.2-0.6,0.3-0.8
			s0.4-0.3,0.7-0.4c0.3-0.1,0.6-0.2,1-0.2c0.4,0,0.7,0,0.9,0.1c0.2,0.1,0.4,0.2,0.5,0.3s0.2,0.3,0.2,0.5c0,0.1,0,0.4,0,0.7v1
			c0,0.7,0,1.1,0,1.3s0.1,0.4,0.2,0.5h-0.8C105.1,63.5,105.1,63.4,105.1,63.2z M105,61.5c-0.3,0.1-0.7,0.2-1.2,0.3
			c-0.3,0-0.5,0.1-0.7,0.1c-0.1,0.1-0.2,0.1-0.3,0.2c-0.1,0.1-0.1,0.2-0.1,0.4c0,0.2,0.1,0.4,0.2,0.5s0.4,0.2,0.7,0.2
			c0.3,0,0.5-0.1,0.8-0.2c0.2-0.1,0.4-0.3,0.5-0.5c0.1-0.2,0.1-0.4,0.1-0.7V61.5z"/>
		<path d="M109.8,63.7v-0.6c-0.3,0.5-0.8,0.7-1.4,0.7c-0.3,0-0.5,0-0.7-0.1s-0.4-0.2-0.5-0.4s-0.2-0.3-0.2-0.6c0-0.1,0-0.4,0-0.7
			v-2.7h0.7v2.4c0,0.4,0,0.7,0,0.8c0,0.2,0.1,0.4,0.3,0.5c0.2,0.1,0.3,0.2,0.6,0.2s0.4-0.1,0.6-0.2s0.3-0.3,0.4-0.5s0.1-0.5,0.1-0.9
			v-2.4h0.7v4.4H109.8z"/>
		<path d="M111.3,62.4l0.7-0.1c0,0.3,0.2,0.5,0.3,0.7c0.2,0.2,0.5,0.2,0.8,0.2c0.3,0,0.6-0.1,0.8-0.2s0.2-0.3,0.2-0.5
			c0-0.2-0.1-0.3-0.2-0.4c-0.1-0.1-0.4-0.2-0.8-0.3c-0.5-0.1-0.9-0.3-1.1-0.4c-0.2-0.1-0.4-0.2-0.5-0.4c-0.1-0.2-0.2-0.4-0.2-0.6
			c0-0.2,0-0.4,0.1-0.5s0.2-0.3,0.4-0.4c0.1-0.1,0.3-0.2,0.5-0.2s0.4-0.1,0.6-0.1c0.3,0,0.6,0,0.9,0.1c0.3,0.1,0.5,0.2,0.6,0.4
			c0.1,0.2,0.2,0.4,0.3,0.7l-0.7,0.1c0-0.2-0.1-0.4-0.3-0.5s-0.4-0.2-0.7-0.2c-0.3,0-0.6,0.1-0.7,0.2c-0.1,0.1-0.2,0.2-0.2,0.4
			c0,0.1,0,0.2,0.1,0.3c0.1,0.1,0.2,0.1,0.3,0.2c0.1,0,0.3,0.1,0.7,0.2c0.5,0.1,0.9,0.3,1.1,0.3s0.4,0.2,0.5,0.4s0.2,0.4,0.2,0.6
			c0,0.2-0.1,0.5-0.2,0.7c-0.1,0.2-0.4,0.4-0.6,0.5c-0.3,0.1-0.6,0.2-0.9,0.2c-0.6,0-1-0.1-1.3-0.4S111.4,62.9,111.3,62.4z"/>
		<path d="M118.9,62.3l0.8,0.1c-0.1,0.5-0.3,0.8-0.7,1.1c-0.3,0.2-0.7,0.4-1.3,0.4c-0.6,0-1.2-0.2-1.5-0.6c-0.4-0.4-0.6-1-0.6-1.7
			c0-0.7,0.2-1.3,0.6-1.7s0.9-0.6,1.5-0.6c0.6,0,1.1,0.2,1.4,0.6c0.4,0.4,0.6,1,0.6,1.7c0,0,0,0.1,0,0.2h-3.3c0,0.5,0.2,0.9,0.4,1.1
			c0.2,0.3,0.6,0.4,0.9,0.4c0.3,0,0.5-0.1,0.7-0.2C118.6,62.8,118.8,62.6,118.9,62.3z M116.5,61.1h2.5c0-0.4-0.1-0.6-0.3-0.8
			c-0.2-0.3-0.5-0.4-0.9-0.4c-0.3,0-0.6,0.1-0.9,0.3C116.6,60.4,116.5,60.7,116.5,61.1z"/>
		<path d="M124.6,63l0.1,0.7c-0.2,0-0.4,0.1-0.6,0.1c-0.3,0-0.5,0-0.6-0.1c-0.1-0.1-0.3-0.2-0.3-0.3s-0.1-0.4-0.1-0.9v-2.5h-0.5
			v-0.6h0.5v-1.1l0.7-0.4v1.5h0.8v0.6h-0.8v2.6c0,0.2,0,0.3,0,0.4S124,63,124,63c0.1,0,0.1,0.1,0.3,0.1
			C124.4,63.1,124.5,63.1,124.6,63z"/>
		<path d="M125.3,63.7v-6.1h0.7v2.2c0.3-0.4,0.8-0.6,1.3-0.6c0.3,0,0.6,0.1,0.9,0.2c0.2,0.1,0.4,0.3,0.5,0.5c0.1,0.2,0.2,0.6,0.2,1
			v2.8h-0.7v-2.8c0-0.4-0.1-0.6-0.2-0.8c-0.2-0.2-0.4-0.3-0.7-0.3c-0.2,0-0.4,0.1-0.6,0.2c-0.2,0.1-0.3,0.3-0.4,0.5
			c-0.1,0.2-0.1,0.5-0.1,0.8v2.4H125.3z"/>
		<path d="M133.1,62.3l0.8,0.1c-0.1,0.5-0.3,0.8-0.7,1.1c-0.3,0.2-0.7,0.4-1.3,0.4c-0.6,0-1.2-0.2-1.5-0.6c-0.4-0.4-0.6-1-0.6-1.7
			c0-0.7,0.2-1.3,0.6-1.7s0.9-0.6,1.5-0.6c0.6,0,1.1,0.2,1.4,0.6c0.4,0.4,0.6,1,0.6,1.7c0,0,0,0.1,0,0.2h-3.3c0,0.5,0.2,0.9,0.4,1.1
			c0.2,0.3,0.6,0.4,0.9,0.4c0.3,0,0.5-0.1,0.7-0.2C132.8,62.8,133,62.6,133.1,62.3z M130.6,61.1h2.5c0-0.4-0.1-0.6-0.3-0.8
			c-0.2-0.3-0.5-0.4-0.9-0.4c-0.3,0-0.6,0.1-0.9,0.3C130.8,60.4,130.7,60.7,130.6,61.1z"/>
		<path d="M134.8,58.5v-0.9h0.7v0.9H134.8z M134.8,63.7v-4.4h0.7v4.4H134.8z"/>
		<path d="M136.7,63.7v-4.4h0.7V60c0.2-0.3,0.3-0.5,0.5-0.6c0.1-0.1,0.3-0.1,0.5-0.1c0.3,0,0.5,0.1,0.8,0.2l-0.3,0.7
			c-0.2-0.1-0.4-0.2-0.5-0.2c-0.2,0-0.3,0-0.4,0.1s-0.2,0.2-0.3,0.4c-0.1,0.3-0.1,0.6-0.1,0.9v2.3H136.7z"/>
		<path d="M141.9,65.4v-6.1h0.7v0.6c0.2-0.2,0.3-0.4,0.5-0.5c0.2-0.1,0.4-0.2,0.7-0.2c0.4,0,0.7,0.1,1,0.3c0.3,0.2,0.5,0.5,0.7,0.8
			c0.1,0.4,0.2,0.7,0.2,1.2c0,0.5-0.1,0.9-0.2,1.2c-0.2,0.4-0.4,0.6-0.7,0.8s-0.6,0.3-1,0.3c-0.2,0-0.5-0.1-0.7-0.2
			c-0.2-0.1-0.4-0.2-0.5-0.4v2.1H141.9z M142.5,61.5c0,0.6,0.1,1,0.3,1.3s0.5,0.4,0.8,0.4c0.3,0,0.6-0.1,0.9-0.4s0.4-0.7,0.4-1.3
			c0-0.6-0.1-1-0.3-1.3c-0.2-0.3-0.5-0.4-0.8-0.4c-0.3,0-0.6,0.1-0.8,0.4C142.7,60.5,142.5,61,142.5,61.5z"/>
		<path d="M146.3,61.5c0-0.8,0.2-1.4,0.7-1.8c0.4-0.3,0.8-0.5,1.4-0.5c0.6,0,1.1,0.2,1.5,0.6s0.6,0.9,0.6,1.6c0,0.6-0.1,1-0.3,1.3
			c-0.2,0.3-0.4,0.6-0.7,0.8c-0.3,0.2-0.7,0.3-1.1,0.3c-0.6,0-1.1-0.2-1.5-0.6C146.5,62.8,146.3,62.2,146.3,61.5z M147.1,61.5
			c0,0.6,0.1,1,0.4,1.3c0.2,0.3,0.6,0.4,0.9,0.4c0.4,0,0.7-0.1,0.9-0.4s0.4-0.7,0.4-1.3c0-0.5-0.1-1-0.4-1.2
			c-0.2-0.3-0.6-0.4-0.9-0.4c-0.4,0-0.7,0.1-0.9,0.4C147.2,60.5,147.1,60.9,147.1,61.5z"/>
		<path d="M152.1,63.7l-1.3-4.4h0.8l0.7,2.5l0.3,0.9c0,0,0.1-0.4,0.2-0.9l0.7-2.6h0.8l0.7,2.6l0.2,0.8l0.3-0.9l0.8-2.5h0.7l-1.4,4.4
			h-0.8l-0.7-2.6l-0.2-0.8l-0.9,3.4H152.1z"/>
		<path d="M160.5,62.3l0.8,0.1c-0.1,0.5-0.3,0.8-0.7,1.1s-0.8,0.4-1.3,0.4c-0.6,0-1.2-0.2-1.5-0.6s-0.6-1-0.6-1.7
			c0-0.7,0.2-1.3,0.6-1.7s0.9-0.6,1.5-0.6c0.6,0,1.1,0.2,1.4,0.6c0.4,0.4,0.6,1,0.6,1.7c0,0,0,0.1,0,0.2H158c0,0.5,0.2,0.9,0.4,1.1
			c0.2,0.3,0.6,0.4,0.9,0.4c0.3,0,0.5-0.1,0.7-0.2C160.2,62.8,160.4,62.6,160.5,62.3z M158,61.1h2.5c0-0.4-0.1-0.6-0.3-0.8
			c-0.2-0.3-0.5-0.4-0.9-0.4c-0.3,0-0.6,0.1-0.9,0.3C158.2,60.4,158.1,60.7,158,61.1z"/>
		<path d="M162.2,63.7v-4.4h0.7V60c0.2-0.3,0.3-0.5,0.5-0.6c0.1-0.1,0.3-0.1,0.5-0.1c0.3,0,0.5,0.1,0.8,0.2l-0.3,0.7
			c-0.2-0.1-0.4-0.2-0.5-0.2c-0.2,0-0.3,0-0.4,0.1c-0.1,0.1-0.2,0.2-0.3,0.4c-0.1,0.3-0.1,0.6-0.1,0.9v2.3H162.2z"/>
		<path d="M167.6,63.7v-3.8h-0.7v-0.6h0.7v-0.5c0-0.3,0-0.5,0.1-0.7c0.1-0.2,0.2-0.4,0.4-0.5c0.2-0.1,0.4-0.2,0.8-0.2
			c0.2,0,0.4,0,0.7,0.1l-0.1,0.7c-0.2,0-0.3,0-0.4,0c-0.2,0-0.4,0-0.5,0.1c-0.1,0.1-0.1,0.3-0.1,0.5v0.4h0.9v0.6h-0.9v3.8H167.6z"/>
		<path d="M172.6,63.2c-0.3,0.2-0.5,0.4-0.8,0.5c-0.3,0.1-0.5,0.1-0.8,0.1c-0.5,0-0.9-0.1-1.1-0.4c-0.3-0.2-0.4-0.5-0.4-0.9
			c0-0.2,0-0.4,0.1-0.6c0.1-0.2,0.2-0.3,0.4-0.4s0.3-0.2,0.5-0.2c0.1,0,0.4-0.1,0.7-0.1c0.6-0.1,1-0.2,1.3-0.3c0-0.1,0-0.2,0-0.2
			c0-0.3-0.1-0.5-0.2-0.6c-0.2-0.2-0.5-0.3-0.9-0.3c-0.4,0-0.6,0.1-0.8,0.2c-0.2,0.1-0.3,0.3-0.4,0.7l-0.7-0.1
			c0.1-0.3,0.2-0.6,0.3-0.8s0.4-0.3,0.7-0.4c0.3-0.1,0.6-0.2,1-0.2c0.4,0,0.7,0,0.9,0.1s0.4,0.2,0.5,0.3c0.1,0.1,0.2,0.3,0.2,0.5
			c0,0.1,0,0.4,0,0.7v1c0,0.7,0,1.1,0,1.3c0,0.2,0.1,0.4,0.2,0.5h-0.8C172.7,63.5,172.6,63.4,172.6,63.2z M172.6,61.5
			c-0.3,0.1-0.7,0.2-1.2,0.3c-0.3,0-0.5,0.1-0.7,0.1c-0.1,0.1-0.2,0.1-0.3,0.2s-0.1,0.2-0.1,0.4c0,0.2,0.1,0.4,0.2,0.5
			c0.2,0.1,0.4,0.2,0.7,0.2c0.3,0,0.5-0.1,0.8-0.2c0.2-0.1,0.4-0.3,0.5-0.5c0.1-0.2,0.1-0.4,0.1-0.7V61.5z"/>
		<path d="M177.4,62.1l0.7,0.1c-0.1,0.5-0.3,0.9-0.6,1.2c-0.3,0.3-0.7,0.4-1.2,0.4c-0.6,0-1.1-0.2-1.5-0.6c-0.4-0.4-0.5-1-0.5-1.7
			c0-0.5,0.1-0.9,0.2-1.2c0.2-0.4,0.4-0.6,0.7-0.8c0.3-0.2,0.7-0.3,1.1-0.3c0.5,0,0.9,0.1,1.2,0.4c0.3,0.2,0.5,0.6,0.6,1l-0.7,0.1
			c-0.1-0.3-0.2-0.5-0.4-0.7s-0.4-0.2-0.6-0.2c-0.4,0-0.7,0.1-0.9,0.4c-0.2,0.3-0.4,0.7-0.4,1.3c0,0.6,0.1,1,0.3,1.3
			c0.2,0.3,0.5,0.4,0.9,0.4c0.3,0,0.5-0.1,0.7-0.3C177.2,62.7,177.3,62.5,177.4,62.1z"/>
		<path d="M180.4,63l0.1,0.7c-0.2,0-0.4,0.1-0.6,0.1c-0.3,0-0.5,0-0.6-0.1c-0.1-0.1-0.3-0.2-0.3-0.3c-0.1-0.1-0.1-0.4-0.1-0.9v-2.5
			h-0.5v-0.6h0.5v-1.1l0.7-0.4v1.5h0.8v0.6h-0.8v2.6c0,0.2,0,0.3,0,0.4s0.1,0.1,0.1,0.1c0.1,0,0.1,0.1,0.3,0.1
			C180.1,63.1,180.2,63.1,180.4,63z"/>
		<path d="M180.8,61.5c0-0.8,0.2-1.4,0.7-1.8c0.4-0.3,0.8-0.5,1.4-0.5c0.6,0,1.1,0.2,1.5,0.6s0.6,0.9,0.6,1.6c0,0.6-0.1,1-0.3,1.3
			c-0.2,0.3-0.4,0.6-0.7,0.8c-0.3,0.2-0.7,0.3-1.1,0.3c-0.6,0-1.1-0.2-1.5-0.6C181,62.8,180.8,62.2,180.8,61.5z M181.6,61.5
			c0,0.6,0.1,1,0.4,1.3c0.2,0.3,0.6,0.4,0.9,0.4c0.4,0,0.7-0.1,0.9-0.4s0.4-0.7,0.4-1.3c0-0.5-0.1-1-0.4-1.2
			c-0.2-0.3-0.6-0.4-0.9-0.4c-0.4,0-0.7,0.1-0.9,0.4C181.7,60.5,181.6,60.9,181.6,61.5z"/>
		<path d="M185.8,63.7v-4.4h0.7V60c0.2-0.3,0.3-0.5,0.5-0.6c0.1-0.1,0.3-0.1,0.5-0.1c0.3,0,0.5,0.1,0.8,0.2l-0.3,0.7
			c-0.2-0.1-0.4-0.2-0.5-0.2c-0.2,0-0.3,0-0.4,0.1c-0.1,0.1-0.2,0.2-0.3,0.4c-0.1,0.3-0.1,0.6-0.1,0.9v2.3H185.8z"/>
		<path d="M191,58.5v-0.9h0.7v0.9H191z M191,63.7v-4.4h0.7v4.4H191z"/>
		<path d="M192.6,62.4l0.7-0.1c0,0.3,0.2,0.5,0.3,0.7c0.2,0.2,0.5,0.2,0.8,0.2c0.3,0,0.6-0.1,0.8-0.2s0.2-0.3,0.2-0.5
			c0-0.2-0.1-0.3-0.2-0.4c-0.1-0.1-0.4-0.2-0.8-0.3c-0.5-0.1-0.9-0.3-1.1-0.4s-0.4-0.2-0.5-0.4c-0.1-0.2-0.2-0.4-0.2-0.6
			c0-0.2,0-0.4,0.1-0.5s0.2-0.3,0.4-0.4c0.1-0.1,0.3-0.2,0.5-0.2c0.2-0.1,0.4-0.1,0.6-0.1c0.3,0,0.6,0,0.9,0.1s0.5,0.2,0.6,0.4
			c0.1,0.2,0.2,0.4,0.3,0.7l-0.7,0.1c0-0.2-0.1-0.4-0.3-0.5s-0.4-0.2-0.7-0.2c-0.3,0-0.6,0.1-0.7,0.2c-0.1,0.1-0.2,0.2-0.2,0.4
			c0,0.1,0,0.2,0.1,0.3c0.1,0.1,0.2,0.1,0.3,0.2c0.1,0,0.3,0.1,0.7,0.2c0.5,0.1,0.9,0.3,1.1,0.3s0.4,0.2,0.5,0.4
			c0.1,0.2,0.2,0.4,0.2,0.6c0,0.2-0.1,0.5-0.2,0.7c-0.1,0.2-0.4,0.4-0.6,0.5c-0.3,0.1-0.6,0.2-0.9,0.2c-0.6,0-1-0.1-1.3-0.4
			C192.9,63.2,192.7,62.9,192.6,62.4z"/>
		<path d="M200.2,63.7h-0.7v-6.1h0.7v2.2c0.3-0.4,0.7-0.6,1.2-0.6c0.3,0,0.5,0.1,0.8,0.2s0.4,0.3,0.6,0.5s0.3,0.4,0.4,0.7
			c0.1,0.3,0.1,0.6,0.1,0.9c0,0.8-0.2,1.3-0.6,1.8c-0.4,0.4-0.8,0.6-1.3,0.6c-0.5,0-0.9-0.2-1.2-0.7V63.7z M200.2,61.5
			c0,0.5,0.1,0.9,0.2,1.1c0.2,0.4,0.6,0.6,1,0.6c0.3,0,0.6-0.1,0.8-0.4c0.2-0.3,0.4-0.7,0.4-1.3c0-0.6-0.1-1-0.3-1.3
			c-0.2-0.3-0.5-0.4-0.8-0.4c-0.3,0-0.6,0.1-0.8,0.4C200.3,60.5,200.2,60.9,200.2,61.5z"/>
		<path d="M207.2,62.3l0.8,0.1c-0.1,0.5-0.3,0.8-0.7,1.1s-0.8,0.4-1.3,0.4c-0.6,0-1.2-0.2-1.5-0.6s-0.6-1-0.6-1.7
			c0-0.7,0.2-1.3,0.6-1.7s0.9-0.6,1.5-0.6c0.6,0,1.1,0.2,1.4,0.6c0.4,0.4,0.6,1,0.6,1.7c0,0,0,0.1,0,0.2h-3.3c0,0.5,0.2,0.9,0.4,1.1
			c0.2,0.3,0.6,0.4,0.9,0.4c0.3,0,0.5-0.1,0.7-0.2C207,62.8,207.1,62.6,207.2,62.3z M204.8,61.1h2.5c0-0.4-0.1-0.6-0.3-0.8
			c-0.2-0.3-0.5-0.4-0.9-0.4c-0.3,0-0.6,0.1-0.9,0.3C205,60.4,204.8,60.7,204.8,61.1z"/>
		<path d="M208.9,63.7v-6.1h0.7v6.1H208.9z"/>
		<path d="M210.6,61.5c0-0.8,0.2-1.4,0.7-1.8c0.4-0.3,0.8-0.5,1.4-0.5c0.6,0,1.1,0.2,1.5,0.6s0.6,0.9,0.6,1.6c0,0.6-0.1,1-0.3,1.3
			c-0.2,0.3-0.4,0.6-0.7,0.8c-0.3,0.2-0.7,0.3-1.1,0.3c-0.6,0-1.1-0.2-1.5-0.6C210.8,62.8,210.6,62.2,210.6,61.5z M211.3,61.5
			c0,0.6,0.1,1,0.4,1.3c0.2,0.3,0.6,0.4,0.9,0.4c0.4,0,0.7-0.1,0.9-0.4s0.4-0.7,0.4-1.3c0-0.5-0.1-1-0.4-1.2
			c-0.2-0.3-0.6-0.4-0.9-0.4c-0.4,0-0.7,0.1-0.9,0.4C211.5,60.5,211.3,60.9,211.3,61.5z"/>
		<path d="M216.4,63.7l-1.3-4.4h0.8l0.7,2.5l0.3,0.9c0,0,0.1-0.4,0.2-0.9l0.7-2.6h0.8l0.7,2.6l0.2,0.8l0.3-0.9l0.8-2.5h0.7l-1.4,4.4
			h-0.8l-0.7-2.6l-0.2-0.8l-0.9,3.4H216.4z"/>
		<path d="M224,62.3l0.7-0.1c0.1,0.3,0.2,0.6,0.3,0.7c0.2,0.2,0.4,0.2,0.7,0.2c0.2,0,0.4-0.1,0.6-0.2c0.2-0.1,0.3-0.2,0.4-0.4
			s0.2-0.4,0.3-0.7c0.1-0.3,0.1-0.6,0.1-0.9c0,0,0-0.1,0-0.1c-0.1,0.2-0.4,0.4-0.6,0.6s-0.5,0.2-0.8,0.2c-0.5,0-0.9-0.2-1.3-0.5
			s-0.5-0.8-0.5-1.4c0-0.6,0.2-1.1,0.5-1.5c0.4-0.4,0.8-0.6,1.4-0.6c0.4,0,0.8,0.1,1.1,0.3c0.3,0.2,0.6,0.5,0.7,0.9
			c0.2,0.4,0.3,1,0.3,1.7c0,0.8-0.1,1.4-0.3,1.9c-0.2,0.5-0.4,0.8-0.8,1.1c-0.3,0.2-0.7,0.4-1.2,0.4c-0.5,0-0.9-0.1-1.2-0.4
			S224,62.8,224,62.3z M227,59.6c0-0.4-0.1-0.8-0.3-1c-0.2-0.3-0.5-0.4-0.8-0.4c-0.3,0-0.6,0.1-0.9,0.4c-0.2,0.3-0.4,0.6-0.4,1.1
			c0,0.4,0.1,0.7,0.4,0.9c0.2,0.2,0.5,0.4,0.9,0.4c0.3,0,0.6-0.1,0.9-0.4S227,60,227,59.6z"/>
		<path d="M228.6,60.7c0-0.7,0.1-1.3,0.2-1.7c0.1-0.4,0.4-0.8,0.7-1s0.7-0.4,1.1-0.4c0.3,0,0.6,0.1,0.9,0.2c0.2,0.1,0.5,0.3,0.6,0.6
			c0.2,0.2,0.3,0.5,0.4,0.9s0.1,0.8,0.1,1.4c0,0.7-0.1,1.3-0.2,1.7s-0.4,0.8-0.7,1s-0.7,0.4-1.1,0.4c-0.6,0-1-0.2-1.4-0.6
			C228.8,62.7,228.6,61.8,228.6,60.7z M229.4,60.7c0,1,0.1,1.7,0.4,2c0.2,0.3,0.5,0.5,0.9,0.5c0.3,0,0.6-0.2,0.9-0.5
			c0.2-0.3,0.4-1,0.4-2c0-1-0.1-1.7-0.4-2c-0.2-0.3-0.5-0.5-0.9-0.5c-0.3,0-0.6,0.1-0.8,0.4C229.5,59,229.4,59.7,229.4,60.7z"/>
		<path d="M233.5,59.1c0-0.4,0.1-0.8,0.3-1.1c0.2-0.3,0.5-0.5,1-0.5c0.4,0,0.7,0.1,0.9,0.4c0.2,0.3,0.4,0.7,0.4,1.2
			c0,0.5-0.1,0.9-0.4,1.2c-0.3,0.3-0.6,0.4-0.9,0.4c-0.4,0-0.7-0.1-0.9-0.4C233.6,60,233.5,59.6,233.5,59.1z M234.8,58
			c-0.2,0-0.3,0.1-0.5,0.2c-0.1,0.2-0.2,0.5-0.2,0.9c0,0.4,0.1,0.7,0.2,0.8c0.1,0.2,0.3,0.2,0.5,0.2c0.2,0,0.3-0.1,0.5-0.2
			s0.2-0.5,0.2-0.9c0-0.4-0.1-0.7-0.2-0.8S234.9,58,234.8,58z M234.8,63.9l3.3-6.4h0.6l-3.3,6.4H234.8z M237.4,62.3
			c0-0.4,0.1-0.8,0.3-1.1c0.2-0.3,0.5-0.5,1-0.5c0.4,0,0.7,0.1,0.9,0.4c0.3,0.3,0.4,0.7,0.4,1.2c0,0.5-0.1,0.9-0.4,1.2
			c-0.3,0.3-0.6,0.4-0.9,0.4c-0.4,0-0.7-0.1-0.9-0.4S237.4,62.8,237.4,62.3z M238.7,61.2c-0.2,0-0.3,0.1-0.5,0.2
			c-0.1,0.2-0.2,0.5-0.2,0.9c0,0.4,0.1,0.7,0.2,0.8c0.1,0.2,0.3,0.2,0.5,0.2c0.2,0,0.3-0.1,0.5-0.2s0.2-0.5,0.2-0.9
			c0-0.4-0.1-0.7-0.2-0.8C239,61.3,238.9,61.2,238.7,61.2z"/>
		<path d="M241.3,63.7v-0.9h0.9v0.9H241.3z"/>
	</g>
	<path d="M20.4,80.9v-2.6L18,74.9h1l1.2,1.8c0.2,0.3,0.4,0.7,0.6,1c0.2-0.3,0.4-0.7,0.7-1.1l1.2-1.8h0.9l-2.4,3.5v2.6H20.4z
		 M23.2,78.7c0-0.8,0.2-1.4,0.7-1.8c0.4-0.3,0.8-0.5,1.4-0.5c0.6,0,1.1,0.2,1.5,0.6c0.4,0.4,0.6,0.9,0.6,1.6c0,0.6-0.1,1-0.3,1.3
		c-0.2,0.3-0.4,0.6-0.7,0.8C26,81,25.6,81,25.2,81c-0.6,0-1.1-0.2-1.5-0.6C23.4,80.1,23.2,79.5,23.2,78.7z M23.9,78.7
		c0,0.6,0.1,1,0.4,1.3c0.2,0.3,0.6,0.4,0.9,0.4c0.4,0,0.7-0.1,0.9-0.4c0.2-0.3,0.4-0.7,0.4-1.3c0-0.5-0.1-1-0.4-1.2
		c-0.2-0.3-0.6-0.4-0.9-0.4c-0.4,0-0.7,0.1-0.9,0.4C24.1,77.8,23.9,78.2,23.9,78.7z M31.1,80.9v-0.6c-0.3,0.5-0.8,0.7-1.4,0.7
		c-0.3,0-0.5,0-0.7-0.1c-0.2-0.1-0.4-0.2-0.5-0.4c-0.1-0.2-0.2-0.3-0.2-0.6c0-0.1,0-0.4,0-0.7v-2.7h0.7V79c0,0.4,0,0.7,0,0.8
		c0,0.2,0.1,0.4,0.3,0.5c0.2,0.1,0.3,0.2,0.6,0.2s0.4-0.1,0.6-0.2c0.2-0.1,0.3-0.3,0.4-0.5c0.1-0.2,0.1-0.5,0.1-0.9v-2.4h0.7v4.4
		H31.1z M38.1,79.3l0.7,0.1c-0.1,0.5-0.3,0.9-0.6,1.2C37.9,80.9,37.5,81,37,81c-0.6,0-1.1-0.2-1.5-0.6c-0.4-0.4-0.5-1-0.5-1.7
		c0-0.5,0.1-0.9,0.2-1.2s0.4-0.6,0.7-0.8c0.3-0.2,0.7-0.3,1.1-0.3c0.5,0,0.9,0.1,1.2,0.4c0.3,0.2,0.5,0.6,0.6,1l-0.7,0.1
		c-0.1-0.3-0.2-0.5-0.4-0.7c-0.2-0.1-0.4-0.2-0.6-0.2c-0.4,0-0.7,0.1-0.9,0.4c-0.2,0.3-0.4,0.7-0.4,1.3c0,0.6,0.1,1,0.3,1.3
		c0.2,0.3,0.5,0.4,0.9,0.4c0.3,0,0.5-0.1,0.7-0.3C38,80,38.1,79.7,38.1,79.3z M42.5,80.9c-0.1-0.2-0.1-0.3-0.1-0.5
		c-0.3,0.2-0.5,0.4-0.8,0.5C41.3,81,41.1,81,40.8,81c-0.5,0-0.9-0.1-1.1-0.4c-0.3-0.2-0.4-0.5-0.4-0.9c0-0.2,0-0.4,0.1-0.6
		c0.1-0.2,0.2-0.3,0.4-0.4c0.2-0.1,0.3-0.2,0.5-0.2c0.1,0,0.4-0.1,0.7-0.1c0.6-0.1,1-0.2,1.3-0.3c0-0.1,0-0.2,0-0.2
		c0-0.3-0.1-0.5-0.2-0.6c-0.2-0.2-0.5-0.3-0.9-0.3c-0.4,0-0.6,0.1-0.8,0.2c-0.2,0.1-0.3,0.3-0.4,0.7l-0.7-0.1
		c0.1-0.3,0.2-0.6,0.3-0.8c0.2-0.2,0.4-0.3,0.7-0.4c0.3-0.1,0.6-0.2,1-0.2c0.4,0,0.7,0,0.9,0.1c0.2,0.1,0.4,0.2,0.5,0.3
		c0.1,0.1,0.2,0.3,0.2,0.5c0,0.1,0,0.4,0,0.7v1c0,0.7,0,1.1,0,1.3c0,0.2,0.1,0.4,0.2,0.5H42.5L42.5,80.9z M42.3,78.7
		c-0.3,0.1-0.7,0.2-1.2,0.3c-0.3,0-0.5,0.1-0.7,0.1c-0.1,0.1-0.2,0.1-0.3,0.2c-0.1,0.1-0.1,0.2-0.1,0.4c0,0.2,0.1,0.4,0.2,0.5
		c0.2,0.1,0.4,0.2,0.7,0.2c0.3,0,0.5-0.1,0.8-0.2c0.2-0.1,0.4-0.3,0.5-0.5c0.1-0.2,0.1-0.4,0.1-0.7V78.7z M44.2,80.9v-4.4h0.7v0.6
		c0.3-0.5,0.8-0.7,1.4-0.7c0.3,0,0.5,0,0.7,0.1c0.2,0.1,0.4,0.2,0.5,0.4c0.1,0.2,0.2,0.3,0.2,0.6c0,0.1,0,0.4,0,0.7v2.7h-0.7v-2.7
		c0-0.3,0-0.5-0.1-0.7c-0.1-0.2-0.2-0.3-0.3-0.4c-0.1-0.1-0.3-0.1-0.5-0.1c-0.3,0-0.6,0.1-0.8,0.3C45.1,77.6,45,78,45,78.5v2.4H44.2
		z M54.4,80.9c-0.1-0.2-0.1-0.3-0.1-0.5c-0.3,0.2-0.5,0.4-0.8,0.5C53.2,81,52.9,81,52.6,81c-0.5,0-0.9-0.1-1.1-0.4
		c-0.3-0.2-0.4-0.5-0.4-0.9c0-0.2,0-0.4,0.1-0.6c0.1-0.2,0.2-0.3,0.4-0.4c0.2-0.1,0.3-0.2,0.5-0.2c0.1,0,0.4-0.1,0.7-0.1
		c0.6-0.1,1-0.2,1.3-0.3c0-0.1,0-0.2,0-0.2c0-0.3-0.1-0.5-0.2-0.6c-0.2-0.2-0.5-0.3-0.9-0.3c-0.4,0-0.6,0.1-0.8,0.2
		c-0.2,0.1-0.3,0.3-0.4,0.7l-0.7-0.1c0.1-0.3,0.2-0.6,0.3-0.8c0.2-0.2,0.4-0.3,0.7-0.4c0.3-0.1,0.6-0.2,1-0.2c0.4,0,0.7,0,0.9,0.1
		c0.2,0.1,0.4,0.2,0.5,0.3c0.1,0.1,0.2,0.3,0.2,0.5c0,0.1,0,0.4,0,0.7v1c0,0.7,0,1.1,0,1.3c0,0.2,0.1,0.4,0.2,0.5H54.4L54.4,80.9z
		 M54.1,78.7c-0.3,0.1-0.7,0.2-1.2,0.3c-0.3,0-0.5,0.1-0.7,0.1c-0.1,0.1-0.2,0.1-0.3,0.2c-0.1,0.1-0.1,0.2-0.1,0.4
		c0,0.2,0.1,0.4,0.2,0.5c0.2,0.1,0.4,0.2,0.7,0.2c0.3,0,0.5-0.1,0.8-0.2c0.2-0.1,0.4-0.3,0.5-0.5c0.1-0.2,0.1-0.4,0.1-0.7V78.7z
		 M56,80.9v-6.1h0.7v6.1H56z M57.6,79.6l0.7-0.1c0,0.3,0.2,0.5,0.3,0.7c0.2,0.2,0.5,0.2,0.8,0.2c0.3,0,0.6-0.1,0.8-0.2
		c0.2-0.1,0.2-0.3,0.2-0.5c0-0.2-0.1-0.3-0.2-0.4c-0.1-0.1-0.4-0.2-0.8-0.3c-0.5-0.1-0.9-0.3-1.1-0.4c-0.2-0.1-0.4-0.2-0.5-0.4
		c-0.1-0.2-0.2-0.4-0.2-0.6c0-0.2,0-0.4,0.1-0.5c0.1-0.2,0.2-0.3,0.4-0.4c0.1-0.1,0.3-0.2,0.5-0.2c0.2-0.1,0.4-0.1,0.6-0.1
		c0.3,0,0.6,0,0.9,0.1s0.5,0.2,0.6,0.4s0.2,0.4,0.3,0.7l-0.7,0.1c0-0.2-0.1-0.4-0.3-0.5c-0.2-0.1-0.4-0.2-0.7-0.2
		c-0.3,0-0.6,0.1-0.7,0.2c-0.1,0.1-0.2,0.2-0.2,0.4c0,0.1,0,0.2,0.1,0.3c0.1,0.1,0.2,0.1,0.3,0.2c0.1,0,0.3,0.1,0.7,0.2
		c0.5,0.1,0.9,0.3,1.1,0.3c0.2,0.1,0.4,0.2,0.5,0.4c0.1,0.2,0.2,0.4,0.2,0.6c0,0.2-0.1,0.5-0.2,0.7s-0.4,0.4-0.6,0.5
		S59.9,81,59.5,81c-0.6,0-1-0.1-1.3-0.4C57.9,80.5,57.7,80.1,57.6,79.6z M61.9,78.7c0-0.8,0.2-1.4,0.7-1.8c0.4-0.3,0.8-0.5,1.4-0.5
		c0.6,0,1.1,0.2,1.5,0.6c0.4,0.4,0.6,0.9,0.6,1.6c0,0.6-0.1,1-0.3,1.3c-0.2,0.3-0.4,0.6-0.7,0.8C64.7,81,64.4,81,64,81
		c-0.6,0-1.1-0.2-1.5-0.6C62.1,80.1,61.9,79.5,61.9,78.7z M62.7,78.7c0,0.6,0.1,1,0.4,1.3c0.2,0.3,0.6,0.4,0.9,0.4
		c0.4,0,0.7-0.1,0.9-0.4c0.2-0.3,0.4-0.7,0.4-1.3c0-0.5-0.1-1-0.4-1.2c-0.2-0.3-0.6-0.4-0.9-0.4c-0.4,0-0.7,0.1-0.9,0.4
		C62.8,77.8,62.7,78.2,62.7,78.7z M69,79.6l0.7-0.1c0,0.3,0.2,0.5,0.3,0.7c0.2,0.2,0.5,0.2,0.8,0.2c0.3,0,0.6-0.1,0.8-0.2
		c0.2-0.1,0.2-0.3,0.2-0.5c0-0.2-0.1-0.3-0.2-0.4c-0.1-0.1-0.4-0.2-0.8-0.3c-0.5-0.1-0.9-0.3-1.1-0.4c-0.2-0.1-0.4-0.2-0.5-0.4
		c-0.1-0.2-0.2-0.4-0.2-0.6c0-0.2,0-0.4,0.1-0.5c0.1-0.2,0.2-0.3,0.4-0.4c0.1-0.1,0.3-0.2,0.5-0.2c0.2-0.1,0.4-0.1,0.6-0.1
		c0.3,0,0.6,0,0.9,0.1s0.5,0.2,0.6,0.4s0.2,0.4,0.3,0.7l-0.7,0.1c0-0.2-0.1-0.4-0.3-0.5c-0.2-0.1-0.4-0.2-0.7-0.2
		c-0.3,0-0.6,0.1-0.7,0.2c-0.1,0.1-0.2,0.2-0.2,0.4c0,0.1,0,0.2,0.1,0.3c0.1,0.1,0.2,0.1,0.3,0.2c0.1,0,0.3,0.1,0.7,0.2
		c0.5,0.1,0.9,0.3,1.1,0.3c0.2,0.1,0.4,0.2,0.5,0.4c0.1,0.2,0.2,0.4,0.2,0.6c0,0.2-0.1,0.5-0.2,0.7s-0.4,0.4-0.6,0.5
		S71.2,81,70.9,81c-0.6,0-1-0.1-1.3-0.4C69.3,80.5,69.1,80.1,69,79.6z M73.5,75.7v-0.9h0.7v0.9H73.5z M73.5,80.9v-4.4h0.7v4.4H73.5z
		 M75.3,81.3l0.7,0.1c0,0.2,0.1,0.4,0.3,0.5c0.2,0.1,0.4,0.2,0.8,0.2c0.3,0,0.6-0.1,0.8-0.2c0.2-0.1,0.3-0.3,0.4-0.6
		c0-0.2,0.1-0.5,0.1-1c-0.3,0.4-0.7,0.6-1.2,0.6c-0.6,0-1.1-0.2-1.4-0.7c-0.3-0.4-0.5-1-0.5-1.6c0-0.4,0.1-0.8,0.2-1.2
		c0.2-0.4,0.4-0.6,0.7-0.8c0.3-0.2,0.6-0.3,1-0.3c0.5,0,0.9,0.2,1.3,0.6v-0.5H79v3.8c0,0.7-0.1,1.2-0.2,1.5
		c-0.1,0.3-0.4,0.5-0.7,0.7s-0.7,0.2-1.1,0.2c-0.5,0-1-0.1-1.3-0.4S75.3,81.8,75.3,81.3z M75.9,78.7c0,0.6,0.1,1,0.3,1.3
		c0.2,0.3,0.5,0.4,0.9,0.4c0.3,0,0.6-0.1,0.9-0.4c0.2-0.3,0.3-0.7,0.3-1.2c0-0.5-0.1-0.9-0.4-1.2c-0.2-0.3-0.5-0.4-0.9-0.4
		c-0.3,0-0.6,0.1-0.8,0.4S75.9,78.1,75.9,78.7z M80.1,80.9v-4.4h0.7v0.6c0.3-0.5,0.8-0.7,1.4-0.7c0.3,0,0.5,0,0.7,0.1
		c0.2,0.1,0.4,0.2,0.5,0.4c0.1,0.2,0.2,0.3,0.2,0.6c0,0.1,0,0.4,0,0.7v2.7H83v-2.7c0-0.3,0-0.5-0.1-0.7c-0.1-0.2-0.2-0.3-0.3-0.4
		c-0.1-0.1-0.3-0.1-0.5-0.1c-0.3,0-0.6,0.1-0.8,0.3c-0.2,0.2-0.3,0.6-0.3,1.1v2.4H80.1z M90.1,80.9v-0.6c-0.3,0.5-0.8,0.7-1.4,0.7
		c-0.3,0-0.5,0-0.7-0.1c-0.2-0.1-0.4-0.2-0.5-0.4c-0.1-0.2-0.2-0.3-0.2-0.6c0-0.1,0-0.4,0-0.7v-2.7H88V79c0,0.4,0,0.7,0,0.8
		c0,0.2,0.1,0.4,0.3,0.5c0.2,0.1,0.3,0.2,0.6,0.2s0.4-0.1,0.6-0.2c0.2-0.1,0.3-0.3,0.4-0.5c0.1-0.2,0.1-0.5,0.1-0.9v-2.4h0.7v4.4
		H90.1z M92,82.6v-6.1h0.7v0.6c0.2-0.2,0.3-0.4,0.5-0.5c0.2-0.1,0.4-0.2,0.7-0.2c0.4,0,0.7,0.1,1,0.3c0.3,0.2,0.5,0.5,0.7,0.8
		c0.1,0.4,0.2,0.7,0.2,1.2c0,0.5-0.1,0.9-0.2,1.2s-0.4,0.6-0.7,0.8c-0.3,0.2-0.6,0.3-1,0.3c-0.2,0-0.5-0.1-0.7-0.2
		c-0.2-0.1-0.4-0.2-0.5-0.4v2.1H92z M92.6,78.8c0,0.6,0.1,1,0.3,1.3c0.2,0.3,0.5,0.4,0.8,0.4c0.3,0,0.6-0.1,0.9-0.4
		c0.2-0.3,0.4-0.7,0.4-1.3c0-0.6-0.1-1-0.3-1.3c-0.2-0.3-0.5-0.4-0.8-0.4c-0.3,0-0.6,0.1-0.8,0.4C92.8,77.8,92.6,78.2,92.6,78.8z
		 M100.4,80.3c0.1,0,0.2,0,0.3,0l0.1,0.7c-0.2,0-0.4,0.1-0.6,0.1c-0.3,0-0.5,0-0.6-0.1s-0.3-0.2-0.3-0.3c-0.1-0.1-0.1-0.4-0.1-0.9
		v-2.5h-0.5v-0.6h0.5v-1.1l0.7-0.4v1.5h0.8v0.6h-0.8v2.6c0,0.2,0,0.4,0,0.4c0,0.1,0.1,0.1,0.1,0.1C100.2,80.3,100.2,80.3,100.4,80.3
		L100.4,80.3z M101.1,78.7c0-0.8,0.2-1.4,0.7-1.8c0.4-0.3,0.8-0.5,1.4-0.5c0.6,0,1.1,0.2,1.5,0.6c0.4,0.4,0.6,0.9,0.6,1.6
		c0,0.6-0.1,1-0.3,1.3c-0.2,0.3-0.4,0.6-0.7,0.8c-0.3,0.2-0.7,0.3-1.1,0.3c-0.6,0-1.1-0.2-1.5-0.6C101.3,80.1,101.1,79.5,101.1,78.7
		z M101.9,78.7c0,0.6,0.1,1,0.4,1.3c0.2,0.3,0.6,0.4,0.9,0.4c0.4,0,0.7-0.1,0.9-0.4c0.2-0.3,0.4-0.7,0.4-1.3c0-0.5-0.1-1-0.4-1.2
		c-0.2-0.3-0.6-0.4-0.9-0.4c-0.4,0-0.7,0.1-0.9,0.4C102,77.8,101.9,78.2,101.9,78.7z M109.2,80.9h-0.7v-6.1h0.7V77
		c0.3-0.4,0.7-0.6,1.2-0.6c0.3,0,0.5,0.1,0.8,0.2c0.2,0.1,0.4,0.3,0.6,0.5c0.2,0.2,0.3,0.4,0.4,0.7c0.1,0.3,0.1,0.6,0.1,0.9
		c0,0.8-0.2,1.3-0.6,1.8c-0.4,0.4-0.8,0.6-1.3,0.6c-0.5,0-0.9-0.2-1.2-0.7V80.9z M109.2,78.7c0,0.5,0.1,0.9,0.2,1.1
		c0.2,0.4,0.6,0.6,1,0.6c0.3,0,0.6-0.1,0.8-0.4c0.2-0.3,0.4-0.7,0.4-1.3c0-0.6-0.1-1-0.3-1.3s-0.5-0.4-0.8-0.4
		c-0.3,0-0.6,0.1-0.8,0.4C109.3,77.8,109.2,78.2,109.2,78.7z M116.2,79.5l0.8,0.1c-0.1,0.5-0.3,0.8-0.7,1.1
		c-0.3,0.2-0.7,0.4-1.3,0.4c-0.6,0-1.2-0.2-1.5-0.6c-0.4-0.4-0.6-1-0.6-1.7c0-0.7,0.2-1.3,0.6-1.7c0.4-0.4,0.9-0.6,1.5-0.6
		c0.6,0,1.1,0.2,1.4,0.6c0.4,0.4,0.6,1,0.6,1.7c0,0,0,0.1,0,0.2h-3.3c0,0.5,0.2,0.9,0.4,1.1c0.2,0.3,0.6,0.4,0.9,0.4
		c0.3,0,0.5-0.1,0.7-0.2C116,80.1,116.1,79.8,116.2,79.5z M113.8,78.3h2.5c0-0.4-0.1-0.6-0.3-0.8c-0.2-0.3-0.5-0.4-0.9-0.4
		c-0.3,0-0.6,0.1-0.9,0.3C113.9,77.6,113.8,77.9,113.8,78.3z M120.3,80.9v-4.4h0.7v0.6c0.3-0.5,0.8-0.7,1.4-0.7c0.3,0,0.5,0,0.7,0.1
		c0.2,0.1,0.4,0.2,0.5,0.4c0.1,0.2,0.2,0.3,0.2,0.6c0,0.1,0,0.4,0,0.7v2.7h-0.7v-2.7c0-0.3,0-0.5-0.1-0.7c-0.1-0.2-0.2-0.3-0.3-0.4
		c-0.1-0.1-0.3-0.1-0.5-0.1c-0.3,0-0.6,0.1-0.8,0.3c-0.2,0.2-0.3,0.6-0.3,1.1v2.4H120.3z M124.8,78.7c0-0.8,0.2-1.4,0.7-1.8
		c0.4-0.3,0.8-0.5,1.4-0.5c0.6,0,1.1,0.2,1.5,0.6c0.4,0.4,0.6,0.9,0.6,1.6c0,0.6-0.1,1-0.3,1.3c-0.2,0.3-0.4,0.6-0.7,0.8
		c-0.3,0.2-0.7,0.3-1.1,0.3c-0.6,0-1.1-0.2-1.5-0.6C125,80.1,124.8,79.5,124.8,78.7z M125.5,78.7c0,0.6,0.1,1,0.4,1.3
		c0.2,0.3,0.6,0.4,0.9,0.4c0.4,0,0.7-0.1,0.9-0.4c0.2-0.3,0.4-0.7,0.4-1.3c0-0.5-0.1-1-0.4-1.2c-0.2-0.3-0.6-0.4-0.9-0.4
		c-0.4,0-0.7,0.1-0.9,0.4C125.7,77.8,125.5,78.2,125.5,78.7z M131.1,80.3c0.1,0,0.2,0,0.3,0l0.1,0.7c-0.2,0-0.4,0.1-0.6,0.1
		c-0.3,0-0.5,0-0.6-0.1s-0.3-0.2-0.3-0.3c-0.1-0.1-0.1-0.4-0.1-0.9v-2.5h-0.5v-0.6h0.5v-1.1l0.7-0.4v1.5h0.8v0.6h-0.8v2.6
		c0,0.2,0,0.4,0,0.4c0,0.1,0.1,0.1,0.1,0.1C130.9,80.3,131,80.3,131.1,80.3L131.1,80.3z M132.1,75.7v-0.9h0.7v0.9H132.1z
		 M132.1,80.9v-4.4h0.7v4.4H132.1z M134.2,80.9v-3.8h-0.7v-0.6h0.7v-0.4c0-0.4,0.1-0.8,0.3-1c0.2-0.2,0.5-0.3,0.9-0.3
		c0.3,0,0.5,0,0.8,0.1l-0.1,0.6c-0.1,0-0.3,0-0.4,0c-0.3,0-0.4,0.1-0.5,0.2c-0.1,0.1-0.1,0.3-0.1,0.7v0.3h0.9v0.6H135v3.8H134.2z
		 M136.4,75.7v-0.9h0.7v0.9H136.4z M136.4,80.9v-4.4h0.7v4.4H136.4z M141.3,79.5l0.8,0.1c-0.1,0.5-0.3,0.8-0.7,1.1
		c-0.3,0.2-0.7,0.4-1.3,0.4c-0.6,0-1.2-0.2-1.5-0.6c-0.4-0.4-0.6-1-0.6-1.7c0-0.7,0.2-1.3,0.6-1.7c0.4-0.4,0.9-0.6,1.5-0.6
		c0.6,0,1.1,0.2,1.4,0.6c0.4,0.4,0.6,1,0.6,1.7c0,0,0,0.1,0,0.2h-3.3c0,0.5,0.2,0.9,0.4,1.1c0.2,0.3,0.6,0.4,0.9,0.4
		c0.3,0,0.5-0.1,0.7-0.2C141,80.1,141.2,79.8,141.3,79.5z M138.8,78.3h2.5c0-0.4-0.1-0.6-0.3-0.8c-0.2-0.3-0.5-0.4-0.9-0.4
		c-0.3,0-0.6,0.1-0.9,0.3C139,77.6,138.9,77.9,138.8,78.3z M145.9,80.9v-0.6c-0.3,0.4-0.7,0.7-1.2,0.7c-0.4,0-0.7-0.1-1-0.3
		s-0.5-0.5-0.7-0.8c-0.2-0.3-0.2-0.7-0.2-1.2c0-0.4,0.1-0.8,0.2-1.2c0.1-0.4,0.4-0.6,0.7-0.8c0.3-0.2,0.6-0.3,1-0.3
		c0.3,0,0.5,0.1,0.7,0.2s0.4,0.3,0.5,0.4v-2.2h0.7v6.1H145.9z M143.5,78.7c0,0.6,0.1,1,0.4,1.3c0.2,0.3,0.5,0.4,0.8,0.4
		c0.3,0,0.6-0.1,0.8-0.4c0.2-0.3,0.3-0.7,0.3-1.2c0-0.6-0.1-1-0.3-1.3s-0.5-0.4-0.9-0.4c-0.3,0-0.6,0.1-0.8,0.4
		C143.6,77.7,143.5,78.2,143.5,78.7z M150.8,80.9h-0.7v-6.1h0.7V77c0.3-0.4,0.7-0.6,1.2-0.6c0.3,0,0.5,0.1,0.8,0.2
		c0.2,0.1,0.4,0.3,0.6,0.5c0.2,0.2,0.3,0.4,0.4,0.7c0.1,0.3,0.1,0.6,0.1,0.9c0,0.8-0.2,1.3-0.6,1.8c-0.4,0.4-0.8,0.6-1.3,0.6
		c-0.5,0-0.9-0.2-1.2-0.7V80.9z M150.8,78.7c0,0.5,0.1,0.9,0.2,1.1c0.2,0.4,0.6,0.6,1,0.6c0.3,0,0.6-0.1,0.8-0.4
		c0.2-0.3,0.4-0.7,0.4-1.3c0-0.6-0.1-1-0.3-1.3s-0.5-0.4-0.8-0.4c-0.3,0-0.6,0.1-0.8,0.4C150.9,77.8,150.8,78.2,150.8,78.7z
		 M155.3,82.7c-0.1,0-0.3,0-0.5-0.1l-0.1-0.7c0.2,0,0.3,0.1,0.4,0.1c0.2,0,0.3,0,0.4-0.1c0.1-0.1,0.2-0.1,0.2-0.2
		c0-0.1,0.1-0.3,0.2-0.6c0,0,0-0.1,0.1-0.2l-1.7-4.4h0.8l0.9,2.6c0.1,0.3,0.2,0.7,0.3,1c0.1-0.3,0.2-0.7,0.3-1l0.9-2.6h0.7l-1.7,4.5
		c-0.2,0.5-0.3,0.8-0.4,1c-0.1,0.2-0.3,0.4-0.5,0.5C155.7,82.7,155.5,82.7,155.3,82.7L155.3,82.7z M164.4,79.5l0.8,0.1
		c-0.1,0.5-0.3,0.8-0.7,1.1c-0.3,0.2-0.7,0.4-1.3,0.4c-0.6,0-1.2-0.2-1.5-0.6c-0.4-0.4-0.6-1-0.6-1.7c0-0.7,0.2-1.3,0.6-1.7
		c0.4-0.4,0.9-0.6,1.5-0.6c0.6,0,1.1,0.2,1.4,0.6c0.4,0.4,0.6,1,0.6,1.7c0,0,0,0.1,0,0.2h-3.3c0,0.5,0.2,0.9,0.4,1.1
		c0.2,0.3,0.6,0.4,0.9,0.4c0.3,0,0.5-0.1,0.7-0.2C164.2,80.1,164.3,79.8,164.4,79.5z M162,78.3h2.5c0-0.4-0.1-0.6-0.3-0.8
		c-0.2-0.3-0.5-0.4-0.9-0.4c-0.3,0-0.6,0.1-0.9,0.3C162.1,77.6,162,77.9,162,78.3z M166.1,80.9v-4.4h0.7v0.6
		c0.1-0.2,0.3-0.4,0.6-0.5c0.2-0.1,0.5-0.2,0.8-0.2c0.3,0,0.6,0.1,0.8,0.2c0.2,0.1,0.4,0.3,0.4,0.6c0.3-0.5,0.8-0.8,1.4-0.8
		c0.4,0,0.8,0.1,1,0.4c0.2,0.2,0.4,0.6,0.4,1.1v3h-0.7v-2.8c0-0.3,0-0.5-0.1-0.6c0-0.1-0.1-0.2-0.3-0.3c-0.1-0.1-0.3-0.1-0.4-0.1
		c-0.3,0-0.6,0.1-0.8,0.3c-0.2,0.2-0.3,0.5-0.3,1v2.6h-0.7v-2.9c0-0.3-0.1-0.6-0.2-0.7c-0.1-0.2-0.3-0.2-0.6-0.2
		c-0.2,0-0.4,0.1-0.6,0.2c-0.2,0.1-0.3,0.3-0.4,0.5c-0.1,0.2-0.1,0.5-0.1,0.9v2.3H166.1z M176.3,80.9c-0.1-0.2-0.1-0.3-0.1-0.5
		c-0.3,0.2-0.5,0.4-0.8,0.5c-0.3,0.1-0.5,0.1-0.8,0.1c-0.5,0-0.9-0.1-1.1-0.4c-0.3-0.2-0.4-0.5-0.4-0.9c0-0.2,0-0.4,0.1-0.6
		c0.1-0.2,0.2-0.3,0.4-0.4c0.2-0.1,0.3-0.2,0.5-0.2c0.1,0,0.4-0.1,0.7-0.1c0.6-0.1,1-0.2,1.3-0.3c0-0.1,0-0.2,0-0.2
		c0-0.3-0.1-0.5-0.2-0.6c-0.2-0.2-0.5-0.3-0.9-0.3c-0.4,0-0.6,0.1-0.8,0.2c-0.2,0.1-0.3,0.3-0.4,0.7l-0.7-0.1
		c0.1-0.3,0.2-0.6,0.3-0.8c0.2-0.2,0.4-0.3,0.7-0.4c0.3-0.1,0.6-0.2,1-0.2c0.4,0,0.7,0,0.9,0.1c0.2,0.1,0.4,0.2,0.5,0.3
		c0.1,0.1,0.2,0.3,0.2,0.5c0,0.1,0,0.4,0,0.7v1c0,0.7,0,1.1,0,1.3c0,0.2,0.1,0.4,0.2,0.5H176.3L176.3,80.9z M176,78.7
		c-0.3,0.1-0.7,0.2-1.2,0.3c-0.3,0-0.5,0.1-0.7,0.1c-0.1,0.1-0.2,0.1-0.3,0.2c-0.1,0.1-0.1,0.2-0.1,0.4c0,0.2,0.1,0.4,0.2,0.5
		c0.2,0.1,0.4,0.2,0.7,0.2c0.3,0,0.5-0.1,0.8-0.2c0.2-0.1,0.4-0.3,0.5-0.5c0.1-0.2,0.1-0.4,0.1-0.7V78.7z M178,75.7v-0.9h0.7v0.9
		H178z M178,80.9v-4.4h0.7v4.4H178z M179.8,80.9v-6.1h0.7v6.1H179.8z M184.9,80.9l-1.3-4.4h0.8l0.7,2.5l0.3,0.9c0,0,0.1-0.3,0.2-0.9
		l0.7-2.6h0.8l0.7,2.6l0.2,0.8l0.3-0.9l0.8-2.5h0.7l-1.4,4.4h-0.8l-0.7-2.6l-0.2-0.8l-0.9,3.4H184.9z M190.2,80.9v-6.1h0.7V77
		c0.3-0.4,0.8-0.6,1.3-0.6c0.3,0,0.6,0.1,0.9,0.2s0.4,0.3,0.5,0.5c0.1,0.2,0.2,0.6,0.2,1v2.8h-0.7v-2.8c0-0.4-0.1-0.6-0.2-0.8
		s-0.4-0.3-0.7-0.3c-0.2,0-0.4,0.1-0.6,0.2c-0.2,0.1-0.3,0.3-0.4,0.5c-0.1,0.2-0.1,0.5-0.1,0.8v2.4H190.2z M198,79.5l0.8,0.1
		c-0.1,0.5-0.3,0.8-0.7,1.1c-0.3,0.2-0.7,0.4-1.3,0.4c-0.6,0-1.2-0.2-1.5-0.6c-0.4-0.4-0.6-1-0.6-1.7c0-0.7,0.2-1.3,0.6-1.7
		c0.4-0.4,0.9-0.6,1.5-0.6c0.6,0,1.1,0.2,1.4,0.6c0.4,0.4,0.6,1,0.6,1.7c0,0,0,0.1,0,0.2h-3.3c0,0.5,0.2,0.9,0.4,1.1
		c0.2,0.3,0.6,0.4,0.9,0.4c0.3,0,0.5-0.1,0.7-0.2C197.7,80.1,197.9,79.8,198,79.5z M195.5,78.3h2.5c0-0.4-0.1-0.6-0.3-0.8
		c-0.2-0.3-0.5-0.4-0.9-0.4c-0.3,0-0.6,0.1-0.9,0.3C195.7,77.6,195.5,77.9,195.5,78.3z M199.7,80.9v-4.4h0.7v0.6
		c0.3-0.5,0.8-0.7,1.4-0.7c0.3,0,0.5,0,0.7,0.1c0.2,0.1,0.4,0.2,0.5,0.4c0.1,0.2,0.2,0.3,0.2,0.6c0,0.1,0,0.4,0,0.7v2.7h-0.7v-2.7
		c0-0.3,0-0.5-0.1-0.7c-0.1-0.2-0.2-0.3-0.3-0.4c-0.1-0.1-0.3-0.1-0.5-0.1c-0.3,0-0.6,0.1-0.8,0.3c-0.2,0.2-0.3,0.6-0.3,1.1v2.4
		H199.7z M207.2,82.7c-0.1,0-0.3,0-0.5-0.1l-0.1-0.7c0.2,0,0.3,0.1,0.4,0.1c0.2,0,0.3,0,0.4-0.1c0.1-0.1,0.2-0.1,0.2-0.2
		c0-0.1,0.1-0.3,0.2-0.6c0,0,0-0.1,0.1-0.2l-1.7-4.4h0.8l0.9,2.6c0.1,0.3,0.2,0.7,0.3,1c0.1-0.3,0.2-0.7,0.3-1l0.9-2.6h0.7l-1.7,4.5
		c-0.2,0.5-0.3,0.8-0.4,1c-0.1,0.2-0.3,0.4-0.5,0.5C207.7,82.7,207.5,82.7,207.2,82.7L207.2,82.7z M210.7,78.7
		c0-0.8,0.2-1.4,0.7-1.8c0.4-0.3,0.8-0.5,1.4-0.5c0.6,0,1.1,0.2,1.5,0.6c0.4,0.4,0.6,0.9,0.6,1.6c0,0.6-0.1,1-0.3,1.3
		c-0.2,0.3-0.4,0.6-0.7,0.8c-0.3,0.2-0.7,0.3-1.1,0.3c-0.6,0-1.1-0.2-1.5-0.6C210.9,80.1,210.7,79.5,210.7,78.7z M211.5,78.7
		c0,0.6,0.1,1,0.4,1.3c0.2,0.3,0.6,0.4,0.9,0.4c0.4,0,0.7-0.1,0.9-0.4c0.2-0.3,0.4-0.7,0.4-1.3c0-0.5-0.1-1-0.4-1.2
		c-0.2-0.3-0.6-0.4-0.9-0.4c-0.4,0-0.7,0.1-0.9,0.4C211.6,77.8,211.5,78.2,211.5,78.7z M218.6,80.9v-0.6c-0.3,0.5-0.8,0.7-1.4,0.7
		c-0.3,0-0.5,0-0.7-0.1c-0.2-0.1-0.4-0.2-0.5-0.4c-0.1-0.2-0.2-0.3-0.2-0.6c0-0.1,0-0.4,0-0.7v-2.7h0.7V79c0,0.4,0,0.7,0,0.8
		c0,0.2,0.1,0.4,0.3,0.5c0.2,0.1,0.3,0.2,0.6,0.2s0.4-0.1,0.6-0.2c0.2-0.1,0.3-0.3,0.4-0.5c0.1-0.2,0.1-0.5,0.1-0.9v-2.4h0.7v4.4
		H218.6z M220.5,80.9v-4.4h0.7v0.7c0.2-0.3,0.3-0.5,0.5-0.6s0.3-0.1,0.5-0.1c0.3,0,0.5,0.1,0.8,0.2l-0.3,0.7
		c-0.2-0.1-0.4-0.2-0.5-0.2c-0.2,0-0.3,0-0.4,0.1c-0.1,0.1-0.2,0.2-0.3,0.4c-0.1,0.3-0.1,0.6-0.1,0.9v2.3H220.5z M225.7,82.6v-6.1
		h0.7v0.6c0.2-0.2,0.3-0.4,0.5-0.5c0.2-0.1,0.4-0.2,0.7-0.2c0.4,0,0.7,0.1,1,0.3c0.3,0.2,0.5,0.5,0.7,0.8c0.1,0.4,0.2,0.7,0.2,1.2
		c0,0.5-0.1,0.9-0.2,1.2s-0.4,0.6-0.7,0.8c-0.3,0.2-0.6,0.3-1,0.3c-0.2,0-0.5-0.1-0.7-0.2c-0.2-0.1-0.4-0.2-0.5-0.4v2.1H225.7z
		 M226.3,78.8c0,0.6,0.1,1,0.3,1.3c0.2,0.3,0.5,0.4,0.8,0.4c0.3,0,0.6-0.1,0.9-0.4c0.2-0.3,0.4-0.7,0.4-1.3c0-0.6-0.1-1-0.3-1.3
		c-0.2-0.3-0.5-0.4-0.8-0.4c-0.3,0-0.6,0.1-0.8,0.4C226.5,77.8,226.3,78.2,226.3,78.8z M230.1,78.7c0-0.8,0.2-1.4,0.7-1.8
		c0.4-0.3,0.8-0.5,1.4-0.5c0.6,0,1.1,0.2,1.5,0.6c0.4,0.4,0.6,0.9,0.6,1.6c0,0.6-0.1,1-0.3,1.3c-0.2,0.3-0.4,0.6-0.7,0.8
		c-0.3,0.2-0.7,0.3-1.1,0.3c-0.6,0-1.1-0.2-1.5-0.6C230.3,80.1,230.1,79.5,230.1,78.7z M230.9,78.7c0,0.6,0.1,1,0.4,1.3
		c0.2,0.3,0.6,0.4,0.9,0.4c0.4,0,0.7-0.1,0.9-0.4c0.2-0.3,0.4-0.7,0.4-1.3c0-0.5-0.1-1-0.4-1.2c-0.2-0.3-0.6-0.4-0.9-0.4
		c-0.4,0-0.7,0.1-0.9,0.4C231,77.8,230.9,78.2,230.9,78.7z M235.9,80.9l-1.3-4.4h0.8l0.7,2.5l0.3,0.9c0,0,0.1-0.3,0.2-0.9l0.7-2.6
		h0.8l0.7,2.6l0.2,0.8l0.3-0.9l0.8-2.5h0.7l-1.4,4.4h-0.8l-0.7-2.6l-0.2-0.8l-0.9,3.4H235.9z M244.3,79.5l0.8,0.1
		c-0.1,0.5-0.3,0.8-0.7,1.1c-0.3,0.2-0.7,0.4-1.3,0.4c-0.6,0-1.2-0.2-1.5-0.6c-0.4-0.4-0.6-1-0.6-1.7c0-0.7,0.2-1.3,0.6-1.7
		c0.4-0.4,0.9-0.6,1.5-0.6c0.6,0,1.1,0.2,1.4,0.6c0.4,0.4,0.6,1,0.6,1.7c0,0,0,0.1,0,0.2h-3.3c0,0.5,0.2,0.9,0.4,1.1
		c0.2,0.3,0.6,0.4,0.9,0.4c0.3,0,0.5-0.1,0.7-0.2C244,80.1,244.2,79.8,244.3,79.5z M241.8,78.3h2.5c0-0.4-0.1-0.6-0.3-0.8
		c-0.2-0.3-0.5-0.4-0.9-0.4c-0.3,0-0.6,0.1-0.9,0.3C242,77.6,241.8,77.9,241.8,78.3z M246,80.9v-4.4h0.7v0.7
		c0.2-0.3,0.3-0.5,0.5-0.6s0.3-0.1,0.5-0.1c0.3,0,0.5,0.1,0.8,0.2l-0.3,0.7c-0.2-0.1-0.4-0.2-0.5-0.2c-0.2,0-0.3,0-0.4,0.1
		c-0.1,0.1-0.2,0.2-0.3,0.4c-0.1,0.3-0.1,0.6-0.1,0.9v2.3H246z"/>
	<g>
		<path d="M18.7,93.7v-3.8h-0.7v-0.6h0.7v-0.5c0-0.3,0-0.5,0.1-0.7c0.1-0.2,0.2-0.4,0.4-0.5c0.2-0.1,0.4-0.2,0.8-0.2
			c0.2,0,0.4,0,0.7,0.1l-0.1,0.7c-0.2,0-0.3,0-0.4,0c-0.2,0-0.4,0-0.5,0.1c-0.1,0.1-0.1,0.3-0.1,0.5v0.4h0.9v0.6h-0.9v3.8H18.7z"/>
		<path d="M23.8,93.2c-0.3,0.2-0.5,0.4-0.8,0.5c-0.3,0.1-0.5,0.1-0.8,0.1c-0.5,0-0.9-0.1-1.1-0.4c-0.3-0.2-0.4-0.5-0.4-0.9
			c0-0.2,0-0.4,0.1-0.6c0.1-0.2,0.2-0.3,0.4-0.4s0.3-0.2,0.5-0.2c0.1,0,0.4-0.1,0.7-0.1c0.6-0.1,1-0.2,1.3-0.3c0-0.1,0-0.2,0-0.2
			c0-0.3-0.1-0.5-0.2-0.6c-0.2-0.2-0.5-0.3-0.9-0.3c-0.4,0-0.6,0.1-0.8,0.2s-0.3,0.3-0.4,0.7l-0.7-0.1c0.1-0.3,0.2-0.6,0.3-0.8
			s0.4-0.3,0.7-0.4c0.3-0.1,0.6-0.2,1-0.2c0.4,0,0.7,0,0.9,0.1c0.2,0.1,0.4,0.2,0.5,0.3s0.2,0.3,0.2,0.5c0,0.1,0,0.4,0,0.7v1
			c0,0.7,0,1.1,0,1.3s0.1,0.4,0.2,0.5h-0.8C23.9,93.5,23.8,93.4,23.8,93.2z M23.7,91.5c-0.3,0.1-0.7,0.2-1.2,0.3
			c-0.3,0-0.5,0.1-0.7,0.1c-0.1,0.1-0.2,0.1-0.3,0.2c-0.1,0.1-0.1,0.2-0.1,0.4c0,0.2,0.1,0.4,0.2,0.5s0.4,0.2,0.7,0.2
			c0.3,0,0.5-0.1,0.8-0.2c0.2-0.1,0.4-0.3,0.5-0.5c0.1-0.2,0.1-0.4,0.1-0.7V91.5z"/>
		<path d="M28.5,92.1l0.7,0.1c-0.1,0.5-0.3,0.9-0.6,1.2c-0.3,0.3-0.7,0.4-1.2,0.4c-0.6,0-1.1-0.2-1.5-0.6c-0.4-0.4-0.5-1-0.5-1.7
			c0-0.5,0.1-0.9,0.2-1.2c0.2-0.4,0.4-0.6,0.7-0.8c0.3-0.2,0.7-0.3,1.1-0.3c0.5,0,0.9,0.1,1.2,0.4c0.3,0.2,0.5,0.6,0.6,1l-0.7,0.1
			c-0.1-0.3-0.2-0.5-0.4-0.7s-0.4-0.2-0.6-0.2c-0.4,0-0.7,0.1-0.9,0.4c-0.2,0.3-0.4,0.7-0.4,1.3c0,0.6,0.1,1,0.3,1.3
			c0.2,0.3,0.5,0.4,0.9,0.4c0.3,0,0.5-0.1,0.7-0.3C28.3,92.7,28.5,92.5,28.5,92.1z"/>
		<path d="M31.5,93l0.1,0.7c-0.2,0-0.4,0.1-0.6,0.1c-0.3,0-0.5,0-0.6-0.1c-0.1-0.1-0.3-0.2-0.3-0.3S30,92.9,30,92.4v-2.5h-0.5v-0.6
			H30v-1.1l0.7-0.4v1.5h0.8v0.6h-0.8v2.6c0,0.2,0,0.3,0,0.4s0.1,0.1,0.1,0.1c0.1,0,0.1,0.1,0.3,0.1C31.3,93.1,31.4,93,31.5,93z"/>
		<path d="M32,91.5c0-0.8,0.2-1.4,0.7-1.8c0.4-0.3,0.8-0.5,1.4-0.5c0.6,0,1.1,0.2,1.5,0.6s0.6,0.9,0.6,1.6c0,0.6-0.1,1-0.3,1.3
			c-0.2,0.3-0.4,0.6-0.7,0.8c-0.3,0.2-0.7,0.3-1.1,0.3c-0.6,0-1.1-0.2-1.5-0.6C32.2,92.8,32,92.2,32,91.5z M32.8,91.5
			c0,0.6,0.1,1,0.4,1.3s0.6,0.4,0.9,0.4c0.4,0,0.7-0.1,0.9-0.4c0.2-0.3,0.4-0.7,0.4-1.3c0-0.5-0.1-1-0.4-1.2s-0.6-0.4-0.9-0.4
			c-0.4,0-0.7,0.1-0.9,0.4S32.8,90.9,32.8,91.5z"/>
		<path d="M37,93.7v-4.4h0.7V90c0.2-0.3,0.3-0.5,0.5-0.6c0.1-0.1,0.3-0.1,0.5-0.1c0.3,0,0.5,0.1,0.8,0.2l-0.3,0.7
			C38.9,90,38.8,90,38.6,90c-0.2,0-0.3,0-0.4,0.1s-0.2,0.2-0.3,0.4c-0.1,0.3-0.1,0.6-0.1,0.9v2.3H37z"/>
		<path d="M42.4,93.7v-3.8h-0.7v-0.6h0.7v-0.5c0-0.3,0-0.5,0.1-0.7c0.1-0.2,0.2-0.4,0.4-0.5c0.2-0.1,0.4-0.2,0.8-0.2
			c0.2,0,0.4,0,0.7,0.1l-0.1,0.7c-0.2,0-0.3,0-0.4,0c-0.2,0-0.4,0-0.5,0.1c-0.1,0.1-0.1,0.3-0.1,0.5v0.4H44v0.6h-0.9v3.8H42.4z"/>
		<path d="M47.4,93.2c-0.3,0.2-0.5,0.4-0.8,0.5c-0.3,0.1-0.5,0.1-0.8,0.1c-0.5,0-0.9-0.1-1.1-0.4c-0.3-0.2-0.4-0.5-0.4-0.9
			c0-0.2,0-0.4,0.1-0.6c0.1-0.2,0.2-0.3,0.4-0.4s0.3-0.2,0.5-0.2c0.1,0,0.4-0.1,0.7-0.1c0.6-0.1,1-0.2,1.3-0.3c0-0.1,0-0.2,0-0.2
			c0-0.3-0.1-0.5-0.2-0.6c-0.2-0.2-0.5-0.3-0.9-0.3c-0.4,0-0.6,0.1-0.8,0.2s-0.3,0.3-0.4,0.7l-0.7-0.1c0.1-0.3,0.2-0.6,0.3-0.8
			s0.4-0.3,0.7-0.4c0.3-0.1,0.6-0.2,1-0.2c0.4,0,0.7,0,0.9,0.1c0.2,0.1,0.4,0.2,0.5,0.3s0.2,0.3,0.2,0.5c0,0.1,0,0.4,0,0.7v1
			c0,0.7,0,1.1,0,1.3s0.1,0.4,0.2,0.5h-0.8C47.5,93.5,47.4,93.4,47.4,93.2z M47.4,91.5c-0.3,0.1-0.7,0.2-1.2,0.3
			c-0.3,0-0.5,0.1-0.7,0.1c-0.1,0.1-0.2,0.1-0.3,0.2c-0.1,0.1-0.1,0.2-0.1,0.4c0,0.2,0.1,0.4,0.2,0.5s0.4,0.2,0.7,0.2
			c0.3,0,0.5-0.1,0.8-0.2c0.2-0.1,0.4-0.3,0.5-0.5c0.1-0.2,0.1-0.4,0.1-0.7V91.5z"/>
		<path d="M49.3,93.7v-6.1H50v6.1H49.3z"/>
		<path d="M51.1,93.7v-6.1h0.7v6.1H51.1z"/>
		<path d="M52.7,92.4l0.7-0.1c0,0.3,0.2,0.5,0.3,0.7c0.2,0.2,0.5,0.2,0.8,0.2c0.3,0,0.6-0.1,0.8-0.2s0.2-0.3,0.2-0.5
			c0-0.2-0.1-0.3-0.2-0.4c-0.1-0.1-0.4-0.2-0.8-0.3c-0.5-0.1-0.9-0.3-1.1-0.4c-0.2-0.1-0.4-0.2-0.5-0.4c-0.1-0.2-0.2-0.4-0.2-0.6
			c0-0.2,0-0.4,0.1-0.5s0.2-0.3,0.4-0.4c0.1-0.1,0.3-0.2,0.5-0.2s0.4-0.1,0.6-0.1c0.3,0,0.6,0,0.9,0.1c0.3,0.1,0.5,0.2,0.6,0.4
			c0.1,0.2,0.2,0.4,0.3,0.7l-0.7,0.1c0-0.2-0.1-0.4-0.3-0.5s-0.4-0.2-0.7-0.2c-0.3,0-0.6,0.1-0.7,0.2c-0.1,0.1-0.2,0.2-0.2,0.4
			c0,0.1,0,0.2,0.1,0.3c0.1,0.1,0.2,0.1,0.3,0.2c0.1,0,0.3,0.1,0.7,0.2c0.5,0.1,0.9,0.3,1.1,0.3s0.4,0.2,0.5,0.4s0.2,0.4,0.2,0.6
			c0,0.2-0.1,0.5-0.2,0.7c-0.1,0.2-0.4,0.4-0.6,0.5c-0.3,0.1-0.6,0.2-0.9,0.2c-0.6,0-1-0.1-1.3-0.4S52.8,92.8,52.7,92.4z"/>
		<path d="M60.3,93.7h-0.7v-6.1h0.7v2.2c0.3-0.4,0.7-0.6,1.2-0.6c0.3,0,0.5,0.1,0.8,0.2s0.4,0.3,0.6,0.5s0.3,0.4,0.4,0.7
			c0.1,0.3,0.1,0.6,0.1,0.9c0,0.8-0.2,1.3-0.6,1.8c-0.4,0.4-0.8,0.6-1.3,0.6c-0.5,0-0.9-0.2-1.2-0.7V93.7z M60.3,91.5
			c0,0.5,0.1,0.9,0.2,1.1c0.2,0.4,0.6,0.6,1,0.6c0.3,0,0.6-0.1,0.8-0.4c0.2-0.3,0.4-0.7,0.4-1.3c0-0.6-0.1-1-0.3-1.3
			c-0.2-0.3-0.5-0.4-0.8-0.4c-0.3,0-0.6,0.1-0.8,0.4C60.5,90.5,60.3,90.9,60.3,91.5z"/>
		<path d="M67.4,92.3l0.8,0.1c-0.1,0.5-0.3,0.8-0.7,1.1c-0.3,0.2-0.7,0.4-1.3,0.4c-0.6,0-1.2-0.2-1.5-0.6c-0.4-0.4-0.6-1-0.6-1.7
			c0-0.7,0.2-1.3,0.6-1.7s0.9-0.6,1.5-0.6c0.6,0,1.1,0.2,1.4,0.6c0.4,0.4,0.6,1,0.6,1.7c0,0,0,0.1,0,0.2h-3.3c0,0.5,0.2,0.9,0.4,1.1
			c0.2,0.3,0.6,0.4,0.9,0.4c0.3,0,0.5-0.1,0.7-0.2C67.1,92.8,67.3,92.6,67.4,92.3z M64.9,91.1h2.5c0-0.4-0.1-0.6-0.3-0.8
			c-0.2-0.3-0.5-0.4-0.9-0.4c-0.3,0-0.6,0.1-0.9,0.3C65.1,90.4,65,90.7,64.9,91.1z"/>
		<path d="M69.1,93.7v-6.1h0.7v6.1H69.1z"/>
		<path d="M70.7,91.5c0-0.8,0.2-1.4,0.7-1.8c0.4-0.3,0.8-0.5,1.4-0.5c0.6,0,1.1,0.2,1.5,0.6s0.6,0.9,0.6,1.6c0,0.6-0.1,1-0.3,1.3
			c-0.2,0.3-0.4,0.6-0.7,0.8c-0.3,0.2-0.7,0.3-1.1,0.3c-0.6,0-1.1-0.2-1.5-0.6C70.9,92.8,70.7,92.2,70.7,91.5z M71.5,91.5
			c0,0.6,0.1,1,0.4,1.3s0.6,0.4,0.9,0.4c0.4,0,0.7-0.1,0.9-0.4c0.2-0.3,0.4-0.7,0.4-1.3c0-0.5-0.1-1-0.4-1.2s-0.6-0.4-0.9-0.4
			c-0.4,0-0.7,0.1-0.9,0.4S71.5,90.9,71.5,91.5z"/>
		<path d="M76.5,93.7l-1.3-4.4H76l0.7,2.5l0.3,0.9c0,0,0.1-0.4,0.2-0.9l0.7-2.6h0.8l0.7,2.6l0.2,0.8l0.3-0.9l0.8-2.5h0.7l-1.4,4.4
			h-0.8l-0.7-2.6l-0.2-0.8l-0.9,3.4H76.5z"/>
		<path d="M84.1,92.3l0.7-0.1c0.1,0.3,0.2,0.6,0.3,0.7c0.2,0.2,0.4,0.2,0.7,0.2c0.2,0,0.4-0.1,0.6-0.2c0.2-0.1,0.3-0.2,0.4-0.4
			s0.2-0.4,0.3-0.7c0.1-0.3,0.1-0.6,0.1-0.9c0,0,0-0.1,0-0.1c-0.1,0.2-0.4,0.4-0.6,0.6s-0.5,0.2-0.8,0.2c-0.5,0-0.9-0.2-1.3-0.5
			S84,90.2,84,89.6c0-0.6,0.2-1.1,0.5-1.5s0.8-0.6,1.4-0.6c0.4,0,0.8,0.1,1.1,0.3c0.3,0.2,0.6,0.5,0.7,0.9c0.2,0.4,0.3,1,0.3,1.7
			c0,0.8-0.1,1.4-0.3,1.9c-0.2,0.5-0.4,0.8-0.8,1.1s-0.7,0.4-1.2,0.4c-0.5,0-0.9-0.1-1.2-0.4C84.4,93.1,84.2,92.8,84.1,92.3z
			 M87.2,89.6c0-0.4-0.1-0.8-0.3-1c-0.2-0.3-0.5-0.4-0.8-0.4c-0.3,0-0.6,0.1-0.9,0.4c-0.2,0.3-0.4,0.6-0.4,1.1
			c0,0.4,0.1,0.7,0.4,0.9S85.7,91,86,91c0.3,0,0.6-0.1,0.9-0.4S87.2,90,87.2,89.6z"/>
		<path d="M88.7,90.7c0-0.7,0.1-1.3,0.2-1.7s0.4-0.8,0.7-1s0.7-0.4,1.1-0.4c0.3,0,0.6,0.1,0.9,0.2s0.4,0.3,0.6,0.6
			c0.2,0.2,0.3,0.5,0.4,0.9s0.1,0.8,0.1,1.4c0,0.7-0.1,1.3-0.2,1.7s-0.4,0.8-0.7,1s-0.7,0.4-1.1,0.4c-0.6,0-1-0.2-1.4-0.6
			C88.9,92.7,88.7,91.8,88.7,90.7z M89.5,90.7c0,1,0.1,1.7,0.4,2s0.5,0.5,0.9,0.5c0.3,0,0.6-0.2,0.9-0.5s0.4-1,0.4-2
			c0-1-0.1-1.7-0.4-2s-0.5-0.5-0.9-0.5c-0.3,0-0.6,0.1-0.8,0.4C89.6,89,89.5,89.7,89.5,90.7z"/>
		<path d="M93.6,89.1c0-0.4,0.1-0.8,0.3-1.1c0.2-0.3,0.5-0.5,1-0.5c0.4,0,0.7,0.1,0.9,0.4s0.4,0.7,0.4,1.2c0,0.5-0.1,0.9-0.4,1.2
			c-0.3,0.3-0.6,0.4-0.9,0.4c-0.4,0-0.7-0.1-0.9-0.4C93.7,90,93.6,89.6,93.6,89.1z M94.9,88c-0.2,0-0.3,0.1-0.5,0.2
			c-0.1,0.2-0.2,0.5-0.2,0.9c0,0.4,0.1,0.7,0.2,0.8c0.1,0.2,0.3,0.2,0.5,0.2c0.2,0,0.3-0.1,0.5-0.2s0.2-0.5,0.2-0.9
			c0-0.4-0.1-0.7-0.2-0.8S95.1,88,94.9,88z M94.9,93.9l3.3-6.4h0.6l-3.3,6.4H94.9z M97.6,92.3c0-0.4,0.1-0.8,0.3-1.1
			c0.2-0.3,0.5-0.5,1-0.5c0.4,0,0.7,0.1,0.9,0.4s0.4,0.7,0.4,1.2c0,0.5-0.1,0.9-0.4,1.2c-0.3,0.3-0.6,0.4-0.9,0.4
			c-0.4,0-0.7-0.1-0.9-0.4C97.7,93.2,97.6,92.8,97.6,92.3z M98.9,91.2c-0.2,0-0.3,0.1-0.5,0.2c-0.1,0.2-0.2,0.5-0.2,0.9
			c0,0.4,0.1,0.7,0.2,0.8c0.1,0.2,0.3,0.2,0.5,0.2c0.2,0,0.3-0.1,0.5-0.2s0.2-0.5,0.2-0.9c0-0.4-0.1-0.7-0.2-0.8
			C99.2,91.3,99,91.2,98.9,91.2z"/>
		<path d="M101.5,93.7v-0.9h0.9v0.9H101.5z"/>
	</g>
</g>
</svg>
