<?xml version="1.0" encoding="utf-8"?>
<!-- Generator: Adobe Illustrator 20.1.0, SVG Export Plug-In . SVG Version: 6.00 Build 0)  -->
<svg version="1.1" id="Layer_1" xmlns="http://www.w3.org/2000/svg" xmlns:xlink="http://www.w3.org/1999/xlink" x="0px" y="0px"
	 viewBox="0 0 470 295" style="enable-background:new 0 0 470 295;" xml:space="preserve">
<style type="text/css">
	.st0{clip-path:url(#SVGID_2_);fill:#231F20;}
	
		.st1{clip-path:url(#SVGID_2_);fill:none;stroke:#004F6C;stroke-width:3;stroke-linecap:round;stroke-linejoin:round;stroke-miterlimit:10;}
	.st2{clip-path:url(#SVGID_2_);fill:#004F6C;}
</style>
<g>
	<g>
		<defs>
			<rect id="SVGID_1_" width="440" height="185.5"/>
		</defs>
		<clipPath id="SVGID_2_">
			<use xlink:href="#SVGID_1_"  style="overflow:visible;"/>
		</clipPath>
		<path class="st0" d="M143.8,170h-1.3v1.3h1.3V170z M140.4,162h-1.1v9.3h1.1V162z M137.5,162h-1.1v9.3h1.1V162z M134.6,164.6h-1.1
			v6.7h1.1V164.6z M134.6,162h-1.1v1.3h1.1V162z M127.8,166c0.4-0.4,0.8-0.7,1.3-0.7c0.5,0,0.9,0.2,1.3,0.6c0.3,0.4,0.5,1.1,0.5,1.9
			c0,0.9-0.2,1.5-0.5,1.9c-0.4,0.4-0.8,0.7-1.3,0.7c-0.6,0-1.1-0.3-1.5-0.9c-0.2-0.4-0.3-0.9-0.3-1.8
			C127.3,167.1,127.5,166.4,127.8,166 M127.3,170.5c0.5,0.7,1.1,1,1.9,1c0.8,0,1.5-0.3,2.1-0.9c0.6-0.6,0.9-1.5,0.9-2.7
			c0-0.5-0.1-0.9-0.2-1.4c-0.1-0.4-0.3-0.8-0.6-1.1c-0.2-0.3-0.5-0.5-0.9-0.7c-0.4-0.2-0.8-0.3-1.2-0.3c-0.7,0-1.4,0.3-1.8,0.9V162
			h-1.1v9.3h1.1V170.5z M116.6,170.9c0.5,0.4,1.1,0.5,2,0.5c0.5,0,1-0.1,1.4-0.3c0.4-0.2,0.7-0.4,1-0.8c0.2-0.3,0.3-0.7,0.3-1.1
			c0-0.4-0.1-0.7-0.3-1c-0.2-0.3-0.4-0.5-0.8-0.6c-0.3-0.1-0.9-0.3-1.7-0.5c-0.6-0.2-0.9-0.2-1-0.3c-0.2-0.1-0.3-0.2-0.4-0.3
			c-0.1-0.1-0.1-0.3-0.1-0.4c0-0.2,0.1-0.4,0.3-0.6c0.2-0.2,0.6-0.3,1.1-0.3c0.4,0,0.8,0.1,1,0.3c0.2,0.2,0.4,0.5,0.4,0.8l1.1-0.2
			c-0.1-0.4-0.2-0.8-0.4-1c-0.2-0.3-0.5-0.5-0.9-0.6c-0.4-0.2-0.9-0.2-1.4-0.2c-0.4,0-0.7,0-1,0.1s-0.5,0.2-0.7,0.3
			c-0.2,0.2-0.4,0.4-0.6,0.6c-0.1,0.3-0.2,0.5-0.2,0.8c0,0.3,0.1,0.6,0.3,0.9c0.2,0.3,0.4,0.5,0.7,0.6c0.3,0.2,0.9,0.3,1.7,0.6
			c0.6,0.2,1,0.3,1.2,0.4c0.2,0.1,0.3,0.4,0.3,0.6c0,0.3-0.1,0.5-0.4,0.8c-0.3,0.2-0.6,0.3-1.2,0.3c-0.5,0-0.9-0.1-1.2-0.4
			c-0.3-0.2-0.5-0.6-0.5-1l-1.1,0.2C115.8,170,116.1,170.5,116.6,170.9 M114.4,164.6h-1.1v6.7h1.1V164.6z M114.4,162h-1.1v1.3h1.1
			V162z M107.2,171.3v-3.7c0-0.5,0.1-0.9,0.2-1.2c0.1-0.3,0.3-0.5,0.6-0.7c0.3-0.2,0.6-0.3,1-0.3c0.5,0,0.8,0.1,1,0.4
			c0.2,0.3,0.4,0.7,0.4,1.2v4.3h1.1V167c0-0.7-0.1-1.2-0.2-1.5c-0.2-0.3-0.4-0.6-0.8-0.8c-0.4-0.2-0.8-0.3-1.3-0.3
			c-0.8,0-1.5,0.3-2,0.9V162H106v9.3H107.2z M104.4,170.3c-0.2,0-0.3,0-0.4-0.1c-0.1-0.1-0.2-0.1-0.2-0.2c0-0.1-0.1-0.3-0.1-0.6
			v-3.9h1.1v-0.9h-1.1v-2.4l-1.1,0.7v1.7h-0.8v0.9h0.8v3.9c0,0.7,0,1.1,0.1,1.3c0.1,0.2,0.3,0.4,0.5,0.5c0.2,0.1,0.5,0.2,1,0.2
			c0.3,0,0.5,0,0.9-0.1l-0.2-1C104.7,170.3,104.5,170.3,104.4,170.3 M92.7,171.3v-3.7c0-0.9,0.2-1.4,0.5-1.8
			c0.4-0.3,0.8-0.5,1.3-0.5c0.3,0,0.6,0.1,0.8,0.2c0.2,0.1,0.4,0.3,0.5,0.6c0.1,0.2,0.1,0.6,0.1,1v4.1H97v-4.1c0-0.5,0-0.9-0.1-1.1
			c-0.1-0.3-0.2-0.6-0.4-0.8c-0.2-0.2-0.4-0.4-0.8-0.6c-0.3-0.1-0.7-0.2-1.1-0.2c-0.9,0-1.7,0.4-2.1,1.1v-1h-1v6.7H92.7z M85.6,166
			c0.4-0.4,0.8-0.6,1.4-0.6c0.6,0,1,0.2,1.4,0.6c0.4,0.4,0.6,1.1,0.6,1.9c0,0.9-0.2,1.5-0.6,2c-0.4,0.4-0.8,0.6-1.4,0.6
			c-0.6,0-1-0.2-1.4-0.6c-0.4-0.4-0.6-1.1-0.6-1.9C85.1,167.1,85.3,166.4,85.6,166 M84.8,170.5c0.6,0.6,1.3,0.9,2.3,0.9
			c0.6,0,1.1-0.1,1.6-0.4c0.5-0.3,0.9-0.7,1.1-1.2c0.3-0.5,0.4-1.2,0.4-2c0-1.1-0.3-1.9-0.9-2.5c-0.6-0.6-1.3-0.9-2.3-0.9
			c-0.8,0-1.5,0.2-2.1,0.7c-0.7,0.6-1,1.5-1,2.8C83.9,169.1,84.2,169.9,84.8,170.5 M74.8,166c0.3-0.4,0.8-0.6,1.3-0.6
			c0.5,0,1,0.2,1.3,0.6c0.4,0.4,0.5,1.1,0.5,2c0,0.8-0.2,1.5-0.5,1.9c-0.3,0.4-0.8,0.6-1.3,0.6c-0.5,0-0.9-0.2-1.3-0.6
			c-0.4-0.4-0.5-1.1-0.5-1.9C74.2,167,74.4,166.4,74.8,166 M78.9,171.3V162h-1.1v3.3c-0.2-0.3-0.5-0.5-0.8-0.7
			c-0.3-0.2-0.7-0.3-1.1-0.3c-0.6,0-1.1,0.1-1.5,0.4c-0.4,0.3-0.8,0.7-1,1.3c-0.2,0.5-0.3,1.2-0.3,1.8c0,0.7,0.1,1.3,0.4,1.8
			c0.2,0.5,0.6,0.9,1,1.2c0.5,0.3,0.9,0.4,1.5,0.4c0.8,0,1.5-0.3,1.9-1v0.9H78.9z M67.7,165.9c0.4-0.4,0.8-0.5,1.3-0.5
			c0.6,0,1.1,0.2,1.4,0.7c0.2,0.3,0.4,0.7,0.4,1.3h-3.8C67.2,166.7,67.4,166.2,67.7,165.9 M70.2,170.2c-0.3,0.2-0.7,0.3-1.1,0.3
			c-0.6,0-1-0.2-1.4-0.6c-0.4-0.4-0.6-1-0.6-1.7h5c0-0.1,0-0.2,0-0.3c0-1.1-0.3-2-0.9-2.6c-0.6-0.6-1.3-0.9-2.2-0.9
			c-0.9,0-1.7,0.3-2.3,0.9c-0.6,0.6-0.9,1.5-0.9,2.6c0,1.1,0.3,1.9,0.9,2.6c0.6,0.6,1.4,0.9,2.3,0.9c0.8,0,1.4-0.2,1.9-0.6
			c0.5-0.4,0.8-0.9,1-1.6l-1.2-0.1C70.7,169.6,70.5,170,70.2,170.2 M64.6,170.3c-0.2,0-0.3,0-0.4-0.1c-0.1-0.1-0.2-0.1-0.2-0.2
			c0-0.1-0.1-0.3-0.1-0.6v-3.9h1.1v-0.9H64v-2.4l-1.1,0.7v1.7H62v0.9h0.8v3.9c0,0.7,0,1.1,0.1,1.3c0.1,0.2,0.3,0.4,0.5,0.5
			c0.2,0.1,0.5,0.2,1,0.2c0.3,0,0.5,0,0.9-0.1l-0.2-1C64.9,170.3,64.8,170.3,64.6,170.3 M60,170.1c-0.3,0.3-0.7,0.4-1.1,0.4
			c-0.6,0-1-0.2-1.4-0.6c-0.3-0.4-0.5-1.1-0.5-2c0-0.9,0.2-1.5,0.5-2c0.4-0.4,0.8-0.6,1.4-0.6c0.4,0,0.7,0.1,1,0.3
			c0.3,0.2,0.5,0.6,0.6,1l1.1-0.2c-0.1-0.7-0.4-1.2-0.9-1.6c-0.5-0.4-1.1-0.6-1.8-0.6c-0.6,0-1.1,0.1-1.6,0.4
			c-0.5,0.3-0.9,0.7-1.1,1.2c-0.2,0.5-0.4,1.2-0.4,1.9c0,1.1,0.3,2,0.8,2.6c0.6,0.6,1.3,0.9,2.2,0.9c0.7,0,1.4-0.2,1.9-0.7
			s0.8-1,0.9-1.8l-1.1-0.1C60.5,169.4,60.3,169.8,60,170.1 M50.4,165.9c0.4-0.4,0.8-0.5,1.3-0.5c0.6,0,1.1,0.2,1.4,0.7
			c0.2,0.3,0.4,0.7,0.4,1.3h-3.8C49.8,166.7,50,166.2,50.4,165.9 M52.8,170.2c-0.3,0.2-0.7,0.3-1.1,0.3c-0.6,0-1-0.2-1.4-0.6
			c-0.4-0.4-0.6-1-0.6-1.7h5c0-0.1,0-0.2,0-0.3c0-1.1-0.3-2-0.9-2.6c-0.6-0.6-1.3-0.9-2.2-0.9c-0.9,0-1.7,0.3-2.3,0.9
			c-0.6,0.6-0.9,1.5-0.9,2.6c0,1.1,0.3,1.9,0.9,2.6c0.6,0.6,1.4,0.9,2.3,0.9c0.8,0,1.4-0.2,1.9-0.6c0.5-0.4,0.8-0.9,1-1.6l-1.2-0.1
			C53.4,169.6,53.1,170,52.8,170.2 M47.2,162H46v9.3h1.1V162z M43.9,171.3v-5.9h1.3v-0.9h-1.3v-0.4c0-0.5,0.1-0.8,0.2-1
			c0.1-0.2,0.4-0.2,0.8-0.2c0.2,0,0.4,0,0.6,0.1l0.2-1c-0.4-0.1-0.7-0.1-1.2-0.1c-0.6,0-1.1,0.2-1.4,0.5c-0.3,0.4-0.4,0.9-0.4,1.5
			v0.7h-1v0.9h1v5.9H43.9z M36.6,165.9c0.4-0.4,0.8-0.5,1.3-0.5c0.6,0,1.1,0.2,1.4,0.7c0.2,0.3,0.4,0.7,0.4,1.3H36
			C36.1,166.7,36.3,166.2,36.6,165.9 M39.1,170.2c-0.3,0.2-0.7,0.3-1.1,0.3c-0.6,0-1-0.2-1.4-0.6c-0.4-0.4-0.6-1-0.6-1.7h5
			c0-0.1,0-0.2,0-0.3c0-1.1-0.3-2-0.9-2.6c-0.6-0.6-1.3-0.9-2.2-0.9c-0.9,0-1.7,0.3-2.3,0.9c-0.6,0.6-0.9,1.5-0.9,2.6
			c0,1.1,0.3,1.9,0.9,2.6c0.6,0.6,1.4,0.9,2.3,0.9c0.8,0,1.4-0.2,1.9-0.6c0.5-0.4,0.8-0.9,1-1.6l-1.2-0.1
			C39.6,169.6,39.4,170,39.1,170.2 M32,171.3v-3.5c0-0.5,0.1-0.9,0.2-1.3c0.1-0.3,0.2-0.5,0.4-0.6c0.2-0.1,0.4-0.2,0.7-0.2
			c0.3,0,0.6,0.1,0.8,0.2l0.4-1.1c-0.4-0.2-0.8-0.4-1.2-0.4c-0.3,0-0.5,0.1-0.7,0.2c-0.2,0.2-0.5,0.5-0.7,0.9v-1h-1v6.7H32z"/>
		<path class="st0" d="M286.4,146.4c0.4-0.4,0.8-0.5,1.3-0.5c0.6,0,1.1,0.2,1.4,0.7c0.2,0.3,0.4,0.7,0.4,1.3h-3.8
			C285.9,147.2,286.1,146.7,286.4,146.4 M288.9,150.7c-0.3,0.2-0.7,0.3-1.1,0.3c-0.6,0-1-0.2-1.4-0.6c-0.4-0.4-0.6-1-0.6-1.7h5
			c0-0.1,0-0.2,0-0.3c0-1.1-0.3-2-0.9-2.6c-0.6-0.6-1.3-0.9-2.2-0.9c-0.9,0-1.7,0.3-2.3,0.9c-0.6,0.6-0.9,1.5-0.9,2.6
			c0,1.1,0.3,1.9,0.9,2.6c0.6,0.6,1.4,0.9,2.3,0.9c0.8,0,1.4-0.2,1.9-0.6c0.5-0.4,0.8-0.9,1-1.6l-1.2-0.1
			C289.4,150.1,289.2,150.5,288.9,150.7 M279.3,146.5c0.4-0.4,0.8-0.7,1.3-0.7c0.5,0,0.9,0.2,1.3,0.6c0.4,0.4,0.5,1.1,0.5,1.9
			c0,0.9-0.2,1.5-0.5,1.9c-0.4,0.4-0.8,0.7-1.3,0.7c-0.6,0-1.1-0.3-1.5-0.9c-0.2-0.4-0.3-0.9-0.3-1.8
			C278.8,147.6,279,146.9,279.3,146.5 M278.8,151c0.5,0.7,1.1,1,1.9,1c0.8,0,1.5-0.3,2.1-0.9c0.6-0.6,0.9-1.5,0.9-2.7
			c0-0.5-0.1-0.9-0.2-1.4c-0.1-0.4-0.3-0.8-0.6-1.1c-0.2-0.3-0.5-0.5-0.9-0.7s-0.8-0.3-1.2-0.3c-0.7,0-1.4,0.3-1.8,0.9v-3.3h-1.1
			v9.3h1.1V151z M268.3,154.5c0.4,0,0.7-0.1,0.9-0.3c0.3-0.2,0.5-0.5,0.7-0.8c0.2-0.3,0.4-0.8,0.6-1.5l2.6-6.9H272l-1.4,3.9
			c-0.2,0.5-0.3,1-0.5,1.5c-0.1-0.5-0.3-1.1-0.5-1.6l-1.4-3.9H267l2.6,6.8c0,0.1-0.1,0.2-0.1,0.3c-0.2,0.5-0.3,0.7-0.4,0.9
			c-0.1,0.2-0.2,0.3-0.4,0.4c-0.2,0.1-0.4,0.1-0.6,0.1c-0.2,0-0.4,0-0.7-0.1l0.1,1.1C267.9,154.5,268.1,154.5,268.3,154.5
			 M264.7,148.8c0,0.5-0.1,0.9-0.2,1.1c-0.2,0.3-0.4,0.6-0.8,0.8c-0.3,0.2-0.7,0.3-1.2,0.3c-0.4,0-0.8-0.1-1-0.3
			c-0.2-0.2-0.3-0.5-0.3-0.8c0-0.2,0.1-0.4,0.2-0.5c0.1-0.2,0.3-0.3,0.5-0.4c0.2-0.1,0.5-0.2,1-0.2c0.8-0.1,1.5-0.3,1.9-0.4V148.8z
			 M265,151.8h1.2c-0.1-0.3-0.2-0.5-0.3-0.8c0-0.3-0.1-1-0.1-2v-1.5c0-0.5,0-0.9-0.1-1.1c-0.1-0.3-0.2-0.6-0.4-0.8
			c-0.2-0.2-0.4-0.4-0.8-0.5c-0.4-0.1-0.8-0.2-1.4-0.2c-0.6,0-1.1,0.1-1.5,0.2c-0.4,0.2-0.8,0.4-1,0.7c-0.2,0.3-0.4,0.7-0.5,1.2
			l1.1,0.2c0.1-0.5,0.3-0.8,0.6-1c0.3-0.2,0.7-0.3,1.2-0.3c0.6,0,1,0.1,1.3,0.4c0.2,0.2,0.3,0.5,0.3,1c0,0,0,0.1,0,0.3
			c-0.4,0.2-1.1,0.3-2,0.4c-0.5,0.1-0.8,0.1-1,0.2c-0.3,0.1-0.6,0.2-0.8,0.4c-0.2,0.2-0.4,0.4-0.6,0.7c-0.2,0.3-0.2,0.6-0.2,0.9
			c0,0.6,0.2,1,0.6,1.4c0.4,0.4,1,0.5,1.7,0.5c0.4,0,0.9-0.1,1.3-0.2c0.4-0.1,0.8-0.4,1.2-0.8C264.9,151.3,264.9,151.6,265,151.8
			 M250.7,151.8v-3.5c0-0.6,0.1-1.1,0.2-1.4c0.1-0.3,0.3-0.6,0.6-0.7c0.3-0.2,0.6-0.3,0.9-0.3c0.4,0,0.7,0.1,0.9,0.4
			c0.2,0.3,0.3,0.6,0.3,1.1v4.4h1.1v-3.9c0-0.7,0.2-1.2,0.5-1.5c0.3-0.3,0.7-0.5,1.2-0.5c0.3,0,0.5,0.1,0.7,0.2
			c0.2,0.1,0.3,0.3,0.4,0.5c0.1,0.2,0.1,0.5,0.1,1v4.2h1.1v-4.6c0-0.8-0.2-1.3-0.5-1.7c-0.4-0.4-0.9-0.6-1.5-0.6
			c-0.9,0-1.5,0.4-2.1,1.2c-0.1-0.4-0.4-0.7-0.7-0.9c-0.3-0.2-0.7-0.3-1.2-0.3c-0.4,0-0.8,0.1-1.2,0.3c-0.4,0.2-0.6,0.5-0.8,0.8
			v-0.9h-1v6.7H250.7z M240,146.5c0.3-0.4,0.8-0.6,1.3-0.6c0.5,0,1,0.2,1.3,0.6c0.4,0.4,0.5,1.1,0.5,2c0,0.8-0.2,1.5-0.5,1.9
			c-0.3,0.4-0.8,0.6-1.3,0.6c-0.5,0-0.9-0.2-1.3-0.6c-0.4-0.4-0.5-1.1-0.5-1.9C239.5,147.5,239.7,146.9,240,146.5 M244.2,151.8v-9.3
			H243v3.3c-0.2-0.3-0.5-0.5-0.8-0.7c-0.3-0.2-0.7-0.3-1.1-0.3c-0.6,0-1.1,0.1-1.5,0.4c-0.4,0.3-0.8,0.7-1,1.3
			c-0.2,0.5-0.3,1.2-0.3,1.8c0,0.7,0.1,1.3,0.4,1.8c0.2,0.5,0.6,0.9,1,1.2c0.4,0.3,0.9,0.4,1.5,0.4c0.8,0,1.5-0.3,1.9-1v0.9H244.2z
			 M232.7,151.8v-3.7c0-0.9,0.2-1.4,0.5-1.8c0.4-0.3,0.8-0.5,1.3-0.5c0.3,0,0.6,0.1,0.8,0.2c0.2,0.1,0.4,0.3,0.5,0.6
			c0.1,0.2,0.1,0.6,0.1,1v4.1h1.1v-4.1c0-0.5,0-0.9-0.1-1.1c-0.1-0.3-0.2-0.6-0.4-0.8c-0.2-0.2-0.4-0.4-0.8-0.6
			c-0.3-0.1-0.7-0.2-1.1-0.2c-0.9,0-1.7,0.4-2.1,1.1v-1h-1v6.7H232.7z M228.6,148.8c0,0.5-0.1,0.9-0.2,1.1c-0.2,0.3-0.4,0.6-0.8,0.8
			c-0.3,0.2-0.7,0.3-1.2,0.3c-0.4,0-0.8-0.1-1-0.3c-0.2-0.2-0.3-0.5-0.3-0.8c0-0.2,0.1-0.4,0.2-0.5c0.1-0.2,0.3-0.3,0.4-0.4
			c0.2-0.1,0.5-0.2,1-0.2c0.8-0.1,1.5-0.3,1.9-0.4V148.8z M228.9,151.8h1.2c-0.1-0.3-0.2-0.5-0.3-0.8c0-0.3-0.1-1-0.1-2v-1.5
			c0-0.5,0-0.9-0.1-1.1c-0.1-0.3-0.2-0.6-0.4-0.8c-0.2-0.2-0.4-0.4-0.8-0.5c-0.4-0.1-0.8-0.2-1.4-0.2c-0.6,0-1.1,0.1-1.5,0.2
			c-0.4,0.2-0.8,0.4-1,0.7c-0.2,0.3-0.4,0.7-0.5,1.2l1.1,0.2c0.1-0.5,0.3-0.8,0.6-1c0.3-0.2,0.7-0.3,1.2-0.3c0.6,0,1,0.1,1.3,0.4
			c0.2,0.2,0.3,0.5,0.3,1c0,0,0,0.1,0,0.3c-0.4,0.2-1.1,0.3-2,0.4c-0.5,0.1-0.8,0.1-1,0.2c-0.3,0.1-0.6,0.2-0.8,0.4
			s-0.4,0.4-0.6,0.7c-0.2,0.3-0.2,0.6-0.2,0.9c0,0.6,0.2,1,0.6,1.4c0.4,0.4,1,0.5,1.7,0.5c0.4,0,0.9-0.1,1.3-0.2
			c0.4-0.1,0.8-0.4,1.2-0.8C228.7,151.3,228.8,151.6,228.9,151.8 M214.8,147.8c0.4-0.4,0.8-0.5,1.3-0.5c0.6,0,1,0.2,1.4,0.5
			c0.4,0.4,0.6,0.8,0.6,1.4c0,0.5-0.2,1-0.5,1.3c-0.4,0.4-0.8,0.5-1.4,0.5c-0.4,0-0.7-0.1-1-0.3c-0.3-0.2-0.5-0.4-0.7-0.7
			c-0.2-0.3-0.2-0.6-0.2-0.9C214.3,148.6,214.5,148.1,214.8,147.8 M215.1,143.8c0.3-0.3,0.6-0.4,1.1-0.4c0.4,0,0.8,0.1,1.1,0.4
			c0.3,0.3,0.4,0.6,0.4,1.1c0,0.4-0.1,0.7-0.4,1c-0.3,0.3-0.6,0.4-1.1,0.4c-0.5,0-0.8-0.1-1.1-0.4c-0.3-0.3-0.4-0.6-0.4-1.1
			C214.7,144.4,214.8,144.1,215.1,143.8 M213.6,147.6c-0.3,0.4-0.5,0.9-0.5,1.5c0,0.8,0.3,1.5,0.8,2c0.6,0.5,1.3,0.8,2.2,0.8
			c0.9,0,1.7-0.3,2.2-0.8c0.6-0.5,0.8-1.2,0.8-2c0-0.6-0.1-1.1-0.4-1.5s-0.7-0.7-1.3-0.9c0.5-0.2,0.8-0.4,1-0.7
			c0.2-0.3,0.3-0.7,0.3-1.1c0-0.7-0.2-1.3-0.7-1.7c-0.5-0.5-1.1-0.7-2-0.7c-0.8,0-1.5,0.2-1.9,0.7c-0.5,0.5-0.7,1-0.7,1.7
			c0,0.4,0.1,0.8,0.3,1.2c0.2,0.3,0.6,0.6,1.1,0.7C214.3,146.9,213.9,147.2,213.6,147.6 M210.2,142.5h-0.7c-0.2,0.4-0.5,0.8-1,1.2
			c-0.5,0.4-1,0.8-1.7,1.1v1.1c0.4-0.1,0.8-0.3,1.2-0.6c0.4-0.3,0.8-0.5,1.1-0.8v7.3h1.1V142.5z M200.4,144.1
			c0.3-0.4,0.7-0.7,1.3-0.7c0.5,0,1,0.3,1.3,0.8c0.4,0.5,0.5,1.5,0.5,3.1c0,1.5-0.2,2.5-0.5,3c-0.4,0.5-0.8,0.8-1.3,0.8
			c-0.5,0-1-0.3-1.3-0.8c-0.4-0.5-0.5-1.5-0.5-3.1C199.8,145.7,200,144.6,200.4,144.1 M199.6,151c0.5,0.6,1.2,1,2.1,1
			c0.7,0,1.2-0.2,1.7-0.5c0.4-0.4,0.8-0.9,1-1.6c0.2-0.7,0.3-1.6,0.3-2.6c0-0.9-0.1-1.7-0.2-2.2c-0.1-0.5-0.3-1-0.6-1.4
			c-0.2-0.4-0.6-0.7-0.9-0.9c-0.4-0.2-0.8-0.3-1.3-0.3c-0.7,0-1.2,0.2-1.7,0.5c-0.4,0.4-0.8,0.9-1,1.6c-0.2,0.7-0.3,1.6-0.3,2.7
			C198.7,149,199,150.2,199.6,151 M192.9,150.7c0.1-0.2,0.3-0.4,0.5-0.6c0.2-0.2,0.6-0.6,1.3-1.2c0.8-0.7,1.4-1.2,1.8-1.6
			c0.4-0.4,0.6-0.8,0.8-1.1c0.2-0.4,0.2-0.7,0.2-1.1c0-0.7-0.3-1.3-0.8-1.8c-0.5-0.5-1.2-0.7-2.1-0.7c-0.9,0-1.6,0.2-2.1,0.7
			c-0.5,0.5-0.8,1.1-0.9,2l1.2,0.1c0-0.6,0.2-1,0.5-1.4s0.8-0.5,1.3-0.5c0.5,0,0.9,0.2,1.3,0.5c0.3,0.3,0.5,0.7,0.5,1.1
			c0,0.4-0.2,0.9-0.5,1.4c-0.4,0.5-1,1.1-2.1,2c-0.7,0.5-1.2,1-1.5,1.4c-0.3,0.4-0.6,0.8-0.8,1.2c-0.1,0.3-0.1,0.5-0.1,0.8h6.2v-1.1
			H192.9z M185.5,151.8c0,0.4-0.1,0.7-0.2,0.9c-0.1,0.2-0.3,0.4-0.5,0.5l0.3,0.5c0.4-0.2,0.6-0.4,0.8-0.7c0.2-0.3,0.3-0.7,0.3-1.2
			v-1.3h-1.3v1.3H185.5z M181.3,142.5h-0.7c-0.2,0.4-0.5,0.8-1,1.2c-0.5,0.4-1,0.8-1.7,1.1v1.1c0.4-0.1,0.8-0.3,1.2-0.6
			c0.4-0.3,0.8-0.5,1.1-0.8v7.3h1.1V142.5z M171.9,142.5h-1.1v9.3h1.1V142.5z M169.1,145.1h-1.1v6.7h1.1V145.1z M169.1,142.5h-1.1
			v1.3h1.1V142.5z M164.7,151.8v-3.5c0-0.5,0.1-0.9,0.2-1.3c0.1-0.3,0.2-0.5,0.4-0.6c0.2-0.1,0.4-0.2,0.7-0.2c0.3,0,0.6,0.1,0.8,0.2
			l0.4-1.1c-0.4-0.2-0.8-0.4-1.2-0.4c-0.3,0-0.5,0.1-0.7,0.2c-0.2,0.2-0.5,0.5-0.7,0.9v-1h-1v6.7H164.7z M158,146.5
			c0.4-0.5,0.8-0.7,1.3-0.7c0.5,0,0.9,0.2,1.3,0.6c0.4,0.4,0.5,1.1,0.5,1.9c0,0.9-0.2,1.6-0.5,2c-0.4,0.4-0.8,0.6-1.3,0.6
			c-0.5,0-0.9-0.2-1.3-0.6c-0.4-0.4-0.5-1.1-0.5-1.9C157.4,147.6,157.6,146.9,158,146.5 M157.5,154.4v-3.3c0.2,0.2,0.4,0.4,0.7,0.6
			c0.3,0.2,0.6,0.2,1,0.2c0.5,0,1-0.1,1.5-0.4s0.8-0.7,1.1-1.3c0.2-0.6,0.4-1.2,0.4-1.9c0-0.6-0.1-1.2-0.3-1.8c-0.2-0.5-0.6-1-1-1.3
			c-0.4-0.3-0.9-0.4-1.5-0.4c-0.4,0-0.8,0.1-1.1,0.3c-0.3,0.2-0.6,0.4-0.8,0.8v-0.9h-1v9.3H157.5z M150.5,145.2
			c0.2-0.6,0.4-1.2,0.5-1.8c0.1,0.5,0.4,1.1,0.7,1.9l1,2.6h-3.2L150.5,145.2z M148.1,151.8l1-2.8h3.9l1.1,2.8h1.4l-3.8-9.3h-1.3
			l-3.6,9.3H148.1z M143.2,150.8c-0.2,0-0.3,0-0.4-0.1c-0.1-0.1-0.2-0.1-0.2-0.2c0-0.1-0.1-0.3-0.1-0.6v-3.9h1.1v-0.9h-1.1v-2.4
			l-1.1,0.7v1.7h-0.8v0.9h0.8v3.9c0,0.7,0,1.1,0.1,1.3c0.1,0.2,0.3,0.4,0.5,0.5c0.2,0.1,0.6,0.2,1,0.2c0.3,0,0.5,0,0.9-0.1l-0.2-1
			C143.5,150.8,143.3,150.8,143.2,150.8 M138.5,150.6c-0.3,0.3-0.7,0.4-1.1,0.4c-0.6,0-1-0.2-1.4-0.6c-0.3-0.4-0.5-1.1-0.5-2
			c0-0.9,0.2-1.5,0.5-2c0.4-0.4,0.8-0.6,1.4-0.6c0.4,0,0.7,0.1,1,0.3c0.3,0.2,0.5,0.6,0.6,1l1.1-0.2c-0.1-0.7-0.4-1.2-0.9-1.6
			c-0.5-0.4-1.1-0.6-1.8-0.6c-0.6,0-1.1,0.1-1.6,0.4c-0.5,0.3-0.9,0.7-1.1,1.2c-0.2,0.5-0.4,1.2-0.4,1.9c0,1.1,0.3,2,0.8,2.6
			c0.6,0.6,1.3,0.9,2.2,0.9c0.7,0,1.4-0.2,1.9-0.7c0.5-0.4,0.8-1,0.9-1.8l-1.1-0.1C139,149.9,138.8,150.3,138.5,150.6 M128.9,146.4
			c0.4-0.4,0.8-0.5,1.3-0.5c0.6,0,1.1,0.2,1.4,0.7c0.2,0.3,0.4,0.7,0.4,1.3h-3.8C128.4,147.2,128.5,146.7,128.9,146.4 M131.4,150.7
			c-0.3,0.2-0.7,0.3-1.1,0.3c-0.6,0-1-0.2-1.4-0.6c-0.4-0.4-0.6-1-0.6-1.7h5c0-0.1,0-0.2,0-0.3c0-1.1-0.3-2-0.9-2.6
			c-0.6-0.6-1.3-0.9-2.2-0.9c-0.9,0-1.7,0.3-2.3,0.9c-0.6,0.6-0.9,1.5-0.9,2.6c0,1.1,0.3,1.9,0.9,2.6c0.6,0.6,1.4,0.9,2.3,0.9
			c0.8,0,1.4-0.2,1.9-0.6c0.5-0.4,0.8-0.9,1-1.6l-1.2-0.1C131.9,150.1,131.7,150.5,131.4,150.7 M125.2,151.8v-5.9h1.3v-0.9h-1.3
			v-0.6c0-0.4,0.1-0.7,0.2-0.8c0.1-0.1,0.4-0.2,0.7-0.2c0.2,0,0.4,0,0.7,0.1l0.2-1c-0.4-0.1-0.7-0.1-1.1-0.1c-0.5,0-0.9,0.1-1.2,0.3
			s-0.5,0.4-0.6,0.7c-0.1,0.2-0.1,0.6-0.1,1v0.7h-1v0.9h1v5.9H125.2z M121.9,151.8v-5.9h1.3v-0.9h-1.3v-0.6c0-0.4,0.1-0.7,0.2-0.8
			c0.1-0.1,0.4-0.2,0.7-0.2c0.2,0,0.4,0,0.7,0.1l0.2-1c-0.4-0.1-0.7-0.1-1.1-0.1c-0.5,0-0.9,0.1-1.2,0.3c-0.3,0.2-0.5,0.4-0.6,0.7
			c-0.1,0.2-0.1,0.6-0.1,1v0.7h-1v0.9h1v5.9H121.9z M114.7,146.4c0.4-0.4,0.8-0.5,1.3-0.5c0.6,0,1.1,0.2,1.4,0.7
			c0.2,0.3,0.4,0.7,0.4,1.3h-3.8C114.1,147.2,114.3,146.7,114.7,146.4 M117.1,150.7c-0.3,0.2-0.7,0.3-1.1,0.3c-0.6,0-1-0.2-1.4-0.6
			c-0.4-0.4-0.6-1-0.6-1.7h5c0-0.1,0-0.2,0-0.3c0-1.1-0.3-2-0.9-2.6c-0.6-0.6-1.3-0.9-2.2-0.9c-0.9,0-1.7,0.3-2.3,0.9
			c-0.6,0.6-0.9,1.5-0.9,2.6c0,1.1,0.3,1.9,0.9,2.6c0.6,0.6,1.4,0.9,2.3,0.9c0.8,0,1.4-0.2,1.9-0.6c0.5-0.4,0.8-0.9,1-1.6l-1.2-0.1
			C117.7,150.1,117.4,150.5,117.1,150.7 M103.7,146.5c0.4-0.4,0.9-0.6,1.4-0.6c0.6,0,1,0.2,1.4,0.6c0.4,0.4,0.6,1.1,0.6,1.9
			c0,0.9-0.2,1.5-0.6,2c-0.4,0.4-0.8,0.6-1.4,0.6c-0.6,0-1-0.2-1.4-0.6c-0.4-0.4-0.6-1.1-0.6-1.9
			C103.1,147.6,103.3,146.9,103.7,146.5 M102.8,151c0.6,0.6,1.3,0.9,2.3,0.9c0.6,0,1.1-0.1,1.6-0.4c0.5-0.3,0.9-0.7,1.1-1.2
			c0.3-0.5,0.4-1.2,0.4-2c0-1.1-0.3-1.9-0.9-2.5c-0.6-0.6-1.3-0.9-2.3-0.9c-0.8,0-1.5,0.2-2.1,0.7c-0.7,0.6-1,1.5-1,2.8
			C102,149.6,102.3,150.4,102.8,151 M100.8,150.8c-0.2,0-0.3,0-0.4-0.1c-0.1-0.1-0.2-0.1-0.2-0.2c0-0.1-0.1-0.3-0.1-0.6v-3.9h1.1
			v-0.9h-1.1v-2.4l-1.1,0.7v1.7h-0.8v0.9H99v3.9c0,0.7,0,1.1,0.1,1.3c0.1,0.2,0.3,0.4,0.5,0.5c0.2,0.1,0.6,0.2,1,0.2
			c0.3,0,0.5,0,0.9-0.1l-0.2-1C101.1,150.8,100.9,150.8,100.8,150.8 M92.7,151.8v-3.7c0-0.9,0.2-1.4,0.5-1.8
			c0.4-0.3,0.8-0.5,1.3-0.5c0.3,0,0.6,0.1,0.8,0.2c0.2,0.1,0.4,0.3,0.5,0.6c0.1,0.2,0.1,0.6,0.1,1v4.1H97v-4.1c0-0.5,0-0.9-0.1-1.1
			c-0.1-0.3-0.2-0.6-0.4-0.8c-0.2-0.2-0.4-0.4-0.8-0.6c-0.3-0.1-0.7-0.2-1.1-0.2c-0.9,0-1.7,0.4-2.1,1.1v-1h-1v6.7H92.7z
			 M89.8,145.1h-1.1v6.7h1.1V145.1z M89.8,142.5h-1.1v1.3h1.1V142.5z M79.3,146.4c0.4-0.4,0.8-0.5,1.3-0.5c0.6,0,1.1,0.2,1.4,0.7
			c0.2,0.3,0.4,0.7,0.4,1.3h-3.8C78.7,147.2,78.9,146.7,79.3,146.4 M81.7,150.7c-0.3,0.2-0.7,0.3-1.1,0.3c-0.6,0-1-0.2-1.4-0.6
			c-0.4-0.4-0.6-1-0.6-1.7h5c0-0.1,0-0.2,0-0.3c0-1.1-0.3-2-0.9-2.6c-0.6-0.6-1.3-0.9-2.2-0.9c-0.9,0-1.7,0.3-2.3,0.9
			c-0.6,0.6-0.9,1.5-0.9,2.6c0,1.1,0.3,1.9,0.9,2.6c0.6,0.6,1.4,0.9,2.3,0.9c0.8,0,1.4-0.2,1.9-0.6c0.5-0.4,0.8-0.9,1-1.6l-1.2-0.1
			C82.3,150.1,82,150.5,81.7,150.7 M68.1,151.8v-3.5c0-0.6,0.1-1.1,0.2-1.4c0.1-0.3,0.3-0.6,0.6-0.7c0.3-0.2,0.6-0.3,0.9-0.3
			c0.4,0,0.7,0.1,0.9,0.4c0.2,0.3,0.3,0.6,0.3,1.1v4.4h1.1v-3.9c0-0.7,0.2-1.2,0.5-1.5c0.3-0.3,0.7-0.5,1.2-0.5
			c0.3,0,0.5,0.1,0.7,0.2c0.2,0.1,0.3,0.3,0.4,0.5c0.1,0.2,0.1,0.5,0.1,1v4.2h1.1v-4.6c0-0.8-0.2-1.3-0.5-1.7
			c-0.4-0.4-0.9-0.6-1.5-0.6c-0.9,0-1.5,0.4-2.1,1.2c-0.1-0.4-0.4-0.7-0.7-0.9c-0.3-0.2-0.7-0.3-1.2-0.3c-0.4,0-0.8,0.1-1.2,0.3
			c-0.4,0.2-0.6,0.5-0.8,0.8v-0.9h-1v6.7H68.1z M64.1,148.8c0,0.5-0.1,0.9-0.2,1.1c-0.2,0.3-0.4,0.6-0.8,0.8
			c-0.3,0.2-0.7,0.3-1.2,0.3c-0.4,0-0.8-0.1-1-0.3c-0.2-0.2-0.3-0.5-0.3-0.8c0-0.2,0.1-0.4,0.2-0.5c0.1-0.2,0.3-0.3,0.5-0.4
			c0.2-0.1,0.5-0.2,1-0.2c0.8-0.1,1.5-0.3,1.9-0.4V148.8z M64.4,151.8h1.2c-0.1-0.3-0.2-0.5-0.3-0.8c0-0.3-0.1-1-0.1-2v-1.5
			c0-0.5,0-0.9-0.1-1.1c-0.1-0.3-0.2-0.6-0.4-0.8c-0.2-0.2-0.4-0.4-0.8-0.5c-0.4-0.1-0.8-0.2-1.4-0.2c-0.6,0-1.1,0.1-1.5,0.2
			c-0.4,0.2-0.8,0.4-1,0.7c-0.2,0.3-0.4,0.7-0.5,1.2l1.1,0.2c0.1-0.5,0.3-0.8,0.6-1c0.3-0.2,0.7-0.3,1.2-0.3c0.6,0,1,0.1,1.3,0.4
			c0.2,0.2,0.3,0.5,0.3,1c0,0,0,0.1,0,0.3c-0.4,0.2-1.1,0.3-2,0.4c-0.5,0.1-0.8,0.1-1,0.2c-0.3,0.1-0.6,0.2-0.8,0.4
			c-0.2,0.2-0.4,0.4-0.6,0.7c-0.1,0.3-0.2,0.6-0.2,0.9c0,0.6,0.2,1,0.6,1.4c0.4,0.4,1,0.5,1.7,0.5c0.4,0,0.9-0.1,1.3-0.2
			c0.4-0.1,0.8-0.4,1.2-0.8C64.2,151.3,64.3,151.6,64.4,151.8 M57.1,150.6c-0.3,0.3-0.7,0.4-1.1,0.4c-0.6,0-1-0.2-1.4-0.6
			c-0.3-0.4-0.5-1.1-0.5-2c0-0.9,0.2-1.5,0.5-2c0.4-0.4,0.8-0.6,1.4-0.6c0.4,0,0.7,0.1,1,0.3c0.3,0.2,0.5,0.6,0.6,1l1.1-0.2
			c-0.1-0.7-0.4-1.2-0.9-1.6c-0.5-0.4-1.1-0.6-1.8-0.6c-0.6,0-1.1,0.1-1.6,0.4c-0.5,0.3-0.9,0.7-1.1,1.2c-0.2,0.5-0.4,1.2-0.4,1.9
			c0,1.1,0.3,2,0.8,2.6c0.6,0.6,1.3,0.9,2.2,0.9c0.7,0,1.4-0.2,1.9-0.7s0.8-1,0.9-1.8l-1.1-0.1C57.6,149.9,57.4,150.3,57.1,150.6
			 M46.7,148.4c0.2,0.2,0.3,0.7,0.3,1.3c0,0.7-0.1,1.1-0.3,1.3c-0.2,0.2-0.4,0.4-0.7,0.4c-0.3,0-0.5-0.1-0.7-0.4
			c-0.2-0.2-0.3-0.7-0.3-1.3c0-0.7,0.1-1.1,0.3-1.4c0.2-0.2,0.4-0.4,0.7-0.4C46.3,148,46.5,148.1,46.7,148.4 M44.6,151.5
			c0.4,0.4,0.8,0.6,1.4,0.6c0.6,0,1.1-0.2,1.4-0.6c0.4-0.4,0.6-1,0.6-1.8c0-0.8-0.2-1.4-0.6-1.8c-0.4-0.4-0.9-0.6-1.5-0.6
			c-0.6,0-1.1,0.2-1.5,0.7c-0.3,0.5-0.5,1-0.5,1.7C44,150.5,44.2,151.1,44.6,151.5 M40.9,152.1l5.1-9.8h-0.9l-5.1,9.8H40.9z
			 M40.7,143.5c0.2,0.2,0.3,0.7,0.3,1.3c0,0.7-0.1,1.1-0.3,1.3c-0.2,0.2-0.4,0.4-0.7,0.4c-0.3,0-0.5-0.1-0.7-0.4
			c-0.2-0.2-0.3-0.7-0.3-1.3c0-0.7,0.1-1.1,0.3-1.4c0.2-0.2,0.4-0.4,0.7-0.4C40.3,143.1,40.5,143.2,40.7,143.5 M38.5,146.6
			c0.4,0.4,0.8,0.6,1.4,0.6c0.6,0,1-0.2,1.4-0.6c0.4-0.4,0.6-1,0.6-1.8c0-0.8-0.2-1.4-0.6-1.8s-0.9-0.6-1.5-0.6
			c-0.6,0-1.1,0.2-1.5,0.7c-0.3,0.5-0.5,1-0.5,1.7C38,145.6,38.2,146.2,38.5,146.6 M31.5,151.2c0.5,0.5,1.2,0.7,2,0.7
			c0.9,0,1.7-0.3,2.2-0.8c0.6-0.6,0.9-1.3,0.9-2.1c0-0.6-0.2-1.1-0.5-1.5c-0.3-0.4-0.7-0.7-1.3-0.8c0.4-0.2,0.7-0.5,1-0.8
			c0.2-0.3,0.3-0.7,0.3-1.1c0-0.4-0.1-0.8-0.3-1.2c-0.2-0.4-0.6-0.7-1-0.9c-0.4-0.2-0.9-0.3-1.4-0.3c-0.7,0-1.4,0.2-1.8,0.6
			c-0.5,0.4-0.8,1-1,1.8l1.1,0.2c0.1-0.6,0.3-1,0.6-1.3c0.3-0.3,0.7-0.4,1.1-0.4c0.4,0,0.8,0.1,1.1,0.4c0.3,0.3,0.4,0.6,0.4,1
			c0,0.5-0.2,0.9-0.6,1.2c-0.4,0.3-0.8,0.4-1.3,0.4c0,0-0.1,0-0.2,0l-0.1,1c0.3-0.1,0.6-0.1,0.8-0.1c0.5,0,1,0.2,1.3,0.5
			c0.3,0.3,0.5,0.8,0.5,1.3c0,0.6-0.2,1-0.6,1.4c-0.4,0.4-0.8,0.6-1.4,0.6c-0.5,0-0.8-0.1-1.2-0.4c-0.3-0.3-0.5-0.8-0.7-1.4
			l-1.1,0.2C30.6,150.1,30.9,150.7,31.5,151.2"/>
		<path class="st0" d="M291,132.3v-5.9h1.3v-0.9H291v-0.6c0-0.4,0.1-0.7,0.2-0.8c0.1-0.1,0.4-0.2,0.7-0.2c0.2,0,0.4,0,0.7,0.1l0.2-1
			c-0.4-0.1-0.7-0.1-1.1-0.1c-0.5,0-0.9,0.1-1.2,0.3c-0.3,0.2-0.5,0.4-0.6,0.7c-0.1,0.2-0.1,0.6-0.1,1v0.7h-1v0.9h1v5.9H291z
			 M283.6,127c0.4-0.4,0.9-0.6,1.4-0.6c0.6,0,1,0.2,1.4,0.6c0.4,0.4,0.6,1.1,0.6,1.9c0,0.9-0.2,1.5-0.6,2c-0.4,0.4-0.8,0.6-1.4,0.6
			c-0.6,0-1-0.2-1.4-0.6c-0.4-0.4-0.6-1.1-0.6-1.9C283.1,128.1,283.3,127.4,283.6,127 M282.8,131.5c0.6,0.6,1.3,0.9,2.3,0.9
			c0.6,0,1.1-0.1,1.6-0.4c0.5-0.3,0.9-0.7,1.1-1.2c0.3-0.5,0.4-1.2,0.4-2c0-1.1-0.3-1.9-0.9-2.5c-0.6-0.6-1.3-0.9-2.3-0.9
			c-0.8,0-1.5,0.2-2.1,0.7c-0.7,0.6-1,1.5-1,2.8C281.9,130.1,282.2,130.9,282.8,131.5 M272.9,126.9c0.4-0.4,0.8-0.5,1.3-0.5
			c0.6,0,1.1,0.2,1.4,0.7c0.2,0.3,0.4,0.7,0.4,1.3h-3.8C272.4,127.7,272.6,127.2,272.9,126.9 M275.4,131.2c-0.3,0.2-0.7,0.3-1.1,0.3
			c-0.6,0-1-0.2-1.4-0.6c-0.4-0.4-0.6-1-0.6-1.7h5c0-0.1,0-0.2,0-0.3c0-1.1-0.3-2-0.9-2.6c-0.6-0.6-1.3-0.9-2.2-0.9
			c-0.9,0-1.7,0.3-2.3,0.9c-0.6,0.6-0.9,1.5-0.9,2.6c0,1.1,0.3,1.9,0.9,2.6c0.6,0.6,1.4,0.9,2.3,0.9c0.8,0,1.4-0.2,1.9-0.6
			c0.5-0.4,0.8-0.9,1-1.6l-1.2-0.1C275.9,130.6,275.7,131,275.4,131.2 M265.4,131.9c0.5,0.4,1.1,0.5,2,0.5c0.5,0,1-0.1,1.4-0.3
			c0.4-0.2,0.7-0.4,1-0.8c0.2-0.3,0.3-0.7,0.3-1.1c0-0.4-0.1-0.7-0.3-1c-0.2-0.3-0.4-0.5-0.8-0.6c-0.3-0.1-0.9-0.3-1.7-0.5
			c-0.6-0.2-0.9-0.2-1-0.3c-0.2-0.1-0.3-0.2-0.4-0.3c-0.1-0.1-0.1-0.3-0.1-0.4c0-0.2,0.1-0.4,0.3-0.6c0.2-0.2,0.6-0.3,1.1-0.3
			c0.4,0,0.8,0.1,1,0.3c0.2,0.2,0.4,0.5,0.4,0.8l1.1-0.2c-0.1-0.4-0.2-0.8-0.4-1c-0.2-0.3-0.5-0.5-0.9-0.6c-0.4-0.2-0.9-0.2-1.4-0.2
			c-0.4,0-0.7,0-1,0.1c-0.3,0.1-0.5,0.2-0.7,0.3c-0.2,0.2-0.4,0.4-0.6,0.6c-0.1,0.3-0.2,0.5-0.2,0.8c0,0.3,0.1,0.6,0.3,0.9
			c0.2,0.3,0.4,0.5,0.7,0.6c0.3,0.2,0.9,0.3,1.7,0.5c0.6,0.2,1,0.3,1.2,0.4c0.2,0.1,0.3,0.4,0.3,0.6c0,0.3-0.1,0.5-0.4,0.8
			s-0.6,0.3-1.2,0.3c-0.5,0-0.9-0.1-1.2-0.4s-0.5-0.6-0.5-1l-1.1,0.2C264.6,131,264.9,131.5,265.4,131.9 M262,129.3
			c0,0.5-0.1,0.9-0.2,1.1c-0.2,0.3-0.4,0.6-0.8,0.8c-0.3,0.2-0.7,0.3-1.2,0.3c-0.4,0-0.8-0.1-1-0.3c-0.2-0.2-0.3-0.5-0.3-0.8
			c0-0.2,0.1-0.4,0.2-0.5c0.1-0.2,0.3-0.3,0.5-0.4c0.2-0.1,0.5-0.2,1-0.2c0.8-0.1,1.5-0.3,1.9-0.4V129.3z M262.4,132.3h1.2
			c-0.1-0.3-0.2-0.5-0.3-0.8c0-0.3-0.1-1-0.1-2V128c0-0.5,0-0.9-0.1-1.1c-0.1-0.3-0.2-0.6-0.4-0.8c-0.2-0.2-0.4-0.4-0.8-0.5
			c-0.4-0.1-0.8-0.2-1.4-0.2c-0.6,0-1.1,0.1-1.5,0.2c-0.4,0.2-0.8,0.4-1,0.7c-0.2,0.3-0.4,0.7-0.5,1.2l1.1,0.2
			c0.1-0.5,0.3-0.8,0.6-1c0.3-0.2,0.7-0.3,1.2-0.3c0.6,0,1,0.1,1.3,0.4c0.2,0.2,0.3,0.5,0.3,1c0,0,0,0.1,0,0.3
			c-0.4,0.2-1.1,0.3-2,0.4c-0.5,0.1-0.8,0.1-1,0.2c-0.3,0.1-0.6,0.2-0.8,0.4c-0.2,0.2-0.4,0.4-0.6,0.7c-0.1,0.3-0.2,0.6-0.2,0.9
			c0,0.6,0.2,1,0.6,1.4c0.4,0.4,1,0.5,1.7,0.5c0.4,0,0.9-0.1,1.3-0.2c0.4-0.1,0.8-0.4,1.2-0.8C262.2,131.8,262.3,132.1,262.4,132.3
			 M252,126.9c0.4-0.4,0.8-0.5,1.3-0.5c0.6,0,1.1,0.2,1.4,0.7c0.2,0.3,0.4,0.7,0.4,1.3h-3.8C251.4,127.7,251.6,127.2,252,126.9
			 M254.4,131.2c-0.3,0.2-0.7,0.3-1.1,0.3c-0.6,0-1-0.2-1.4-0.6c-0.4-0.4-0.6-1-0.6-1.7h5c0-0.1,0-0.2,0-0.3c0-1.1-0.3-2-0.9-2.6
			c-0.6-0.6-1.3-0.9-2.2-0.9c-0.9,0-1.7,0.3-2.3,0.9c-0.6,0.6-0.9,1.5-0.9,2.6c0,1.1,0.3,1.9,0.9,2.6c0.6,0.6,1.4,0.9,2.3,0.9
			c0.8,0,1.4-0.2,1.9-0.6c0.5-0.4,0.8-0.9,1-1.6l-1.2-0.1C255,130.6,254.7,131,254.4,131.2 M247.3,132.3v-3.5c0-0.5,0.1-0.9,0.2-1.3
			c0.1-0.3,0.2-0.5,0.4-0.6c0.2-0.2,0.4-0.2,0.7-0.2c0.3,0,0.6,0.1,0.8,0.2l0.4-1.1c-0.4-0.2-0.8-0.4-1.2-0.4
			c-0.3,0-0.5,0.1-0.7,0.2c-0.2,0.2-0.5,0.5-0.7,0.9v-1h-1v6.7H247.3z M243.5,131.1c-0.3,0.3-0.7,0.4-1.1,0.4c-0.6,0-1-0.2-1.4-0.6
			s-0.5-1.1-0.5-2c0-0.9,0.2-1.5,0.5-2c0.4-0.4,0.8-0.6,1.4-0.6c0.4,0,0.7,0.1,1,0.3c0.3,0.2,0.5,0.6,0.6,1l1.1-0.2
			c-0.1-0.7-0.4-1.2-0.9-1.6c-0.5-0.4-1.1-0.6-1.8-0.6c-0.6,0-1.1,0.1-1.6,0.4s-0.9,0.7-1.1,1.2c-0.2,0.5-0.4,1.2-0.4,1.9
			c0,1.1,0.3,2,0.8,2.6c0.6,0.6,1.3,0.9,2.2,0.9c0.7,0,1.4-0.2,1.9-0.7c0.5-0.4,0.8-1,0.9-1.8l-1.1-0.1
			C244,130.4,243.8,130.8,243.5,131.1 M233.6,132.3v-3.7c0-0.9,0.2-1.4,0.5-1.8c0.4-0.3,0.8-0.5,1.3-0.5c0.3,0,0.6,0.1,0.8,0.2
			c0.2,0.1,0.4,0.3,0.5,0.6c0.1,0.2,0.1,0.6,0.1,1v4.1h1.1v-4.1c0-0.5,0-0.9-0.1-1.1c-0.1-0.3-0.2-0.6-0.4-0.8
			c-0.2-0.2-0.4-0.4-0.8-0.6c-0.3-0.1-0.7-0.2-1.1-0.2c-0.9,0-1.7,0.4-2.1,1.1v-1h-1v6.7H233.6z M230.7,125.6h-1.1v6.7h1.1V125.6z
			 M230.7,123h-1.1v1.3h1.1V123z M220.2,126.9c0.4-0.4,0.8-0.5,1.3-0.5c0.6,0,1.1,0.2,1.4,0.7c0.2,0.3,0.4,0.7,0.4,1.3h-3.8
			C219.6,127.7,219.8,127.2,220.2,126.9 M222.6,131.2c-0.3,0.2-0.7,0.3-1.1,0.3c-0.6,0-1-0.2-1.4-0.6c-0.4-0.4-0.6-1-0.6-1.7h5
			c0-0.1,0-0.2,0-0.3c0-1.1-0.3-2-0.9-2.6c-0.6-0.6-1.3-0.9-2.2-0.9c-0.9,0-1.7,0.3-2.3,0.9c-0.6,0.6-0.9,1.5-0.9,2.6
			c0,1.1,0.3,1.9,0.9,2.6c0.6,0.6,1.4,0.9,2.3,0.9c0.8,0,1.4-0.2,1.9-0.6c0.5-0.4,0.8-0.9,1-1.6l-1.2-0.1
			C223.2,130.6,222.9,131,222.6,131.2 M217.1,131.3c-0.2,0-0.3,0-0.4-0.1c-0.1-0.1-0.2-0.1-0.2-0.2c0-0.1-0.1-0.3-0.1-0.6v-3.9h1.1
			v-0.9h-1.1v-2.4l-1.1,0.7v1.7h-0.8v0.9h0.8v3.9c0,0.7,0,1.1,0.1,1.3c0.1,0.2,0.3,0.4,0.5,0.5c0.2,0.1,0.6,0.2,1,0.2
			c0.3,0,0.5,0,0.9-0.1l-0.2-1C217.4,131.3,217.2,131.3,217.1,131.3 M212.2,129.3c0,0.5-0.1,0.9-0.2,1.1c-0.2,0.3-0.4,0.6-0.8,0.8
			c-0.3,0.2-0.7,0.3-1.2,0.3c-0.4,0-0.8-0.1-1-0.3c-0.2-0.2-0.3-0.5-0.3-0.8c0-0.2,0.1-0.4,0.2-0.5c0.1-0.2,0.3-0.3,0.5-0.4
			c0.2-0.1,0.5-0.2,1-0.2c0.8-0.1,1.5-0.3,1.9-0.4V129.3z M212.5,132.3h1.2c-0.1-0.3-0.2-0.5-0.3-0.8c0-0.3-0.1-1-0.1-2V128
			c0-0.5,0-0.9-0.1-1.1c-0.1-0.3-0.2-0.6-0.4-0.8c-0.2-0.2-0.4-0.4-0.8-0.5c-0.4-0.1-0.8-0.2-1.4-0.2c-0.6,0-1.1,0.1-1.5,0.2
			c-0.4,0.2-0.8,0.4-1,0.7c-0.2,0.3-0.4,0.7-0.5,1.2l1.1,0.2c0.1-0.5,0.3-0.8,0.6-1c0.3-0.2,0.7-0.3,1.2-0.3c0.6,0,1,0.1,1.3,0.4
			c0.2,0.2,0.3,0.5,0.3,1c0,0,0,0.1,0,0.3c-0.4,0.2-1.1,0.3-2,0.4c-0.5,0.1-0.8,0.1-1,0.2c-0.3,0.1-0.6,0.2-0.8,0.4
			c-0.2,0.2-0.4,0.4-0.6,0.7c-0.1,0.3-0.2,0.6-0.2,0.9c0,0.6,0.2,1,0.6,1.4c0.4,0.4,1,0.5,1.7,0.5c0.4,0,0.9-0.1,1.3-0.2
			c0.4-0.1,0.8-0.4,1.2-0.8C212.3,131.8,212.4,132.1,212.5,132.3 M204.7,132.3v-3.5c0-0.5,0.1-0.9,0.2-1.3c0.1-0.3,0.2-0.5,0.4-0.6
			c0.2-0.2,0.4-0.2,0.7-0.2c0.3,0,0.6,0.1,0.8,0.2l0.4-1.1c-0.4-0.2-0.8-0.4-1.2-0.4c-0.3,0-0.5,0.1-0.7,0.2
			c-0.2,0.2-0.5,0.5-0.7,0.9v-1h-1v6.7H204.7z M190.3,132.3v-3.5c0-0.6,0.1-1.1,0.2-1.4c0.1-0.3,0.3-0.6,0.6-0.7
			c0.3-0.2,0.6-0.3,0.9-0.3c0.4,0,0.7,0.1,0.9,0.4c0.2,0.3,0.3,0.6,0.3,1.1v4.4h1.1v-3.9c0-0.7,0.2-1.2,0.5-1.5
			c0.3-0.3,0.7-0.5,1.2-0.5c0.3,0,0.5,0.1,0.7,0.2c0.2,0.1,0.3,0.3,0.4,0.5c0.1,0.2,0.1,0.5,0.1,1v4.2h1.1v-4.6
			c0-0.8-0.2-1.3-0.5-1.7c-0.4-0.4-0.9-0.6-1.5-0.6c-0.9,0-1.5,0.4-2.1,1.2c-0.1-0.4-0.4-0.7-0.7-0.9c-0.3-0.2-0.7-0.3-1.2-0.3
			c-0.4,0-0.8,0.1-1.2,0.3c-0.4,0.2-0.6,0.5-0.8,0.8v-0.9h-1v6.7H190.3z M187.4,125.6h-1.1v6.7h1.1V125.6z M187.4,123h-1.1v1.3h1.1
			V123z M183,132.3v-3.5c0-0.5,0.1-0.9,0.2-1.3c0.1-0.3,0.2-0.5,0.4-0.6s0.4-0.2,0.7-0.2c0.3,0,0.6,0.1,0.8,0.2l0.4-1.1
			c-0.4-0.2-0.8-0.4-1.2-0.4c-0.3,0-0.5,0.1-0.7,0.2c-0.2,0.2-0.5,0.5-0.7,0.9v-1h-1v6.7H183z M176.1,126.9c0.4-0.4,0.8-0.5,1.3-0.5
			c0.6,0,1.1,0.2,1.4,0.7c0.2,0.3,0.4,0.7,0.4,1.3h-3.8C175.6,127.7,175.8,127.2,176.1,126.9 M178.6,131.2c-0.3,0.2-0.7,0.3-1.1,0.3
			c-0.6,0-1-0.2-1.4-0.6c-0.4-0.4-0.6-1-0.6-1.7h5c0-0.1,0-0.2,0-0.3c0-1.1-0.3-2-0.9-2.6c-0.6-0.6-1.3-0.9-2.2-0.9
			c-0.9,0-1.7,0.3-2.3,0.9c-0.6,0.6-0.9,1.5-0.9,2.6c0,1.1,0.3,1.9,0.9,2.6c0.6,0.6,1.4,0.9,2.3,0.9c0.8,0,1.4-0.2,1.9-0.6
			c0.5-0.4,0.8-0.9,1-1.6l-1.2-0.1C179.1,130.6,178.9,131,178.6,131.2 M173,131.3c-0.2,0-0.3,0-0.4-0.1c-0.1-0.1-0.2-0.1-0.2-0.2
			c0-0.1-0.1-0.3-0.1-0.6v-3.9h1.1v-0.9h-1.1v-2.4l-1.1,0.7v1.7h-0.8v0.9h0.8v3.9c0,0.7,0,1.1,0.1,1.3c0.1,0.2,0.3,0.4,0.5,0.5
			c0.2,0.1,0.6,0.2,1,0.2c0.3,0,0.5,0,0.9-0.1l-0.2-1C173.3,131.3,173.2,131.3,173,131.3 M165,132.3v-3.7c0-0.9,0.2-1.4,0.5-1.8
			c0.4-0.3,0.8-0.5,1.3-0.5c0.3,0,0.6,0.1,0.8,0.2c0.2,0.1,0.4,0.3,0.5,0.6c0.1,0.2,0.1,0.6,0.1,1v4.1h1.1v-4.1c0-0.5,0-0.9-0.1-1.1
			c-0.1-0.3-0.2-0.6-0.4-0.8c-0.2-0.2-0.4-0.4-0.8-0.6c-0.3-0.1-0.7-0.2-1.1-0.2c-0.9,0-1.7,0.4-2.1,1.1v-1h-1v6.7H165z
			 M162.1,125.6h-1.1v6.7h1.1V125.6z M162.1,123h-1.1v1.3h1.1V123z M151.2,132.3v-3.7c0-0.9,0.2-1.4,0.5-1.8
			c0.4-0.3,0.8-0.5,1.3-0.5c0.3,0,0.6,0.1,0.8,0.2c0.2,0.1,0.4,0.3,0.5,0.6c0.1,0.2,0.1,0.6,0.1,1v4.1h1.1v-4.1c0-0.5,0-0.9-0.1-1.1
			c-0.1-0.3-0.2-0.6-0.4-0.8c-0.2-0.2-0.4-0.4-0.8-0.6c-0.3-0.1-0.7-0.2-1.1-0.2c-0.9,0-1.7,0.4-2.1,1.1v-1h-1v6.7H151.2z
			 M147.2,129.3c0,0.5-0.1,0.9-0.2,1.1c-0.2,0.3-0.4,0.6-0.8,0.8c-0.3,0.2-0.7,0.3-1.2,0.3c-0.4,0-0.8-0.1-1-0.3
			c-0.2-0.2-0.3-0.5-0.3-0.8c0-0.2,0.1-0.4,0.2-0.5c0.1-0.2,0.3-0.3,0.5-0.4c0.2-0.1,0.5-0.2,1-0.2c0.8-0.1,1.5-0.3,1.9-0.4V129.3z
			 M147.5,132.3h1.2c-0.1-0.3-0.2-0.5-0.3-0.8c0-0.3-0.1-1-0.1-2V128c0-0.5,0-0.9-0.1-1.1c-0.1-0.3-0.2-0.6-0.4-0.8
			c-0.2-0.2-0.4-0.4-0.8-0.5c-0.4-0.1-0.8-0.2-1.4-0.2c-0.6,0-1.1,0.1-1.5,0.2c-0.4,0.2-0.8,0.4-1,0.7c-0.2,0.3-0.4,0.7-0.5,1.2
			l1.1,0.2c0.1-0.5,0.3-0.8,0.6-1c0.3-0.2,0.7-0.3,1.2-0.3c0.6,0,1,0.1,1.3,0.4c0.2,0.2,0.3,0.5,0.3,1c0,0,0,0.1,0,0.3
			c-0.4,0.2-1.1,0.3-2,0.4c-0.5,0.1-0.8,0.1-1,0.2c-0.3,0.1-0.6,0.2-0.8,0.4c-0.2,0.2-0.4,0.4-0.6,0.7c-0.1,0.3-0.2,0.6-0.2,0.9
			c0,0.6,0.2,1,0.6,1.4c0.4,0.4,1,0.5,1.7,0.5c0.4,0,0.9-0.1,1.3-0.2c0.4-0.1,0.8-0.4,1.2-0.8C147.3,131.8,147.4,132.1,147.5,132.3
			 M136.6,132.3c0,0.4-0.1,0.7-0.2,0.9c-0.1,0.2-0.3,0.4-0.5,0.5l0.3,0.5c0.4-0.2,0.6-0.4,0.8-0.7c0.2-0.3,0.3-0.7,0.3-1.2V131h-1.3
			v1.3H136.6z M129.6,132.3v-3.7c0-0.9,0.2-1.4,0.5-1.8c0.4-0.3,0.8-0.5,1.3-0.5c0.3,0,0.6,0.1,0.8,0.2c0.2,0.1,0.4,0.3,0.5,0.6
			c0.1,0.2,0.1,0.6,0.1,1v4.1h1.1v-4.1c0-0.5,0-0.9-0.1-1.1c-0.1-0.3-0.2-0.6-0.4-0.8c-0.2-0.2-0.4-0.4-0.8-0.6
			c-0.3-0.1-0.7-0.2-1.1-0.2c-0.9,0-1.7,0.4-2.1,1.1v-1h-1v6.7H129.6z M125.5,129.3c0,0.5-0.1,0.9-0.2,1.1c-0.2,0.3-0.4,0.6-0.8,0.8
			c-0.3,0.2-0.7,0.3-1.2,0.3c-0.4,0-0.8-0.1-1-0.3c-0.2-0.2-0.3-0.5-0.3-0.8c0-0.2,0.1-0.4,0.2-0.5c0.1-0.2,0.3-0.3,0.5-0.4
			c0.2-0.1,0.5-0.2,1-0.2c0.8-0.1,1.5-0.3,1.9-0.4V129.3z M125.8,132.3h1.2c-0.1-0.3-0.2-0.5-0.3-0.8c0-0.3-0.1-1-0.1-2V128
			c0-0.5,0-0.9-0.1-1.1c-0.1-0.3-0.2-0.6-0.4-0.8c-0.2-0.2-0.4-0.4-0.8-0.5c-0.4-0.1-0.8-0.2-1.4-0.2c-0.6,0-1.1,0.1-1.5,0.2
			c-0.4,0.2-0.8,0.4-1,0.7c-0.2,0.3-0.4,0.7-0.5,1.2l1.1,0.2c0.1-0.5,0.3-0.8,0.6-1c0.3-0.2,0.7-0.3,1.2-0.3c0.6,0,1,0.1,1.3,0.4
			c0.2,0.2,0.3,0.5,0.3,1c0,0,0,0.1,0,0.3c-0.4,0.2-1.1,0.3-2,0.4c-0.5,0.1-0.8,0.1-1,0.2c-0.3,0.1-0.6,0.2-0.8,0.4
			c-0.2,0.2-0.4,0.4-0.6,0.7c-0.2,0.3-0.2,0.6-0.2,0.9c0,0.6,0.2,1,0.6,1.4c0.4,0.4,1,0.5,1.7,0.5c0.4,0,0.9-0.1,1.3-0.2
			c0.4-0.1,0.8-0.4,1.2-0.8C125.6,131.8,125.7,132.1,125.8,132.3 M119.4,123h-1.1v9.3h1.1V123z M112.7,127c0.4-0.5,0.8-0.7,1.3-0.7
			c0.5,0,0.9,0.2,1.3,0.6c0.4,0.4,0.5,1.1,0.5,1.9c0,0.9-0.2,1.6-0.5,2c-0.4,0.4-0.8,0.6-1.3,0.6c-0.5,0-0.9-0.2-1.3-0.6
			c-0.4-0.4-0.5-1.1-0.5-1.9C112.1,128.1,112.3,127.4,112.7,127 M112.2,134.9v-3.3c0.2,0.2,0.4,0.4,0.7,0.6c0.3,0.2,0.6,0.2,1,0.2
			c0.5,0,1-0.1,1.5-0.4c0.5-0.3,0.8-0.7,1.1-1.3c0.2-0.6,0.4-1.2,0.4-1.9c0-0.6-0.1-1.2-0.3-1.8c-0.2-0.5-0.6-1-1-1.3
			c-0.4-0.3-0.9-0.4-1.5-0.4c-0.4,0-0.8,0.1-1.1,0.3c-0.3,0.2-0.6,0.4-0.8,0.8v-0.9h-1v9.3H112.2z M101.4,131.9
			c0.5,0.4,1.1,0.5,2,0.5c0.5,0,1-0.1,1.4-0.3c0.4-0.2,0.7-0.4,1-0.8c0.2-0.3,0.3-0.7,0.3-1.1c0-0.4-0.1-0.7-0.3-1
			c-0.2-0.3-0.4-0.5-0.8-0.6c-0.3-0.1-0.9-0.3-1.7-0.5c-0.6-0.2-0.9-0.2-1-0.3c-0.2-0.1-0.3-0.2-0.4-0.3c-0.1-0.1-0.1-0.3-0.1-0.4
			c0-0.2,0.1-0.4,0.3-0.6c0.2-0.2,0.6-0.3,1.1-0.3c0.4,0,0.8,0.1,1,0.3c0.2,0.2,0.4,0.5,0.4,0.8l1.1-0.2c-0.1-0.4-0.2-0.8-0.4-1
			c-0.2-0.3-0.5-0.5-0.9-0.6c-0.4-0.2-0.9-0.2-1.4-0.2c-0.4,0-0.7,0-1,0.1c-0.3,0.1-0.5,0.2-0.7,0.3c-0.2,0.2-0.4,0.4-0.6,0.6
			c-0.1,0.3-0.2,0.5-0.2,0.8c0,0.3,0.1,0.6,0.3,0.9c0.2,0.3,0.4,0.5,0.7,0.6c0.3,0.2,0.9,0.3,1.7,0.5c0.6,0.2,1,0.3,1.2,0.4
			c0.2,0.1,0.3,0.4,0.3,0.6c0,0.3-0.1,0.5-0.4,0.8c-0.3,0.2-0.6,0.3-1.2,0.3c-0.5,0-0.9-0.1-1.2-0.4s-0.5-0.6-0.5-1l-1.1,0.2
			C100.6,131,100.9,131.5,101.4,131.9 M95.2,126.9c0.4-0.4,0.8-0.5,1.3-0.5c0.6,0,1.1,0.2,1.4,0.7c0.2,0.3,0.4,0.7,0.4,1.3h-3.8
			C94.6,127.7,94.8,127.2,95.2,126.9 M97.6,131.2c-0.3,0.2-0.7,0.3-1.1,0.3c-0.6,0-1-0.2-1.4-0.6c-0.4-0.4-0.6-1-0.6-1.7h5
			c0-0.1,0-0.2,0-0.3c0-1.1-0.3-2-0.9-2.6c-0.6-0.6-1.3-0.9-2.2-0.9c-0.9,0-1.7,0.3-2.3,0.9c-0.6,0.6-0.9,1.5-0.9,2.6
			c0,1.1,0.3,1.9,0.9,2.6c0.6,0.6,1.4,0.9,2.3,0.9c0.8,0,1.4-0.2,1.9-0.6c0.5-0.4,0.8-0.9,1-1.6l-1.2-0.1
			C98.2,130.6,97.9,131,97.6,131.2 M92.1,131.3c-0.2,0-0.3,0-0.4-0.1c-0.1-0.1-0.2-0.1-0.2-0.2c0-0.1-0.1-0.3-0.1-0.6v-3.9h1.1v-0.9
			h-1.1v-2.4l-1.1,0.7v1.7h-0.8v0.9h0.8v3.9c0,0.7,0,1.1,0.1,1.3c0.1,0.2,0.3,0.4,0.5,0.5c0.2,0.1,0.5,0.2,1,0.2
			c0.3,0,0.5,0,0.9-0.1l-0.2-1C92.4,131.3,92.2,131.3,92.1,131.3 M87.2,129.3c0,0.5-0.1,0.9-0.2,1.1c-0.2,0.3-0.4,0.6-0.8,0.8
			c-0.3,0.2-0.7,0.3-1.2,0.3c-0.4,0-0.8-0.1-1-0.3c-0.2-0.2-0.3-0.5-0.3-0.8c0-0.2,0.1-0.4,0.2-0.5c0.1-0.2,0.3-0.3,0.5-0.4
			c0.2-0.1,0.5-0.2,1-0.2c0.8-0.1,1.5-0.3,1.9-0.4V129.3z M87.5,132.3h1.2c-0.1-0.3-0.2-0.5-0.3-0.8c0-0.3-0.1-1-0.1-2V128
			c0-0.5,0-0.9-0.1-1.1c-0.1-0.3-0.2-0.6-0.4-0.8c-0.2-0.2-0.4-0.4-0.8-0.5c-0.4-0.1-0.8-0.2-1.4-0.2c-0.6,0-1.1,0.1-1.5,0.2
			c-0.4,0.2-0.8,0.4-1,0.7c-0.2,0.3-0.4,0.7-0.5,1.2l1.1,0.2c0.1-0.5,0.3-0.8,0.6-1c0.3-0.2,0.7-0.3,1.2-0.3c0.6,0,1,0.1,1.3,0.4
			c0.2,0.2,0.3,0.5,0.3,1c0,0,0,0.1,0,0.3c-0.4,0.2-1.1,0.3-2,0.4c-0.5,0.1-0.8,0.1-1,0.2c-0.3,0.1-0.6,0.2-0.8,0.4
			c-0.2,0.2-0.4,0.4-0.6,0.7c-0.1,0.3-0.2,0.6-0.2,0.9c0,0.6,0.2,1,0.6,1.4c0.4,0.4,1,0.5,1.7,0.5c0.4,0,0.9-0.1,1.3-0.2
			c0.4-0.1,0.8-0.4,1.2-0.8C87.3,131.8,87.4,132.1,87.5,132.3 M79.7,132.3v-3.5c0-0.5,0.1-0.9,0.2-1.3c0.1-0.3,0.2-0.5,0.4-0.6
			s0.4-0.2,0.7-0.2c0.3,0,0.6,0.1,0.8,0.2l0.4-1.1c-0.4-0.2-0.8-0.4-1.2-0.4c-0.3,0-0.5,0.1-0.7,0.2c-0.2,0.2-0.5,0.5-0.7,0.9v-1h-1
			v6.7H79.7z M71.7,132.3v-3.5c0-0.5,0.1-0.9,0.2-1.3c0.1-0.3,0.2-0.5,0.4-0.6c0.2-0.2,0.4-0.2,0.7-0.2c0.3,0,0.6,0.1,0.8,0.2
			l0.4-1.1c-0.4-0.2-0.8-0.4-1.2-0.4c-0.3,0-0.5,0.1-0.7,0.2c-0.2,0.2-0.5,0.5-0.7,0.9v-1h-1v6.7H71.7z M67.7,129.3
			c0,0.5-0.1,0.9-0.2,1.1c-0.2,0.3-0.4,0.6-0.8,0.8c-0.3,0.2-0.7,0.3-1.2,0.3c-0.4,0-0.8-0.1-1-0.3c-0.2-0.2-0.3-0.5-0.3-0.8
			c0-0.2,0.1-0.4,0.2-0.5c0.1-0.2,0.3-0.3,0.5-0.4c0.2-0.1,0.5-0.2,1-0.2c0.8-0.1,1.5-0.3,1.9-0.4V129.3z M68,132.3h1.2
			c-0.1-0.3-0.2-0.5-0.3-0.8c0-0.3-0.1-1-0.1-2V128c0-0.5,0-0.9-0.1-1.1c-0.1-0.3-0.2-0.6-0.4-0.8c-0.2-0.2-0.4-0.4-0.8-0.5
			c-0.4-0.1-0.8-0.2-1.4-0.2c-0.6,0-1.1,0.1-1.5,0.2c-0.4,0.2-0.8,0.4-1,0.7c-0.2,0.3-0.4,0.7-0.5,1.2l1.1,0.2
			c0.1-0.5,0.3-0.8,0.6-1c0.3-0.2,0.7-0.3,1.2-0.3c0.6,0,1,0.1,1.3,0.4c0.2,0.2,0.3,0.5,0.3,1c0,0,0,0.1,0,0.3
			c-0.4,0.2-1.1,0.3-2,0.4c-0.5,0.1-0.8,0.1-1,0.2c-0.3,0.1-0.6,0.2-0.8,0.4c-0.2,0.2-0.4,0.4-0.6,0.7c-0.1,0.3-0.2,0.6-0.2,0.9
			c0,0.6,0.2,1,0.6,1.4c0.4,0.4,1,0.5,1.7,0.5c0.4,0,0.9-0.1,1.3-0.2c0.4-0.1,0.8-0.4,1.2-0.8C67.8,131.8,67.9,132.1,68,132.3
			 M57.6,126.9c0.4-0.4,0.8-0.5,1.3-0.5c0.6,0,1.1,0.2,1.4,0.7c0.2,0.3,0.4,0.7,0.4,1.3H57C57,127.7,57.2,127.2,57.6,126.9
			 M60.1,131.2c-0.3,0.2-0.7,0.3-1.1,0.3c-0.6,0-1-0.2-1.4-0.6c-0.4-0.4-0.6-1-0.6-1.7h5c0-0.1,0-0.2,0-0.3c0-1.1-0.3-2-0.9-2.6
			c-0.6-0.6-1.3-0.9-2.2-0.9c-0.9,0-1.7,0.3-2.3,0.9c-0.6,0.6-0.9,1.5-0.9,2.6c0,1.1,0.3,1.9,0.9,2.6c0.6,0.6,1.4,0.9,2.3,0.9
			c0.8,0,1.4-0.2,1.9-0.6c0.5-0.4,0.8-0.9,1-1.6l-1.2-0.1C60.6,130.6,60.4,131,60.1,131.2 M50.3,135c0.4,0,0.7-0.1,0.9-0.3
			c0.3-0.2,0.5-0.5,0.7-0.8c0.2-0.3,0.4-0.8,0.6-1.5l2.6-6.9H54l-1.4,3.9c-0.2,0.5-0.3,1-0.5,1.5c-0.1-0.5-0.3-1.1-0.5-1.6l-1.4-3.9
			H49l2.6,6.8c0,0.1-0.1,0.2-0.1,0.3c-0.2,0.5-0.3,0.7-0.3,0.8c-0.1,0.2-0.2,0.3-0.4,0.4c-0.2,0.1-0.4,0.1-0.6,0.1
			c-0.2,0-0.4,0-0.7-0.1l0.1,1.1C49.9,135,50.1,135,50.3,135 M48.4,128.4h-3.5v1.1h3.5V128.4z M39.5,124.6c0.3-0.4,0.7-0.7,1.3-0.7
			c0.5,0,1,0.3,1.3,0.8c0.4,0.5,0.5,1.5,0.5,3.1c0,1.5-0.2,2.5-0.5,3c-0.4,0.5-0.8,0.8-1.3,0.8c-0.5,0-1-0.3-1.3-0.8
			c-0.4-0.5-0.5-1.5-0.5-3.1C38.9,126.2,39.1,125.1,39.5,124.6 M38.7,131.5c0.5,0.6,1.2,1,2.1,1c0.7,0,1.2-0.2,1.7-0.5
			c0.4-0.4,0.8-0.9,1-1.6c0.2-0.7,0.3-1.6,0.3-2.6c0-0.9-0.1-1.7-0.2-2.2c-0.1-0.5-0.3-1-0.6-1.4c-0.2-0.4-0.6-0.7-0.9-0.9
			c-0.4-0.2-0.8-0.3-1.3-0.3c-0.7,0-1.2,0.2-1.7,0.5c-0.4,0.4-0.8,0.9-1,1.6c-0.2,0.7-0.3,1.6-0.3,2.7
			C37.8,129.5,38.1,130.7,38.7,131.5 M34.8,123h-0.7c-0.2,0.4-0.5,0.8-1,1.2c-0.5,0.4-1,0.8-1.7,1.1v1.1c0.4-0.1,0.8-0.3,1.2-0.6
			c0.4-0.3,0.8-0.5,1.1-0.8v7.3h1.1V123z"/>
		<path class="st0" d="M287.2,107.4c0.4-0.4,0.8-0.5,1.3-0.5c0.6,0,1.1,0.2,1.4,0.7c0.2,0.3,0.4,0.7,0.4,1.3h-3.8
			C286.6,108.2,286.8,107.7,287.2,107.4 M289.6,111.7c-0.3,0.2-0.7,0.3-1.1,0.3c-0.6,0-1-0.2-1.4-0.6c-0.4-0.4-0.6-1-0.6-1.7h5
			c0-0.1,0-0.2,0-0.3c0-1.1-0.3-2-0.9-2.6c-0.6-0.6-1.3-0.9-2.2-0.9c-0.9,0-1.7,0.3-2.3,0.9c-0.6,0.6-0.9,1.5-0.9,2.6
			c0,1.1,0.3,1.9,0.9,2.6c0.6,0.6,1.4,0.9,2.3,0.9c0.8,0,1.4-0.2,1.9-0.6c0.5-0.4,0.8-0.9,1-1.6l-1.2-0.1
			C290.1,111.1,289.9,111.5,289.6,111.7 M279.6,112.8v-3.7c0-0.5,0.1-0.9,0.2-1.2c0.1-0.3,0.3-0.5,0.6-0.7c0.3-0.2,0.6-0.3,1-0.3
			c0.5,0,0.8,0.1,1.1,0.4c0.2,0.3,0.4,0.7,0.4,1.2v4.3h1.1v-4.3c0-0.7-0.1-1.2-0.2-1.5c-0.2-0.3-0.4-0.6-0.8-0.8
			c-0.4-0.2-0.8-0.3-1.3-0.3c-0.8,0-1.5,0.3-2,0.9v-3.3h-1.1v9.3H279.6z M276.8,111.8c-0.2,0-0.3,0-0.4-0.1
			c-0.1-0.1-0.2-0.1-0.2-0.2c0-0.1-0.1-0.3-0.1-0.6v-3.9h1.1v-0.9h-1.1v-2.4l-1.1,0.7v1.7h-0.8v0.9h0.8v3.9c0,0.7,0,1.1,0.1,1.3
			c0.1,0.2,0.3,0.4,0.5,0.5c0.2,0.1,0.5,0.2,1,0.2c0.3,0,0.5,0,0.9-0.1l-0.2-1C277.1,111.8,277,111.8,276.8,111.8 M269,112.8v-5.9
			h1.3v-0.9H269v-0.6c0-0.4,0.1-0.7,0.2-0.8c0.1-0.1,0.4-0.2,0.7-0.2c0.2,0,0.4,0,0.7,0.1l0.2-1c-0.4-0.1-0.7-0.1-1.1-0.1
			c-0.5,0-0.9,0.1-1.2,0.3c-0.3,0.2-0.5,0.4-0.6,0.7c-0.1,0.2-0.1,0.6-0.1,1v0.7h-1v0.9h1v5.9H269z M261.7,107.5
			c0.4-0.4,0.9-0.6,1.4-0.6c0.6,0,1,0.2,1.4,0.6c0.4,0.4,0.6,1.1,0.6,1.9c0,0.9-0.2,1.5-0.6,2c-0.4,0.4-0.8,0.6-1.4,0.6
			c-0.6,0-1-0.2-1.4-0.6c-0.4-0.4-0.6-1.1-0.6-1.9S261.3,107.9,261.7,107.5 M260.8,112c0.6,0.6,1.3,0.9,2.3,0.9
			c0.6,0,1.1-0.1,1.6-0.4c0.5-0.3,0.9-0.7,1.1-1.2s0.4-1.2,0.4-2c0-1.1-0.3-1.9-0.9-2.5s-1.3-0.9-2.3-0.9c-0.8,0-1.5,0.2-2.1,0.7
			c-0.7,0.6-1,1.5-1,2.8C260,110.6,260.3,111.4,260.8,112 M255.2,111.8c-0.2,0-0.3,0-0.4-0.1c-0.1-0.1-0.2-0.1-0.2-0.2
			c0-0.1-0.1-0.3-0.1-0.6v-3.9h1.1v-0.9h-1.1v-2.4l-1.1,0.7v1.7h-0.8v0.9h0.8v3.9c0,0.7,0,1.1,0.1,1.3c0.1,0.2,0.3,0.4,0.5,0.5
			c0.2,0.1,0.6,0.2,1,0.2c0.3,0,0.5,0,0.9-0.1l-0.2-1C255.5,111.8,255.3,111.8,255.2,111.8 M250,112.8v-3.5c0-0.5,0.1-0.9,0.2-1.3
			c0.1-0.3,0.2-0.5,0.4-0.6c0.2-0.2,0.4-0.2,0.7-0.2c0.3,0,0.6,0.1,0.8,0.2l0.4-1.1c-0.4-0.2-0.8-0.4-1.2-0.4
			c-0.3,0-0.5,0.1-0.7,0.2c-0.2,0.2-0.5,0.5-0.7,0.9v-1h-1v6.7H250z M245.9,109.8c0,0.5-0.1,0.9-0.2,1.1c-0.2,0.3-0.4,0.6-0.8,0.8
			c-0.3,0.2-0.7,0.3-1.2,0.3c-0.4,0-0.8-0.1-1-0.3c-0.2-0.2-0.3-0.5-0.3-0.8c0-0.2,0.1-0.4,0.2-0.5c0.1-0.2,0.3-0.3,0.5-0.4
			c0.2-0.1,0.5-0.2,1-0.2c0.8-0.1,1.5-0.3,1.9-0.4V109.8z M246.2,112.8h1.2c-0.1-0.3-0.2-0.5-0.3-0.8c0-0.3-0.1-1-0.1-2v-1.5
			c0-0.5,0-0.9-0.1-1.1c-0.1-0.3-0.2-0.6-0.4-0.8c-0.2-0.2-0.4-0.4-0.8-0.5c-0.4-0.1-0.8-0.2-1.4-0.2c-0.6,0-1.1,0.1-1.5,0.2
			c-0.4,0.2-0.8,0.4-1,0.7c-0.2,0.3-0.4,0.7-0.5,1.2l1.1,0.2c0.1-0.5,0.3-0.8,0.6-1c0.3-0.2,0.7-0.3,1.2-0.3c0.6,0,1,0.1,1.3,0.4
			c0.2,0.2,0.3,0.5,0.3,1c0,0,0,0.1,0,0.3c-0.4,0.2-1.1,0.3-2,0.4c-0.5,0.1-0.8,0.1-1,0.2c-0.3,0.1-0.6,0.2-0.8,0.4
			c-0.2,0.2-0.4,0.4-0.6,0.7c-0.2,0.3-0.2,0.6-0.2,0.9c0,0.6,0.2,1,0.6,1.4c0.4,0.4,1,0.5,1.7,0.5c0.4,0,0.9-0.1,1.3-0.2
			c0.4-0.1,0.8-0.4,1.2-0.8C246.1,112.3,246.1,112.6,246.2,112.8 M236,107.5c0.4-0.5,0.8-0.7,1.3-0.7c0.5,0,0.9,0.2,1.3,0.6
			c0.4,0.4,0.5,1.1,0.5,1.9c0,0.9-0.2,1.6-0.5,2c-0.4,0.4-0.8,0.6-1.3,0.6c-0.5,0-0.9-0.2-1.3-0.6c-0.4-0.4-0.5-1.1-0.5-1.9
			C235.4,108.6,235.6,107.9,236,107.5 M235.5,115.4v-3.3c0.2,0.2,0.4,0.4,0.7,0.6c0.3,0.2,0.6,0.2,1,0.2c0.5,0,1-0.1,1.5-0.4
			s0.8-0.7,1.1-1.3c0.2-0.6,0.4-1.2,0.4-1.9c0-0.6-0.1-1.2-0.3-1.8s-0.6-1-1-1.3c-0.4-0.3-0.9-0.4-1.5-0.4c-0.4,0-0.8,0.1-1.1,0.3
			c-0.3,0.2-0.6,0.4-0.8,0.8v-0.9h-1v9.3H235.5z M224.7,112.4c0.5,0.4,1.1,0.5,2,0.5c0.5,0,1-0.1,1.4-0.3c0.4-0.2,0.7-0.4,1-0.8
			c0.2-0.3,0.3-0.7,0.3-1.1c0-0.4-0.1-0.7-0.3-1c-0.2-0.3-0.4-0.5-0.8-0.6c-0.3-0.1-0.9-0.3-1.7-0.5c-0.6-0.2-0.9-0.2-1-0.3
			c-0.2-0.1-0.3-0.2-0.4-0.3c-0.1-0.1-0.1-0.3-0.1-0.4c0-0.2,0.1-0.4,0.3-0.6c0.2-0.2,0.6-0.3,1.1-0.3c0.4,0,0.8,0.1,1,0.3
			c0.2,0.2,0.4,0.5,0.4,0.8l1.1-0.2c-0.1-0.4-0.2-0.8-0.4-1c-0.2-0.3-0.5-0.5-0.9-0.6c-0.4-0.2-0.9-0.2-1.4-0.2c-0.4,0-0.7,0-1,0.1
			c-0.3,0.1-0.6,0.2-0.7,0.3c-0.2,0.2-0.4,0.4-0.6,0.6c-0.1,0.3-0.2,0.5-0.2,0.8c0,0.3,0.1,0.6,0.2,0.9c0.2,0.3,0.4,0.5,0.7,0.6
			c0.3,0.2,0.9,0.3,1.7,0.5c0.6,0.2,1,0.3,1.2,0.4c0.2,0.1,0.3,0.4,0.3,0.6c0,0.3-0.1,0.5-0.4,0.8c-0.3,0.2-0.6,0.3-1.2,0.3
			c-0.5,0-0.9-0.1-1.2-0.4c-0.3-0.2-0.5-0.6-0.5-1l-1.1,0.2C223.9,111.5,224.2,112,224.7,112.4 M218.4,106.2
			c0.2-0.6,0.4-1.2,0.5-1.8c0.1,0.5,0.4,1.1,0.7,1.9l1,2.6h-3.2L218.4,106.2z M216,112.8l1-2.8h3.9l1.1,2.8h1.4l-3.8-9.3h-1.3
			l-3.6,9.3H216z M210.7,111.5h-1.3v1.3h1.3V111.5z M204.2,115.5c0.4,0,0.7-0.1,0.9-0.3c0.3-0.2,0.5-0.5,0.7-0.8
			c0.2-0.3,0.4-0.8,0.6-1.5l2.6-6.9H208l-1.4,3.9c-0.2,0.5-0.3,1-0.5,1.5c-0.1-0.5-0.3-1.1-0.5-1.6l-1.4-3.9h-1.2l2.6,6.8
			c0,0.1-0.1,0.2-0.1,0.3c-0.2,0.5-0.3,0.7-0.3,0.8c-0.1,0.2-0.2,0.3-0.4,0.4c-0.2,0.1-0.4,0.1-0.6,0.1c-0.2,0-0.4,0-0.7-0.1
			l0.1,1.1C203.8,115.5,204,115.5,204.2,115.5 M201.8,103.5h-1.1v9.3h1.1V103.5z M194.9,107.4c0.4-0.4,0.8-0.5,1.3-0.5
			c0.6,0,1.1,0.2,1.4,0.7c0.2,0.3,0.4,0.7,0.4,1.3h-3.8C194.3,108.2,194.5,107.7,194.9,107.4 M197.4,111.7c-0.3,0.2-0.7,0.3-1.1,0.3
			c-0.6,0-1-0.2-1.4-0.6c-0.4-0.4-0.6-1-0.6-1.7h5c0-0.1,0-0.2,0-0.3c0-1.1-0.3-2-0.9-2.6c-0.6-0.6-1.3-0.9-2.2-0.9
			c-0.9,0-1.7,0.3-2.3,0.9c-0.6,0.6-0.9,1.5-0.9,2.6c0,1.1,0.3,1.9,0.9,2.6c0.6,0.6,1.4,0.9,2.3,0.9c0.8,0,1.4-0.2,1.9-0.6
			c0.5-0.4,0.8-0.9,1-1.6l-1.2-0.1C197.9,111.1,197.7,111.5,197.4,111.7 M191.2,112.8v-5.9h1.3v-0.9h-1.3v-0.6
			c0-0.4,0.1-0.7,0.2-0.8c0.1-0.1,0.4-0.2,0.7-0.2c0.2,0,0.4,0,0.7,0.1l0.2-1c-0.4-0.1-0.7-0.1-1.1-0.1c-0.5,0-0.9,0.1-1.2,0.3
			c-0.3,0.2-0.5,0.4-0.6,0.7c-0.1,0.2-0.1,0.6-0.1,1v0.7h-1v0.9h1v5.9H191.2z M186.9,109.8c0,0.5-0.1,0.9-0.2,1.1
			c-0.2,0.3-0.4,0.6-0.8,0.8c-0.3,0.2-0.7,0.3-1.2,0.3c-0.4,0-0.8-0.1-1-0.3c-0.2-0.2-0.3-0.5-0.3-0.8c0-0.2,0.1-0.4,0.2-0.5
			c0.1-0.2,0.3-0.3,0.5-0.4c0.2-0.1,0.5-0.2,1-0.2c0.8-0.1,1.5-0.3,1.9-0.4V109.8z M187.2,112.8h1.2c-0.1-0.3-0.2-0.5-0.3-0.8
			c0-0.3-0.1-1-0.1-2v-1.5c0-0.5,0-0.9-0.1-1.1c-0.1-0.3-0.2-0.6-0.4-0.8c-0.2-0.2-0.4-0.4-0.8-0.5c-0.4-0.1-0.8-0.2-1.4-0.2
			c-0.6,0-1.1,0.1-1.5,0.2c-0.4,0.2-0.8,0.4-1,0.7c-0.2,0.3-0.4,0.7-0.5,1.2l1.1,0.2c0.1-0.5,0.3-0.8,0.6-1c0.3-0.2,0.7-0.3,1.2-0.3
			c0.6,0,1,0.1,1.3,0.4c0.2,0.2,0.3,0.5,0.3,1c0,0,0,0.1,0,0.3c-0.4,0.2-1.1,0.3-2,0.4c-0.5,0.1-0.8,0.1-1,0.2
			c-0.3,0.1-0.6,0.2-0.8,0.4c-0.2,0.2-0.4,0.4-0.6,0.7c-0.1,0.3-0.2,0.6-0.2,0.9c0,0.6,0.2,1,0.6,1.4c0.4,0.4,1,0.5,1.7,0.5
			c0.4,0,0.9-0.1,1.3-0.2c0.4-0.1,0.8-0.4,1.2-0.8C187,112.3,187.1,112.6,187.2,112.8 M176.5,112.4c0.5,0.4,1.1,0.5,2,0.5
			c0.5,0,1-0.1,1.4-0.3c0.4-0.2,0.7-0.4,1-0.8s0.3-0.7,0.3-1.1c0-0.4-0.1-0.7-0.3-1c-0.2-0.3-0.4-0.5-0.8-0.6
			c-0.3-0.1-0.9-0.3-1.7-0.5c-0.6-0.2-0.9-0.2-1-0.3c-0.2-0.1-0.3-0.2-0.4-0.3c-0.1-0.1-0.1-0.3-0.1-0.4c0-0.2,0.1-0.4,0.3-0.6
			c0.2-0.2,0.6-0.3,1.1-0.3c0.4,0,0.8,0.1,1,0.3c0.2,0.2,0.4,0.5,0.4,0.8l1.1-0.2c-0.1-0.4-0.2-0.8-0.4-1c-0.2-0.3-0.5-0.5-0.9-0.6
			c-0.4-0.2-0.9-0.2-1.4-0.2c-0.4,0-0.7,0-1,0.1c-0.3,0.1-0.5,0.2-0.7,0.3c-0.2,0.2-0.4,0.4-0.6,0.6c-0.1,0.3-0.2,0.5-0.2,0.8
			c0,0.3,0.1,0.6,0.3,0.9c0.2,0.3,0.4,0.5,0.7,0.6c0.3,0.2,0.9,0.3,1.7,0.5c0.6,0.2,1,0.3,1.2,0.4c0.2,0.1,0.3,0.4,0.3,0.6
			c0,0.3-0.1,0.5-0.4,0.8c-0.3,0.2-0.6,0.3-1.2,0.3c-0.5,0-0.9-0.1-1.2-0.4c-0.3-0.2-0.5-0.6-0.5-1l-1.1,0.2
			C175.8,111.5,176.1,112,176.5,112.4 M169.3,112.8v-3.5c0-0.5,0.1-0.9,0.2-1.3c0.1-0.3,0.2-0.5,0.4-0.6c0.2-0.2,0.4-0.2,0.7-0.2
			c0.3,0,0.6,0.1,0.8,0.2l0.4-1.1c-0.4-0.2-0.8-0.4-1.2-0.4c-0.3,0-0.5,0.1-0.7,0.2c-0.2,0.2-0.5,0.5-0.7,0.9v-1h-1v6.7H169.3z
			 M162.4,107.4c0.4-0.4,0.8-0.5,1.3-0.5c0.6,0,1.1,0.2,1.4,0.7c0.2,0.3,0.4,0.7,0.4,1.3h-3.8C161.8,108.2,162,107.7,162.4,107.4
			 M164.8,111.7c-0.3,0.2-0.7,0.3-1.1,0.3c-0.6,0-1-0.2-1.4-0.6c-0.4-0.4-0.6-1-0.6-1.7h5c0-0.1,0-0.2,0-0.3c0-1.1-0.3-2-0.9-2.6
			c-0.6-0.6-1.3-0.9-2.2-0.9c-0.9,0-1.7,0.3-2.3,0.9c-0.6,0.6-0.9,1.5-0.9,2.6c0,1.1,0.3,1.9,0.9,2.6c0.6,0.6,1.4,0.9,2.3,0.9
			c0.8,0,1.4-0.2,1.9-0.6c0.5-0.4,0.8-0.9,1-1.6l-1.2-0.1C165.4,111.1,165.1,111.5,164.8,111.7 M154,112.8l1.4-5.2l0.3,1.1l1.1,4
			h1.2l2.1-6.7h-1.1l-1.2,3.9l-0.4,1.3L157,110l-1-3.9h-1.2l-1.1,3.9c-0.2,0.9-0.3,1.3-0.3,1.4l-0.4-1.4l-1.1-3.9h-1.2l2.1,6.7H154z
			 M145.6,107.5c0.4-0.4,0.9-0.6,1.4-0.6c0.6,0,1,0.2,1.4,0.6c0.4,0.4,0.6,1.1,0.6,1.9c0,0.9-0.2,1.5-0.6,2
			c-0.4,0.4-0.8,0.6-1.4,0.6c-0.6,0-1-0.2-1.4-0.6c-0.4-0.4-0.6-1.1-0.6-1.9S145.3,107.9,145.6,107.5 M144.8,112
			c0.6,0.6,1.3,0.9,2.3,0.9c0.6,0,1.1-0.1,1.6-0.4s0.9-0.7,1.1-1.2s0.4-1.2,0.4-2c0-1.1-0.3-1.9-0.9-2.5s-1.3-0.9-2.3-0.9
			c-0.8,0-1.5,0.2-2.1,0.7c-0.7,0.6-1,1.5-1,2.8C143.9,110.6,144.2,111.4,144.8,112 M138.7,107.5c0.4-0.5,0.8-0.7,1.3-0.7
			c0.5,0,0.9,0.2,1.3,0.6c0.4,0.4,0.5,1.1,0.5,1.9c0,0.9-0.2,1.6-0.5,2c-0.4,0.4-0.8,0.6-1.3,0.6c-0.5,0-0.9-0.2-1.3-0.6
			c-0.4-0.4-0.5-1.1-0.5-1.9C138.1,108.6,138.3,107.9,138.7,107.5 M138.2,115.4v-3.3c0.2,0.2,0.4,0.4,0.7,0.6c0.3,0.2,0.6,0.2,1,0.2
			c0.5,0,1-0.1,1.5-0.4s0.8-0.7,1.1-1.3c0.2-0.6,0.4-1.2,0.4-1.9c0-0.6-0.1-1.2-0.3-1.8s-0.6-1-1-1.3c-0.4-0.3-0.9-0.4-1.5-0.4
			c-0.4,0-0.8,0.1-1.1,0.3s-0.6,0.4-0.8,0.8v-0.9h-1v9.3H138.2z M127.7,107.4c0.4-0.4,0.8-0.5,1.3-0.5c0.6,0,1.1,0.2,1.4,0.7
			c0.2,0.3,0.4,0.7,0.4,1.3h-3.8C127.1,108.2,127.3,107.7,127.7,107.4 M130.2,111.7c-0.3,0.2-0.7,0.3-1.1,0.3c-0.6,0-1-0.2-1.4-0.6
			c-0.4-0.4-0.6-1-0.6-1.7h5c0-0.1,0-0.2,0-0.3c0-1.1-0.3-2-0.9-2.6c-0.6-0.6-1.3-0.9-2.2-0.9c-0.9,0-1.7,0.3-2.3,0.9
			c-0.6,0.6-0.9,1.5-0.9,2.6c0,1.1,0.3,1.9,0.9,2.6c0.6,0.6,1.4,0.9,2.3,0.9c0.8,0,1.4-0.2,1.9-0.6c0.5-0.4,0.8-0.9,1-1.6l-1.2-0.1
			C130.7,111.1,130.4,111.5,130.2,111.7 M124.5,103.5h-1.1v9.3h1.1V103.5z M117.7,107.5c0.4-0.4,0.8-0.7,1.3-0.7
			c0.5,0,0.9,0.2,1.3,0.6c0.3,0.4,0.5,1.1,0.5,1.9c0,0.9-0.2,1.5-0.5,1.9c-0.4,0.4-0.8,0.7-1.3,0.7c-0.6,0-1.1-0.3-1.5-0.9
			c-0.2-0.4-0.3-0.9-0.3-1.8C117.2,108.6,117.3,107.9,117.7,107.5 M117.2,112c0.5,0.7,1.1,1,1.9,1c0.8,0,1.5-0.3,2.1-0.9
			c0.6-0.6,0.9-1.5,0.9-2.7c0-0.5-0.1-0.9-0.2-1.4c-0.1-0.4-0.3-0.8-0.6-1.1c-0.2-0.3-0.5-0.5-0.9-0.7c-0.4-0.2-0.8-0.3-1.2-0.3
			c-0.7,0-1.4,0.3-1.8,0.9v-3.3h-1.1v9.3h1.1V112z M113.2,109.8c0,0.5-0.1,0.9-0.2,1.1c-0.2,0.3-0.4,0.6-0.8,0.8
			c-0.3,0.2-0.7,0.3-1.2,0.3c-0.4,0-0.8-0.1-1-0.3c-0.2-0.2-0.3-0.5-0.3-0.8c0-0.2,0.1-0.4,0.2-0.5c0.1-0.2,0.3-0.3,0.5-0.4
			c0.2-0.1,0.5-0.2,1-0.2c0.8-0.1,1.5-0.3,1.9-0.4V109.8z M113.5,112.8h1.2c-0.1-0.3-0.2-0.5-0.3-0.8c0-0.3-0.1-1-0.1-2v-1.5
			c0-0.5,0-0.9-0.1-1.1c-0.1-0.3-0.2-0.6-0.4-0.8c-0.2-0.2-0.4-0.4-0.8-0.5c-0.4-0.1-0.8-0.2-1.4-0.2c-0.6,0-1.1,0.1-1.5,0.2
			c-0.4,0.2-0.8,0.4-1,0.7c-0.2,0.3-0.4,0.7-0.5,1.2l1.1,0.2c0.1-0.5,0.3-0.8,0.6-1c0.3-0.2,0.7-0.3,1.2-0.3c0.6,0,1,0.1,1.3,0.4
			c0.2,0.2,0.3,0.5,0.3,1c0,0,0,0.1,0,0.3c-0.4,0.2-1.1,0.3-2,0.4c-0.5,0.1-0.8,0.1-1,0.2c-0.3,0.1-0.6,0.2-0.8,0.4
			c-0.2,0.2-0.4,0.4-0.6,0.7c-0.2,0.3-0.2,0.6-0.2,0.9c0,0.6,0.2,1,0.6,1.4c0.4,0.4,1,0.5,1.7,0.5c0.4,0,0.9-0.1,1.3-0.2
			c0.4-0.1,0.8-0.4,1.2-0.8C113.3,112.3,113.4,112.6,113.5,112.8 M107.2,106.1H106v6.7h1.1V106.1z M107.2,103.5H106v1.3h1.1V103.5z
			 M104.2,103.5h-1.1v9.3h1.1V103.5z M97.3,107.4c0.4-0.4,0.8-0.5,1.3-0.5c0.6,0,1.1,0.2,1.4,0.7c0.2,0.3,0.4,0.7,0.4,1.3h-3.8
			C96.8,108.2,97,107.7,97.3,107.4 M99.8,111.7c-0.3,0.2-0.7,0.3-1.1,0.3c-0.6,0-1-0.2-1.4-0.6c-0.4-0.4-0.6-1-0.6-1.7h5
			c0-0.1,0-0.2,0-0.3c0-1.1-0.3-2-0.9-2.6c-0.6-0.6-1.3-0.9-2.2-0.9c-0.9,0-1.7,0.3-2.3,0.9c-0.6,0.6-0.9,1.5-0.9,2.6
			c0,1.1,0.3,1.9,0.9,2.6c0.6,0.6,1.4,0.9,2.3,0.9c0.8,0,1.4-0.2,1.9-0.6c0.5-0.4,0.8-0.9,1-1.6l-1.2-0.1
			C100.3,111.1,100.1,111.5,99.8,111.7 M92.7,112.8v-3.5c0-0.5,0.1-0.9,0.2-1.3c0.1-0.3,0.2-0.5,0.4-0.6s0.4-0.2,0.7-0.2
			c0.3,0,0.6,0.1,0.8,0.2l0.4-1.1c-0.4-0.2-0.8-0.4-1.2-0.4c-0.3,0-0.5,0.1-0.7,0.2c-0.2,0.2-0.5,0.5-0.7,0.9v-1h-1v6.7H92.7z
			 M82.2,107.4c0.4-0.4,0.8-0.5,1.3-0.5c0.6,0,1.1,0.2,1.4,0.7c0.2,0.3,0.4,0.7,0.4,1.3h-3.8C81.6,108.2,81.8,107.7,82.2,107.4
			 M84.6,111.7c-0.3,0.2-0.7,0.3-1.1,0.3c-0.6,0-1-0.2-1.4-0.6c-0.4-0.4-0.6-1-0.6-1.7h5c0-0.1,0-0.2,0-0.3c0-1.1-0.3-2-0.9-2.6
			c-0.6-0.6-1.3-0.9-2.2-0.9c-0.9,0-1.7,0.3-2.3,0.9c-0.6,0.6-0.9,1.5-0.9,2.6c0,1.1,0.3,1.9,0.9,2.6c0.6,0.6,1.4,0.9,2.3,0.9
			c0.8,0,1.4-0.2,1.9-0.6c0.5-0.4,0.8-0.9,1-1.6l-1.2-0.1C85.2,111.1,84.9,111.5,84.6,111.7 M74.8,107.5c0.3-0.4,0.8-0.6,1.3-0.6
			c0.5,0,1,0.2,1.3,0.6c0.4,0.4,0.5,1.1,0.5,2c0,0.8-0.2,1.5-0.5,1.9c-0.3,0.4-0.8,0.6-1.3,0.6c-0.5,0-0.9-0.2-1.3-0.6
			c-0.4-0.4-0.5-1.1-0.5-1.9C74.2,108.5,74.4,107.9,74.8,107.5 M78.9,112.8v-9.3h-1.1v3.3c-0.2-0.3-0.5-0.5-0.8-0.7
			c-0.3-0.2-0.7-0.3-1.1-0.3c-0.6,0-1.1,0.1-1.5,0.4c-0.4,0.3-0.8,0.7-1,1.3c-0.2,0.5-0.3,1.2-0.3,1.8c0,0.7,0.1,1.3,0.4,1.8
			c0.2,0.5,0.6,0.9,1,1.2c0.4,0.3,0.9,0.4,1.5,0.4c0.8,0,1.5-0.3,1.9-1v0.9H78.9z M71.7,106.1h-1.1v6.7h1.1V106.1z M71.7,103.5h-1.1
			v1.3h1.1V103.5z M67,112.8l2.6-6.7h-1.2l-1.5,4.1c-0.2,0.5-0.3,0.9-0.4,1.3c-0.1-0.5-0.3-0.9-0.4-1.4l-1.4-4h-1.2l2.6,6.7H67z
			 M58.2,107.5c0.4-0.4,0.9-0.6,1.4-0.6c0.6,0,1,0.2,1.4,0.6c0.4,0.4,0.6,1.1,0.6,1.9c0,0.9-0.2,1.5-0.6,2c-0.4,0.4-0.8,0.6-1.4,0.6
			c-0.6,0-1-0.2-1.4-0.6c-0.4-0.4-0.6-1.1-0.6-1.9S57.8,107.9,58.2,107.5 M57.3,112c0.6,0.6,1.3,0.9,2.3,0.9c0.6,0,1.1-0.1,1.6-0.4
			c0.5-0.3,0.9-0.7,1.1-1.2c0.3-0.5,0.4-1.2,0.4-2c0-1.1-0.3-1.9-0.9-2.5c-0.6-0.6-1.3-0.9-2.3-0.9c-0.8,0-1.5,0.2-2.1,0.7
			c-0.7,0.6-1,1.5-1,2.8C56.4,110.6,56.7,111.4,57.3,112 M53.7,112.8v-3.5c0-0.5,0.1-0.9,0.2-1.3c0.1-0.3,0.2-0.5,0.4-0.6
			c0.2-0.2,0.4-0.2,0.7-0.2c0.3,0,0.6,0.1,0.8,0.2l0.4-1.1c-0.4-0.2-0.8-0.4-1.2-0.4c-0.3,0-0.5,0.1-0.7,0.2
			c-0.2,0.2-0.5,0.5-0.7,0.9v-1h-1v6.7H53.7z M46.9,107.5c0.4-0.5,0.8-0.7,1.3-0.7c0.5,0,0.9,0.2,1.3,0.6c0.4,0.4,0.5,1.1,0.5,1.9
			c0,0.9-0.2,1.6-0.5,2c-0.4,0.4-0.8,0.6-1.3,0.6c-0.5,0-0.9-0.2-1.3-0.6c-0.4-0.4-0.5-1.1-0.5-1.9
			C46.3,108.6,46.5,107.9,46.9,107.5 M46.5,115.4v-3.3c0.2,0.2,0.4,0.4,0.7,0.6c0.3,0.2,0.6,0.2,1,0.2c0.5,0,1-0.1,1.5-0.4
			c0.5-0.3,0.8-0.7,1.1-1.3c0.2-0.6,0.4-1.2,0.4-1.9c0-0.6-0.1-1.2-0.3-1.8c-0.2-0.5-0.6-1-1-1.3c-0.4-0.3-0.9-0.4-1.5-0.4
			c-0.4,0-0.8,0.1-1.1,0.3c-0.3,0.2-0.6,0.4-0.8,0.8v-0.9h-1v9.3H46.5z M35.8,107.5c0.4-0.4,0.8-0.6,1.4-0.6c0.6,0,1,0.2,1.4,0.6
			c0.4,0.4,0.6,1.1,0.6,1.9c0,0.9-0.2,1.5-0.6,2c-0.4,0.4-0.8,0.6-1.4,0.6c-0.6,0-1-0.2-1.4-0.6c-0.4-0.4-0.6-1.1-0.6-1.9
			S35.4,107.9,35.8,107.5 M34.9,112c0.6,0.6,1.3,0.9,2.3,0.9c0.6,0,1.1-0.1,1.6-0.4c0.5-0.3,0.9-0.7,1.1-1.2c0.3-0.5,0.4-1.2,0.4-2
			c0-1.1-0.3-1.9-0.9-2.5s-1.3-0.9-2.3-0.9c-0.8,0-1.5,0.2-2.1,0.7c-0.7,0.6-1,1.5-1,2.8C34,110.6,34.3,111.4,34.9,112 M32.9,111.8
			c-0.2,0-0.3,0-0.4-0.1c-0.1-0.1-0.2-0.1-0.2-0.2c0-0.1-0.1-0.3-0.1-0.6v-3.9h1.1v-0.9h-1.1v-2.4l-1.1,0.7v1.7h-0.8v0.9h0.8v3.9
			c0,0.7,0,1.1,0.1,1.3c0.1,0.2,0.3,0.4,0.5,0.5c0.2,0.1,0.5,0.2,1,0.2c0.3,0,0.5,0,0.9-0.1l-0.2-1C33.1,111.8,33,111.8,32.9,111.8"
			/>
		<path class="st0" d="M284.5,87.9c0.4-0.4,0.8-0.5,1.3-0.5c0.6,0,1.1,0.2,1.4,0.7c0.2,0.3,0.4,0.7,0.4,1.3h-3.8
			C283.9,88.7,284.1,88.2,284.5,87.9 M286.9,92.2c-0.3,0.2-0.7,0.3-1.1,0.3c-0.6,0-1-0.2-1.4-0.6c-0.4-0.4-0.6-1-0.6-1.7h5
			c0-0.1,0-0.2,0-0.3c0-1.1-0.3-2-0.9-2.6c-0.6-0.6-1.3-0.9-2.2-0.9c-0.9,0-1.7,0.3-2.3,0.9c-0.6,0.6-0.9,1.5-0.9,2.6
			c0,1.1,0.3,1.9,0.9,2.6c0.6,0.6,1.4,0.9,2.3,0.9c0.8,0,1.4-0.2,1.9-0.6c0.5-0.4,0.8-0.9,1-1.6l-1.2-0.1
			C287.5,91.6,287.2,92,286.9,92.2 M281.2,93.3v-6.7h-1.1v3.6c0,0.6-0.1,1-0.2,1.3c-0.1,0.3-0.3,0.5-0.6,0.7c-0.3,0.2-0.6,0.3-1,0.3
			c-0.3,0-0.6-0.1-0.9-0.3c-0.2-0.2-0.4-0.4-0.5-0.7c0-0.2-0.1-0.6-0.1-1.2v-3.7h-1.1v4.2c0,0.5,0,0.8,0.1,1.1
			c0.1,0.3,0.2,0.6,0.4,0.8c0.2,0.2,0.4,0.4,0.8,0.6c0.3,0.2,0.7,0.2,1.1,0.2c0.9,0,1.6-0.4,2.1-1.1v1H281.2z M269.7,93.3v-3.7
			c0-0.9,0.2-1.4,0.5-1.8c0.4-0.3,0.8-0.5,1.3-0.5c0.3,0,0.6,0.1,0.8,0.2c0.2,0.1,0.4,0.3,0.5,0.6c0.1,0.2,0.1,0.6,0.1,1v4.1h1.1
			v-4.1c0-0.5,0-0.9-0.1-1.1c-0.1-0.3-0.2-0.6-0.4-0.8s-0.4-0.4-0.8-0.6c-0.3-0.1-0.7-0.2-1.1-0.2c-0.9,0-1.6,0.4-2.1,1.1v-1h-1v6.7
			H269.7z M266.8,86.6h-1.1v6.7h1.1V86.6z M266.8,84h-1.1v1.3h1.1V84z M264.1,92.3c-0.2,0-0.3,0-0.4-0.1s-0.2-0.1-0.2-0.2
			c0-0.1-0.1-0.3-0.1-0.6v-3.9h1.1v-0.9h-1.1v-2.4l-1.1,0.7v1.7h-0.8v0.9h0.8v3.9c0,0.7,0,1.1,0.1,1.3c0.1,0.2,0.3,0.4,0.5,0.5
			c0.2,0.1,0.5,0.2,1,0.2c0.3,0,0.5,0,0.9-0.1l-0.2-1C264.4,92.3,264.2,92.3,264.1,92.3 M256,93.3v-3.7c0-0.9,0.2-1.4,0.5-1.8
			c0.4-0.3,0.8-0.5,1.3-0.5c0.3,0,0.6,0.1,0.8,0.2c0.2,0.1,0.4,0.3,0.5,0.6c0.1,0.2,0.1,0.6,0.1,1v4.1h1.1v-4.1c0-0.5,0-0.9-0.1-1.1
			c-0.1-0.3-0.2-0.6-0.4-0.8c-0.2-0.2-0.4-0.4-0.8-0.6c-0.3-0.1-0.7-0.2-1.1-0.2c-0.9,0-1.6,0.4-2.1,1.1v-1h-1v6.7H256z M248.9,88
			c0.4-0.4,0.9-0.6,1.4-0.6c0.6,0,1,0.2,1.4,0.6c0.4,0.4,0.6,1.1,0.6,1.9c0,0.9-0.2,1.5-0.6,2c-0.4,0.4-0.8,0.6-1.4,0.6
			c-0.6,0-1-0.2-1.4-0.6c-0.4-0.4-0.6-1.1-0.6-1.9C248.4,89.1,248.6,88.4,248.9,88 M248.1,92.5c0.6,0.6,1.3,0.9,2.3,0.9
			c0.6,0,1.1-0.1,1.6-0.4c0.5-0.3,0.9-0.7,1.1-1.2c0.3-0.5,0.4-1.2,0.4-2c0-1.1-0.3-1.9-0.9-2.5c-0.6-0.6-1.3-0.9-2.3-0.9
			c-0.8,0-1.5,0.2-2.1,0.7c-0.7,0.6-1,1.5-1,2.8C247.2,91.1,247.5,91.9,248.1,92.5 M244.9,92.1c-0.3,0.3-0.7,0.4-1.1,0.4
			c-0.6,0-1-0.2-1.4-0.6c-0.3-0.4-0.5-1.1-0.5-2c0-0.9,0.2-1.5,0.5-2c0.4-0.4,0.8-0.6,1.4-0.6c0.4,0,0.7,0.1,1,0.3
			c0.3,0.2,0.5,0.6,0.6,1l1.1-0.2c-0.1-0.7-0.4-1.2-0.9-1.6c-0.5-0.4-1.1-0.6-1.8-0.6c-0.6,0-1.1,0.1-1.6,0.4
			c-0.5,0.3-0.9,0.7-1.1,1.2c-0.2,0.5-0.4,1.2-0.4,1.9c0,1.1,0.3,2,0.8,2.6c0.6,0.6,1.3,0.9,2.2,0.9c0.7,0,1.4-0.2,1.9-0.7
			c0.5-0.4,0.8-1,0.9-1.8l-1.1-0.1C245.4,91.4,245.2,91.8,244.9,92.1 M231.6,88c0.4-0.4,0.9-0.6,1.4-0.6c0.6,0,1,0.2,1.4,0.6
			c0.4,0.4,0.6,1.1,0.6,1.9c0,0.9-0.2,1.5-0.6,2c-0.4,0.4-0.8,0.6-1.4,0.6c-0.6,0-1-0.2-1.4-0.6c-0.4-0.4-0.6-1.1-0.6-1.9
			C231,89.1,231.2,88.4,231.6,88 M230.7,92.5c0.6,0.6,1.3,0.9,2.3,0.9c0.6,0,1.1-0.1,1.6-0.4c0.5-0.3,0.9-0.7,1.1-1.2
			c0.3-0.5,0.4-1.2,0.4-2c0-1.1-0.3-1.9-0.9-2.5c-0.6-0.6-1.3-0.9-2.3-0.9c-0.8,0-1.5,0.2-2.1,0.7c-0.7,0.6-1,1.5-1,2.8
			C229.8,91.1,230.1,91.9,230.7,92.5 M228.7,92.3c-0.2,0-0.3,0-0.4-0.1c-0.1-0.1-0.2-0.1-0.2-0.2c0-0.1-0.1-0.3-0.1-0.6v-3.9h1.1
			v-0.9H228v-2.4l-1.1,0.7v1.7H226v0.9h0.8v3.9c0,0.7,0,1.1,0.1,1.3c0.1,0.2,0.3,0.4,0.5,0.5c0.2,0.1,0.6,0.2,1,0.2
			c0.3,0,0.5,0,0.9-0.1l-0.2-1C229,92.3,228.8,92.3,228.7,92.3 M213.4,93.3v-3.5c0-0.6,0.1-1.1,0.2-1.4c0.1-0.3,0.3-0.6,0.6-0.7
			c0.3-0.2,0.6-0.3,0.9-0.3c0.4,0,0.7,0.1,0.9,0.4c0.2,0.3,0.3,0.6,0.3,1.1v4.4h1.1v-3.9c0-0.7,0.2-1.2,0.5-1.5
			c0.3-0.3,0.7-0.5,1.2-0.5c0.3,0,0.5,0.1,0.7,0.2c0.2,0.1,0.3,0.3,0.4,0.5c0.1,0.2,0.1,0.5,0.1,1v4.2h1.1v-4.6
			c0-0.8-0.2-1.3-0.5-1.7c-0.4-0.4-0.9-0.6-1.5-0.6c-0.9,0-1.5,0.4-2.1,1.2c-0.1-0.4-0.4-0.7-0.7-0.9c-0.3-0.2-0.7-0.3-1.2-0.3
			c-0.4,0-0.8,0.1-1.2,0.3c-0.4,0.2-0.6,0.5-0.8,0.8v-0.9h-1v6.7H213.4z M206.4,87.9c0.4-0.4,0.8-0.5,1.3-0.5c0.6,0,1.1,0.2,1.4,0.7
			c0.2,0.3,0.4,0.7,0.4,1.3h-3.8C205.9,88.7,206.1,88.2,206.4,87.9 M208.9,92.2c-0.3,0.2-0.7,0.3-1.1,0.3c-0.6,0-1-0.2-1.4-0.6
			c-0.4-0.4-0.6-1-0.6-1.7h5c0-0.1,0-0.2,0-0.3c0-1.1-0.3-2-0.9-2.6c-0.6-0.6-1.3-0.9-2.2-0.9c-0.9,0-1.7,0.3-2.3,0.9
			s-0.9,1.5-0.9,2.6c0,1.1,0.3,1.9,0.9,2.6c0.6,0.6,1.4,0.9,2.3,0.9c0.8,0,1.4-0.2,1.9-0.6c0.5-0.4,0.8-0.9,1-1.6l-1.2-0.1
			C209.4,91.6,209.2,92,208.9,92.2 M203.4,92.3c-0.2,0-0.3,0-0.4-0.1c-0.1-0.1-0.2-0.1-0.2-0.2c0-0.1-0.1-0.3-0.1-0.6v-3.9h1.1v-0.9
			h-1.1v-2.4l-1.1,0.7v1.7h-0.8v0.9h0.8v3.9c0,0.7,0,1.1,0.1,1.3c0.1,0.2,0.3,0.4,0.5,0.5c0.2,0.1,0.6,0.2,1,0.2
			c0.3,0,0.5,0,0.9-0.1l-0.2-1C203.7,92.3,203.5,92.3,203.4,92.3 M195.3,92.9c0.5,0.4,1.1,0.5,2,0.5c0.5,0,1-0.1,1.4-0.3
			c0.4-0.2,0.7-0.4,1-0.8c0.2-0.3,0.3-0.7,0.3-1.1c0-0.4-0.1-0.7-0.3-1c-0.2-0.3-0.4-0.5-0.8-0.6c-0.3-0.1-0.9-0.3-1.7-0.5
			c-0.6-0.2-0.9-0.2-1-0.3c-0.2-0.1-0.3-0.2-0.4-0.3c-0.1-0.1-0.1-0.3-0.1-0.4c0-0.2,0.1-0.4,0.3-0.6c0.2-0.2,0.6-0.3,1.1-0.3
			c0.4,0,0.8,0.1,1,0.3c0.2,0.2,0.4,0.5,0.4,0.8l1.1-0.2c-0.1-0.4-0.2-0.8-0.4-1c-0.2-0.3-0.5-0.5-0.9-0.6c-0.4-0.2-0.9-0.2-1.4-0.2
			c-0.4,0-0.7,0-1,0.1c-0.3,0.1-0.5,0.2-0.7,0.3c-0.2,0.2-0.4,0.4-0.6,0.6c-0.1,0.3-0.2,0.5-0.2,0.8c0,0.3,0.1,0.6,0.3,0.9
			c0.2,0.3,0.4,0.5,0.7,0.6c0.3,0.2,0.9,0.3,1.7,0.6c0.6,0.2,1,0.3,1.2,0.4c0.2,0.1,0.3,0.4,0.3,0.6c0,0.3-0.1,0.5-0.4,0.8
			c-0.3,0.2-0.6,0.3-1.2,0.3c-0.5,0-0.9-0.1-1.2-0.4c-0.3-0.2-0.5-0.6-0.5-1l-1.1,0.2C194.6,92,194.8,92.5,195.3,92.9 M189.1,96
			c0.4,0,0.7-0.1,0.9-0.3c0.3-0.2,0.5-0.5,0.7-0.8c0.2-0.3,0.4-0.8,0.6-1.5l2.6-6.9h-1.1l-1.4,3.9c-0.2,0.5-0.3,1-0.5,1.5
			c-0.1-0.5-0.3-1.1-0.5-1.6l-1.4-3.9h-1.2l2.6,6.8c0,0.1-0.1,0.2-0.1,0.3c-0.2,0.5-0.3,0.7-0.3,0.9c-0.1,0.2-0.2,0.3-0.4,0.4
			c-0.2,0.1-0.4,0.1-0.6,0.1c-0.2,0-0.4,0-0.7-0.1l0.1,1.1C188.6,96,188.8,96,189.1,96 M182.3,92.9c0.5,0.4,1.1,0.5,2,0.5
			c0.5,0,1-0.1,1.4-0.3c0.4-0.2,0.7-0.4,1-0.8c0.2-0.3,0.3-0.7,0.3-1.1c0-0.4-0.1-0.7-0.3-1c-0.2-0.3-0.4-0.5-0.8-0.6
			c-0.3-0.1-0.9-0.3-1.7-0.5c-0.6-0.2-0.9-0.2-1-0.3c-0.2-0.1-0.3-0.2-0.4-0.3c-0.1-0.1-0.1-0.3-0.1-0.4c0-0.2,0.1-0.4,0.3-0.6
			c0.2-0.2,0.6-0.3,1.1-0.3c0.4,0,0.8,0.1,1,0.3c0.2,0.2,0.4,0.5,0.4,0.8l1.1-0.2c-0.1-0.4-0.2-0.8-0.4-1c-0.2-0.3-0.5-0.5-0.9-0.6
			c-0.4-0.2-0.9-0.2-1.4-0.2c-0.4,0-0.7,0-1,0.1c-0.3,0.1-0.5,0.2-0.7,0.3c-0.2,0.2-0.4,0.4-0.6,0.6c-0.1,0.3-0.2,0.5-0.2,0.8
			c0,0.3,0.1,0.6,0.3,0.9c0.2,0.3,0.4,0.5,0.7,0.6c0.3,0.2,0.9,0.3,1.7,0.6c0.6,0.2,1,0.3,1.2,0.4c0.2,0.1,0.3,0.4,0.3,0.6
			c0,0.3-0.1,0.5-0.4,0.8c-0.3,0.2-0.6,0.3-1.2,0.3c-0.5,0-0.9-0.1-1.2-0.4c-0.3-0.2-0.5-0.6-0.5-1l-1.1,0.2
			C181.6,92,181.8,92.5,182.3,92.9 M172.5,96c0.4,0,0.7-0.1,0.9-0.3c0.3-0.2,0.5-0.5,0.7-0.8c0.2-0.3,0.4-0.8,0.6-1.5l2.6-6.9h-1.1
			l-1.4,3.9c-0.2,0.5-0.3,1-0.5,1.5c-0.1-0.5-0.3-1.1-0.5-1.6l-1.4-3.9h-1.2l2.6,6.8c0,0.1-0.1,0.2-0.1,0.3
			c-0.2,0.5-0.3,0.7-0.3,0.9c-0.1,0.2-0.2,0.3-0.4,0.4c-0.2,0.1-0.4,0.1-0.6,0.1c-0.2,0-0.4,0-0.7-0.1l0.1,1.1
			C172,96,172.2,96,172.5,96 M170.1,92.3c-0.2,0-0.3,0-0.4-0.1s-0.2-0.1-0.2-0.2c0-0.1-0.1-0.3-0.1-0.6v-3.9h1.1v-0.9h-1.1v-2.4
			l-1.1,0.7v1.7h-0.8v0.9h0.8v3.9c0,0.7,0,1.1,0.1,1.3c0.1,0.2,0.3,0.4,0.5,0.5c0.2,0.1,0.6,0.2,1,0.2c0.3,0,0.5,0,0.9-0.1l-0.2-1
			C170.4,92.3,170.3,92.3,170.1,92.3 M166.4,86.6h-1.1v6.7h1.1V86.6z M166.4,84h-1.1v1.3h1.1V84z M162.6,92.1
			c-0.3,0.3-0.7,0.4-1.1,0.4c-0.6,0-1-0.2-1.4-0.6c-0.3-0.4-0.5-1.1-0.5-2c0-0.9,0.2-1.5,0.5-2c0.4-0.4,0.8-0.6,1.4-0.6
			c0.4,0,0.7,0.1,1,0.3c0.3,0.2,0.5,0.6,0.6,1l1.1-0.2c-0.1-0.7-0.4-1.2-0.9-1.6c-0.5-0.4-1.1-0.6-1.8-0.6c-0.6,0-1.1,0.1-1.6,0.4
			c-0.5,0.3-0.9,0.7-1.1,1.2s-0.4,1.2-0.4,1.9c0,1.1,0.3,2,0.8,2.6c0.6,0.6,1.3,0.9,2.2,0.9c0.7,0,1.4-0.2,1.9-0.7
			c0.5-0.4,0.8-1,0.9-1.8l-1.1-0.1C163.1,91.4,162.9,91.8,162.6,92.1 M157,86.6h-1.1v6.7h1.1V86.6z M157,84h-1.1v1.3h1.1V84z
			 M152.7,93.3v-3.5c0-0.5,0.1-0.9,0.2-1.3c0.1-0.3,0.2-0.5,0.4-0.6c0.2-0.1,0.4-0.2,0.7-0.2c0.3,0,0.6,0.1,0.8,0.2l0.4-1.1
			c-0.4-0.2-0.8-0.4-1.2-0.4c-0.3,0-0.5,0.1-0.7,0.2s-0.5,0.5-0.7,0.9v-1h-1v6.7H152.7z M149.9,92.3c-0.2,0-0.3,0-0.4-0.1
			s-0.2-0.1-0.2-0.2c0-0.1-0.1-0.3-0.1-0.6v-3.9h1.1v-0.9h-1.1v-2.4l-1.1,0.7v1.7h-0.8v0.9h0.8v3.9c0,0.7,0,1.1,0.1,1.3
			c0.1,0.2,0.3,0.4,0.5,0.5c0.2,0.1,0.6,0.2,1,0.2c0.3,0,0.5,0,0.9-0.1l-0.2-1C150.2,92.3,150.1,92.3,149.9,92.3 M145.3,92.1
			c-0.3,0.3-0.7,0.4-1.1,0.4c-0.6,0-1-0.2-1.4-0.6c-0.3-0.4-0.5-1.1-0.5-2c0-0.9,0.2-1.5,0.5-2c0.4-0.4,0.8-0.6,1.4-0.6
			c0.4,0,0.7,0.1,1,0.3c0.3,0.2,0.5,0.6,0.6,1l1.1-0.2c-0.1-0.7-0.4-1.2-0.9-1.6c-0.5-0.4-1.1-0.6-1.8-0.6c-0.6,0-1.1,0.1-1.6,0.4
			c-0.5,0.3-0.9,0.7-1.1,1.2s-0.4,1.2-0.4,1.9c0,1.1,0.3,2,0.8,2.6c0.6,0.6,1.3,0.9,2.2,0.9c0.7,0,1.4-0.2,1.9-0.7
			c0.5-0.4,0.8-1,0.9-1.8l-1.1-0.1C145.8,91.4,145.6,91.8,145.3,92.1 M135.7,87.9c0.4-0.4,0.8-0.5,1.3-0.5c0.6,0,1.1,0.2,1.4,0.7
			c0.2,0.3,0.4,0.7,0.4,1.3h-3.8C135.1,88.7,135.3,88.2,135.7,87.9 M138.1,92.2c-0.3,0.2-0.7,0.3-1.1,0.3c-0.6,0-1-0.2-1.4-0.6
			c-0.4-0.4-0.6-1-0.6-1.7h5c0-0.1,0-0.2,0-0.3c0-1.1-0.3-2-0.9-2.6c-0.6-0.6-1.3-0.9-2.2-0.9c-0.9,0-1.7,0.3-2.3,0.9
			s-0.9,1.5-0.9,2.6c0,1.1,0.3,1.9,0.9,2.6c0.6,0.6,1.4,0.9,2.3,0.9c0.8,0,1.4-0.2,1.9-0.6c0.5-0.4,0.8-0.9,1-1.6l-1.2-0.1
			C138.7,91.6,138.4,92,138.1,92.2 M132.4,84h-1.1v9.3h1.1V84z M125.5,87.9c0.4-0.4,0.8-0.5,1.3-0.5c0.6,0,1.1,0.2,1.4,0.7
			c0.2,0.3,0.4,0.7,0.4,1.3H125C125,88.7,125.2,88.2,125.5,87.9 M128,92.2c-0.3,0.2-0.7,0.3-1.1,0.3c-0.6,0-1-0.2-1.4-0.6
			c-0.4-0.4-0.6-1-0.6-1.7h5c0-0.1,0-0.2,0-0.3c0-1.1-0.3-2-0.9-2.6c-0.6-0.6-1.3-0.9-2.2-0.9c-0.9,0-1.7,0.3-2.3,0.9
			s-0.9,1.5-0.9,2.6c0,1.1,0.3,1.9,0.9,2.6c0.6,0.6,1.4,0.9,2.3,0.9c0.8,0,1.4-0.2,1.9-0.6c0.5-0.4,0.8-0.9,1-1.6l-1.2-0.1
			C128.5,91.6,128.3,92,128,92.2 M114.7,87.9c0.4-0.4,0.8-0.5,1.3-0.5c0.6,0,1.1,0.2,1.4,0.7c0.2,0.3,0.4,0.7,0.4,1.3h-3.8
			C114.2,88.7,114.3,88.2,114.7,87.9 M117.2,92.2c-0.3,0.2-0.7,0.3-1.1,0.3c-0.6,0-1-0.2-1.4-0.6c-0.4-0.4-0.6-1-0.6-1.7h5
			c0-0.1,0-0.2,0-0.3c0-1.1-0.3-2-0.9-2.6c-0.6-0.6-1.3-0.9-2.2-0.9c-0.9,0-1.7,0.3-2.3,0.9s-0.9,1.5-0.9,2.6c0,1.1,0.3,1.9,0.9,2.6
			c0.6,0.6,1.4,0.9,2.3,0.9c0.8,0,1.4-0.2,1.9-0.6c0.5-0.4,0.8-0.9,1-1.6l-1.2-0.1C117.7,91.6,117.5,92,117.2,92.2 M107.2,93.3v-3.7
			c0-0.5,0.1-0.9,0.2-1.2c0.1-0.3,0.3-0.5,0.6-0.7c0.3-0.2,0.6-0.3,1-0.3c0.5,0,0.8,0.1,1.1,0.4c0.2,0.3,0.4,0.7,0.4,1.2v4.3h1.1V89
			c0-0.7-0.1-1.2-0.2-1.5c-0.2-0.3-0.4-0.6-0.8-0.8c-0.4-0.2-0.8-0.3-1.3-0.3c-0.8,0-1.5,0.3-2,0.9V84H106v9.3H107.2z M104.4,92.3
			c-0.2,0-0.3,0-0.4-0.1c-0.1-0.1-0.2-0.1-0.2-0.2s-0.1-0.3-0.1-0.6v-3.9h1.1v-0.9h-1.1v-2.4l-1.1,0.7v1.7h-0.8v0.9h0.8v3.9
			c0,0.7,0,1.1,0.1,1.3c0.1,0.2,0.3,0.4,0.5,0.5c0.2,0.1,0.6,0.2,1,0.2c0.3,0,0.5,0,0.9-0.1l-0.2-1
			C104.7,92.3,104.5,92.3,104.4,92.3 M93,87.9c0.4-0.4,0.8-0.5,1.3-0.5c0.6,0,1.1,0.2,1.4,0.7c0.2,0.3,0.4,0.7,0.4,1.3h-3.8
			C92.5,88.7,92.7,88.2,93,87.9 M95.5,92.2c-0.3,0.2-0.7,0.3-1.1,0.3c-0.6,0-1-0.2-1.4-0.6c-0.4-0.4-0.6-1-0.6-1.7h5
			c0-0.1,0-0.2,0-0.3c0-1.1-0.3-2-0.9-2.6c-0.6-0.6-1.3-0.9-2.2-0.9c-0.9,0-1.7,0.3-2.3,0.9c-0.6,0.6-0.9,1.5-0.9,2.6
			c0,1.1,0.3,1.9,0.9,2.6c0.6,0.6,1.4,0.9,2.3,0.9c0.8,0,1.4-0.2,1.9-0.6c0.5-0.4,0.8-0.9,1-1.6l-1.2-0.1C96,91.6,95.8,92,95.5,92.2
			 M85.6,88c0.3-0.4,0.8-0.6,1.3-0.6c0.5,0,1,0.2,1.3,0.6c0.4,0.4,0.5,1.1,0.5,2c0,0.8-0.2,1.5-0.5,1.9c-0.3,0.4-0.8,0.6-1.3,0.6
			c-0.5,0-0.9-0.2-1.3-0.6c-0.4-0.4-0.5-1.1-0.5-1.9C85.1,89,85.3,88.4,85.6,88 M89.8,93.3V84h-1.1v3.3c-0.2-0.3-0.5-0.5-0.8-0.7
			c-0.3-0.2-0.7-0.3-1.1-0.3c-0.6,0-1.1,0.1-1.5,0.4c-0.4,0.3-0.8,0.7-1,1.3c-0.2,0.5-0.3,1.2-0.3,1.8c0,0.7,0.1,1.3,0.4,1.8
			c0.2,0.5,0.6,0.9,1,1.2c0.4,0.3,0.9,0.4,1.5,0.4c0.8,0,1.5-0.3,1.9-1v0.9H89.8z M81.4,90.3c0,0.5-0.1,0.9-0.2,1.1
			c-0.2,0.3-0.4,0.6-0.8,0.8c-0.3,0.2-0.7,0.3-1.2,0.3c-0.4,0-0.8-0.1-1-0.3c-0.2-0.2-0.3-0.5-0.3-0.8c0-0.2,0.1-0.4,0.2-0.5
			c0.1-0.2,0.3-0.3,0.4-0.4c0.2-0.1,0.5-0.2,1-0.2c0.8-0.1,1.5-0.3,1.9-0.4V90.3z M81.7,93.3h1.2c-0.1-0.3-0.2-0.5-0.3-0.8
			c0-0.3-0.1-1-0.1-2V89c0-0.5,0-0.9-0.1-1.1c-0.1-0.3-0.2-0.6-0.4-0.8c-0.2-0.2-0.4-0.4-0.8-0.5c-0.4-0.1-0.8-0.2-1.4-0.2
			c-0.6,0-1.1,0.1-1.5,0.2c-0.4,0.2-0.8,0.4-1,0.7c-0.2,0.3-0.4,0.7-0.5,1.2l1.1,0.2c0.1-0.5,0.3-0.8,0.6-1c0.3-0.2,0.7-0.3,1.2-0.3
			c0.6,0,1,0.1,1.3,0.4c0.2,0.2,0.3,0.5,0.3,1c0,0,0,0.1,0,0.3c-0.4,0.2-1.1,0.3-2,0.4c-0.5,0.1-0.8,0.1-1,0.2
			c-0.3,0.1-0.6,0.2-0.8,0.4c-0.2,0.2-0.4,0.4-0.6,0.7c-0.2,0.3-0.2,0.6-0.2,0.9c0,0.6,0.2,1,0.6,1.4c0.4,0.4,1,0.5,1.7,0.5
			c0.4,0,0.9-0.1,1.3-0.2c0.4-0.1,0.8-0.4,1.2-0.8C81.5,92.8,81.6,93.1,81.7,93.3 M73.9,93.3v-3.5c0-0.5,0.1-0.9,0.2-1.3
			c0.1-0.3,0.2-0.5,0.4-0.6c0.2-0.1,0.4-0.2,0.7-0.2c0.3,0,0.6,0.1,0.8,0.2l0.4-1.1c-0.4-0.2-0.8-0.4-1.2-0.4
			c-0.3,0-0.5,0.1-0.7,0.2s-0.5,0.5-0.7,0.9v-1h-1v6.7H73.9z M66.8,88c0.4-0.4,0.8-0.6,1.3-0.6c0.5,0,1,0.2,1.3,0.6
			c0.4,0.4,0.5,1,0.5,1.9c0,0.9-0.2,1.5-0.5,1.9c-0.4,0.4-0.8,0.6-1.3,0.6c-0.5,0-1-0.2-1.3-0.6c-0.4-0.4-0.5-1.1-0.5-1.9
			C66.3,89,66.5,88.4,66.8,88 M66.1,95.5c0.5,0.4,1.1,0.5,1.9,0.5c0.7,0,1.2-0.1,1.7-0.4c0.5-0.3,0.8-0.6,1-1
			c0.2-0.4,0.3-1.2,0.3-2.2v-5.8H70v0.8c-0.5-0.6-1.2-1-2-1c-0.6,0-1.1,0.1-1.6,0.4s-0.8,0.7-1,1.3c-0.2,0.5-0.3,1.1-0.3,1.8
			c0,0.9,0.3,1.7,0.8,2.4c0.5,0.7,1.2,1,2.2,1c0.7,0,1.4-0.3,1.9-0.9c0,0.7,0,1.2-0.1,1.5c-0.1,0.4-0.3,0.7-0.6,0.9
			c-0.3,0.2-0.7,0.3-1.2,0.3c-0.5,0-0.9-0.1-1.2-0.3c-0.2-0.2-0.3-0.4-0.4-0.7l-1.1-0.2C65.3,94.6,65.6,95.1,66.1,95.5 M59.9,88
			c0.4-0.5,0.8-0.7,1.3-0.7c0.5,0,0.9,0.2,1.3,0.6c0.4,0.4,0.5,1.1,0.5,1.9c0,0.9-0.2,1.6-0.5,2c-0.4,0.4-0.8,0.6-1.3,0.6
			c-0.5,0-0.9-0.2-1.3-0.6c-0.4-0.4-0.5-1.1-0.5-1.9C59.4,89.1,59.5,88.4,59.9,88 M59.5,95.9v-3.3c0.2,0.2,0.4,0.4,0.7,0.6
			c0.3,0.2,0.6,0.2,1,0.2c0.5,0,1-0.1,1.5-0.4c0.5-0.3,0.8-0.7,1.1-1.3c0.2-0.6,0.4-1.2,0.4-1.9c0-0.6-0.1-1.2-0.3-1.8
			c-0.2-0.5-0.6-1-1-1.3c-0.4-0.3-0.9-0.4-1.5-0.4c-0.4,0-0.8,0.1-1.1,0.3c-0.3,0.2-0.6,0.4-0.8,0.8v-0.9h-1v9.3H59.5z M56.5,93.3
			v-6.7h-1.1v3.6c0,0.6-0.1,1-0.2,1.3c-0.1,0.3-0.3,0.5-0.6,0.7c-0.3,0.2-0.6,0.3-1,0.3s-0.6-0.1-0.9-0.3c-0.2-0.2-0.4-0.4-0.5-0.7
			c0-0.2-0.1-0.6-0.1-1.2v-3.7h-1.1v4.2c0,0.5,0,0.8,0.1,1.1c0.1,0.3,0.2,0.6,0.4,0.8c0.2,0.2,0.4,0.4,0.8,0.6
			c0.3,0.2,0.7,0.2,1.1,0.2c0.9,0,1.6-0.4,2.1-1.1v1H56.5z M41.7,87.9c0.4-0.4,0.8-0.5,1.3-0.5c0.6,0,1.1,0.2,1.4,0.7
			c0.2,0.3,0.4,0.7,0.4,1.3h-3.8C41.1,88.7,41.3,88.2,41.7,87.9 M44.2,92.2c-0.3,0.2-0.7,0.3-1.1,0.3c-0.6,0-1-0.2-1.4-0.6
			c-0.4-0.4-0.6-1-0.6-1.7h5c0-0.1,0-0.2,0-0.3c0-1.1-0.3-2-0.9-2.6c-0.6-0.6-1.3-0.9-2.2-0.9c-0.9,0-1.7,0.3-2.3,0.9
			s-0.9,1.5-0.9,2.6c0,1.1,0.3,1.9,0.9,2.6c0.6,0.6,1.4,0.9,2.3,0.9c0.8,0,1.4-0.2,1.9-0.6c0.5-0.4,0.8-0.9,1-1.6l-1.2-0.1
			C44.7,91.6,44.5,92,44.2,92.2 M33.3,93.3l1.4-5.2l0.3,1.1l1.1,4h1.2l2.1-6.7h-1.1L37,90.5l-0.4,1.3l-0.3-1.3l-1-3.9h-1.2L33,90.5
			c-0.2,0.9-0.3,1.3-0.3,1.4l-0.4-1.4l-1.1-3.9H30l2.1,6.7H33.3z"/>
		<path class="st0" d="M293.8,73.4c0.5,0.4,1.1,0.5,2,0.5c0.5,0,1-0.1,1.4-0.3c0.4-0.2,0.7-0.4,1-0.8c0.2-0.3,0.3-0.7,0.3-1.1
			c0-0.4-0.1-0.7-0.3-1c-0.2-0.3-0.4-0.5-0.8-0.6c-0.3-0.1-0.9-0.3-1.7-0.5c-0.6-0.2-0.9-0.2-1-0.3c-0.2-0.1-0.3-0.2-0.4-0.3
			c-0.1-0.1-0.1-0.3-0.1-0.4c0-0.2,0.1-0.4,0.3-0.6c0.2-0.2,0.6-0.3,1.1-0.3c0.4,0,0.8,0.1,1,0.3c0.2,0.2,0.4,0.5,0.4,0.8l1.1-0.2
			c-0.1-0.4-0.2-0.8-0.4-1c-0.2-0.3-0.5-0.5-0.9-0.6s-0.9-0.2-1.4-0.2c-0.4,0-0.7,0-1,0.1c-0.3,0.1-0.5,0.2-0.7,0.3
			c-0.2,0.2-0.4,0.4-0.6,0.6c-0.1,0.3-0.2,0.5-0.2,0.8c0,0.3,0.1,0.6,0.2,0.9c0.2,0.3,0.4,0.5,0.7,0.6c0.3,0.2,0.9,0.3,1.7,0.6
			c0.6,0.2,1,0.3,1.2,0.4c0.2,0.1,0.3,0.4,0.3,0.6c0,0.3-0.1,0.5-0.4,0.8c-0.3,0.2-0.6,0.3-1.2,0.3c-0.5,0-0.9-0.1-1.2-0.4
			c-0.3-0.2-0.5-0.6-0.5-1l-1.1,0.2C293.1,72.5,293.4,73,293.8,73.4 M290.5,70.8c0,0.5-0.1,0.9-0.2,1.1c-0.2,0.3-0.4,0.6-0.8,0.8
			c-0.3,0.2-0.7,0.3-1.2,0.3c-0.4,0-0.8-0.1-1-0.3c-0.2-0.2-0.3-0.5-0.3-0.8c0-0.2,0.1-0.4,0.2-0.5c0.1-0.2,0.3-0.3,0.5-0.4
			c0.2-0.1,0.5-0.2,1-0.2c0.8-0.1,1.5-0.3,1.9-0.4V70.8z M290.8,73.8h1.2c-0.1-0.3-0.2-0.5-0.3-0.8c0-0.3-0.1-1-0.1-2v-1.5
			c0-0.5,0-0.9-0.1-1.1c-0.1-0.3-0.2-0.6-0.4-0.8c-0.2-0.2-0.4-0.4-0.8-0.5c-0.4-0.1-0.8-0.2-1.4-0.2c-0.6,0-1.1,0.1-1.5,0.2
			c-0.4,0.2-0.8,0.4-1,0.7c-0.2,0.3-0.4,0.7-0.5,1.2l1.1,0.2c0.1-0.5,0.3-0.8,0.6-1c0.3-0.2,0.7-0.3,1.2-0.3c0.6,0,1,0.1,1.3,0.4
			c0.2,0.2,0.3,0.5,0.3,1c0,0,0,0.1,0,0.3c-0.4,0.2-1.1,0.3-2,0.4c-0.5,0.1-0.8,0.1-1,0.2c-0.3,0.1-0.6,0.2-0.8,0.4
			c-0.2,0.2-0.4,0.4-0.6,0.7c-0.1,0.3-0.2,0.6-0.2,0.9c0,0.6,0.2,1,0.6,1.4c0.4,0.4,1,0.5,1.7,0.5c0.4,0,0.9-0.1,1.3-0.2
			c0.4-0.1,0.8-0.4,1.2-0.8C290.6,73.3,290.7,73.6,290.8,73.8 M276.8,68.4c0.4-0.4,0.8-0.5,1.3-0.5c0.6,0,1.1,0.2,1.4,0.7
			c0.2,0.3,0.4,0.7,0.4,1.3h-3.8C276.2,69.2,276.4,68.7,276.8,68.4 M279.3,72.7c-0.3,0.2-0.7,0.3-1.1,0.3c-0.6,0-1-0.2-1.4-0.6
			c-0.4-0.4-0.6-1-0.6-1.7h5c0-0.1,0-0.2,0-0.3c0-1.1-0.3-2-0.9-2.6c-0.6-0.6-1.3-0.9-2.2-0.9c-0.9,0-1.7,0.3-2.3,0.9
			c-0.6,0.6-0.9,1.5-0.9,2.6c0,1.1,0.3,1.9,0.9,2.6c0.6,0.6,1.4,0.9,2.3,0.9c0.8,0,1.4-0.2,1.9-0.6c0.5-0.4,0.8-0.9,1-1.6l-1.2-0.1
			C279.8,72.1,279.5,72.5,279.3,72.7 M273.6,64.5h-1.1v9.3h1.1V64.5z M266.8,68.5c0.4-0.4,0.8-0.7,1.3-0.7c0.5,0,0.9,0.2,1.3,0.6
			c0.3,0.4,0.5,1.1,0.5,1.9c0,0.9-0.2,1.5-0.5,1.9c-0.4,0.4-0.8,0.7-1.3,0.7c-0.6,0-1.1-0.3-1.5-0.9c-0.2-0.4-0.3-0.9-0.3-1.8
			C266.3,69.6,266.4,68.9,266.8,68.5 M266.3,73c0.5,0.7,1.1,1,1.9,1c0.8,0,1.5-0.3,2.1-0.9c0.6-0.6,0.9-1.5,0.9-2.7
			c0-0.5-0.1-0.9-0.2-1.4c-0.1-0.4-0.3-0.8-0.6-1.1c-0.2-0.3-0.5-0.5-0.9-0.7c-0.4-0.2-0.8-0.3-1.2-0.3c-0.7,0-1.4,0.3-1.8,0.9v-3.3
			h-1.1v9.3h1.1V73z M262.3,70.8c0,0.5-0.1,0.9-0.2,1.1c-0.2,0.3-0.4,0.6-0.8,0.8c-0.3,0.2-0.7,0.3-1.2,0.3c-0.4,0-0.8-0.1-1-0.3
			c-0.2-0.2-0.3-0.5-0.3-0.8c0-0.2,0.1-0.4,0.2-0.5c0.1-0.2,0.3-0.3,0.5-0.4c0.2-0.1,0.5-0.2,1-0.2c0.8-0.1,1.5-0.3,1.9-0.4V70.8z
			 M262.6,73.8h1.2c-0.1-0.3-0.2-0.5-0.3-0.8c0-0.3-0.1-1-0.1-2v-1.5c0-0.5,0-0.9-0.1-1.1c-0.1-0.3-0.2-0.6-0.4-0.8
			c-0.2-0.2-0.4-0.4-0.8-0.5c-0.4-0.1-0.8-0.2-1.4-0.2c-0.6,0-1.1,0.1-1.5,0.2c-0.4,0.2-0.8,0.4-1,0.7c-0.2,0.3-0.4,0.7-0.5,1.2
			l1.1,0.2c0.1-0.5,0.3-0.8,0.6-1c0.3-0.2,0.7-0.3,1.2-0.3c0.6,0,1,0.1,1.3,0.4c0.2,0.2,0.3,0.5,0.3,1c0,0,0,0.1,0,0.3
			c-0.4,0.2-1.1,0.3-2,0.4c-0.5,0.1-0.8,0.1-1,0.2c-0.3,0.1-0.6,0.2-0.8,0.4c-0.2,0.2-0.4,0.4-0.6,0.7c-0.1,0.3-0.2,0.6-0.2,0.9
			c0,0.6,0.2,1,0.6,1.4c0.4,0.4,1,0.5,1.7,0.5c0.4,0,0.9-0.1,1.3-0.2c0.4-0.1,0.8-0.4,1.2-0.8C262.4,73.3,262.5,73.6,262.6,73.8
			 M252,68.5c0.3-0.4,0.8-0.6,1.3-0.6c0.5,0,1,0.2,1.3,0.6c0.4,0.4,0.5,1.1,0.5,2c0,0.8-0.2,1.5-0.5,1.9c-0.3,0.4-0.8,0.6-1.3,0.6
			c-0.5,0-0.9-0.2-1.3-0.6c-0.4-0.4-0.5-1.1-0.5-1.9C251.5,69.5,251.7,68.9,252,68.5 M256.2,73.8v-9.3h-1.1v3.3
			c-0.2-0.3-0.5-0.5-0.8-0.7c-0.3-0.2-0.7-0.3-1.1-0.3c-0.6,0-1.1,0.1-1.5,0.4c-0.4,0.3-0.8,0.7-1,1.3c-0.2,0.5-0.3,1.2-0.3,1.8
			c0,0.7,0.1,1.3,0.4,1.8c0.2,0.5,0.6,0.9,1,1.2c0.5,0.3,0.9,0.4,1.5,0.4c0.8,0,1.5-0.3,1.9-1v0.9H256.2z M247.6,73.8v-3.5
			c0-0.5,0.1-0.9,0.2-1.3c0.1-0.3,0.2-0.5,0.4-0.6c0.2-0.1,0.4-0.2,0.7-0.2c0.3,0,0.6,0.1,0.8,0.2l0.4-1.1c-0.4-0.2-0.8-0.4-1.2-0.4
			c-0.3,0-0.5,0.1-0.7,0.2s-0.5,0.5-0.7,0.9v-1h-1v6.7H247.6z M240.5,68.5c0.4-0.4,0.9-0.6,1.4-0.6c0.6,0,1,0.2,1.4,0.6
			c0.4,0.4,0.6,1.1,0.6,1.9c0,0.9-0.2,1.5-0.6,2c-0.4,0.4-0.8,0.6-1.4,0.6c-0.6,0-1-0.2-1.4-0.6c-0.4-0.4-0.6-1.1-0.6-1.9
			C240,69.6,240.1,68.9,240.5,68.5 M239.7,73c0.6,0.6,1.3,0.9,2.3,0.9c0.6,0,1.1-0.1,1.6-0.4c0.5-0.3,0.9-0.7,1.1-1.2
			c0.3-0.5,0.4-1.2,0.4-2c0-1.1-0.3-1.9-0.9-2.5c-0.6-0.6-1.3-0.9-2.3-0.9c-0.8,0-1.5,0.2-2.1,0.7c-0.7,0.6-1,1.5-1,2.8
			C238.8,71.6,239.1,72.4,239.7,73 M237,73.8v-5.9h1.3v-0.9H237v-0.6c0-0.4,0.1-0.7,0.2-0.8c0.1-0.1,0.4-0.2,0.7-0.2
			c0.2,0,0.4,0,0.7,0.1l0.2-1c-0.4-0.1-0.7-0.1-1.1-0.1c-0.5,0-0.9,0.1-1.2,0.3c-0.3,0.2-0.5,0.4-0.6,0.7c-0.1,0.2-0.1,0.6-0.1,1
			v0.7h-1v0.9h1v5.9H237z M233.6,73.8v-5.9h1.3v-0.9h-1.3v-0.6c0-0.4,0.1-0.7,0.2-0.8c0.1-0.1,0.4-0.2,0.7-0.2c0.2,0,0.4,0,0.7,0.1
			l0.2-1c-0.4-0.1-0.7-0.1-1.1-0.1c-0.5,0-0.9,0.1-1.2,0.3c-0.3,0.2-0.5,0.4-0.6,0.7c-0.1,0.2-0.1,0.6-0.1,1v0.7h-1v0.9h1v5.9H233.6
			z M229.3,70.8c0,0.5-0.1,0.9-0.2,1.1c-0.2,0.3-0.4,0.6-0.8,0.8c-0.3,0.2-0.7,0.3-1.2,0.3c-0.4,0-0.8-0.1-1-0.3s-0.3-0.5-0.3-0.8
			c0-0.2,0.1-0.4,0.2-0.5s0.3-0.3,0.4-0.4c0.2-0.1,0.5-0.2,1-0.2c0.8-0.1,1.5-0.3,1.9-0.4V70.8z M229.6,73.8h1.2
			c-0.1-0.3-0.2-0.5-0.3-0.8c0-0.3-0.1-1-0.1-2v-1.5c0-0.5,0-0.9-0.1-1.1c-0.1-0.3-0.2-0.6-0.4-0.8c-0.2-0.2-0.4-0.4-0.8-0.5
			c-0.4-0.1-0.8-0.2-1.4-0.2c-0.6,0-1.1,0.1-1.5,0.2c-0.4,0.2-0.8,0.4-1,0.7c-0.2,0.3-0.4,0.7-0.5,1.2l1.1,0.2
			c0.1-0.5,0.3-0.8,0.6-1c0.3-0.2,0.7-0.3,1.2-0.3c0.6,0,1,0.1,1.3,0.4c0.2,0.2,0.3,0.5,0.3,1c0,0,0,0.1,0,0.3
			c-0.4,0.2-1.1,0.3-2,0.4c-0.5,0.1-0.8,0.1-1,0.2c-0.3,0.1-0.6,0.2-0.8,0.4c-0.2,0.2-0.4,0.4-0.6,0.7c-0.2,0.3-0.2,0.6-0.2,0.9
			c0,0.6,0.2,1,0.6,1.4c0.4,0.4,1,0.5,1.7,0.5c0.4,0,0.9-0.1,1.3-0.2c0.4-0.1,0.8-0.4,1.2-0.8C229.4,73.3,229.5,73.6,229.6,73.8
			 M215.3,73.4c0.5,0.4,1.1,0.5,2,0.5c0.5,0,1-0.1,1.4-0.3c0.4-0.2,0.7-0.4,1-0.8c0.2-0.3,0.3-0.7,0.3-1.1c0-0.4-0.1-0.7-0.3-1
			c-0.2-0.3-0.4-0.5-0.8-0.6c-0.3-0.1-0.9-0.3-1.7-0.5c-0.6-0.2-0.9-0.2-1-0.3c-0.2-0.1-0.3-0.2-0.4-0.3c-0.1-0.1-0.1-0.3-0.1-0.4
			c0-0.2,0.1-0.4,0.3-0.6c0.2-0.2,0.6-0.3,1.1-0.3c0.4,0,0.8,0.1,1,0.3c0.2,0.2,0.4,0.5,0.4,0.8l1.1-0.2c-0.1-0.4-0.2-0.8-0.4-1
			c-0.2-0.3-0.5-0.5-0.9-0.6s-0.9-0.2-1.4-0.2c-0.4,0-0.7,0-1,0.1c-0.3,0.1-0.5,0.2-0.7,0.3c-0.2,0.2-0.4,0.4-0.6,0.6
			c-0.1,0.3-0.2,0.5-0.2,0.8c0,0.3,0.1,0.6,0.3,0.9c0.2,0.3,0.4,0.5,0.7,0.6c0.3,0.2,0.9,0.3,1.7,0.6c0.6,0.2,1,0.3,1.2,0.4
			c0.2,0.1,0.3,0.4,0.3,0.6c0,0.3-0.1,0.5-0.4,0.8c-0.3,0.2-0.6,0.3-1.2,0.3c-0.5,0-0.9-0.1-1.2-0.4c-0.3-0.2-0.5-0.6-0.5-1
			l-1.1,0.2C214.5,72.5,214.8,73,215.3,73.4 M209.1,68.4c0.4-0.4,0.8-0.5,1.3-0.5c0.6,0,1.1,0.2,1.4,0.7c0.2,0.3,0.4,0.7,0.4,1.3
			h-3.8C208.5,69.2,208.7,68.7,209.1,68.4 M211.6,72.7c-0.3,0.2-0.7,0.3-1.1,0.3c-0.6,0-1-0.2-1.4-0.6c-0.4-0.4-0.6-1-0.6-1.7h5
			c0-0.1,0-0.2,0-0.3c0-1.1-0.3-2-0.9-2.6c-0.6-0.6-1.3-0.9-2.2-0.9c-0.9,0-1.7,0.3-2.3,0.9s-0.9,1.5-0.9,2.6c0,1.1,0.3,1.9,0.9,2.6
			c0.6,0.6,1.4,0.9,2.3,0.9c0.8,0,1.4-0.2,1.9-0.6c0.5-0.4,0.8-0.9,1-1.6l-1.2-0.1C212.1,72.1,211.9,72.5,211.6,72.7 M206,72.8
			c-0.2,0-0.3,0-0.4-0.1s-0.2-0.1-0.2-0.2c0-0.1-0.1-0.3-0.1-0.6v-3.9h1.1v-0.9h-1.1v-2.4l-1.1,0.7v1.7h-0.8v0.9h0.8v3.9
			c0,0.7,0,1.1,0.1,1.3c0.1,0.2,0.3,0.4,0.5,0.5c0.2,0.1,0.6,0.2,1,0.2c0.3,0,0.5,0,0.9-0.1l-0.2-1C206.3,72.8,206.2,72.8,206,72.8
			 M201.1,70.8c0,0.5-0.1,0.9-0.2,1.1c-0.2,0.3-0.4,0.6-0.8,0.8c-0.3,0.2-0.7,0.3-1.2,0.3c-0.4,0-0.8-0.1-1-0.3
			c-0.2-0.2-0.3-0.5-0.3-0.8c0-0.2,0.1-0.4,0.2-0.5s0.3-0.3,0.5-0.4c0.2-0.1,0.5-0.2,1-0.2c0.8-0.1,1.5-0.3,1.9-0.4V70.8z
			 M201.4,73.8h1.2c-0.1-0.3-0.2-0.5-0.3-0.8c0-0.3-0.1-1-0.1-2v-1.5c0-0.5,0-0.9-0.1-1.1c-0.1-0.3-0.2-0.6-0.4-0.8
			c-0.2-0.2-0.4-0.4-0.8-0.5c-0.4-0.1-0.8-0.2-1.4-0.2c-0.6,0-1.1,0.1-1.5,0.2c-0.4,0.2-0.8,0.4-1,0.7s-0.4,0.7-0.5,1.2l1.1,0.2
			c0.1-0.5,0.3-0.8,0.6-1c0.3-0.2,0.7-0.3,1.2-0.3c0.6,0,1,0.1,1.3,0.4c0.2,0.2,0.3,0.5,0.3,1c0,0,0,0.1,0,0.3
			c-0.4,0.2-1.1,0.3-2,0.4c-0.5,0.1-0.8,0.1-1,0.2c-0.3,0.1-0.6,0.2-0.8,0.4c-0.2,0.2-0.4,0.4-0.6,0.7c-0.2,0.3-0.2,0.6-0.2,0.9
			c0,0.6,0.2,1,0.6,1.4c0.4,0.4,1,0.5,1.7,0.5c0.4,0,0.9-0.1,1.3-0.2c0.4-0.1,0.8-0.4,1.2-0.8C201.2,73.3,201.3,73.6,201.4,73.8
			 M193.6,73.8v-3.5c0-0.5,0.1-0.9,0.2-1.3c0.1-0.3,0.2-0.5,0.4-0.6c0.2-0.1,0.4-0.2,0.7-0.2c0.3,0,0.6,0.1,0.8,0.2l0.4-1.1
			c-0.4-0.2-0.8-0.4-1.2-0.4c-0.3,0-0.5,0.1-0.7,0.2s-0.5,0.5-0.7,0.9v-1h-1v6.7H193.6z M183.2,68.5c0.4-0.5,0.8-0.7,1.3-0.7
			c0.5,0,0.9,0.2,1.3,0.6c0.4,0.4,0.5,1.1,0.5,1.9c0,0.9-0.2,1.6-0.5,2c-0.4,0.4-0.8,0.6-1.3,0.6c-0.5,0-0.9-0.2-1.3-0.6
			c-0.4-0.4-0.5-1.1-0.5-1.9C182.7,69.6,182.9,68.9,183.2,68.5 M182.8,76.4v-3.3c0.2,0.2,0.4,0.4,0.7,0.6c0.3,0.2,0.6,0.2,1,0.2
			c0.5,0,1-0.1,1.5-0.4s0.8-0.7,1.1-1.3c0.2-0.6,0.4-1.2,0.4-1.9c0-0.6-0.1-1.2-0.3-1.8c-0.2-0.5-0.6-1-1-1.3
			c-0.4-0.3-0.9-0.4-1.5-0.4c-0.4,0-0.8,0.1-1.1,0.3c-0.3,0.2-0.6,0.4-0.8,0.8v-0.9h-1v9.3H182.8z M175.9,68.4
			c0.4-0.4,0.8-0.5,1.3-0.5c0.6,0,1.1,0.2,1.4,0.7c0.2,0.3,0.4,0.7,0.4,1.3h-3.8C175.3,69.2,175.5,68.7,175.9,68.4 M178.3,72.7
			c-0.3,0.2-0.7,0.3-1.1,0.3c-0.6,0-1-0.2-1.4-0.6c-0.4-0.4-0.6-1-0.6-1.7h5c0-0.1,0-0.2,0-0.3c0-1.1-0.3-2-0.9-2.6
			c-0.6-0.6-1.3-0.9-2.2-0.9c-0.9,0-1.7,0.3-2.3,0.9s-0.9,1.5-0.9,2.6c0,1.1,0.3,1.9,0.9,2.6c0.6,0.6,1.4,0.9,2.3,0.9
			c0.8,0,1.4-0.2,1.9-0.6c0.5-0.4,0.8-0.9,1-1.6l-1.2-0.1C178.8,72.1,178.6,72.5,178.3,72.7 M168.6,68.4c0.4-0.4,0.8-0.5,1.3-0.5
			c0.6,0,1.1,0.2,1.4,0.7c0.2,0.3,0.4,0.7,0.4,1.3H168C168.1,69.2,168.3,68.7,168.6,68.4 M171.1,72.7c-0.3,0.2-0.7,0.3-1.1,0.3
			c-0.6,0-1-0.2-1.4-0.6c-0.4-0.4-0.6-1-0.6-1.7h5c0-0.1,0-0.2,0-0.3c0-1.1-0.3-2-0.9-2.6c-0.6-0.6-1.3-0.9-2.2-0.9
			c-0.9,0-1.7,0.3-2.3,0.9s-0.9,1.5-0.9,2.6c0,1.1,0.3,1.9,0.9,2.6c0.6,0.6,1.4,0.9,2.3,0.9c0.8,0,1.4-0.2,1.9-0.6
			c0.5-0.4,0.8-0.9,1-1.6l-1.2-0.1C171.6,72.1,171.4,72.5,171.1,72.7 M161.8,73.8v-2.7l0.8-0.8l2.2,3.4h1.4l-2.8-4.2l2.6-2.5h-1.5
			l-2.7,2.7v-5.3h-1.1v9.3H161.8z M151.1,68.5c0.4-0.4,0.9-0.6,1.4-0.6c0.6,0,1,0.2,1.4,0.6c0.4,0.4,0.6,1.1,0.6,1.9
			c0,0.9-0.2,1.5-0.6,2c-0.4,0.4-0.8,0.6-1.4,0.6c-0.6,0-1-0.2-1.4-0.6c-0.4-0.4-0.6-1.1-0.6-1.9C150.6,69.6,150.8,68.9,151.1,68.5
			 M150.3,73c0.6,0.6,1.3,0.9,2.3,0.9c0.6,0,1.1-0.1,1.6-0.4s0.9-0.7,1.1-1.2c0.3-0.5,0.4-1.2,0.4-2c0-1.1-0.3-1.9-0.9-2.5
			c-0.6-0.6-1.3-0.9-2.3-0.9c-0.8,0-1.5,0.2-2.1,0.7c-0.7,0.6-1,1.5-1,2.8C149.4,71.6,149.7,72.4,150.3,73 M148.2,72.8
			c-0.2,0-0.3,0-0.4-0.1s-0.2-0.1-0.2-0.2c0-0.1-0.1-0.3-0.1-0.6v-3.9h1.1v-0.9h-1.1v-2.4l-1.1,0.7v1.7h-0.8v0.9h0.8v3.9
			c0,0.7,0,1.1,0.1,1.3c0.1,0.2,0.3,0.4,0.5,0.5c0.2,0.1,0.6,0.2,1,0.2c0.3,0,0.5,0,0.9-0.1l-0.2-1
			C148.5,72.8,148.3,72.8,148.2,72.8 M136.6,68.5c0.3-0.4,0.8-0.6,1.3-0.6c0.5,0,1,0.2,1.3,0.6c0.4,0.4,0.5,1.1,0.5,2
			c0,0.8-0.2,1.5-0.5,1.9c-0.4,0.4-0.8,0.6-1.3,0.6c-0.5,0-0.9-0.2-1.3-0.6c-0.4-0.4-0.5-1.1-0.5-1.9
			C136.1,69.5,136.3,68.9,136.6,68.5 M140.8,73.8v-9.3h-1.1v3.3c-0.2-0.3-0.5-0.5-0.8-0.7c-0.3-0.2-0.7-0.3-1.1-0.3
			c-0.6,0-1.1,0.1-1.5,0.4c-0.4,0.3-0.8,0.7-1,1.3c-0.2,0.5-0.3,1.2-0.3,1.8c0,0.7,0.1,1.3,0.4,1.8c0.2,0.5,0.6,0.9,1,1.2
			c0.4,0.3,0.9,0.4,1.5,0.4c0.8,0,1.5-0.3,1.9-1v0.9H140.8z M132.2,73.8v-3.5c0-0.5,0.1-0.9,0.2-1.3c0.1-0.3,0.2-0.5,0.4-0.6
			c0.2-0.1,0.4-0.2,0.7-0.2c0.3,0,0.6,0.1,0.8,0.2l0.4-1.1c-0.4-0.2-0.8-0.4-1.2-0.4c-0.3,0-0.5,0.1-0.7,0.2s-0.5,0.5-0.7,0.9v-1h-1
			v6.7H132.2z M128.1,70.8c0,0.5-0.1,0.9-0.2,1.1c-0.2,0.3-0.4,0.6-0.8,0.8c-0.3,0.2-0.7,0.3-1.2,0.3c-0.4,0-0.8-0.1-1-0.3
			s-0.3-0.5-0.3-0.8c0-0.2,0.1-0.4,0.2-0.5c0.1-0.2,0.3-0.3,0.5-0.4c0.2-0.1,0.5-0.2,1-0.2c0.8-0.1,1.5-0.3,1.9-0.4V70.8z
			 M128.4,73.8h1.2c-0.1-0.3-0.2-0.5-0.3-0.8c0-0.3-0.1-1-0.1-2v-1.5c0-0.5,0-0.9-0.1-1.1c-0.1-0.3-0.2-0.6-0.4-0.8
			c-0.2-0.2-0.4-0.4-0.8-0.5c-0.4-0.1-0.8-0.2-1.4-0.2c-0.6,0-1.1,0.1-1.5,0.2c-0.4,0.2-0.8,0.4-1,0.7c-0.2,0.3-0.4,0.7-0.5,1.2
			l1.1,0.2c0.1-0.5,0.3-0.8,0.6-1c0.3-0.2,0.7-0.3,1.2-0.3c0.6,0,1,0.1,1.3,0.4c0.2,0.2,0.3,0.5,0.3,1c0,0,0,0.1,0,0.3
			c-0.4,0.2-1.1,0.3-2,0.4c-0.5,0.1-0.8,0.1-1,0.2c-0.3,0.1-0.6,0.2-0.8,0.4c-0.2,0.2-0.4,0.4-0.6,0.7c-0.2,0.3-0.2,0.6-0.2,0.9
			c0,0.6,0.2,1,0.6,1.4c0.4,0.4,1,0.5,1.7,0.5c0.4,0,0.9-0.1,1.3-0.2c0.4-0.1,0.8-0.4,1.2-0.8C128.3,73.3,128.3,73.6,128.4,73.8
			 M117.7,73.8v-3.7c0-0.5,0.1-0.9,0.2-1.2c0.1-0.3,0.3-0.5,0.6-0.7c0.3-0.2,0.6-0.3,1-0.3c0.5,0,0.8,0.1,1.1,0.4
			c0.2,0.3,0.4,0.7,0.4,1.2v4.3h1.1v-4.3c0-0.7-0.1-1.2-0.2-1.5c-0.2-0.3-0.4-0.6-0.8-0.8c-0.4-0.2-0.8-0.3-1.3-0.3
			c-0.8,0-1.5,0.3-2,0.9v-3.3h-1.1v9.3H117.7z M107,68.5c0.4-0.4,0.8-0.6,1.3-0.6c0.5,0,1,0.2,1.3,0.6c0.4,0.4,0.5,1,0.5,1.9
			c0,0.9-0.2,1.5-0.5,1.9c-0.4,0.4-0.8,0.6-1.3,0.6c-0.5,0-1-0.2-1.3-0.6c-0.4-0.4-0.5-1.1-0.5-1.9C106.5,69.5,106.7,68.9,107,68.5
			 M106.3,76c0.5,0.4,1.1,0.5,1.9,0.5c0.7,0,1.2-0.1,1.7-0.4s0.8-0.6,1-1c0.2-0.4,0.3-1.2,0.3-2.2v-5.8h-1.1v0.8c-0.5-0.6-1.2-1-2-1
			c-0.6,0-1.1,0.1-1.6,0.4c-0.4,0.3-0.8,0.7-1,1.3c-0.2,0.5-0.3,1.1-0.3,1.8c0,0.9,0.3,1.7,0.8,2.4c0.5,0.7,1.2,1,2.2,1
			c0.7,0,1.4-0.3,1.9-0.9c0,0.7,0,1.2-0.1,1.5c-0.1,0.4-0.3,0.7-0.6,0.9c-0.3,0.2-0.7,0.3-1.2,0.3c-0.5,0-0.9-0.1-1.2-0.3
			c-0.2-0.2-0.3-0.4-0.4-0.7l-1.1-0.2C105.5,75.1,105.8,75.6,106.3,76 M99.7,73.8v-3.7c0-0.9,0.2-1.4,0.5-1.8
			c0.4-0.3,0.8-0.5,1.3-0.5c0.3,0,0.6,0.1,0.8,0.2c0.2,0.1,0.4,0.3,0.5,0.6c0.1,0.2,0.1,0.6,0.1,1v4.1h1.1v-4.1c0-0.5,0-0.9-0.1-1.1
			c-0.1-0.3-0.2-0.6-0.4-0.8s-0.4-0.4-0.8-0.6c-0.3-0.1-0.7-0.2-1.1-0.2c-0.9,0-1.7,0.4-2.1,1.1v-1h-1v6.7H99.7z M96.8,67.1h-1.1
			v6.7h1.1V67.1z M96.8,64.5h-1.1v1.3h1.1V64.5z M90.3,73.8v-2.7l0.8-0.8l2.2,3.4h1.4l-2.8-4.2l2.6-2.5H93l-2.7,2.7v-5.3h-1.1v9.3
			H90.3z M85.9,73.8v-3.5c0-0.5,0.1-0.9,0.2-1.3c0.1-0.3,0.2-0.5,0.4-0.6c0.2-0.1,0.4-0.2,0.7-0.2c0.3,0,0.6,0.1,0.8,0.2l0.4-1.1
			c-0.4-0.2-0.8-0.4-1.2-0.4c-0.3,0-0.5,0.1-0.7,0.2s-0.5,0.5-0.7,0.9v-1h-1v6.7H85.9z M78.9,68.5c0.4-0.4,0.8-0.6,1.4-0.6
			c0.6,0,1,0.2,1.4,0.6c0.4,0.4,0.6,1.1,0.6,1.9c0,0.9-0.2,1.5-0.6,2c-0.4,0.4-0.8,0.6-1.4,0.6c-0.6,0-1-0.2-1.4-0.6
			c-0.4-0.4-0.6-1.1-0.6-1.9C78.3,69.6,78.5,68.9,78.9,68.5 M78,73c0.6,0.6,1.3,0.9,2.3,0.9c0.6,0,1.1-0.1,1.6-0.4
			c0.5-0.3,0.9-0.7,1.1-1.2c0.3-0.5,0.4-1.2,0.4-2c0-1.1-0.3-1.9-0.9-2.5c-0.6-0.6-1.3-0.9-2.3-0.9c-0.8,0-1.5,0.2-2.1,0.7
			c-0.7,0.6-1,1.5-1,2.8C77.1,71.6,77.4,72.4,78,73 M70.6,73.8l1.4-5.2l0.3,1.1l1.1,4h1.2l2.1-6.7h-1.1L74.3,71L74,72.3L73.6,71
			l-1-3.9h-1.2L70.4,71c-0.2,0.9-0.3,1.3-0.3,1.4l-0.4-1.4l-1.1-3.9h-1.2l2.1,6.7H70.6z M58.8,68.4c0.4-0.4,0.8-0.5,1.3-0.5
			c0.6,0,1.1,0.2,1.4,0.7c0.2,0.3,0.4,0.7,0.4,1.3h-3.8C58.2,69.2,58.4,68.7,58.8,68.4 M61.2,72.7C61,72.9,60.6,73,60.2,73
			c-0.6,0-1-0.2-1.4-0.6c-0.4-0.4-0.6-1-0.6-1.7h5c0-0.1,0-0.2,0-0.3c0-1.1-0.3-2-0.9-2.6c-0.6-0.6-1.3-0.9-2.2-0.9
			c-0.9,0-1.7,0.3-2.3,0.9c-0.6,0.6-0.9,1.5-0.9,2.6c0,1.1,0.3,1.9,0.9,2.6c0.6,0.6,1.4,0.9,2.3,0.9c0.8,0,1.4-0.2,1.9-0.6
			c0.5-0.4,0.8-0.9,1-1.6L62,71.6C61.8,72.1,61.5,72.5,61.2,72.7 M54.1,73.8v-3.5c0-0.5,0.1-0.9,0.2-1.3c0.1-0.3,0.2-0.5,0.4-0.6
			c0.2-0.1,0.4-0.2,0.7-0.2c0.3,0,0.6,0.1,0.8,0.2l0.4-1.1c-0.4-0.2-0.8-0.4-1.2-0.4c-0.3,0-0.5,0.1-0.7,0.2s-0.5,0.5-0.7,0.9v-1h-1
			v6.7H54.1z M50.6,65.7c0,0.4-0.1,0.6-0.2,0.8c-0.1,0.2-0.3,0.3-0.5,0.4l0.3,0.5c0.4-0.2,0.7-0.4,0.9-0.8c0.1-0.2,0.2-0.7,0.2-1.2
			v-1h-1.2v1.3H50.6z M44.3,68.4c0.4-0.4,0.8-0.5,1.3-0.5c0.6,0,1.1,0.2,1.4,0.7c0.2,0.3,0.4,0.7,0.4,1.3h-3.8
			C43.8,69.2,44,68.7,44.3,68.4 M46.8,72.7c-0.3,0.2-0.7,0.3-1.1,0.3c-0.6,0-1-0.2-1.4-0.6c-0.4-0.4-0.6-1-0.6-1.7h5
			c0-0.1,0-0.2,0-0.3c0-1.1-0.3-2-0.9-2.6c-0.6-0.6-1.3-0.9-2.2-0.9c-0.9,0-1.7,0.3-2.3,0.9s-0.9,1.5-0.9,2.6c0,1.1,0.3,1.9,0.9,2.6
			c0.6,0.6,1.4,0.9,2.3,0.9c0.8,0,1.4-0.2,1.9-0.6c0.5-0.4,0.8-0.9,1-1.6l-1.2-0.1C47.3,72.1,47.1,72.5,46.8,72.7 M33.9,73.8l2-7.1
			c0.1-0.3,0.2-0.7,0.3-1.1c0,0.1,0.1,0.5,0.3,1.1l2,7.1h1.2l2.6-9.3h-1.2l-1.5,6c-0.2,0.8-0.3,1.4-0.5,2c-0.1-1-0.4-2.1-0.7-3.3
			l-1.3-4.7h-1.5l-1.8,6.3c0,0.2-0.2,0.7-0.4,1.7c-0.1-0.6-0.2-1.3-0.4-1.9l-1.4-6.1h-1.3l2.5,9.3H33.9z"/>
		<path class="st0" d="M146.6,38c0,2,1.6,2.6,3,2.8c1.5,0.3,2,0.4,2,0.9s-0.5,0.7-1.2,0.7c-1.3,0-2.2-0.4-2.8-1.2l-1.4,1.8
			c0.8,1,2.3,1.5,4,1.5c2.4,0,3.9-0.9,3.9-2.9c0-1.9-1.3-2.5-2.9-2.8c-1.6-0.3-2.1-0.5-2.1-0.9c0-0.4,0.4-0.6,1.2-0.6
			c1,0,1.9,0.4,2.4,0.9l1.3-1.7c-0.8-0.8-1.9-1.3-3.6-1.3C148,35.2,146.6,36.2,146.6,38 M138.5,38.9c0.2-1.1,1-1.7,2.1-1.7
			c1.2,0,1.8,0.7,1.9,1.7H138.5z M136.1,39.9c0,2.7,1.8,4.7,4.8,4.7c1.7,0,2.8-0.6,3.6-1.2l-1-2c-0.6,0.6-1.5,0.9-2.6,0.9
			c-1.1,0-2.1-0.5-2.4-1.7l0,0h6.6V40c0-2.9-1.7-4.8-4.4-4.8C137.9,35.2,136.1,37.2,136.1,39.9 M127.6,38c0,2,1.6,2.6,3,2.8
			c1.5,0.3,2,0.4,2,0.9s-0.5,0.7-1.2,0.7c-1.3,0-2.2-0.4-2.8-1.2l-1.4,1.8c0.8,1,2.3,1.5,4,1.5c2.4,0,3.9-0.9,3.9-2.9
			c0-1.9-1.3-2.5-2.9-2.8c-1.6-0.3-2.1-0.5-2.1-0.9c0-0.4,0.4-0.6,1.2-0.6c1,0,1.9,0.4,2.4,0.9l1.3-1.7c-0.8-0.8-1.9-1.3-3.6-1.3
			C129,35.2,127.6,36.2,127.6,38 M119.3,38.5c0.3-0.8,1.3-1.2,2.2-1.2c1.1,0,1.6,0.4,1.6,0.9v0.1c0,0.2-0.2,0.3-0.5,0.4l-2.5,0.2
			c-1.7,0.1-2.9,1.2-2.9,2.8c0,1.7,1.3,2.8,3,2.8c1.4,0,2.3-0.7,2.8-1.4v1.2h2.4v-5.6c0-2.5-1.3-3.7-3.9-3.7c-2,0-3.4,0.7-4,2
			L119.3,38.5z M123.1,40.8c0,1-0.8,1.9-2.1,1.9c-0.8,0-1.3-0.4-1.3-1c0-0.5,0.4-0.9,1.1-1l2.2-0.3V40.8z M109.4,38.9
			c0.2-1.1,1-1.7,2.1-1.7s1.8,0.7,1.9,1.7H109.4z M107,39.9c0,2.7,1.8,4.7,4.8,4.7c1.7,0,2.8-0.6,3.6-1.2l-1-2
			c-0.6,0.6-1.5,0.9-2.6,0.9c-1.1,0-2.1-0.5-2.4-1.7l0,0h6.6V40c0-2.9-1.7-4.8-4.4-4.8C108.8,35.2,107,37.2,107,39.9 M103,35.4h-2.3
			v9h2.4v-4.1c0-1.7,0.7-2.6,2.3-2.6c0.4,0,0.7,0,1.1,0.1v-2.6c-0.3-0.1-0.5-0.1-0.9-0.1c-1.3,0-2.1,0.6-2.6,1.7V35.4z M90.8,39.9
			c0,2.9,2,4.7,4.8,4.7c1.5,0,2.7-0.6,3.5-1.3l-1.3-1.9c-0.5,0.5-1.2,0.9-2.1,0.9c-1.3,0-2.4-1-2.4-2.4s1-2.4,2.4-2.4
			c0.9,0,1.6,0.4,2.1,0.9l1.3-1.9c-0.8-0.8-2-1.3-3.4-1.3C92.8,35.2,90.8,37.1,90.8,39.9 M82.9,35.4h-2.3v9H83v-4.3
			c0-1.6,0.6-2.6,2-2.6c1,0,1.6,0.6,1.6,1.9v5H89v-5.6c0-2.3-1.1-3.6-3.2-3.6c-1.3,0-2.3,0.6-2.9,1.5V35.4z M75.7,44.4h2.4v-9h-2.4
			V44.4z M75.4,32.8c0,0.9,0.6,1.5,1.5,1.5s1.5-0.6,1.5-1.5c0-0.9-0.7-1.5-1.5-1.5S75.4,32,75.4,32.8 M61.8,38.9
			c0.2-1.1,1-1.7,2.1-1.7s1.8,0.7,1.9,1.7H61.8z M59.4,39.9c0,2.7,1.8,4.7,4.8,4.7c1.7,0,2.8-0.6,3.6-1.2l-1-2
			c-0.6,0.6-1.5,0.9-2.6,0.9c-1.1,0-2.1-0.5-2.4-1.7l0,0h6.6V40c0-2.9-1.7-4.8-4.4-4.8C61.2,35.2,59.4,37.2,59.4,39.9 M58.3,42
			c-0.6,0.1-1,0.1-1.3,0.1c-0.6,0-0.9-0.2-0.9-0.8v-3.9h2.3v-2H56V33h-2.4v2.4H52v2h1.6v4.2c0,2.1,1,2.8,2.6,2.8
			c0.6,0,1.3-0.1,1.9-0.3V42z M44.4,38.5c0.3-0.8,1.3-1.2,2.3-1.2c1.1,0,1.6,0.4,1.6,0.9v0.1c0,0.2-0.2,0.3-0.5,0.4L45.3,39
			c-1.7,0.1-2.9,1.2-2.9,2.8c0,1.7,1.3,2.8,3,2.8c1.4,0,2.3-0.7,2.8-1.4v1.2h2.4v-5.6c0-2.5-1.3-3.7-3.9-3.7c-2,0-3.4,0.7-4,2
			L44.4,38.5z M48.2,40.8c0,1-0.8,1.9-2.1,1.9c-0.8,0-1.3-0.4-1.3-1c0-0.5,0.4-0.9,1.1-1l2.2-0.3V40.8z M33.9,44.4v-4.2h1.6l2.7,4.2
			h3.1l-3-4.5c1.6-0.6,2.7-2.1,2.7-3.9c0-2.4-1.8-4.2-4.2-4.2h-5.4v12.6H33.9z M38.4,36c0,0.9-0.6,1.7-1.7,1.7h-2.8v-3.3h2.8
			C37.8,34.3,38.4,35.1,38.4,36"/>
		<path class="st1" d="M337.2,57.6H376 M337.2,66.5H376 M337.2,117h89.9 M337.2,127.5h89.9 M337.2,139.2h89.9v34.9h-89.9V139.2z
			 M386.7,42.3h41v29.9h-41V42.3z M438.5,184H327.7V31.5h110.8V184z"/>
		<path class="st2" d="M408,58.2v4.7c0,0.2,0.1,0.3,0.3,0.3c1.3-0.2,2.3-1.1,2.3-2.6c0-1.6-1-2.2-2.2-2.6
			C408.1,57.9,408,58,408,58.2 M406.9,55.6V51c0-0.2-0.1-0.3-0.3-0.3c-1.4,0.3-2.3,1.2-2.3,2.6c0,1.5,1,2.1,2.2,2.6
			C406.7,56,406.9,55.8,406.9,55.6 M406.9,66.1v-1.3c0-0.1-0.1-0.2-0.2-0.3c-1.5-0.2-3.2-1.1-3.8-3.2c0-0.1,0-0.3,0.1-0.3l0.8-0.4
			c0.1-0.1,0.3,0,0.4,0.2c0.4,1.3,1.3,2.1,2.5,2.3c0.2,0,0.3-0.1,0.3-0.3v-5.2c0-0.1-0.1-0.2-0.2-0.2c-1.9-0.6-3.8-1.6-3.8-4.1
			c0-2.3,1.7-3.7,3.7-4c0.1,0,0.2-0.1,0.2-0.3v-1.2c0-0.1,0.1-0.3,0.3-0.3h0.3c0.2,0,0.4,0.2,0.4,0.4v1c0,0.1,0.1,0.2,0.2,0.3
			c1.7,0.2,3.2,1.2,3.8,3.2c0,0.1,0,0.3-0.2,0.3l-0.8,0.3c-0.1,0.1-0.3,0-0.3-0.2c-0.4-1.3-1.3-2-2.4-2.2c-0.2,0-0.3,0.1-0.3,0.3
			v5.1c0,0.1,0.1,0.2,0.2,0.2c2,0.7,3.8,1.6,3.8,4.1c0,2.5-1.7,3.8-3.7,4c-0.1,0-0.2,0.1-0.2,0.3v1.3c0,0.1-0.1,0.3-0.3,0.3h-0.5
			C407,66.3,406.9,66.2,406.9,66.1"/>
		<path class="st2" d="M408,58.2v4.7c0,0.2,0.1,0.3,0.3,0.3c1.3-0.2,2.3-1.1,2.3-2.6c0-1.6-1-2.2-2.2-2.6
			C408.1,57.9,408,58,408,58.2 M406.9,55.6V51c0-0.2-0.1-0.3-0.3-0.3c-1.4,0.3-2.3,1.2-2.3,2.6c0,1.5,1,2.1,2.2,2.6
			C406.7,56,406.9,55.8,406.9,55.6 M406.9,66.1v-1.3c0-0.1-0.1-0.2-0.2-0.3c-1.5-0.2-3.2-1.1-3.8-3.2c0-0.1,0-0.3,0.1-0.3l0.8-0.4
			c0.1-0.1,0.3,0,0.4,0.2c0.4,1.3,1.3,2.1,2.5,2.3c0.2,0,0.3-0.1,0.3-0.3v-5.2c0-0.1-0.1-0.2-0.2-0.2c-1.9-0.6-3.8-1.6-3.8-4.1
			c0-2.3,1.7-3.7,3.7-4c0.1,0,0.2-0.1,0.2-0.3v-1.2c0-0.1,0.1-0.3,0.3-0.3h0.3c0.2,0,0.4,0.2,0.4,0.4v1c0,0.1,0.1,0.2,0.2,0.3
			c1.7,0.2,3.2,1.2,3.8,3.2c0,0.1,0,0.3-0.2,0.3l-0.8,0.3c-0.1,0.1-0.3,0-0.3-0.2c-0.4-1.3-1.3-2-2.4-2.2c-0.2,0-0.3,0.1-0.3,0.3
			v5.1c0,0.1,0.1,0.2,0.2,0.2c2,0.7,3.8,1.6,3.8,4.1c0,2.5-1.7,3.8-3.7,4c-0.1,0-0.2,0.1-0.2,0.3v1.3c0,0.1-0.1,0.3-0.3,0.3h-0.5
			C407,66.3,406.9,66.2,406.9,66.1"/>
	</g>
</g>
</svg>
