<?xml version="1.0" encoding="utf-8"?>
<!-- Generator: Adobe Illustrator 20.1.0, SVG Export Plug-In . SVG Version: 6.00 Build 0)  -->
<svg version="1.1" id="Layer_1" xmlns="http://www.w3.org/2000/svg" xmlns:xlink="http://www.w3.org/1999/xlink" x="0px" y="0px"
	 viewBox="0 0 178 30" style="enable-background:new 0 0 178 30;" xml:space="preserve">
<style type="text/css">
	.st0{clip-path:url(#SVGID_2_);}
	.st1{clip-path:url(#SVGID_4_);fill:none;stroke:#0BA3C8;stroke-width:1.5;}
	.st2{clip-path:url(#SVGID_4_);fill:#0BA3C8;}
</style>
<g>
	<g>
		<defs>
			<rect id="SVGID_1_" width="178" height="30"/>
		</defs>
		<clipPath id="SVGID_2_">
			<use xlink:href="#SVGID_1_"  style="overflow:visible;"/>
		</clipPath>
		<g class="st0">
			<defs>
				<rect id="SVGID_3_" width="178" height="30"/>
			</defs>
			<clipPath id="SVGID_4_">
				<use xlink:href="#SVGID_3_"  style="overflow:visible;"/>
			</clipPath>
			<path class="st1" d="M4.2,0.8c0,0-3.5,0-3.5,3.5v21.5c0,0,0,3.5,3.5,3.5h169.5c0,0,3.5,0,3.5-3.5V4.2c0,0,0-3.5-3.5-3.5H4.2z"/>
			<path class="st2" d="M152.6,14.7c0,1.5,1.3,2,2.3,2.2c1.2,0.3,1.6,0.3,1.6,0.7c0,0.4-0.4,0.5-0.9,0.5c-1,0-1.8-0.4-2.2-0.9
				l-1.1,1.4c0.6,0.8,1.8,1.2,3.1,1.2c1.9,0,3-0.7,3-2.3c0-1.5-1-1.9-2.2-2.2c-1.2-0.3-1.6-0.4-1.6-0.7c0-0.3,0.3-0.5,0.9-0.5
				c0.7,0,1.5,0.3,1.9,0.7l1-1.3c-0.6-0.6-1.5-1-2.8-1C153.7,12.4,152.6,13.2,152.6,14.7 M144.7,9.8v9.8h1.8v-3.3c0-1.2,0.5-2,1.5-2
				c0.8,0,1.3,0.5,1.3,1.5v3.9h1.9v-4.3c0-1.8-0.8-2.8-2.5-2.8c-1.1,0-1.8,0.5-2.2,1.2V9.8H144.7z M138,22.4v-3.8
				c0.5,0.7,1.2,1.2,2.4,1.2c1.7,0,3.2-1.3,3.2-3.7c0-2.4-1.5-3.7-3.2-3.7c-1,0-1.8,0.4-2.3,1.2v-1h-1.8v9.8H138z M139.7,18
				c-1.1,0-1.8-0.7-1.8-1.9c0-1.2,0.8-1.9,1.8-1.9c1,0,1.8,0.7,1.8,1.9C141.6,17.2,140.8,18,139.7,18 M129.8,15
				c0.3-0.7,1-0.9,1.8-0.9c0.8,0,1.2,0.3,1.2,0.7v0.1c0,0.2-0.1,0.3-0.4,0.3l-1.9,0.2c-1.3,0.1-2.2,0.9-2.2,2.2c0,1.3,1,2.2,2.4,2.2
				c1.1,0,1.8-0.5,2.2-1.1v1h1.8v-4.3c0-2-1-2.8-3.1-2.8c-1.5,0-2.7,0.5-3.1,1.6L129.8,15z M132.7,16.8c0,0.8-0.6,1.4-1.6,1.4
				c-0.7,0-1-0.3-1-0.7c0-0.4,0.3-0.7,0.9-0.8l1.7-0.2V16.8z M125,12.6h-1.8v7h1.8v-3.2c0-1.3,0.5-2,1.8-2c0.3,0,0.6,0,0.8,0.1v-2
				c-0.2-0.1-0.4-0.1-0.7-0.1c-1,0-1.6,0.5-2,1.3V12.6z M114.3,16.1c0,2.3,1.4,3.6,3.3,3.6c1,0,1.8-0.4,2.3-1.1V19
				c0,1-0.5,1.8-2.1,1.8c-0.9,0-1.5-0.3-2.1-0.9l-0.9,1.5c0.7,0.7,1.7,1.1,3.1,1.1c2.9,0,3.8-1.7,3.8-3.4v-6.5h-1.8v1
				c-0.4-0.6-1.2-1.1-2.3-1.1C115.8,12.4,114.3,13.7,114.3,16.1 M119.8,16.1c0,1.2-0.8,1.9-1.8,1.9c-1,0-1.8-0.7-1.8-1.9
				c0-1.1,0.8-1.9,1.8-1.9C119.1,14.2,119.8,14.9,119.8,16.1 M107.2,9.8v3.8c-0.5-0.7-1.2-1.2-2.4-1.2c-1.7,0-3.2,1.3-3.2,3.7
				c0,2.4,1.5,3.7,3.2,3.7c1,0,1.8-0.4,2.3-1.2v1h1.8V9.8H107.2z M105.4,14.2c1.1,0,1.8,0.7,1.8,1.9c0,1.2-0.8,1.9-1.8,1.9
				c-1.1,0-1.8-0.7-1.8-1.9C103.6,15,104.4,14.2,105.4,14.2 M95.8,15.3c0.2-0.8,0.8-1.3,1.7-1.3c0.9,0,1.4,0.5,1.5,1.3H95.8z
				 M93.9,16.1c0,2.1,1.4,3.7,3.8,3.7c1.3,0,2.2-0.4,2.8-0.9l-0.8-1.5c-0.5,0.4-1.1,0.7-2,0.7c-0.8,0-1.7-0.4-1.9-1.3l0,0h5.2v-0.5
				c0-2.3-1.3-3.7-3.5-3.7C95.3,12.4,93.9,14,93.9,16.1 M90.8,19.6h1.9V9.8h-1.9V19.6z M87.4,19.6h1.8v-7h-1.8V19.6z M87.1,10.6
				c0,0.7,0.5,1.2,1.2,1.2c0.7,0,1.2-0.5,1.2-1.2c0-0.7-0.5-1.2-1.2-1.2C87.6,9.4,87.1,9.9,87.1,10.6 M81,15c0.3-0.7,1-0.9,1.8-0.9
				c0.8,0,1.2,0.3,1.2,0.7v0.1c0,0.2-0.1,0.3-0.4,0.3l-1.9,0.2c-1.3,0.1-2.2,0.9-2.2,2.2c0,1.3,1,2.2,2.4,2.2c1.1,0,1.8-0.5,2.2-1.1
				v1h1.8v-4.3c0-2-1-2.8-3.1-2.8c-1.5,0-2.7,0.5-3.1,1.6L81,15z M84,16.8c0,0.8-0.6,1.4-1.6,1.4c-0.7,0-1-0.3-1-0.7
				c0-0.4,0.3-0.7,0.9-0.8l1.7-0.2V16.8z M78.6,17.7c-0.5,0.1-0.7,0.1-1,0.1c-0.5,0-0.7-0.2-0.7-0.6v-3h1.8v-1.6h-1.8v-1.9h-1.8v1.9
				h-1.3v1.6h1.3v3.3c0,1.6,0.8,2.2,2.1,2.2c0.5,0,1-0.1,1.5-0.2V17.7z M68.2,15.3c0.2-0.8,0.8-1.3,1.7-1.3c0.9,0,1.4,0.5,1.5,1.3
				H68.2z M66.3,16.1c0,2.1,1.4,3.7,3.8,3.7c1.3,0,2.2-0.4,2.8-0.9l-0.8-1.5c-0.5,0.4-1.1,0.7-2,0.7c-0.8,0-1.7-0.4-1.9-1.3l0,0h5.2
				v-0.5c0-2.3-1.3-3.7-3.5-3.7C67.7,12.4,66.3,14,66.3,16.1 M63.3,9.8v3.8c-0.5-0.7-1.2-1.2-2.4-1.2c-1.7,0-3.2,1.3-3.2,3.7
				c0,2.4,1.5,3.7,3.2,3.7c1,0,1.8-0.4,2.3-1.2v1h1.8V9.8H63.3z M61.5,14.2c1,0,1.8,0.7,1.8,1.9c0,1.2-0.8,1.9-1.8,1.9
				c-1.1,0-1.8-0.7-1.8-1.9C59.7,15,60.4,14.2,61.5,14.2 M45.7,19.6l1.8-4.2l1.8,4.2h1.4l2.8-7h-2l-1.6,4.2l-1.7-4.2h-1.5L45,16.8
				l-1.6-4.2h-2l2.8,7H45.7z M36.2,15.3c0.2-0.8,0.8-1.3,1.7-1.3s1.4,0.5,1.5,1.3H36.2z M34.4,16.1c0,2.1,1.4,3.7,3.8,3.7
				c1.3,0,2.2-0.4,2.8-0.9l-0.8-1.5c-0.5,0.4-1.1,0.7-2,0.7c-0.8,0-1.7-0.4-1.9-1.3l0,0h5.2v-0.5c0-2.3-1.3-3.7-3.5-3.7
				C35.7,12.4,34.4,14,34.4,16.1 M31.3,19.6h1.8v-7h-1.8V19.6z M31.1,10.6c0,0.7,0.5,1.2,1.2,1.2c0.7,0,1.2-0.5,1.2-1.2
				c0-0.7-0.5-1.2-1.2-1.2C31.6,9.4,31.1,9.9,31.1,10.6 M25.7,19.6l4.6-9.8h-2.2l-3.3,7l-3.3-7h-2.2l4.6,9.8H25.7z"/>
		</g>
	</g>
</g>
</svg>
