<?xml version="1.0" encoding="utf-8"?>
<!-- Generator: Adobe Illustrator 20.1.0, SVG Export Plug-In . SVG Version: 6.00 Build 0)  -->
<svg version="1.1" baseProfile="tiny" id="Layer_1" xmlns="http://www.w3.org/2000/svg" xmlns:xlink="http://www.w3.org/1999/xlink"
	 x="0px" y="0px" viewBox="0 0 48 48" xml:space="preserve">
<path fill="#10A3C8" d="M24,0C10.7,0,0,10.7,0,24s10.7,24,24,24s24-10.7,24-24S37.3,0,24,0z M28,40h-8v-2h8V40z M29,37H19v-2h10V37z
	 M29,34H19v-2h10V34z M28.7,31h-9.5L14,22h20L28.7,31z M33.5,21H14.5c-0.3-0.9-0.5-2-0.5-3c0-5.5,4.5-10,10-10s10,4.5,10,10
	C34,19,33.8,20.1,33.5,21z"/>
</svg>
