<?xml version="1.0" encoding="utf-8"?>
<!-- Generator: Adobe Illustrator 20.1.0, SVG Export Plug-In . SVG Version: 6.00 Build 0)  -->
<svg version="1.1" baseProfile="tiny" id="Layer_1" xmlns="http://www.w3.org/2000/svg" xmlns:xlink="http://www.w3.org/1999/xlink"
	 x="0px" y="0px" viewBox="0 0 7.2 7.2" xml:space="preserve">
<path fill="#FCD299" d="M2,0.8c0.5-0.3,1-0.4,1.6-0.4s1.1,0.1,1.6,0.4C5.7,1.1,6.1,1.5,6.4,2c0.3,0.5,0.4,1,0.4,1.6S6.7,4.7,6.4,5.2
	S5.7,6.1,5.2,6.4c-0.5,0.3-1,0.4-1.6,0.4S2.5,6.7,2,6.4C1.5,6.1,1.1,5.7,0.8,5.2s-0.4-1-0.4-1.6S0.5,2.5,0.8,2
	C1.1,1.5,1.5,1.1,2,0.8z"/>
<path fill="#3E3935" d="M4.1,4.2l0.1-2.6c0,0,0-0.1,0-0.1c0,0-0.1,0-0.1,0H3.1c0,0-0.1,0-0.1,0c0,0,0,0,0,0.1l0.1,2.6
	c0,0,0,0.1,0,0.1c0,0,0.1,0,0.1,0H4C4,4.3,4.1,4.3,4.1,4.2C4.1,4.2,4.1,4.2,4.1,4.2z"/>
<path fill="#3E3935" d="M4.1,5.6V4.8c0,0,0-0.1,0-0.1c0,0-0.1,0-0.1,0H3.2c0,0-0.1,0-0.1,0s0,0.1,0,0.1v0.8c0,0,0,0.1,0,0.1
	s0.1,0,0.1,0H4c0,0,0.1,0,0.1,0C4.1,5.7,4.1,5.7,4.1,5.6z"/>
</svg>
