<?xml version="1.0" encoding="utf-8"?>
<!-- Generator: Adobe Illustrator 20.1.0, SVG Export Plug-In . SVG Version: 6.00 Build 0)  -->
<svg version="1.1" baseProfile="tiny" id="Layer_1" xmlns="http://www.w3.org/2000/svg" xmlns:xlink="http://www.w3.org/1999/xlink"
	 x="0px" y="0px" viewBox="0 0 7.2 7.2" xml:space="preserve">
<g>
	<path fill="#10A3C8" d="M6.7,3.6c0,0.2-0.1,0.3-0.2,0.4L3.8,6.7C3.7,6.9,3.6,6.9,3.4,6.9C3.3,6.9,3.1,6.9,3,6.7L2.7,6.4
		C2.6,6.3,2.6,6.2,2.6,6s0.1-0.3,0.2-0.4L4,4.4H1c-0.1,0-0.3-0.1-0.4-0.2C0.5,4.1,0.5,4,0.5,3.9V3.3c0-0.1,0-0.3,0.1-0.4
		C0.7,2.8,0.8,2.8,1,2.8h3L2.7,1.5C2.6,1.4,2.6,1.3,2.6,1.2s0.1-0.3,0.2-0.4L3,0.5c0.1-0.1,0.2-0.2,0.4-0.2c0.1,0,0.3,0.1,0.4,0.2
		l2.8,2.8C6.7,3.3,6.7,3.4,6.7,3.6z"/>
</g>
</svg>
