<?xml version="1.0" encoding="utf-8"?>
<!-- Generator: Adobe Illustrator 20.1.0, SVG Export Plug-In . SVG Version: 6.00 Build 0)  -->
<svg version="1.1" id="Layer_1" xmlns="http://www.w3.org/2000/svg" xmlns:xlink="http://www.w3.org/1999/xlink" x="0px" y="0px"
	 viewBox="0 0 470 295" style="enable-background:new 0 0 470 295;" xml:space="preserve">
<style type="text/css">
	.st0{enable-background:new    ;}
	.st1{clip-path:url(#SVGID_2_);fill:#0BA3C8;}
	.st2{fill:#0BA3C8;}
	.st3{clip-path:url(#SVGID_4_);fill:#0BA3C8;}
	.st4{fill:#FFFFFF;}
	.st5{fill:#5F9C42;}
	.st6{clip-path:url(#SVGID_6_);fill:#3492AA;}
	.st7{fill:#CBC4BC;}
	.st8{fill:#3492AA;}
	.st9{clip-path:url(#SVGID_8_);fill:#0BA3C8;}
	.st10{clip-path:url(#SVGID_10_);fill:#FFFFFF;}
	.st11{clip-path:url(#SVGID_12_);fill:#FFFFFF;}
	.st12{clip-path:url(#SVGID_14_);fill:#FFFFFF;}
	.st13{clip-path:url(#SVGID_16_);fill:#FFFFFF;}
</style>
<g class="st0">
	<path d="M39.5,31.8v2.5h-5.6v2.5h5.6v2.5h-5.6v2.5h5.6v2.5h-8.1V31.8H39.5z"/>
	<path d="M43.9,31.8v12.6h-2.4V31.8H43.9z"/>
</g>
<g class="st0">
	<path d="M50.6,35.2c2.8,0,4.4,1.9,4.4,4.8v0.6h-6.6l0,0c0.3,1.2,1.4,1.7,2.4,1.7c1.1,0,1.9-0.4,2.6-0.9l1,2
		c-0.7,0.6-1.9,1.2-3.6,1.2c-3,0-4.8-2-4.8-4.7C46,37.2,47.8,35.2,50.6,35.2z M52.5,38.9c-0.1-1-0.8-1.7-1.9-1.7s-1.9,0.6-2.1,1.7
		H52.5z"/>
</g>
<g class="st0">
	<path d="M61,35.2c1.4,0,2.6,0.5,3.4,1.3l-1.4,1.9c-0.5-0.5-1.2-0.9-2.1-0.9c-1.4,0-2.4,1-2.4,2.4s1,2.4,2.4,2.4
		c0.9,0,1.6-0.4,2.1-0.9l1.3,1.9c-0.8,0.8-2,1.3-3.5,1.3c-2.8,0-4.8-1.9-4.8-4.7C56.2,37.1,58.2,35.2,61,35.2z"/>
</g>
<g class="st0">
	<path d="M71.4,44.2c-0.7,0.2-1.4,0.3-1.9,0.3c-1.7,0-2.6-0.8-2.6-2.8v-4.2h-1.6v-2h1.6V33h2.4v2.4h2.3v2h-2.3v3.9
		c0,0.6,0.3,0.8,0.9,0.8c0.4,0,0.7,0,1.3-0.1V44.2z"/>
</g>
<g class="st0">
	<path d="M75.7,36.9c0.5-1.1,1.3-1.7,2.6-1.7c0.3,0,0.6,0.1,0.9,0.1v2.6c-0.3-0.1-0.7-0.1-1.1-0.1c-1.6,0-2.3,0.9-2.3,2.6v4.1h-2.4
		v-9h2.3V36.9z"/>
</g>
<g class="st0">
	<path d="M82,31.3c0.9,0,1.5,0.7,1.5,1.5s-0.7,1.5-1.5,1.5s-1.5-0.6-1.5-1.5S81.1,31.3,82,31.3z M83.1,35.4v9h-2.4v-9H83.1z"/>
	<path d="M89.6,35.2c1.4,0,2.6,0.5,3.4,1.3l-1.4,1.9c-0.5-0.5-1.2-0.9-2.1-0.9c-1.4,0-2.4,1-2.4,2.4s1,2.4,2.4,2.4
		c0.9,0,1.6-0.4,2.1-0.9l1.3,1.9c-0.8,0.8-2,1.3-3.5,1.3c-2.8,0-4.8-1.9-4.8-4.7C84.8,37.1,86.8,35.2,89.6,35.2z"/>
	<path d="M95.7,31.3c0.9,0,1.5,0.7,1.5,1.5s-0.7,1.5-1.5,1.5s-1.5-0.6-1.5-1.5S94.8,31.3,95.7,31.3z M96.9,35.4v9h-2.4v-9H96.9z"/>
	<path d="M104.5,44.2c-0.7,0.2-1.4,0.3-1.9,0.3c-1.7,0-2.6-0.8-2.6-2.8v-4.2h-1.6v-2h1.6V33h2.4v2.4h2.3v2h-2.3v3.9
		c0,0.6,0.3,0.8,0.9,0.8c0.4,0,0.7,0,1.3-0.1V44.2z"/>
</g>
<g class="st0">
	<path d="M107.7,48l2.2-4.9l-3.8-7.7h2.8l2.3,4.9l2.2-4.9h2.5L110.2,48H107.7z"/>
</g>
<g class="st0">
	<path d="M126.4,35.2c1.4,0,2.6,0.5,3.4,1.3l-1.4,1.9c-0.5-0.5-1.2-0.9-2.1-0.9c-1.4,0-2.4,1-2.4,2.4s1,2.4,2.4,2.4
		c0.9,0,1.6-0.4,2.1-0.9l1.3,1.9c-0.8,0.8-2,1.3-3.5,1.3c-2.8,0-4.8-1.9-4.8-4.7C121.6,37.1,123.6,35.2,126.4,35.2z"/>
</g>
<g class="st0">
	<path d="M135.6,35.2c2.8,0,4.8,1.9,4.8,4.7c0,2.8-2.1,4.7-4.8,4.7s-4.8-1.9-4.8-4.7C130.8,37.1,132.9,35.2,135.6,35.2z M135.6,37.5
		c-1.4,0-2.4,1-2.4,2.4s1,2.4,2.4,2.4s2.4-1,2.4-2.4S137,37.5,135.6,37.5z"/>
	<path d="M144.3,36.7c0.6-0.9,1.6-1.5,2.9-1.5c2.1,0,3.2,1.4,3.2,3.6v5.6H148v-5c0-1.4-0.6-1.9-1.6-1.9c-1.4,0-2,1-2,2.6v4.3H142v-9
		h2.3V36.7z"/>
	<path d="M156.1,35.2c1.7,0,2.8,0.5,3.6,1.3l-1.3,1.7c-0.5-0.6-1.5-0.9-2.4-0.9c-0.8,0-1.2,0.2-1.2,0.6c0,0.5,0.5,0.6,2.1,0.9
		c1.6,0.3,2.9,0.9,2.9,2.8c0,2.1-1.5,2.9-3.9,2.9c-1.7,0-3.2-0.5-4-1.5l1.4-1.8c0.6,0.7,1.6,1.2,2.8,1.2c0.7,0,1.2-0.2,1.2-0.7
		s-0.5-0.6-2-0.9c-1.4-0.3-3-0.9-3-2.8C152.3,36.2,153.7,35.2,156.1,35.2z"/>
</g>
<g class="st0">
	<path d="M166,35.2c2.8,0,4.4,1.9,4.4,4.8v0.6h-6.6l0,0c0.3,1.2,1.4,1.7,2.4,1.7c1.1,0,1.9-0.4,2.6-0.9l1,2
		c-0.7,0.6-1.9,1.2-3.6,1.2c-3,0-4.8-2-4.8-4.7C161.4,37.2,163.2,35.2,166,35.2z M167.9,38.9c-0.1-1-0.8-1.7-1.9-1.7
		s-1.9,0.6-2.1,1.7H167.9z"/>
</g>
<g class="st0">
	<path d="M174.4,36.9c0.5-1.1,1.3-1.7,2.6-1.7c0.3,0,0.6,0.1,0.9,0.1v2.6c-0.3-0.1-0.7-0.1-1.1-0.1c-1.6,0-2.3,0.9-2.3,2.6v4.1h-2.4
		v-9h2.3V36.9z"/>
</g>
<g class="st0">
	<path d="M182.4,44.4l-4.1-9h2.7l2.3,5.6l2.3-5.6h2.6l-4.1,9H182.4z"/>
</g>
<g class="st0">
	<path d="M188.9,37.2c0.6-1.4,2.1-2,4-2c2.6,0,3.9,1.1,3.9,3.7v5.6h-2.4v-1.2c-0.5,0.7-1.4,1.4-2.8,1.4c-1.8,0-3-1.2-3-2.8
		c0-1.6,1.2-2.7,2.9-2.8l2.5-0.2c0.3,0,0.5-0.2,0.5-0.4v-0.1c0-0.5-0.5-0.9-1.6-0.9c-0.9,0-1.9,0.3-2.3,1.2L188.9,37.2z M194.4,40.4
		l-2.2,0.3c-0.7,0.1-1.1,0.5-1.1,1c0,0.6,0.4,1,1.3,1c1.3,0,2.1-0.9,2.1-1.9V40.4z"/>
</g>
<g class="st0">
	<path d="M204.4,44.2c-0.7,0.2-1.4,0.3-1.9,0.3c-1.7,0-2.6-0.8-2.6-2.8v-4.2h-1.6v-2h1.6V33h2.4v2.4h2.3v2h-2.3v3.9
		c0,0.6,0.3,0.8,0.9,0.8c0.4,0,0.7,0,1.3-0.1V44.2z"/>
</g>
<g class="st0">
	<path d="M207.8,31.3c0.9,0,1.5,0.7,1.5,1.5s-0.7,1.5-1.5,1.5s-1.5-0.6-1.5-1.5S206.9,31.3,207.8,31.3z M208.9,35.4v9h-2.4v-9H208.9
		z"/>
	<path d="M215.4,35.2c2.8,0,4.8,1.9,4.8,4.7c0,2.8-2.1,4.7-4.8,4.7s-4.8-1.9-4.8-4.7C210.6,37.1,212.7,35.2,215.4,35.2z M215.4,37.5
		c-1.4,0-2.4,1-2.4,2.4s1,2.4,2.4,2.4s2.4-1,2.4-2.4S216.8,37.5,215.4,37.5z"/>
	<path d="M224.1,36.7c0.6-0.9,1.6-1.5,2.9-1.5c2.1,0,3.2,1.4,3.2,3.6v5.6h-2.4v-5c0-1.4-0.6-1.9-1.6-1.9c-1.4,0-2,1-2,2.6v4.3h-2.4
		v-9h2.3V36.7z"/>
</g>
<g class="st0">
	<path d="M243.9,44.2c-0.7,0.2-1.3,0.3-1.9,0.3c-1.7,0-2.6-0.8-2.6-2.8v-4.2h-1.6v-2h1.6V33h2.4v2.4h2.3v2h-2.3v3.9
		c0,0.6,0.3,0.8,0.9,0.8c0.4,0,0.7,0,1.3-0.1V44.2z"/>
</g>
<g class="st0">
	<path d="M247.3,31.3c0.9,0,1.5,0.7,1.5,1.5s-0.7,1.5-1.5,1.5s-1.5-0.6-1.5-1.5S246.4,31.3,247.3,31.3z M248.4,35.4v9h-2.4v-9H248.4
		z"/>
</g>
<g class="st0">
	<path d="M250.9,48V35.4h2.4v1.3c0.6-0.9,1.7-1.5,3-1.5c2.2,0,4.1,1.7,4.1,4.7c0,3-1.9,4.7-4.1,4.7c-1.4,0-2.4-0.7-3-1.5V48H250.9z
		 M258,39.9c0-1.5-1-2.4-2.4-2.4c-1.3,0-2.4,0.9-2.4,2.4c0,1.5,1,2.4,2.4,2.4C257,42.3,258,41.4,258,39.9z"/>
</g>
<g class="st0">
	<path d="M30.6,70.8l1.2-0.1c0.1,0.5,0.2,0.8,0.4,1.1c0.2,0.3,0.5,0.5,0.9,0.7c0.4,0.2,0.9,0.3,1.4,0.3c0.5,0,0.9-0.1,1.2-0.2
		s0.6-0.3,0.8-0.6c0.2-0.2,0.3-0.5,0.3-0.8c0-0.3-0.1-0.5-0.3-0.8s-0.4-0.4-0.8-0.5c-0.2-0.1-0.8-0.2-1.7-0.5s-1.5-0.4-1.8-0.6
		c-0.4-0.2-0.8-0.5-1-0.9c-0.2-0.3-0.3-0.7-0.3-1.2c0-0.5,0.1-0.9,0.4-1.3s0.7-0.7,1.2-0.9c0.5-0.2,1.1-0.3,1.7-0.3
		c0.7,0,1.3,0.1,1.8,0.3c0.5,0.2,0.9,0.5,1.2,1s0.4,0.9,0.5,1.5l-1.2,0.1c-0.1-0.6-0.3-1-0.6-1.3c-0.4-0.3-0.9-0.5-1.6-0.5
		c-0.7,0-1.3,0.1-1.6,0.4c-0.3,0.3-0.5,0.6-0.5,1c0,0.3,0.1,0.6,0.4,0.8c0.2,0.2,0.9,0.4,1.9,0.7c1,0.2,1.7,0.4,2.1,0.6
		c0.5,0.2,0.9,0.6,1.2,0.9s0.4,0.8,0.4,1.3c0,0.5-0.1,1-0.4,1.4c-0.3,0.4-0.7,0.8-1.2,1c-0.5,0.2-1.1,0.4-1.8,0.4
		c-0.8,0-1.5-0.1-2.1-0.4c-0.6-0.2-1-0.6-1.3-1.1C30.8,72,30.6,71.4,30.6,70.8z"/>
	<path d="M39.5,65.8v-1.3h1.1v1.3H39.5z M39.5,73.8v-6.7h1.1v6.7H39.5z"/>
	<path d="M42.4,73.8v-6.7h1V68c0.2-0.3,0.5-0.6,0.8-0.8s0.8-0.3,1.2-0.3c0.5,0,0.9,0.1,1.2,0.3c0.3,0.2,0.5,0.5,0.7,0.9
		c0.5-0.8,1.2-1.2,2.1-1.2c0.7,0,1.2,0.2,1.5,0.6s0.5,0.9,0.5,1.7v4.6h-1.1v-4.2c0-0.5,0-0.8-0.1-1c-0.1-0.2-0.2-0.4-0.4-0.5
		c-0.2-0.1-0.4-0.2-0.7-0.2c-0.5,0-0.9,0.2-1.2,0.5s-0.5,0.8-0.5,1.5v3.9h-1.1v-4.4c0-0.5-0.1-0.9-0.3-1.1s-0.5-0.4-0.9-0.4
		c-0.3,0-0.6,0.1-0.9,0.3c-0.3,0.2-0.5,0.4-0.6,0.7c-0.1,0.3-0.2,0.8-0.2,1.4v3.5H42.4z"/>
	<path d="M53.2,76.4v-9.3h1v0.9c0.2-0.3,0.5-0.6,0.8-0.8c0.3-0.2,0.7-0.3,1.1-0.3c0.6,0,1.1,0.1,1.5,0.4s0.8,0.7,1,1.3
		c0.2,0.5,0.3,1.1,0.3,1.8c0,0.7-0.1,1.3-0.4,1.9c-0.2,0.6-0.6,1-1.1,1.3c-0.5,0.3-1,0.4-1.5,0.4c-0.4,0-0.7-0.1-1-0.2
		c-0.3-0.2-0.6-0.4-0.7-0.6v3.3H53.2z M54.3,70.5c0,0.9,0.2,1.5,0.5,1.9s0.8,0.6,1.3,0.6c0.5,0,0.9-0.2,1.3-0.6
		c0.4-0.4,0.5-1.1,0.5-2c0-0.9-0.2-1.5-0.5-1.9c-0.4-0.4-0.8-0.6-1.3-0.6c-0.5,0-0.9,0.2-1.3,0.7C54.5,68.9,54.3,69.6,54.3,70.5z"/>
	<path d="M60.4,73.8v-9.3h1.1v9.3H60.4z"/>
	<path d="M68,71.6l1.2,0.1c-0.2,0.7-0.5,1.2-1,1.6S67,74,66.2,74c-1,0-1.8-0.3-2.3-0.9c-0.6-0.6-0.9-1.5-0.9-2.6
		c0-1.1,0.3-2,0.9-2.6s1.3-0.9,2.3-0.9c0.9,0,1.6,0.3,2.2,0.9c0.6,0.6,0.9,1.5,0.9,2.6c0,0.1,0,0.2,0,0.3h-5c0,0.7,0.3,1.3,0.6,1.7
		c0.4,0.4,0.8,0.6,1.4,0.6c0.4,0,0.8-0.1,1.1-0.3S67.8,72.1,68,71.6z M64.2,69.8H68c-0.1-0.6-0.2-1-0.4-1.3
		c-0.4-0.4-0.8-0.7-1.4-0.7c-0.5,0-1,0.2-1.3,0.5C64.5,68.7,64.3,69.2,64.2,69.8z"/>
	<path d="M70.9,73.8v-1.3h1.3v1.3c0,0.5-0.1,0.9-0.3,1.2s-0.4,0.5-0.8,0.7l-0.3-0.5c0.2-0.1,0.4-0.3,0.5-0.5s0.2-0.5,0.2-0.9H70.9z"
		/>
	<path d="M82.4,71.6l1.2,0.1c-0.2,0.7-0.5,1.2-1,1.6c-0.5,0.4-1.1,0.6-1.9,0.6c-1,0-1.8-0.3-2.3-0.9c-0.6-0.6-0.9-1.5-0.9-2.6
		c0-1.1,0.3-2,0.9-2.6s1.3-0.9,2.3-0.9c0.9,0,1.6,0.3,2.2,0.9c0.6,0.6,0.9,1.5,0.9,2.6c0,0.1,0,0.2,0,0.3h-5c0,0.7,0.3,1.3,0.6,1.7
		c0.4,0.4,0.8,0.6,1.4,0.6c0.4,0,0.8-0.1,1.1-0.3C82,72.5,82.3,72.1,82.4,71.6z M78.7,69.8h3.8c-0.1-0.6-0.2-1-0.4-1.3
		c-0.4-0.4-0.8-0.7-1.4-0.7c-0.5,0-1,0.2-1.3,0.5C78.9,68.7,78.7,69.2,78.7,69.8z"/>
	<path d="M86.9,73.8l-2.6-6.7h1.2l1.4,4c0.2,0.4,0.3,0.9,0.4,1.4c0.1-0.4,0.2-0.8,0.4-1.3l1.5-4.1h1.2L88,73.8H86.9z"/>
	<path d="M96.2,71.6l1.2,0.1c-0.2,0.7-0.5,1.2-1,1.6c-0.5,0.4-1.1,0.6-1.9,0.6c-1,0-1.8-0.3-2.3-0.9c-0.6-0.6-0.9-1.5-0.9-2.6
		c0-1.1,0.3-2,0.9-2.6s1.3-0.9,2.3-0.9c0.9,0,1.6,0.3,2.2,0.9c0.6,0.6,0.9,1.5,0.9,2.6c0,0.1,0,0.2,0,0.3h-5c0,0.7,0.3,1.3,0.6,1.7
		c0.4,0.4,0.8,0.6,1.4,0.6c0.4,0,0.8-0.1,1.1-0.3C95.8,72.5,96,72.1,96.2,71.6z M92.4,69.8h3.8c-0.1-0.6-0.2-1-0.4-1.3
		c-0.4-0.4-0.8-0.7-1.4-0.7c-0.5,0-1,0.2-1.3,0.5C92.6,68.7,92.4,69.2,92.4,69.8z"/>
	<path d="M98.8,73.8v-6.7h1v1c0.3-0.5,0.5-0.8,0.7-0.9c0.2-0.2,0.5-0.2,0.7-0.2c0.4,0,0.8,0.1,1.2,0.4l-0.4,1.1
		c-0.3-0.2-0.6-0.2-0.8-0.2c-0.2,0-0.5,0.1-0.7,0.2s-0.3,0.4-0.4,0.6c-0.1,0.4-0.2,0.9-0.2,1.3v3.5H98.8z"/>
	<path d="M103.1,76.4l-0.1-1.1c0.2,0.1,0.5,0.1,0.7,0.1c0.3,0,0.5,0,0.6-0.1s0.3-0.2,0.4-0.4c0.1-0.1,0.2-0.4,0.3-0.9
		c0-0.1,0.1-0.2,0.1-0.3l-2.6-6.8h1.2l1.4,3.9c0.2,0.5,0.3,1,0.5,1.6c0.1-0.5,0.3-1,0.5-1.5l1.4-3.9h1.1l-2.6,6.9
		c-0.3,0.7-0.5,1.3-0.6,1.5c-0.2,0.4-0.4,0.7-0.7,0.8c-0.3,0.2-0.6,0.3-0.9,0.3C103.6,76.5,103.3,76.5,103.1,76.4z"/>
	<path d="M114,73.8v-0.9c-0.4,0.7-1.1,1-1.9,1c-0.5,0-1-0.1-1.5-0.4c-0.5-0.3-0.8-0.7-1-1.2c-0.2-0.5-0.4-1.1-0.4-1.8
		c0-0.7,0.1-1.3,0.3-1.8c0.2-0.5,0.6-1,1-1.3c0.4-0.3,1-0.4,1.5-0.4c0.4,0,0.8,0.1,1.1,0.3c0.3,0.2,0.6,0.4,0.8,0.7v-3.3h1.1v9.3
		H114z M110.4,70.4c0,0.9,0.2,1.5,0.5,1.9c0.4,0.4,0.8,0.6,1.3,0.6c0.5,0,0.9-0.2,1.3-0.6c0.3-0.4,0.5-1,0.5-1.9
		c0-0.9-0.2-1.6-0.5-2s-0.8-0.6-1.3-0.6c-0.5,0-0.9,0.2-1.3,0.6C110.5,68.9,110.4,69.5,110.4,70.4z"/>
	<path d="M121.2,73c-0.4,0.4-0.8,0.6-1.2,0.8c-0.4,0.1-0.8,0.2-1.3,0.2c-0.7,0-1.3-0.2-1.7-0.5c-0.4-0.4-0.6-0.8-0.6-1.4
		c0-0.3,0.1-0.6,0.2-0.9c0.2-0.3,0.3-0.5,0.6-0.7s0.5-0.3,0.8-0.4c0.2-0.1,0.6-0.1,1-0.2c0.9-0.1,1.6-0.2,2-0.4c0-0.2,0-0.3,0-0.3
		c0-0.5-0.1-0.8-0.3-1c-0.3-0.3-0.7-0.4-1.3-0.4c-0.5,0-0.9,0.1-1.2,0.3s-0.4,0.5-0.6,1l-1.1-0.2c0.1-0.5,0.3-0.9,0.5-1.2
		s0.6-0.5,1-0.7c0.4-0.2,0.9-0.2,1.5-0.2c0.6,0,1,0.1,1.4,0.2c0.4,0.1,0.6,0.3,0.8,0.5s0.3,0.5,0.4,0.8c0,0.2,0.1,0.5,0.1,1.1V71
		c0,1.1,0,1.7,0.1,2s0.1,0.6,0.3,0.8h-1.2C121.3,73.6,121.3,73.3,121.2,73z M121.1,70.4c-0.4,0.2-1,0.3-1.9,0.4
		c-0.5,0.1-0.8,0.1-1,0.2c-0.2,0.1-0.3,0.2-0.5,0.4c-0.1,0.2-0.2,0.3-0.2,0.5c0,0.3,0.1,0.6,0.3,0.8s0.6,0.3,1,0.3
		c0.4,0,0.8-0.1,1.2-0.3c0.3-0.2,0.6-0.5,0.8-0.8c0.1-0.3,0.2-0.6,0.2-1.1V70.4z"/>
	<path d="M124,76.4l-0.1-1.1c0.2,0.1,0.5,0.1,0.7,0.1c0.3,0,0.5,0,0.6-0.1s0.3-0.2,0.4-0.4c0.1-0.1,0.2-0.4,0.3-0.9
		c0-0.1,0.1-0.2,0.1-0.3l-2.6-6.8h1.2l1.4,3.9c0.2,0.5,0.3,1,0.5,1.6c0.1-0.5,0.3-1,0.5-1.5l1.4-3.9h1.1l-2.6,6.9
		c-0.3,0.7-0.5,1.3-0.6,1.5c-0.2,0.4-0.4,0.7-0.7,0.8c-0.3,0.2-0.6,0.3-0.9,0.3C124.5,76.5,124.3,76.5,124,76.4z"/>
	<path d="M136.7,72.8l0.2,1c-0.3,0.1-0.6,0.1-0.9,0.1c-0.4,0-0.7-0.1-1-0.2c-0.2-0.1-0.4-0.3-0.5-0.5s-0.1-0.7-0.1-1.3v-3.9h-0.8
		v-0.9h0.8v-1.7l1.1-0.7v2.4h1.1v0.9h-1.1v3.9c0,0.3,0,0.5,0.1,0.6s0.1,0.2,0.2,0.2c0.1,0.1,0.2,0.1,0.4,0.1
		C136.3,72.8,136.5,72.8,136.7,72.8z"/>
	<path d="M137.8,65.8v-1.3h1.1v1.3H137.8z M137.8,73.8v-6.7h1.1v6.7H137.8z"/>
	<path d="M140.7,76.4v-9.3h1v0.9c0.2-0.3,0.5-0.6,0.8-0.8c0.3-0.2,0.7-0.3,1.1-0.3c0.6,0,1.1,0.1,1.5,0.4c0.4,0.3,0.8,0.7,1,1.3
		c0.2,0.5,0.3,1.1,0.3,1.8c0,0.7-0.1,1.3-0.4,1.9c-0.2,0.6-0.6,1-1.1,1.3s-1,0.4-1.5,0.4c-0.4,0-0.7-0.1-1-0.2s-0.6-0.4-0.7-0.6v3.3
		H140.7z M141.7,70.5c0,0.9,0.2,1.5,0.5,1.9c0.4,0.4,0.8,0.6,1.3,0.6c0.5,0,0.9-0.2,1.3-0.6c0.4-0.4,0.5-1.1,0.5-2
		c0-0.9-0.2-1.5-0.5-1.9s-0.8-0.6-1.3-0.6c-0.5,0-0.9,0.2-1.3,0.7C141.9,68.9,141.7,69.6,141.7,70.5z"/>
	<path d="M147.5,71.8l1.1-0.2c0.1,0.5,0.2,0.8,0.5,1c0.3,0.2,0.7,0.4,1.2,0.4c0.5,0,0.9-0.1,1.2-0.3s0.4-0.5,0.4-0.8
		c0-0.3-0.1-0.5-0.3-0.6c-0.2-0.1-0.5-0.2-1.2-0.4c-0.8-0.2-1.4-0.4-1.7-0.5c-0.3-0.2-0.6-0.4-0.7-0.6c-0.2-0.3-0.3-0.6-0.3-0.9
		c0-0.3,0.1-0.6,0.2-0.8s0.3-0.5,0.6-0.6c0.2-0.1,0.4-0.2,0.7-0.3s0.6-0.1,1-0.1c0.5,0,1,0.1,1.4,0.2c0.4,0.2,0.7,0.4,0.9,0.6
		c0.2,0.3,0.3,0.6,0.4,1l-1.1,0.2c-0.1-0.3-0.2-0.6-0.4-0.8s-0.6-0.3-1-0.3c-0.5,0-0.9,0.1-1.1,0.3c-0.2,0.2-0.3,0.4-0.3,0.6
		c0,0.1,0,0.3,0.1,0.4c0.1,0.1,0.2,0.2,0.4,0.3c0.1,0,0.5,0.1,1,0.3c0.8,0.2,1.4,0.4,1.7,0.5s0.6,0.3,0.8,0.6s0.3,0.6,0.3,1
		c0,0.4-0.1,0.7-0.3,1.1c-0.2,0.3-0.5,0.6-1,0.8c-0.4,0.2-0.9,0.3-1.4,0.3c-0.9,0-1.5-0.2-2-0.5S147.6,72.5,147.5,71.8z"/>
	<path d="M159.3,73.8l-2.1-6.7h1.2l1.1,3.9l0.4,1.4c0-0.1,0.1-0.5,0.3-1.4l1.1-3.9h1.2l1,3.9l0.3,1.3l0.4-1.3l1.2-3.9h1.1l-2.1,6.7
		h-1.2l-1.1-4l-0.3-1.1l-1.4,5.2H159.3z"/>
	<path d="M167.4,65.8v-1.3h1.1v1.3H167.4z M167.4,73.8v-6.7h1.1v6.7H167.4z"/>
	<path d="M170.3,73.8v-9.3h1.1v9.3H170.3z"/>
	<path d="M173.2,73.8v-9.3h1.1v9.3H173.2z"/>
	<path d="M179.7,73.8v-9.3h1.1v3.3c0.5-0.6,1.2-0.9,2-0.9c0.5,0,0.9,0.1,1.3,0.3c0.4,0.2,0.6,0.5,0.8,0.8c0.2,0.3,0.2,0.9,0.2,1.5
		v4.3H184v-4.3c0-0.6-0.1-1-0.4-1.2c-0.2-0.3-0.6-0.4-1.1-0.4c-0.3,0-0.7,0.1-1,0.3c-0.3,0.2-0.5,0.4-0.6,0.7
		c-0.1,0.3-0.2,0.7-0.2,1.2v3.7H179.7z"/>
	<path d="M191.5,71.6l1.2,0.1c-0.2,0.7-0.5,1.2-1,1.6c-0.5,0.4-1.1,0.6-1.9,0.6c-1,0-1.8-0.3-2.3-0.9c-0.6-0.6-0.9-1.5-0.9-2.6
		c0-1.1,0.3-2,0.9-2.6s1.3-0.9,2.3-0.9c0.9,0,1.6,0.3,2.2,0.9c0.6,0.6,0.9,1.5,0.9,2.6c0,0.1,0,0.2,0,0.3h-5c0,0.7,0.3,1.3,0.6,1.7
		c0.4,0.4,0.8,0.6,1.4,0.6c0.4,0,0.8-0.1,1.1-0.3C191.1,72.5,191.4,72.1,191.5,71.6z M187.8,69.8h3.8c-0.1-0.6-0.2-1-0.4-1.3
		c-0.4-0.4-0.8-0.7-1.4-0.7c-0.5,0-1,0.2-1.3,0.5C188,68.7,187.8,69.2,187.8,69.8z"/>
	<path d="M194.1,73.8v-9.3h1.1v9.3H194.1z"/>
	<path d="M197,76.4v-9.3h1v0.9c0.2-0.3,0.5-0.6,0.8-0.8c0.3-0.2,0.7-0.3,1.1-0.3c0.6,0,1.1,0.1,1.5,0.4c0.4,0.3,0.8,0.7,1,1.3
		c0.2,0.5,0.3,1.1,0.3,1.8c0,0.7-0.1,1.3-0.4,1.9c-0.2,0.6-0.6,1-1.1,1.3s-1,0.4-1.5,0.4c-0.4,0-0.7-0.1-1-0.2s-0.6-0.4-0.7-0.6v3.3
		H197z M198.1,70.5c0,0.9,0.2,1.5,0.5,1.9c0.4,0.4,0.8,0.6,1.3,0.6c0.5,0,0.9-0.2,1.3-0.6c0.4-0.4,0.5-1.1,0.5-2
		c0-0.9-0.2-1.5-0.5-1.9s-0.8-0.6-1.3-0.6c-0.5,0-0.9,0.2-1.3,0.7C198.3,68.9,198.1,69.6,198.1,70.5z"/>
	<path d="M207.8,76.4l-0.1-1.1c0.2,0.1,0.5,0.1,0.7,0.1c0.3,0,0.5,0,0.6-0.1s0.3-0.2,0.4-0.4c0.1-0.1,0.2-0.4,0.3-0.9
		c0-0.1,0.1-0.2,0.1-0.3l-2.6-6.8h1.2l1.4,3.9c0.2,0.5,0.3,1,0.5,1.6c0.1-0.5,0.3-1,0.5-1.5l1.4-3.9h1.1l-2.6,6.9
		c-0.3,0.7-0.5,1.3-0.6,1.5c-0.2,0.4-0.4,0.7-0.7,0.8c-0.3,0.2-0.6,0.3-0.9,0.3C208.3,76.5,208.1,76.5,207.8,76.4z"/>
	<path d="M213.9,70.4c0-1.2,0.3-2.2,1-2.8c0.6-0.5,1.3-0.7,2.1-0.7c0.9,0,1.7,0.3,2.3,0.9s0.9,1.4,0.9,2.5c0,0.9-0.1,1.5-0.4,2
		c-0.3,0.5-0.6,0.9-1.1,1.2c-0.5,0.3-1,0.4-1.6,0.4c-0.9,0-1.7-0.3-2.3-0.9C214.2,72.4,213.9,71.6,213.9,70.4z M215.1,70.4
		c0,0.9,0.2,1.5,0.6,1.9s0.9,0.6,1.4,0.6c0.6,0,1-0.2,1.4-0.6c0.4-0.4,0.6-1.1,0.6-2c0-0.8-0.2-1.5-0.6-1.9s-0.8-0.6-1.4-0.6
		c-0.6,0-1,0.2-1.4,0.6S215.1,69.6,215.1,70.4z"/>
	<path d="M226,73.8v-1c-0.5,0.8-1.2,1.1-2.1,1.1c-0.4,0-0.8-0.1-1.1-0.2s-0.6-0.3-0.8-0.6s-0.3-0.5-0.4-0.8c0-0.2-0.1-0.6-0.1-1.1
		v-4.2h1.1v3.7c0,0.6,0,1,0.1,1.2c0.1,0.3,0.2,0.5,0.5,0.7c0.2,0.2,0.5,0.3,0.9,0.3s0.7-0.1,1-0.3s0.5-0.4,0.6-0.7s0.2-0.7,0.2-1.3
		v-3.6h1.1v6.7H226z"/>
	<path d="M232.4,73.8v-6.7h1v1c0.3-0.5,0.5-0.8,0.7-0.9c0.2-0.2,0.5-0.2,0.7-0.2c0.4,0,0.8,0.1,1.2,0.4l-0.4,1.1
		c-0.3-0.2-0.6-0.2-0.8-0.2c-0.2,0-0.5,0.1-0.7,0.2s-0.3,0.4-0.4,0.6c-0.1,0.4-0.2,0.9-0.2,1.3v3.5H232.4z"/>
	<path d="M241.4,71.6l1.2,0.1c-0.2,0.7-0.5,1.2-1,1.6c-0.5,0.4-1.1,0.6-1.9,0.6c-1,0-1.8-0.3-2.3-0.9c-0.6-0.6-0.9-1.5-0.9-2.6
		c0-1.1,0.3-2,0.9-2.6s1.3-0.9,2.3-0.9c0.9,0,1.6,0.3,2.2,0.9c0.6,0.6,0.9,1.5,0.9,2.6c0,0.1,0,0.2,0,0.3h-5c0,0.7,0.3,1.3,0.6,1.7
		c0.4,0.4,0.8,0.6,1.4,0.6c0.4,0,0.8-0.1,1.1-0.3C241,72.5,241.2,72.1,241.4,71.6z M237.6,69.8h3.8c-0.1-0.6-0.2-1-0.4-1.3
		c-0.4-0.4-0.8-0.7-1.4-0.7c-0.5,0-1,0.2-1.3,0.5C237.9,68.7,237.7,69.2,237.6,69.8z"/>
	<path d="M248.4,73.8v-0.9c-0.4,0.7-1.1,1-1.9,1c-0.5,0-1-0.1-1.5-0.4c-0.5-0.3-0.8-0.7-1-1.2c-0.2-0.5-0.4-1.1-0.4-1.8
		c0-0.7,0.1-1.3,0.3-1.8c0.2-0.5,0.6-1,1-1.3c0.4-0.3,1-0.4,1.5-0.4c0.4,0,0.8,0.1,1.1,0.3c0.3,0.2,0.6,0.4,0.8,0.7v-3.3h1.1v9.3
		H248.4z M244.8,70.4c0,0.9,0.2,1.5,0.5,1.9c0.4,0.4,0.8,0.6,1.3,0.6c0.5,0,0.9-0.2,1.3-0.6c0.3-0.4,0.5-1,0.5-1.9
		c0-0.9-0.2-1.6-0.5-2s-0.8-0.6-1.3-0.6c-0.5,0-0.9,0.2-1.3,0.6C244.9,68.9,244.8,69.5,244.8,70.4z"/>
	<path d="M255.7,73.8v-1c-0.5,0.8-1.2,1.1-2.1,1.1c-0.4,0-0.8-0.1-1.1-0.2s-0.6-0.3-0.8-0.6s-0.3-0.5-0.4-0.8c0-0.2-0.1-0.6-0.1-1.1
		v-4.2h1.1v3.7c0,0.6,0,1,0.1,1.2c0.1,0.3,0.2,0.5,0.5,0.7c0.2,0.2,0.5,0.3,0.9,0.3s0.7-0.1,1-0.3s0.5-0.4,0.6-0.7s0.2-0.7,0.2-1.3
		v-3.6h1.1v6.7H255.7z"/>
	<path d="M262.9,71.3l1.1,0.1c-0.1,0.8-0.4,1.4-0.9,1.8c-0.5,0.4-1.1,0.7-1.9,0.7c-0.9,0-1.7-0.3-2.2-0.9c-0.6-0.6-0.8-1.5-0.8-2.6
		c0-0.7,0.1-1.4,0.4-1.9c0.2-0.5,0.6-1,1.1-1.2c0.5-0.3,1-0.4,1.6-0.4c0.7,0,1.3,0.2,1.8,0.6c0.5,0.4,0.8,0.9,0.9,1.6l-1.1,0.2
		c-0.1-0.5-0.3-0.8-0.6-1s-0.6-0.3-1-0.3c-0.6,0-1,0.2-1.4,0.6c-0.4,0.4-0.5,1.1-0.5,2c0,0.9,0.2,1.6,0.5,2c0.3,0.4,0.8,0.6,1.4,0.6
		c0.4,0,0.8-0.1,1.1-0.4C262.6,72.3,262.8,71.9,262.9,71.3z"/>
	<path d="M269.6,71.6l1.2,0.1c-0.2,0.7-0.5,1.2-1,1.6c-0.5,0.4-1.1,0.6-1.9,0.6c-1,0-1.8-0.3-2.3-0.9c-0.6-0.6-0.9-1.5-0.9-2.6
		c0-1.1,0.3-2,0.9-2.6s1.3-0.9,2.3-0.9c0.9,0,1.6,0.3,2.2,0.9c0.6,0.6,0.9,1.5,0.9,2.6c0,0.1,0,0.2,0,0.3h-5c0,0.7,0.3,1.3,0.6,1.7
		c0.4,0.4,0.8,0.6,1.4,0.6c0.4,0,0.8-0.1,1.1-0.3C269.2,72.5,269.4,72.1,269.6,71.6z M265.8,69.8h3.8c-0.1-0.6-0.2-1-0.4-1.3
		c-0.4-0.4-0.8-0.7-1.4-0.7c-0.5,0-1,0.2-1.3,0.5C266.1,68.7,265.9,69.2,265.8,69.8z"/>
	<path d="M275.8,76.4l-0.1-1.1c0.2,0.1,0.5,0.1,0.7,0.1c0.3,0,0.5,0,0.6-0.1s0.3-0.2,0.4-0.4c0.1-0.1,0.2-0.4,0.3-0.9
		c0-0.1,0.1-0.2,0.1-0.3l-2.6-6.8h1.2l1.4,3.9c0.2,0.5,0.3,1,0.5,1.6c0.1-0.5,0.3-1,0.5-1.5l1.4-3.9h1.1l-2.6,6.9
		c-0.3,0.7-0.5,1.3-0.6,1.5c-0.2,0.4-0.4,0.7-0.7,0.8c-0.3,0.2-0.6,0.3-0.9,0.3C276.3,76.5,276,76.5,275.8,76.4z"/>
	<path d="M281.9,70.4c0-1.2,0.3-2.2,1-2.8c0.6-0.5,1.3-0.7,2.1-0.7c0.9,0,1.7,0.3,2.3,0.9s0.9,1.4,0.9,2.5c0,0.9-0.1,1.5-0.4,2
		c-0.3,0.5-0.6,0.9-1.1,1.2c-0.5,0.3-1,0.4-1.6,0.4c-0.9,0-1.7-0.3-2.3-0.9C282.2,72.4,281.9,71.6,281.9,70.4z M283.1,70.4
		c0,0.9,0.2,1.5,0.6,1.9s0.9,0.6,1.4,0.6c0.6,0,1-0.2,1.4-0.6c0.4-0.4,0.6-1.1,0.6-2c0-0.8-0.2-1.5-0.6-1.9s-0.8-0.6-1.4-0.6
		c-0.6,0-1,0.2-1.4,0.6S283.1,69.6,283.1,70.4z"/>
	<path d="M294,73.8v-1c-0.5,0.8-1.2,1.1-2.1,1.1c-0.4,0-0.8-0.1-1.1-0.2s-0.6-0.3-0.8-0.6s-0.3-0.5-0.4-0.8c0-0.2-0.1-0.6-0.1-1.1
		v-4.2h1.1v3.7c0,0.6,0,1,0.1,1.2c0.1,0.3,0.2,0.5,0.5,0.7c0.2,0.2,0.5,0.3,0.9,0.3s0.7-0.1,1-0.3s0.5-0.4,0.6-0.7s0.2-0.7,0.2-1.3
		v-3.6h1.1v6.7H294z"/>
	<path d="M296.8,73.8v-6.7h1v1c0.3-0.5,0.5-0.8,0.7-0.9c0.2-0.2,0.5-0.2,0.7-0.2c0.4,0,0.8,0.1,1.2,0.4l-0.4,1.1
		c-0.3-0.2-0.6-0.2-0.8-0.2c-0.2,0-0.5,0.1-0.7,0.2s-0.3,0.4-0.4,0.6c-0.1,0.4-0.2,0.9-0.2,1.3v3.5H296.8z"/>
	<path d="M309.3,71.6l1.2,0.1c-0.2,0.7-0.5,1.2-1,1.6c-0.5,0.4-1.1,0.6-1.9,0.6c-1,0-1.8-0.3-2.3-0.9c-0.6-0.6-0.9-1.5-0.9-2.6
		c0-1.1,0.3-2,0.9-2.6s1.3-0.9,2.3-0.9c0.9,0,1.6,0.3,2.2,0.9c0.6,0.6,0.9,1.5,0.9,2.6c0,0.1,0,0.2,0,0.3h-5c0,0.7,0.3,1.3,0.6,1.7
		c0.4,0.4,0.8,0.6,1.4,0.6c0.4,0,0.8-0.1,1.1-0.3C308.9,72.5,309.1,72.1,309.3,71.6z M305.6,69.8h3.8c-0.1-0.6-0.2-1-0.4-1.3
		c-0.4-0.4-0.8-0.7-1.4-0.7c-0.5,0-1,0.2-1.3,0.5C305.8,68.7,305.6,69.2,305.6,69.8z"/>
	<path d="M311.9,73.8v-9.3h1.1v9.3H311.9z"/>
	<path d="M319.4,71.6l1.2,0.1c-0.2,0.7-0.5,1.2-1,1.6c-0.5,0.4-1.1,0.6-1.9,0.6c-1,0-1.8-0.3-2.3-0.9c-0.6-0.6-0.9-1.5-0.9-2.6
		c0-1.1,0.3-2,0.9-2.6s1.3-0.9,2.3-0.9c0.9,0,1.6,0.3,2.2,0.9c0.6,0.6,0.9,1.5,0.9,2.6c0,0.1,0,0.2,0,0.3h-5c0,0.7,0.3,1.3,0.6,1.7
		c0.4,0.4,0.8,0.6,1.4,0.6c0.4,0,0.8-0.1,1.1-0.3C319,72.5,319.3,72.1,319.4,71.6z M315.7,69.8h3.8c-0.1-0.6-0.2-1-0.4-1.3
		c-0.4-0.4-0.8-0.7-1.4-0.7c-0.5,0-1,0.2-1.3,0.5C315.9,68.7,315.7,69.2,315.7,69.8z"/>
	<path d="M326.5,71.3l1.1,0.1c-0.1,0.8-0.4,1.4-0.9,1.8c-0.5,0.4-1.1,0.7-1.9,0.7c-0.9,0-1.7-0.3-2.2-0.9c-0.6-0.6-0.8-1.5-0.8-2.6
		c0-0.7,0.1-1.4,0.4-1.9c0.2-0.5,0.6-1,1.1-1.2c0.5-0.3,1-0.4,1.6-0.4c0.7,0,1.3,0.2,1.8,0.6c0.5,0.4,0.8,0.9,0.9,1.6l-1.1,0.2
		c-0.1-0.5-0.3-0.8-0.6-1s-0.6-0.3-1-0.3c-0.6,0-1,0.2-1.4,0.6c-0.4,0.4-0.5,1.1-0.5,2c0,0.9,0.2,1.6,0.5,2c0.3,0.4,0.8,0.6,1.4,0.6
		c0.4,0,0.8-0.1,1.1-0.4C326.2,72.3,326.4,71.9,326.5,71.3z"/>
	<path d="M331.1,72.8l0.2,1c-0.3,0.1-0.6,0.1-0.9,0.1c-0.4,0-0.7-0.1-1-0.2c-0.2-0.1-0.4-0.3-0.5-0.5s-0.1-0.7-0.1-1.3v-3.9h-0.8
		v-0.9h0.8v-1.7l1.1-0.7v2.4h1.1v0.9h-1.1v3.9c0,0.3,0,0.5,0.1,0.6s0.1,0.2,0.2,0.2c0.1,0.1,0.2,0.1,0.4,0.1
		C330.7,72.8,330.8,72.8,331.1,72.8z"/>
	<path d="M332.2,73.8v-6.7h1v1c0.3-0.5,0.5-0.8,0.7-0.9c0.2-0.2,0.5-0.2,0.7-0.2c0.4,0,0.8,0.1,1.2,0.4l-0.4,1.1
		c-0.3-0.2-0.6-0.2-0.8-0.2c-0.2,0-0.5,0.1-0.7,0.2s-0.3,0.4-0.4,0.6c-0.1,0.4-0.2,0.9-0.2,1.3v3.5H332.2z"/>
	<path d="M336.5,65.8v-1.3h1.1v1.3H336.5z M336.5,73.8v-6.7h1.1v6.7H336.5z"/>
	<path d="M343.8,71.3l1.1,0.1c-0.1,0.8-0.4,1.4-0.9,1.8c-0.5,0.4-1.1,0.7-1.9,0.7c-0.9,0-1.7-0.3-2.2-0.9c-0.6-0.6-0.8-1.5-0.8-2.6
		c0-0.7,0.1-1.4,0.4-1.9c0.2-0.5,0.6-1,1.1-1.2c0.5-0.3,1-0.4,1.6-0.4c0.7,0,1.3,0.2,1.8,0.6c0.5,0.4,0.8,0.9,0.9,1.6l-1.1,0.2
		c-0.1-0.5-0.3-0.8-0.6-1s-0.6-0.3-1-0.3c-0.6,0-1,0.2-1.4,0.6c-0.4,0.4-0.5,1.1-0.5,2c0,0.9,0.2,1.6,0.5,2c0.3,0.4,0.8,0.6,1.4,0.6
		c0.4,0,0.8-0.1,1.1-0.4C343.5,72.3,343.7,71.9,343.8,71.3z"/>
	<path d="M345.9,65.8v-1.3h1.1v1.3H345.9z M345.9,73.8v-6.7h1.1v6.7H345.9z"/>
	<path d="M351.3,72.8l0.2,1c-0.3,0.1-0.6,0.1-0.9,0.1c-0.4,0-0.7-0.1-1-0.2c-0.2-0.1-0.4-0.3-0.5-0.5s-0.1-0.7-0.1-1.3v-3.9h-0.8
		v-0.9h0.8v-1.7l1.1-0.7v2.4h1.1v0.9h-1.1v3.9c0,0.3,0,0.5,0.1,0.6s0.1,0.2,0.2,0.2c0.1,0.1,0.2,0.1,0.4,0.1
		C350.9,72.8,351.1,72.8,351.3,72.8z"/>
	<path d="M352.3,76.4l-0.1-1.1c0.2,0.1,0.5,0.1,0.7,0.1c0.3,0,0.5,0,0.6-0.1s0.3-0.2,0.4-0.4c0.1-0.1,0.2-0.4,0.3-0.9
		c0-0.1,0.1-0.2,0.1-0.3l-2.6-6.8h1.2l1.4,3.9c0.2,0.5,0.3,1,0.5,1.6c0.1-0.5,0.3-1,0.5-1.5l1.4-3.9h1.1l-2.6,6.9
		c-0.3,0.7-0.5,1.3-0.6,1.5c-0.2,0.4-0.4,0.7-0.7,0.8c-0.3,0.2-0.6,0.3-0.9,0.3C352.8,76.5,352.6,76.5,352.3,76.4z"/>
	<path d="M366.9,73.8v-1c-0.5,0.8-1.2,1.1-2.1,1.1c-0.4,0-0.8-0.1-1.1-0.2s-0.6-0.3-0.8-0.6s-0.3-0.5-0.4-0.8c0-0.2-0.1-0.6-0.1-1.1
		v-4.2h1.1v3.7c0,0.6,0,1,0.1,1.2c0.1,0.3,0.2,0.5,0.5,0.7c0.2,0.2,0.5,0.3,0.9,0.3s0.7-0.1,1-0.3s0.5-0.4,0.6-0.7s0.2-0.7,0.2-1.3
		v-3.6h1.1v6.7H366.9z"/>
	<path d="M369.3,71.8l1.1-0.2c0.1,0.5,0.2,0.8,0.5,1c0.3,0.2,0.7,0.4,1.2,0.4c0.5,0,0.9-0.1,1.2-0.3s0.4-0.5,0.4-0.8
		c0-0.3-0.1-0.5-0.3-0.6c-0.2-0.1-0.5-0.2-1.2-0.4c-0.8-0.2-1.4-0.4-1.7-0.5c-0.3-0.2-0.6-0.4-0.7-0.6c-0.2-0.3-0.3-0.6-0.3-0.9
		c0-0.3,0.1-0.6,0.2-0.8s0.3-0.5,0.6-0.6c0.2-0.1,0.4-0.2,0.7-0.3s0.6-0.1,1-0.1c0.5,0,1,0.1,1.4,0.2c0.4,0.2,0.7,0.4,0.9,0.6
		c0.2,0.3,0.3,0.6,0.4,1l-1.1,0.2c-0.1-0.3-0.2-0.6-0.4-0.8s-0.6-0.3-1-0.3c-0.5,0-0.9,0.1-1.1,0.3c-0.2,0.2-0.3,0.4-0.3,0.6
		c0,0.1,0,0.3,0.1,0.4c0.1,0.1,0.2,0.2,0.4,0.3c0.1,0,0.5,0.1,1,0.3c0.8,0.2,1.4,0.4,1.7,0.5s0.6,0.3,0.8,0.6s0.3,0.6,0.3,1
		c0,0.4-0.1,0.7-0.3,1.1c-0.2,0.3-0.5,0.6-1,0.8c-0.4,0.2-0.9,0.3-1.4,0.3c-0.9,0-1.5-0.2-2-0.5S369.4,72.5,369.3,71.8z"/>
	<path d="M380.8,71.6l1.2,0.1c-0.2,0.7-0.5,1.2-1,1.6c-0.5,0.4-1.1,0.6-1.9,0.6c-1,0-1.8-0.3-2.3-0.9c-0.6-0.6-0.9-1.5-0.9-2.6
		c0-1.1,0.3-2,0.9-2.6s1.3-0.9,2.3-0.9c0.9,0,1.6,0.3,2.2,0.9c0.6,0.6,0.9,1.5,0.9,2.6c0,0.1,0,0.2,0,0.3h-5c0,0.7,0.3,1.3,0.6,1.7
		c0.4,0.4,0.8,0.6,1.4,0.6c0.4,0,0.8-0.1,1.1-0.3C380.4,72.5,380.7,72.1,380.8,71.6z M377.1,69.8h3.8c-0.1-0.6-0.2-1-0.4-1.3
		c-0.4-0.4-0.8-0.7-1.4-0.7c-0.5,0-1,0.2-1.3,0.5C377.3,68.7,377.1,69.2,377.1,69.8z"/>
	<path d="M391.5,73c-0.4,0.4-0.8,0.6-1.2,0.8c-0.4,0.1-0.8,0.2-1.3,0.2c-0.7,0-1.3-0.2-1.7-0.5c-0.4-0.4-0.6-0.8-0.6-1.4
		c0-0.3,0.1-0.6,0.2-0.9c0.2-0.3,0.3-0.5,0.6-0.7s0.5-0.3,0.8-0.4c0.2-0.1,0.6-0.1,1-0.2c0.9-0.1,1.6-0.2,2-0.4c0-0.2,0-0.3,0-0.3
		c0-0.5-0.1-0.8-0.3-1c-0.3-0.3-0.7-0.4-1.3-0.4c-0.5,0-0.9,0.1-1.2,0.3s-0.4,0.5-0.6,1l-1.1-0.2c0.1-0.5,0.3-0.9,0.5-1.2
		s0.6-0.5,1-0.7c0.4-0.2,0.9-0.2,1.5-0.2c0.6,0,1,0.1,1.4,0.2c0.4,0.1,0.6,0.3,0.8,0.5s0.3,0.5,0.4,0.8c0,0.2,0.1,0.5,0.1,1.1V71
		c0,1.1,0,1.7,0.1,2s0.1,0.6,0.3,0.8h-1.2C391.6,73.6,391.5,73.3,391.5,73z M391.4,70.4c-0.4,0.2-1,0.3-1.9,0.4
		c-0.5,0.1-0.8,0.1-1,0.2c-0.2,0.1-0.3,0.2-0.5,0.4c-0.1,0.2-0.2,0.3-0.2,0.5c0,0.3,0.1,0.6,0.3,0.8s0.6,0.3,1,0.3
		c0.4,0,0.8-0.1,1.2-0.3c0.3-0.2,0.6-0.5,0.8-0.8c0.1-0.3,0.2-0.6,0.2-1.1V70.4z"/>
	<path d="M394.3,73.8v-6.7h1v1c0.5-0.7,1.2-1.1,2.1-1.1c0.4,0,0.8,0.1,1.1,0.2c0.3,0.1,0.6,0.3,0.8,0.6c0.2,0.2,0.3,0.5,0.4,0.8
		c0,0.2,0.1,0.6,0.1,1.1v4.1h-1.1v-4.1c0-0.5,0-0.8-0.1-1c-0.1-0.2-0.2-0.4-0.5-0.6s-0.5-0.2-0.8-0.2c-0.5,0-0.9,0.2-1.3,0.5
		c-0.4,0.3-0.5,0.9-0.5,1.8v3.7H394.3z"/>
	<path d="M405.9,73.8v-0.9c-0.4,0.7-1.1,1-1.9,1c-0.5,0-1-0.1-1.5-0.4c-0.5-0.3-0.8-0.7-1-1.2c-0.2-0.5-0.4-1.1-0.4-1.8
		c0-0.7,0.1-1.3,0.3-1.8c0.2-0.5,0.6-1,1-1.3c0.4-0.3,1-0.4,1.5-0.4c0.4,0,0.8,0.1,1.1,0.3c0.3,0.2,0.6,0.4,0.8,0.7v-3.3h1.1v9.3
		H405.9z M402.3,70.4c0,0.9,0.2,1.5,0.5,1.9c0.4,0.4,0.8,0.6,1.3,0.6c0.5,0,0.9-0.2,1.3-0.6c0.3-0.4,0.5-1,0.5-1.9
		c0-0.9-0.2-1.6-0.5-2s-0.8-0.6-1.3-0.6c-0.5,0-0.9,0.2-1.3,0.6C402.5,68.9,402.3,69.5,402.3,70.4z"/>
</g>
<g class="st0">
	<path d="M30.4,91.3l1.1-0.2c0.1,0.5,0.2,0.8,0.5,1c0.3,0.2,0.7,0.4,1.2,0.4c0.5,0,0.9-0.1,1.2-0.3s0.4-0.5,0.4-0.8
		c0-0.3-0.1-0.5-0.3-0.6c-0.2-0.1-0.5-0.2-1.2-0.4c-0.8-0.2-1.4-0.4-1.7-0.5c-0.3-0.2-0.6-0.4-0.7-0.6c-0.2-0.3-0.3-0.6-0.3-0.9
		c0-0.3,0.1-0.6,0.2-0.8c0.1-0.3,0.3-0.5,0.6-0.6c0.2-0.1,0.4-0.2,0.7-0.3c0.3-0.1,0.6-0.1,1-0.1c0.5,0,1,0.1,1.4,0.2
		c0.4,0.2,0.7,0.4,0.9,0.6c0.2,0.3,0.3,0.6,0.4,1l-1.1,0.2c-0.1-0.3-0.2-0.6-0.4-0.8c-0.2-0.2-0.6-0.3-1-0.3c-0.5,0-0.9,0.1-1.1,0.3
		c-0.2,0.2-0.3,0.4-0.3,0.6c0,0.1,0,0.3,0.1,0.4c0.1,0.1,0.2,0.2,0.4,0.3c0.1,0,0.5,0.1,1,0.3c0.8,0.2,1.4,0.4,1.7,0.5
		c0.3,0.1,0.6,0.3,0.8,0.6s0.3,0.6,0.3,1c0,0.4-0.1,0.7-0.3,1.1c-0.2,0.3-0.5,0.6-1,0.8c-0.4,0.2-0.9,0.3-1.4,0.3
		c-0.9,0-1.5-0.2-2-0.5C30.8,92.5,30.5,92,30.4,91.3z"/>
	<path d="M41.8,92.5c-0.4,0.4-0.8,0.6-1.2,0.8c-0.4,0.1-0.8,0.2-1.3,0.2c-0.7,0-1.3-0.2-1.7-0.5c-0.4-0.4-0.6-0.8-0.6-1.4
		c0-0.3,0.1-0.6,0.2-0.9c0.1-0.3,0.3-0.5,0.6-0.7c0.2-0.2,0.5-0.3,0.8-0.4c0.2-0.1,0.6-0.1,1-0.2c0.9-0.1,1.6-0.2,2-0.4
		c0-0.2,0-0.3,0-0.3c0-0.5-0.1-0.8-0.3-1c-0.3-0.3-0.7-0.4-1.3-0.4c-0.5,0-0.9,0.1-1.2,0.3c-0.3,0.2-0.4,0.5-0.6,1l-1.1-0.2
		c0.1-0.5,0.3-0.9,0.5-1.2s0.6-0.5,1-0.7c0.4-0.2,1-0.2,1.5-0.2c0.6,0,1,0.1,1.4,0.2s0.6,0.3,0.8,0.5s0.3,0.5,0.4,0.8
		c0,0.2,0.1,0.5,0.1,1.1v1.5c0,1.1,0,1.7,0.1,2c0,0.3,0.1,0.6,0.3,0.8H42C41.9,93.1,41.8,92.8,41.8,92.5z M41.7,89.9
		c-0.4,0.2-1,0.3-1.9,0.4c-0.5,0.1-0.8,0.1-1,0.2c-0.2,0.1-0.3,0.2-0.5,0.4s-0.2,0.3-0.2,0.5c0,0.3,0.1,0.6,0.3,0.8
		c0.2,0.2,0.6,0.3,1,0.3c0.4,0,0.8-0.1,1.2-0.3s0.6-0.5,0.8-0.8c0.1-0.3,0.2-0.6,0.2-1.1V89.9z"/>
	<path d="M46.5,93.3l-2.6-6.7h1.2l1.4,4c0.2,0.4,0.3,0.9,0.4,1.4c0.1-0.4,0.2-0.8,0.4-1.3l1.5-4.1h1.2l-2.6,6.7H46.5z"/>
	<path d="M55.7,91.1l1.2,0.1c-0.2,0.7-0.5,1.2-1,1.6s-1.1,0.6-1.9,0.6c-1,0-1.8-0.3-2.3-0.9c-0.6-0.6-0.9-1.5-0.9-2.6
		c0-1.1,0.3-2,0.9-2.6s1.3-0.9,2.3-0.9c0.9,0,1.6,0.3,2.2,0.9c0.6,0.6,0.9,1.5,0.9,2.6c0,0.1,0,0.2,0,0.3h-5c0,0.7,0.3,1.3,0.6,1.7
		c0.4,0.4,0.8,0.6,1.4,0.6c0.4,0,0.8-0.1,1.1-0.3S55.5,91.6,55.7,91.1z M52,89.3h3.8c-0.1-0.6-0.2-1-0.4-1.3
		c-0.4-0.4-0.8-0.7-1.4-0.7c-0.5,0-1,0.2-1.3,0.5C52.2,88.2,52,88.7,52,89.3z"/>
	<path d="M58.6,93.3V92h1.3v1.3H58.6z"/>
	<path d="M65.7,93.3V84H67v3.8h4.8V84H73v9.3h-1.2v-4.4H67v4.4H65.7z"/>
	<path d="M79.5,91.1l1.2,0.1c-0.2,0.7-0.5,1.2-1,1.6c-0.5,0.4-1.1,0.6-1.9,0.6c-1,0-1.8-0.3-2.3-0.9c-0.6-0.6-0.9-1.5-0.9-2.6
		c0-1.1,0.3-2,0.9-2.6s1.3-0.9,2.3-0.9c0.9,0,1.6,0.3,2.2,0.9c0.6,0.6,0.9,1.5,0.9,2.6c0,0.1,0,0.2,0,0.3h-5c0,0.7,0.3,1.3,0.6,1.7
		c0.4,0.4,0.8,0.6,1.4,0.6c0.4,0,0.8-0.1,1.1-0.3S79.4,91.6,79.5,91.1z M75.8,89.3h3.8c-0.1-0.6-0.2-1-0.4-1.3
		c-0.4-0.4-0.8-0.7-1.4-0.7c-0.5,0-1,0.2-1.3,0.5C76,88.2,75.8,88.7,75.8,89.3z"/>
	<path d="M82.1,93.3v-6.7h1v1c0.3-0.5,0.5-0.8,0.7-0.9c0.2-0.2,0.5-0.2,0.7-0.2c0.4,0,0.8,0.1,1.2,0.4l-0.4,1.1
		c-0.3-0.2-0.6-0.2-0.8-0.2c-0.2,0-0.5,0.1-0.7,0.2s-0.3,0.4-0.4,0.6c-0.1,0.4-0.2,0.9-0.2,1.3v3.5H82.1z"/>
	<path d="M91.1,91.1l1.2,0.1c-0.2,0.7-0.5,1.2-1,1.6c-0.5,0.4-1.1,0.6-1.9,0.6c-1,0-1.8-0.3-2.3-0.9c-0.6-0.6-0.9-1.5-0.9-2.6
		c0-1.1,0.3-2,0.9-2.6s1.3-0.9,2.3-0.9c0.9,0,1.6,0.3,2.2,0.9c0.6,0.6,0.9,1.5,0.9,2.6c0,0.1,0,0.2,0,0.3h-5c0,0.7,0.3,1.3,0.6,1.7
		c0.4,0.4,0.8,0.6,1.4,0.6c0.4,0,0.8-0.1,1.1-0.3C90.7,92,90.9,91.6,91.1,91.1z M87.4,89.3h3.8c-0.1-0.6-0.2-1-0.4-1.3
		c-0.4-0.4-0.8-0.7-1.4-0.7c-0.5,0-1,0.2-1.3,0.5C87.6,88.2,87.4,88.7,87.4,89.3z"/>
	<path d="M97.3,85.3V84h1.1v1.3H97.3z M97.3,93.3v-6.7h1.1v6.7H97.3z"/>
	<path d="M99.8,91.3l1.1-0.2c0.1,0.5,0.2,0.8,0.5,1c0.3,0.2,0.7,0.4,1.2,0.4c0.5,0,0.9-0.1,1.2-0.3s0.4-0.5,0.4-0.8
		c0-0.3-0.1-0.5-0.3-0.6c-0.2-0.1-0.5-0.2-1.2-0.4c-0.8-0.2-1.4-0.4-1.7-0.5c-0.3-0.2-0.6-0.4-0.7-0.6c-0.2-0.3-0.3-0.6-0.3-0.9
		c0-0.3,0.1-0.6,0.2-0.8s0.3-0.5,0.6-0.6c0.2-0.1,0.4-0.2,0.7-0.3s0.6-0.1,1-0.1c0.5,0,1,0.1,1.4,0.2c0.4,0.2,0.7,0.4,0.9,0.6
		c0.2,0.3,0.3,0.6,0.4,1l-1.1,0.2c-0.1-0.3-0.2-0.6-0.4-0.8s-0.6-0.3-1-0.3c-0.5,0-0.9,0.1-1.1,0.3c-0.2,0.2-0.3,0.4-0.3,0.6
		c0,0.1,0,0.3,0.1,0.4c0.1,0.1,0.2,0.2,0.4,0.3c0.1,0,0.5,0.1,1,0.3c0.8,0.2,1.4,0.4,1.7,0.5s0.6,0.3,0.8,0.6s0.3,0.6,0.3,1
		c0,0.4-0.1,0.7-0.3,1.1c-0.2,0.3-0.5,0.6-1,0.8c-0.4,0.2-0.9,0.3-1.4,0.3c-0.9,0-1.5-0.2-2-0.5S99.9,92,99.8,91.3z"/>
	<path d="M112.8,92.3l0.2,1c-0.3,0.1-0.6,0.1-0.9,0.1c-0.4,0-0.7-0.1-1-0.2c-0.2-0.1-0.4-0.3-0.5-0.5s-0.1-0.7-0.1-1.3v-3.9h-0.8
		v-0.9h0.8v-1.7l1.1-0.7v2.4h1.1v0.9h-1.1v3.9c0,0.3,0,0.5,0.1,0.6s0.1,0.2,0.2,0.2c0.1,0.1,0.2,0.1,0.4,0.1
		C112.4,92.3,112.6,92.3,112.8,92.3z"/>
	<path d="M113.9,85.3V84h1.1v1.3H113.9z M113.9,93.3v-6.7h1.1v6.7H113.9z"/>
	<path d="M116.8,95.9v-9.3h1v0.9c0.2-0.3,0.5-0.6,0.8-0.8c0.3-0.2,0.7-0.3,1.1-0.3c0.6,0,1.1,0.1,1.5,0.4c0.4,0.3,0.8,0.7,1,1.3
		c0.2,0.5,0.3,1.1,0.3,1.8c0,0.7-0.1,1.3-0.4,1.9c-0.2,0.6-0.6,1-1.1,1.3s-1,0.4-1.5,0.4c-0.4,0-0.7-0.1-1-0.2s-0.6-0.4-0.7-0.6v3.3
		H116.8z M117.9,90c0,0.9,0.2,1.5,0.5,1.9c0.4,0.4,0.8,0.6,1.3,0.6c0.5,0,0.9-0.2,1.3-0.6c0.4-0.4,0.5-1.1,0.5-2
		c0-0.9-0.2-1.5-0.5-1.9s-0.8-0.6-1.3-0.6c-0.5,0-0.9,0.2-1.3,0.7C118.1,88.4,117.9,89.1,117.9,90z"/>
	<path d="M127.5,93.5l0.6-2.7h-1.1v-0.9h1.3l0.5-2.3h-1.7v-0.9h1.9l0.6-2.7h1l-0.6,2.7h2l0.6-2.7h1l-0.6,2.7h1.1v0.9h-1.3l-0.5,2.3
		h1.8v0.9h-2l-0.6,2.7h-1l0.5-2.7h-2l-0.6,2.7H127.5z M129.2,89.8h2l0.5-2.3h-2L129.2,89.8z"/>
	<path d="M138.9,93.3h-1.1V86c-0.3,0.3-0.6,0.5-1.1,0.8c-0.4,0.3-0.8,0.5-1.2,0.6v-1.1c0.6-0.3,1.2-0.7,1.7-1.1
		c0.5-0.4,0.8-0.8,1-1.2h0.7V93.3z"/>
	<path d="M141.9,85.2v-1.1h6V85c-0.6,0.6-1.2,1.5-1.8,2.5c-0.6,1-1,2.1-1.3,3.2c-0.2,0.8-0.4,1.6-0.4,2.6h-1.2
		c0-0.7,0.2-1.6,0.4-2.7s0.7-2,1.2-3c0.5-1,1.1-1.8,1.6-2.4H141.9z"/>
	<path d="M149.7,87.9v-1.3h1.3v1.3H149.7z M149.7,93.3V92h1.3v1.3H149.7z"/>
</g>
<g>
	<g>
		<defs>
			<rect id="SVGID_1_" width="470" height="295"/>
		</defs>
		<clipPath id="SVGID_2_">
			<use xlink:href="#SVGID_1_"  style="overflow:visible;"/>
		</clipPath>
		<path class="st1" d="M57.1,293h16.6V113.3H57.1c-0.1,0-7.1,0.1-7.1,7.1v165.5C50,285.9,50,293,57.1,293"/>
	</g>
</g>
<rect x="109.2" y="113.3" class="st2" width="252.5" height="179.7"/>
<g>
	<g>
		<defs>
			<rect id="SVGID_3_" width="470" height="295"/>
		</defs>
		<clipPath id="SVGID_4_">
			<use xlink:href="#SVGID_3_"  style="overflow:visible;"/>
		</clipPath>
		<path class="st3" d="M397.3,293h15.6c0,0,7.1,0,7.1-7.1V268l-22.8-91.1L397.3,293L397.3,293z"/>
	</g>
</g>
<path class="st4" d="M101.7,293h7.5H101.7z"/>
<path class="st4" d="M73.7,293h7.5H73.7z"/>
<rect x="73.7" y="113.3" class="st4" width="7.5" height="179.7"/>
<rect x="101.7" y="113.3" class="st4" width="7.5" height="179.7"/>
<path class="st4" d="M361.7,293h7.5H361.7z"/>
<path class="st4" d="M389.7,293h7.5H389.7z"/>
<rect x="361.7" y="113.3" class="st4" width="7.5" height="179.7"/>
<polygon class="st4" points="389.7,146.9 389.7,293 397.3,293 397.3,176.9 "/>
<path class="st5" d="M81.2,293h20.5H81.2z"/>
<rect x="81.2" y="113.3" class="st5" width="20.5" height="179.7"/>
<path class="st5" d="M369.2,293h20.5H369.2z"/>
<polygon class="st5" points="389.7,293 389.7,146.9 381.4,113.3 369.2,113.3 369.2,293 "/>
<g>
	<g>
		<defs>
			<rect id="SVGID_5_" width="470" height="295"/>
		</defs>
		<clipPath id="SVGID_6_">
			<use xlink:href="#SVGID_5_"  style="overflow:visible;"/>
		</clipPath>
		<path class="st6" d="M361.7,129.1l-15,9.8c-8.1,5.3-4.4,10.9-4.4,10.9l19.4,29.6V129.1z"/>
	</g>
</g>
<polygon class="st7" points="364.5,127.2 361.7,129.1 361.7,179.4 369.2,190.9 369.2,134.5 "/>
<polygon class="st7" points="397.4,177.5 406.9,215.4 397.8,178.1 "/>
<polygon class="st8" points="397.3,177.3 397.3,233.6 419.6,267.7 406.9,215.4 397.4,177.5 "/>
<polygon class="st7" points="389.7,165.8 389.7,222.2 397.3,233.6 397.3,177.3 "/>
<polygon class="st5" points="369.2,134.5 369.2,190.9 389.7,222.2 389.7,165.8 "/>
<polygon class="st7" points="369.2,124.1 364.5,127.2 369.2,134.5 "/>
<polygon class="st7" points="389.9,147.4 397.3,176.9 397.4,177.5 397.8,178.1 390.6,148.5 "/>
<polygon class="st8" points="397.3,177.3 397.4,177.5 397.3,176.9 "/>
<polygon class="st7" points="389.7,147.2 389.7,165.8 397.3,177.3 397.3,176.9 389.9,147.4 "/>
<polygon class="st5" points="373,121.7 369.2,124.1 369.2,134.5 389.7,165.8 389.7,147.2 "/>
<polygon class="st7" points="382.6,115.4 382,115.8 389.7,146.9 389.9,147.4 390.6,148.5 "/>
<polygon class="st7" points="389.7,147.2 389.9,147.4 389.7,146.9 "/>
<polygon class="st5" points="382,115.8 373,121.7 389.7,147.2 389.7,146.9 "/>
<g>
	<g>
		<defs>
			<rect id="SVGID_7_" width="470" height="295"/>
		</defs>
		<clipPath id="SVGID_8_">
			<use xlink:href="#SVGID_7_"  style="overflow:visible;"/>
		</clipPath>
		<path class="st9" d="M419.6,269.2l-71.5-129.3c0,0-3.4-6.2,3.5-10l15.2-8.3l30.8,55.8L419.6,269.2z"/>
	</g>
</g>
<polygon class="st4" points="397.6,177.3 366.8,121.6 374.1,117.6 390.3,147 "/>
<polygon class="st5" points="374.1,117.6 382.2,113.1 390.3,147 "/>
<g>
	<g>
		<defs>
			<rect id="SVGID_9_" width="470" height="295"/>
		</defs>
		<clipPath id="SVGID_10_">
			<use xlink:href="#SVGID_9_"  style="overflow:visible;"/>
		</clipPath>
		<path class="st10" d="M317.8,255.3c-1.7,0-3,1.3-3,3c0,1.7,1.3,3,3,3s3-1.3,3-3C320.8,256.6,319.5,255.3,317.8,255.3 M307.7,255.1
			c0.9,0,1.6,0.7,1.6,1.6c0,0.9-0.7,1.6-1.6,1.6s-1.6-0.7-1.6-1.6S306.8,255.1,307.7,255.1 M303.1,256.7c0,2.6,2,4.6,4.6,4.6
			s4.6-2,4.6-4.6s-2-4.6-4.6-4.6S303.1,254.1,303.1,256.7 M297.1,246.1c0,0.9-0.7,1.6-1.6,1.6s-1.6-0.7-1.6-1.6
			c0-0.9,0.7-1.6,1.6-1.6S297.1,245.2,297.1,246.1 M295.5,241.6c-2.6,0-4.6,2-4.6,4.6s2,4.6,4.6,4.6s4.6-2,4.6-4.6
			C300.1,243.5,298.1,241.6,295.5,241.6 M292.1,260.6l2.1,1.7l16.5-20.2l-2.1-1.8L292.1,260.6z M283.8,251.4c0,3.4-1.9,5.1-4.7,5.1
			c-2.8,0-4.7-1.7-4.7-5.1c0-3.3,1.9-5.1,4.7-5.1C281.9,246.3,283.8,248.1,283.8,251.4 M269.6,251.4c0,6,4.2,9.8,9.5,9.8
			s9.5-3.8,9.5-9.8c0-6-4.2-9.8-9.5-9.8S269.6,245.4,269.6,251.4 M262.6,241.6l-7.3,7.1l3.3,3.5l3.2-3.1v12.2h4.8v-19.7L262.6,241.6
			L262.6,241.6z M239.5,266.9l8.7-19.7h-4.8l-3,6.7l-3-6.7h-5.1l5.9,12l-3.4,7.7L239.5,266.9L239.5,266.9z M228.3,254.2
			c0,1.9-1.4,3-3.1,3s-3.1-1.1-3.1-3s1.4-3,3.1-3S228.3,252.3,228.3,254.2 M217.7,241.6v19.7h4.5v-1.9c1,1.4,2.6,2.3,4.5,2.3
			c3.2,0,6.2-2.5,6.2-7.4s-2.9-7.4-6.1-7.4c-2.2,0-3.7,1-4.6,2.4v-7.6h-4.5V241.6z M197.8,252.4c0.4-1.4,1.4-1.9,2.6-1.9
			c1.4,0,2.3,0.8,2.4,1.9H197.8z M193.3,254.1c0,4.1,2.7,7.5,7.8,7.5c2.8,0,4.4-0.7,5.6-1.5l-1.7-3.8c-1,0.6-2.3,1-3.7,1
			c-1.2,0-2.6-0.4-3.3-1.7v-0.1h9.8v-1.2c0-4.8-2.8-7.5-7.1-7.5C196.2,246.8,193.3,250,193.3,254.1 M181.4,249.4
			c-0.8-1.8-2.3-2.5-4.2-2.5c-2.3,0-3.5,1.1-4.3,2.4v-2.1h-4.4v14.1h4.5v-6.8c0-1.9,0.7-3.2,2.4-3.2c1.4,0,2.1,0.9,2.1,2.6v7.4h4.5
			v-6.8c0-1.9,0.7-3.2,2.4-3.2c1.4,0,2.1,0.9,2.1,2.6v7.4h4.5v-8.8c0-3.6-2.3-5.6-5.2-5.6C183.7,246.8,182.1,247.9,181.4,249.4
			 M160.9,261.3h4.5v-14.1h-4.5V261.3z M160.5,243.2c0,1.5,1.1,2.6,2.6,2.6s2.6-1.1,2.6-2.6s-1.1-2.6-2.6-2.6
			C161.6,240.5,160.5,241.6,160.5,243.2 M158.1,256.6c-1.2,0.2-1.6,0.2-1.9,0.2c-0.8,0-1.3-0.2-1.3-1v-4.9h3.4v-3.7h-3.4v-3.8h-4.5
			v3.8H148v3.7h2.4v5.8c0,3.3,1.6,4.7,4.3,4.7c0.9,0,2.2-0.2,3.4-0.5V256.6z"/>
	</g>
	<g>
		<defs>
			<rect id="SVGID_11_" width="470" height="295"/>
		</defs>
		<clipPath id="SVGID_12_">
			<use xlink:href="#SVGID_11_"  style="overflow:visible;"/>
		</clipPath>
		<path class="st11" d="M325,220.4c0,4.8,3,7.1,6.4,7.1c1.9,0,3.4-0.8,4.3-2.1v0.7c0,1.9-1.1,3-4.1,3c-1.4,0-2.7-0.4-4-1.2l-1.8,4
			c1.7,0.9,3.7,1.4,6.1,1.4c6.2,0,8.2-3.2,8.2-7v-13h-4.5v2c-0.8-1.3-2.3-2.3-4.4-2.3C328.1,213.1,325,215.6,325,220.4 M335.8,220.5
			c0,1.9-1.4,3-3.1,3c-1.6,0-3.1-1.1-3.1-3s1.4-3,3.1-3S335.8,218.6,335.8,220.5 M313.5,213.4h-4.4v14.1h4.5v-6.8
			c0-2.1,1-3.2,2.4-3.2s2.1,0.7,2.1,2.6v7.5h4.6v-9c0-3.5-1.6-5.4-4.8-5.4c-2.2,0-3.6,1.2-4.5,2.4L313.5,213.4L313.5,213.4z
			 M301.6,227.5h4.5v-14.1h-4.5V227.5z M301.2,209.4c0,1.5,1.1,2.6,2.6,2.6s2.6-1.1,2.6-2.6s-1.1-2.6-2.6-2.6
			C302.3,206.8,301.2,207.9,301.2,209.4 M291.5,233.1l8.7-19.7h-4.8l-3,6.7l-3-6.7h-5.1l5.9,12l-3.4,7.7H291.5z M279.2,213.4h-4.3
			v14.1h4.5v-6.2c0-2.5,1.2-3.4,3.2-3.4c0.6,0,1.3,0.1,1.8,0.3v-4.9c-0.4-0.1-0.8-0.2-1.4-0.2c-2,0-3.2,1.1-3.9,2.8L279.2,213.4
			L279.2,213.4z M267.6,207.8v7.6c-0.9-1.3-2.5-2.4-4.6-2.4c-3.2,0-6.1,2.5-6.1,7.4s2.9,7.4,6.2,7.4c1.9,0,3.5-0.8,4.5-2.3v1.9h4.5
			v-19.7h-4.5V207.8z M264.6,217.5c1.6,0,3.1,1.1,3.1,3s-1.4,3-3.1,3c-1.6,0-3.1-1.1-3.1-3S262.9,217.5,264.6,217.5 M236.4,217.8
			c0,3.1,2.4,4.1,4.3,4.6c2.6,0.6,3.1,0.6,3.1,1c0,0.5-0.7,0.5-1.2,0.5c-2.1,0-3.6-0.8-4.6-1.5l-2.3,3.8c1.3,1.1,3.5,1.7,6.2,1.7
			c4.2,0,6.5-1.4,6.5-4.7c0-2.8-1.7-4-4.2-4.5c-2.9-0.6-3.2-0.6-3.2-1c0-0.3,0.3-0.5,1.2-0.5c1.2,0,3,0.4,3.9,1.1l2.1-3.6
			c-1.4-0.9-3.1-1.5-5.6-1.5C238.7,213.1,236.4,214.7,236.4,217.8 M234,222.8c-1.2,0.2-1.6,0.2-1.9,0.2c-0.8,0-1.3-0.2-1.3-1v-4.9
			h3.4v-3.7h-3.4v-3.8h-4.5v3.8h-2.4v3.7h2.4v5.8c0,3.3,1.6,4.7,4.3,4.7c0.9,0,2.2-0.2,3.4-0.5V222.8z M217.5,213.4v6.8
			c0,2.1-1,3.2-2.5,3.2c-1.1,0-1.9-0.6-1.9-2.5v-7.5h-4.6v9c0,3.5,1.7,5.4,4.7,5.4c2.1,0,3.5-1.2,4.4-2.5v2.2h4.4v-14.1L217.5,213.4
			L217.5,213.4z M193.7,220.5c0,4.6,3.3,7.4,7.6,7.4c2.3,0,4.2-0.8,5.5-2.1l-2.4-3.7c-0.7,0.8-1.6,1.3-3,1.3c-1.8,0-3.1-1.2-3.1-3
			s1.3-3,3.1-3c1.3,0,2.3,0.5,3,1.3l2.4-3.7c-1.2-1.2-3.1-2.1-5.5-2.1C197,213.1,193.7,215.9,193.7,220.5 M179.2,207.8v7.6
			c-0.9-1.3-2.4-2.4-4.6-2.4c-3.2,0-6.1,2.5-6.1,7.4s2.9,7.4,6.2,7.4c1.9,0,3.5-0.8,4.5-2.3v1.9h4.5v-19.7h-4.5V207.8z M176.2,217.5
			c1.6,0,3.1,1.1,3.1,3s-1.4,3-3.1,3c-1.6,0-3.1-1.1-3.1-3C173.1,218.6,174.6,217.5,176.2,217.5 M156.4,218.6
			c0.7-1.1,2.3-1.4,3.4-1.4c1.4,0,2.1,0.3,2.1,0.9v0.1c0,0.3-0.2,0.4-0.6,0.5l-3.8,0.3c-2.6,0.2-4.5,1.9-4.5,4.4
			c0,2.7,2.1,4.4,4.7,4.4c2.3,0,3.6-1.2,4.2-2.1v1.9h4.5v-8.4c0-4.3-2.2-6-6.5-6c-2.9,0-5.5,0.9-6.7,3L156.4,218.6z M161.9,221.8
			c0,1.4-1.1,2.4-2.6,2.4c-1,0-1.6-0.4-1.6-1.2c0-0.7,0.5-1.1,1.4-1.2l2.8-0.3L161.9,221.8L161.9,221.8z M147.1,220.5
			c0,1.9-1.4,3-3.1,3c-1.6,0-3.1-1.1-3.1-3s1.4-3,3.1-3C145.7,217.5,147.1,218.6,147.1,220.5 M136.4,220.5c0,4.5,3.3,7.4,7.7,7.4
			s7.7-2.9,7.7-7.4s-3.3-7.4-7.7-7.4S136.4,216,136.4,220.5 M129.8,227.5h4.5v-19.7h-4.5V227.5z"/>
	</g>
	<g>
		<defs>
			<rect id="SVGID_13_" width="470" height="295"/>
		</defs>
		<clipPath id="SVGID_14_">
			<use xlink:href="#SVGID_13_"  style="overflow:visible;"/>
		</clipPath>
		<path class="st12" d="M317.4,179.7h-4.3v14.1h4.5v-6.2c0-2.5,1.2-3.4,3.2-3.4c0.6,0,1.3,0.1,1.8,0.3v-4.9
			c-0.4-0.1-0.8-0.2-1.4-0.2c-2,0-3.2,1.1-3.9,2.8L317.4,179.7L317.4,179.7z M305.6,179.7v6.8c0,2.1-1,3.2-2.4,3.2
			c-1.1,0-1.9-0.6-1.9-2.5v-7.5h-4.6v9c0,3.5,1.7,5.4,4.7,5.4c2.1,0,3.5-1.2,4.4-2.5v2.2h4.4v-14.1L305.6,179.7L305.6,179.7z
			 M290,186.7c0,1.9-1.4,3-3.1,3c-1.6,0-3.1-1.1-3.1-3s1.4-3,3.1-3C288.5,183.7,290,184.8,290,186.7 M279.2,186.7
			c0,4.5,3.3,7.4,7.7,7.4c4.4,0,7.7-2.9,7.7-7.4s-3.3-7.4-7.7-7.4S279.2,182.2,279.2,186.7 M270.9,199.4l8.7-19.7h-4.8l-3,6.7
			l-3-6.7h-5.1l5.9,12l-3.4,7.7H270.9z M250.8,186.7c0,1.9-1.4,3-3.1,3c-1.6,0-3.1-1.1-3.1-3s1.4-3,3.1-3
			C249.4,183.7,250.8,184.8,250.8,186.7 M240.1,186.7c0,4.5,3.3,7.4,7.7,7.4s7.7-2.9,7.7-7.4s-3.3-7.4-7.7-7.4
			S240.1,182.2,240.1,186.7 M238.6,189.1c-1.2,0.2-1.6,0.2-1.9,0.2c-0.8,0-1.3-0.2-1.3-1v-4.9h3.4v-3.7h-3.4v-3.8h-4.5v3.8h-2.4v3.7
			h2.4v5.8c0,3.3,1.6,4.7,4.3,4.7c0.9,0,2.2-0.2,3.4-0.5V189.1z M214.4,193.7h4.5V174h-4.5V193.7z M202.4,184.9
			c0.4-1.4,1.4-1.9,2.6-1.9c1.4,0,2.2,0.8,2.4,1.9H202.4z M197.9,186.6c0,4.1,2.7,7.5,7.8,7.5c2.8,0,4.4-0.7,5.6-1.5l-1.7-3.8
			c-1,0.6-2.3,1-3.7,1c-1.2,0-2.6-0.4-3.3-1.7V188h9.8v-1.2c0-4.8-2.8-7.5-7.1-7.5C200.7,179.3,197.9,182.4,197.9,186.6
			 M183.1,193.7l3.1-7.3l3.1,7.3h3.4l5.7-14.1h-4.8l-2.6,7.2l-2.8-7.2h-3.8l-2.8,7.2l-2.6-7.2h-5l5.7,14.1H183.1z M170,186.7
			c0,1.9-1.4,3-3.1,3c-1.6,0-3.1-1.1-3.1-3s1.4-3,3.1-3S170,184.8,170,186.7 M159.3,186.7c0,4.5,3.3,7.4,7.7,7.4s7.7-2.9,7.7-7.4
			s-3.3-7.4-7.7-7.4S159.3,182.2,159.3,186.7 M157.8,189.1c-1.2,0.2-1.6,0.2-1.9,0.2c-0.8,0-1.3-0.2-1.3-1v-4.9h3.4v-3.7h-3.4v-3.8
			h-4.5v3.8h-2.4v3.7h2.4v5.8c0,3.3,1.6,4.7,4.3,4.7c0.9,0,2.2-0.2,3.4-0.5V189.1z"/>
	</g>
	<g>
		<defs>
			<rect id="SVGID_15_" width="470" height="295"/>
		</defs>
		<clipPath id="SVGID_16_">
			<use xlink:href="#SVGID_15_"  style="overflow:visible;"/>
		</clipPath>
		<path class="st13" d="M313.7,165.6l8.7-19.7h-4.8l-3,6.7l-3-6.7h-5.1l5.9,12l-3.4,7.7H313.7z M301.5,145.9h-4.3V160h4.5v-6.2
			c0-2.5,1.2-3.4,3.2-3.4c0.6,0,1.3,0.1,1.8,0.3v-4.9c-0.4-0.1-0.8-0.2-1.4-0.2c-2,0-3.2,1.1-3.9,2.8L301.5,145.9L301.5,145.9z
			 M289.8,140.3v7.6c-0.9-1.3-2.4-2.4-4.6-2.4c-3.2,0-6.1,2.5-6.1,7.4s2.9,7.4,6.2,7.4c1.9,0,3.5-0.8,4.5-2.3v1.9h4.5v-19.7h-4.5
			V140.3z M286.8,150c1.6,0,3.1,1.1,3.1,3s-1.4,3-3.1,3s-3.1-1.1-3.1-3C283.8,151,285.2,150,286.8,150 M259,151
			c0.7-1.1,2.3-1.4,3.4-1.4c1.4,0,2.1,0.3,2.1,0.9v0.1c0,0.3-0.2,0.4-0.6,0.5l-3.8,0.3c-2.6,0.2-4.5,1.9-4.5,4.4
			c0,2.7,2.1,4.4,4.7,4.4c2.3,0,3.6-1.2,4.2-2.1v1.9h4.5v-8.4c0-4.3-2.2-6-6.5-6c-2.9,0-5.5,0.9-6.7,3L259,151z M264.5,154.3
			c0,1.4-1.1,2.4-2.6,2.4c-1,0-1.6-0.4-1.6-1.2c0-0.7,0.5-1.1,1.4-1.2l2.8-0.3L264.5,154.3L264.5,154.3z M230.4,152.8
			c0,4.8,3,7.1,6.4,7.1c1.9,0,3.4-0.8,4.3-2.1v0.7c0,1.9-1.1,3-4.1,3c-1.4,0-2.7-0.4-4-1.2l-1.8,4c1.7,0.9,3.7,1.4,6.1,1.4
			c6.2,0,8.2-3.2,8.2-7v-13H241v2c-0.8-1.3-2.3-2.3-4.4-2.3C233.5,145.6,230.4,148,230.4,152.8 M241.2,152.9c0,1.9-1.4,3-3.1,3
			c-1.6,0-3.1-1.1-3.1-3s1.4-3,3.1-3C239.8,150,241.2,151,241.2,152.9 M218.9,145.9h-4.4V160h4.5v-6.8c0-2.1,1-3.2,2.4-3.2
			s2.1,0.7,2.1,2.6v7.5h4.6v-9c0-3.5-1.6-5.4-4.8-5.4c-2.2,0-3.6,1.2-4.5,2.4L218.9,145.9L218.9,145.9z M207,160h4.5v-14.1H207V160z
			 M206.6,141.9c0,1.5,1.1,2.6,2.6,2.6s2.6-1.1,2.6-2.6s-1.1-2.6-2.6-2.6C207.7,139.2,206.6,140.3,206.6,141.9 M199.4,140.3v7.6
			c-0.9-1.3-2.4-2.4-4.6-2.4c-3.2,0-6.1,2.5-6.1,7.4s2.9,7.4,6.2,7.4c1.9,0,3.5-0.8,4.5-2.3v1.9h4.5v-19.7h-4.5V140.3z M196.4,150
			c1.6,0,3.1,1.1,3.1,3s-1.4,3-3.1,3c-1.6,0-3.1-1.1-3.1-3C193.3,151,194.8,150,196.4,150 M182.1,140.3v7.6
			c-0.9-1.3-2.4-2.4-4.6-2.4c-3.2,0-6.1,2.5-6.1,7.4s2.9,7.4,6.2,7.4c1.9,0,3.5-0.8,4.5-2.3v1.9h4.5v-19.7h-4.5V140.3z M179.1,150
			c1.6,0,3.1,1.1,3.1,3s-1.4,3-3.1,3c-1.6,0-3.1-1.1-3.1-3C176,151,177.5,150,179.1,150 M166.2,160h5.3l-9.1-19.7H158l-9,19.7h5.3
			l1.3-2.9h9.3L166.2,160z M160.2,147.1l2.4,5.2h-4.8L160.2,147.1z"/>
	</g>
</g>
</svg>
