<svg id="Layer_1" data-name="Layer 1" xmlns="http://www.w3.org/2000/svg" viewBox="0 0 65 15"><defs><style>.cls-1{fill:#10a3c8;}.cls-2{fill:none;stroke:#10a3c8;stroke-linecap:round;stroke-linejoin:round;stroke-width:2px;}</style></defs><title>Artboard 1 copy@3x-100</title><path class="cls-1" d="M7.21,3A4.38,4.38,0,0,1,11.68,7.6a4.38,4.38,0,0,1-4.46,4.56H3.91V3Zm0,1.82H5.73v5.47H7.21A2.59,2.59,0,0,0,9.86,7.6,2.59,2.59,0,0,0,7.21,4.87Z"/><path class="cls-1" d="M15.85,5.5c2,0,3.21,1.37,3.21,3.46v.47H14.27v0A1.68,1.68,0,0,0,16,10.7,2.7,2.7,0,0,0,17.88,10l.72,1.42a3.82,3.82,0,0,1-2.59.86,3.26,3.26,0,0,1-3.49-3.41A3.22,3.22,0,0,1,15.85,5.5Zm1.34,2.68A1.31,1.31,0,0,0,15.79,7a1.45,1.45,0,0,0-1.54,1.22Z"/><path class="cls-1" d="M24,12a6.18,6.18,0,0,1-1.41.2c-1.21,0-1.91-.56-1.91-2.06V7.1H19.54V5.65h1.18V3.91h1.72V5.65H24.1V7.1H22.45V9.92c0,.42.2.59.65.59a4.38,4.38,0,0,0,1-.1Z"/><path class="cls-1" d="M24.93,7a2.88,2.88,0,0,1,2.9-1.47c1.91,0,2.85.82,2.85,2.64v4H29v-.88a2.3,2.3,0,0,1-2,1,2,2,0,0,1-2.2-2,2.07,2.07,0,0,1,2.08-2l1.78-.16C28.85,8,29,8,29,7.81v-.1c0-.38-.35-.65-1.13-.65a1.63,1.63,0,0,0-1.63.83Zm4,2.29-1.61.2c-.53.09-.81.35-.81.72s.31.69.92.69A1.39,1.39,0,0,0,29,9.53Z"/><path class="cls-1" d="M33.1,2.68A1.09,1.09,0,0,1,34.2,3.79,1.08,1.08,0,0,1,33.1,4.88,1.07,1.07,0,0,1,32,3.79,1.08,1.08,0,0,1,33.1,2.68Zm.86,3v6.51H32.24V5.65Z"/><path class="cls-1" d="M37.29,3v9.11H35.56V3Z"/><path class="cls-1" d="M41.38,5.5a3.43,3.43,0,0,1,2.59,1L43,7.71A2.47,2.47,0,0,0,41.25,7c-.56,0-.83.16-.83.46s.35.4,1.51.65,2.08.68,2.08,2-1.08,2.12-2.81,2.12a3.59,3.59,0,0,1-2.89-1.08l1-1.3a2.57,2.57,0,0,0,2.06.85c.48,0,.87-.13.87-.49s-.35-.42-1.45-.66S38.63,9,38.63,7.56,39.66,5.5,41.38,5.5Z"/><polyline class="cls-2" points="61.09 5.99 56.39 10.69 51.69 5.99"/></svg>