<?xml version="1.0" encoding="utf-8"?>
<!-- Generator: Adobe Illustrator 20.1.0, SVG Export Plug-In . SVG Version: 6.00 Build 0)  -->
<svg version="1.1" baseProfile="tiny" id="Layer_1" xmlns="http://www.w3.org/2000/svg" xmlns:xlink="http://www.w3.org/1999/xlink"
	 x="0px" y="0px" viewBox="0 0 7.2 7.2" xml:space="preserve">
<g>
	<path fill="#51B848" d="M6.4,2c0.3,0.5,0.4,1,0.4,1.6c0,0.6-0.1,1.1-0.4,1.6S5.7,6.1,5.2,6.4c-0.5,0.3-1,0.4-1.6,0.4S2.5,6.7,2,6.4
		C1.5,6.1,1.1,5.7,0.8,5.2s-0.4-1-0.4-1.6C0.3,3,0.5,2.5,0.8,2C1.1,1.5,1.5,1.1,2,0.8c0.5-0.3,1-0.4,1.6-0.4s1.1,0.1,1.6,0.4
		C5.7,1.1,6.1,1.5,6.4,2z M5.6,4.8C5.8,4.4,5.9,4,5.9,3.6c0-0.4-0.1-0.8-0.3-1.2C5.4,2.1,5.1,1.8,4.8,1.6S4,1.3,3.6,1.3
		c-0.4,0-0.8,0.1-1.2,0.3S1.8,2.1,1.6,2.4C1.4,2.8,1.3,3.2,1.3,3.6c0,0.4,0.1,0.8,0.3,1.2c0.2,0.4,0.5,0.6,0.8,0.8
		c0.4,0.2,0.7,0.3,1.2,0.3c0.4,0,0.8-0.1,1.2-0.3C5.1,5.4,5.4,5.1,5.6,4.8z M5.3,3.2L3.5,5C3.5,5.1,3.4,5.1,3.3,5.1
		c-0.1,0-0.1,0-0.2-0.1L1.9,3.8C1.8,3.7,1.8,3.7,1.8,3.6c0-0.1,0-0.1,0.1-0.2L2.3,3c0.1-0.1,0.1-0.1,0.2-0.1c0.1,0,0.1,0,0.2,0.1
		l0.6,0.6l1.2-1.2c0.1-0.1,0.1-0.1,0.2-0.1c0.1,0,0.1,0,0.2,0.1l0.4,0.4C5.4,2.9,5.4,3,5.4,3.1C5.4,3.1,5.4,3.2,5.3,3.2z"/>
</g>
</svg>
