<?xml version="1.0" encoding="utf-8"?>
<!-- Generator: Adobe Illustrator 20.1.0, SVG Export Plug-In . SVG Version: 6.00 Build 0)  -->
<svg version="1.1" id="Layer_1" xmlns="http://www.w3.org/2000/svg" xmlns:xlink="http://www.w3.org/1999/xlink" x="0px" y="0px"
	 viewBox="0 0 10.8 10.8" style="enable-background:new 0 0 10.8 10.8;" xml:space="preserve">
<style type="text/css">
	.st0{fill-rule:evenodd;clip-rule:evenodd;fill:#9C948D;}
</style>
<path class="st0" d="M7.457,7.2C9.325,7.068,10.8,5.509,10.8,3.605C10.8,1.614,9.188,0,7.2,0C5.212,0,3.6,1.614,3.6,3.605
	c0,1.904,1.475,3.464,3.343,3.596H7.457L7.457,7.2L7.457,7.2z M6.637,3.605L5.512,2.463C5.356,2.306,5.364,2.058,5.528,1.909
	c0.164-0.149,0.423-0.141,0.578,0.016L7.2,3.034l1.093-1.109c0.155-0.157,0.414-0.164,0.578-0.016
	c0.164,0.149,0.172,0.397,0.016,0.554L7.763,3.605l1.126,1.141C9.043,4.903,9.036,5.151,8.872,5.3
	C8.708,5.448,8.449,5.441,8.293,5.284L7.2,4.175L6.106,5.284C5.951,5.441,5.693,5.448,5.528,5.3
	C5.364,5.151,5.356,4.903,5.512,4.746L6.637,3.605L6.637,3.605L6.637,3.605z M6.637,3.605"/>
</svg>
