<?xml version="1.0" encoding="utf-8"?>
<!-- Generator: Adobe Illustrator 20.1.0, SVG Export Plug-In . SVG Version: 6.00 Build 0)  -->
<svg version="1.1" id="Layer_1" xmlns="http://www.w3.org/2000/svg" xmlns:xlink="http://www.w3.org/1999/xlink" x="0px" y="0px"
	 viewBox="0 0 7.2 7.2" style="enable-background:new 0 0 7.2 7.2;" xml:space="preserve">
<style type="text/css">
	.st0{fill:#FFFFFF;}
	.st1{fill:#3E3935;}
</style>
<path class="st0" d="M6.662,1.825C6.346,1.283,5.917,0.854,5.375,0.538C4.833,0.222,4.241,0.064,3.6,0.064
	c-0.642,0-1.233,0.158-1.775,0.474C1.283,0.854,0.854,1.283,0.539,1.825C0.223,2.366,0.064,2.958,0.064,3.6s0.158,1.233,0.475,1.774
	c0.315,0.542,0.744,0.971,1.286,1.287S2.959,7.136,3.6,7.136c0.641,0,1.232-0.158,1.774-0.475s0.971-0.745,1.287-1.287
	C6.977,4.833,7.136,4.241,7.136,3.6S6.977,2.366,6.662,1.825z"/>
<path class="st1" d="M4.203,5.609c0,0.054-0.02,0.102-0.06,0.141c-0.04,0.039-0.087,0.059-0.141,0.059H3.198
	c-0.055,0-0.101-0.02-0.141-0.059c-0.04-0.039-0.06-0.087-0.06-0.141V4.906c0-0.055,0.02-0.102,0.06-0.142
	c0.04-0.039,0.087-0.059,0.141-0.059h0.804c0.055,0,0.101,0.02,0.141,0.059c0.04,0.04,0.06,0.087,0.06,0.142V5.609z"/>
<path class="st1" d="M4.209,4.002C4.207,4.056,4.186,4.104,4.144,4.143c-0.041,0.04-0.088,0.06-0.143,0.06H3.198
	c-0.055,0-0.102-0.02-0.143-0.06C3.014,4.104,2.993,4.056,2.991,4.002L2.903,1.591C2.901,1.537,2.919,1.49,2.958,1.45
	c0.039-0.04,0.086-0.059,0.14-0.059h1.005c0.055,0,0.101,0.019,0.14,0.059c0.039,0.04,0.057,0.087,0.055,0.141L4.209,4.002z"/>
</svg>
